  0
SECTION
  2
HEADER
  9
$ACADVER
  1
AC1014
  9
$HANDSEED
  5
FFFF
  9
$INSUNITS
 70
     4
  9
$MEASUREMENT
 70
     1
  0
ENDSEC
  0
SECTION
  2
TABLES
  0
TABLE
  2
VPORT
  5
8
330
0
100
AcDbSymbolTable
 70
     4
  0
VPORT
  5
2E
330
8
100
AcDbSymbolTableRecord
100
AcDbViewportTableRecord
  2
*ACTIVE
 70
     0
 10
0.0
 20
0.0
 11
1.0
 21
1.0
 12
210.0
 22
148.5
 13
0.0
 23
0.0
 14
10.0
 24
10.0
 15
10.0
 25
10.0
 16
0.0
 26
0.0
 36
1.0
 17
0.0
 27
0.0
 37
0.0
 40
341.0
 41
1.24
 42
50.0
 43
0.0
 44
0.0
 50
0.0
 51
0.0
 71
     0
 72
   100
 73
     1
 74
     3
 75
     0
 76
     0
 77
     0
 78
     0
  0
ENDTAB
  0
TABLE
  2
LTYPE
  5
5
330
0
100
AcDbSymbolTable
 70
     1
  0
LTYPE
  5
14
330
5
100
AcDbSymbolTableRecord
100
AcDbLinetypeTableRecord
  2
BYBLOCK
 70
     0
  3

 72
    65
 73
     0
 40
0.0
  0
LTYPE
  5
15
330
5
100
AcDbSymbolTableRecord
100
AcDbLinetypeTableRecord
  2
BYLAYER
 70
     0
  3

 72
    65
 73
     0
 40
0.0
  0
LTYPE
  5
16
330
5
100
AcDbSymbolTableRecord
100
AcDbLinetypeTableRecord
  2
CONTINUOUS
 70
     0
  3
Solid line
 72
    65
 73
     0
 40
0.0
  0
ENDTAB
  0
TABLE
  2
LAYER
  5
2
100
AcDbSymbolTable
 70
2
  0
LAYER
  5
50
100
AcDbSymbolTableRecord
100
AcDbLayerTableRecord
  2
0
 70
0
  6
CONTINUOUS
  0
LAYER
  5
51
100
AcDbSymbolTableRecord
100
AcDbLayerTableRecord
  2
Layer_1
 70
0
  6
CONTINUOUS
  0
ENDTAB
  0
TABLE
  2
STYLE
  5
3
330
0
100
AcDbSymbolTable
 70
     1
  0
STYLE
  5
11
330
3
100
AcDbSymbolTableRecord
100
AcDbTextStyleTableRecord
  2
STANDARD
 70
     0
 40
0.0
 41
1.0
 50
0.0
 71
     0
 42
2.5
  3
txt
  4

  0
ENDTAB
  0
TABLE
  2
VIEW
  5
6
330
0
100
AcDbSymbolTable
 70
     0
  0
ENDTAB
  0
TABLE
  2
UCS
  5
7
330
0
100
AcDbSymbolTable
 70
     0
  0
ENDTAB
  0
TABLE
  2
APPID
  5
9
330
0
100
AcDbSymbolTable
 70
     2
  0
APPID
  5
12
330
9
100
AcDbSymbolTableRecord
100
AcDbRegAppTableRecord
  2
ACAD
 70
     0
  0
ENDTAB
  0
TABLE
  2
DIMSTYLE
  5
A
330
0
100
AcDbSymbolTable
 70
     1
  0
DIMSTYLE
105
27
330
A
100
AcDbSymbolTableRecord
100
AcDbDimStyleTableRecord
  2
ISO-25
 70
     0
  3

  4

  5

  6

  7

 40
1.0
 41
2.5
 42
0.625
 43
3.75
 44
1.25
 45
0.0
 46
0.0
 47
0.0
 48
0.0
140
2.5
141
2.5
142
0.0
143
0.03937007874016
144
1.0
145
0.0
146
1.0
147
0.625
 71
     0
 72
     0
 73
     0
 74
     0
 75
     0
 76
     0
 77
     1
 78
     8
170
     0
171
     3
172
     1
173
     0
174
     0
175
     0
176
     0
177
     0
178
     0
270
     2
271
     2
272
     2
273
     2
274
     3
340
11
275
     0
280
     0
281
     0
282
     0
283
     0
284
     8
285
     0
286
     0
287
     3
288
     0
  0
ENDTAB
  0
TABLE
  2
BLOCK_RECORD
  5
1
330
0
100
AcDbSymbolTable
 70
     1
  0
BLOCK_RECORD
  5
1F
330
1
100
AcDbSymbolTableRecord
100
AcDbBlockTableRecord
  2
*MODEL_SPACE
  0
BLOCK_RECORD
  5
1B
330
1
100
AcDbSymbolTableRecord
100
AcDbBlockTableRecord
  2
*PAPER_SPACE
  0
ENDTAB
  0
ENDSEC
  0
SECTION
  2
BLOCKS
  0
BLOCK
  5
20
330
1F
100
AcDbEntity
  8
0
100
AcDbBlockBegin
  2
*MODEL_SPACE
 70
     0
 10
0.0
 20
0.0
 30
0.0
  3
*MODEL_SPACE
  1

  0
ENDBLK
  5
21
330
1F
100
AcDbEntity
  8
0
100
AcDbBlockEnd
  0
BLOCK
  5
1C
330
1B
100
AcDbEntity
 67
     1
  8
0
100
AcDbBlockBegin
  2
*PAPER_SPACE
  1

  0
ENDBLK
  5
1D
330
1B
100
AcDbEntity
 67
     1
  8
0
100
AcDbBlockEnd
  0
ENDSEC
  0
SECTION
  2
ENTITIES
  0
LWPOLYLINE
  5
100
100
AcDbEntity
  8
Layer_1
 62
7
100
AcDbPolyline
 90
25
 70
1
 10
5.781512
 20
3.028627
 30
0.0
 10
6.676030
 20
3.028627
 30
0.0
 10
6.731940
 20
3.006367
 30
0.0
 10
6.773400
 20
2.979317
 30
0.0
 10
6.800330
 20
2.953957
 30
0.0
 10
6.827260
 20
2.915747
 30
0.0
 10
6.838200
 20
2.891797
 30
0.0
 10
6.838200
 20
2.555799
 30
0.0
 10
6.829200
 20
2.515979
 30
0.0
 10
6.805630
 20
2.495409
 30
0.0
 10
6.767760
 20
2.457199
 30
0.0
 10
6.729890
 20
2.431839
 30
0.0
 10
6.657760
 20
2.406479
 30
0.0
 10
6.591330
 20
2.392949
 30
0.0
 10
5.861894
 20
2.392949
 30
0.0
 10
5.789204
 20
2.418869
 30
0.0
 10
5.738204
 20
2.445919
 30
0.0
 10
5.693564
 20
2.479709
 30
0.0
 10
5.654034
 20
2.525869
 30
0.0
 10
5.622164
 20
2.560779
 30
0.0
 10
5.604204
 20
2.590059
 30
0.0
 10
5.604204
 20
2.870438
 30
0.0
 10
5.650104
 20
2.942488
 30
0.0
 10
5.698554
 20
2.987518
 30
0.0
 10
5.745744
 20
3.013448
 30
0.0
  0
LWPOLYLINE
  5
101
100
AcDbEntity
  8
Layer_1
 62
7
100
AcDbPolyline
 90
80
 70
1
 10
17.250181
 20
3.609938
 30
0.0
 10
19.295641
 20
3.609938
 30
0.0
 10
19.369111
 20
3.593598
 30
0.0
 10
19.418931
 20
3.578948
 30
0.0
 10
19.452261
 20
3.562038
 30
0.0
 10
19.481161
 20
3.540908
 30
0.0
 10
19.504441
 20
3.520338
 30
0.0
 10
19.523241
 20
3.495538
 30
0.0
 10
19.542041
 20
3.467358
 30
0.0
 10
19.556351
 20
3.447918
 30
0.0
 10
19.575151
 20
3.423118
 30
0.0
 10
19.575151
 20
0.354539
 30
0.0
 10
19.571251
 20
0.299249
 30
0.0
 10
19.558351
 20
0.258589
 30
0.0
 10
19.537311
 20
0.215789
 30
0.0
 10
19.511221
 20
0.185979
 30
0.0
 10
19.461791
 20
0.169639
 30
0.0
 10
19.412361
 20
0.158929
 30
0.0
 10
19.328481
 20
0.165429
 30
0.0
 10
19.285161
 20
0.186559
 30
0.0
 10
19.259631
 20
0.202899
 30
0.0
 10
19.238591
 20
0.228259
 30
0.0
 10
19.215301
 20
0.270529
 30
0.0
 10
19.207401
 20
0.293359
 30
0.0
 10
19.200101
 20
3.011831
 30
0.0
 10
19.174011
 20
3.091491
 30
0.0
 10
19.137901
 20
3.144611
 30
0.0
 10
19.106901
 20
3.180341
 30
0.0
 10
19.059601
 20
3.209111
 30
0.0
 10
19.016821
 20
3.222641
 30
0.0
 10
17.544371
 20
3.222641
 30
0.0
 10
17.494381
 20
3.198121
 30
0.0
 10
17.463831
 20
3.169941
 30
0.0
 10
17.439421
 20
3.136351
 30
0.0
 10
17.423991
 20
3.113521
 30
0.0
 10
17.398461
 20
3.076131
 30
0.0
 10
17.393361
 20
3.063171
 30
0.0
 10
17.393361
 20
2.461594
 30
0.0
 10
17.406261
 20
2.416054
 30
0.0
 10
17.428981
 20
2.373784
 30
0.0
 10
17.449461
 20
2.346174
 30
0.0
 10
17.483911
 20
2.324474
 30
0.0
 10
17.517801
 20
2.305034
 30
0.0
 10
17.573351
 20
2.274684
 30
0.0
 10
17.631111
 20
2.247064
 30
0.0
 10
17.670561
 20
2.221704
 30
0.0
 10
17.704981
 20
2.200574
 30
0.0
 10
17.727701
 20
2.164814
 30
0.0
 10
17.750431
 20
2.134464
 30
0.0
 10
17.761371
 20
2.100194
 30
0.0
 10
17.773151
 20
2.074554
 30
0.0
 10
17.777351
 20
2.054544
 30
0.0
 10
17.777351
 20
0.458417
 30
0.0
 10
17.759961
 20
0.420097
 30
0.0
 10
17.748181
 20
0.375267
 30
0.0
 10
17.732191
 20
0.330797
 30
0.0
 10
17.707781
 20
0.289797
 30
0.0
 10
17.677541
 20
0.261057
 30
0.0
 10
17.638381
 20
0.236537
 30
0.0
 10
17.600171
 20
0.221037
 30
0.0
 10
17.568751
 20
0.210047
 30
0.0
 10
17.534971
 20
0.200747
 30
0.0
 10
17.502371
 20
0.193947
 30
0.0
 10
17.201914
 20
0.193947
 30
0.0
 10
17.155174
 20
0.220717
 30
0.0
 10
17.124534
 20
0.244387
 30
0.0
 10
17.096254
 20
0.268057
 30
0.0
 10
17.074374
 20
0.290597
 30
0.0
 10
17.050804
 20
0.321647
 30
0.0
 10
17.028924
 20
0.357297
 30
0.0
 10
17.013214
 20
0.393707
 30
0.0
 10
17.005114
 20
0.439917
 30
0.0
 10
17.005114
 20
3.381294
 30
0.0
 10
17.026714
 20
3.442614
 30
0.0
 10
17.048594
 20
3.484014
 30
0.0
 10
17.072164
 20
3.522334
 30
0.0
 10
17.106724
 20
3.563724
 30
0.0
 10
17.136574
 20
3.577534
 30
0.0
 10
17.177504
 20
3.593034
 30
0.0
 10
17.218264
 20
3.602034
 30
0.0
  0
SPLINE
  5
102
100
AcDbEntity
  8
Layer_1
 62
7
100
AcDbSpline
 70
8
 71
3
 72
8
 73
4
 74
0
 40
0
 40
0
 40
0
 40
0
 40
1
 40
1
 40
1
 40
1
 10
14.123796
 20
8.202140
 30
0.0
 10
14.135016
 20
8.205540
 30
0.0
 10
15.587930
 20
8.205540
 30
0.0
 10
15.587930
 20
8.205540
 30
0.0
  0
LWPOLYLINE
  5
103
100
AcDbEntity
  8
Layer_1
 62
7
100
AcDbPolyline
 90
79
 70
1
 10
16.825570
 20
0.440933
 30
0.0
 10
16.825570
 20
3.293812
 30
0.0
 10
16.853930
 20
3.470802
 30
0.0
 10
16.889750
 20
3.560442
 30
0.0
 10
16.941090
 20
3.625482
 30
0.0
 10
16.993750
 20
3.680342
 30
0.0
 10
17.049970
 20
3.718692
 30
0.0
 10
17.132170
 20
3.764232
 30
0.0
 10
17.201040
 20
3.779452
 30
0.0
 10
19.325029
 20
3.779452
 30
0.0
 10
19.408909
 20
3.758322
 30
0.0
 10
19.509568
 20
3.715072
 30
0.0
 10
19.571648
 20
3.677592
 30
0.0
 10
19.633848
 20
3.625572
 30
0.0
 10
19.682718
 20
3.558362
 30
0.0
 10
19.700388
 20
3.518712
 30
0.0
 10
19.716098
 20
3.478132
 30
0.0
 10
19.716098
 20
0.343432
 30
0.0
 10
19.704878
 20
0.230717
 30
0.0
 10
19.687208
 20
0.177597
 30
0.0
 10
19.662798
 20
0.128817
 30
0.0
 10
19.598358
 20
0.060537
 30
0.0
 10
19.545028
 20
0.032357
 30
0.0
 10
19.487268
 20
0.016017
 30
0.0
 10
19.438398
 20
0.017117
 30
0.0
 10
19.373958
 20
0.016017
 30
0.0
 10
19.331738
 20
0.013817
 30
0.0
 10
19.282868
 20
0.017217
 30
0.0
 10
19.222888
 20
0.030177
 30
0.0
 10
19.190678
 20
0.054127
 30
0.0
 10
19.150698
 20
0.078927
 30
0.0
 10
19.119588
 20
0.104847
 30
0.0
 10
19.091818
 20
0.138437
 30
0.0
 10
19.065168
 20
0.186147
 30
0.0
 10
19.040758
 20
0.250117
 30
0.0
 10
19.027288
 20
0.316617
 30
0.0
 10
19.016348
 20
2.965330
 30
0.0
 10
19.009048
 20
3.014390
 30
0.0
 10
18.978408
 20
3.053470
 30
0.0
 10
18.942278
 20
3.076580
 30
0.0
 10
18.869228
 20
3.078880
 30
0.0
 10
17.650121
 20
3.078880
 30
0.0
 10
17.598281
 20
3.069580
 30
0.0
 10
17.557431
 20
3.040440
 30
0.0
 10
17.543401
 20
2.992930
 30
0.0
 10
17.543401
 20
2.525397
 30
0.0
 10
17.545001
 20
2.482477
 30
0.0
 10
17.610981
 20
2.439557
 30
0.0
 10
17.678531
 20
2.402757
 30
0.0
 10
17.736661
 20
2.367507
 30
0.0
 10
17.813641
 20
2.321517
 30
0.0
 10
17.838891
 20
2.284717
 30
0.0
 10
17.881311
 20
2.237207
 30
0.0
 10
17.901791
 20
2.191217
 30
0.0
 10
17.911291
 20
2.154417
 30
0.0
 10
17.920791
 20
2.116097
 30
0.0
 10
17.920791
 20
0.409983
 30
0.0
 10
17.909851
 20
0.348663
 30
0.0
 10
17.881571
 20
0.298083
 30
0.0
 10
17.856321
 20
0.247503
 30
0.0
 10
17.824901
 20
0.199993
 30
0.0
 10
17.787201
 20
0.163193
 30
0.0
 10
17.752641
 20
0.137273
 30
0.0
 10
17.713361
 20
0.111343
 30
0.0
 10
17.667801
 20
0.076093
 30
0.0
 10
17.609671
 20
0.054673
 30
0.0
 10
17.545261
 20
0.043963
 30
0.0
 10
17.458851
 20
0.039463
 30
0.0
 10
17.312821
 20
0.039463
 30
0.0
 10
17.210703
 20
0.039463
 30
0.0
 10
17.122723
 20
0.054683
 30
0.0
 10
17.055173
 20
0.077793
 30
0.0
 10
17.000183
 20
0.106933
 30
0.0
 10
16.967553
 20
0.138863
 30
0.0
 10
16.934173
 20
0.172843
 30
0.0
 10
16.905893
 20
0.218833
 30
0.0
 10
16.869763
 20
0.289333
 30
0.0
 10
16.849283
 20
0.336843
 30
0.0
 10
16.830483
 20
0.407343
 30
0.0
  0
SPLINE
  5
104
100
AcDbEntity
  8
Layer_1
 62
7
100
AcDbSpline
 70
8
 71
3
 72
8
 73
4
 74
0
 40
0
 40
0
 40
0
 40
0
 40
1
 40
1
 40
1
 40
1
 10
15.818010
 20
8.069310
 30
0.0
 10
15.823910
 20
8.058040
 30
0.0
 10
15.820410
 20
8.064810
 30
0.0
 10
15.835400
 20
8.035270
 30
0.0
  0
LWPOLYLINE
  5
105
100
AcDbEntity
  8
Layer_1
 62
7
100
AcDbPolyline
 90
6
 70
0
 10
15.587930
 20
8.205540
 30
0.0
 10
15.669880
 20
8.192010
 30
0.0
 10
15.724390
 20
8.167210
 30
0.0
 10
15.765100
 20
8.133420
 30
0.0
 10
15.797530
 20
8.097210
 30
0.0
 10
15.818010
 20
8.069310
 30
0.0
  0
SPLINE
  5
106
100
AcDbEntity
  8
Layer_1
 62
7
100
AcDbSpline
 70
8
 71
3
 72
8
 73
4
 74
0
 40
0
 40
0
 40
0
 40
0
 40
1
 40
1
 40
1
 40
1
 10
14.547440
 20
5.549806
 30
0.0
 10
14.547440
 20
5.549806
 30
0.0
 10
14.465750
 20
5.561356
 30
0.0
 10
14.458680
 20
5.565866
 30
0.0
  0
SPLINE
  5
107
100
AcDbEntity
  8
Layer_1
 62
7
100
AcDbSpline
 70
8
 71
3
 72
8
 73
4
 74
0
 40
0
 40
0
 40
0
 40
0
 40
1
 40
1
 40
1
 40
1
 10
14.458680
 20
5.565866
 30
0.0
 10
14.451680
 20
5.570366
 30
0.0
 10
14.397410
 20
5.607256
 30
0.0
 10
14.397410
 20
5.607256
 30
0.0
  0
LWPOLYLINE
  5
108
100
AcDbEntity
  8
Layer_1
 62
7
100
AcDbPolyline
 90
9
 70
0
 10
15.835400
 20
8.035270
 30
0.0
 10
15.835400
 20
5.783446
 30
0.0
 10
15.834601
 20
5.741686
 30
0.0
 10
15.820851
 20
5.701846
 30
0.0
 10
15.797571
 20
5.659696
 30
0.0
 10
15.760651
 20
5.622136
 30
0.0
 10
15.687601
 20
5.569246
 30
0.0
 10
15.624371
 20
5.549806
 30
0.0
 10
14.547440
 20
5.549806
 30
0.0
  0
SPLINE
  5
109
100
AcDbEntity
  8
Layer_1
 62
7
100
AcDbSpline
 70
8
 71
3
 72
8
 73
4
 74
0
 40
0
 40
0
 40
0
 40
0
 40
1
 40
1
 40
1
 40
1
 10
14.291650
 20
6.489067
 30
0.0
 10
14.291650
 20
6.489067
 30
0.0
 10
14.271170
 20
6.532177
 30
0.0
 10
14.271170
 20
6.536017
 30
0.0
  0
SPLINE
  5
10a
100
AcDbEntity
  8
Layer_1
 62
7
100
AcDbSpline
 70
8
 71
3
 72
8
 73
4
 74
0
 40
0
 40
0
 40
0
 40
0
 40
1
 40
1
 40
1
 40
1
 10
14.271170
 20
6.536017
 30
0.0
 10
14.271170
 20
6.539917
 30
0.0
 10
14.243030
 20
6.577217
 30
0.0
 10
14.243030
 20
6.577217
 30
0.0
  0
LWPOLYLINE
  5
10b
100
AcDbEntity
  8
Layer_1
 62
7
100
AcDbPolyline
 90
5
 70
0
 10
14.397410
 20
5.607256
 30
0.0
 10
14.342420
 20
5.663976
 30
0.0
 10
14.319700
 20
5.695366
 30
0.0
 10
14.302590
 20
5.735266
 30
0.0
 10
14.291650
 20
6.489067
 30
0.0
  0
SPLINE
  5
10c
100
AcDbEntity
  8
Layer_1
 62
7
100
AcDbSpline
 70
8
 71
3
 72
8
 73
4
 74
0
 40
0
 40
0
 40
0
 40
0
 40
1
 40
1
 40
1
 40
1
 10
14.199830
 20
6.602857
 30
0.0
 10
14.192530
 20
6.609357
 30
0.0
 10
14.152470
 20
6.618357
 30
0.0
 10
14.141700
 20
6.621177
 30
0.0
  0
SPLINE
  5
10d
100
AcDbEntity
  8
Layer_1
 62
7
100
AcDbSpline
 70
8
 71
3
 72
8
 73
4
 74
0
 40
0
 40
0
 40
0
 40
0
 40
1
 40
1
 40
1
 40
1
 10
14.141700
 20
6.621177
 30
0.0
 10
14.137500
 20
6.621994
 30
0.0
 10
14.106240
 20
6.637797
 30
0.0
 10
14.083990
 20
6.645127
 30
0.0
  0
SPLINE
  5
10e
100
AcDbEntity
  8
Layer_1
 62
7
100
AcDbSpline
 70
8
 71
3
 72
8
 73
4
 74
0
 40
0
 40
0
 40
0
 40
0
 40
1
 40
1
 40
1
 40
1
 10
14.083990
 20
6.645127
 30
0.0
 10
14.059860
 20
6.653327
 30
0.0
 10
14.018310
 20
6.683257
 30
0.0
 10
14.017190
 20
6.685087
 30
0.0
  0
SPLINE
  5
10f
100
AcDbEntity
  8
Layer_1
 62
7
100
AcDbSpline
 70
8
 71
3
 72
8
 73
4
 74
0
 40
0
 40
0
 40
0
 40
0
 40
1
 40
1
 40
1
 40
1
 10
14.017190
 20
6.685087
 30
0.0
 10
14.014790
 20
6.688987
 30
0.0
 10
13.972810
 20
6.723807
 30
0.0
 10
13.972810
 20
6.723807
 30
0.0
  0
SPLINE
  5
110
100
AcDbEntity
  8
Layer_1
 62
7
100
AcDbSpline
 70
8
 71
3
 72
8
 73
4
 74
0
 40
0
 40
0
 40
0
 40
0
 40
1
 40
1
 40
1
 40
1
 10
13.972810
 20
6.723807
 30
0.0
 10
13.972810
 20
6.723807
 30
0.0
 10
13.937460
 20
6.770947
 30
0.0
 10
13.934320
 20
6.774017
 30
0.0
  0
SPLINE
  5
111
100
AcDbEntity
  8
Layer_1
 62
7
100
AcDbSpline
 70
8
 71
3
 72
8
 73
4
 74
0
 40
0
 40
0
 40
0
 40
0
 40
1
 40
1
 40
1
 40
1
 10
13.934320
 20
6.774017
 30
0.0
 10
13.931220
 20
6.777117
 30
0.0
 10
13.920290
 20
6.809667
 30
0.0
 10
13.919450
 20
6.815017
 30
0.0
  0
SPLINE
  5
112
100
AcDbEntity
  8
Layer_1
 62
7
100
AcDbSpline
 70
8
 71
3
 72
8
 73
4
 74
0
 40
0
 40
0
 40
0
 40
0
 40
1
 40
1
 40
1
 40
1
 10
13.919450
 20
6.815017
 30
0.0
 10
13.918651
 20
6.820417
 30
0.0
 10
13.919450
 20
7.961621
 30
0.0
 10
13.919450
 20
7.961621
 30
0.0
  0
LWPOLYLINE
  5
113
100
AcDbEntity
  8
Layer_1
 62
7
100
AcDbPolyline
 90
2
 70
0
 10
14.243030
 20
6.577217
 30
0.0
 10
14.199830
 20
6.602857
 30
0.0
  0
LWPOLYLINE
  5
114
100
AcDbEntity
  8
Layer_1
 62
7
100
AcDbPolyline
 90
9
 70
0
 10
13.919450
 20
7.961621
 30
0.0
 10
13.924550
 20
7.992281
 30
0.0
 10
13.938300
 20
8.050521
 30
0.0
 10
13.966580
 20
8.096511
 30
0.0
 10
13.996430
 20
8.127931
 30
0.0
 10
14.038850
 20
8.163181
 30
0.0
 10
14.077340
 20
8.191531
 30
0.0
 10
14.100630
 20
8.200231
 30
0.0
 10
14.123796
 20
8.202140
 30
0.0
  0
SPLINE
  5
115
100
AcDbEntity
  8
Layer_1
 62
7
100
AcDbSpline
 70
8
 71
3
 72
8
 73
4
 74
0
 40
0
 40
0
 40
0
 40
0
 40
1
 40
1
 40
1
 40
1
 10
2.204070
 20
8.713933
 30
0.0
 10
2.204070
 20
8.713933
 30
0.0
 10
2.173500
 20
8.718733
 30
0.0
 10
2.167060
 20
8.718733
 30
0.0
  0
SPLINE
  5
116
100
AcDbEntity
  8
Layer_1
 62
7
100
AcDbSpline
 70
8
 71
3
 72
8
 73
4
 74
0
 40
0
 40
0
 40
0
 40
0
 40
1
 40
1
 40
1
 40
1
 10
2.167060
 20
8.718733
 30
0.0
 10
2.160660
 20
8.718733
 30
0.0
 10
2.118790
 20
8.723533
 30
0.0
 10
2.118790
 20
8.723533
 30
0.0
  0
LWPOLYLINE
  5
117
100
AcDbEntity
  8
Layer_1
 62
7
100
AcDbPolyline
 90
34
 70
0
 10
0.675556
 20
7.834780
 30
0.0
 10
0.680386
 20
7.960373
 30
0.0
 10
0.683616
 20
7.980663
 30
0.0
 10
0.694866
 20
7.996443
 30
0.0
 10
0.704516
 20
8.020113
 30
0.0
 10
0.715766
 20
8.035893
 30
0.0
 10
0.727016
 20
8.045193
 30
0.0
 10
0.739893
 20
8.057873
 30
0.0
 10
0.754369
 20
8.070553
 30
0.0
 10
0.755969
 20
8.073653
 30
0.0
 10
0.767219
 20
8.081553
 30
0.0
 10
0.781695
 20
8.086353
 30
0.0
 10
0.796171
 20
8.092553
 30
0.0
 10
0.916847
 20
8.095653
 30
0.0
 10
2.220140
 20
8.097253
 30
0.0
 10
2.274850
 20
8.117543
 30
0.0
 10
2.326340
 20
8.148933
 30
0.0
 10
2.360130
 20
8.183483
 30
0.0
 10
2.387480
 20
8.213323
 30
0.0
 10
2.401960
 20
8.243163
 30
0.0
 10
2.429310
 20
8.299693
 30
0.0
 10
2.437410
 20
8.353063
 30
0.0
 10
2.440610
 20
8.395443
 30
0.0
 10
2.437410
 20
8.453523
 30
0.0
 10
2.427710
 20
8.491203
 30
0.0
 10
2.416460
 20
8.522593
 30
0.0
 10
2.400360
 20
8.558693
 30
0.0
 10
2.384260
 20
8.583773
 30
0.0
 10
2.364960
 20
8.610543
 30
0.0
 10
2.326340
 20
8.651373
 30
0.0
 10
2.299860
 20
8.671663
 30
0.0
 10
2.273260
 20
8.693643
 30
0.0
 10
2.247510
 20
8.699843
 30
0.0
 10
2.204070
 20
8.713933
 30
0.0
  0
SPLINE
  5
118
100
AcDbEntity
  8
Layer_1
 62
7
100
AcDbSpline
 70
8
 71
3
 72
8
 73
4
 74
0
 40
0
 40
0
 40
0
 40
0
 40
1
 40
1
 40
1
 40
1
 10
0.163835
 20
8.626303
 30
0.0
 10
0.163835
 20
8.626303
 30
0.0
 10
0.144534
 20
8.617003
 30
0.0
 10
0.139708
 20
8.609113
 30
0.0
  0
SPLINE
  5
119
100
AcDbEntity
  8
Layer_1
 62
7
100
AcDbSpline
 70
8
 71
3
 72
8
 73
4
 74
0
 40
0
 40
0
 40
0
 40
0
 40
1
 40
1
 40
1
 40
1
 10
0.139708
 20
8.609113
 30
0.0
 10
0.134878
 20
8.601213
 30
0.0
 10
0.104309
 20
8.566733
 30
0.0
 10
0.104309
 20
8.566733
 30
0.0
  0
LWPOLYLINE
  5
11a
100
AcDbEntity
  8
Layer_1
 62
7
100
AcDbPolyline
 90
9
 70
0
 10
2.118790
 20
8.723533
 30
0.0
 10
2.080170
 20
8.723533
 30
0.0
 10
0.400370
 20
8.718733
 30
0.0
 10
0.348882
 20
8.709433
 30
0.0
 10
0.302222
 20
8.700133
 30
0.0
 10
0.276468
 20
8.689143
 30
0.0
 10
0.234633
 20
8.673363
 30
0.0
 10
0.196016
 20
8.653073
 30
0.0
 10
0.163835
 20
8.626303
 30
0.0
  0
SPLINE
  5
11b
100
AcDbEntity
  8
Layer_1
 62
7
100
AcDbSpline
 70
8
 71
3
 72
8
 73
4
 74
0
 40
0
 40
0
 40
0
 40
0
 40
1
 40
1
 40
1
 40
1
 10
0.032183
 20
8.371963
 30
0.0
 10
0.032183
 20
8.371963
 30
0.0
 10
0.030303
 20
8.320143
 30
0.0
 10
0.030303
 20
8.312313
 30
0.0
  0
SPLINE
  5
11c
100
AcDbEntity
  8
Layer_1
 62
7
100
AcDbSpline
 70
8
 71
3
 72
8
 73
4
 74
0
 40
0
 40
0
 40
0
 40
0
 40
1
 40
1
 40
1
 40
1
 10
0.030303
 20
8.312313
 30
0.0
 10
0.030303
 20
8.304413
 30
0.0
 10
0.028423
 20
8.243413
 30
0.0
 10
0.028423
 20
8.243413
 30
0.0
  0
LWPOLYLINE
  5
11d
100
AcDbEntity
  8
Layer_1
 62
7
100
AcDbPolyline
 90
5
 70
0
 10
0.104309
 20
8.566733
 30
0.0
 10
0.089833
 20
8.539963
 30
0.0
 10
0.062480
 20
8.500713
 30
0.0
 10
0.038353
 20
8.423783
 30
0.0
 10
0.032183
 20
8.371963
 30
0.0
  0
SPLINE
  5
11e
100
AcDbEntity
  8
Layer_1
 62
7
100
AcDbSpline
 70
8
 71
3
 72
8
 73
4
 74
0
 40
0
 40
0
 40
0
 40
0
 40
1
 40
1
 40
1
 40
1
 10
0.033533
 20
5.343470
 30
0.0
 10
0.097236
 20
5.130382
 30
0.0
 10
0.313616
 20
5.037051
 30
0.0
 10
0.414088
 20
5.024109
 30
0.0
  0
SPLINE
  5
11f
100
AcDbEntity
  8
Layer_1
 62
7
100
AcDbSpline
 70
8
 71
3
 72
8
 73
4
 74
0
 40
0
 40
0
 40
0
 40
0
 40
1
 40
1
 40
1
 40
1
 10
0.414088
 20
5.024109
 30
0.0
 10
0.512236
 20
5.025809
 30
0.0
 10
0.746045
 20
5.009169
 30
0.0
 10
0.857745
 20
5.059299
 30
0.0
  0
SPLINE
  5
120
100
AcDbEntity
  8
Layer_1
 62
7
100
AcDbSpline
 70
8
 71
3
 72
8
 73
4
 74
0
 40
0
 40
0
 40
0
 40
0
 40
1
 40
1
 40
1
 40
1
 10
0.857745
 20
5.059299
 30
0.0
 10
0.885294
 20
5.070849
 30
0.0
 10
0.907951
 20
5.085219
 30
0.0
 10
0.923701
 20
5.103989
 30
0.0
  0
LWPOLYLINE
  5
121
100
AcDbEntity
  8
Layer_1
 62
7
100
AcDbPolyline
 90
6
 70
0
 10
0.028423
 20
8.243413
 30
0.0
 10
0.027093
 20
8.172573
 30
0.0
 10
0.029293
 20
5.524120
 30
0.0
 10
0.028153
 20
5.446460
 30
0.0
 10
0.031573
 20
5.398700
 30
0.0
 10
0.033533
 20
5.343470
 30
0.0
  0
SPLINE
  5
122
100
AcDbEntity
  8
Layer_1
 62
7
100
AcDbSpline
 70
8
 71
3
 72
8
 73
4
 74
0
 40
0
 40
0
 40
0
 40
0
 40
1
 40
1
 40
1
 40
1
 10
1.051654
 20
5.297459
 30
0.0
 10
1.051654
 20
5.297459
 30
0.0
 10
1.064727
 20
5.340969
 30
0.0
 10
1.064727
 20
5.348799
 30
0.0
  0
SPLINE
  5
123
100
AcDbEntity
  8
Layer_1
 62
7
100
AcDbSpline
 70
8
 71
3
 72
8
 73
4
 74
0
 40
0
 40
0
 40
0
 40
0
 40
1
 40
1
 40
1
 40
1
 10
1.064727
 20
5.348799
 30
0.0
 10
1.064727
 20
5.356699
 30
0.0
 10
1.069747
 20
5.406229
 30
0.0
 10
1.069747
 20
5.406229
 30
0.0
  0
LWPOLYLINE
  5
124
100
AcDbEntity
  8
Layer_1
 62
7
100
AcDbPolyline
 90
5
 70
0
 10
0.923701
 20
5.103989
 30
0.0
 10
0.960320
 20
5.142509
 30
0.0
 10
1.008590
 20
5.202159
 30
0.0
 10
1.031118
 20
5.241409
 30
0.0
 10
1.051654
 20
5.297459
 30
0.0
  0
LWPOLYLINE
  5
125
100
AcDbEntity
  8
Layer_1
 62
7
100
AcDbPolyline
 90
42
 70
0
 10
1.069747
 20
5.406229
 30
0.0
 10
1.069747
 20
5.542811
 30
0.0
 10
1.068147
 20
5.654286
 30
0.0
 10
1.069747
 20
6.586847
 30
0.0
 10
1.084223
 20
6.630807
 30
0.0
 10
1.100326
 20
6.662197
 30
0.0
 10
1.129287
 20
6.692037
 30
0.0
 10
1.169511
 20
6.710917
 30
0.0
 10
1.203303
 20
6.721907
 30
0.0
 10
2.194450
 20
6.726707
 30
0.0
 10
2.260420
 20
6.748687
 30
0.0
 10
2.290990
 20
6.767567
 30
0.0
 10
2.324780
 20
6.792647
 30
0.0
 10
2.353740
 20
6.819417
 30
0.0
 10
2.382700
 20
6.844497
 30
0.0
 10
2.400400
 20
6.861687
 30
0.0
 10
2.421330
 20
6.905647
 30
0.0
 10
2.434210
 20
6.944897
 30
0.0
 10
2.437410
 20
6.968567
 30
0.0
 10
2.439010
 20
7.001537
 30
0.0
 10
2.442210
 20
7.037637
 30
0.0
 10
2.439010
 20
7.069027
 30
0.0
 10
2.432610
 20
7.111407
 30
0.0
 10
2.429410
 20
7.145957
 30
0.0
 10
2.424610
 20
7.174217
 30
0.0
 10
2.387600
 20
7.237027
 30
0.0
 10
2.366670
 20
7.257317
 30
0.0
 10
2.320010
 20
7.302857
 30
0.0
 10
2.287830
 20
7.323147
 30
0.0
 10
2.260480
 20
7.331047
 30
0.0
 10
2.231520
 20
7.345137
 30
0.0
 10
2.191300
 20
7.349937
 30
0.0
 10
0.789857
 20
7.346837
 30
0.0
 10
0.760897
 20
7.362617
 30
0.0
 10
0.746421
 20
7.381497
 30
0.0
 10
0.735171
 20
7.386297
 30
0.0
 10
0.722294
 20
7.405177
 30
0.0
 10
0.704592
 20
7.427157
 30
0.0
 10
0.694942
 20
7.449137
 30
0.0
 10
0.690112
 20
7.469427
 30
0.0
 10
0.682062
 20
7.483517
 30
0.0
 10
0.675556
 20
7.834780
 30
0.0
  0
SPLINE
  5
126
100
AcDbEntity
  8
Layer_1
 62
7
100
AcDbSpline
 70
8
 71
3
 72
8
 73
4
 74
0
 40
0
 40
0
 40
0
 40
0
 40
1
 40
1
 40
1
 40
1
 10
0.392091
 20
8.552647
 30
0.0
 10
0.392091
 20
8.552647
 30
0.0
 10
0.414843
 20
8.558247
 30
0.0
 10
0.420535
 20
8.558247
 30
0.0
  0
SPLINE
  5
127
100
AcDbEntity
  8
Layer_1
 62
7
100
AcDbSpline
 70
8
 71
3
 72
8
 73
4
 74
0
 40
0
 40
0
 40
0
 40
0
 40
1
 40
1
 40
1
 40
1
 10
0.420535
 20
8.558247
 30
0.0
 10
0.426235
 20
8.558247
 30
0.0
 10
0.495625
 20
8.560447
 30
0.0
 10
0.495625
 20
8.560447
 30
0.0
  0
SPLINE
  5
128
100
AcDbEntity
  8
Layer_1
 62
7
100
AcDbSpline
 70
8
 71
3
 72
8
 73
4
 74
0
 40
0
 40
0
 40
0
 40
0
 40
1
 40
1
 40
1
 40
1
 10
0.495625
 20
8.560447
 30
0.0
 10
0.495625
 20
8.560447
 30
0.0
 10
0.565026
 20
8.561547
 30
0.0
 10
0.569579
 20
8.561547
 30
0.0
  0
LWPOLYLINE
  5
129
100
AcDbEntity
  8
Layer_1
 62
7
100
AcDbPolyline
 90
4
 70
0
 10
0.274905
 20
8.490367
 30
0.0
 10
0.312450
 20
8.528097
 30
0.0
 10
0.349995
 20
8.545847
 30
0.0
 10
0.392091
 20
8.552647
 30
0.0
  0
SPLINE
  5
12a
100
AcDbEntity
  8
Layer_1
 62
7
100
AcDbSpline
 70
8
 71
3
 72
8
 73
4
 74
0
 40
0
 40
0
 40
0
 40
0
 40
1
 40
1
 40
1
 40
1
 10
0.605985
 20
8.561547
 30
0.0
 10
0.612805
 20
8.561547
 30
0.0
 10
2.116900
 20
8.566047
 30
0.0
 10
2.116900
 20
8.566047
 30
0.0
  0
LWPOLYLINE
  5
12b
100
AcDbEntity
  8
Layer_1
 62
7
100
AcDbPolyline
 90
2
 70
0
 10
0.569579
 20
8.561547
 30
0.0
 10
0.605985
 20
8.561547
 30
0.0
  0
SPLINE
  5
12c
100
AcDbEntity
  8
Layer_1
 62
7
100
AcDbSpline
 70
8
 71
3
 72
8
 73
4
 74
0
 40
0
 40
0
 40
0
 40
0
 40
1
 40
1
 40
1
 40
1
 10
2.163550
 20
8.552807
 30
0.0
 10
2.163550
 20
8.552807
 30
0.0
 10
2.186300
 20
8.548307
 30
0.0
 10
2.191990
 20
8.543807
 30
0.0
  0
SPLINE
  5
12d
100
AcDbEntity
  8
Layer_1
 62
7
100
AcDbSpline
 70
8
 71
3
 72
8
 73
4
 74
0
 40
0
 40
0
 40
0
 40
0
 40
1
 40
1
 40
1
 40
1
 10
2.191990
 20
8.543807
 30
0.0
 10
2.197690
 20
8.539307
 30
0.0
 10
2.221570
 20
8.517037
 30
0.0
 10
2.221570
 20
8.517037
 30
0.0
  0
SPLINE
  5
12e
100
AcDbEntity
  8
Layer_1
 62
7
100
AcDbSpline
 70
8
 71
3
 72
8
 73
4
 74
0
 40
0
 40
0
 40
0
 40
0
 40
1
 40
1
 40
1
 40
1
 10
2.221570
 20
8.517037
 30
0.0
 10
2.221570
 20
8.517037
 30
0.0
 10
2.239780
 20
8.497027
 30
0.0
 10
2.242050
 20
8.492527
 30
0.0
  0
SPLINE
  5
12f
100
AcDbEntity
  8
Layer_1
 62
7
100
AcDbSpline
 70
8
 71
3
 72
8
 73
4
 74
0
 40
0
 40
0
 40
0
 40
0
 40
1
 40
1
 40
1
 40
1
 10
2.242050
 20
8.492527
 30
0.0
 10
2.244350
 20
8.488027
 30
0.0
 10
2.250050
 20
8.472517
 30
0.0
 10
2.252290
 20
8.468007
 30
0.0
  0
SPLINE
  5
130
100
AcDbEntity
  8
Layer_1
 62
7
100
AcDbSpline
 70
8
 71
3
 72
8
 73
4
 74
0
 40
0
 40
0
 40
0
 40
0
 40
1
 40
1
 40
1
 40
1
 10
2.252290
 20
8.468007
 30
0.0
 10
2.254590
 20
8.463507
 30
0.0
 10
2.257990
 20
8.438027
 30
0.0
 10
2.260290
 20
8.433597
 30
0.0
  0
SPLINE
  5
131
100
AcDbEntity
  8
Layer_1
 62
7
100
AcDbSpline
 70
8
 71
3
 72
8
 73
4
 74
0
 40
0
 40
0
 40
0
 40
0
 40
1
 40
1
 40
1
 40
1
 10
2.260290
 20
8.433597
 30
0.0
 10
2.262590
 20
8.429097
 30
0.0
 10
2.265990
 20
8.406827
 30
0.0
 10
2.265990
 20
8.406827
 30
0.0
  0
SPLINE
  5
132
100
AcDbEntity
  8
Layer_1
 62
7
100
AcDbSpline
 70
8
 71
3
 72
8
 73
4
 74
0
 40
0
 40
0
 40
0
 40
0
 40
1
 40
1
 40
1
 40
1
 10
2.265990
 20
8.406827
 30
0.0
 10
2.265990
 20
8.406827
 30
0.0
 10
2.264890
 20
8.387947
 30
0.0
 10
2.263690
 20
8.382307
 30
0.0
  0
SPLINE
  5
133
100
AcDbEntity
  8
Layer_1
 62
7
100
AcDbSpline
 70
8
 71
3
 72
8
 73
4
 74
0
 40
0
 40
0
 40
0
 40
0
 40
1
 40
1
 40
1
 40
1
 10
2.263690
 20
8.382307
 30
0.0
 10
2.262590
 20
8.376707
 30
0.0
 10
2.259190
 20
8.348997
 30
0.0
 10
2.259190
 20
8.344547
 30
0.0
  0
SPLINE
  5
134
100
AcDbEntity
  8
Layer_1
 62
7
100
AcDbSpline
 70
8
 71
3
 72
8
 73
4
 74
0
 40
0
 40
0
 40
0
 40
0
 40
1
 40
1
 40
1
 40
1
 10
2.259190
 20
8.344547
 30
0.0
 10
2.259190
 20
8.340047
 30
0.0
 10
2.256890
 20
8.323417
 30
0.0
 10
2.253490
 20
8.318907
 30
0.0
  0
SPLINE
  5
135
100
AcDbEntity
  8
Layer_1
 62
7
100
AcDbSpline
 70
8
 71
3
 72
8
 73
4
 74
0
 40
0
 40
0
 40
0
 40
0
 40
1
 40
1
 40
1
 40
1
 10
2.253490
 20
8.318907
 30
0.0
 10
2.250090
 20
8.314407
 30
0.0
 10
2.242100
 20
8.295517
 30
0.0
 10
2.242100
 20
8.295517
 30
0.0
  0
LWPOLYLINE
  5
136
100
AcDbEntity
  8
Layer_1
 62
7
100
AcDbPolyline
 90
2
 70
0
 10
2.116900
 20
8.566047
 30
0.0
 10
2.163550
 20
8.552807
 30
0.0
  0
SPLINE
  5
137
100
AcDbEntity
  8
Layer_1
 62
7
100
AcDbSpline
 70
8
 71
3
 72
8
 73
4
 74
0
 40
0
 40
0
 40
0
 40
0
 40
1
 40
1
 40
1
 40
1
 10
2.206830
 20
8.265647
 30
0.0
 10
2.206830
 20
8.265647
 30
0.0
 10
2.223890
 20
8.261147
 30
0.0
 10
2.188620
 20
8.256647
 30
0.0
  0
SPLINE
  5
138
100
AcDbEntity
  8
Layer_1
 62
7
100
AcDbSpline
 70
8
 71
3
 72
8
 73
4
 74
0
 40
0
 40
0
 40
0
 40
0
 40
1
 40
1
 40
1
 40
1
 10
2.188620
 20
8.256647
 30
0.0
 10
2.153350
 20
8.252147
 30
0.0
 10
2.174960
 20
8.252147
 30
0.0
 10
2.153350
 20
8.251047
 30
0.0
  0
SPLINE
  5
139
100
AcDbEntity
  8
Layer_1
 62
7
100
AcDbSpline
 70
8
 71
3
 72
8
 73
4
 74
0
 40
0
 40
0
 40
0
 40
0
 40
1
 40
1
 40
1
 40
1
 10
2.153350
 20
8.251047
 30
0.0
 10
2.131750
 20
8.249947
 30
0.0
 10
2.094190
 20
8.244247
 30
0.0
 10
2.094190
 20
8.244247
 30
0.0
  0
LWPOLYLINE
  5
13a
100
AcDbEntity
  8
Layer_1
 62
7
100
AcDbPolyline
 90
3
 70
0
 10
2.242100
 20
8.295517
 30
0.0
 10
2.226160
 20
8.281147
 30
0.0
 10
2.206830
 20
8.265647
 30
0.0
  0
SPLINE
  5
13b
100
AcDbEntity
  8
Layer_1
 62
7
100
AcDbSpline
 70
8
 71
3
 72
8
 73
4
 74
0
 40
0
 40
0
 40
0
 40
0
 40
1
 40
1
 40
1
 40
1
 10
0.576422
 20
8.119967
 30
0.0
 10
0.576422
 20
8.119967
 30
0.0
 10
0.570732
 20
8.103337
 30
0.0
 10
0.568452
 20
8.098837
 30
0.0
  0
SPLINE
  5
13c
100
AcDbEntity
  8
Layer_1
 62
7
100
AcDbSpline
 70
8
 71
3
 72
8
 73
4
 74
0
 40
0
 40
0
 40
0
 40
0
 40
1
 40
1
 40
1
 40
1
 10
0.568452
 20
8.098837
 30
0.0
 10
0.566172
 20
8.094337
 30
0.0
 10
0.551395
 20
8.072067
 30
0.0
 10
0.551395
 20
8.072067
 30
0.0
  0
LWPOLYLINE
  5
13d
100
AcDbEntity
  8
Layer_1
 62
7
100
AcDbPolyline
 90
10
 70
0
 10
2.094190
 20
8.244247
 30
0.0
 10
0.777827
 20
8.247647
 30
0.0
 10
0.739143
 20
8.240847
 30
0.0
 10
0.706148
 20
8.229857
 30
0.0
 10
0.673153
 20
8.214357
 30
0.0
 10
0.654946
 20
8.193227
 30
0.0
 10
0.631044
 20
8.176607
 30
0.0
 10
0.607142
 20
8.152087
 30
0.0
 10
0.587812
 20
8.134337
 30
0.0
 10
0.576422
 20
8.119967
 30
0.0
  0
SPLINE
  5
13e
100
AcDbEntity
  8
Layer_1
 62
7
100
AcDbSpline
 70
8
 71
3
 72
8
 73
4
 74
0
 40
0
 40
0
 40
0
 40
0
 40
1
 40
1
 40
1
 40
1
 10
2.205609
 20
7.157285
 30
0.0
 10
2.205609
 20
7.157285
 30
0.0
 10
2.227239
 20
7.147385
 30
0.0
 10
2.231789
 20
7.144045
 30
0.0
  0
SPLINE
  5
13f
100
AcDbEntity
  8
Layer_1
 62
7
100
AcDbSpline
 70
8
 71
3
 72
8
 73
4
 74
0
 40
0
 40
0
 40
0
 40
0
 40
1
 40
1
 40
1
 40
1
 10
2.231789
 20
7.144045
 30
0.0
 10
2.236289
 20
7.140645
 30
0.0
 10
2.246569
 20
7.126295
 30
0.0
 10
2.246569
 20
7.126295
 30
0.0
  0
LWPOLYLINE
  5
140
100
AcDbEntity
  8
Layer_1
 62
7
100
AcDbPolyline
 90
21
 70
0
 10
0.551395
 20
8.072067
 30
0.0
 10
0.549115
 20
8.061077
 30
0.0
 10
0.543425
 20
8.038817
 30
0.0
 10
0.535455
 20
7.998857
 30
0.0
 10
0.532035
 20
7.972087
 30
0.0
 10
0.526335
 20
7.936557
 30
0.0
 10
0.524055
 20
7.919937
 30
0.0
 10
0.525195
 20
7.892317
 30
0.0
 10
0.524055
 20
7.461585
 30
0.0
 10
0.528595
 20
7.402745
 30
0.0
 10
0.545652
 20
7.353915
 30
0.0
 10
0.575233
 20
7.303955
 30
0.0
 10
0.629844
 20
7.238465
 30
0.0
 10
0.692419
 20
7.201835
 30
0.0
 10
0.741343
 20
7.179575
 30
0.0
 10
0.793678
 20
7.170575
 30
0.0
 10
0.850564
 20
7.167175
 30
0.0
 10
0.890384
 20
7.164975
 30
0.0
 10
0.957510
 20
7.166075
 30
0.0
 10
2.164649
 20
7.168275
 30
0.0
 10
2.205609
 20
7.157285
 30
0.0
  0
SPLINE
  5
141
100
AcDbEntity
  8
Layer_1
 62
7
100
AcDbSpline
 70
8
 71
3
 72
8
 73
4
 74
0
 40
0
 40
0
 40
0
 40
0
 40
1
 40
1
 40
1
 40
1
 10
2.273939
 20
6.987245
 30
0.0
 10
2.273939
 20
6.987245
 30
0.0
 10
2.271639
 20
6.967235
 30
0.0
 10
2.270539
 20
6.962725
 30
0.0
  0
SPLINE
  5
142
100
AcDbEntity
  8
Layer_1
 62
7
100
AcDbSpline
 70
8
 71
3
 72
8
 73
4
 74
0
 40
0
 40
0
 40
0
 40
0
 40
1
 40
1
 40
1
 40
1
 10
2.270539
 20
6.962725
 30
0.0
 10
2.269439
 20
6.958225
 30
0.0
 10
2.261439
 20
6.943845
 30
0.0
 10
2.261439
 20
6.943845
 30
0.0
  0
LWPOLYLINE
  5
143
100
AcDbEntity
  8
Layer_1
 62
7
100
AcDbPolyline
 90
7
 70
0
 10
2.246569
 20
7.126295
 30
0.0
 10
2.262499
 20
7.097435
 30
0.0
 10
2.272739
 20
7.074045
 30
0.0
 10
2.276139
 20
7.055165
 30
0.0
 10
2.276139
 20
7.031775
 30
0.0
 10
2.275039
 20
7.007255
 30
0.0
 10
2.273939
 20
6.987245
 30
0.0
  0
SPLINE
  5
144
100
AcDbEntity
  8
Layer_1
 62
7
100
AcDbSpline
 70
8
 71
3
 72
8
 73
4
 74
0
 40
0
 40
0
 40
0
 40
0
 40
1
 40
1
 40
1
 40
1
 10
2.198849
 20
6.895065
 30
0.0
 10
2.198849
 20
6.895065
 30
0.0
 10
2.186339
 20
6.893965
 30
0.0
 10
2.179519
 20
6.891665
 30
0.0
  0
SPLINE
  5
145
100
AcDbEntity
  8
Layer_1
 62
7
100
AcDbSpline
 70
8
 71
3
 72
8
 73
4
 74
0
 40
0
 40
0
 40
0
 40
0
 40
1
 40
1
 40
1
 40
1
 10
2.179519
 20
6.891665
 30
0.0
 10
2.172719
 20
6.889465
 30
0.0
 10
2.144249
 20
6.886065
 30
0.0
 10
2.144249
 20
6.886065
 30
0.0
  0
LWPOLYLINE
  5
146
100
AcDbEntity
  8
Layer_1
 62
7
100
AcDbPolyline
 90
5
 70
0
 10
2.261439
 20
6.943845
 30
0.0
 10
2.247779
 20
6.924965
 30
0.0
 10
2.237539
 20
6.915065
 30
0.0
 10
2.221599
 20
6.899565
 30
0.0
 10
2.198849
 20
6.895065
 30
0.0
  0
SPLINE
  5
147
100
AcDbEntity
  8
Layer_1
 62
7
100
AcDbSpline
 70
8
 71
3
 72
8
 73
4
 74
0
 40
0
 40
0
 40
0
 40
0
 40
1
 40
1
 40
1
 40
1
 10
1.017894
 20
6.826375
 30
0.0
 10
1.017894
 20
6.826375
 30
0.0
 10
1.000837
 20
6.810875
 30
0.0
 10
0.996292
 20
6.806365
 30
0.0
  0
SPLINE
  5
148
100
AcDbEntity
  8
Layer_1
 62
7
100
AcDbSpline
 70
8
 71
3
 72
8
 73
4
 74
0
 40
0
 40
0
 40
0
 40
0
 40
1
 40
1
 40
1
 40
1
 10
0.996292
 20
6.806365
 30
0.0
 10
0.991752
 20
6.801865
 30
0.0
 10
0.968995
 20
6.776385
 30
0.0
 10
0.968995
 20
6.776385
 30
0.0
  0
LWPOLYLINE
  5
149
100
AcDbEntity
  8
Layer_1
 62
7
100
AcDbPolyline
 90
6
 70
0
 10
2.144249
 20
6.886065
 30
0.0
 10
1.189688
 20
6.892865
 30
0.0
 10
1.114598
 20
6.879625
 30
0.0
 10
1.081606
 20
6.866385
 30
0.0
 10
1.049750
 20
6.845255
 30
0.0
 10
1.017894
 20
6.826375
 30
0.0
  0
SPLINE
  5
14a
100
AcDbEntity
  8
Layer_1
 62
7
100
AcDbSpline
 70
8
 71
3
 72
8
 73
4
 74
0
 40
0
 40
0
 40
0
 40
0
 40
1
 40
1
 40
1
 40
1
 10
0.882525
 20
6.568735
 30
0.0
 10
0.882525
 20
6.568735
 30
0.0
 10
0.881385
 20
6.541965
 30
0.0
 10
0.881385
 20
6.537655
 30
0.0
  0
LWPOLYLINE
  5
14b
100
AcDbEntity
  8
Layer_1
 62
7
100
AcDbPolyline
 90
7
 70
0
 10
0.968995
 20
6.776385
 30
0.0
 10
0.950788
 20
6.752995
 30
0.0
 10
0.921207
 20
6.718585
 30
0.0
 10
0.907545
 20
6.684175
 30
0.0
 10
0.897305
 20
6.640895
 30
0.0
 10
0.887065
 20
6.604265
 30
0.0
 10
0.882525
 20
6.568735
 30
0.0
  0
SPLINE
  5
14c
100
AcDbEntity
  8
Layer_1
 62
7
100
AcDbSpline
 70
8
 71
3
 72
8
 73
4
 74
0
 40
0
 40
0
 40
0
 40
0
 40
1
 40
1
 40
1
 40
1
 10
0.803975
 20
5.238365
 30
0.0
 10
0.803975
 20
5.238365
 30
0.0
 10
0.779427
 20
5.222865
 30
0.0
 10
0.775531
 20
5.220615
 30
0.0
  0
SPLINE
  5
14d
100
AcDbEntity
  8
Layer_1
 62
7
100
AcDbSpline
 70
8
 71
3
 72
8
 73
4
 74
0
 40
0
 40
0
 40
0
 40
0
 40
1
 40
1
 40
1
 40
1
 10
0.775531
 20
5.220615
 30
0.0
 10
0.772671
 20
5.218915
 30
0.0
 10
0.741970
 20
5.209065
 30
0.0
 10
0.741970
 20
5.209065
 30
0.0
  0
SPLINE
  5
14e
100
AcDbEntity
  8
Layer_1
 62
7
100
AcDbSpline
 70
8
 71
3
 72
8
 73
4
 74
0
 40
0
 40
0
 40
0
 40
0
 40
1
 40
1
 40
1
 40
1
 10
0.741970
 20
5.209065
 30
0.0
 10
0.741970
 20
5.209065
 30
0.0
 10
0.664035
 20
5.201165
 30
0.0
 10
0.657209
 20
5.200065
 30
0.0
  0
SPLINE
  5
14f
100
AcDbEntity
  8
Layer_1
 62
7
100
AcDbSpline
 70
8
 71
3
 72
8
 73
4
 74
0
 40
0
 40
0
 40
0
 40
0
 40
1
 40
1
 40
1
 40
1
 10
0.657209
 20
5.200065
 30
0.0
 10
0.650389
 20
5.198965
 30
0.0
 10
0.489963
 20
5.204565
 30
0.0
 10
0.489963
 20
5.204565
 30
0.0
  0
LWPOLYLINE
  5
150
100
AcDbEntity
  8
Layer_1
 62
7
100
AcDbPolyline
 90
9
 70
0
 10
0.881385
 20
6.537655
 30
0.0
 10
0.881385
 20
6.495475
 30
0.0
 10
0.885925
 20
5.394225
 30
0.0
 10
0.878515
 20
5.359815
 30
0.0
 10
0.864292
 20
5.323185
 30
0.0
 10
0.854052
 20
5.295565
 30
0.0
 10
0.842662
 20
5.272175
 30
0.0
 10
0.822182
 20
5.254425
 30
0.0
 10
0.803975
 20
5.238365
 30
0.0
  0
LWPOLYLINE
  5
151
100
AcDbEntity
  8
Layer_1
 62
7
100
AcDbPolyline
 90
16
 70
0
 10
0.489963
 20
5.204565
 30
0.0
 10
0.394393
 20
5.207965
 30
0.0
 10
0.339782
 20
5.222335
 30
0.0
 10
0.301098
 20
5.251195
 30
0.0
 10
0.276073
 20
5.282275
 30
0.0
 10
0.248776
 20
5.326125
 30
0.0
 10
0.240246
 20
5.356645
 30
0.0
 10
0.235116
 20
5.394405
 30
0.0
 10
0.222604
 20
8.213033
 30
0.0
 10
0.223744
 20
8.297403
 30
0.0
 10
0.223744
 20
8.347363
 30
0.0
 10
0.229434
 20
8.407303
 30
0.0
 10
0.238524
 20
8.440613
 30
0.0
 10
0.251036
 20
8.465133
 30
0.0
 10
0.260126
 20
8.474133
 30
0.0
 10
0.274905
 20
8.490367
 30
0.0
  0
SPLINE
  5
152
100
AcDbEntity
  8
Layer_1
 62
7
100
AcDbSpline
 70
8
 71
3
 72
8
 73
4
 74
0
 40
0
 40
0
 40
0
 40
0
 40
1
 40
1
 40
1
 40
1
 10
5.436946
 20
8.541926
 30
0.0
 10
5.436946
 20
8.541926
 30
0.0
 10
5.445346
 20
8.537426
 30
0.0
 10
5.452656
 20
8.531786
 30
0.0
  0
SPLINE
  5
153
100
AcDbEntity
  8
Layer_1
 62
7
100
AcDbSpline
 70
8
 71
3
 72
8
 73
4
 74
0
 40
0
 40
0
 40
0
 40
0
 40
1
 40
1
 40
1
 40
1
 10
5.452656
 20
8.531786
 30
0.0
 10
5.461656
 20
8.524986
 30
0.0
 10
5.473416
 20
8.519666
 30
0.0
 10
5.474256
 20
8.516286
 30
0.0
  0
SPLINE
  5
154
100
AcDbEntity
  8
Layer_1
 62
7
100
AcDbSpline
 70
8
 71
3
 72
8
 73
4
 74
0
 40
0
 40
0
 40
0
 40
0
 40
1
 40
1
 40
1
 40
1
 10
5.474256
 20
8.516286
 30
0.0
 10
5.473380
 20
8.518486
 30
0.0
 10
5.494456
 20
8.494586
 30
0.0
 10
5.494736
 20
8.493746
 30
0.0
  0
LWPOLYLINE
  5
155
100
AcDbEntity
  8
Layer_1
 62
7
100
AcDbPolyline
 90
18
 70
0
 10
2.900808
 20
8.324608
 30
0.0
 10
2.902208
 20
8.393138
 30
0.0
 10
2.905608
 20
8.415678
 30
0.0
 10
2.916498
 20
8.439348
 30
0.0
 10
2.934568
 20
8.466118
 30
0.0
 10
2.947448
 20
8.486408
 30
0.0
 10
2.971968
 20
8.515518
 30
0.0
 10
3.003758
 20
8.538058
 30
0.0
 10
3.029508
 20
8.552428
 30
0.0
 10
3.050998
 20
8.560928
 30
0.0
 10
3.083178
 20
8.568828
 30
0.0
 10
3.116298
 20
8.573028
 30
0.0
 10
3.146768
 20
8.574928
 30
0.0
 10
3.180748
 20
8.580528
 30
0.0
 10
5.296116
 20
8.580796
 30
0.0
 10
5.355166
 20
8.573196
 30
0.0
 10
5.397946
 20
8.556856
 30
0.0
 10
5.436946
 20
8.541926
 30
0.0
  0
SPLINE
  5
156
100
AcDbEntity
  8
Layer_1
 62
7
100
AcDbSpline
 70
8
 71
3
 72
8
 73
4
 74
0
 40
0
 40
0
 40
0
 40
0
 40
1
 40
1
 40
1
 40
1
 10
5.556326
 20
5.352379
 30
0.0
 10
5.556326
 20
5.352379
 30
0.0
 10
5.547626
 20
5.333499
 30
0.0
 10
5.547626
 20
5.327299
 30
0.0
  0
SPLINE
  5
157
100
AcDbEntity
  8
Layer_1
 62
7
100
AcDbSpline
 70
8
 71
3
 72
8
 73
4
 74
0
 40
0
 40
0
 40
0
 40
0
 40
1
 40
1
 40
1
 40
1
 10
5.547626
 20
5.327299
 30
0.0
 10
5.547626
 20
5.321099
 30
0.0
 10
5.534726
 20
5.303909
 30
0.0
 10
5.534726
 20
5.303909
 30
0.0
  0
LWPOLYLINE
  5
158
100
AcDbEntity
  8
Layer_1
 62
7
100
AcDbPolyline
 90
12
 70
0
 10
5.494736
 20
8.493746
 30
0.0
 10
5.510726
 20
8.473456
 30
0.0
 10
5.523626
 20
8.453166
 30
0.0
 10
5.533126
 20
8.437386
 30
0.0
 10
5.542626
 20
8.415406
 30
0.0
 10
5.547426
 20
8.390326
 30
0.0
 10
5.552226
 20
8.358936
 30
0.0
 10
5.555626
 20
8.319686
 30
0.0
 10
5.557226
 20
8.282006
 30
0.0
 10
5.560626
 20
5.415249
 30
0.0
 10
5.562226
 20
5.379149
 30
0.0
 10
5.556326
 20
5.352379
 30
0.0
  0
LWPOLYLINE
  5
159
100
AcDbEntity
  8
Layer_1
 62
7
100
AcDbPolyline
 90
22
 70
0
 10
5.534726
 20
5.303909
 30
0.0
 10
5.520136
 20
5.280239
 30
0.0
 10
5.502466
 20
5.263049
 30
0.0
 10
5.486476
 20
5.239379
 30
0.0
 10
5.457526
 20
5.209539
 30
0.0
 10
5.415696
 20
5.187559
 30
0.0
 10
5.378696
 20
5.176569
 30
0.0
 10
5.349746
 20
5.171769
 30
0.0
 10
5.309516
 20
5.165569
 30
0.0
 10
5.251586
 20
5.162469
 30
0.0
 10
5.208146
 20
5.160869
 30
0.0
 10
3.113223
 20
5.168769
 30
0.0
 10
3.060123
 20
5.185959
 30
0.0
 10
3.010243
 20
5.207939
 30
0.0
 10
2.974843
 20
5.240909
 30
0.0
 10
2.937833
 20
5.278589
 30
0.0
 10
2.921733
 20
5.298879
 30
0.0
 10
2.912033
 20
5.334979
 30
0.0
 10
2.908833
 20
5.386799
 30
0.0
 10
2.904033
 20
5.438619
 30
0.0
 10
2.904033
 20
5.485709
 30
0.0
 10
2.900808
 20
8.324608
 30
0.0
  0
SPLINE
  5
15a
100
AcDbEntity
  8
Layer_1
 62
7
100
AcDbSpline
 70
8
 71
3
 72
8
 73
4
 74
0
 40
0
 40
0
 40
0
 40
0
 40
1
 40
1
 40
1
 40
1
 10
2.800763
 20
8.572819
 30
0.0
 10
2.800763
 20
8.572819
 30
0.0
 10
2.816753
 20
8.598739
 30
0.0
 10
2.819503
 20
8.601529
 30
0.0
  0
SPLINE
  5
15b
100
AcDbEntity
  8
Layer_1
 62
7
100
AcDbSpline
 70
8
 71
3
 72
8
 73
4
 74
0
 40
0
 40
0
 40
0
 40
0
 40
1
 40
1
 40
1
 40
1
 10
2.819503
 20
8.601529
 30
0.0
 10
2.829683
 20
8.611429
 30
0.0
 10
2.853653
 20
8.636439
 30
0.0
 10
2.853653
 20
8.636439
 30
0.0
  0
LWPOLYLINE
  5
15c
100
AcDbEntity
  8
Layer_1
 62
7
100
AcDbPolyline
 90
35
 70
0
 10
5.228562
 20
8.749121
 30
0.0
 10
5.324092
 20
8.745721
 30
0.0
 10
5.388532
 20
8.742321
 30
0.0
 10
5.455192
 20
8.720621
 30
0.0
 10
5.508522
 20
8.689201
 30
0.0
 10
5.560392
 20
8.656091
 30
0.0
 10
5.590462
 20
8.629321
 30
0.0
 10
5.622582
 20
8.594941
 30
0.0
 10
5.649232
 20
8.561351
 30
0.0
 10
5.675882
 20
8.511731
 30
0.0
 10
5.696082
 20
8.473101
 30
0.0
 10
5.709832
 20
8.424211
 30
0.0
 10
5.717732
 20
5.409772
 30
0.0
 10
5.711532
 20
5.330052
 30
0.0
 10
5.682472
 20
5.252642
 30
0.0
 10
5.643982
 20
5.185212
 30
0.0
 10
5.581142
 20
5.125412
 30
0.0
 10
5.498662
 20
5.067172
 30
0.0
 10
5.448392
 20
5.038032
 30
0.0
 10
5.351772
 20
5.018872
 30
0.0
 10
5.321132
 20
5.014372
 30
0.0
 10
3.179676
 20
5.014372
 30
0.0
 10
3.072062
 20
5.014372
 30
0.0
 10
2.984082
 20
5.034942
 30
0.0
 10
2.944022
 20
5.058052
 30
0.0
 10
2.903962
 20
5.080312
 30
0.0
 10
2.859972
 20
5.119392
 30
0.0
 10
2.813622
 20
5.162312
 30
0.0
 10
2.768062
 20
5.219032
 30
0.0
 10
2.745282
 20
5.269612
 30
0.0
 10
2.731142
 20
5.332452
 30
0.0
 10
2.731323
 20
8.396669
 30
0.0
 10
2.745773
 20
8.468749
 30
0.0
 10
2.781883
 20
8.533789
 30
0.0
 10
2.800763
 20
8.572819
 30
0.0
  0
SPLINE
  5
15d
100
AcDbEntity
  8
Layer_1
 62
7
100
AcDbSpline
 70
8
 71
3
 72
8
 73
4
 74
0
 40
0
 40
0
 40
0
 40
0
 40
1
 40
1
 40
1
 40
1
 10
3.461161
 20
8.196322
 30
0.0
 10
3.472271
 20
8.199722
 30
0.0
 10
4.925293
 20
8.199722
 30
0.0
 10
4.925293
 20
8.199722
 30
0.0
  0
LWPOLYLINE
  5
15e
100
AcDbEntity
  8
Layer_1
 62
7
100
AcDbPolyline
 90
6
 70
0
 10
2.853653
 20
8.636439
 30
0.0
 10
2.885183
 20
8.657859
 30
0.0
 10
2.934613
 20
8.689839
 30
0.0
 10
2.978493
 20
8.708159
 30
0.0
 10
3.042993
 20
8.731549
 30
0.0
 10
5.228562
 20
8.749121
 30
0.0
  0
SPLINE
  5
15f
100
AcDbEntity
  8
Layer_1
 62
7
100
AcDbSpline
 70
8
 71
3
 72
8
 73
4
 74
0
 40
0
 40
0
 40
0
 40
0
 40
1
 40
1
 40
1
 40
1
 10
5.155343
 20
8.063492
 30
0.0
 10
5.161143
 20
8.052222
 30
0.0
 10
5.157743
 20
8.058992
 30
0.0
 10
5.172873
 20
8.029452
 30
0.0
  0
LWPOLYLINE
  5
160
100
AcDbEntity
  8
Layer_1
 62
7
100
AcDbPolyline
 90
6
 70
0
 10
4.925293
 20
8.199722
 30
0.0
 10
5.007243
 20
8.186192
 30
0.0
 10
5.061743
 20
8.161392
 30
0.0
 10
5.102453
 20
8.127602
 30
0.0
 10
5.134863
 20
8.091392
 30
0.0
 10
5.155343
 20
8.063492
 30
0.0
  0
SPLINE
  5
161
100
AcDbEntity
  8
Layer_1
 62
7
100
AcDbSpline
 70
8
 71
3
 72
8
 73
4
 74
0
 40
0
 40
0
 40
0
 40
0
 40
1
 40
1
 40
1
 40
1
 10
3.885023
 20
5.543978
 30
0.0
 10
3.885023
 20
5.543978
 30
0.0
 10
3.803333
 20
5.555528
 30
0.0
 10
3.796263
 20
5.560038
 30
0.0
  0
SPLINE
  5
162
100
AcDbEntity
  8
Layer_1
 62
7
100
AcDbSpline
 70
8
 71
3
 72
8
 73
4
 74
0
 40
0
 40
0
 40
0
 40
0
 40
1
 40
1
 40
1
 40
1
 10
3.796263
 20
5.560038
 30
0.0
 10
3.789163
 20
5.564538
 30
0.0
 10
3.734993
 20
5.601428
 30
0.0
 10
3.734993
 20
5.601428
 30
0.0
  0
LWPOLYLINE
  5
163
100
AcDbEntity
  8
Layer_1
 62
7
100
AcDbPolyline
 90
9
 70
0
 10
5.172873
 20
8.029452
 30
0.0
 10
5.172873
 20
5.777628
 30
0.0
 10
5.172075
 20
5.735868
 30
0.0
 10
5.158325
 20
5.696028
 30
0.0
 10
5.135155
 20
5.653868
 30
0.0
 10
5.098235
 20
5.616308
 30
0.0
 10
5.025185
 20
5.563418
 30
0.0
 10
4.961945
 20
5.543978
 30
0.0
 10
3.885023
 20
5.543978
 30
0.0
  0
SPLINE
  5
164
100
AcDbEntity
  8
Layer_1
 62
7
100
AcDbSpline
 70
8
 71
3
 72
8
 73
4
 74
0
 40
0
 40
0
 40
0
 40
0
 40
1
 40
1
 40
1
 40
1
 10
3.628943
 20
6.483239
 30
0.0
 10
3.628943
 20
6.483239
 30
0.0
 10
3.608383
 20
6.526349
 30
0.0
 10
3.608383
 20
6.530189
 30
0.0
  0
SPLINE
  5
165
100
AcDbEntity
  8
Layer_1
 62
7
100
AcDbSpline
 70
8
 71
3
 72
8
 73
4
 74
0
 40
0
 40
0
 40
0
 40
0
 40
1
 40
1
 40
1
 40
1
 10
3.608383
 20
6.530189
 30
0.0
 10
3.608383
 20
6.534089
 30
0.0
 10
3.580253
 20
6.571389
 30
0.0
 10
3.580253
 20
6.571389
 30
0.0
  0
LWPOLYLINE
  5
166
100
AcDbEntity
  8
Layer_1
 62
7
100
AcDbPolyline
 90
5
 70
0
 10
3.734993
 20
5.601428
 30
0.0
 10
3.680003
 20
5.658148
 30
0.0
 10
3.657193
 20
5.689538
 30
0.0
 10
3.639943
 20
5.729438
 30
0.0
 10
3.628943
 20
6.483239
 30
0.0
  0
SPLINE
  5
167
100
AcDbEntity
  8
Layer_1
 62
7
100
AcDbSpline
 70
8
 71
3
 72
8
 73
4
 74
0
 40
0
 40
0
 40
0
 40
0
 40
1
 40
1
 40
1
 40
1
 10
3.537053
 20
6.597029
 30
0.0
 10
3.529853
 20
6.603529
 30
0.0
 10
3.489713
 20
6.612529
 30
0.0
 10
3.478923
 20
6.615349
 30
0.0
  0
SPLINE
  5
168
100
AcDbEntity
  8
Layer_1
 62
7
100
AcDbSpline
 70
8
 71
3
 72
8
 73
4
 74
0
 40
0
 40
0
 40
0
 40
0
 40
1
 40
1
 40
1
 40
1
 10
3.478923
 20
6.615349
 30
0.0
 10
3.474823
 20
6.616163
 30
0.0
 10
3.443453
 20
6.631979
 30
0.0
 10
3.421213
 20
6.639299
 30
0.0
  0
SPLINE
  5
169
100
AcDbEntity
  8
Layer_1
 62
7
100
AcDbSpline
 70
8
 71
3
 72
8
 73
4
 74
0
 40
0
 40
0
 40
0
 40
0
 40
1
 40
1
 40
1
 40
1
 10
3.421213
 20
6.639299
 30
0.0
 10
3.397033
 20
6.647499
 30
0.0
 10
3.355543
 20
6.677429
 30
0.0
 10
3.354423
 20
6.679259
 30
0.0
  0
SPLINE
  5
16a
100
AcDbEntity
  8
Layer_1
 62
7
100
AcDbSpline
 70
8
 71
3
 72
8
 73
4
 74
0
 40
0
 40
0
 40
0
 40
0
 40
1
 40
1
 40
1
 40
1
 10
3.354423
 20
6.679259
 30
0.0
 10
3.352023
 20
6.683159
 30
0.0
 10
3.310043
 20
6.717979
 30
0.0
 10
3.310043
 20
6.717979
 30
0.0
  0
SPLINE
  5
16b
100
AcDbEntity
  8
Layer_1
 62
7
100
AcDbSpline
 70
8
 71
3
 72
8
 73
4
 74
0
 40
0
 40
0
 40
0
 40
0
 40
1
 40
1
 40
1
 40
1
 10
3.310043
 20
6.717979
 30
0.0
 10
3.310043
 20
6.717979
 30
0.0
 10
3.274693
 20
6.765119
 30
0.0
 10
3.271553
 20
6.768189
 30
0.0
  0
SPLINE
  5
16c
100
AcDbEntity
  8
Layer_1
 62
7
100
AcDbSpline
 70
8
 71
3
 72
8
 73
4
 74
0
 40
0
 40
0
 40
0
 40
0
 40
1
 40
1
 40
1
 40
1
 10
3.271553
 20
6.768189
 30
0.0
 10
3.268453
 20
6.771289
 30
0.0
 10
3.257413
 20
6.803839
 30
0.0
 10
3.256623
 20
6.809189
 30
0.0
  0
SPLINE
  5
16d
100
AcDbEntity
  8
Layer_1
 62
7
100
AcDbSpline
 70
8
 71
3
 72
8
 73
4
 74
0
 40
0
 40
0
 40
0
 40
0
 40
1
 40
1
 40
1
 40
1
 10
3.256623
 20
6.809189
 30
0.0
 10
3.255826
 20
6.814589
 30
0.0
 10
3.256623
 20
7.955796
 30
0.0
 10
3.256623
 20
7.955796
 30
0.0
  0
LWPOLYLINE
  5
16e
100
AcDbEntity
  8
Layer_1
 62
7
100
AcDbPolyline
 90
2
 70
0
 10
3.580253
 20
6.571389
 30
0.0
 10
3.537053
 20
6.597029
 30
0.0
  0
LWPOLYLINE
  5
16f
100
AcDbEntity
  8
Layer_1
 62
7
100
AcDbPolyline
 90
9
 70
0
 10
3.256623
 20
7.955796
 30
0.0
 10
3.261723
 20
7.986456
 30
0.0
 10
3.275473
 20
8.044706
 30
0.0
 10
3.303753
 20
8.090696
 30
0.0
 10
3.333603
 20
8.122116
 30
0.0
 10
3.376023
 20
8.157366
 30
0.0
 10
3.414513
 20
8.185716
 30
0.0
 10
3.437683
 20
8.194416
 30
0.0
 10
3.461161
 20
8.196322
 30
0.0
  0
SPLINE
  5
170
100
AcDbEntity
  8
Layer_1
 62
7
100
AcDbSpline
 70
8
 71
3
 72
8
 73
4
 74
0
 40
0
 40
0
 40
0
 40
0
 40
1
 40
1
 40
1
 40
1
 10
4.846430
 20
8.051272
 30
0.0
 10
4.872610
 20
8.049172
 30
0.0
 10
4.912860
 20
8.050421
 30
0.0
 10
4.912860
 20
8.050421
 30
0.0
  0
LWPOLYLINE
  5
171
100
AcDbEntity
  8
Layer_1
 62
7
100
AcDbPolyline
 90
2
 70
0
 10
3.599640
 20
8.051753
 30
0.0
 10
4.846430
 20
8.051272
 30
0.0
  0
SPLINE
  5
172
100
AcDbEntity
  8
Layer_1
 62
7
100
AcDbSpline
 70
8
 71
3
 72
8
 73
4
 74
0
 40
0
 40
0
 40
0
 40
0
 40
1
 40
1
 40
1
 40
1
 10
5.017890
 20
7.965531
 30
0.0
 10
5.017890
 20
7.965531
 30
0.0
 10
5.023290
 20
7.890041
 30
0.0
 10
5.025090
 20
7.868261
 30
0.0
  0
SPLINE
  5
173
100
AcDbEntity
  8
Layer_1
 62
7
100
AcDbSpline
 70
8
 71
3
 72
8
 73
4
 74
0
 40
0
 40
0
 40
0
 40
0
 40
1
 40
1
 40
1
 40
1
 10
5.025090
 20
7.868261
 30
0.0
 10
5.025888
 20
7.828581
 30
0.0
 10
5.022990
 20
5.928313
 30
0.0
 10
5.024090
 20
5.913590
 30
0.0
  0
LWPOLYLINE
  5
174
100
AcDbEntity
  8
Layer_1
 62
7
100
AcDbPolyline
 90
4
 70
0
 10
4.912860
 20
8.050421
 30
0.0
 10
4.961570
 20
8.041421
 30
0.0
 10
4.998620
 20
8.011071
 30
0.0
 10
5.017890
 20
7.965531
 30
0.0
  0
SPLINE
  5
175
100
AcDbEntity
  8
Layer_1
 62
7
100
AcDbSpline
 70
8
 71
3
 72
8
 73
4
 74
0
 40
0
 40
0
 40
0
 40
0
 40
1
 40
1
 40
1
 40
1
 10
3.958396
 20
5.697345
 30
0.0
 10
3.958396
 20
5.697345
 30
0.0
 10
3.875996
 20
5.706045
 30
0.0
 10
3.869976
 20
5.710025
 30
0.0
  0
SPLINE
  5
176
100
AcDbEntity
  8
Layer_1
 62
7
100
AcDbSpline
 70
8
 71
3
 72
8
 73
4
 74
0
 40
0
 40
0
 40
0
 40
0
 40
1
 40
1
 40
1
 40
1
 10
3.869976
 20
5.710025
 30
0.0
 10
3.863976
 20
5.713925
 30
0.0
 10
3.828866
 20
5.740515
 30
0.0
 10
3.828866
 20
5.740515
 30
0.0
  0
LWPOLYLINE
  5
177
100
AcDbEntity
  8
Layer_1
 62
7
100
AcDbPolyline
 90
6
 70
0
 10
5.024090
 20
5.913590
 30
0.0
 10
5.021190
 20
5.790195
 30
0.0
 10
5.015990
 20
5.738345
 30
0.0
 10
4.970340
 20
5.699545
 30
0.0
 10
4.886570
 20
5.691945
 30
0.0
 10
3.958396
 20
5.697345
 30
0.0
  0
SPLINE
  5
178
100
AcDbEntity
  8
Layer_1
 62
7
100
AcDbSpline
 70
8
 71
3
 72
8
 73
4
 74
0
 40
0
 40
0
 40
0
 40
0
 40
1
 40
1
 40
1
 40
1
 10
3.802246
 20
5.804145
 30
0.0
 10
3.802246
 20
5.804145
 30
0.0
 10
3.796546
 20
6.507043
 30
0.0
 10
3.793146
 20
6.562037
 30
0.0
  0
SPLINE
  5
179
100
AcDbEntity
  8
Layer_1
 62
7
100
AcDbSpline
 70
8
 71
3
 72
8
 73
4
 74
0
 40
0
 40
0
 40
0
 40
0
 40
1
 40
1
 40
1
 40
1
 10
3.793146
 20
6.562037
 30
0.0
 10
3.793146
 20
6.562037
 30
0.0
 10
3.763666
 20
6.627917
 30
0.0
 10
3.761266
 20
6.630197
 30
0.0
  0
SPLINE
  5
17a
100
AcDbEntity
  8
Layer_1
 62
7
100
AcDbSpline
 70
8
 71
3
 72
8
 73
4
 74
0
 40
0
 40
0
 40
0
 40
0
 40
1
 40
1
 40
1
 40
1
 10
3.761266
 20
6.630197
 30
0.0
 10
3.755766
 20
6.635297
 30
0.0
 10
3.703926
 20
6.681767
 30
0.0
 10
3.703926
 20
6.681767
 30
0.0
  0
LWPOLYLINE
  5
17b
100
AcDbEntity
  8
Layer_1
 62
7
100
AcDbPolyline
 90
2
 70
0
 10
3.828866
 20
5.740515
 30
0.0
 10
3.802246
 20
5.804145
 30
0.0
  0
SPLINE
  5
17c
100
AcDbEntity
  8
Layer_1
 62
7
100
AcDbSpline
 70
8
 71
3
 72
8
 73
4
 74
0
 40
0
 40
0
 40
0
 40
0
 40
1
 40
1
 40
1
 40
1
 10
3.668706
 20
6.715127
 30
0.0
 10
3.668452
 20
6.715287
 30
0.0
 10
3.625646
 20
6.732597
 30
0.0
 10
3.616456
 20
6.735137
 30
0.0
  0
SPLINE
  5
17d
100
AcDbEntity
  8
Layer_1
 62
7
100
AcDbSpline
 70
8
 71
3
 72
8
 73
4
 74
0
 40
0
 40
0
 40
0
 40
0
 40
1
 40
1
 40
1
 40
1
 10
3.616456
 20
6.735137
 30
0.0
 10
3.609056
 20
6.739337
 30
0.0
 10
3.583266
 20
6.745847
 30
0.0
 10
3.564556
 20
6.752887
 30
0.0
  0
SPLINE
  5
17e
100
AcDbEntity
  8
Layer_1
 62
7
100
AcDbSpline
 70
8
 71
3
 72
8
 73
4
 74
0
 40
0
 40
0
 40
0
 40
0
 40
1
 40
1
 40
1
 40
1
 10
3.564556
 20
6.752887
 30
0.0
 10
3.540036
 20
6.762187
 30
0.0
 10
3.512166
 20
6.783067
 30
0.0
 10
3.507686
 20
6.786897
 30
0.0
  0
SPLINE
  5
17f
100
AcDbEntity
  8
Layer_1
 62
7
100
AcDbSpline
 70
8
 71
3
 72
8
 73
4
 74
0
 40
0
 40
0
 40
0
 40
0
 40
1
 40
1
 40
1
 40
1
 10
3.507686
 20
6.786897
 30
0.0
 10
3.504786
 20
6.789397
 30
0.0
 10
3.460676
 20
6.819867
 30
0.0
 10
3.460676
 20
6.819867
 30
0.0
  0
SPLINE
  5
180
100
AcDbEntity
  8
Layer_1
 62
7
100
AcDbSpline
 70
8
 71
3
 72
8
 73
4
 74
0
 40
0
 40
0
 40
0
 40
0
 40
1
 40
1
 40
1
 40
1
 10
3.460676
 20
6.819867
 30
0.0
 10
3.460676
 20
6.819867
 30
0.0
 10
3.440166
 20
6.852727
 30
0.0
 10
3.437896
 20
6.857257
 30
0.0
  0
SPLINE
  5
181
100
AcDbEntity
  8
Layer_1
 62
7
100
AcDbSpline
 70
8
 71
3
 72
8
 73
4
 74
0
 40
0
 40
0
 40
0
 40
0
 40
1
 40
1
 40
1
 40
1
 10
3.437896
 20
6.857257
 30
0.0
 10
3.436196
 20
6.860657
 30
0.0
 10
3.425076
 20
6.892957
 30
0.0
 10
3.424406
 20
6.897557
 30
0.0
  0
SPLINE
  5
182
100
AcDbEntity
  8
Layer_1
 62
7
100
AcDbSpline
 70
8
 71
3
 72
8
 73
4
 74
0
 40
0
 40
0
 40
0
 40
0
 40
1
 40
1
 40
1
 40
1
 10
3.424406
 20
6.897557
 30
0.0
 10
3.423722
 20
6.902057
 30
0.0
 10
3.424406
 20
7.873955
 30
0.0
 10
3.424406
 20
7.873955
 30
0.0
  0
LWPOLYLINE
  5
183
100
AcDbEntity
  8
Layer_1
 62
7
100
AcDbPolyline
 90
2
 70
0
 10
3.703926
 20
6.681767
 30
0.0
 10
3.668706
 20
6.715127
 30
0.0
  0
SPLINE
  5
184
100
AcDbEntity
  8
Layer_1
 62
7
100
AcDbSpline
 70
8
 71
3
 72
8
 73
4
 74
0
 40
0
 40
0
 40
0
 40
0
 40
1
 40
1
 40
1
 40
1
 10
3.432606
 20
7.974575
 30
0.0
 10
3.430606
 20
7.979975
 30
0.0
 10
3.446686
 20
8.005065
 30
0.0
 10
3.446686
 20
8.005065
 30
0.0
  0
LWPOLYLINE
  5
185
100
AcDbEntity
  8
Layer_1
 62
7
100
AcDbPolyline
 90
3
 70
0
 10
3.424406
 20
7.873955
 30
0.0
 10
3.426506
 20
7.934735
 30
0.0
 10
3.432606
 20
7.974575
 30
0.0
  0
SPLINE
  5
186
100
AcDbEntity
  8
Layer_1
 62
7
100
AcDbSpline
 70
8
 71
3
 72
8
 73
4
 74
0
 40
0
 40
0
 40
0
 40
0
 40
1
 40
1
 40
1
 40
1
 10
3.534326
 20
8.051315
 30
0.0
 10
3.535086
 20
8.050833
 30
0.0
 10
3.597266
 20
8.052315
 30
0.0
 10
3.599596
 20
8.051983
 30
0.0
  0
LWPOLYLINE
  5
187
100
AcDbEntity
  8
Layer_1
 62
7
100
AcDbPolyline
 90
4
 70
0
 10
3.446686
 20
8.005065
 30
0.0
 10
3.468766
 20
8.029585
 30
0.0
 10
3.502666
 20
8.044515
 30
0.0
 10
3.534326
 20
8.051315
 30
0.0
  0
LWPOLYLINE
  5
188
100
AcDbEntity
  8
Layer_1
 62
7
100
AcDbPolyline
 90
2
 70
0
 10
3.599596
 20
8.051983
 30
0.0
 10
3.599640
 20
8.051753
 30
0.0
  0
SPLINE
  5
189
100
AcDbEntity
  8
Layer_1
 62
7
100
AcDbSpline
 70
8
 71
3
 72
8
 73
4
 74
0
 40
0
 40
0
 40
0
 40
0
 40
1
 40
1
 40
1
 40
1
 10
8.990423
 20
8.494359
 30
0.0
 10
8.990423
 20
8.494359
 30
0.0
 10
9.003323
 20
8.472939
 30
0.0
 10
9.003323
 20
8.460939
 30
0.0
  0
SPLINE
  5
18a
100
AcDbEntity
  8
Layer_1
 62
7
100
AcDbSpline
 70
8
 71
3
 72
8
 73
4
 74
0
 40
0
 40
0
 40
0
 40
0
 40
1
 40
1
 40
1
 40
1
 10
9.003323
 20
8.460939
 30
0.0
 10
9.007823
 20
8.003046
 30
0.0
 10
9.008123
 20
7.044248
 30
0.0
 10
9.008123
 20
7.044248
 30
0.0
  0
LWPOLYLINE
  5
18b
100
AcDbEntity
  8
Layer_1
 62
7
100
AcDbPolyline
 90
12
 70
0
 10
6.722687
 20
8.745869
 30
0.0
 10
8.597843
 20
8.745869
 30
0.0
 10
8.693373
 20
8.738269
 30
0.0
 10
8.748923
 20
8.716569
 30
0.0
 10
8.805593
 20
8.687289
 30
0.0
 10
8.857803
 20
8.653699
 30
0.0
 10
8.894473
 20
8.623349
 30
0.0
 10
8.914393
 20
8.602499
 30
0.0
 10
8.937683
 20
8.581369
 30
0.0
 10
8.959563
 20
8.552739
 30
0.0
 10
8.975833
 20
8.525409
 30
0.0
 10
8.990423
 20
8.494359
 30
0.0
  0
SPLINE
  5
18c
100
AcDbEntity
  8
Layer_1
 62
7
100
AcDbSpline
 70
8
 71
3
 72
8
 73
4
 74
0
 40
0
 40
0
 40
0
 40
0
 40
1
 40
1
 40
1
 40
1
 10
9.564641
 20
5.398516
 30
0.0
 10
9.564641
 20
5.398516
 30
0.0
 10
9.569441
 20
5.334886
 30
0.0
 10
9.569441
 20
5.331846
 30
0.0
  0
SPLINE
  5
18d
100
AcDbEntity
  8
Layer_1
 62
7
100
AcDbSpline
 70
8
 71
3
 72
8
 73
4
 74
0
 40
0
 40
0
 40
0
 40
0
 40
1
 40
1
 40
1
 40
1
 10
9.569441
 20
5.331846
 30
0.0
 10
9.569441
 20
5.328746
 30
0.0
 10
9.571841
 20
5.278956
 30
0.0
 10
9.571841
 20
5.278956
 30
0.0
  0
LWPOLYLINE
  5
18e
100
AcDbEntity
  8
Layer_1
 62
7
100
AcDbPolyline
 90
16
 70
0
 10
9.008123
 20
7.044248
 30
0.0
 10
9.005723
 20
6.999778
 30
0.0
 10
8.995623
 20
6.951478
 30
0.0
 10
8.978233
 20
6.921578
 30
0.0
 10
8.952983
 20
6.875588
 30
0.0
 10
8.939513
 20
6.854168
 30
0.0
 10
8.918193
 20
6.823508
 30
0.0
 10
8.893783
 20
6.796738
 30
0.0
 10
8.871903
 20
6.772218
 30
0.0
 10
8.837343
 20
6.743868
 30
0.0
 10
8.817703
 20
6.713208
 30
0.0
 10
8.815303
 20
6.700808
 30
0.0
 10
8.816903
 20
6.677698
 30
0.0
 10
8.845183
 20
6.643208
 30
0.0
 10
9.556741
 20
5.434326
 30
0.0
 10
9.564641
 20
5.398516
 30
0.0
  0
SPLINE
  5
18f
100
AcDbEntity
  8
Layer_1
 62
7
100
AcDbSpline
 70
8
 71
3
 72
8
 73
4
 74
0
 40
0
 40
0
 40
0
 40
0
 40
1
 40
1
 40
1
 40
1
 10
6.336654
 20
5.165843
 30
0.0
 10
6.336654
 20
5.165843
 30
0.0
 10
6.321784
 20
5.184723
 30
0.0
 10
6.317854
 20
5.189233
 30
0.0
  0
SPLINE
  5
190
100
AcDbEntity
  8
Layer_1
 62
7
100
AcDbSpline
 70
8
 71
3
 72
8
 73
4
 74
0
 40
0
 40
0
 40
0
 40
0
 40
1
 40
1
 40
1
 40
1
 10
6.317854
 20
5.189233
 30
0.0
 10
6.313054
 20
5.195733
 30
0.0
 10
6.292044
 20
5.227953
 30
0.0
 10
6.292044
 20
5.227953
 30
0.0
  0
LWPOLYLINE
  5
191
100
AcDbEntity
  8
Layer_1
 62
7
100
AcDbPolyline
 90
52
 70
0
 10
9.571841
 20
5.278956
 30
0.0
 10
9.574241
 20
5.226066
 30
0.0
 10
9.572641
 20
5.202396
 30
0.0
 10
9.571041
 20
5.165596
 30
0.0
 10
9.555331
 20
5.123436
 30
0.0
 10
9.538501
 20
5.102306
 30
0.0
 10
9.518021
 20
5.083146
 30
0.0
 10
9.494451
 20
5.061166
 30
0.0
 10
9.464601
 20
5.044256
 30
0.0
 10
9.437111
 20
5.031576
 30
0.0
 10
9.414391
 20
5.026476
 30
0.0
 10
8.855895
 20
5.028776
 30
0.0
 10
8.815445
 20
5.041176
 30
0.0
 10
8.777345
 20
5.060056
 30
0.0
 10
8.734145
 20
5.090716
 30
0.0
 10
7.959973
 20
6.440269
 30
0.0
 10
7.954073
 20
6.449569
 30
0.0
 10
7.945073
 20
6.460279
 30
0.0
 10
7.928523
 20
6.467879
 30
0.0
 10
7.441962
 20
6.466779
 30
0.0
 10
7.420082
 20
6.456879
 30
0.0
 10
7.407742
 20
6.446979
 30
0.0
 10
7.396242
 20
6.437379
 30
0.0
 10
7.386142
 20
6.428379
 30
0.0
 10
7.377742
 20
6.417109
 30
0.0
 10
7.367642
 20
6.404989
 30
0.0
 10
7.357542
 20
6.392589
 30
0.0
 10
7.353642
 20
6.379629
 30
0.0
 10
7.349142
 20
6.361309
 30
0.0
 10
7.335952
 20
5.437633
 30
0.0
 10
7.324172
 20
5.350953
 30
0.0
 10
7.304812
 20
5.277523
 30
0.0
 10
7.288262
 20
5.243033
 30
0.0
 10
7.270302
 20
5.210463
 30
0.0
 10
7.253472
 20
5.184823
 30
0.0
 10
7.225192
 20
5.154923
 30
0.0
 10
7.204712
 20
5.137173
 30
0.0
 10
7.167002
 20
5.105753
 30
0.0
 10
7.135582
 20
5.082643
 30
0.0
 10
7.085312
 20
5.062073
 30
0.0
 10
7.038182
 20
5.038963
 30
0.0
 10
6.932922
 20
5.018393
 30
0.0
 10
6.695694
 20
5.016893
 30
0.0
 10
6.632854
 20
5.015393
 30
0.0
 10
6.570794
 20
5.022693
 30
0.0
 10
6.531514
 20
5.035373
 30
0.0
 10
6.495384
 20
5.046083
 30
0.0
 10
6.456894
 20
5.062423
 30
0.0
 10
6.421544
 20
5.085813
 30
0.0
 10
6.388554
 20
5.111733
 30
0.0
 10
6.361064
 20
5.139353
 30
0.0
 10
6.336654
 20
5.165843
 30
0.0
  0
SPLINE
  5
192
100
AcDbEntity
  8
Layer_1
 62
7
100
AcDbSpline
 70
8
 71
3
 72
8
 73
4
 74
0
 40
0
 40
0
 40
0
 40
0
 40
1
 40
1
 40
1
 40
1
 10
6.257540
 20
8.443604
 30
0.0
 10
6.257540
 20
8.443604
 30
0.0
 10
6.274090
 20
8.484994
 30
0.0
 10
6.274090
 20
8.489594
 30
0.0
  0
SPLINE
  5
193
100
AcDbEntity
  8
Layer_1
 62
7
100
AcDbSpline
 70
8
 71
3
 72
8
 73
4
 74
0
 40
0
 40
0
 40
0
 40
0
 40
1
 40
1
 40
1
 40
1
 10
6.274090
 20
8.489594
 30
0.0
 10
6.274090
 20
8.494094
 30
0.0
 10
6.307870
 20
8.550154
 30
0.0
 10
6.307870
 20
8.550154
 30
0.0
  0
LWPOLYLINE
  5
194
100
AcDbEntity
  8
Layer_1
 62
7
100
AcDbPolyline
 90
8
 70
0
 10
6.292044
 20
5.227953
 30
0.0
 10
6.270724
 20
5.271263
 30
0.0
 10
6.258944
 20
5.302683
 30
0.0
 10
6.247164
 20
5.341763
 30
0.0
 10
6.240164
 20
5.363463
 30
0.0
 10
6.240150
 20
8.288784
 30
0.0
 10
6.240150
 20
8.385354
 30
0.0
 10
6.257540
 20
8.443604
 30
0.0
  0
SPLINE
  5
195
100
AcDbEntity
  8
Layer_1
 62
7
100
AcDbSpline
 70
8
 71
3
 72
8
 73
4
 74
0
 40
0
 40
0
 40
0
 40
0
 40
1
 40
1
 40
1
 40
1
 10
6.574150
 20
8.738624
 30
0.0
 10
6.574150
 20
8.738624
 30
0.0
 10
6.624420
 20
8.744824
 30
0.0
 10
6.628350
 20
8.745424
 30
0.0
  0
SPLINE
  5
196
100
AcDbEntity
  8
Layer_1
 62
7
100
AcDbSpline
 70
8
 71
3
 72
8
 73
4
 74
0
 40
0
 40
0
 40
0
 40
0
 40
1
 40
1
 40
1
 40
1
 10
6.628350
 20
8.745424
 30
0.0
 10
6.632250
 20
8.746202
 30
0.0
 10
6.723010
 20
8.745669
 30
0.0
 10
6.723010
 20
8.745669
 30
0.0
  0
LWPOLYLINE
  5
197
100
AcDbEntity
  8
Layer_1
 62
7
100
AcDbPolyline
 90
7
 70
0
 10
6.307870
 20
8.550154
 30
0.0
 10
6.339290
 20
8.595384
 30
0.0
 10
6.372280
 20
8.632944
 30
0.0
 10
6.408410
 20
8.662084
 30
0.0
 10
6.452400
 20
8.690434
 30
0.0
 10
6.501100
 20
8.716364
 30
0.0
 10
6.574150
 20
8.738624
 30
0.0
  0
LWPOLYLINE
  5
198
100
AcDbEntity
  8
Layer_1
 62
7
100
AcDbPolyline
 90
2
 70
0
 10
6.723010
 20
8.745669
 30
0.0
 10
6.722687
 20
8.745869
 30
0.0
  0
SPLINE
  5
199
100
AcDbEntity
  8
Layer_1
 62
7
100
AcDbSpline
 70
8
 71
3
 72
8
 73
4
 74
0
 40
0
 40
0
 40
0
 40
0
 40
1
 40
1
 40
1
 40
1
 10
8.831815
 20
8.411230
 30
0.0
 10
8.831815
 20
8.411230
 30
0.0
 10
8.838515
 20
8.372880
 30
0.0
 10
8.840815
 20
8.369020
 30
0.0
  0
LWPOLYLINE
  5
19a
100
AcDbEntity
  8
Layer_1
 62
7
100
AcDbPolyline
 90
10
 70
0
 10
6.818911
 20
8.579440
 30
0.0
 10
8.495385
 20
8.587940
 30
0.0
 10
8.580755
 20
8.581140
 30
0.0
 10
8.636495
 20
8.571000
 30
0.0
 10
8.693785
 20
8.549300
 30
0.0
 10
8.739345
 20
8.520470
 30
0.0
 10
8.775425
 20
8.493420
 30
0.0
 10
8.802075
 20
8.463920
 30
0.0
 10
8.818345
 20
8.436590
 30
0.0
 10
8.831815
 20
8.411230
 30
0.0
  0
SPLINE
  5
19b
100
AcDbEntity
  8
Layer_1
 62
7
100
AcDbSpline
 70
8
 71
3
 72
8
 73
4
 74
0
 40
0
 40
0
 40
0
 40
0
 40
1
 40
1
 40
1
 40
1
 10
9.416462
 20
5.339647
 30
0.0
 10
9.417146
 20
5.336947
 30
0.0
 10
9.421262
 20
5.316817
 30
0.0
 10
9.421262
 20
5.316817
 30
0.0
  0
LWPOLYLINE
  5
19c
100
AcDbEntity
  8
Layer_1
 62
7
100
AcDbPolyline
 90
18
 70
0
 10
8.840815
 20
8.369020
 30
0.0
 10
8.842315
 20
7.077022
 30
0.0
 10
8.833015
 20
7.025002
 30
0.0
 10
8.823215
 20
6.982792
 30
0.0
 10
8.806945
 20
6.950842
 30
0.0
 10
8.786185
 20
6.924352
 30
0.0
 10
8.764865
 20
6.893752
 30
0.0
 10
8.739615
 20
6.864162
 30
0.0
 10
8.709205
 20
6.832632
 30
0.0
 10
8.682555
 20
6.801612
 30
0.0
 10
8.656465
 20
6.767942
 30
0.0
 10
8.644405
 20
6.734912
 30
0.0
 10
8.641005
 20
6.695632
 30
0.0
 10
8.653345
 20
6.657932
 30
0.0
 10
8.665125
 20
6.625722
 30
0.0
 10
9.291176
 20
5.572288
 30
0.0
 10
9.403562
 20
5.390197
 30
0.0
 10
9.416462
 20
5.339647
 30
0.0
  0
SPLINE
  5
19d
100
AcDbEntity
  8
Layer_1
 62
7
100
AcDbSpline
 70
8
 71
3
 72
8
 73
4
 74
0
 40
0
 40
0
 40
0
 40
0
 40
1
 40
1
 40
1
 40
1
 10
9.345312
 20
5.168377
 30
0.0
 10
9.325952
 20
5.167277
 30
0.0
 10
8.995723
 20
5.168822
 30
0.0
 10
8.992651
 20
5.170177
 30
0.0
  0
SPLINE
  5
19e
100
AcDbEntity
  8
Layer_1
 62
7
100
AcDbSpline
 70
8
 71
3
 72
8
 73
4
 74
0
 40
0
 40
0
 40
0
 40
0
 40
1
 40
1
 40
1
 40
1
 10
8.992651
 20
5.170177
 30
0.0
 10
8.987651
 20
5.171977
 30
0.0
 10
8.911601
 20
5.176677
 30
0.0
 10
8.911601
 20
5.176677
 30
0.0
  0
LWPOLYLINE
  5
19f
100
AcDbEntity
  8
Layer_1
 62
7
100
AcDbPolyline
 90
7
 70
0
 10
9.421262
 20
5.316817
 30
0.0
 10
9.419462
 20
5.275507
 30
0.0
 10
9.417262
 20
5.254377
 30
0.0
 10
9.413062
 20
5.222787
 30
0.0
 10
9.396792
 20
5.196867
 30
0.0
 10
9.377712
 20
5.176577
 30
0.0
 10
9.345312
 20
5.168377
 30
0.0
  0
SPLINE
  5
1a0
100
AcDbEntity
  8
Layer_1
 62
7
100
AcDbSpline
 70
8
 71
3
 72
8
 73
4
 74
0
 40
0
 40
0
 40
0
 40
0
 40
1
 40
1
 40
1
 40
1
 10
8.020870
 20
6.627166
 30
0.0
 10
8.020870
 20
6.627166
 30
0.0
 10
8.002070
 20
6.641256
 30
0.0
 10
7.991050
 20
6.641256
 30
0.0
  0
SPLINE
  5
1a1
100
AcDbEntity
  8
Layer_1
 62
7
100
AcDbSpline
 70
8
 71
3
 72
8
 73
4
 74
0
 40
0
 40
0
 40
0
 40
0
 40
1
 40
1
 40
1
 40
1
 10
7.991050
 20
6.641256
 30
0.0
 10
7.939770
 20
6.641256
 30
0.0
 10
7.589016
 20
6.641191
 30
0.0
 10
7.366864
 20
6.641191
 30
0.0
  0
SPLINE
  5
1a2
100
AcDbEntity
  8
Layer_1
 62
7
100
AcDbSpline
 70
8
 71
3
 72
8
 73
4
 74
0
 40
0
 40
0
 40
0
 40
0
 40
1
 40
1
 40
1
 40
1
 10
7.366864
 20
6.641191
 30
0.0
 10
7.346664
 20
6.641191
 30
0.0
 10
7.311284
 20
6.612501
 30
0.0
 10
7.311284
 20
6.612501
 30
0.0
  0
LWPOLYLINE
  5
1a3
100
AcDbEntity
  8
Layer_1
 62
7
100
AcDbPolyline
 90
7
 70
0
 10
8.911601
 20
5.176677
 30
0.0
 10
8.886071
 20
5.190207
 30
0.0
 10
8.847021
 20
5.218387
 30
0.0
 10
8.802301
 20
5.283597
 30
0.0
 10
8.072800
 20
6.583206
 30
0.0
 10
8.048950
 20
6.606316
 30
0.0
 10
8.020870
 20
6.627166
 30
0.0
  0
SPLINE
  5
1a4
100
AcDbEntity
  8
Layer_1
 62
7
100
AcDbSpline
 70
8
 71
3
 72
8
 73
4
 74
0
 40
0
 40
0
 40
0
 40
0
 40
1
 40
1
 40
1
 40
1
 10
7.169694
 20
6.444471
 30
0.0
 10
7.169694
 20
6.444471
 30
0.0
 10
7.170264
 20
5.923105
 30
0.0
 10
7.160394
 20
5.662660
 30
0.0
  0
SPLINE
  5
1a5
100
AcDbEntity
  8
Layer_1
 62
7
100
AcDbSpline
 70
8
 71
3
 72
8
 73
4
 74
0
 40
0
 40
0
 40
0
 40
0
 40
1
 40
1
 40
1
 40
1
 10
7.160394
 20
5.662660
 30
0.0
 10
7.156994
 20
5.570660
 30
0.0
 10
7.167394
 20
5.476511
 30
0.0
 10
7.142724
 20
5.387016
 30
0.0
  0
SPLINE
  5
1a6
100
AcDbEntity
  8
Layer_1
 62
7
100
AcDbSpline
 70
8
 71
3
 72
8
 73
4
 74
0
 40
0
 40
0
 40
0
 40
0
 40
1
 40
1
 40
1
 40
1
 10
7.142724
 20
5.387016
 30
0.0
 10
7.136224
 20
5.363626
 30
0.0
 10
7.117194
 20
5.318346
 30
0.0
 10
7.117194
 20
5.318346
 30
0.0
  0
LWPOLYLINE
  5
1a7
100
AcDbEntity
  8
Layer_1
 62
7
100
AcDbPolyline
 90
6
 70
0
 10
7.311284
 20
6.612501
 30
0.0
 10
7.274284
 20
6.585731
 30
0.0
 10
7.238154
 20
6.550081
 30
0.0
 10
7.214304
 20
6.521761
 30
0.0
 10
7.195224
 20
6.486341
 30
0.0
 10
7.169694
 20
6.444471
 30
0.0
  0
SPLINE
  5
1a8
100
AcDbEntity
  8
Layer_1
 62
7
100
AcDbSpline
 70
8
 71
3
 72
8
 73
4
 74
0
 40
0
 40
0
 40
0
 40
0
 40
1
 40
1
 40
1
 40
1
 10
6.473324
 20
5.279761
 30
0.0
 10
6.473324
 20
5.279761
 30
0.0
 10
6.455934
 20
5.299481
 30
0.0
 10
6.452564
 20
5.303711
 30
0.0
  0
SPLINE
  5
1a9
100
AcDbEntity
  8
Layer_1
 62
7
100
AcDbSpline
 70
8
 71
3
 72
8
 73
4
 74
0
 40
0
 40
0
 40
0
 40
0
 40
1
 40
1
 40
1
 40
1
 10
6.452564
 20
5.303711
 30
0.0
 10
6.448364
 20
5.309611
 30
0.0
 10
6.430684
 20
5.343531
 30
0.0
 10
6.430684
 20
5.343531
 30
0.0
  0
LWPOLYLINE
  5
1aa
100
AcDbEntity
  8
Layer_1
 62
7
100
AcDbPolyline
 90
16
 70
0
 10
7.117194
 20
5.318346
 30
0.0
 10
7.087424
 20
5.265486
 30
0.0
 10
7.070314
 20
5.236606
 30
0.0
 10
7.036224
 20
5.207186
 30
0.0
 10
6.998354
 20
5.188306
 30
0.0
 10
6.959864
 20
5.177316
 30
0.0
 10
6.887734
 20
5.171716
 30
0.0
 10
6.817434
 20
5.170016
 30
0.0
 10
6.746654
 20
5.170371
 30
0.0
 10
6.680134
 20
5.174271
 30
0.0
 10
6.631744
 20
5.175771
 30
0.0
 10
6.597354
 20
5.184771
 30
0.0
 10
6.561834
 20
5.200551
 30
0.0
 10
6.528424
 20
5.222531
 30
0.0
 10
6.503734
 20
5.247051
 30
0.0
 10
6.473324
 20
5.279761
 30
0.0
  0
SPLINE
  5
1ab
100
AcDbEntity
  8
Layer_1
 62
7
100
AcDbSpline
 70
8
 71
3
 72
8
 73
4
 74
0
 40
0
 40
0
 40
0
 40
0
 40
1
 40
1
 40
1
 40
1
 10
6.403174
 20
5.584401
 30
0.0
 10
6.403174
 20
5.584401
 30
0.0
 10
6.426174
 20
7.314223
 30
0.0
 10
6.409374
 20
8.178907
 30
0.0
  0
SPLINE
  5
1ac
100
AcDbEntity
  8
Layer_1
 62
7
100
AcDbSpline
 70
8
 71
3
 72
8
 73
4
 74
0
 40
0
 40
0
 40
0
 40
0
 40
1
 40
1
 40
1
 40
1
 10
6.409374
 20
8.178907
 30
0.0
 10
6.408463
 20
8.225627
 30
0.0
 10
6.410874
 20
8.316476
 30
0.0
 10
6.411474
 20
8.319744
 30
0.0
  0
LWPOLYLINE
  5
1ad
100
AcDbEntity
  8
Layer_1
 62
7
100
AcDbPolyline
 90
5
 70
0
 10
6.430684
 20
5.343531
 30
0.0
 10
6.416374
 20
5.411191
 30
0.0
 10
6.407074
 20
5.475551
 30
0.0
 10
6.405174
 20
5.531401
 30
0.0
 10
6.403174
 20
5.584401
 30
0.0
  0
SPLINE
  5
1ae
100
AcDbEntity
  8
Layer_1
 62
7
100
AcDbSpline
 70
8
 71
3
 72
8
 73
4
 74
0
 40
0
 40
0
 40
0
 40
0
 40
1
 40
1
 40
1
 40
1
 10
6.423814
 20
8.385174
 30
0.0
 10
6.424575
 20
8.389074
 30
0.0
 10
6.436714
 20
8.418904
 30
0.0
 10
6.444854
 20
8.434884
 30
0.0
  0
SPLINE
  5
1af
100
AcDbEntity
  8
Layer_1
 62
7
100
AcDbSpline
 70
8
 71
3
 72
8
 73
4
 74
0
 40
0
 40
0
 40
0
 40
0
 40
1
 40
1
 40
1
 40
1
 10
6.444854
 20
8.434884
 30
0.0
 10
6.450454
 20
8.445594
 30
0.0
 10
6.454154
 20
8.452914
 30
0.0
 10
6.464214
 20
8.465904
 30
0.0
  0
SPLINE
  5
1b0
100
AcDbEntity
  8
Layer_1
 62
7
100
AcDbSpline
 70
8
 71
3
 72
8
 73
4
 74
0
 40
0
 40
0
 40
0
 40
0
 40
1
 40
1
 40
1
 40
1
 10
6.464214
 20
8.465904
 30
0.0
 10
6.473514
 20
8.477454
 30
0.0
 10
6.482164
 20
8.489854
 30
0.0
 10
6.493704
 20
8.499324
 30
0.0
  0
LWPOLYLINE
  5
1b1
100
AcDbEntity
  8
Layer_1
 62
7
100
AcDbPolyline
 90
2
 70
0
 10
6.411474
 20
8.319744
 30
0.0
 10
6.423814
 20
8.385174
 30
0.0
  0
LWPOLYLINE
  5
1b2
100
AcDbEntity
  8
Layer_1
 62
7
100
AcDbPolyline
 90
6
 70
0
 10
6.493704
 20
8.499324
 30
0.0
 10
6.525994
 20
8.525244
 30
0.0
 10
6.563394
 20
8.546094
 30
0.0
 10
6.621044
 20
8.561594
 30
0.0
 10
6.689464
 20
8.570594
 30
0.0
 10
6.818911
 20
8.579440
 30
0.0
  0
SPLINE
  5
1b3
100
AcDbEntity
  8
Layer_1
 62
7
100
AcDbSpline
 70
8
 71
3
 72
8
 73
4
 74
0
 40
0
 40
0
 40
0
 40
0
 40
1
 40
1
 40
1
 40
1
 10
8.202983
 20
8.150903
 30
0.0
 10
8.202983
 20
8.150903
 30
0.0
 10
8.218693
 20
8.135973
 30
0.0
 10
8.228233
 20
8.126673
 30
0.0
  0
SPLINE
  5
1b4
100
AcDbEntity
  8
Layer_1
 62
7
100
AcDbSpline
 70
8
 71
3
 72
8
 73
4
 74
0
 40
0
 40
0
 40
0
 40
0
 40
1
 40
1
 40
1
 40
1
 10
8.228233
 20
8.126673
 30
0.0
 10
8.237733
 20
8.117373
 30
0.0
 10
8.260443
 20
8.082993
 30
0.0
 10
8.260443
 20
8.082993
 30
0.0
  0
LWPOLYLINE
  5
1b5
100
AcDbEntity
  8
Layer_1
 62
7
100
AcDbPolyline
 90
4
 70
0
 10
8.106363
 20
8.196843
 30
0.0
 10
8.143673
 20
8.183033
 30
0.0
 10
8.177453
 20
8.166123
 30
0.0
 10
8.202983
 20
8.150903
 30
0.0
  0
SPLINE
  5
1b6
100
AcDbEntity
  8
Layer_1
 62
7
100
AcDbSpline
 70
8
 71
3
 72
8
 73
4
 74
0
 40
0
 40
0
 40
0
 40
0
 40
1
 40
1
 40
1
 40
1
 10
8.197493
 20
7.268278
 30
0.0
 10
8.197493
 20
7.268278
 30
0.0
 10
8.153703
 20
7.238718
 30
0.0
 10
8.128363
 20
7.237228
 30
0.0
  0
SPLINE
  5
1b7
100
AcDbEntity
  8
Layer_1
 62
7
100
AcDbSpline
 70
8
 71
3
 72
8
 73
4
 74
0
 40
0
 40
0
 40
0
 40
0
 40
1
 40
1
 40
1
 40
1
 10
8.128363
 20
7.237228
 30
0.0
 10
8.101153
 20
7.235628
 30
0.0
 10
7.259193
 20
7.230228
 30
0.0
 10
7.249247
 20
7.230428
 30
0.0
  0
SPLINE
  5
1b8
100
AcDbEntity
  8
Layer_1
 62
7
100
AcDbSpline
 70
8
 71
3
 72
8
 73
4
 74
0
 40
0
 40
0
 40
0
 40
0
 40
1
 40
1
 40
1
 40
1
 10
7.249247
 20
7.230428
 30
0.0
 10
7.222877
 20
7.231132
 30
0.0
 10
7.175717
 20
7.258998
 30
0.0
 10
7.175717
 20
7.258998
 30
0.0
  0
LWPOLYLINE
  5
1b9
100
AcDbEntity
  8
Layer_1
 62
7
100
AcDbPolyline
 90
9
 70
0
 10
8.260443
 20
8.082993
 30
0.0
 10
8.278403
 20
8.045823
 30
0.0
 10
8.293273
 20
7.999073
 30
0.0
 10
8.299473
 20
7.959233
 30
0.0
 10
8.299473
 20
7.447248
 30
0.0
 10
8.289673
 20
7.393988
 30
0.0
 10
8.273963
 20
7.349918
 30
0.0
 10
8.246193
 20
7.307758
 30
0.0
 10
8.197493
 20
7.268278
 30
0.0
  0
SPLINE
  5
1ba
100
AcDbEntity
  8
Layer_1
 62
7
100
AcDbSpline
 70
8
 71
3
 72
8
 73
4
 74
0
 40
0
 40
0
 40
0
 40
0
 40
1
 40
1
 40
1
 40
1
 10
7.201557
 20
8.197791
 30
0.0
 10
7.228487
 20
8.209621
 30
0.0
 10
8.050587
 20
8.207691
 30
0.0
 10
8.053810
 20
8.207691
 30
0.0
  0
SPLINE
  5
1bb
100
AcDbEntity
  8
Layer_1
 62
7
100
AcDbSpline
 70
8
 71
3
 72
8
 73
4
 74
0
 40
0
 40
0
 40
0
 40
0
 40
1
 40
1
 40
1
 40
1
 10
8.053810
 20
8.207691
 30
0.0
 10
8.057210
 20
8.207581
 30
0.0
 10
8.077940
 20
8.204891
 30
0.0
 10
8.077940
 20
8.204891
 30
0.0
  0
LWPOLYLINE
  5
1bc
100
AcDbEntity
  8
Layer_1
 62
7
100
AcDbPolyline
 90
12
 70
0
 10
7.175717
 20
7.258998
 30
0.0
 10
7.128977
 20
7.294108
 30
0.0
 10
7.092787
 20
7.330008
 30
0.0
 10
7.061537
 20
7.372448
 30
0.0
 10
7.042737
 20
7.425568
 30
0.0
 10
7.050337
 20
7.984171
 30
0.0
 10
7.058237
 20
8.035821
 30
0.0
 10
7.079277
 20
8.080261
 30
0.0
 10
7.095267
 20
8.109821
 30
0.0
 10
7.123317
 20
8.140421
 30
0.0
 10
7.157207
 20
8.178351
 30
0.0
 10
7.201557
 20
8.197791
 30
0.0
  0
LWPOLYLINE
  5
1bd
100
AcDbEntity
  8
Layer_1
 62
7
100
AcDbPolyline
 90
2
 70
0
 10
8.077940
 20
8.204891
 30
0.0
 10
8.106363
 20
8.196843
 30
0.0
  0
SPLINE
  5
1be
100
AcDbEntity
  8
Layer_1
 62
7
100
AcDbSpline
 70
8
 71
3
 72
8
 73
4
 74
0
 40
0
 40
0
 40
0
 40
0
 40
1
 40
1
 40
1
 40
1
 10
8.071812
 20
8.017135
 30
0.0
 10
8.071812
 20
8.017135
 30
0.0
 10
8.083592
 20
8.006145
 30
0.0
 10
8.090612
 20
7.999665
 30
0.0
  0
SPLINE
  5
1bf
100
AcDbEntity
  8
Layer_1
 62
7
100
AcDbSpline
 70
8
 71
3
 72
8
 73
4
 74
0
 40
0
 40
0
 40
0
 40
0
 40
1
 40
1
 40
1
 40
1
 10
8.090612
 20
7.999665
 30
0.0
 10
8.097612
 20
7.992865
 30
0.0
 10
8.114742
 20
7.967795
 30
0.0
 10
8.114742
 20
7.967795
 30
0.0
  0
LWPOLYLINE
  5
1c0
100
AcDbEntity
  8
Layer_1
 62
7
100
AcDbPolyline
 90
4
 70
0
 10
7.999712
 20
8.050945
 30
0.0
 10
8.027482
 20
8.040805
 30
0.0
 10
8.052732
 20
8.028405
 30
0.0
 10
8.071812
 20
8.017135
 30
0.0
  0
SPLINE
  5
1c1
100
AcDbEntity
  8
Layer_1
 62
7
100
AcDbSpline
 70
8
 71
3
 72
8
 73
4
 74
0
 40
0
 40
0
 40
0
 40
0
 40
1
 40
1
 40
1
 40
1
 10
8.067982
 20
7.373582
 30
0.0
 10
8.067982
 20
7.373582
 30
0.0
 10
8.035242
 20
7.351882
 30
0.0
 10
8.016302
 20
7.351042
 30
0.0
  0
SPLINE
  5
1c2
100
AcDbEntity
  8
Layer_1
 62
7
100
AcDbSpline
 70
8
 71
3
 72
8
 73
4
 74
0
 40
0
 40
0
 40
0
 40
0
 40
1
 40
1
 40
1
 40
1
 10
8.016302
 20
7.351042
 30
0.0
 10
7.996102
 20
7.349942
 30
0.0
 10
7.366517
 20
7.345942
 30
0.0
 10
7.359083
 20
7.346242
 30
0.0
  0
SPLINE
  5
1c3
100
AcDbEntity
  8
Layer_1
 62
7
100
AcDbSpline
 70
8
 71
3
 72
8
 73
4
 74
0
 40
0
 40
0
 40
0
 40
0
 40
1
 40
1
 40
1
 40
1
 10
7.359083
 20
7.346242
 30
0.0
 10
7.339443
 20
7.346797
 30
0.0
 10
7.304123
 20
7.367092
 30
0.0
 10
7.304123
 20
7.367092
 30
0.0
  0
LWPOLYLINE
  5
1c4
100
AcDbEntity
  8
Layer_1
 62
7
100
AcDbPolyline
 90
9
 70
0
 10
8.114742
 20
7.967795
 30
0.0
 10
8.128212
 20
7.940745
 30
0.0
 10
8.139432
 20
7.906645
 30
0.0
 10
8.144232
 20
7.877565
 30
0.0
 10
8.144232
 20
7.504132
 30
0.0
 10
8.136932
 20
7.465272
 30
0.0
 10
8.125152
 20
7.433122
 30
0.0
 10
8.104392
 20
7.402382
 30
0.0
 10
8.067982
 20
7.373582
 30
0.0
  0
SPLINE
  5
1c5
100
AcDbEntity
  8
Layer_1
 62
7
100
AcDbSpline
 70
8
 71
3
 72
8
 73
4
 74
0
 40
0
 40
0
 40
0
 40
0
 40
1
 40
1
 40
1
 40
1
 10
7.323083
 20
8.052092
 30
0.0
 10
7.343283
 20
8.060792
 30
0.0
 10
7.957814
 20
8.059392
 30
0.0
 10
7.960223
 20
8.059392
 30
0.0
  0
SPLINE
  5
1c6
100
AcDbEntity
  8
Layer_1
 62
7
100
AcDbSpline
 70
8
 71
3
 72
8
 73
4
 74
0
 40
0
 40
0
 40
0
 40
0
 40
1
 40
1
 40
1
 40
1
 10
7.960223
 20
8.059392
 30
0.0
 10
7.962623
 20
8.059311
 30
0.0
 10
7.978183
 20
8.057192
 30
0.0
 10
7.978183
 20
8.057192
 30
0.0
  0
LWPOLYLINE
  5
1c7
100
AcDbEntity
  8
Layer_1
 62
7
100
AcDbPolyline
 90
12
 70
0
 10
7.304123
 20
7.367092
 30
0.0
 10
7.269163
 20
7.392732
 30
0.0
 10
7.242233
 20
7.418942
 30
0.0
 10
7.218953
 20
7.449882
 30
0.0
 10
7.204923
 20
7.488632
 30
0.0
 10
7.210523
 20
7.896062
 30
0.0
 10
7.216423
 20
7.933742
 30
0.0
 10
7.232133
 20
7.966152
 30
0.0
 10
7.243913
 20
7.987852
 30
0.0
 10
7.264673
 20
8.010112
 30
0.0
 10
7.289923
 20
8.037722
 30
0.0
 10
7.323083
 20
8.052092
 30
0.0
  0
LWPOLYLINE
  5
1c8
100
AcDbEntity
  8
Layer_1
 62
7
100
AcDbPolyline
 90
2
 70
0
 10
7.978183
 20
8.057192
 30
0.0
 10
7.999712
 20
8.050945
 30
0.0
  0
SPLINE
  5
1c9
100
AcDbEntity
  8
Layer_1
 62
7
100
AcDbSpline
 70
8
 71
3
 72
8
 73
4
 74
0
 40
0
 40
0
 40
0
 40
0
 40
1
 40
1
 40
1
 40
1
 10
12.429124
 20
7.420715
 30
0.0
 10
12.429124
 20
7.420715
 30
0.0
 10
12.361964
 20
7.450615
 30
0.0
 10
12.360394
 20
7.450975
 30
0.0
  0
SPLINE
  5
1ca
100
AcDbEntity
  8
Layer_1
 62
7
100
AcDbSpline
 70
8
 71
3
 72
8
 73
4
 74
0
 40
0
 40
0
 40
0
 40
0
 40
1
 40
1
 40
1
 40
1
 10
12.360394
 20
7.450975
 30
0.0
 10
12.358794
 20
7.451344
 30
0.0
 10
12.316794
 20
7.483155
 30
0.0
 10
12.316794
 20
7.483155
 30
0.0
  0
SPLINE
  5
1cb
100
AcDbEntity
  8
Layer_1
 62
7
100
AcDbSpline
 70
8
 71
3
 72
8
 73
4
 74
0
 40
0
 40
0
 40
0
 40
0
 40
1
 40
1
 40
1
 40
1
 10
12.316794
 20
7.483155
 30
0.0
 10
12.316794
 20
7.483155
 30
0.0
 10
12.276344
 20
7.518045
 30
0.0
 10
12.274764
 20
7.519165
 30
0.0
  0
SPLINE
  5
1cc
100
AcDbEntity
  8
Layer_1
 62
7
100
AcDbSpline
 70
8
 71
3
 72
8
 73
4
 74
0
 40
0
 40
0
 40
0
 40
0
 40
1
 40
1
 40
1
 40
1
 10
12.274764
 20
7.519165
 30
0.0
 10
12.273164
 20
7.520265
 30
0.0
 10
12.242164
 20
7.549425
 30
0.0
 10
12.242164
 20
7.549425
 30
0.0
  0
LWPOLYLINE
  5
1cd
100
AcDbEntity
  8
Layer_1
 62
7
100
AcDbPolyline
 90
22
 70
0
 10
10.287713
 20
8.740047
 30
0.0
 10
12.498874
 20
8.743747
 30
0.0
 10
12.549314
 20
8.734147
 30
0.0
 10
12.612604
 20
8.715547
 30
0.0
 10
12.674124
 20
8.684237
 30
0.0
 10
12.724344
 20
8.641857
 30
0.0
 10
12.757584
 20
8.616777
 30
0.0
 10
12.783954
 20
8.583667
 30
0.0
 10
12.806964
 20
8.557747
 30
0.0
 10
12.841584
 20
8.508097
 30
0.0
 10
12.863184
 20
8.455117
 30
0.0
 10
12.880294
 20
8.417437
 30
0.0
 10
12.891234
 20
8.382187
 30
0.0
 10
12.901034
 20
7.745275
 30
0.0
 10
12.896834
 20
7.689705
 30
0.0
 10
12.869064
 20
7.620325
 30
0.0
 10
12.852514
 20
7.588515
 30
0.0
 10
12.810884
 20
7.526435
 30
0.0
 10
12.777504
 20
7.488115
 30
0.0
 10
12.726444
 20
7.453625
 30
0.0
 10
12.672244
 20
7.421815
 30
0.0
 10
12.429124
 20
7.420715
 30
0.0
  0
SPLINE
  5
1ce
100
AcDbEntity
  8
Layer_1
 62
7
100
AcDbSpline
 70
8
 71
3
 72
8
 73
4
 74
0
 40
0
 40
0
 40
0
 40
0
 40
1
 40
1
 40
1
 40
1
 10
12.220284
 20
7.594255
 30
0.0
 10
12.220284
 20
7.594255
 30
0.0
 10
12.198404
 20
7.638725
 30
0.0
 10
12.197554
 20
7.642555
 30
0.0
  0
SPLINE
  5
1cf
100
AcDbEntity
  8
Layer_1
 62
7
100
AcDbSpline
 70
8
 71
3
 72
8
 73
4
 74
0
 40
0
 40
0
 40
0
 40
0
 40
1
 40
1
 40
1
 40
1
 10
12.197554
 20
7.642555
 30
0.0
 10
12.196755
 20
7.646455
 30
0.0
 10
12.176234
 20
7.974043
 30
0.0
 10
12.176234
 20
7.974043
 30
0.0
  0
LWPOLYLINE
  5
1d0
100
AcDbEntity
  8
Layer_1
 62
7
100
AcDbPolyline
 90
2
 70
0
 10
12.242164
 20
7.549425
 30
0.0
 10
12.220284
 20
7.594255
 30
0.0
  0
SPLINE
  5
1d1
100
AcDbEntity
  8
Layer_1
 62
7
100
AcDbSpline
 70
8
 71
3
 72
8
 73
4
 74
0
 40
0
 40
0
 40
0
 40
0
 40
1
 40
1
 40
1
 40
1
 10
12.165294
 20
8.005093
 30
0.0
 10
12.165294
 20
8.005093
 30
0.0
 10
12.150424
 20
8.020873
 30
0.0
 10
12.147904
 20
8.022003
 30
0.0
  0
SPLINE
  5
1d2
100
AcDbEntity
  8
Layer_1
 62
7
100
AcDbSpline
 70
8
 71
3
 72
8
 73
4
 74
0
 40
0
 40
0
 40
0
 40
0
 40
1
 40
1
 40
1
 40
1
 10
12.147904
 20
8.022003
 30
0.0
 10
12.145504
 20
8.023103
 30
0.0
 10
12.126304
 20
8.032433
 30
0.0
 10
12.126304
 20
8.032433
 30
0.0
  0
LWPOLYLINE
  5
1d3
100
AcDbEntity
  8
Layer_1
 62
7
100
AcDbPolyline
 90
2
 70
0
 10
12.176234
 20
7.974043
 30
0.0
 10
12.165294
 20
8.005093
 30
0.0
  0
SPLINE
  5
1d4
100
AcDbEntity
  8
Layer_1
 62
7
100
AcDbSpline
 70
8
 71
3
 72
8
 73
4
 74
0
 40
0
 40
0
 40
0
 40
0
 40
1
 40
1
 40
1
 40
1
 10
10.727530
 20
8.028572
 30
0.0
 10
10.727530
 20
8.028572
 30
0.0
 10
10.716870
 20
8.019272
 30
0.0
 10
10.709860
 20
8.014482
 30
0.0
  0
SPLINE
  5
1d5
100
AcDbEntity
  8
Layer_1
 62
7
100
AcDbSpline
 70
8
 71
3
 72
8
 73
4
 74
0
 40
0
 40
0
 40
0
 40
0
 40
1
 40
1
 40
1
 40
1
 10
10.709860
 20
8.014482
 30
0.0
 10
10.704560
 20
8.010782
 30
0.0
 10
10.697240
 20
8.004052
 30
0.0
 10
10.693030
 20
7.999262
 30
0.0
  0
SPLINE
  5
1d6
100
AcDbEntity
  8
Layer_1
 62
7
100
AcDbSpline
 70
8
 71
3
 72
8
 73
4
 74
0
 40
0
 40
0
 40
0
 40
0
 40
1
 40
1
 40
1
 40
1
 10
10.693030
 20
7.999262
 30
0.0
 10
10.688230
 20
7.993662
 30
0.0
 10
10.677040
 20
7.978692
 30
0.0
 10
10.677040
 20
7.978692
 30
0.0
  0
SPLINE
  5
1d7
100
AcDbEntity
  8
Layer_1
 62
7
100
AcDbSpline
 70
8
 71
3
 72
8
 73
4
 74
0
 40
0
 40
0
 40
0
 40
0
 40
1
 40
1
 40
1
 40
1
 10
10.677040
 20
7.978692
 30
0.0
 10
10.677040
 20
7.978692
 30
0.0
 10
10.668040
 20
7.950342
 30
0.0
 10
10.668040
 20
7.948792
 30
0.0
  0
SPLINE
  5
1d8
100
AcDbEntity
  8
Layer_1
 62
7
100
AcDbSpline
 70
8
 71
3
 72
8
 73
4
 74
0
 40
0
 40
0
 40
0
 40
0
 40
1
 40
1
 40
1
 40
1
 10
10.668040
 20
7.948792
 30
0.0
 10
10.668040
 20
7.947292
 30
0.0
 10
10.663240
 20
7.916982
 30
0.0
 10
10.663240
 20
7.916982
 30
0.0
  0
LWPOLYLINE
  5
1d9
100
AcDbEntity
  8
Layer_1
 62
7
100
AcDbPolyline
 90
5
 70
0
 10
12.126304
 20
8.032433
 30
0.0
 10
12.105824
 20
8.037533
 30
0.0
 10
12.046904
 20
8.036752
 30
0.0
 10
10.752780
 20
8.041252
 30
0.0
 10
10.727530
 20
8.028572
 30
0.0
  0
SPLINE
  5
1da
100
AcDbEntity
  8
Layer_1
 62
7
100
AcDbSpline
 70
8
 71
3
 72
8
 73
4
 74
0
 40
0
 40
0
 40
0
 40
0
 40
1
 40
1
 40
1
 40
1
 10
11.109620
 20
5.713124
 30
0.0
 10
11.109620
 20
5.713124
 30
0.0
 10
12.084407
 20
5.712946
 30
0.0
 10
12.090663
 20
5.714524
 30
0.0
  0
SPLINE
  5
1db
100
AcDbEntity
  8
Layer_1
 62
7
100
AcDbSpline
 70
8
 71
3
 72
8
 73
4
 74
0
 40
0
 40
0
 40
0
 40
0
 40
1
 40
1
 40
1
 40
1
 10
12.090663
 20
5.714524
 30
0.0
 10
12.096863
 20
5.716124
 30
0.0
 10
12.131563
 20
5.744534
 30
0.0
 10
12.131563
 20
5.744534
 30
0.0
  0
LWPOLYLINE
  5
1dc
100
AcDbEntity
  8
Layer_1
 62
7
100
AcDbPolyline
 90
20
 70
0
 10
10.663240
 20
7.916982
 30
0.0
 10
10.661240
 20
7.886322
 30
0.0
 10
10.661240
 20
7.473588
 30
0.0
 10
10.674140
 20
7.444878
 30
0.0
 10
10.707080
 20
7.425718
 30
0.0
 10
10.761370
 20
7.396018
 30
0.0
 10
10.853750
 20
7.346788
 30
0.0
 10
10.898920
 20
7.317288
 30
0.0
 10
10.924170
 20
7.293058
 30
0.0
 10
10.944090
 20
7.272768
 30
0.0
 10
10.970740
 20
7.236758
 30
0.0
 10
10.999800
 20
7.192288
 30
0.0
 10
11.014670
 20
7.157798
 30
0.0
 10
11.024170
 20
7.126378
 30
0.0
 10
11.030370
 20
7.105808
 30
0.0
 10
11.030370
 20
5.808214
 30
0.0
 10
11.031970
 20
5.778094
 30
0.0
 10
11.047120
 20
5.742954
 30
0.0
 10
11.074330
 20
5.720124
 30
0.0
 10
11.109620
 20
5.713124
 30
0.0
  0
SPLINE
  5
1dd
100
AcDbEntity
  8
Layer_1
 62
7
100
AcDbSpline
 70
8
 71
3
 72
8
 73
4
 74
0
 40
0
 40
0
 40
0
 40
0
 40
1
 40
1
 40
1
 40
1
 10
11.774912
 20
6.702473
 30
0.0
 10
11.774912
 20
6.702473
 30
0.0
 10
11.709712
 20
6.722483
 30
0.0
 10
11.705002
 20
6.726993
 30
0.0
  0
SPLINE
  5
1de
100
AcDbEntity
  8
Layer_1
 62
7
100
AcDbSpline
 70
8
 71
3
 72
8
 73
4
 74
0
 40
0
 40
0
 40
0
 40
0
 40
1
 40
1
 40
1
 40
1
 10
11.705002
 20
6.726993
 30
0.0
 10
11.700202
 20
6.731493
 30
0.0
 10
11.664942
 20
6.756893
 30
0.0
 10
11.664942
 20
6.756893
 30
0.0
  0
LWPOLYLINE
  5
1df
100
AcDbEntity
  8
Layer_1
 62
7
100
AcDbPolyline
 90
9
 70
0
 10
12.131563
 20
5.744534
 30
0.0
 10
12.151203
 20
5.775954
 30
0.0
 10
12.162983
 20
5.808924
 30
0.0
 10
12.159083
 20
6.590703
 30
0.0
 10
12.150383
 20
6.623643
 30
0.0
 10
12.112683
 20
6.660443
 30
0.0
 10
12.060053
 20
6.677353
 30
0.0
 10
11.870742
 20
6.687253
 30
0.0
 10
11.774912
 20
6.702473
 30
0.0
  0
SPLINE
  5
1e0
100
AcDbEntity
  8
Layer_1
 62
7
100
AcDbSpline
 70
8
 71
3
 72
8
 73
4
 74
0
 40
0
 40
0
 40
0
 40
0
 40
1
 40
1
 40
1
 40
1
 10
12.782611
 20
5.149443
 30
0.0
 10
12.782611
 20
5.149443
 30
0.0
 10
12.753211
 20
5.121543
 30
0.0
 10
12.748781
 20
5.114953
 30
0.0
  0
SPLINE
  5
1e1
100
AcDbEntity
  8
Layer_1
 62
7
100
AcDbSpline
 70
8
 71
3
 72
8
 73
4
 74
0
 40
0
 40
0
 40
0
 40
0
 40
1
 40
1
 40
1
 40
1
 10
12.748781
 20
5.114953
 30
0.0
 10
12.744281
 20
5.108453
 30
0.0
 10
12.704821
 20
5.081253
 30
0.0
 10
12.704821
 20
5.081253
 30
0.0
  0
SPLINE
  5
1e2
100
AcDbEntity
  8
Layer_1
 62
7
100
AcDbSpline
 70
8
 71
3
 72
8
 73
4
 74
0
 40
0
 40
0
 40
0
 40
0
 40
1
 40
1
 40
1
 40
1
 10
12.704821
 20
5.081253
 30
0.0
 10
12.704821
 20
5.081253
 30
0.0
 10
12.672891
 20
5.058423
 30
0.0
 10
12.655281
 20
5.049833
 30
0.0
  0
SPLINE
  5
1e3
100
AcDbEntity
  8
Layer_1
 62
7
100
AcDbSpline
 70
8
 71
3
 72
8
 73
4
 74
0
 40
0
 40
0
 40
0
 40
0
 40
1
 40
1
 40
1
 40
1
 10
12.655281
 20
5.049833
 30
0.0
 10
12.639851
 20
5.042233
 30
0.0
 10
12.622621
 20
5.038563
 30
0.0
 10
12.606411
 20
5.032643
 30
0.0
  0
SPLINE
  5
1e4
100
AcDbEntity
  8
Layer_1
 62
7
100
AcDbSpline
 70
8
 71
3
 72
8
 73
4
 74
0
 40
0
 40
0
 40
0
 40
0
 40
1
 40
1
 40
1
 40
1
 10
12.606411
 20
5.032643
 30
0.0
 10
12.589301
 20
5.026143
 30
0.0
 10
12.554931
 20
5.012913
 30
0.0
 10
12.554931
 20
5.012913
 30
0.0
  0
LWPOLYLINE
  5
1e5
100
AcDbEntity
  8
Layer_1
 62
7
100
AcDbPolyline
 90
33
 70
0
 10
11.664942
 20
6.756893
 30
0.0
 10
11.621742
 20
6.782813
 30
0.0
 10
11.595092
 20
6.818823
 30
0.0
 10
11.563672
 20
6.857903
 30
0.0
 10
11.529112
 20
6.946803
 30
0.0
 10
11.520412
 20
7.073269
 30
0.0
 10
11.542292
 20
7.145319
 30
0.0
 10
11.554912
 20
7.185949
 30
0.0
 10
11.577632
 20
7.225029
 30
0.0
 10
11.613762
 20
7.263349
 30
0.0
 10
11.663252
 20
7.307029
 30
0.0
 10
11.709602
 20
7.337689
 30
0.0
 10
11.757522
 20
7.365299
 30
0.0
 10
11.799942
 20
7.378259
 30
0.0
 10
12.495901
 20
7.382159
 30
0.0
 10
12.565031
 20
7.372859
 30
0.0
 10
12.601161
 20
7.362149
 30
0.0
 10
12.650651
 20
7.343829
 30
0.0
 10
12.697001
 20
7.308579
 30
0.0
 10
12.740201
 20
7.274849
 30
0.0
 10
12.766011
 20
7.254839
 30
0.0
 10
12.780041
 20
7.233419
 30
0.0
 10
12.806691
 20
7.203519
 30
0.0
 10
12.829411
 20
7.170579
 30
0.0
 10
12.847371
 20
7.129189
 30
0.0
 10
12.873181
 20
7.067109
 30
0.0
 10
12.883841
 20
7.017459
 30
0.0
 10
12.889441
 20
5.356473
 30
0.0
 10
12.875691
 20
5.314093
 30
0.0
 10
12.853251
 20
5.271173
 30
0.0
 10
12.835581
 20
5.227753
 30
0.0
 10
12.815941
 20
5.192813
 30
0.0
 10
12.782611
 20
5.149443
 30
0.0
  0
SPLINE
  5
1e6
100
AcDbEntity
  8
Layer_1
 62
7
100
AcDbSpline
 70
8
 71
3
 72
8
 73
4
 74
0
 40
0
 40
0
 40
0
 40
0
 40
1
 40
1
 40
1
 40
1
 10
10.030930
 20
5.168523
 30
0.0
 10
10.030930
 20
5.168523
 30
0.0
 10
10.002850
 20
5.211383
 30
0.0
 10
9.999510
 20
5.216793
 30
0.0
  0
SPLINE
  5
1e7
100
AcDbEntity
  8
Layer_1
 62
7
100
AcDbSpline
 70
8
 71
3
 72
8
 73
4
 74
0
 40
0
 40
0
 40
0
 40
0
 40
1
 40
1
 40
1
 40
1
 10
9.999510
 20
5.216793
 30
0.0
 10
9.996110
 20
5.222193
 30
0.0
 10
9.973420
 20
5.265513
 30
0.0
 10
9.972300
 20
5.269823
 30
0.0
  0
SPLINE
  5
1e8
100
AcDbEntity
  8
Layer_1
 62
7
100
AcDbSpline
 70
8
 71
3
 72
8
 73
4
 74
0
 40
0
 40
0
 40
0
 40
0
 40
1
 40
1
 40
1
 40
1
 10
9.972300
 20
5.269823
 30
0.0
 10
9.971200
 20
5.274023
 30
0.0
 10
9.940010
 20
5.337733
 30
0.0
 10
9.938890
 20
5.343143
 30
0.0
  0
SPLINE
  5
1e9
100
AcDbEntity
  8
Layer_1
 62
7
100
AcDbSpline
 70
8
 71
3
 72
8
 73
4
 74
0
 40
0
 40
0
 40
0
 40
0
 40
1
 40
1
 40
1
 40
1
 10
9.938890
 20
5.343143
 30
0.0
 10
9.937790
 20
5.348543
 30
0.0
 10
9.928790
 20
5.419283
 30
0.0
 10
9.928790
 20
5.419283
 30
0.0
  0
LWPOLYLINE
  5
1ea
100
AcDbEntity
  8
Layer_1
 62
7
100
AcDbPolyline
 90
7
 70
0
 10
12.554931
 20
5.012913
 30
0.0
 10
10.322080
 20
5.012913
 30
0.0
 10
10.244200
 20
5.026433
 30
0.0
 10
10.166460
 20
5.057603
 30
0.0
 10
10.117790
 20
5.088603
 30
0.0
 10
10.059940
 20
5.135213
 30
0.0
 10
10.030930
 20
5.168523
 30
0.0
  0
LWPOLYLINE
  5
1eb
100
AcDbEntity
  8
Layer_1
 62
7
100
AcDbPolyline
 90
11
 70
0
 10
9.928790
 20
5.419283
 30
0.0
 10
9.944220
 20
8.400065
 30
0.0
 10
9.960770
 20
8.468905
 30
0.0
 10
9.976200
 20
8.517145
 30
0.0
 10
10.003410
 20
8.557245
 30
0.0
 10
10.045070
 20
8.607095
 30
0.0
 10
10.088390
 20
8.650465
 30
0.0
 10
10.134400
 20
8.683095
 30
0.0
 10
10.171010
 20
8.701415
 30
0.0
 10
10.215450
 20
8.720015
 30
0.0
 10
10.287713
 20
8.740047
 30
0.0
  0
SPLINE
  5
1ec
100
AcDbEntity
  8
Layer_1
 62
7
100
AcDbSpline
 70
8
 71
3
 72
8
 73
4
 74
0
 40
0
 40
0
 40
0
 40
0
 40
1
 40
1
 40
1
 40
1
 10
12.350888
 20
8.001231
 30
0.0
 10
12.350888
 20
8.001231
 30
0.0
 10
12.328168
 20
8.064071
 30
0.0
 10
12.324238
 20
8.066381
 30
0.0
  0
SPLINE
  5
1ed
100
AcDbEntity
  8
Layer_1
 62
7
100
AcDbSpline
 70
8
 71
3
 72
8
 73
4
 74
0
 40
0
 40
0
 40
0
 40
0
 40
1
 40
1
 40
1
 40
1
 10
12.324238
 20
8.066381
 30
0.0
 10
12.320338
 20
8.068681
 30
0.0
 10
12.307688
 20
8.097801
 30
0.0
 10
12.296748
 20
8.108541
 30
0.0
  0
SPLINE
  5
1ee
100
AcDbEntity
  8
Layer_1
 62
7
100
AcDbSpline
 70
8
 71
3
 72
8
 73
4
 74
0
 40
0
 40
0
 40
0
 40
0
 40
1
 40
1
 40
1
 40
1
 10
12.296748
 20
8.108541
 30
0.0
 10
12.285808
 20
8.119251
 30
0.0
 10
12.267688
 20
8.138441
 30
0.0
 10
12.259828
 20
8.144551
 30
0.0
  0
SPLINE
  5
1ef
100
AcDbEntity
  8
Layer_1
 62
7
100
AcDbSpline
 70
8
 71
3
 72
8
 73
4
 74
0
 40
0
 40
0
 40
0
 40
0
 40
1
 40
1
 40
1
 40
1
 10
12.259828
 20
8.144551
 30
0.0
 10
12.251928
 20
8.150751
 30
0.0
 10
12.232338
 20
8.168221
 30
0.0
 10
12.232338
 20
8.168221
 30
0.0
  0
LWPOLYLINE
  5
1f0
100
AcDbEntity
  8
Layer_1
 62
7
100
AcDbPolyline
 90
23
 70
0
 10
10.371910
 20
8.580029
 30
0.0
 10
12.435911
 20
8.573529
 30
0.0
 10
12.487001
 20
8.564829
 30
0.0
 10
12.542551
 20
8.555529
 30
0.0
 10
12.598101
 20
8.532699
 30
0.0
 10
12.643101
 20
8.496939
 30
0.0
 10
12.666951
 20
8.460079
 30
0.0
 10
12.689671
 20
8.416709
 30
0.0
 10
12.705101
 20
8.371199
 30
0.0
 10
12.716321
 20
8.338149
 30
0.0
 10
12.726981
 20
8.293709
 30
0.0
 10
12.728081
 20
7.754459
 30
0.0
 10
12.719081
 20
7.707399
 30
0.0
 10
12.699161
 20
7.667779
 30
0.0
 10
12.680081
 20
7.642139
 30
0.0
 10
12.647311
 20
7.610779
 30
0.0
 10
12.622061
 20
7.587389
 30
0.0
 10
12.468098
 20
7.587389
 30
0.0
 10
12.441448
 20
7.607399
 30
0.0
 10
12.416198
 20
7.633319
 30
0.0
 10
12.383988
 20
7.666289
 30
0.0
 10
12.362668
 20
7.707679
 30
0.0
 10
12.350888
 20
8.001231
 30
0.0
  0
SPLINE
  5
1f1
100
AcDbEntity
  8
Layer_1
 62
7
100
AcDbSpline
 70
8
 71
3
 72
8
 73
4
 74
0
 40
0
 40
0
 40
0
 40
0
 40
1
 40
1
 40
1
 40
1
 10
12.306572
 20
6.719138
 30
0.0
 10
12.306572
 20
6.719138
 30
0.0
 10
12.293102
 20
6.740838
 30
0.0
 10
12.290022
 20
6.746188
 30
0.0
  0
SPLINE
  5
1f2
100
AcDbEntity
  8
Layer_1
 62
7
100
AcDbSpline
 70
8
 71
3
 72
8
 73
4
 74
0
 40
0
 40
0
 40
0
 40
0
 40
1
 40
1
 40
1
 40
1
 10
12.290022
 20
6.746188
 30
0.0
 10
12.286622
 20
6.751588
 30
0.0
 10
12.262252
 20
6.784118
 30
0.0
 10
12.262252
 20
6.784118
 30
0.0
  0
LWPOLYLINE
  5
1f3
100
AcDbEntity
  8
Layer_1
 62
7
100
AcDbPolyline
 90
38
 70
0
 10
12.232338
 20
8.168221
 30
0.0
 10
12.191488
 20
8.188231
 30
0.0
 10
12.157708
 20
8.195031
 30
0.0
 10
10.681562
 20
8.195031
 30
0.0
 10
10.628232
 20
8.182911
 30
0.0
 10
10.582672
 20
8.150391
 30
0.0
 10
10.558262
 20
8.124461
 30
0.0
 10
10.534972
 20
8.098541
 30
0.0
 10
10.511692
 20
8.070361
 30
0.0
 10
10.500472
 20
8.034601
 30
0.0
 10
10.500472
 20
7.395336
 30
0.0
 10
10.512812
 20
7.347656
 30
0.0
 10
10.543922
 20
7.320606
 30
0.0
 10
10.573632
 20
7.289106
 30
0.0
 10
10.618772
 20
7.264306
 30
0.0
 10
10.663352
 20
7.240636
 30
0.0
 10
10.713542
 20
7.214996
 30
0.0
 10
10.754442
 20
7.198376
 30
0.0
 10
10.783842
 20
7.178656
 30
0.0
 10
10.808252
 20
7.152726
 30
0.0
 10
10.837682
 20
7.114456
 30
0.0
 10
10.859002
 20
7.059336
 30
0.0
 10
10.857402
 20
5.816440
 30
0.0
 10
10.865302
 20
5.741570
 30
0.0
 10
10.886622
 20
5.695920
 30
0.0
 10
10.912432
 20
5.651480
 30
0.0
 10
10.964642
 20
5.599460
 30
0.0
 10
11.022402
 20
5.565870
 30
0.0
 10
11.060162
 20
5.550650
 30
0.0
 10
12.126602
 20
5.550650
 30
0.0
 10
12.185432
 20
5.556850
 30
0.0
 10
12.227402
 20
5.574600
 30
0.0
 10
12.258882
 20
5.605850
 30
0.0
 10
12.294512
 20
5.649220
 30
0.0
 10
12.314152
 20
5.693350
 30
0.0
 10
12.340242
 20
5.758330
 30
0.0
 10
12.335442
 20
6.668188
 30
0.0
 10
12.306572
 20
6.719138
 30
0.0
  0
SPLINE
  5
1f4
100
AcDbEntity
  8
Layer_1
 62
7
100
AcDbSpline
 70
8
 71
3
 72
8
 73
4
 74
0
 40
0
 40
0
 40
0
 40
0
 40
1
 40
1
 40
1
 40
1
 10
12.458925
 20
7.213211
 30
0.0
 10
12.476595
 20
7.213211
 30
0.0
 10
12.535565
 20
7.202501
 30
0.0
 10
12.535565
 20
7.202501
 30
0.0
  0
LWPOLYLINE
  5
1f5
100
AcDbEntity
  8
Layer_1
 62
7
100
AcDbPolyline
 90
17
 70
0
 10
12.262252
 20
6.784118
 30
0.0
 10
12.240092
 20
6.795948
 30
0.0
 10
12.203422
 20
6.818768
 30
0.0
 10
12.157862
 20
6.836238
 30
0.0
 10
11.890223
 20
6.859908
 30
0.0
 10
11.836803
 20
6.862208
 30
0.0
 10
11.794243
 20
6.872108
 30
0.0
 10
11.765183
 20
6.883938
 30
0.0
 10
11.719653
 20
6.922518
 30
0.0
 10
11.698053
 20
6.962898
 30
0.0
 10
11.698053
 20
7.087561
 30
0.0
 10
11.725823
 20
7.130931
 30
0.0
 10
11.745743
 20
7.153751
 30
0.0
 10
11.779073
 20
7.179681
 30
0.0
 10
11.814613
 20
7.200251
 30
0.0
 10
11.845723
 20
7.213211
 30
0.0
 10
12.458925
 20
7.213211
 30
0.0
  0
SPLINE
  5
1f6
100
AcDbEntity
  8
Layer_1
 62
7
100
AcDbSpline
 70
8
 71
3
 72
8
 73
4
 74
0
 40
0
 40
0
 40
0
 40
0
 40
1
 40
1
 40
1
 40
1
 10
10.116955
 20
8.352912
 30
0.0
 10
10.116955
 20
8.352912
 30
0.0
 10
10.123955
 20
8.389742
 30
0.0
 10
10.129855
 20
8.405182
 30
0.0
  0
SPLINE
  5
1f7
100
AcDbEntity
  8
Layer_1
 62
7
100
AcDbSpline
 70
8
 71
3
 72
8
 73
4
 74
0
 40
0
 40
0
 40
0
 40
0
 40
1
 40
1
 40
1
 40
1
 10
10.129855
 20
8.405182
 30
0.0
 10
10.129855
 20
8.405182
 30
0.0
 10
10.139655
 20
8.434772
 30
0.0
 10
10.146405
 20
8.448862
 30
0.0
  0
SPLINE
  5
1f8
100
AcDbEntity
  8
Layer_1
 62
7
100
AcDbSpline
 70
8
 71
3
 72
8
 73
4
 74
0
 40
0
 40
0
 40
0
 40
0
 40
1
 40
1
 40
1
 40
1
 10
10.146405
 20
8.448862
 30
0.0
 10
10.152605
 20
8.462102
 30
0.0
 10
10.172215
 20
8.487722
 30
0.0
 10
10.172215
 20
8.487722
 30
0.0
  0
LWPOLYLINE
  5
1f9
100
AcDbEntity
  8
Layer_1
 62
7
100
AcDbPolyline
 90
24
 70
0
 10
12.535565
 20
7.202501
 30
0.0
 10
12.578885
 20
7.179681
 30
0.0
 10
12.617765
 20
7.146091
 30
0.0
 10
12.638805
 20
7.115741
 30
0.0
 10
12.658725
 20
7.089821
 30
0.0
 10
12.685375
 20
7.052961
 30
0.0
 10
12.700805
 20
7.012861
 30
0.0
 10
12.718765
 20
6.943031
 30
0.0
 10
12.714265
 20
5.408451
 30
0.0
 10
12.697715
 20
5.341641
 30
0.0
 10
12.666465
 20
5.291401
 30
0.0
 10
12.633475
 20
5.263791
 30
0.0
 10
12.605195
 20
5.238431
 30
0.0
 10
12.563705
 20
5.212221
 30
0.0
 10
12.520165
 20
5.195881
 30
0.0
 10
12.478705
 20
5.187681
 30
0.0
 10
10.345785
 20
5.187681
 30
0.0
 10
10.281985
 20
5.199801
 30
0.0
 10
10.234015
 20
5.228371
 30
0.0
 10
10.195135
 20
5.253171
 30
0.0
 10
10.156225
 20
5.294481
 30
0.0
 10
10.129575
 20
5.355091
 30
0.0
 10
10.116955
 20
5.402771
 30
0.0
 10
10.116955
 20
8.352912
 30
0.0
  0
SPLINE
  5
1fa
100
AcDbEntity
  8
Layer_1
 62
7
100
AcDbSpline
 70
8
 71
3
 72
8
 73
4
 74
0
 40
0
 40
0
 40
0
 40
0
 40
1
 40
1
 40
1
 40
1
 10
10.204785
 20
8.515622
 30
0.0
 10
10.204785
 20
8.515622
 30
0.0
 10
10.225825
 20
8.531962
 30
0.0
 10
10.237585
 20
8.538452
 30
0.0
  0
SPLINE
  5
1fb
100
AcDbEntity
  8
Layer_1
 62
7
100
AcDbSpline
 70
8
 71
3
 72
8
 73
4
 74
0
 40
0
 40
0
 40
0
 40
0
 40
1
 40
1
 40
1
 40
1
 10
10.237585
 20
8.538452
 30
0.0
 10
10.252455
 20
8.546652
 30
0.0
 10
10.268525
 20
8.552822
 30
0.0
 10
10.284715
 20
8.558462
 30
0.0
  0
SPLINE
  5
1fc
100
AcDbEntity
  8
Layer_1
 62
7
100
AcDbSpline
 70
8
 71
3
 72
8
 73
4
 74
0
 40
0
 40
0
 40
0
 40
0
 40
1
 40
1
 40
1
 40
1
 10
10.284715
 20
8.558462
 30
0.0
 10
10.306875
 20
8.566062
 30
0.0
 10
10.353055
 20
8.576212
 30
0.0
 10
10.353055
 20
8.576212
 30
0.0
  0
LWPOLYLINE
  5
1fd
100
AcDbEntity
  8
Layer_1
 62
7
100
AcDbPolyline
 90
2
 70
0
 10
10.172215
 20
8.487722
 30
0.0
 10
10.204785
 20
8.515622
 30
0.0
  0
LWPOLYLINE
  5
1fe
100
AcDbEntity
  8
Layer_1
 62
7
100
AcDbPolyline
 90
2
 70
0
 10
10.353055
 20
8.576212
 30
0.0
 10
10.371910
 20
8.580029
 30
0.0
  0
SPLINE
  5
1ff
100
AcDbEntity
  8
Layer_1
 62
7
100
AcDbSpline
 70
8
 71
3
 72
8
 73
4
 74
0
 40
0
 40
0
 40
0
 40
0
 40
1
 40
1
 40
1
 40
1
 10
16.369550
 20
5.304353
 30
0.0
 10
16.369550
 20
5.304353
 30
0.0
 10
16.367350
 20
5.280123
 30
0.0
 10
16.363350
 20
5.268703
 30
0.0
  0
SPLINE
  5
200
100
AcDbEntity
  8
Layer_1
 62
7
100
AcDbSpline
 70
8
 71
3
 72
8
 73
4
 74
0
 40
0
 40
0
 40
0
 40
0
 40
1
 40
1
 40
1
 40
1
 10
16.363350
 20
5.268703
 30
0.0
 10
16.359450
 20
5.257433
 30
0.0
 10
16.346240
 20
5.237143
 30
0.0
 10
16.346240
 20
5.237143
 30
0.0
  0
LWPOLYLINE
  5
201
100
AcDbEntity
  8
Layer_1
 62
7
100
AcDbPolyline
 90
15
 70
0
 10
13.744727
 20
8.736423
 30
0.0
 10
16.011700
 20
8.736423
 30
0.0
 10
16.076900
 20
8.727123
 30
0.0
 10
16.150740
 20
8.702613
 30
0.0
 10
16.193160
 20
8.678943
 30
0.0
 10
16.226940
 20
8.653583
 30
0.0
 10
16.263860
 20
8.624443
 30
0.0
 10
16.296850
 20
8.588433
 30
0.0
 10
16.318730
 20
8.558533
 30
0.0
 10
16.340610
 20
8.526353
 30
0.0
 10
16.354080
 20
8.496453
 30
0.0
 10
16.368950
 20
8.455823
 30
0.0
 10
16.377650
 20
8.411383
 30
0.0
 10
16.377650
 20
5.367223
 30
0.0
 10
16.369550
 20
5.304353
 30
0.0
  0
SPLINE
  5
202
100
AcDbEntity
  8
Layer_1
 62
7
100
AcDbSpline
 70
8
 71
3
 72
8
 73
4
 74
0
 40
0
 40
0
 40
0
 40
0
 40
1
 40
1
 40
1
 40
1
 10
16.055260
 20
5.015173
 30
0.0
 10
16.055260
 20
5.015173
 30
0.0
 10
14.496683
 20
5.012073
 30
0.0
 10
13.696872
 20
5.009773
 30
0.0
  0
SPLINE
  5
203
100
AcDbEntity
  8
Layer_1
 62
7
100
AcDbSpline
 70
8
 71
3
 72
8
 73
4
 74
0
 40
0
 40
0
 40
0
 40
0
 40
1
 40
1
 40
1
 40
1
 10
13.696872
 20
5.009773
 30
0.0
 10
13.667472
 20
5.009688
 30
0.0
 10
13.613552
 20
5.037953
 30
0.0
 10
13.613552
 20
5.037953
 30
0.0
  0
LWPOLYLINE
  5
204
100
AcDbEntity
  8
Layer_1
 62
7
100
AcDbPolyline
 90
8
 70
0
 10
16.346240
 20
5.237143
 30
0.0
 10
16.308480
 20
5.182953
 30
0.0
 10
16.286320
 20
5.152603
 30
0.0
 10
16.266120
 20
5.127523
 30
0.0
 10
16.231500
 20
5.090723
 30
0.0
 10
16.180360
 20
5.052373
 30
0.0
 10
16.128570
 20
5.029263
 30
0.0
 10
16.055260
 20
5.015173
 30
0.0
  0
LWPOLYLINE
  5
205
100
AcDbEntity
  8
Layer_1
 62
7
100
AcDbPolyline
 90
20
 70
0
 10
13.613552
 20
5.037953
 30
0.0
 10
13.552452
 20
5.082393
 30
0.0
 10
13.503582
 20
5.125763
 30
0.0
 10
13.480302
 20
5.159353
 30
0.0
 10
13.441422
 20
5.209203
 30
0.0
 10
13.422622
 20
5.243893
 30
0.0
 10
13.399332
 20
5.297013
 30
0.0
 10
13.385022
 20
5.342553
 30
0.0
 10
13.372682
 20
5.394573
 30
0.0
 10
13.372682
 20
8.376438
 30
0.0
 10
13.393722
 20
8.459898
 30
0.0
 10
13.422622
 20
8.519528
 30
0.0
 10
13.452612
 20
8.561798
 30
0.0
 10
13.479262
 20
8.588848
 30
0.0
 10
13.502542
 20
8.614768
 30
0.0
 10
13.545862
 20
8.654868
 30
0.0
 10
13.596952
 20
8.692798
 30
0.0
 10
13.649162
 20
8.717598
 30
0.0
 10
13.703592
 20
8.731688
 30
0.0
 10
13.744727
 20
8.736423
 30
0.0
  0
SPLINE
  5
206
100
AcDbEntity
  8
Layer_1
 62
7
100
AcDbSpline
 70
8
 71
3
 72
8
 73
4
 74
0
 40
0
 40
0
 40
0
 40
0
 40
1
 40
1
 40
1
 40
1
 10
16.185083
 20
8.457626
 30
0.0
 10
16.185083
 20
8.457626
 30
0.0
 10
16.200233
 20
8.440156
 30
0.0
 10
16.204723
 20
8.430006
 30
0.0
  0
SPLINE
  5
207
100
AcDbEntity
  8
Layer_1
 62
7
100
AcDbSpline
 70
8
 71
3
 72
8
 73
4
 74
0
 40
0
 40
0
 40
0
 40
0
 40
1
 40
1
 40
1
 40
1
 10
16.204723
 20
8.430006
 30
0.0
 10
16.210623
 20
8.416766
 30
0.0
 10
16.216223
 20
8.388016
 30
0.0
 10
16.216223
 20
8.388016
 30
0.0
  0
SPLINE
  5
208
100
AcDbEntity
  8
Layer_1
 62
7
100
AcDbSpline
 70
8
 71
3
 72
8
 73
4
 74
0
 40
0
 40
0
 40
0
 40
0
 40
1
 40
1
 40
1
 40
1
 10
16.216223
 20
8.388016
 30
0.0
 10
16.216223
 20
8.388016
 30
0.0
 10
16.220423
 20
8.363216
 30
0.0
 10
16.222423
 20
8.350906
 30
0.0
  0
SPLINE
  5
209
100
AcDbEntity
  8
Layer_1
 62
7
100
AcDbSpline
 70
8
 71
3
 72
8
 73
4
 74
0
 40
0
 40
0
 40
0
 40
0
 40
1
 40
1
 40
1
 40
1
 10
16.222423
 20
8.350906
 30
0.0
 10
16.224523
 20
8.337946
 30
0.0
 10
16.226923
 20
8.312666
 30
0.0
 10
16.226923
 20
8.312666
 30
0.0
  0
LWPOLYLINE
  5
20a
100
AcDbEntity
  8
Layer_1
 62
7
100
AcDbPolyline
 90
9
 70
0
 10
13.875163
 20
8.582556
 30
0.0
 10
15.910303
 20
8.586756
 30
0.0
 10
15.976423
 20
8.583056
 30
0.0
 10
16.032503
 20
8.574856
 30
0.0
 10
16.072673
 20
8.561046
 30
0.0
 10
16.102883
 20
8.539346
 30
0.0
 10
16.135933
 20
8.514266
 30
0.0
 10
16.165443
 20
8.483266
 30
0.0
 10
16.185083
 20
8.457626
 30
0.0
  0
SPLINE
  5
20b
100
AcDbEntity
  8
Layer_1
 62
7
100
AcDbSpline
 70
8
 71
3
 72
8
 73
4
 74
0
 40
0
 40
0
 40
0
 40
0
 40
1
 40
1
 40
1
 40
1
 10
16.216523
 20
5.406679
 30
0.0
 10
16.216523
 20
5.406679
 30
0.0
 10
16.211723
 20
5.375539
 30
0.0
 10
16.208423
 20
5.365739
 30
0.0
  0
SPLINE
  5
20c
100
AcDbEntity
  8
Layer_1
 62
7
100
AcDbSpline
 70
8
 71
3
 72
8
 73
4
 74
0
 40
0
 40
0
 40
0
 40
0
 40
1
 40
1
 40
1
 40
1
 10
16.208423
 20
5.365739
 30
0.0
 10
16.204823
 20
5.356139
 30
0.0
 10
16.199723
 20
5.325589
 30
0.0
 10
16.199723
 20
5.325589
 30
0.0
  0
LWPOLYLINE
  5
20d
100
AcDbEntity
  8
Layer_1
 62
7
100
AcDbPolyline
 90
3
 70
0
 10
16.226923
 20
8.312666
 30
0.0
 10
16.223823
 20
5.460759
 30
0.0
 10
16.216523
 20
5.406679
 30
0.0
  0
SPLINE
  5
20e
100
AcDbEntity
  8
Layer_1
 62
7
100
AcDbSpline
 70
8
 71
3
 72
8
 73
4
 74
0
 40
0
 40
0
 40
0
 40
0
 40
1
 40
1
 40
1
 40
1
 10
15.935343
 20
5.157389
 30
0.0
 10
15.935343
 20
5.157389
 30
0.0
 10
14.561986
 20
5.163589
 30
0.0
 10
13.823962
 20
5.163589
 30
0.0
  0
SPLINE
  5
20f
100
AcDbEntity
  8
Layer_1
 62
7
100
AcDbSpline
 70
8
 71
3
 72
8
 73
4
 74
0
 40
0
 40
0
 40
0
 40
0
 40
1
 40
1
 40
1
 40
1
 10
13.823962
 20
5.163589
 30
0.0
 10
13.797592
 20
5.163589
 30
0.0
 10
13.750512
 20
5.173729
 30
0.0
 10
13.750512
 20
5.173729
 30
0.0
  0
LWPOLYLINE
  5
210
100
AcDbEntity
  8
Layer_1
 62
7
100
AcDbPolyline
 90
8
 70
0
 10
16.199723
 20
5.325589
 30
0.0
 10
16.182053
 20
5.281659
 30
0.0
 10
16.156523
 20
5.251229
 30
0.0
 10
16.126253
 20
5.226709
 30
0.0
 10
16.095813
 20
5.211209
 30
0.0
 10
16.047843
 20
5.194869
 30
0.0
 10
15.998723
 20
5.176549
 30
0.0
 10
15.935343
 20
5.157389
 30
0.0
  0
SPLINE
  5
211
100
AcDbEntity
  8
Layer_1
 62
7
100
AcDbSpline
 70
8
 71
3
 72
8
 73
4
 74
0
 40
0
 40
0
 40
0
 40
0
 40
1
 40
1
 40
1
 40
1
 10
13.567402
 20
5.332059
 30
0.0
 10
13.567402
 20
5.332059
 30
0.0
 10
13.557302
 20
5.368099
 30
0.0
 10
13.553652
 20
5.385879
 30
0.0
  0
SPLINE
  5
212
100
AcDbEntity
  8
Layer_1
 62
7
100
AcDbSpline
 70
8
 71
3
 72
8
 73
4
 74
0
 40
0
 40
0
 40
0
 40
0
 40
1
 40
1
 40
1
 40
1
 10
13.553652
 20
5.385879
 30
0.0
 10
13.550052
 20
5.403909
 30
0.0
 10
13.547452
 20
5.438599
 30
0.0
 10
13.547452
 20
5.438599
 30
0.0
  0
LWPOLYLINE
  5
213
100
AcDbEntity
  8
Layer_1
 62
7
100
AcDbPolyline
 90
6
 70
0
 10
13.750512
 20
5.173729
 30
0.0
 10
13.678632
 20
5.199089
 30
0.0
 10
13.643792
 20
5.225009
 30
0.0
 10
13.615682
 20
5.250649
 30
0.0
 10
13.583112
 20
5.294099
 30
0.0
 10
13.567402
 20
5.332059
 30
0.0
  0
SPLINE
  5
214
100
AcDbEntity
  8
Layer_1
 62
7
100
AcDbSpline
 70
8
 71
3
 72
8
 73
4
 74
0
 40
0
 40
0
 40
0
 40
0
 40
1
 40
1
 40
1
 40
1
 10
13.550240
 20
8.354014
 30
0.0
 10
13.550240
 20
8.354014
 30
0.0
 10
13.552740
 20
8.411724
 30
0.0
 10
13.562860
 20
8.428064
 30
0.0
  0
SPLINE
  5
215
100
AcDbEntity
  8
Layer_1
 62
7
100
AcDbSpline
 70
8
 71
3
 72
8
 73
4
 74
0
 40
0
 40
0
 40
0
 40
0
 40
1
 40
1
 40
1
 40
1
 10
13.562860
 20
8.428064
 30
0.0
 10
13.570760
 20
8.440744
 30
0.0
 10
13.589790
 20
8.464444
 30
0.0
 10
13.589790
 20
8.464444
 30
0.0
  0
LWPOLYLINE
  5
216
100
AcDbEntity
  8
Layer_1
 62
7
100
AcDbPolyline
 90
4
 70
0
 10
13.547452
 20
5.438599
 30
0.0
 10
13.546540
 20
5.483909
 30
0.0
 10
13.549140
 20
8.284384
 30
0.0
 10
13.550240
 20
8.354014
 30
0.0
  0
SPLINE
  5
217
100
AcDbEntity
  8
Layer_1
 62
7
100
AcDbSpline
 70
8
 71
3
 72
8
 73
4
 74
0
 40
0
 40
0
 40
0
 40
0
 40
1
 40
1
 40
1
 40
1
 10
13.634400
 20
8.510094
 30
0.0
 10
13.634400
 20
8.510094
 30
0.0
 10
13.658250
 20
8.535734
 30
0.0
 10
13.673170
 20
8.544584
 30
0.0
  0
SPLINE
  5
218
100
AcDbEntity
  8
Layer_1
 62
7
100
AcDbSpline
 70
8
 71
3
 72
8
 73
4
 74
0
 40
0
 40
0
 40
0
 40
0
 40
1
 40
1
 40
1
 40
1
 10
13.673170
 20
8.544584
 30
0.0
 10
13.689720
 20
8.554484
 30
0.0
 10
13.727790
 20
8.564314
 30
0.0
 10
13.727790
 20
8.564314
 30
0.0
  0
LWPOLYLINE
  5
219
100
AcDbEntity
  8
Layer_1
 62
7
100
AcDbPolyline
 90
3
 70
0
 10
13.589790
 20
8.464444
 30
0.0
 10
13.613640
 20
8.487834
 30
0.0
 10
13.634400
 20
8.510094
 30
0.0
  0
LWPOLYLINE
  5
21a
100
AcDbEntity
  8
Layer_1
 62
7
100
AcDbPolyline
 90
4
 70
0
 10
13.727790
 20
8.564314
 30
0.0
 10
13.778960
 20
8.578124
 30
0.0
 10
13.839890
 20
8.581524
 30
0.0
 10
13.875163
 20
8.582556
 30
0.0
  0
SPLINE
  5
21b
100
AcDbEntity
  8
Layer_1
 62
7
100
AcDbSpline
 70
8
 71
3
 72
8
 73
4
 74
0
 40
0
 40
0
 40
0
 40
0
 40
1
 40
1
 40
1
 40
1
 10
15.500527
 20
8.048786
 30
0.0
 10
15.526617
 20
8.046686
 30
0.0
 10
15.566957
 20
8.047932
 30
0.0
 10
15.566957
 20
8.047932
 30
0.0
  0
LWPOLYLINE
  5
21c
100
AcDbEntity
  8
Layer_1
 62
7
100
AcDbPolyline
 90
2
 70
0
 10
14.253738
 20
8.049268
 30
0.0
 10
15.500527
 20
8.048786
 30
0.0
  0
SPLINE
  5
21d
100
AcDbEntity
  8
Layer_1
 62
7
100
AcDbSpline
 70
8
 71
3
 72
8
 73
4
 74
0
 40
0
 40
0
 40
0
 40
0
 40
1
 40
1
 40
1
 40
1
 10
15.672077
 20
7.963042
 30
0.0
 10
15.672077
 20
7.963042
 30
0.0
 10
15.677377
 20
7.887552
 30
0.0
 10
15.679377
 20
7.865772
 30
0.0
  0
SPLINE
  5
21e
100
AcDbEntity
  8
Layer_1
 62
7
100
AcDbSpline
 70
8
 71
3
 72
8
 73
4
 74
0
 40
0
 40
0
 40
0
 40
0
 40
1
 40
1
 40
1
 40
1
 10
15.679377
 20
7.865772
 30
0.0
 10
15.680176
 20
7.826092
 30
0.0
 10
15.677277
 20
5.925821
 30
0.0
 10
15.678377
 20
5.911101
 30
0.0
  0
LWPOLYLINE
  5
21f
100
AcDbEntity
  8
Layer_1
 62
7
100
AcDbPolyline
 90
4
 70
0
 10
15.566957
 20
8.047932
 30
0.0
 10
15.615657
 20
8.038932
 30
0.0
 10
15.652717
 20
8.008582
 30
0.0
 10
15.672077
 20
7.963042
 30
0.0
  0
SPLINE
  5
220
100
AcDbEntity
  8
Layer_1
 62
7
100
AcDbSpline
 70
8
 71
3
 72
8
 73
4
 74
0
 40
0
 40
0
 40
0
 40
0
 40
1
 40
1
 40
1
 40
1
 10
14.612682
 20
5.694856
 30
0.0
 10
14.612682
 20
5.694856
 30
0.0
 10
14.530282
 20
5.703556
 30
0.0
 10
14.524252
 20
5.707536
 30
0.0
  0
SPLINE
  5
221
100
AcDbEntity
  8
Layer_1
 62
7
100
AcDbSpline
 70
8
 71
3
 72
8
 73
4
 74
0
 40
0
 40
0
 40
0
 40
0
 40
1
 40
1
 40
1
 40
1
 10
14.524252
 20
5.707536
 30
0.0
 10
14.518352
 20
5.711436
 30
0.0
 10
14.483152
 20
5.738026
 30
0.0
 10
14.483152
 20
5.738026
 30
0.0
  0
LWPOLYLINE
  5
222
100
AcDbEntity
  8
Layer_1
 62
7
100
AcDbPolyline
 90
6
 70
0
 10
15.678377
 20
5.911101
 30
0.0
 10
15.675577
 20
5.787706
 30
0.0
 10
15.670277
 20
5.735856
 30
0.0
 10
15.624627
 20
5.697056
 30
0.0
 10
15.540857
 20
5.689456
 30
0.0
 10
14.612682
 20
5.694856
 30
0.0
  0
SPLINE
  5
223
100
AcDbEntity
  8
Layer_1
 62
7
100
AcDbSpline
 70
8
 71
3
 72
8
 73
4
 74
0
 40
0
 40
0
 40
0
 40
0
 40
1
 40
1
 40
1
 40
1
 10
14.456502
 20
5.801656
 30
0.0
 10
14.456502
 20
5.801656
 30
0.0
 10
14.450902
 20
6.504555
 30
0.0
 10
14.447202
 20
6.559549
 30
0.0
  0
SPLINE
  5
224
100
AcDbEntity
  8
Layer_1
 62
7
100
AcDbSpline
 70
8
 71
3
 72
8
 73
4
 74
0
 40
0
 40
0
 40
0
 40
0
 40
1
 40
1
 40
1
 40
1
 10
14.447202
 20
6.559549
 30
0.0
 10
14.447202
 20
6.559549
 30
0.0
 10
14.417712
 20
6.625429
 30
0.0
 10
14.415332
 20
6.627709
 30
0.0
  0
SPLINE
  5
225
100
AcDbEntity
  8
Layer_1
 62
7
100
AcDbSpline
 70
8
 71
3
 72
8
 73
4
 74
0
 40
0
 40
0
 40
0
 40
0
 40
1
 40
1
 40
1
 40
1
 10
14.415332
 20
6.627709
 30
0.0
 10
14.409732
 20
6.632809
 30
0.0
 10
14.357992
 20
6.679279
 30
0.0
 10
14.357992
 20
6.679279
 30
0.0
  0
LWPOLYLINE
  5
226
100
AcDbEntity
  8
Layer_1
 62
7
100
AcDbPolyline
 90
2
 70
0
 10
14.483152
 20
5.738026
 30
0.0
 10
14.456502
 20
5.801656
 30
0.0
  0
SPLINE
  5
227
100
AcDbEntity
  8
Layer_1
 62
7
100
AcDbSpline
 70
8
 71
3
 72
8
 73
4
 74
0
 40
0
 40
0
 40
0
 40
0
 40
1
 40
1
 40
1
 40
1
 10
14.322782
 20
6.712639
 30
0.0
 10
14.322529
 20
6.712799
 30
0.0
 10
14.279722
 20
6.730109
 30
0.0
 10
14.270542
 20
6.732649
 30
0.0
  0
SPLINE
  5
228
100
AcDbEntity
  8
Layer_1
 62
7
100
AcDbSpline
 70
8
 71
3
 72
8
 73
4
 74
0
 40
0
 40
0
 40
0
 40
0
 40
1
 40
1
 40
1
 40
1
 10
14.270542
 20
6.732649
 30
0.0
 10
14.263242
 20
6.736849
 30
0.0
 10
14.237352
 20
6.743359
 30
0.0
 10
14.218642
 20
6.750399
 30
0.0
  0
SPLINE
  5
229
100
AcDbEntity
  8
Layer_1
 62
7
100
AcDbSpline
 70
8
 71
3
 72
8
 73
4
 74
0
 40
0
 40
0
 40
0
 40
0
 40
1
 40
1
 40
1
 40
1
 10
14.218642
 20
6.750399
 30
0.0
 10
14.194232
 20
6.759699
 30
0.0
 10
14.166262
 20
6.780579
 30
0.0
 10
14.161772
 20
6.784409
 30
0.0
  0
SPLINE
  5
22a
100
AcDbEntity
  8
Layer_1
 62
7
100
AcDbSpline
 70
8
 71
3
 72
8
 73
4
 74
0
 40
0
 40
0
 40
0
 40
0
 40
1
 40
1
 40
1
 40
1
 10
14.161772
 20
6.784409
 30
0.0
 10
14.158972
 20
6.786909
 30
0.0
 10
14.114782
 20
6.817379
 30
0.0
 10
14.114782
 20
6.817379
 30
0.0
  0
SPLINE
  5
22b
100
AcDbEntity
  8
Layer_1
 62
7
100
AcDbSpline
 70
8
 71
3
 72
8
 73
4
 74
0
 40
0
 40
0
 40
0
 40
0
 40
1
 40
1
 40
1
 40
1
 10
14.114782
 20
6.817379
 30
0.0
 10
14.114782
 20
6.817379
 30
0.0
 10
14.094302
 20
6.850239
 30
0.0
 10
14.092062
 20
6.854769
 30
0.0
  0
SPLINE
  5
22c
100
AcDbEntity
  8
Layer_1
 62
7
100
AcDbSpline
 70
8
 71
3
 72
8
 73
4
 74
0
 40
0
 40
0
 40
0
 40
0
 40
1
 40
1
 40
1
 40
1
 10
14.092062
 20
6.854769
 30
0.0
 10
14.090362
 20
6.858169
 30
0.0
 10
14.079162
 20
6.890469
 30
0.0
 10
14.078592
 20
6.895039
 30
0.0
  0
SPLINE
  5
22d
100
AcDbEntity
  8
Layer_1
 62
7
100
AcDbSpline
 70
8
 71
3
 72
8
 73
4
 74
0
 40
0
 40
0
 40
0
 40
0
 40
1
 40
1
 40
1
 40
1
 10
14.078592
 20
6.895039
 30
0.0
 10
14.077908
 20
6.899539
 30
0.0
 10
14.078592
 20
7.871437
 30
0.0
 10
14.078592
 20
7.871437
 30
0.0
  0
LWPOLYLINE
  5
22e
100
AcDbEntity
  8
Layer_1
 62
7
100
AcDbPolyline
 90
2
 70
0
 10
14.357992
 20
6.679279
 30
0.0
 10
14.322782
 20
6.712639
 30
0.0
  0
SPLINE
  5
22f
100
AcDbEntity
  8
Layer_1
 62
7
100
AcDbSpline
 70
8
 71
3
 72
8
 73
4
 74
0
 40
0
 40
0
 40
0
 40
0
 40
1
 40
1
 40
1
 40
1
 10
14.086892
 20
7.972087
 30
0.0
 10
14.084892
 20
7.977487
 30
0.0
 10
14.100922
 20
8.002577
 30
0.0
 10
14.100922
 20
8.002577
 30
0.0
  0
LWPOLYLINE
  5
230
100
AcDbEntity
  8
Layer_1
 62
7
100
AcDbPolyline
 90
3
 70
0
 10
14.078592
 20
7.871437
 30
0.0
 10
14.080692
 20
7.932247
 30
0.0
 10
14.086892
 20
7.972087
 30
0.0
  0
SPLINE
  5
231
100
AcDbEntity
  8
Layer_1
 62
7
100
AcDbSpline
 70
8
 71
3
 72
8
 73
4
 74
0
 40
0
 40
0
 40
0
 40
0
 40
1
 40
1
 40
1
 40
1
 10
14.188642
 20
8.048827
 30
0.0
 10
14.189402
 20
8.048345
 30
0.0
 10
14.251592
 20
8.049827
 30
0.0
 10
14.253922
 20
8.049495
 30
0.0
  0
LWPOLYLINE
  5
232
100
AcDbEntity
  8
Layer_1
 62
7
100
AcDbPolyline
 90
4
 70
0
 10
14.100922
 20
8.002577
 30
0.0
 10
14.123082
 20
8.027097
 30
0.0
 10
14.156972
 20
8.042027
 30
0.0
 10
14.188642
 20
8.048827
 30
0.0
  0
LWPOLYLINE
  5
233
100
AcDbEntity
  8
Layer_1
 62
7
100
AcDbPolyline
 90
2
 70
0
 10
14.253922
 20
8.049495
 30
0.0
 10
14.253738
 20
8.049268
 30
0.0
  0
SPLINE
  5
234
100
AcDbEntity
  8
Layer_1
 62
7
100
AcDbSpline
 70
8
 71
3
 72
8
 73
4
 74
0
 40
0
 40
0
 40
0
 40
0
 40
1
 40
1
 40
1
 40
1
 10
16.793904
 20
8.214002
 30
0.0
 10
16.793904
 20
8.214002
 30
0.0
 10
16.762004
 20
8.243592
 30
0.0
 10
16.756984
 20
8.266892
 30
0.0
  0
SPLINE
  5
235
100
AcDbEntity
  8
Layer_1
 62
7
100
AcDbSpline
 70
8
 71
3
 72
8
 73
4
 74
0
 40
0
 40
0
 40
0
 40
0
 40
1
 40
1
 40
1
 40
1
 10
16.756984
 20
8.266892
 30
0.0
 10
16.743234
 20
8.330042
 30
0.0
 10
16.751384
 20
8.463861
 30
0.0
 10
16.751384
 20
8.463861
 30
0.0
  0
LWPOLYLINE
  5
236
100
AcDbEntity
  8
Layer_1
 62
7
100
AcDbPolyline
 90
64
 70
0
 10
17.054855
 20
8.745621
 30
0.0
 10
19.375240
 20
8.745621
 30
0.0
 10
19.442800
 20
8.730401
 30
0.0
 10
19.486790
 20
8.712081
 30
0.0
 10
19.540210
 20
8.676831
 30
0.0
 10
19.584990
 20
8.640031
 30
0.0
 10
19.617200
 20
8.592521
 30
0.0
 10
19.641610
 20
8.551891
 30
0.0
 10
19.651710
 20
8.534141
 30
0.0
 10
19.651710
 20
8.276616
 30
0.0
 10
19.639090
 20
8.235226
 30
0.0
 10
19.625060
 20
8.199976
 30
0.0
 10
19.593640
 20
8.153986
 30
0.0
 10
19.562220
 20
8.120256
 30
0.0
 10
19.491520
 20
8.075816
 30
0.0
 10
19.420820
 20
8.057496
 30
0.0
 10
19.339130
 20
8.049896
 30
0.0
 10
18.608610
 20
8.049896
 30
0.0
 10
18.578200
 20
8.027636
 30
0.0
 10
18.563890
 20
8.006506
 30
0.0
 10
18.547340
 20
7.979456
 30
0.0
 10
18.544240
 20
7.954936
 30
0.0
 10
18.544240
 20
7.444484
 30
0.0
 10
18.561910
 20
7.423914
 30
0.0
 10
18.589120
 20
7.408414
 30
0.0
 10
18.643380
 20
7.387564
 30
0.0
 10
18.699880
 20
7.360234
 30
0.0
 10
18.769010
 20
7.317314
 30
0.0
 10
18.838750
 20
7.258614
 30
0.0
 10
18.882120
 20
7.200814
 30
0.0
 10
18.904000
 20
7.154824
 30
0.0
 10
18.914380
 20
7.116754
 30
0.0
 10
18.914380
 20
5.430299
 30
0.0
 10
18.905980
 20
5.348809
 30
0.0
 10
18.897580
 20
5.286219
 30
0.0
 10
18.869380
 20
5.230599
 30
0.0
 10
18.836390
 20
5.184979
 30
0.0
 10
18.806460
 20
5.151339
 30
0.0
 10
18.779810
 20
5.122199
 30
0.0
 10
18.745250
 20
5.093059
 30
0.0
 10
18.701260
 20
5.063919
 30
0.0
 10
18.646270
 20
5.028669
 30
0.0
 10
18.591280
 20
5.011759
 30
0.0
 10
18.542580
 20
5.004159
 30
0.0
 10
18.217379
 20
5.004159
 30
0.0
 10
18.137649
 20
5.024449
 30
0.0
 10
18.083779
 20
5.040229
 30
0.0
 10
18.035159
 20
5.059389
 30
0.0
 10
17.997449
 20
5.085309
 30
0.0
 10
17.959749
 20
5.115969
 30
0.0
 10
17.925499
 20
5.152769
 30
0.0
 10
17.890539
 20
5.195239
 30
0.0
 10
17.856169
 20
5.246269
 30
0.0
 10
17.823069
 20
5.333649
 30
0.0
 10
17.808759
 20
5.379639
 30
0.0
 10
17.797539
 20
7.966162
 30
0.0
 10
17.792239
 20
7.994062
 30
0.0
 10
17.777369
 20
8.022412
 30
0.0
 10
17.727879
 20
8.040732
 30
0.0
 10
17.012284
 20
8.046932
 30
0.0
 10
16.945514
 20
8.086012
 30
0.0
 10
16.886604
 20
8.128162
 30
0.0
 10
16.838684
 20
8.171842
 30
0.0
 10
16.793904
 20
8.214002
 30
0.0
  0
LWPOLYLINE
  5
237
100
AcDbEntity
  8
Layer_1
 62
7
100
AcDbPolyline
 90
8
 70
0
 10
16.751384
 20
8.463861
 30
0.0
 10
16.758384
 20
8.526701
 30
0.0
 10
16.778864
 20
8.575761
 30
0.0
 10
16.826784
 20
8.637841
 30
0.0
 10
16.880204
 20
8.678471
 30
0.0
 10
16.935194
 20
8.716791
 30
0.0
 10
17.005894
 20
8.741301
 30
0.0
 10
17.054855
 20
8.745621
 30
0.0
  0
SPLINE
  5
238
100
AcDbEntity
  8
Layer_1
 62
7
100
AcDbSpline
 70
8
 71
3
 72
8
 73
4
 74
0
 40
0
 40
0
 40
0
 40
0
 40
1
 40
1
 40
1
 40
1
 10
20.028973
 20
8.216914
 30
0.0
 10
20.028973
 20
8.216914
 30
0.0
 10
19.997273
 20
8.246504
 30
0.0
 10
19.992283
 20
8.269804
 30
0.0
  0
SPLINE
  5
239
100
AcDbEntity
  8
Layer_1
 62
7
100
AcDbSpline
 70
8
 71
3
 72
8
 73
4
 74
0
 40
0
 40
0
 40
0
 40
0
 40
1
 40
1
 40
1
 40
1
 10
19.992283
 20
8.269804
 30
0.0
 10
19.978813
 20
8.332954
 30
0.0
 10
19.986983
 20
8.466773
 30
0.0
 10
19.986983
 20
8.466773
 30
0.0
  0
LWPOLYLINE
  5
23a
100
AcDbEntity
  8
Layer_1
 62
7
100
AcDbPolyline
 90
64
 70
0
 10
20.288200
 20
8.748811
 30
0.0
 10
22.598252
 20
8.744911
 30
0.0
 10
22.659072
 20
8.728851
 30
0.0
 10
22.705142
 20
8.706591
 30
0.0
 10
22.755082
 20
8.674411
 30
0.0
 10
22.799572
 20
8.635331
 30
0.0
 10
22.833942
 20
8.595491
 30
0.0
 10
22.858072
 20
8.554861
 30
0.0
 10
22.868172
 20
8.537111
 30
0.0
 10
22.868172
 20
8.279586
 30
0.0
 10
22.855552
 20
8.238196
 30
0.0
 10
22.841522
 20
8.202946
 30
0.0
 10
22.810302
 20
8.156956
 30
0.0
 10
22.779082
 20
8.123226
 30
0.0
 10
22.708832
 20
8.078756
 30
0.0
 10
22.638582
 20
8.060436
 30
0.0
 10
22.557422
 20
8.052836
 30
0.0
 10
21.831635
 20
8.052836
 30
0.0
 10
21.801425
 20
8.030576
 30
0.0
 10
21.787115
 20
8.009446
 30
0.0
 10
21.770565
 20
7.982396
 30
0.0
 10
21.767465
 20
7.957876
 30
0.0
 10
21.767465
 20
7.447418
 30
0.0
 10
21.785135
 20
7.426848
 30
0.0
 10
21.812065
 20
7.411348
 30
0.0
 10
21.865955
 20
7.390498
 30
0.0
 10
21.922095
 20
7.363168
 30
0.0
 10
21.990775
 20
7.320248
 30
0.0
 10
22.060065
 20
7.261548
 30
0.0
 10
22.103155
 20
7.203758
 30
0.0
 10
22.125035
 20
7.157768
 30
0.0
 10
22.135415
 20
7.119698
 30
0.0
 10
22.135415
 20
5.433232
 30
0.0
 10
22.127015
 20
5.351712
 30
0.0
 10
22.118915
 20
5.289122
 30
0.0
 10
22.090865
 20
5.233502
 30
0.0
 10
22.058095
 20
5.187882
 30
0.0
 10
22.028355
 20
5.154242
 30
0.0
 10
22.001705
 20
5.125102
 30
0.0
 10
21.967365
 20
5.095962
 30
0.0
 10
21.923655
 20
5.066822
 30
0.0
 10
21.869035
 20
5.031572
 30
0.0
 10
21.814415
 20
5.014662
 30
0.0
 10
21.766025
 20
5.007062
 30
0.0
 10
21.442937
 20
5.007062
 30
0.0
 10
21.363707
 20
5.027352
 30
0.0
 10
21.310177
 20
5.043132
 30
0.0
 10
21.261867
 20
5.062292
 30
0.0
 10
21.224417
 20
5.088212
 30
0.0
 10
21.186967
 20
5.118872
 30
0.0
 10
21.152937
 20
5.155672
 30
0.0
 10
21.118237
 20
5.198132
 30
0.0
 10
21.084097
 20
5.249162
 30
0.0
 10
21.051217
 20
5.336542
 30
0.0
 10
21.037187
 20
5.382532
 30
0.0
 10
21.026247
 20
7.969074
 30
0.0
 10
21.020947
 20
7.996974
 30
0.0
 10
21.006077
 20
8.025324
 30
0.0
 10
20.956897
 20
8.043644
 30
0.0
 10
20.245943
 20
8.049844
 30
0.0
 10
20.179593
 20
8.088924
 30
0.0
 10
20.121073
 20
8.131084
 30
0.0
 10
20.073463
 20
8.174764
 30
0.0
 10
20.028973
 20
8.216914
 30
0.0
  0
LWPOLYLINE
  5
23b
100
AcDbEntity
  8
Layer_1
 62
7
100
AcDbPolyline
 90
8
 70
0
 10
19.986983
 20
8.466773
 30
0.0
 10
19.993983
 20
8.529613
 30
0.0
 10
20.014183
 20
8.578673
 30
0.0
 10
20.061793
 20
8.640753
 30
0.0
 10
20.114873
 20
8.681383
 30
0.0
 10
20.169493
 20
8.719703
 30
0.0
 10
20.239743
 20
8.744223
 30
0.0
 10
20.288200
 20
8.748811
 30
0.0
  0
LWPOLYLINE
  5
23c
100
AcDbEntity
  8
Layer_1
 62
7
100
AcDbPolyline
 90
58
 70
1
 10
17.084702
 20
8.583134
 30
0.0
 10
19.310830
 20
8.583134
 30
0.0
 10
19.375240
 20
8.561714
 30
0.0
 10
19.438080
 20
8.532574
 30
0.0
 10
19.477360
 20
8.506654
 30
0.0
 10
19.504010
 20
8.474474
 30
0.0
 10
19.504010
 20
8.342654
 30
0.0
 10
19.497810
 20
8.313514
 30
0.0
 10
19.472560
 20
8.281304
 30
0.0
 10
19.447310
 20
8.253684
 30
0.0
 10
19.400180
 20
8.226074
 30
0.0
 10
19.356190
 20
8.216774
 30
0.0
 10
18.541619
 20
8.203814
 30
0.0
 10
18.491349
 20
8.170084
 30
0.0
 10
18.452859
 20
8.134074
 30
0.0
 10
18.397869
 20
8.083494
 30
0.0
 10
18.386929
 20
8.026774
 30
0.0
 10
18.386929
 20
7.358431
 30
0.0
 10
18.413579
 20
7.320111
 30
0.0
 10
18.455999
 20
7.283311
 30
0.0
 10
18.514129
 20
7.251131
 30
0.0
 10
18.583259
 20
7.223521
 30
0.0
 10
18.630389
 20
7.211121
 30
0.0
 10
18.672809
 20
7.172801
 30
0.0
 10
18.694689
 20
7.139071
 30
0.0
 10
18.724539
 20
7.100751
 30
0.0
 10
18.737159
 20
7.076241
 30
0.0
 10
18.737159
 20
5.408449
 30
0.0
 10
18.723129
 20
5.351729
 30
0.0
 10
18.702649
 20
5.316479
 30
0.0
 10
18.686939
 20
5.288859
 30
0.0
 10
18.665059
 20
5.265749
 30
0.0
 10
18.643179
 20
5.245739
 30
0.0
 10
18.611759
 20
5.221219
 30
0.0
 10
18.556769
 20
5.193609
 30
0.0
 10
18.525349
 20
5.184309
 30
0.0
 10
18.195435
 20
5.184309
 30
0.0
 10
18.143585
 20
5.199529
 30
0.0
 10
18.107455
 20
5.225449
 30
0.0
 10
18.066605
 20
5.254589
 30
0.0
 10
18.028905
 20
5.299029
 30
0.0
 10
18.010105
 20
5.340419
 30
0.0
 10
18.003905
 20
5.355639
 30
0.0
 10
17.996005
 20
5.373109
 30
0.0
 10
17.978615
 20
8.024479
 30
0.0
 10
17.928675
 20
8.098729
 30
0.0
 10
17.887235
 20
8.140519
 30
0.0
 10
17.838085
 20
8.179599
 30
0.0
 10
17.779145
 20
8.213019
 30
0.0
 10
17.048625
 20
8.211519
 30
0.0
 10
16.983425
 20
8.233779
 30
0.0
 10
16.954355
 20
8.269029
 30
0.0
 10
16.926865
 20
8.303519
 30
0.0
 10
16.918165
 20
8.334939
 30
0.0
 10
16.918165
 20
8.457573
 30
0.0
 10
16.935555
 20
8.492063
 30
0.0
 10
16.981115
 20
8.539573
 30
0.0
 10
17.015675
 20
8.561833
 30
0.0
  0
LWPOLYLINE
  5
23d
100
AcDbEntity
  8
Layer_1
 62
7
100
AcDbPolyline
 90
58
 70
1
 10
20.309572
 20
8.580460
 30
0.0
 10
22.535697
 20
8.580460
 30
0.0
 10
22.600107
 20
8.559040
 30
0.0
 10
22.662947
 20
8.529900
 30
0.0
 10
22.702227
 20
8.503980
 30
0.0
 10
22.728877
 20
8.471800
 30
0.0
 10
22.728877
 20
8.339980
 30
0.0
 10
22.722677
 20
8.310840
 30
0.0
 10
22.697427
 20
8.278660
 30
0.0
 10
22.672177
 20
8.251050
 30
0.0
 10
22.625047
 20
8.223430
 30
0.0
 10
22.581057
 20
8.214130
 30
0.0
 10
21.766489
 20
8.201170
 30
0.0
 10
21.716219
 20
8.167440
 30
0.0
 10
21.677729
 20
8.131430
 30
0.0
 10
21.622739
 20
8.080850
 30
0.0
 10
21.611799
 20
8.024130
 30
0.0
 10
21.611799
 20
7.355787
 30
0.0
 10
21.638449
 20
7.317467
 30
0.0
 10
21.680869
 20
7.280667
 30
0.0
 10
21.738999
 20
7.248487
 30
0.0
 10
21.808129
 20
7.220877
 30
0.0
 10
21.855259
 20
7.208477
 30
0.0
 10
21.897679
 20
7.170157
 30
0.0
 10
21.919559
 20
7.136427
 30
0.0
 10
21.949409
 20
7.098107
 30
0.0
 10
21.962029
 20
7.073597
 30
0.0
 10
21.962029
 20
5.405808
 30
0.0
 10
21.947999
 20
5.349088
 30
0.0
 10
21.927519
 20
5.313838
 30
0.0
 10
21.911809
 20
5.286218
 30
0.0
 10
21.889929
 20
5.263108
 30
0.0
 10
21.868049
 20
5.243098
 30
0.0
 10
21.836629
 20
5.218588
 30
0.0
 10
21.781639
 20
5.190968
 30
0.0
 10
21.750219
 20
5.181668
 30
0.0
 10
21.420305
 20
5.181668
 30
0.0
 10
21.368465
 20
5.196888
 30
0.0
 10
21.332335
 20
5.222808
 30
0.0
 10
21.291485
 20
5.251948
 30
0.0
 10
21.253775
 20
5.296418
 30
0.0
 10
21.234975
 20
5.337808
 30
0.0
 10
21.228775
 20
5.353028
 30
0.0
 10
21.220875
 20
5.370498
 30
0.0
 10
21.203485
 20
8.021866
 30
0.0
 10
21.153545
 20
8.096116
 30
0.0
 10
21.112105
 20
8.137906
 30
0.0
 10
21.062955
 20
8.176986
 30
0.0
 10
21.004015
 20
8.210406
 30
0.0
 10
20.273493
 20
8.208906
 30
0.0
 10
20.208293
 20
8.231166
 30
0.0
 10
20.179233
 20
8.266416
 30
0.0
 10
20.151743
 20
8.300906
 30
0.0
 10
20.143043
 20
8.332326
 30
0.0
 10
20.143043
 20
8.454960
 30
0.0
 10
20.160433
 20
8.489450
 30
0.0
 10
20.205993
 20
8.536960
 30
0.0
 10
20.240553
 20
8.559220
 30
0.0
  0
SPLINE
  5
23e
100
AcDbEntity
  8
Layer_1
 62
7
100
AcDbSpline
 70
8
 71
3
 72
8
 73
4
 74
0
 40
0
 40
0
 40
0
 40
0
 40
1
 40
1
 40
1
 40
1
 10
25.716098
 20
8.525610
 30
0.0
 10
25.716098
 20
8.525610
 30
0.0
 10
25.680808
 20
8.591070
 30
0.0
 10
25.674518
 20
8.592620
 30
0.0
  0
SPLINE
  5
23f
100
AcDbEntity
  8
Layer_1
 62
7
100
AcDbSpline
 70
8
 71
3
 72
8
 73
4
 74
0
 40
0
 40
0
 40
0
 40
0
 40
1
 40
1
 40
1
 40
1
 10
25.674518
 20
8.592620
 30
0.0
 10
25.668318
 20
8.594120
 30
0.0
 10
25.611198
 20
8.650580
 30
0.0
 10
25.611198
 20
8.650580
 30
0.0
  0
LWPOLYLINE
  5
240
100
AcDbEntity
  8
Layer_1
 62
7
100
AcDbPolyline
 90
11
 70
0
 10
24.151119
 20
8.029760
 30
0.0
 10
25.467628
 20
8.029760
 30
0.0
 10
25.539108
 20
8.035160
 30
0.0
 10
25.587808
 20
8.058830
 30
0.0
 10
25.619228
 20
8.088730
 30
0.0
 10
25.660078
 20
8.124740
 30
0.0
 10
25.692288
 20
8.178390
 30
0.0
 10
25.717538
 20
8.230490
 30
0.0
 10
25.741098
 20
8.331651
 30
0.0
 10
25.737698
 20
8.470150
 30
0.0
 10
25.716098
 20
8.525610
 30
0.0
  0
SPLINE
  5
241
100
AcDbEntity
  8
Layer_1
 62
7
100
AcDbSpline
 70
8
 71
3
 72
8
 73
4
 74
0
 40
0
 40
0
 40
0
 40
0
 40
1
 40
1
 40
1
 40
1
 10
24.487440
 20
6.651467
 30
0.0
 10
24.487440
 20
6.651467
 30
0.0
 10
25.016855
 20
6.649367
 30
0.0
 10
25.521169
 20
6.651467
 30
0.0
  0
SPLINE
  5
242
100
AcDbEntity
  8
Layer_1
 62
7
100
AcDbSpline
 70
8
 71
3
 72
8
 73
4
 74
0
 40
0
 40
0
 40
0
 40
0
 40
1
 40
1
 40
1
 40
1
 10
25.521169
 20
6.651467
 30
0.0
 10
25.542489
 20
6.651554
 30
0.0
 10
25.579689
 20
6.681757
 30
0.0
 10
25.579689
 20
6.681757
 30
0.0
  0
LWPOLYLINE
  5
243
100
AcDbEntity
  8
Layer_1
 62
7
100
AcDbPolyline
 90
39
 70
0
 10
25.611198
 20
8.650580
 30
0.0
 10
25.559548
 20
8.688370
 30
0.0
 10
25.495898
 20
8.714860
 30
0.0
 10
23.673521
 20
8.714860
 30
0.0
 10
23.572974
 20
8.685720
 30
0.0
 10
23.502274
 20
8.648920
 30
0.0
 10
23.441004
 20
8.601410
 30
0.0
 10
23.389154
 20
8.538570
 30
0.0
 10
23.351454
 20
8.478800
 30
0.0
 10
23.321604
 20
8.411340
 30
0.0
 10
23.310664
 20
8.383720
 30
0.0
 10
23.310664
 20
5.351652
 30
0.0
 10
23.310664
 20
5.294932
 30
0.0
 10
23.338944
 20
5.230542
 30
0.0
 10
23.368794
 20
5.181482
 30
0.0
 10
23.403354
 20
5.144682
 30
0.0
 10
23.442634
 20
5.095622
 30
0.0
 10
23.494484
 20
5.060372
 30
0.0
 10
23.544754
 20
5.038962
 30
0.0
 10
23.590314
 20
5.011342
 30
0.0
 10
23.615564
 20
4.998942
 30
0.0
 10
25.499207
 20
4.998942
 30
0.0
 10
25.566757
 20
5.018952
 30
0.0
 10
25.628027
 20
5.055752
 30
0.0
 10
25.681447
 20
5.104812
 30
0.0
 10
25.731717
 20
5.164612
 30
0.0
 10
25.742657
 20
5.202932
 30
0.0
 10
25.752157
 20
5.451271
 30
0.0
 10
25.716027
 20
5.526391
 30
0.0
 10
25.670467
 20
5.573901
 30
0.0
 10
25.615477
 20
5.621411
 30
0.0
 10
25.555777
 20
5.658211
 30
0.0
 10
24.471780
 20
5.658211
 30
0.0
 10
24.426390
 20
5.692111
 30
0.0
 10
24.399460
 20
5.739451
 30
0.0
 10
24.399460
 20
6.582547
 30
0.0
 10
24.427740
 20
6.619347
 30
0.0
 10
24.456190
 20
6.642167
 30
0.0
 10
24.487440
 20
6.651467
 30
0.0
  0
LWPOLYLINE
  5
244
100
AcDbEntity
  8
Layer_1
 62
7
100
AcDbPolyline
 90
18
 70
0
 10
25.579689
 20
6.681757
 30
0.0
 10
25.629569
 20
6.723517
 30
0.0
 10
25.682789
 20
6.779707
 30
0.0
 10
25.731299
 20
6.839757
 30
0.0
 10
25.763369
 20
6.917817
 30
0.0
 10
25.759969
 20
7.126396
 30
0.0
 10
25.718669
 20
7.216036
 30
0.0
 10
25.673559
 20
7.267776
 30
0.0
 10
25.622559
 20
7.309426
 30
0.0
 10
25.564239
 20
7.339186
 30
0.0
 10
24.097768
 20
7.349086
 30
0.0
 10
24.053778
 20
7.388926
 30
0.0
 10
24.028528
 20
7.425726
 30
0.0
 10
24.014498
 20
7.468646
 30
0.0
 10
24.014498
 20
7.910119
 30
0.0
 10
24.060058
 20
7.979099
 30
0.0
 10
24.096188
 20
8.008239
 30
0.0
 10
24.151119
 20
8.029760
 30
0.0
  0
SPLINE
  5
245
100
AcDbEntity
  8
Layer_1
 62
7
100
AcDbSpline
 70
8
 71
3
 72
8
 73
4
 74
0
 40
0
 40
0
 40
0
 40
0
 40
1
 40
1
 40
1
 40
1
 10
22.825474
 20
3.584297
 30
0.0
 10
22.825474
 20
3.584297
 30
0.0
 10
22.790184
 20
3.649757
 30
0.0
 10
22.783894
 20
3.651307
 30
0.0
  0
SPLINE
  5
246
100
AcDbEntity
  8
Layer_1
 62
7
100
AcDbSpline
 70
8
 71
3
 72
8
 73
4
 74
0
 40
0
 40
0
 40
0
 40
0
 40
1
 40
1
 40
1
 40
1
 10
22.783894
 20
3.651307
 30
0.0
 10
22.777694
 20
3.652807
 30
0.0
 10
22.720574
 20
3.709267
 30
0.0
 10
22.720574
 20
3.709267
 30
0.0
  0
LWPOLYLINE
  5
247
100
AcDbEntity
  8
Layer_1
 62
7
100
AcDbPolyline
 90
11
 70
0
 10
21.260495
 20
3.088417
 30
0.0
 10
22.577004
 20
3.088417
 30
0.0
 10
22.648484
 20
3.093817
 30
0.0
 10
22.697184
 20
3.117487
 30
0.0
 10
22.728604
 20
3.147387
 30
0.0
 10
22.769454
 20
3.183397
 30
0.0
 10
22.801664
 20
3.237047
 30
0.0
 10
22.826914
 20
3.289177
 30
0.0
 10
22.850474
 20
3.390339
 30
0.0
 10
22.847074
 20
3.528837
 30
0.0
 10
22.825474
 20
3.584297
 30
0.0
  0
SPLINE
  5
248
100
AcDbEntity
  8
Layer_1
 62
7
100
AcDbSpline
 70
8
 71
3
 72
8
 73
4
 74
0
 40
0
 40
0
 40
0
 40
0
 40
1
 40
1
 40
1
 40
1
 10
20.699673
 20
0.070029
 30
0.0
 10
20.699673
 20
0.070029
 30
0.0
 10
20.715383
 20
0.057629
 30
0.0
 10
20.724923
 20
0.057629
 30
0.0
  0
SPLINE
  5
249
100
AcDbEntity
  8
Layer_1
 62
7
100
AcDbSpline
 70
8
 71
3
 72
8
 73
4
 74
0
 40
0
 40
0
 40
0
 40
0
 40
1
 40
1
 40
1
 40
1
 10
20.724923
 20
0.057629
 30
0.0
 10
21.356565
 20
0.061029
 30
0.0
 10
22.608568
 20
0.057629
 30
0.0
 10
22.608568
 20
0.057629
 30
0.0
  0
LWPOLYLINE
  5
24a
100
AcDbEntity
  8
Layer_1
 62
7
100
AcDbPolyline
 90
20
 70
0
 10
22.720574
 20
3.709267
 30
0.0
 10
22.668924
 20
3.747057
 30
0.0
 10
22.605264
 20
3.773547
 30
0.0
 10
20.782890
 20
3.773547
 30
0.0
 10
20.682343
 20
3.744407
 30
0.0
 10
20.611643
 20
3.707607
 30
0.0
 10
20.550373
 20
3.660097
 30
0.0
 10
20.498523
 20
3.597257
 30
0.0
 10
20.460813
 20
3.537487
 30
0.0
 10
20.430963
 20
3.470027
 30
0.0
 10
20.420023
 20
3.442407
 30
0.0
 10
20.420023
 20
0.410339
 30
0.0
 10
20.420023
 20
0.353619
 30
0.0
 10
20.448303
 20
0.289229
 30
0.0
 10
20.478153
 20
0.240169
 30
0.0
 10
20.512713
 20
0.203369
 30
0.0
 10
20.551993
 20
0.154309
 30
0.0
 10
20.603843
 20
0.119059
 30
0.0
 10
20.654113
 20
0.097639
 30
0.0
 10
20.699673
 20
0.070029
 30
0.0
  0
SPLINE
  5
24b
100
AcDbEntity
  8
Layer_1
 62
7
100
AcDbSpline
 70
8
 71
3
 72
8
 73
4
 74
0
 40
0
 40
0
 40
0
 40
0
 40
1
 40
1
 40
1
 40
1
 10
22.630525
 20
1.710154
 30
0.0
 10
22.654375
 20
1.710154
 30
0.0
 10
22.691795
 20
1.745404
 30
0.0
 10
22.691795
 20
1.745404
 30
0.0
  0
LWPOLYLINE
  5
24c
100
AcDbEntity
  8
Layer_1
 62
7
100
AcDbPolyline
 90
19
 70
0
 10
22.608568
 20
0.057629
 30
0.0
 10
22.676118
 20
0.077639
 30
0.0
 10
22.737388
 20
0.114439
 30
0.0
 10
22.790808
 20
0.163499
 30
0.0
 10
22.841078
 20
0.223299
 30
0.0
 10
22.852018
 20
0.261619
 30
0.0
 10
22.861518
 20
0.509958
 30
0.0
 10
22.825388
 20
0.585078
 30
0.0
 10
22.779828
 20
0.632588
 30
0.0
 10
22.724838
 20
0.680098
 30
0.0
 10
22.665138
 20
0.716898
 30
0.0
 10
21.581139
 20
0.716898
 30
0.0
 10
21.535749
 20
0.750798
 30
0.0
 10
21.508819
 20
0.798138
 30
0.0
 10
21.508819
 20
1.641234
 30
0.0
 10
21.537099
 20
1.678034
 30
0.0
 10
21.565549
 20
1.700854
 30
0.0
 10
21.596799
 20
1.710154
 30
0.0
 10
22.630525
 20
1.710154
 30
0.0
  0
LWPOLYLINE
  5
24d
100
AcDbEntity
  8
Layer_1
 62
7
100
AcDbPolyline
 90
18
 70
0
 10
22.691795
 20
1.745404
 30
0.0
 10
22.738925
 20
1.782204
 30
0.0
 10
22.790765
 20
1.835094
 30
0.0
 10
22.841825
 20
1.902524
 30
0.0
 10
22.877175
 20
1.983004
 30
0.0
 10
22.877175
 20
2.180762
 30
0.0
 10
22.834755
 20
2.275812
 30
0.0
 10
22.790765
 20
2.334062
 30
0.0
 10
22.734995
 20
2.377742
 30
0.0
 10
22.679225
 20
2.407642
 30
0.0
 10
21.207200
 20
2.407642
 30
0.0
 10
21.163210
 20
2.447482
 30
0.0
 10
21.137960
 20
2.484252
 30
0.0
 10
21.123930
 20
2.527172
 30
0.0
 10
21.123930
 20
2.968646
 30
0.0
 10
21.169490
 20
3.037626
 30
0.0
 10
21.205620
 20
3.066766
 30
0.0
 10
21.260495
 20
3.088417
 30
0.0
  0
SPLINE
  5
24e
100
AcDbEntity
  8
Layer_1
 62
7
100
AcDbSpline
 70
8
 71
3
 72
8
 73
4
 74
0
 40
0
 40
0
 40
0
 40
0
 40
1
 40
1
 40
1
 40
1
 10
25.561100
 20
8.462762
 30
0.0
 10
25.561100
 20
8.462762
 30
0.0
 10
25.572040
 20
8.446982
 30
0.0
 10
25.574570
 20
8.437962
 30
0.0
  0
SPLINE
  5
24f
100
AcDbEntity
  8
Layer_1
 62
7
100
AcDbSpline
 70
8
 71
3
 72
8
 73
4
 74
0
 40
0
 40
0
 40
0
 40
0
 40
1
 40
1
 40
1
 40
1
 10
25.574570
 20
8.437962
 30
0.0
 10
25.589440
 20
8.383322
 30
0.0
 10
25.580170
 20
8.291968
 30
0.0
 10
25.580170
 20
8.291968
 30
0.0
  0
LWPOLYLINE
  5
250
100
AcDbEntity
  8
Layer_1
 62
7
100
AcDbPolyline
 90
6
 70
0
 10
23.737945
 20
8.552932
 30
0.0
 10
25.447990
 20
8.552932
 30
0.0
 10
25.484910
 20
8.534902
 30
0.0
 10
25.513970
 20
8.514892
 30
0.0
 10
25.541180
 20
8.488402
 30
0.0
 10
25.561100
 20
8.462762
 30
0.0
  0
LWPOLYLINE
  5
251
100
AcDbEntity
  8
Layer_1
 62
7
100
AcDbPolyline
 90
74
 70
0
 10
25.580170
 20
8.291968
 30
0.0
 10
25.549530
 20
8.255958
 30
0.0
 10
25.512610
 20
8.225298
 30
0.0
 10
25.470980
 20
8.203038
 30
0.0
 10
25.454430
 20
8.193738
 30
0.0
 10
25.420340
 20
8.184738
 30
0.0
 10
25.388920
 20
8.176538
 30
0.0
 10
24.055450
 20
8.176538
 30
0.0
 10
23.978860
 20
8.150608
 30
0.0
 10
23.929760
 20
8.121868
 30
0.0
 10
23.891270
 20
8.085858
 30
0.0
 10
23.861810
 20
8.037558
 30
0.0
 10
23.849750
 20
7.987818
 30
0.0
 10
23.840450
 20
7.943438
 30
0.0
 10
23.838350
 20
7.892628
 30
0.0
 10
23.839147
 20
7.413282
 30
0.0
 10
23.865517
 20
7.342022
 30
0.0
 10
23.885157
 20
7.303702
 30
0.0
 10
23.909567
 20
7.273042
 30
0.0
 10
23.949627
 20
7.238552
 30
0.0
 10
23.992047
 20
7.211782
 30
0.0
 10
24.030537
 20
7.201072
 30
0.0
 10
25.464871
 20
7.188112
 30
0.0
 10
25.513041
 20
7.170922
 30
0.0
 10
25.550021
 20
7.135392
 30
0.0
 10
25.572461
 20
7.104902
 30
0.0
 10
25.580361
 20
7.037752
 30
0.0
 10
25.580361
 20
6.934562
 30
0.0
 10
25.553151
 20
6.899172
 30
0.0
 10
25.507031
 20
6.862062
 30
0.0
 10
25.458781
 20
6.821712
 30
0.0
 10
24.392570
 20
6.818012
 30
0.0
 10
24.328160
 20
6.770502
 30
0.0
 10
24.286530
 20
6.730652
 30
0.0
 10
24.259880
 20
6.697682
 30
0.0
 10
24.234630
 20
6.656292
 30
0.0
 10
24.222010
 20
6.600332
 30
0.0
 10
24.218110
 20
5.711888
 30
0.0
 10
24.262770
 20
5.644568
 30
0.0
 10
24.291050
 20
5.607768
 30
0.0
 10
24.327180
 20
5.576348
 30
0.0
 10
24.360960
 20
5.550988
 30
0.0
 10
24.396310
 20
5.530978
 30
0.0
 10
24.425370
 20
5.517448
 30
0.0
 10
25.447638
 20
5.516048
 30
0.0
 10
25.479788
 20
5.500548
 30
0.0
 10
25.511318
 20
5.478848
 30
0.0
 10
25.532078
 20
5.458838
 30
0.0
 10
25.551998
 20
5.432918
 30
0.0
 10
25.570518
 20
5.401498
 30
0.0
 10
25.590998
 20
5.364698
 30
0.0
 10
25.590202
 20
5.301068
 30
0.0
 10
25.569722
 20
5.245898
 30
0.0
 10
25.540662
 20
5.216758
 30
0.0
 10
25.498242
 20
5.184548
 30
0.0
 10
25.462112
 20
5.166798
 30
0.0
 10
25.420482
 20
5.148478
 30
0.0
 10
25.359212
 20
5.132138
 30
0.0
 10
25.315222
 20
5.121708
 30
0.0
 10
23.715931
 20
5.121708
 30
0.0
 10
23.621411
 20
5.167048
 30
0.0
 10
23.574531
 20
5.203708
 30
0.0
 10
23.528971
 20
5.245098
 30
0.0
 10
23.492051
 20
5.294918
 30
0.0
 10
23.467641
 20
5.367728
 30
0.0
 10
23.467641
 20
8.334633
 30
0.0
 10
23.489521
 20
8.380623
 30
0.0
 10
23.514771
 20
8.420463
 30
0.0
 10
23.544621
 20
8.457263
 30
0.0
 10
23.580751
 20
8.492513
 30
0.0
 10
23.618451
 20
8.513933
 30
0.0
 10
23.665581
 20
8.539853
 30
0.0
 10
23.717421
 20
8.550563
 30
0.0
 10
23.737945
 20
8.552932
 30
0.0
  0
SPLINE
  5
252
100
AcDbEntity
  8
Layer_1
 62
7
100
AcDbSpline
 70
8
 71
3
 72
8
 73
4
 74
0
 40
0
 40
0
 40
0
 40
0
 40
1
 40
1
 40
1
 40
1
 10
22.681341
 20
3.525967
 30
0.0
 10
22.681341
 20
3.525967
 30
0.0
 10
22.692281
 20
3.510187
 30
0.0
 10
22.694811
 20
3.501167
 30
0.0
  0
SPLINE
  5
253
100
AcDbEntity
  8
Layer_1
 62
7
100
AcDbSpline
 70
8
 71
3
 72
8
 73
4
 74
0
 40
0
 40
0
 40
0
 40
0
 40
1
 40
1
 40
1
 40
1
 10
22.694811
 20
3.501167
 30
0.0
 10
22.709681
 20
3.446527
 30
0.0
 10
22.700411
 20
3.355145
 30
0.0
 10
22.700411
 20
3.355145
 30
0.0
  0
LWPOLYLINE
  5
254
100
AcDbEntity
  8
Layer_1
 62
7
100
AcDbPolyline
 90
6
 70
0
 10
20.858187
 20
3.616137
 30
0.0
 10
22.568231
 20
3.616137
 30
0.0
 10
22.605151
 20
3.598107
 30
0.0
 10
22.634211
 20
3.578097
 30
0.0
 10
22.661421
 20
3.551607
 30
0.0
 10
22.681341
 20
3.525967
 30
0.0
  0
LWPOLYLINE
  5
255
100
AcDbEntity
  8
Layer_1
 62
7
100
AcDbPolyline
 90
74
 70
0
 10
22.700411
 20
3.355145
 30
0.0
 10
22.669771
 20
3.319135
 30
0.0
 10
22.632851
 20
3.288475
 30
0.0
 10
22.591221
 20
3.266215
 30
0.0
 10
22.574671
 20
3.256915
 30
0.0
 10
22.540581
 20
3.247915
 30
0.0
 10
22.509161
 20
3.239715
 30
0.0
 10
21.175691
 20
3.239715
 30
0.0
 10
21.099101
 20
3.213785
 30
0.0
 10
21.050001
 20
3.185045
 30
0.0
 10
21.011511
 20
3.149035
 30
0.0
 10
20.982051
 20
3.100765
 30
0.0
 10
20.969991
 20
3.051035
 30
0.0
 10
20.960691
 20
3.006655
 30
0.0
 10
20.958591
 20
2.955845
 30
0.0
 10
20.959390
 20
2.476502
 30
0.0
 10
20.985760
 20
2.405212
 30
0.0
 10
21.005400
 20
2.366892
 30
0.0
 10
21.029810
 20
2.336232
 30
0.0
 10
21.069870
 20
2.301742
 30
0.0
 10
21.112290
 20
2.274972
 30
0.0
 10
21.150780
 20
2.264262
 30
0.0
 10
22.585115
 20
2.251302
 30
0.0
 10
22.633285
 20
2.234112
 30
0.0
 10
22.670235
 20
2.198582
 30
0.0
 10
22.692675
 20
2.168092
 30
0.0
 10
22.700575
 20
2.100942
 30
0.0
 10
22.700575
 20
1.997724
 30
0.0
 10
22.673365
 20
1.962334
 30
0.0
 10
22.627245
 20
1.925224
 30
0.0
 10
22.578995
 20
1.884874
 30
0.0
 10
21.512782
 20
1.881174
 30
0.0
 10
21.448372
 20
1.833664
 30
0.0
 10
21.406742
 20
1.793824
 30
0.0
 10
21.380092
 20
1.760854
 30
0.0
 10
21.354842
 20
1.719464
 30
0.0
 10
21.342222
 20
1.663504
 30
0.0
 10
21.338322
 20
0.775060
 30
0.0
 10
21.382982
 20
0.707740
 30
0.0
 10
21.411262
 20
0.670940
 30
0.0
 10
21.447392
 20
0.639520
 30
0.0
 10
21.481172
 20
0.614160
 30
0.0
 10
21.516522
 20
0.594150
 30
0.0
 10
21.545582
 20
0.580620
 30
0.0
 10
22.567851
 20
0.579220
 30
0.0
 10
22.600001
 20
0.563720
 30
0.0
 10
22.631531
 20
0.542020
 30
0.0
 10
22.652291
 20
0.522010
 30
0.0
 10
22.672211
 20
0.496080
 30
0.0
 10
22.690731
 20
0.464660
 30
0.0
 10
22.711211
 20
0.427860
 30
0.0
 10
22.710411
 20
0.364260
 30
0.0
 10
22.689931
 20
0.309090
 30
0.0
 10
22.660871
 20
0.279950
 30
0.0
 10
22.618451
 20
0.247770
 30
0.0
 10
22.582321
 20
0.230020
 30
0.0
 10
22.540691
 20
0.211700
 30
0.0
 10
22.479421
 20
0.195360
 30
0.0
 10
22.435431
 20
0.184930
 30
0.0
 10
20.836140
 20
0.184930
 30
0.0
 10
20.741630
 20
0.230270
 30
0.0
 10
20.694750
 20
0.266930
 30
0.0
 10
20.649190
 20
0.308320
 30
0.0
 10
20.612270
 20
0.358140
 30
0.0
 10
20.587860
 20
0.430950
 30
0.0
 10
20.587860
 20
3.397857
 30
0.0
 10
20.609740
 20
3.443847
 30
0.0
 10
20.634990
 20
3.483687
 30
0.0
 10
20.664840
 20
3.520487
 30
0.0
 10
20.700970
 20
3.555737
 30
0.0
 10
20.738670
 20
3.577157
 30
0.0
 10
20.785800
 20
3.603077
 30
0.0
 10
20.837650
 20
3.613787
 30
0.0
 10
20.858187
 20
3.616137
 30
0.0
  0
LWPOLYLINE
  5
256
100
AcDbEntity
  8
Layer_1
 62
7
100
AcDbPolyline
 90
79
 70
1
 10
26.297399
 20
5.404142
 30
0.0
 10
26.297399
 20
8.257021
 30
0.0
 10
26.325759
 20
8.434012
 30
0.0
 10
26.361589
 20
8.523652
 30
0.0
 10
26.412929
 20
8.588692
 30
0.0
 10
26.465589
 20
8.643552
 30
0.0
 10
26.521809
 20
8.681902
 30
0.0
 10
26.604009
 20
8.727442
 30
0.0
 10
26.672879
 20
8.742662
 30
0.0
 10
28.796871
 20
8.742662
 30
0.0
 10
28.880751
 20
8.721532
 30
0.0
 10
28.981382
 20
8.678272
 30
0.0
 10
29.043462
 20
8.640792
 30
0.0
 10
29.105682
 20
8.588772
 30
0.0
 10
29.154552
 20
8.521562
 30
0.0
 10
29.172222
 20
8.481912
 30
0.0
 10
29.187932
 20
8.441332
 30
0.0
 10
29.187932
 20
5.306632
 30
0.0
 10
29.176712
 20
5.193917
 30
0.0
 10
29.159042
 20
5.140797
 30
0.0
 10
29.134632
 20
5.092017
 30
0.0
 10
29.070192
 20
5.023737
 30
0.0
 10
29.016862
 20
4.995557
 30
0.0
 10
28.959102
 20
4.979217
 30
0.0
 10
28.910232
 20
4.980317
 30
0.0
 10
28.845792
 20
4.979217
 30
0.0
 10
28.803572
 20
4.977017
 30
0.0
 10
28.754702
 20
4.980417
 30
0.0
 10
28.694722
 20
4.993377
 30
0.0
 10
28.662512
 20
5.017327
 30
0.0
 10
28.622532
 20
5.042127
 30
0.0
 10
28.591422
 20
5.068047
 30
0.0
 10
28.563652
 20
5.101667
 30
0.0
 10
28.537002
 20
5.149347
 30
0.0
 10
28.512592
 20
5.213317
 30
0.0
 10
28.499122
 20
5.279817
 30
0.0
 10
28.488182
 20
7.928530
 30
0.0
 10
28.480882
 20
7.977590
 30
0.0
 10
28.450242
 20
8.016670
 30
0.0
 10
28.414112
 20
8.039780
 30
0.0
 10
28.341062
 20
8.042080
 30
0.0
 10
27.121955
 20
8.042080
 30
0.0
 10
27.070105
 20
8.032780
 30
0.0
 10
27.029255
 20
8.003640
 30
0.0
 10
27.015225
 20
7.956130
 30
0.0
 10
27.015225
 20
7.488597
 30
0.0
 10
27.016825
 20
7.445677
 30
0.0
 10
27.082805
 20
7.402757
 30
0.0
 10
27.150355
 20
7.365957
 30
0.0
 10
27.208485
 20
7.330707
 30
0.0
 10
27.285465
 20
7.284717
 30
0.0
 10
27.310715
 20
7.247947
 30
0.0
 10
27.353135
 20
7.200437
 30
0.0
 10
27.373615
 20
7.154447
 30
0.0
 10
27.383115
 20
7.117647
 30
0.0
 10
27.392615
 20
7.079327
 30
0.0
 10
27.392615
 20
5.373215
 30
0.0
 10
27.381675
 20
5.311895
 30
0.0
 10
27.353395
 20
5.261315
 30
0.0
 10
27.328145
 20
5.210735
 30
0.0
 10
27.296725
 20
5.163225
 30
0.0
 10
27.259025
 20
5.126425
 30
0.0
 10
27.224465
 20
5.100495
 30
0.0
 10
27.185185
 20
5.074575
 30
0.0
 10
27.139625
 20
5.039325
 30
0.0
 10
27.081495
 20
5.017905
 30
0.0
 10
27.017085
 20
5.007195
 30
0.0
 10
26.930675
 20
5.002695
 30
0.0
 10
26.784568
 20
5.002695
 30
0.0
 10
26.682450
 20
5.002695
 30
0.0
 10
26.594470
 20
5.017915
 30
0.0
 10
26.526920
 20
5.041025
 30
0.0
 10
26.471930
 20
5.070165
 30
0.0
 10
26.432650
 20
5.097785
 30
0.0
 10
26.406000
 20
5.136105
 30
0.0
 10
26.377720
 20
5.182095
 30
0.0
 10
26.341590
 20
5.252595
 30
0.0
 10
26.321110
 20
5.300105
 30
0.0
 10
26.302310
 20
5.370605
 30
0.0
  0
LWPOLYLINE
  5
257
100
AcDbEntity
  8
Layer_1
 62
7
100
AcDbPolyline
 90
80
 70
1
 10
26.710300
 20
8.573936
 30
0.0
 10
28.755760
 20
8.573936
 30
0.0
 10
28.829230
 20
8.557596
 30
0.0
 10
28.879050
 20
8.542946
 30
0.0
 10
28.912380
 20
8.526036
 30
0.0
 10
28.941280
 20
8.504906
 30
0.0
 10
28.964560
 20
8.484336
 30
0.0
 10
28.983360
 20
8.459536
 30
0.0
 10
29.002160
 20
8.431356
 30
0.0
 10
29.016470
 20
8.411916
 30
0.0
 10
29.035270
 20
8.387116
 30
0.0
 10
29.035270
 20
5.318535
 30
0.0
 10
29.031370
 20
5.263245
 30
0.0
 10
29.018460
 20
5.222615
 30
0.0
 10
28.997420
 20
5.179815
 30
0.0
 10
28.971330
 20
5.150005
 30
0.0
 10
28.921900
 20
5.133665
 30
0.0
 10
28.872470
 20
5.122955
 30
0.0
 10
28.788590
 20
5.129455
 30
0.0
 10
28.745270
 20
5.150585
 30
0.0
 10
28.719740
 20
5.166925
 30
0.0
 10
28.698700
 20
5.192285
 30
0.0
 10
28.675410
 20
5.234555
 30
0.0
 10
28.667510
 20
5.257385
 30
0.0
 10
28.660210
 20
7.975857
 30
0.0
 10
28.634120
 20
8.055517
 30
0.0
 10
28.598010
 20
8.108637
 30
0.0
 10
28.567010
 20
8.144367
 30
0.0
 10
28.519710
 20
8.173137
 30
0.0
 10
28.476930
 20
8.186667
 30
0.0
 10
27.005008
 20
8.186667
 30
0.0
 10
26.955018
 20
8.162147
 30
0.0
 10
26.924468
 20
8.133967
 30
0.0
 10
26.900058
 20
8.100377
 30
0.0
 10
26.884628
 20
8.077557
 30
0.0
 10
26.859098
 20
8.040167
 30
0.0
 10
26.854098
 20
8.027207
 30
0.0
 10
26.854098
 20
7.425630
 30
0.0
 10
26.867008
 20
7.380090
 30
0.0
 10
26.889728
 20
7.337820
 30
0.0
 10
26.910208
 20
7.310200
 30
0.0
 10
26.944658
 20
7.288500
 30
0.0
 10
26.978548
 20
7.269060
 30
0.0
 10
27.034098
 20
7.238710
 30
0.0
 10
27.091858
 20
7.211090
 30
0.0
 10
27.131308
 20
7.185730
 30
0.0
 10
27.165728
 20
7.164600
 30
0.0
 10
27.188448
 20
7.128840
 30
0.0
 10
27.211168
 20
7.098490
 30
0.0
 10
27.222108
 20
7.064230
 30
0.0
 10
27.233888
 20
7.038590
 30
0.0
 10
27.238088
 20
7.018580
 30
0.0
 10
27.238088
 20
5.422453
 30
0.0
 10
27.220698
 20
5.384133
 30
0.0
 10
27.208918
 20
5.339303
 30
0.0
 10
27.192928
 20
5.294833
 30
0.0
 10
27.168518
 20
5.253833
 30
0.0
 10
27.138278
 20
5.225093
 30
0.0
 10
27.099118
 20
5.200573
 30
0.0
 10
27.060908
 20
5.185073
 30
0.0
 10
27.029488
 20
5.174083
 30
0.0
 10
26.995708
 20
5.164783
 30
0.0
 10
26.963108
 20
5.157983
 30
0.0
 10
26.662654
 20
5.157983
 30
0.0
 10
26.615914
 20
5.184753
 30
0.0
 10
26.585284
 20
5.208423
 30
0.0
 10
26.557004
 20
5.232093
 30
0.0
 10
26.535124
 20
5.254633
 30
0.0
 10
26.511564
 20
5.285683
 30
0.0
 10
26.489684
 20
5.321333
 30
0.0
 10
26.473974
 20
5.357743
 30
0.0
 10
26.465874
 20
5.403953
 30
0.0
 10
26.465874
 20
8.345330
 30
0.0
 10
26.487474
 20
8.406650
 30
0.0
 10
26.509354
 20
8.448040
 30
0.0
 10
26.532924
 20
8.486360
 30
0.0
 10
26.567484
 20
8.527750
 30
0.0
 10
26.597334
 20
8.541560
 30
0.0
 10
26.638264
 20
8.557060
 30
0.0
 10
26.679024
 20
8.566060
 30
0.0
  0
LWPOLYLINE
  5
258
100
AcDbEntity
  8
Layer_1
 62
7
100
AcDbPolyline
 90
97
 70
1
 10
0.012503
 20
0.405137
 30
0.0
 10
0.012503
 20
3.403224
 30
0.0
 10
0.029672
 20
3.489934
 30
0.0
 10
0.049675
 20
3.544124
 30
0.0
 10
0.074110
 20
3.593974
 30
0.0
 10
0.102992
 20
3.630834
 30
0.0
 10
0.154093
 20
3.678544
 30
0.0
 10
0.209638
 20
3.713234
 30
0.0
 10
0.280733
 20
3.747924
 30
0.0
 10
0.338497
 20
3.769624
 30
0.0
 10
0.418480
 20
3.780334
 30
0.0
 10
3.685560
 20
3.780334
 30
0.0
 10
3.754700
 20
3.754124
 30
0.0
 10
3.811090
 20
3.725044
 30
0.0
 10
3.869970
 20
3.686014
 30
0.0
 10
3.918850
 20
3.645914
 30
0.0
 10
3.952170
 20
3.613394
 30
0.0
 10
3.969960
 20
3.589444
 30
0.0
 10
3.993300
 20
3.551514
 30
0.0
 10
4.008840
 20
3.501664
 30
0.0
 10
4.023290
 20
3.447474
 30
0.0
 10
4.023290
 20
0.232563
 30
0.0
 10
3.998850
 20
0.171863
 30
0.0
 10
3.968850
 20
0.127423
 30
0.0
 10
3.925530
 20
0.082983
 30
0.0
 10
3.891090
 20
0.055933
 30
0.0
 10
3.855540
 20
0.035363
 30
0.0
 10
3.818880
 20
0.020143
 30
0.0
 10
3.774440
 20
0.012543
 30
0.0
 10
3.558932
 20
0.012543
 30
0.0
 10
3.500052
 20
0.050473
 30
0.0
 10
3.463392
 20
0.080823
 30
0.0
 10
3.423402
 20
0.114413
 30
0.0
 10
3.392852
 20
0.151803
 30
0.0
 10
3.371192
 20
0.184853
 30
0.0
 10
3.348972
 20
0.230393
 30
0.0
 10
3.340072
 20
0.248713
 30
0.0
 10
3.340072
 20
3.021384
 30
0.0
 10
3.322282
 20
3.048434
 30
0.0
 10
3.296722
 20
3.077714
 30
0.0
 10
3.243402
 20
3.089544
 30
0.0
 10
2.554653
 20
3.089544
 30
0.0
 10
2.528843
 20
3.068414
 30
0.0
 10
2.506033
 20
3.038684
 30
0.0
 10
2.496933
 20
3.003854
 30
0.0
 10
2.496933
 20
0.255961
 30
0.0
 10
2.463293
 20
0.188501
 30
0.0
 10
2.425583
 20
0.128731
 30
0.0
 10
2.380023
 20
0.078151
 30
0.0
 10
2.317183
 20
0.038311
 30
0.0
 10
2.268483
 20
0.013791
 30
0.0
 10
1.990413
 20
0.013791
 30
0.0
 10
1.922863
 20
0.049041
 30
0.0
 10
1.878874
 20
0.082771
 30
0.0
 10
1.836456
 20
0.122611
 30
0.0
 10
1.798751
 20
0.174741
 30
0.0
 10
1.773614
 20
0.239131
 30
0.0
 10
1.761046
 20
0.274381
 30
0.0
 10
1.761046
 20
3.007135
 30
0.0
 10
1.745981
 20
3.031935
 30
0.0
 10
1.724884
 20
3.055885
 30
0.0
 10
1.683782
 20
3.075325
 30
0.0
 10
0.812838
 20
3.075325
 30
0.0
 10
0.777874
 20
3.066825
 30
0.0
 10
0.750156
 20
3.051325
 30
0.0
 10
0.729648
 20
3.025405
 30
0.0
 10
0.716182
 20
2.989815
 30
0.0
 10
0.716182
 20
2.506387
 30
0.0
 10
0.740617
 20
2.468457
 30
0.0
 10
0.783941
 20
2.447887
 30
0.0
 10
0.827265
 20
2.427877
 30
0.0
 10
0.875033
 20
2.410127
 30
0.0
 10
0.925023
 20
2.380847
 30
0.0
 10
0.955019
 20
2.358027
 30
0.0
 10
1.002787
 20
2.321167
 30
0.0
 10
1.030561
 20
2.286477
 30
0.0
 10
1.057213
 20
2.239867
 30
0.0
 10
1.072755
 20
2.185677
 30
0.0
 10
1.079435
 20
2.119567
 30
0.0
 10
1.079435
 20
0.347359
 30
0.0
 10
1.053288
 20
0.282969
 30
0.0
 10
1.029722
 20
0.250789
 30
0.0
 10
1.008513
 20
0.220889
 30
0.0
 10
0.964524
 20
0.174139
 30
0.0
 10
0.935460
 20
0.144999
 30
0.0
 10
0.889114
 20
0.112819
 30
0.0
 10
0.838843
 20
0.085199
 30
0.0
 10
0.789355
 20
0.066039
 30
0.0
 10
0.750079
 20
0.056139
 30
0.0
 10
0.696663
 20
0.049939
 30
0.0
 10
0.309424
 20
0.049939
 30
0.0
 10
0.244226
 20
0.070509
 30
0.0
 10
0.188454
 20
0.108829
 30
0.0
 10
0.134253
 20
0.157129
 30
0.0
 10
0.084765
 20
0.214609
 30
0.0
 10
0.050988
 20
0.270569
 30
0.0
 10
0.028348
 20
0.317629
 30
0.0
  0
LWPOLYLINE
  5
259
100
AcDbEntity
  8
Layer_1
 62
7
100
AcDbPolyline
 90
82
 70
1
 10
0.169604
 20
0.406670
 30
0.0
 10
0.169604
 20
3.405391
 30
0.0
 10
0.193675
 20
3.465831
 30
0.0
 10
0.229627
 20
3.522441
 30
0.0
 10
0.278506
 20
3.565811
 30
0.0
 10
0.345158
 20
3.593991
 30
0.0
 10
0.405144
 20
3.613431
 30
0.0
 10
0.456245
 20
3.617631
 30
0.0
 10
3.622236
 20
3.617631
 30
0.0
 10
3.691106
 20
3.600161
 30
0.0
 10
3.733316
 20
3.578741
 30
0.0
 10
3.771086
 20
3.543801
 30
0.0
 10
3.792186
 20
3.522101
 30
0.0
 10
3.818836
 20
3.493921
 30
0.0
 10
3.843276
 20
3.462471
 30
0.0
 10
3.868836
 20
3.419101
 30
0.0
 10
3.883286
 20
3.383341
 30
0.0
 10
3.883286
 20
0.305006
 30
0.0
 10
3.873286
 20
0.271956
 30
0.0
 10
3.853286
 20
0.241076
 30
0.0
 10
3.823336
 20
0.206476
 30
0.0
 10
3.788306
 20
0.175476
 30
0.0
 10
3.754426
 20
0.158006
 30
0.0
 10
3.618346
 20
0.158006
 30
0.0
 10
3.580576
 20
0.181956
 30
0.0
 10
3.541696
 20
0.212836
 30
0.0
 10
3.510036
 20
0.250766
 30
0.0
 10
3.488376
 20
0.288156
 30
0.0
 10
3.488376
 20
3.018010
 30
0.0
 10
3.472836
 20
3.069490
 30
0.0
 10
3.444506
 20
3.118800
 30
0.0
 10
3.415626
 20
3.158360
 30
0.0
 10
3.376746
 20
3.190340
 30
0.0
 10
3.336196
 20
3.213170
 30
0.0
 10
3.281766
 20
3.219070
 30
0.0
 10
2.491932
 20
3.219070
 30
0.0
 10
2.433612
 20
3.183310
 30
0.0
 10
2.389732
 20
3.146450
 30
0.0
 10
2.356962
 20
3.105250
 30
0.0
 10
2.343632
 20
3.065690
 30
0.0
 10
2.333632
 20
0.312532
 30
0.0
 10
2.317532
 20
0.270262
 30
0.0
 10
2.291502
 20
0.230752
 30
0.0
 10
2.257982
 20
0.192822
 30
0.0
 10
2.224832
 20
0.169712
 30
0.0
 10
2.193472
 20
0.155062
 30
0.0
 10
2.027337
 20
0.155062
 30
0.0
 10
1.986887
 20
0.196822
 30
0.0
 10
1.957827
 20
0.225562
 30
0.0
 10
1.937007
 20
0.257372
 30
0.0
 10
1.928807
 20
0.289552
 30
0.0
 10
1.927107
 20
0.309562
 30
0.0
 10
1.927107
 20
2.941861
 30
0.0
 10
1.921507
 20
3.056774
 30
0.0
 10
1.870962
 20
3.140244
 30
0.0
 10
1.811532
 20
3.197704
 30
0.0
 10
1.730438
 20
3.229154
 30
0.0
 10
0.740630
 20
3.229154
 30
0.0
 10
0.683379
 20
3.194044
 30
0.0
 10
0.637900
 20
3.154904
 30
0.0
 10
0.604967
 20
3.111424
 30
0.0
 10
0.577333
 20
3.051434
 30
0.0
 10
0.561791
 20
2.985324
 30
0.0
 10
0.561791
 20
2.439028
 30
0.0
 10
0.596228
 20
2.378328
 30
0.0
 10
0.628577
 20
2.342818
 30
0.0
 10
0.659546
 20
2.319708
 30
0.0
 10
0.705092
 20
2.295758
 30
0.0
 10
0.766189
 20
2.267578
 30
0.0
 10
0.815068
 20
2.248138
 30
0.0
 10
0.868391
 20
2.213448
 30
0.0
 10
0.895043
 20
2.179858
 30
0.0
 10
0.916140
 20
2.133248
 30
0.0
 10
0.916140
 20
0.376755
 30
0.0
 10
0.885036
 20
0.310645
 30
0.0
 10
0.830046
 20
0.260795
 30
0.0
 10
0.751729
 20
0.223935
 30
0.0
 10
0.667858
 20
0.192485
 30
0.0
 10
0.321275
 20
0.192485
 30
0.0
 10
0.263508
 20
0.260765
 30
0.0
 10
0.228516
 20
0.299255
 30
0.0
 10
0.192413
 20
0.344225
 30
0.0
  0
LWPOLYLINE
  5
25a
100
AcDbEntity
  8
Layer_1
 62
7
100
AcDbPolyline
 90
62
 70
1
 10
4.559816
 20
0.372582
 30
0.0
 10
4.559816
 20
3.411895
 30
0.0
 10
4.580606
 20
3.462365
 30
0.0
 10
4.605746
 20
3.502945
 30
0.0
 10
4.635226
 20
3.539155
 30
0.0
 10
4.674506
 20
3.582835
 30
0.0
 10
4.709066
 20
3.618845
 30
0.0
 10
4.747286
 20
3.653255
 30
0.0
 10
4.792276
 20
3.689665
 30
0.0
 10
4.841786
 20
3.722295
 30
0.0
 10
4.893386
 20
3.749625
 30
0.0
 10
4.944196
 20
3.770195
 30
0.0
 10
7.161510
 20
3.776095
 30
0.0
 10
7.235940
 20
3.746565
 30
0.0
 10
7.284810
 20
3.717565
 30
0.0
 10
7.337660
 20
3.680255
 30
0.0
 10
7.378110
 20
3.641675
 30
0.0
 10
7.412170
 20
3.605215
 30
0.0
 10
7.438820
 20
3.571875
 30
0.0
 10
7.467580
 20
3.532535
 30
0.0
 10
7.493110
 20
3.492525
 30
0.0
 10
7.513590
 20
3.448905
 30
0.0
 10
7.531540
 20
3.407565
 30
0.0
 10
7.531540
 20
0.207831
 30
0.0
 10
7.503770
 20
0.162321
 30
0.0
 10
7.479360
 20
0.125461
 30
0.0
 10
7.441600
 20
0.082091
 30
0.0
 10
7.384960
 20
0.046331
 30
0.0
 10
7.344950
 20
0.026321
 30
0.0
 10
7.303850
 20
0.012791
 30
0.0
 10
7.090550
 20
0.012791
 30
0.0
 10
7.016120
 20
0.049651
 30
0.0
 10
6.973340
 20
0.080531
 30
0.0
 10
6.937230
 20
0.112511
 30
0.0
 10
6.906120
 20
0.141791
 30
0.0
 10
6.881710
 20
0.179011
 30
0.0
 10
6.867960
 20
0.223001
 30
0.0
 10
6.856460
 20
0.284941
 30
0.0
 10
6.843840
 20
1.664695
 30
0.0
 10
6.812700
 20
1.694395
 30
0.0
 10
6.778140
 20
1.718065
 30
0.0
 10
6.744360
 20
1.730465
 30
0.0
 10
5.734197
 20
1.730465
 30
0.0
 10
5.690997
 20
1.714405
 30
0.0
 10
5.661937
 20
1.682225
 30
0.0
 10
5.644547
 20
1.644665
 30
0.0
 10
5.644547
 20
0.442107
 30
0.0
 10
5.616267
 20
0.347057
 30
0.0
 10
5.583277
 20
0.270407
 30
0.0
 10
5.548717
 20
0.202977
 30
0.0
 10
5.495307
 20
0.149327
 30
0.0
 10
5.440317
 20
0.097197
 30
0.0
 10
5.360197
 20
0.060397
 30
0.0
 10
5.261217
 20
0.037287
 30
0.0
 10
5.096260
 20
0.034187
 30
0.0
 10
4.873174
 20
0.034187
 30
0.0
 10
4.769488
 20
0.066367
 30
0.0
 10
4.720788
 20
0.109287
 30
0.0
 10
4.673658
 20
0.147607
 30
0.0
 10
4.629668
 20
0.198187
 30
0.0
 10
4.585678
 20
0.256427
 30
0.0
 10
4.563678
 20
0.322337
 30
0.0
  0
LWPOLYLINE
  5
25b
100
AcDbEntity
  8
Layer_1
 62
7
100
AcDbPolyline
 90
25
 70
1
 10
5.666245
 20
3.136580
 30
0.0
 10
6.768233
 20
3.136580
 30
0.0
 10
6.837103
 20
3.106230
 30
0.0
 10
6.888193
 20
3.069370
 30
0.0
 10
6.921523
 20
3.034680
 30
0.0
 10
6.954853
 20
2.982660
 30
0.0
 10
6.968323
 20
2.950140
 30
0.0
 10
6.968323
 20
2.492726
 30
0.0
 10
6.957103
 20
2.438536
 30
0.0
 10
6.928233
 20
2.410356
 30
0.0
 10
6.881583
 20
2.358336
 30
0.0
 10
6.834923
 20
2.323646
 30
0.0
 10
6.746043
 20
2.288956
 30
0.0
 10
6.664213
 20
2.270636
 30
0.0
 10
5.765595
 20
2.270636
 30
0.0
 10
5.676045
 20
2.305886
 30
0.0
 10
5.613205
 20
2.342686
 30
0.0
 10
5.558215
 20
2.388676
 30
0.0
 10
5.509515
 20
2.451516
 30
0.0
 10
5.470235
 20
2.499026
 30
0.0
 10
5.448355
 20
2.538866
 30
0.0
 10
5.448355
 20
2.920559
 30
0.0
 10
5.504915
 20
3.018679
 30
0.0
 10
5.564615
 20
3.079999
 30
0.0
 10
5.622745
 20
3.115249
 30
0.0
  0
SPLINE
  5
25c
100
AcDbEntity
  8
Layer_1
 62
7
100
AcDbSpline
 70
8
 71
3
 72
8
 73
4
 74
0
 40
0
 40
0
 40
0
 40
0
 40
1
 40
1
 40
1
 40
1
 10
5.479172
 20
0.529512
 30
0.0
 10
5.479172
 20
0.529512
 30
0.0
 10
5.465702
 20
0.452192
 30
0.0
 10
5.451402
 20
0.415698
 30
0.0
  0
SPLINE
  5
25d
100
AcDbEntity
  8
Layer_1
 62
7
100
AcDbSpline
 70
8
 71
3
 72
8
 73
4
 74
0
 40
0
 40
0
 40
0
 40
0
 40
1
 40
1
 40
1
 40
1
 10
5.451402
 20
0.415698
 30
0.0
 10
5.439342
 20
0.384698
 30
0.0
 10
5.421352
 20
0.356158
 30
0.0
 10
5.403622
 20
0.327898
 30
0.0
  0
SPLINE
  5
25e
100
AcDbEntity
  8
Layer_1
 62
7
100
AcDbSpline
 70
8
 71
3
 72
8
 73
4
 74
0
 40
0
 40
0
 40
0
 40
0
 40
1
 40
1
 40
1
 40
1
 10
5.403622
 20
0.327898
 30
0.0
 10
5.403622
 20
0.327898
 30
0.0
 10
5.384262
 20
0.290508
 30
0.0
 10
5.370292
 20
0.274778
 30
0.0
  0
SPLINE
  5
25f
100
AcDbEntity
  8
Layer_1
 62
7
100
AcDbSpline
 70
8
 71
3
 72
8
 73
4
 74
0
 40
0
 40
0
 40
0
 40
0
 40
1
 40
1
 40
1
 40
1
 10
5.370292
 20
0.274778
 30
0.0
 10
5.354022
 20
0.256178
 30
0.0
 10
5.334472
 20
0.239558
 30
0.0
 10
5.312532
 20
0.227638
 30
0.0
  0
SPLINE
  5
260
100
AcDbEntity
  8
Layer_1
 62
7
100
AcDbSpline
 70
8
 71
3
 72
8
 73
4
 74
0
 40
0
 40
0
 40
0
 40
0
 40
1
 40
1
 40
1
 40
1
 10
5.312532
 20
0.227638
 30
0.0
 10
5.289242
 20
0.214958
 30
0.0
 10
5.263182
 20
0.207348
 30
0.0
 10
5.236992
 20
0.203118
 30
0.0
  0
SPLINE
  5
261
100
AcDbEntity
  8
Layer_1
 62
7
100
AcDbSpline
 70
8
 71
3
 72
8
 73
4
 74
0
 40
0
 40
0
 40
0
 40
0
 40
1
 40
1
 40
1
 40
1
 10
5.236992
 20
0.203118
 30
0.0
 10
5.117996
 20
0.184518
 30
0.0
 10
4.881249
 20
0.199418
 30
0.0
 10
4.875402
 20
0.203118
 30
0.0
  0
LWPOLYLINE
  5
262
100
AcDbEntity
  8
Layer_1
 62
7
100
AcDbPolyline
 90
33
 70
0
 10
5.004165
 20
3.597246
 30
0.0
 10
7.094828
 20
3.597246
 30
0.0
 10
7.142608
 20
3.590746
 30
0.0
 10
7.204808
 20
3.561466
 30
0.0
 10
7.250368
 20
3.523536
 30
0.0
 10
7.299238
 20
3.480166
 30
0.0
 10
7.327008
 20
3.427046
 30
0.0
 10
7.354778
 20
3.362006
 30
0.0
 10
7.388108
 20
3.288296
 30
0.0
 10
7.388108
 20
0.282040
 30
0.0
 10
7.349228
 20
0.231090
 30
0.0
 10
7.319798
 20
0.195870
 30
0.0
 10
7.268148
 20
0.166060
 30
0.0
 10
7.190378
 20
0.159560
 30
0.0
 10
7.148718
 20
0.167160
 30
0.0
 10
7.104278
 20
0.186600
 30
0.0
 10
7.067608
 20
0.220190
 30
0.0
 10
7.027628
 20
0.271140
 30
0.0
 10
7.018128
 20
0.320990
 30
0.0
 10
7.018128
 20
1.635944
 30
0.0
 10
7.008828
 20
1.701854
 30
0.0
 10
6.975048
 20
1.763174
 30
0.0
 10
6.943628
 20
1.806854
 30
0.0
 10
6.908278
 20
1.835204
 30
0.0
 10
6.866648
 20
1.861134
 30
0.0
 10
6.802238
 20
1.872684
 30
0.0
 10
5.670322
 20
1.872684
 30
0.0
 10
5.598052
 20
1.842024
 30
0.0
 10
5.554062
 20
1.808294
 30
0.0
 10
5.528252
 20
1.775324
 30
0.0
 10
5.502442
 20
1.730094
 30
0.0
 10
5.474672
 20
1.695094
 30
0.0
 10
5.479172
 20
0.529512
 30
0.0
  0
SPLINE
  5
263
100
AcDbEntity
  8
Layer_1
 62
7
100
AcDbSpline
 70
8
 71
3
 72
8
 73
4
 74
0
 40
0
 40
0
 40
0
 40
0
 40
1
 40
1
 40
1
 40
1
 10
4.815412
 20
0.239978
 30
0.0
 10
4.815412
 20
0.239978
 30
0.0
 10
4.783622
 20
0.263368
 30
0.0
 10
4.772642
 20
0.277368
 30
0.0
  0
SPLINE
  5
264
100
AcDbEntity
  8
Layer_1
 62
7
100
AcDbSpline
 70
8
 71
3
 72
8
 73
4
 74
0
 40
0
 40
0
 40
0
 40
0
 40
1
 40
1
 40
1
 40
1
 10
4.772642
 20
0.277368
 30
0.0
 10
4.756932
 20
0.297658
 30
0.0
 10
4.734312
 20
0.341868
 30
0.0
 10
4.734312
 20
0.341868
 30
0.0
  0
LWPOLYLINE
  5
265
100
AcDbEntity
  8
Layer_1
 62
7
100
AcDbPolyline
 90
2
 70
0
 10
4.875402
 20
0.203118
 30
0.0
 10
4.815412
 20
0.239978
 30
0.0
  0
LWPOLYLINE
  5
266
100
AcDbEntity
  8
Layer_1
 62
7
100
AcDbPolyline
 90
11
 70
0
 10
4.734312
 20
0.341868
 30
0.0
 10
4.706542
 20
0.428038
 30
0.0
 10
4.706542
 20
3.376671
 30
0.0
 10
4.728202
 20
3.409891
 30
0.0
 10
4.753762
 20
3.442941
 30
0.0
 10
4.782652
 20
3.473291
 30
0.0
 10
4.816532
 20
3.508511
 30
0.0
 10
4.844862
 20
3.539391
 30
0.0
 10
4.885962
 20
3.568671
 30
0.0
 10
4.929842
 20
3.593191
 30
0.0
 10
5.004165
 20
3.597246
 30
0.0
  0
LWPOLYLINE
  5
267
100
AcDbEntity
  8
Layer_1
 62
7
100
AcDbPolyline
 90
91
 70
1
 10
8.490088
 20
3.620009
 30
0.0
 10
10.585196
 20
3.620009
 30
0.0
 10
10.645176
 20
3.598309
 30
0.0
 10
10.680156
 20
3.580559
 30
0.0
 10
10.716266
 20
3.548579
 30
0.0
 10
10.767356
 20
3.490589
 30
0.0
 10
10.789516
 20
3.446689
 30
0.0
 10
10.798516
 20
3.396839
 30
0.0
 10
10.803016
 20
3.364319
 30
0.0
 10
10.803016
 20
2.752990
 30
0.0
 10
10.794316
 20
2.722050
 30
0.0
 10
10.777766
 20
2.688380
 30
0.0
 10
10.755886
 20
2.656370
 30
0.0
 10
10.728956
 20
2.631290
 30
0.0
 10
10.704266
 20
2.613820
 30
0.0
 10
10.667456
 20
2.603680
 30
0.0
 10
10.566376
 20
2.603680
 30
0.0
 10
10.490826
 20
2.661140
 30
0.0
 10
10.465296
 20
2.699070
 30
0.0
 10
10.439766
 20
2.745680
 30
0.0
 10
10.438666
 20
3.043757
 30
0.0
 10
10.425196
 20
3.094707
 30
0.0
 10
10.390776
 20
3.147827
 30
0.0
 10
10.350766
 20
3.189027
 30
0.0
 10
10.305206
 20
3.218307
 30
0.0
 10
10.260766
 20
3.232397
 30
0.0
 10
8.804406
 20
3.232397
 30
0.0
 10
8.763866
 20
3.217177
 30
0.0
 10
8.721646
 20
3.188997
 30
0.0
 10
8.686666
 20
3.160817
 30
0.0
 10
8.656116
 20
3.119617
 30
0.0
 10
8.630026
 20
3.061087
 30
0.0
 10
8.630026
 20
2.415070
 30
0.0
 10
8.666276
 20
2.367360
 30
0.0
 10
8.722666
 20
2.322470
 30
0.0
 10
8.764996
 20
2.292880
 30
0.0
 10
8.816756
 20
2.269490
 30
0.0
 10
8.884616
 20
2.250330
 30
0.0
 10
8.919736
 20
2.227790
 30
0.0
 10
8.944426
 20
2.206090
 30
0.0
 10
8.962666
 20
2.180730
 30
0.0
 10
8.975286
 20
2.148210
 30
0.0
 10
8.985086
 20
2.113970
 30
0.0
 10
8.994086
 20
2.084270
 30
0.0
 10
8.994086
 20
0.787902
 30
0.0
 10
9.039646
 20
0.710942
 30
0.0
 10
9.082966
 20
0.661092
 30
0.0
 10
9.134056
 20
0.612312
 30
0.0
 10
9.187976
 20
0.578132
 30
0.0
 10
9.250706
 20
0.568832
 30
0.0
 10
10.221605
 20
0.568832
 30
0.0
 10
10.298245
 20
0.604592
 30
0.0
 10
10.352675
 20
0.652272
 30
0.0
 10
10.380445
 20
0.676222
 30
0.0
 10
10.403735
 20
0.705502
 30
0.0
 10
10.431505
 20
0.762962
 30
0.0
 10
10.431505
 20
1.286498
 30
0.0
 10
10.463715
 20
1.342858
 30
0.0
 10
10.494885
 20
1.377178
 30
0.0
 10
10.529845
 20
1.398028
 30
0.0
 10
10.565925
 20
1.407928
 30
0.0
 10
10.692563
 20
1.407928
 30
0.0
 10
10.739213
 20
1.378648
 30
0.0
 10
10.762783
 20
1.353568
 30
0.0
 10
10.788033
 20
1.321948
 30
0.0
 10
10.806833
 20
1.285348
 30
0.0
 10
10.806833
 20
0.434368
 30
0.0
 10
10.790563
 20
0.389898
 30
0.0
 10
10.764753
 20
0.344668
 30
0.0
 10
10.738383
 20
0.310548
 30
0.0
 10
10.705163
 20
0.283498
 30
0.0
 10
10.674693
 20
0.259828
 30
0.0
 10
10.630483
 20
0.237568
 30
0.0
 10
10.585713
 20
0.218408
 30
0.0
 10
10.540153
 20
0.206008
 30
0.0
 10
8.495479
 20
0.204508
 30
0.0
 10
8.414569
 20
0.241308
 30
0.0
 10
8.369789
 20
0.268928
 30
0.0
 10
8.334439
 20
0.294288
 30
0.0
 10
8.294769
 20
0.332558
 30
0.0
 10
8.266099
 20
0.381678
 30
0.0
 10
8.250109
 20
0.423838
 30
0.0
 10
8.239169
 20
0.461398
 30
0.0
 10
8.239169
 20
3.398419
 30
0.0
 10
8.268459
 20
3.470389
 30
0.0
 10
8.295669
 20
3.506599
 30
0.0
 10
8.330289
 20
3.542219
 30
0.0
 10
8.375459
 20
3.581949
 30
0.0
 10
8.416919
 20
3.601389
 30
0.0
 10
8.446129
 20
3.612659
 30
0.0
 10
8.471379
 20
3.618859
 30
0.0
  0
LWPOLYLINE
  5
268
100
AcDbEntity
  8
Layer_1
 62
7
100
AcDbPolyline
 90
81
 70
1
 10
12.257763
 20
2.414762
 30
0.0
 10
13.675646
 20
2.414762
 30
0.0
 10
13.712146
 20
2.423262
 30
0.0
 10
13.739636
 20
2.452402
 30
0.0
 10
13.746636
 20
2.486502
 30
0.0
 10
13.745839
 20
3.543049
 30
0.0
 10
13.765199
 20
3.596699
 30
0.0
 10
13.802899
 20
3.658019
 30
0.0
 10
13.829549
 20
3.699409
 30
0.0
 10
13.851429
 20
3.728549
 30
0.0
 10
13.889129
 20
3.760729
 30
0.0
 10
13.931549
 20
3.791389
 30
0.0
 10
14.219042
 20
3.791389
 30
0.0
 10
14.281882
 20
3.763769
 30
0.0
 10
14.319582
 20
3.733109
 30
0.0
 10
14.336972
 20
3.713099
 30
0.0
 10
14.371532
 20
3.677849
 30
0.0
 10
14.398182
 20
3.642599
 30
0.0
 10
14.423432
 20
3.605799
 30
0.0
 10
14.447002
 20
3.549079
 30
0.0
 10
14.447002
 20
0.253326
 30
0.0
 10
14.418862
 20
0.191616
 30
0.0
 10
14.384442
 20
0.137346
 30
0.0
 10
14.350022
 20
0.103526
 30
0.0
 10
14.309822
 20
0.069006
 30
0.0
 10
14.274472
 20
0.046176
 30
0.0
 10
14.243642
 20
0.030116
 30
0.0
 10
14.193392
 20
0.019976
 30
0.0
 10
13.987893
 20
0.019976
 30
0.0
 10
13.924373
 20
0.044776
 30
0.0
 10
13.878363
 20
0.078956
 30
0.0
 10
13.839033
 20
0.113506
 30
0.0
 10
13.798323
 20
0.151436
 30
0.0
 10
13.772793
 20
0.183536
 30
0.0
 10
13.755683
 20
0.222706
 30
0.0
 10
13.755683
 20
1.632888
 30
0.0
 10
13.722913
 20
1.669748
 30
0.0
 10
13.694043
 20
1.690878
 30
0.0
 10
13.654603
 20
1.699078
 30
0.0
 10
12.650373
 20
1.699078
 30
0.0
 10
12.619823
 20
1.672588
 30
0.0
 10
12.592613
 20
1.650888
 30
0.0
 10
12.579143
 20
1.617838
 30
0.0
 10
12.575243
 20
1.590788
 30
0.0
 10
12.575243
 20
0.383298
 30
0.0
 10
12.548033
 20
0.319358
 30
0.0
 10
12.513613
 20
0.255388
 30
0.0
 10
12.483143
 20
0.205738
 30
0.0
 10
12.444653
 20
0.165898
 30
0.0
 10
12.401453
 20
0.130648
 30
0.0
 10
12.360463
 20
0.099928
 30
0.0
 10
12.311903
 20
0.076258
 30
0.0
 10
12.235703
 20
0.057938
 30
0.0
 10
12.151653
 20
0.048638
 30
0.0
 10
11.840418
 20
0.048638
 30
0.0
 10
11.721551
 20
0.079828
 30
0.0
 10
11.659351
 20
0.116688
 30
0.0
 10
11.616031
 20
0.154618
 30
0.0
 10
11.581581
 20
0.187138
 30
0.0
 10
11.539361
 20
0.243498
 30
0.0
 10
11.514951
 20
0.287938
 30
0.0
 10
11.469391
 20
0.384418
 30
0.0
 10
11.469391
 20
3.550551
 30
0.0
 10
11.496321
 20
3.619281
 30
0.0
 10
11.549901
 20
3.682991
 30
0.0
 10
11.579611
 20
3.721171
 30
0.0
 10
11.616841
 20
3.747941
 30
0.0
 10
11.664111
 20
3.781361
 30
0.0
 10
11.700891
 20
3.788361
 30
0.0
 10
11.934192
 20
3.788361
 30
0.0
 10
11.984462
 20
3.782161
 30
0.0
 10
12.022952
 20
3.753021
 30
0.0
 10
12.061442
 20
3.722361
 30
0.0
 10
12.091292
 20
3.695591
 30
0.0
 10
12.128212
 20
3.658791
 30
0.0
 10
12.153462
 20
3.611281
 30
0.0
 10
12.173102
 20
3.569891
 30
0.0
 10
12.173102
 20
2.512335
 30
0.0
 10
12.186002
 20
2.458145
 30
0.0
 10
12.209282
 20
2.434195
 30
0.0
 10
12.228082
 20
2.423485
 30
0.0
  0
LWPOLYLINE
  5
269
100
AcDbEntity
  8
Layer_1
 62
7
100
AcDbPolyline
 90
71
 70
1
 10
12.214562
 20
2.246144
 30
0.0
 10
13.689744
 20
2.246144
 30
0.0
 10
13.752584
 20
2.269254
 30
0.0
 10
13.796574
 20
2.301434
 30
0.0
 10
13.829954
 20
2.330374
 30
0.0
 10
13.862554
 20
2.370414
 30
0.0
 10
13.886124
 20
2.417924
 30
0.0
 10
13.886124
 20
3.504747
 30
0.0
 10
13.915974
 20
3.551497
 30
0.0
 10
13.950534
 20
3.590577
 30
0.0
 10
13.992954
 20
3.626587
 30
0.0
 10
14.025164
 20
3.641807
 30
0.0
 10
14.073084
 20
3.653357
 30
0.0
 10
14.132784
 20
3.644057
 30
0.0
 10
14.175204
 20
3.631657
 30
0.0
 10
14.219194
 20
3.605727
 30
0.0
 10
14.250614
 20
3.570477
 30
0.0
 10
14.271094
 20
3.544547
 30
0.0
 10
14.288484
 20
3.506227
 30
0.0
 10
14.294684
 20
3.435727
 30
0.0
 10
14.294684
 20
0.278334
 30
0.0
 10
14.264494
 20
0.233894
 30
0.0
 10
14.232284
 20
0.197034
 30
0.0
 10
14.197864
 20
0.168854
 30
0.0
 10
14.170094
 20
0.152514
 30
0.0
 10
14.126774
 20
0.138424
 30
0.0
 10
14.082334
 20
0.140624
 30
0.0
 10
14.019014
 20
0.160634
 30
0.0
 10
13.977914
 20
0.181204
 30
0.0
 10
13.942374
 20
0.208824
 30
0.0
 10
13.903494
 20
0.280374
 30
0.0
 10
13.903494
 20
1.674297
 30
0.0
 10
13.861274
 20
1.740407
 30
0.0
 10
13.823514
 20
1.789187
 30
0.0
 10
13.791304
 20
1.819537
 30
0.0
 10
13.751324
 20
1.844337
 30
0.0
 10
12.578241
 20
1.844337
 30
0.0
 10
12.540481
 20
1.835637
 30
0.0
 10
12.499381
 20
1.799877
 30
0.0
 10
12.478341
 20
1.775927
 30
0.0
 10
12.456181
 20
1.742337
 30
0.0
 10
12.428411
 20
1.681637
 30
0.0
 10
12.428411
 20
0.407116
 30
0.0
 10
12.381361
 20
0.341206
 30
0.0
 10
12.342081
 20
0.286036
 30
0.0
 10
12.305951
 20
0.250026
 30
0.0
 10
12.250181
 20
0.207106
 30
0.0
 10
12.155131
 20
0.182586
 30
0.0
 10
11.842499
 20
0.182586
 30
0.0
 10
11.780529
 20
0.220996
 30
0.0
 10
11.737049
 20
0.256336
 30
0.0
 10
11.699909
 20
0.292966
 30
0.0
 10
11.661049
 20
0.341266
 30
0.0
 10
11.631199
 20
0.390326
 30
0.0
 10
11.631199
 20
3.501336
 30
0.0
 10
11.666549
 20
3.551916
 30
0.0
 10
11.704649
 20
3.598666
 30
0.0
 10
11.734499
 20
3.626566
 30
0.0
 10
11.789879
 20
3.647986
 30
0.0
 10
11.884139
 20
3.647206
 30
0.0
 10
11.928719
 20
3.618856
 30
0.0
 10
11.967799
 20
3.583976
 30
0.0
 10
11.998439
 20
3.534916
 30
0.0
 10
12.014429
 20
3.491996
 30
0.0
 10
12.023929
 20
3.464386
 30
0.0
 10
12.023929
 20
2.468773
 30
0.0
 10
12.027029
 20
2.443413
 30
0.0
 10
12.044419
 20
2.377503
 30
0.0
 10
12.076629
 20
2.329203
 30
0.0
 10
12.114339
 20
2.294713
 30
0.0
 10
12.163039
 20
2.261743
 30
0.0
  0
LWPOLYLINE
  5
26a
100
AcDbEntity
  8
Layer_1
 62
7
100
AcDbPolyline
 90
59
 70
1
 10
15.142931
 20
0.348419
 30
0.0
 10
15.142931
 20
3.510782
 30
0.0
 10
15.158641
 20
3.570582
 30
0.0
 10
15.177441
 20
3.608902
 30
0.0
 10
15.208861
 20
3.657962
 30
0.0
 10
15.234111
 20
3.681072
 30
0.0
 10
15.271811
 20
3.713252
 30
0.0
 10
15.295381
 20
3.733262
 30
0.0
 10
15.344081
 20
3.759192
 30
0.0
 10
15.384931
 20
3.771592
 30
0.0
 10
15.450911
 20
3.779192
 30
0.0
 10
15.501181
 20
3.780692
 30
0.0
 10
15.546741
 20
3.777592
 30
0.0
 10
15.582871
 20
3.769992
 30
0.0
 10
15.620581
 20
3.756182
 30
0.0
 10
15.652001
 20
3.745472
 30
0.0
 10
15.680281
 20
3.725462
 30
0.0
 10
15.700761
 20
3.710242
 30
0.0
 10
15.726011
 20
3.688822
 30
0.0
 10
15.746491
 20
3.668812
 30
0.0
 10
15.766971
 20
3.645702
 30
0.0
 10
15.795251
 20
3.605862
 30
0.0
 10
15.809281
 20
3.567542
 30
0.0
 10
15.821901
 20
3.516962
 30
0.0
 10
15.825001
 20
3.469452
 30
0.0
 10
15.825001
 20
2.466171
 30
0.0
 10
15.838471
 20
2.428861
 30
0.0
 10
15.866241
 20
2.403501
 30
0.0
 10
15.907541
 20
2.385751
 30
0.0
 10
15.969601
 20
2.360391
 30
0.0
 10
16.006771
 20
2.340661
 30
0.0
 10
16.045541
 20
2.317271
 30
0.0
 10
16.085831
 20
2.288951
 30
0.0
 10
16.114311
 20
2.264431
 30
0.0
 10
16.141521
 20
2.237661
 30
0.0
 10
16.167611
 20
2.205281
 30
0.0
 10
16.188091
 20
2.175381
 30
0.0
 10
16.197591
 20
2.139371
 30
0.0
 10
16.197591
 20
0.341993
 30
0.0
 10
16.174591
 20
0.257453
 30
0.0
 10
16.141261
 20
0.211913
 30
0.0
 10
16.106841
 20
0.171813
 30
0.0
 10
16.076291
 20
0.140933
 30
0.0
 10
16.045741
 20
0.114443
 30
0.0
 10
16.010201
 20
0.084093
 30
0.0
 10
15.962421
 20
0.054813
 30
0.0
 10
15.920201
 20
0.037343
 30
0.0
 10
15.844651
 20
0.019023
 30
0.0
 10
15.768011
 20
0.015623
 30
0.0
 10
15.668021
 20
0.015623
 30
0.0
 10
15.583601
 20
0.017823
 30
0.0
 10
15.479182
 20
0.023223
 30
0.0
 10
15.415862
 20
0.046043
 30
0.0
 10
15.346992
 20
0.080733
 30
0.0
 10
15.288102
 20
0.120293
 30
0.0
 10
15.245322
 20
0.156613
 30
0.0
 10
15.213652
 20
0.191303
 30
0.0
 10
15.183102
 20
0.235743
 30
0.0
 10
15.158132
 20
0.290493
 30
0.0
  0
LWPOLYLINE
  5
26b
100
AcDbEntity
  8
Layer_1
 62
7
100
AcDbPolyline
 90
13
 70
1
 10
27.107767
 20
0.513972
 30
0.0
 10
29.498848
 20
0.513972
 30
0.0
 10
29.560118
 20
0.486362
 30
0.0
 10
29.600968
 20
0.446522
 30
0.0
 10
29.600968
 20
0.116949
 30
0.0
 10
29.572688
 20
0.078629
 30
0.0
 10
29.536548
 20
0.047969
 30
0.0
 10
27.098335
 20
0.047969
 30
0.0
 10
27.048065
 20
0.066289
 30
0.0
 10
27.022815
 20
0.095429
 30
0.0
 10
27.022815
 20
0.429600
 30
0.0
 10
27.048065
 20
0.478660
 30
0.0
 10
27.101475
 20
0.512390
 30
0.0
  0
LWPOLYLINE
  5
26c
100
AcDbEntity
  8
Layer_1
 62
7
100
AcDbPolyline
 90
4
 70
1
 10
27.147828
 20
0.403604
 30
0.0
 10
29.489313
 20
0.403604
 30
0.0
 10
29.489313
 20
0.159576
 30
0.0
 10
27.148221
 20
0.159948
 30
0.0
  0
LWPOLYLINE
  5
26d
100
AcDbEntity
  8
Layer_1
 62
7
100
AcDbPolyline
 90
106
 70
1
 10
23.932750
 20
3.769841
 30
0.0
 10
26.147877
 20
3.769841
 30
0.0
 10
26.260179
 20
3.753211
 30
0.0
 10
26.344059
 20
3.716351
 30
0.0
 10
26.399609
 20
3.678421
 30
0.0
 10
26.436279
 20
3.646441
 30
0.0
 10
26.469609
 20
3.610121
 30
0.0
 10
26.500719
 20
3.560271
 30
0.0
 10
26.537389
 20
3.481141
 30
0.0
 10
26.537389
 20
2.748809
 30
0.0
 10
26.516349
 20
2.679829
 30
0.0
 10
26.482569
 20
2.628489
 30
0.0
 10
26.444869
 20
2.583259
 30
0.0
 10
26.410309
 20
2.551079
 30
0.0
 10
26.369459
 20
2.529659
 30
0.0
 10
26.298759
 20
2.509649
 30
0.0
 10
26.240629
 20
2.497249
 30
0.0
 10
26.135369
 20
2.498749
 30
0.0
 10
26.064669
 20
2.529409
 30
0.0
 10
26.011249
 20
2.573849
 30
0.0
 10
25.970399
 20
2.629019
 30
0.0
 10
25.938979
 20
2.688809
 30
0.0
 10
25.918499
 20
2.734799
 30
0.0
 10
25.918499
 20
3.050575
 30
0.0
 10
25.885509
 20
3.087375
 30
0.0
 10
25.855659
 20
3.118795
 30
0.0
 10
25.816379
 20
3.131755
 30
0.0
 10
24.294066
 20
3.131755
 30
0.0
 10
24.252436
 20
3.113435
 30
0.0
 10
24.220226
 20
3.075875
 30
0.0
 10
24.207606
 20
3.035245
 30
0.0
 10
24.207606
 20
2.543185
 30
0.0
 10
24.207606
 20
2.495675
 30
0.0
 10
24.214606
 20
2.453095
 30
0.0
 10
24.240136
 20
2.424405
 30
0.0
 10
24.257526
 20
2.412855
 30
0.0
 10
24.281376
 20
2.409755
 30
0.0
 10
26.196442
 20
2.409755
 30
0.0
 10
26.298560
 20
2.376025
 30
0.0
 10
26.364540
 20
2.342295
 30
0.0
 10
26.416380
 20
2.307045
 30
0.0
 10
26.466650
 20
2.253395
 30
0.0
 10
26.499640
 20
2.204335
 30
0.0
 10
26.529490
 20
2.141495
 30
0.0
 10
26.548290
 20
2.080175
 30
0.0
 10
26.554490
 20
1.986675
 30
0.0
 10
26.554490
 20
0.352120
 30
0.0
 10
26.521720
 20
0.271950
 30
0.0
 10
26.478180
 20
0.203080
 30
0.0
 10
26.443420
 20
0.165830
 30
0.0
 10
26.409310
 20
0.134520
 30
0.0
 10
26.364930
 20
0.100650
 30
0.0
 10
26.292660
 20
0.062160
 30
0.0
 10
26.183809
 20
0.036230
 30
0.0
 10
23.934037
 20
0.036230
 30
0.0
 10
23.784788
 20
0.070640
 30
0.0
 10
23.715658
 20
0.115110
 30
0.0
 10
23.657528
 20
0.168760
 30
0.0
 10
23.621398
 20
0.217820
 30
0.0
 10
23.573478
 20
0.285280
 30
0.0
 10
23.550758
 20
0.349670
 30
0.0
 10
23.550758
 20
1.271951
 30
0.0
 10
23.566748
 20
1.343501
 30
0.0
 10
23.583298
 20
1.385231
 30
0.0
 10
23.611068
 20
1.425861
 30
0.0
 10
23.646608
 20
1.458381
 30
0.0
 10
23.687148
 20
1.489801
 30
0.0
 10
23.747128
 20
1.518511
 30
0.0
 10
23.797678
 20
1.529781
 30
0.0
 10
23.851008
 20
1.536281
 30
0.0
 10
23.928778
 20
1.538481
 30
0.0
 10
23.977648
 20
1.523261
 30
0.0
 10
24.030978
 20
1.501561
 30
0.0
 10
24.074298
 20
1.465241
 30
0.0
 10
24.106508
 20
1.432191
 30
0.0
 10
24.139838
 20
1.382341
 30
0.0
 10
24.177598
 20
1.330321
 30
0.0
 10
24.177598
 20
0.781859
 30
0.0
 10
24.212578
 20
0.731449
 30
0.0
 10
24.250338
 20
0.697299
 30
0.0
 10
24.336438
 20
0.670249
 30
0.0
 10
25.388809
 20
0.670249
 30
0.0
 10
25.440649
 20
0.703639
 30
0.0
 10
25.478349
 20
0.741959
 30
0.0
 10
25.500229
 20
0.766479
 30
0.0
 10
25.500229
 20
1.663221
 30
0.0
 10
25.482839
 20
1.706141
 30
0.0
 10
25.452989
 20
1.732061
 30
0.0
 10
25.394859
 20
1.755171
 30
0.0
 10
23.885118
 20
1.755171
 30
0.0
 10
23.786138
 20
1.791971
 30
0.0
 10
23.726438
 20
1.819591
 30
0.0
 10
23.691878
 20
1.854841
 30
0.0
 10
23.651028
 20
1.896231
 30
0.0
 10
23.614898
 20
1.945291
 30
0.0
 10
23.577188
 20
1.995871
 30
0.0
 10
23.555308
 20
2.061781
 30
0.0
 10
23.563208
 20
3.431107
 30
0.0
 10
23.581448
 20
3.514097
 30
0.0
 10
23.629228
 20
3.602357
 30
0.0
 10
23.659078
 20
3.639157
 30
0.0
 10
23.707778
 20
3.683627
 30
0.0
 10
23.742338
 20
3.714287
 30
0.0
 10
23.787898
 20
3.737397
 30
0.0
 10
23.841318
 20
3.760507
 30
0.0
 10
23.890018
 20
3.768107
 30
0.0
  0
SPLINE
  5
26e
100
AcDbEntity
  8
Layer_1
 62
7
100
AcDbSpline
 70
8
 71
3
 72
8
 73
4
 74
0
 40
0
 40
0
 40
0
 40
0
 40
1
 40
1
 40
1
 40
1
 10
23.820665
 20
1.386635
 30
0.0
 10
23.820819
 20
1.386711
 30
0.0
 10
23.903225
 20
1.389735
 30
0.0
 10
23.914115
 20
1.388335
 30
0.0
  0
SPLINE
  5
26f
100
AcDbEntity
  8
Layer_1
 62
7
100
AcDbSpline
 70
8
 71
3
 72
8
 73
4
 74
0
 40
0
 40
0
 40
0
 40
0
 40
1
 40
1
 40
1
 40
1
 10
23.914115
 20
1.388335
 30
0.0
 10
23.930105
 20
1.383535
 30
0.0
 10
23.944975
 20
1.375095
 30
0.0
 10
23.943825
 20
1.374525
 30
0.0
  0
LWPOLYLINE
  5
270
100
AcDbEntity
  8
Layer_1
 62
7
100
AcDbPolyline
 90
60
 70
0
 10
23.904471
 20
3.624216
 30
0.0
 10
26.181871
 20
3.624216
 30
0.0
 10
26.243531
 20
3.602236
 30
0.0
 10
26.285191
 20
3.583356
 30
0.0
 10
26.312401
 20
3.567016
 30
0.0
 10
26.332321
 20
3.549266
 30
0.0
 10
26.351681
 20
3.530946
 30
0.0
 10
26.365431
 20
3.506996
 30
0.0
 10
26.379181
 20
3.477716
 30
0.0
 10
26.394611
 20
3.435986
 30
0.0
 10
26.394611
 20
2.767209
 30
0.0
 10
26.373571
 20
2.732179
 30
0.0
 10
26.356461
 20
2.707379
 30
0.0
 10
26.331771
 20
2.684559
 30
0.0
 10
26.283801
 20
2.663139
 30
0.0
 10
26.169395
 20
2.663139
 30
0.0
 10
26.125965
 20
2.684839
 30
0.0
 10
26.100715
 20
2.705689
 30
0.0
 10
26.075745
 20
2.746289
 30
0.0
 10
26.063965
 20
2.774189
 30
0.0
 10
26.059465
 20
2.805129
 30
0.0
 10
26.059465
 20
3.131387
 30
0.0
 10
25.996145
 20
3.214857
 30
0.0
 10
25.956135
 20
3.258227
 30
0.0
 10
25.897245
 20
3.292917
 30
0.0
 10
24.218714
 20
3.292917
 30
0.0
 10
24.163164
 20
3.253887
 30
0.0
 10
24.122064
 20
3.218127
 30
0.0
 10
24.087614
 20
3.180197
 30
0.0
 10
24.058464
 20
3.124407
 30
0.0
 10
24.043314
 20
3.079377
 30
0.0
 10
24.043314
 20
2.427397
 30
0.0
 10
24.063794
 20
2.396517
 30
0.0
 10
24.101024
 20
2.348807
 30
0.0
 10
24.137694
 20
2.306537
 30
0.0
 10
24.173234
 20
2.276727
 30
0.0
 10
24.227124
 20
2.248547
 30
0.0
 10
26.209773
 20
2.248547
 30
0.0
 10
26.289893
 20
2.209607
 30
0.0
 10
26.329173
 20
2.170527
 30
0.0
 10
26.360593
 20
2.137587
 30
0.0
 10
26.397513
 20
2.065537
 30
0.0
 10
26.397513
 20
0.379090
 30
0.0
 10
26.348813
 20
0.320840
 30
0.0
 10
26.302463
 20
0.273330
 30
0.0
 10
26.245123
 20
0.231170
 30
0.0
 10
26.180713
 20
0.198230
 30
0.0
 10
26.137513
 20
0.182170
 30
0.0
 10
23.881095
 20
0.182170
 30
0.0
 10
23.816655
 20
0.220910
 30
0.0
 10
23.775865
 20
0.259570
 30
0.0
 10
23.746465
 20
0.296600
 30
0.0
 10
23.718975
 20
0.342310
 30
0.0
 10
23.701295
 20
0.401940
 30
0.0
 10
23.701295
 20
1.275915
 30
0.0
 10
23.717845
 20
1.303815
 30
0.0
 10
23.746685
 20
1.346925
 30
0.0
 10
23.763795
 20
1.366365
 30
0.0
 10
23.795695
 20
1.380735
 30
0.0
 10
23.820665
 20
1.386635
 30
0.0
  0
SPLINE
  5
271
100
AcDbEntity
  8
Layer_1
 62
7
100
AcDbSpline
 70
8
 71
3
 72
8
 73
4
 74
0
 40
0
 40
0
 40
0
 40
0
 40
1
 40
1
 40
1
 40
1
 10
23.833533
 20
3.598116
 30
0.0
 10
23.833533
 20
3.598116
 30
0.0
 10
23.867313
 20
3.611926
 30
0.0
 10
23.873593
 20
3.615026
 30
0.0
  0
SPLINE
  5
272
100
AcDbEntity
  8
Layer_1
 62
7
100
AcDbSpline
 70
8
 71
3
 72
8
 73
4
 74
0
 40
0
 40
0
 40
0
 40
0
 40
1
 40
1
 40
1
 40
1
 10
23.873593
 20
3.615026
 30
0.0
 10
23.879193
 20
3.617726
 30
0.0
 10
23.904233
 20
3.624326
 30
0.0
 10
23.904233
 20
3.624326
 30
0.0
  0
LWPOLYLINE
  5
273
100
AcDbEntity
  8
Layer_1
 62
7
100
AcDbPolyline
 90
31
 70
0
 10
23.943825
 20
1.374525
 30
0.0
 10
23.973565
 20
1.355365
 30
0.0
 10
23.996005
 20
1.335355
 30
0.0
 10
24.026335
 20
1.291875
 30
0.0
 10
24.026335
 20
0.713377
 30
0.0
 10
24.052145
 20
0.678127
 30
0.0
 10
24.103205
 20
0.626027
 30
0.0
 10
24.151905
 20
0.582347
 30
0.0
 10
24.216315
 20
0.547097
 30
0.0
 10
25.490905
 20
0.547097
 30
0.0
 10
25.558125
 20
0.574997
 30
0.0
 10
25.602005
 20
0.614557
 30
0.0
 10
25.629215
 20
0.654117
 30
0.0
 10
25.648575
 20
0.718617
 30
0.0
 10
25.648575
 20
1.726663
 30
0.0
 10
25.614685
 20
1.797673
 30
0.0
 10
25.569685
 20
1.837233
 30
0.0
 10
25.529705
 20
1.866513
 30
0.0
 10
25.456395
 20
1.891873
 30
0.0
 10
25.423575
 20
1.900573
 30
0.0
 10
23.908433
 20
1.900573
 30
0.0
 10
23.830103
 20
1.943293
 30
0.0
 10
23.788443
 20
1.969783
 30
0.0
 10
23.753463
 20
2.009343
 30
0.0
 10
23.727933
 20
2.063533
 30
0.0
 10
23.707173
 20
2.106673
 30
0.0
 10
23.707173
 20
3.460156
 30
0.0
 10
23.725133
 20
3.499996
 30
0.0
 10
23.759693
 20
3.538316
 30
0.0
 10
23.794253
 20
3.567456
 30
0.0
 10
23.833533
 20
3.598116
 30
0.0
  0
LWPOLYLINE
  5
274
100
AcDbEntity
  8
Layer_1
 62
7
100
AcDbPolyline
 90
2
 70
0
 10
23.904233
 20
3.624326
 30
0.0
 10
23.904471
 20
3.624216
 30
0.0
  0
LWPOLYLINE
  5
275
100
AcDbEntity
  8
Layer_1
 62
7
100
AcDbPolyline
 90
45
 70
1
 10
15.298462
 20
3.481657
 30
0.0
 10
15.294562
 20
0.391341
 30
0.0
 10
15.304062
 20
0.343831
 30
0.0
 10
15.323702
 20
0.313171
 30
0.0
 10
15.339412
 20
0.287251
 30
0.0
 10
15.358212
 20
0.267241
 30
0.0
 10
15.380932
 20
0.245821
 30
0.0
 10
15.402812
 20
0.228071
 30
0.0
 10
15.431092
 20
0.210321
 30
0.0
 10
15.456902
 20
0.201821
 30
0.0
 10
15.482152
 20
0.188861
 30
0.0
 10
15.505722
 20
0.183461
 30
0.0
 10
15.834851
 20
0.184961
 30
0.0
 10
15.878051
 20
0.195671
 30
0.0
 10
15.911831
 20
0.210891
 30
0.0
 10
15.954251
 20
0.234001
 30
0.0
 10
15.972211
 20
0.249221
 30
0.0
 10
15.998861
 20
0.274581
 30
0.0
 10
16.013731
 20
0.291491
 30
0.0
 10
16.042011
 20
0.341311
 30
0.0
 10
16.044411
 20
2.045124
 30
0.0
 10
16.039611
 20
2.105684
 30
0.0
 10
16.025581
 20
2.134824
 30
0.0
 10
15.996521
 20
2.167764
 30
0.0
 10
15.973801
 20
2.185514
 30
0.0
 10
15.843404
 20
2.252944
 30
0.0
 10
15.789984
 20
2.282844
 30
0.0
 10
15.752274
 20
2.314264
 30
0.0
 10
15.721634
 20
2.345684
 30
0.0
 10
15.704244
 20
2.380934
 30
0.0
 10
15.684604
 20
2.421564
 30
0.0
 10
15.684604
 20
3.469297
 30
0.0
 10
15.676704
 20
3.499197
 30
0.0
 10
15.654824
 20
3.536757
 30
0.0
 10
15.630414
 20
3.559867
 30
0.0
 10
15.605164
 20
3.579877
 30
0.0
 10
15.577674
 20
3.597627
 30
0.0
 10
15.542324
 20
3.605227
 30
0.0
 10
15.478694
 20
3.609127
 30
0.0
 10
15.427634
 20
3.608386
 30
0.0
 10
15.382074
 20
3.599886
 30
0.0
 10
15.364684
 20
3.584666
 30
0.0
 10
15.341964
 20
3.560146
 30
0.0
 10
15.319244
 20
3.532536
 30
0.0
 10
15.302694
 20
3.508866
 30
0.0
  0
LWPOLYLINE
  5
276
100
AcDbEntity
  8
Layer_1
 62
7
100
AcDbPolyline
 90
111
 70
1
 10
9.160513
 20
2.060663
 30
0.0
 10
9.155713
 20
0.855808
 30
0.0
 10
9.163613
 20
0.800638
 30
0.0
 10
9.195033
 20
0.759248
 30
0.0
 10
9.251593
 20
0.722478
 30
0.0
 10
9.317573
 20
0.711768
 30
0.0
 10
9.864286
 20
0.719368
 30
0.0
 10
10.184771
 20
0.720868
 30
0.0
 10
10.219111
 20
0.732418
 30
0.0
 10
10.249101
 20
0.758338
 30
0.0
 10
10.257001
 20
0.791388
 30
0.0
 10
10.266501
 20
0.817878
 30
0.0
 10
10.264801
 20
1.255240
 30
0.0
 10
10.276021
 20
1.285050
 30
0.0
 10
10.295941
 20
1.333830
 30
0.0
 10
10.310811
 20
1.375030
 30
0.0
 10
10.331291
 20
1.417300
 30
0.0
 10
10.342231
 20
1.432230
 30
0.0
 10
10.351531
 20
1.446320
 30
0.0
 10
10.403741
 20
1.509720
 30
0.0
 10
10.471491
 20
1.544940
 30
0.0
 10
10.551471
 20
1.567770
 30
0.0
 10
10.574751
 20
1.571470
 30
0.0
 10
10.684164
 20
1.572570
 30
0.0
 10
10.730254
 20
1.569170
 30
0.0
 10
10.773574
 20
1.551700
 30
0.0
 10
10.808024
 20
1.527180
 30
0.0
 10
10.838574
 20
1.502380
 30
0.0
 10
10.866344
 20
1.485470
 30
0.0
 10
10.884584
 20
1.460950
 30
0.0
 10
10.903944
 20
1.430070
 30
0.0
 10
10.926664
 20
1.386700
 30
0.0
 10
10.954994
 20
1.298360
 30
0.0
 10
10.960594
 20
1.279480
 30
0.0
 10
10.961694
 20
0.438900
 30
0.0
 10
10.958894
 20
0.398800
 30
0.0
 10
10.923914
 20
0.313170
 30
0.0
 10
10.892804
 20
0.246500
 30
0.0
 10
10.860034
 20
0.214520
 30
0.0
 10
10.831704
 20
0.183070
 30
0.0
 10
10.796724
 20
0.151090
 30
0.0
 10
10.749504
 20
0.120740
 30
0.0
 10
10.669524
 20
0.090930
 30
0.0
 10
10.431229
 20
0.058950
 30
0.0
 10
8.400551
 20
0.063150
 30
0.0
 10
8.350001
 20
0.087670
 30
0.0
 10
8.284461
 20
0.127230
 30
0.0
 10
8.252251
 20
0.154850
 30
0.0
 10
8.219481
 20
0.187370
 30
0.0
 10
8.191151
 20
0.218250
 30
0.0
 10
8.148371
 20
0.267030
 30
0.0
 10
8.112261
 20
0.343450
 30
0.0
 10
8.098791
 20
0.434500
 30
0.0
 10
8.085891
 20
3.355127
 30
0.0
 10
8.092591
 20
3.433717
 30
0.0
 10
8.111391
 20
3.489537
 30
0.0
 10
8.143601
 20
3.555647
 30
0.0
 10
8.169691
 20
3.599017
 30
0.0
 10
8.196341
 20
3.633167
 30
0.0
 10
8.214021
 20
3.652607
 30
0.0
 10
8.247911
 20
3.684027
 30
0.0
 10
8.272881
 20
3.705157
 30
0.0
 10
8.294481
 20
3.722067
 30
0.0
 10
8.326691
 20
3.737287
 30
0.0
 10
8.375001
 20
3.753627
 30
0.0
 10
8.415541
 20
3.765467
 30
0.0
 10
10.476768
 20
3.770267
 30
0.0
 10
10.687849
 20
3.738817
 30
0.0
 10
10.756719
 20
3.702497
 30
0.0
 10
10.796729
 20
3.672687
 30
0.0
 10
10.827279
 20
3.640167
 30
0.0
 10
10.860609
 20
3.609817
 30
0.0
 10
10.887259
 20
3.578397
 30
0.0
 10
10.927269
 20
3.512827
 30
0.0
 10
10.958939
 20
3.438037
 30
0.0
 10
10.956139
 20
2.779015
 30
0.0
 10
10.957839
 20
2.730235
 30
0.0
 10
10.940729
 20
2.661955
 30
0.0
 10
10.922489
 20
2.634335
 30
0.0
 10
10.895839
 20
2.590965
 30
0.0
 10
10.864729
 20
2.549235
 30
0.0
 10
10.826409
 20
2.512915
 30
0.0
 10
10.768079
 20
2.478225
 30
0.0
 10
10.738089
 20
2.476125
 30
0.0
 10
10.533124
 20
2.472725
 30
0.0
 10
10.440914
 20
2.504145
 30
0.0
 10
10.405364
 20
2.541535
 30
0.0
 10
10.371474
 20
2.571885
 30
0.0
 10
10.335364
 20
2.629875
 30
0.0
 10
10.308154
 20
2.717675
 30
0.0
 10
10.295254
 20
2.787585
 30
0.0
 10
10.282354
 20
2.901399
 30
0.0
 10
10.271694
 20
3.022793
 30
0.0
 10
10.251774
 20
3.059113
 30
0.0
 10
10.225684
 20
3.075453
 30
0.0
 10
10.152374
 20
3.103633
 30
0.0
 10
8.864315
 20
3.105233
 30
0.0
 10
8.832645
 20
3.076523
 30
0.0
 10
8.799875
 20
3.046173
 30
0.0
 10
8.771535
 20
2.997393
 30
0.0
 10
8.768135
 20
2.482531
 30
0.0
 10
8.808675
 20
2.448381
 30
0.0
 10
8.881445
 20
2.420771
 30
0.0
 10
8.944205
 20
2.386621
 30
0.0
 10
8.992515
 20
2.361261
 30
0.0
 10
9.037515
 20
2.334211
 30
0.0
 10
9.069725
 20
2.309691
 30
0.0
 10
9.100275
 20
2.281511
 30
0.0
 10
9.138035
 20
2.236001
 30
0.0
 10
9.158515
 20
2.175301
 30
0.0
 10
9.160215
 20
2.100511
 30
0.0
  0
ENDSEC
  0
SECTION
  2
OBJECTS
  0
DICTIONARY
  5
C
330
0
100
AcDbDictionary
  3
ACAD_GROUP
350
D
  3
ACAD_MLINESTYLE
350
17
  0
DICTIONARY
  5
D
330
C
100
AcDbDictionary
  0
DICTIONARY
  5
1A
330
C
100
AcDbDictionary
  0
DICTIONARY
  5
17
330
C
100
AcDbDictionary
  3
STANDARD
350
18
  0
DICTIONARY
  5
19
330
C
100
AcDbDictionary
  0
ENDSEC
  0
EOF
