<?xml version="1.0" encoding="UTF-8" standalone="no"?>
<!-- Created with Inkscape (http://www.inkscape.org/) -->

<svg
   width="560.96796mm"
   height="168.94002mm"
   viewBox="0 0 560.96796 168.94002"
   version="1.1"
   id="svg5"
   inkscape:version="1.2.2 (732a01da63, 2022-12-09)"
   sodipodi:docname="Forgotten Machines Logo - Single-Line Trace Bitmap.svg"
   xml:space="preserve"
   xmlns:inkscape="http://www.inkscape.org/namespaces/inkscape"
   xmlns:sodipodi="http://sodipodi.sourceforge.net/DTD/sodipodi-0.dtd"
   xmlns="http://www.w3.org/2000/svg"
   xmlns:svg="http://www.w3.org/2000/svg"><sodipodi:namedview
     id="namedview7"
     pagecolor="#ffffff"
     bordercolor="#000000"
     borderopacity="0.25"
     inkscape:showpageshadow="2"
     inkscape:pageopacity="0.0"
     inkscape:pagecheckerboard="0"
     inkscape:deskcolor="#d1d1d1"
     inkscape:document-units="mm"
     showgrid="false"
     inkscape:zoom="2.025849"
     inkscape:cx="781.15397"
     inkscape:cy="129.5753"
     inkscape:window-width="1920"
     inkscape:window-height="991"
     inkscape:window-x="-9"
     inkscape:window-y="-9"
     inkscape:window-maximized="1"
     inkscape:current-layer="layer1" /><defs
     id="defs2" /><g
     inkscape:label="Layer 1"
     inkscape:groupmode="layer"
     id="layer1"
     transform="translate(148.56231,216.7443)"><path
       style="fill:#000000;stroke-width:0.999998"
       d="m -110.37765,-47.893168 c -0.16298,-0.0444 -0.64422,-0.25679 -1.06941,-0.47186 -1.29175,-0.65338 -2.37356,-1.78795 -2.92316,-3.06571 -0.0932,-0.21659 -0.28806,-0.85099 -0.4331,-1.40979 l -0.26372,-1.016 -0.0541,-25.48467 c -0.0376,-17.71873 -0.0819,-25.613672 -0.14545,-25.908002 -0.41216,-1.91034 -0.52558,-2.079 -1.5138,-2.25097 -0.27367,-0.0476 -0.70714,-0.12586 -0.96326,-0.17385 -0.27631,-0.0518 -2.88778,-0.10469 -6.42229,-0.13013 -5.87121,-0.0422 -7.3758,-8.5e-4 -8.60604,0.23752 -1.01379,0.19633 -1.14965,0.24976 -1.46718,0.57695 -0.26954,0.27774 -0.34464,0.44622 -0.51695,1.15972 -0.25489,1.05543 -0.3358,2.32977 -0.33793,5.32209 -0.002,2.586792 0.0733,3.707572 0.29263,4.368082 0.12101,0.36431 0.21111,0.47315 0.59511,0.71879 0.24889,0.15921 0.47575,0.28947 0.50414,0.28947 0.0284,0 0.3255,0.12908 0.66024,0.28685 0.33473,0.15776 0.78486,0.36529 1.00029,0.46117 1.01968,0.45382 2.29619,1.54234 2.92094,2.49078 0.47334,0.71858 0.60976,1.04306 0.96988,2.30686 l 0.2895,1.016 v 15.91734 15.91733 l -0.28063,1.18533 c -0.32821,1.38632 -0.41833,1.67068 -0.77909,2.45837 -0.62677,1.36846 -1.8041,2.65509 -3.08998,3.37687 -0.82093,0.46079 -2.30291,0.96208 -3.17397,1.07361 -0.34925,0.0447 -0.9017,0.11658 -1.22767,0.15968 -0.77223,0.10211 -2.96407,0.10061 -3.7465,-0.003 -0.3376,-0.0445 -0.8744,-0.11397 -1.19289,-0.15432 -0.31848,-0.0403 -1.02011,-0.21471 -1.55918,-0.38745 -2.08212,-0.66721 -3.63624,-2.01349 -4.51547,-3.91155 -0.39426,-0.85114 -0.40923,-0.89006 -0.61424,-1.59663 -0.0946,-0.32597 -0.25058,-0.85626 -0.34667,-1.17842 l -0.17471,-0.58572 v -28.46504 c 0,-28.231922 0.001,-28.469392 0.16933,-28.995112 0.0931,-0.29153 0.16934,-0.58145 0.16934,-0.64426 0,-0.14086 0.31881,-1.169 0.46976,-1.51491 0.061,-0.13979 0.18943,-0.43732 0.28538,-0.66117 0.63425,-1.47964 2.23898,-3.05185 3.64752,-3.57361 0.20955,-0.0776 0.4572,-0.17482 0.55034,-0.21599 0.69925,-0.30916 1.92386,-0.59729 2.87866,-0.67732 0.46567,-0.039 1.34197,-0.12034 1.94733,-0.18068 1.40587,-0.14015 53.887783,-0.12858 56.006998,0.0123 3.14154,0.20892 3.619475,0.2849 5.072989,0.80656 2.114711,0.75895 3.464501,2.04081 4.329396,4.11153 0.347769,0.83262 0.487824,1.28651 0.587037,1.90251 0.464735,2.88551 0.422757,-0.24191 0.421657,31.411332 l -0.001,28.78667 -0.289992,1.143 c -0.59469,2.34399 -1.707507,3.82423 -3.558421,4.73333 -0.908431,0.44619 -1.320369,0.51618 -3.030999,0.51499 -1.901436,-10e-4 -2.65082,-0.20276 -3.714005,-0.9984 -1.392521,-1.04211 -2.091114,-2.16489 -2.673587,-4.297 l -0.230005,-0.84192 -0.04689,-25.73867 -0.04689,-25.738662 -0.19144,-0.762 c -0.255837,-1.01831 -0.428955,-1.19546 -1.285689,-1.31573 -0.348606,-0.0489 -0.843381,-0.12658 -1.099498,-0.17255 -0.256117,-0.046 -2.180166,-0.10535 -4.275666,-0.13197 -4.581781,-0.0582 -6.147057,0.0235 -7.756835,0.4051 -0.39086,0.0926 -0.73152,0.43318 -0.82461,0.82432 -0.0401,0.16838 -0.1448,0.59191 -0.23272,0.94116 -0.15442,0.61341 -0.16139,1.50004 -0.20481,26.077332 l -0.045,25.44234 -0.18811,0.762 c -0.28398,1.15038 -0.39969,1.55194 -0.46642,1.61867 -0.0333,0.0333 -0.0606,0.10776 -0.0606,0.16548 0,0.0577 -0.18876,0.42565 -0.41947,0.81764 -0.70456,1.19707 -1.98189,2.26297 -3.29784,2.75197 -0.31619,0.1175 -0.7377,0.1481 -2.25168,0.1635 -1.02447,0.0104 -1.99602,-0.0174 -2.159,-0.0619 z m 228.13433,0.007 c -1.26647,-0.16703 -2.03736,-0.44113 -2.95174,-1.04953 -0.75709,-0.50376 -1.59227,-1.39705 -1.90931,-2.04215 -0.31063,-0.63208 -0.53731,-1.1838 -0.71311,-1.73567 -0.17265,-0.54199 -0.17622,-0.7319 -0.23473,-12.53067 -0.0355,-7.1511 -0.0928,-12.16804 -0.14226,-12.446 -0.0456,-0.25611 -0.12434,-0.76017 -0.17505,-1.12011 -0.0979,-0.69497 -0.37487,-1.34388 -0.70226,-1.64538 -0.10938,-0.10074 -0.38938,-0.24298 -0.62221,-0.31609 -1.0354,-0.32512 -1.6357,-0.34742 -9.35567,-0.34742 -7.700781,0 -8.797079,0.0385 -9.906,0.34762 -0.698822,0.19481 -0.875471,0.3708 -1.069713,1.06577 -0.395571,1.41528 -0.378485,0.95112 -0.449834,12.21795 -0.06629,10.4686 -0.07103,10.68665 -0.253026,11.6659 -0.373397,2.00914 -0.943475,3.26501 -2.064343,4.54776 -1.131206,1.29458 -3.144731,2.26799 -5.123357,2.47679 -1.177417,0.12426 -4.564355,0.12358 -5.644727,-10e-4 -2.075323,-0.23956 -3.79713,-1.02908 -5.17464,-2.37281 -0.620412,-0.6052 -0.913079,-1.01836 -1.422112,-2.00761 -0.676563,-1.31483 -0.792175,-1.8644 -1.05984,-5.03791 -0.147464,-1.74838 -0.08621,-55.397732 0.06439,-56.388002 0.259791,-1.70838 0.382981,-2.2559 0.645609,-2.8695 0.791997,-1.85038 2.04917,-3.05598 3.787927,-3.63253 0.795248,-0.26371 0.859553,-0.2713 2.296989,-0.2713 1.656199,0 2.10842,0.0917 3.232345,0.65554 0.866148,0.43451 2.026979,1.61723 2.431271,2.47712 0.365497,0.77736 0.44643,0.99719 0.615687,1.6722 0.308881,1.23185 0.325908,1.69366 0.386419,10.47747 0.03424,4.97127 0.09631,8.975482 0.144348,9.313332 0.08828,0.62076 0.311946,1.35841 0.471399,1.55466 0.217043,0.26715 0.961652,0.50489 1.919876,0.613 1.252761,0.14133 23.186282,0.21972 24.045332,0.0859 0.30269,-0.0471 0.83126,-0.12294 1.17462,-0.16846 1.03288,-0.13693 1.4681,-0.60563 1.62971,-1.75513 0.0517,-0.36777 0.13052,-0.87821 0.17514,-1.13433 0.0453,-0.2598 0.1096,-4.414652 0.14553,-9.398002 0.0625,-8.66981 0.0695,-8.94975 0.23876,-9.525 0.79402,-2.69879 1.93721,-3.98521 4.17753,-4.7009 0.44135,-0.14099 0.76296,-0.16743 2.03674,-0.16743 1.63663,0 1.86255,0.0436 3.09943,0.59816 1.15149,0.51628 2.34563,1.7382 2.82856,2.89439 0.49619,1.1879 0.57813,1.56013 0.71126,3.23126 0.11255,1.41287 0.1253,5.27451 0.10149,30.741192 -0.0212,22.67757 -0.0507,29.32214 -0.13338,30.01433 -0.27597,2.31112 -1.17128,3.9054 -2.79287,4.9733 -0.72713,0.47885 -1.193,0.67936 -2.08952,0.89933 -0.6584,0.16154 -1.72843,0.22476 -2.37066,0.14006 z m 99.99132,0.0362 c -0.0931,-0.0216 -0.37888,-0.0817 -0.635,-0.13359 -1.3734,-0.27837 -2.29472,-0.76134 -3.18602,-1.67016 -0.88465,-0.90203 -1.4307,-2.03867 -1.8157,-3.77945 -0.0917,-0.41451 -0.11653,-5.12808 -0.13502,-25.61166 -0.0159,-17.63913 -0.0502,-25.279902 -0.11521,-25.696342 -0.20095,-1.28674 -0.35415,-1.83799 -0.5798,-2.08628 -0.30864,-0.3396 -1.07629,-0.58738 -2.12691,-0.68651 -0.49827,-0.047 -5.1498,-0.0994 -10.58333,-0.11929 -13.65354,-0.0499 -14.09228,-0.009 -14.56337,1.3448 -0.16007,0.46011 -0.16863,0.7096 -0.16863,4.91502 v 4.430292 l 0.20547,0.70678 c 0.11302,0.38873 0.27495,0.77429 0.35984,0.85679 0.15284,0.14852 0.76007,0.46021 2.30975,1.18559 0.44041,0.20615 1.09226,0.59268 1.44857,0.85896 0.97883,0.73153 1.43047,1.33745 2.21349,2.96963 0.04,0.0835 0.19377,0.61687 0.3416,1.18533 l 0.26879,1.03356 0.0268,14.90133 c 0.0259,14.44745 0.0122,15.48132 -0.22253,16.72167 -0.0396,0.20955 -0.11543,0.63583 -0.16839,0.94729 -0.053,0.31146 -0.20805,0.90831 -0.34465,1.32633 -0.86788,2.65583 -2.43909,4.25315 -5.02033,5.10378 -1.06811,0.352 -2.06935,0.44737 -4.67805,0.44562 -2.50713,-0.002 -3.66878,-0.0966 -4.572,-0.37356 -0.32597,-0.1 -0.66783,-0.2044 -0.75971,-0.23208 -0.0919,-0.0277 -0.48555,-0.21557 -0.87483,-0.41752 -1.58716,-0.82338 -2.75713,-2.28776 -3.39464,-4.2489 -0.16178,-0.49767 -0.37454,-1.6101 -0.59625,-3.1176 -0.12665,-0.86114 -0.12534,-54.406172 0.001,-55.254722 0.36682,-2.45684 0.47721,-2.91524 0.98257,-4.08031 0.78333,-1.80591 2.31472,-3.22608 4.13351,-3.83327 1.7651,-0.58927 2.30001,-0.69953 3.80067,-0.78337 1.78006,-0.0994 34.15175,-0.0982 36.24666,0.001 3.27644,0.15576 5.67147,0.98952 7.2647,2.52896 0.3957,0.38235 1.0456,1.31645 1.39263,2.00163 0.39824,0.78633 0.79755,2.18986 0.96349,3.38667 0.14416,1.03976 0.2163,56.941742 0.0755,58.547002 -0.12275,1.40006 -0.3534,2.31413 -0.8473,3.35786 -0.35098,0.74173 -0.50449,0.95745 -1.11465,1.56634 -0.90954,0.90764 -1.5168,1.23923 -2.99309,1.63433 -0.49646,0.13288 -2.20354,0.24556 -2.54,0.16767 z m -231.605655,-0.19963 c -0.35096,-0.0786 -0.956911,-0.30961 -1.354667,-0.51645 -1.237615,-0.64358 -2.415785,-1.99362 -2.835994,-3.24972 -0.251503,-0.7518 -0.466107,-1.75224 -0.468029,-2.18187 -0.0011,-0.24836 -0.03936,-0.60396 -0.08501,-0.79023 -0.05176,-0.21124 -0.08188,-3.87463 -0.08006,-9.73666 0.0039,-12.46927 -0.140454,-15.50438 -0.773557,-16.26723 -0.169012,-0.20365 -0.339734,-0.26653 -1.397034,-0.5146 l -1.006653,-0.23617 -8.508999,8.4e-4 -8.509,8.5e-4 -1.016,0.23757 c -1.363455,0.31882 -1.529664,0.47873 -1.731924,1.66625 -0.05948,0.34925 -0.141597,0.76835 -0.182474,0.93134 -0.04088,0.16298 -0.07467,4.54448 -0.07509,9.73666 -8.46e-4,9.59205 -0.03325,10.79777 -0.342045,12.7 -0.532722,3.28162 -1.801384,5.37283 -3.933799,6.48428 -1.553193,0.80955 -3.152148,1.09208 -6.180666,1.09208 -3.07307,0 -4.477825,-0.24856 -6.092986,-1.0781 -0.984495,-0.50563 -2.13216,-1.67073 -2.731448,-2.77292 -0.24053,-0.44239 -0.491465,-0.97579 -0.557632,-1.18534 -0.247912,-0.78512 -0.471576,-1.6698 -0.567241,-2.24366 -0.05434,-0.32597 -0.141867,-0.74507 -0.194513,-0.93134 -0.131327,-0.46465 -0.187799,-54.194012 -0.05807,-55.245002 0.20751,-1.68115 0.324358,-2.13141 0.768816,-2.96264 0.537006,-1.0043 2.605362,-3.31837 3.588046,-4.01427 0.861204,-0.60988 1.9034,-1.12051 2.670031,-1.30819 2.299724,-0.56301 2.07126,-0.53885 6.011333,-0.6355 2.042829,-0.0501 10.79041,-0.0917 19.642666,-0.0934 18.057248,-0.003 16.267183,-0.0726 17.991666,0.69576 0.909963,0.40547 1.378703,0.71029 2.243666,1.45909 0.3026833,0.26204 0.6448382,0.54114 0.7603405,0.62025 0.4939538,0.33826 1.1744113,1.26941 1.6982355,2.32389 0.2946992,0.59325 0.5616871,1.15485 0.5933016,1.24798 0.031615,0.0931 0.1430528,0.41699 0.2476415,0.71967 0.427482,1.23715 0.5208016,1.73058 0.6004645,3.175 0.1721442,3.12107 0.3462019,51.268962 0.1994069,55.160332 -0.052231,1.38467 -0.2854283,3.00184 -0.5500709,3.8147 -0.6584611,2.02248 -2.3347255,3.53107 -4.3621026,3.92578 -0.898186,0.17487 -2.574764,0.16089 -3.42055,-0.0285 z m -8.566615,-47.08847 c 1.42394,-0.5705 1.67916,-0.68645 2.004,-0.91046 0.185742,-0.1281 0.477749,-0.41817 0.648902,-0.64463 0.29851,-0.39495 0.313707,-0.44829 0.37294,-1.30889 0.07606,-1.10515 -0.01248,-4.916742 -0.13291,-5.721312 -0.04864,-0.32495 -0.125459,-0.62785 -0.170713,-0.6731 -0.04525,-0.0453 -0.08227,-0.12838 -0.08227,-0.18475 0,-0.20196 -0.460197,-0.80017 -0.75642,-0.98326 -0.809727,-0.50048 -0.329692,-0.47735 -10.033025,-0.48347 -8.063695,-0.005 -8.931884,0.008 -9.397999,0.13637 -0.802556,0.22185 -1.532687,0.84806 -2.022306,1.73446 l -0.311582,0.56409 v 2.41624 c 0,2.556252 0.05043,3.035672 0.390305,3.710512 0.182025,0.36142 1.325744,1.59274 1.479431,1.59274 0.03554,0 0.188392,0.10477 0.3397,0.23283 0.151299,0.12806 0.487595,0.35551 0.747327,0.50543 l 0.472237,0.2726 7.901051,0.003 7.90105,0.003 0.650283,-0.26053 z m 169.17211,47.04651 c -0.0272,-0.0276 -0.46538,-0.0854 -0.97367,-0.12833 -1.06774,-0.0902 -1.99389,-0.35552 -3.1479,-0.9016 -1.9539,-0.92462 -3.32188,-2.4703 -4.04628,-4.57192 -0.0654,-0.18968 -0.19823,-0.74213 -0.29522,-1.22766 l -0.17635,-0.8828 0.009,-29.58033 c 0.009,-31.943882 -0.0193,-29.878622 0.4348,-31.361922 0.38844,-1.26889 1.74182,-2.85902 2.90142,-3.40894 0.91447,-0.43368 1.27631,-0.53723 2.35953,-0.67524 0.87846,-0.11192 1.11223,-0.11222 1.99841,-0.003 0.55197,0.0683 1.11395,0.17053 1.24884,0.22709 1.19157,0.49966 1.54766,0.70826 2.04986,1.20082 1.35466,1.32867 1.85566,2.45621 2.13283,4.80003 0.0413,0.34925 0.0771,3.98564 0.0797,8.08087 0.005,7.938542 0.0606,9.510032 0.39741,11.214862 0.0858,0.43439 0.8688,0.92473 2.31649,1.45075 0.78981,0.28698 1.83836,0.98119 2.54741,1.68655 1.03684,1.03145 1.57794,2.03741 1.96024,3.6443 l 0.19135,0.80433 v 15.83267 c 0,14.87046 -0.009,15.87641 -0.1511,16.55233 -0.18287,0.871 -0.37313,1.56335 -0.52352,1.905 -0.40135,0.91188 -0.51716,1.14344 -0.78169,1.56306 -0.34902,0.55366 -1.32446,1.57633 -1.95212,2.04665 -0.97679,0.73193 -2.97112,1.48927 -4.2539,1.6154 -0.93575,0.092 -4.261,0.18161 -4.32517,0.11653 z m 218.48102,-0.4673 c -1.02296,-0.24799 -1.63339,-0.83854 -1.84968,-1.78951 -0.17754,-0.7806 -0.18654,-4.78705 -0.0124,-5.52716 0.21875,-0.92978 0.94218,-1.63237 1.87334,-1.81937 0.3663,-0.0736 6.12123,-0.0986 22.64189,-0.0986 24.34693,0 22.77208,-0.034 23.45309,0.50543 0.43799,0.3469 0.76405,0.849 0.92203,1.41987 0.20624,0.74528 0.19466,4.74848 -0.016,5.53676 -0.25163,0.94152 -0.85032,1.51253 -1.86115,1.77511 -0.58609,0.15225 -1.39762,0.15766 -22.57894,0.15057 -20.48015,-0.007 -22.0118,-0.0172 -22.57214,-0.15307 z m -59.34286,-0.0985 c -2.4859,-0.19258 -4.20196,-0.79751 -5.56431,-1.96149 -1.63199,-1.39435 -2.43519,-3.50112 -2.73533,-7.17473 -0.1779,-2.17734 -0.17665,-12.89304 0.002,-14.16316 0.43815,-3.12129 1.99506,-4.86176 4.7888,-5.35342 0.91405,-0.16086 1.62463,-0.159 2.57199,0.007 2.68676,0.46995 4.19292,2.23888 4.60883,5.41287 0.0488,0.37253 0.10946,2.25848 0.13475,4.191 0.0457,3.48715 0.0977,4.21976 0.35341,4.97288 0.34643,1.02037 0.9057,1.4195 2.36533,1.68807 0.78162,0.14381 1.49735,0.15472 10.15423,0.15472 8.76795,0 9.35548,-0.009 10.033,-0.1576 1.30965,-0.28679 1.71268,-0.70233 1.98226,-2.04374 0.24711,-1.22959 0.29989,-2.73148 0.30048,-8.55133 8.4e-4,-7.10503 -0.0752,-8.1898 -0.64131,-9.16469 -0.34622,-0.59621 -0.87224,-0.8084 -2.57277,-1.03787 -1.16741,-0.15753 -1.79692,-0.16579 -12.82699,-0.16838 -12.08458,-0.003 -13.0863,-0.0281 -14.8887,-0.37567 -1.56722,-0.30219 -2.86306,-0.87586 -3.81445,-1.68866 -1.52934,-1.30655 -2.3241,-3.42543 -2.58884,-6.90202 -0.14053,-1.84539 -0.11017,-19.877312 0.0364,-21.599042 0.28933,-3.39966 1.15844,-5.39863 2.90976,-6.69255 1.3525,-0.99927 2.90742,-1.48472 5.5612,-1.73625 1.8406,-0.17446 37.87798,-0.1748 39.79333,0 3.32036,0.30236 5.28314,1.06881 6.69949,2.61612 0.84556,0.92374 1.45811,2.28915 1.71525,3.82339 0.0546,0.32597 0.15534,0.90249 0.22379,1.28116 0.18708,1.03482 0.182,9.5844 -0.006,10.61451 -0.45826,2.50693 -0.84547,3.459232 -1.85598,4.564672 -0.42537,0.46532 -1.41955,1.12438 -1.96328,1.30149 -0.80609,0.26257 -1.9814,0.41936 -2.73864,0.36535 -2.64687,-0.18878 -4.1895,-1.30252 -5.15847,-3.724282 -0.23851,-0.5961 -0.43424,-1.76494 -0.51545,-3.07809 -0.18186,-2.94069 -0.39611,-4.19476 -0.80914,-4.73628 -0.27392,-0.35913 -0.72788,-0.56955 -1.64494,-0.76249 -0.66955,-0.14086 -1.60998,-0.15326 -13.50433,-0.17805 -12.92838,-0.0269 -13.52673,-0.0156 -14.53065,0.27633 -1.04393,0.30351 -1.42331,0.76984 -1.77428,2.1809 -0.21771,0.87532 -0.31727,3.79295 -0.23912,7.007782 0.0955,3.92829 0.44603,4.62427 2.5438,5.05096 0.64549,0.13129 2.15255,0.14897 17.17525,0.20151 11.229,0.0393 16.6966,0.0874 17.18733,0.15133 3.01777,0.3931 4.29887,0.90498 5.6322,2.25047 0.54269,0.54763 0.75979,0.84706 1.08018,1.48973 0.40302,0.80844 0.7265,1.89737 0.89285,3.00567 0.30594,2.03824 0.3055,2.01787 0.33623,15.53633 0.032,14.08789 0.0391,13.74573 -0.33714,16.21367 -0.57811,3.79167 -2.39158,5.73751 -6.08032,6.52414 -1.93469,0.41257 -1.43873,0.40307 -22.05567,0.42243 -10.6172,0.01 -19.7231,-0.0143 -20.23533,-0.054 z m -291.634323,-0.0798 c -0.256117,-0.0357 -0.755955,-0.0687 -1.110742,-0.0733 -1.602461,-0.0208 -4.0121079,-0.69392 -5.0912179,-1.42218 -0.62175,-0.41962 -1.3549378,-1.14295 -1.908226,-1.88258 -0.5775452,-0.77206 -1.1329161,-2.12461 -1.3316542,-3.24309 -0.07664,-0.4313 -0.1828292,-0.93659 -0.2359744,-1.12286 -0.071272,-0.24978 -0.1034627,-7.60523 -0.1226397,-28.02467 -0.027982,-29.794182 -0.052002,-27.830672 0.3671739,-30.014332 0.3066457,-1.59744 1.2889907,-3.36561 2.4239644,-4.36303 1.053583,-0.92589 1.878499,-1.3428 3.5995779,-1.81924 1.671633,-0.46274 1.245886,-0.45242 20.046737,-0.48626 18.23692,-0.0328 19.89112,-0.008 21.575724,0.32406 0.869882,0.17146 2.14321,0.56513 2.620848,0.81029 0.894436,0.45909 2.051956,1.52662 2.708097,2.49756 0.447861,0.66272 0.902394,1.80071 1.212876,3.03662 0.372287,1.48191 0.470264,4.86399 0.306569,10.58333 -0.09308,3.25229 -0.169181,3.67075 -0.969975,5.333992 -0.545482,1.13297 -1.806973,2.30223 -2.869235,2.65947 -1.165098,0.39182 -1.637893,0.47321 -2.739203,0.47152 -3.020009,-0.005 -5.004554,-1.31177 -5.974834,-3.93531 -0.298094,-0.806032 -0.374412,-1.108862 -0.437421,-1.735672 -0.123233,-1.22603 -0.23302,-2.5356 -0.308763,-3.683 -0.112852,-1.70971 -0.425543,-2.38188 -1.197017,-2.57323 -0.414393,-0.10278 -1.335972,-0.24061 -2.302222,-0.34435 -1.12649,-0.12093 -20.425892,-0.12031 -21.404444,8.5e-4 -1.844183,0.22803 -2.564798,0.48087 -2.822608,0.99036 -0.372898,0.73692 -0.468402,1.37489 -0.554542,3.70453 -0.07907,2.13809 -0.01134,5.701572 0.12303,6.473072 0.144678,0.8307 0.516627,1.14852 2.428096,2.07466 2.212593,1.07204 3.372518,2.0524 3.884354,3.28303 0.381719,0.91778 0.50645,1.31172 0.595122,1.87959 0.04412,0.2825 0.118076,0.74225 0.164363,1.02165 0.05015,0.30276 0.111718,5.04047 0.152383,11.72634 0.04806,7.90079 0.09693,11.34352 0.165261,11.64166 0.05336,0.23284 0.158191,0.71867 0.232969,1.07964 0.262729,1.2682 0.647996,1.52773 2.72398,1.83495 0.837167,0.1239 13.72969,0.12431 14.784332,8.5e-4 1.386146,-0.16275 2.095872,-0.4033 2.327419,-0.78884 0.169756,-0.28265 0.366623,-1.06025 0.527583,-2.08389 0.05492,-0.34925 0.129752,-2.06375 0.166302,-3.81 0.08919,-4.26072 0.165896,-4.75678 0.988534,-6.39233 0.506764,-1.00755 1.080847,-1.6413 2.056715,-2.27046 0.280348,-0.18075 1.239088,-0.5384 1.986373,-0.74098 0.758782,-0.20569 2.443996,-0.22357 3.205115,-0.034 1.528081,0.38062 2.852623,1.1948 3.577048,2.19876 0.594437,0.82381 1.188559,2.31357 1.384385,3.47133 0.07367,0.43559 0.09299,2.67963 0.07288,8.46667 l -0.02736,7.874 -0.231241,0.84667 c -0.239472,0.87679 -0.340479,1.15255 -0.755219,2.06191 -0.694715,1.5232 -2.169295,2.86752 -3.923614,3.57701 -0.09313,0.0377 -0.312377,0.12547 -0.487205,0.19512 -0.627567,0.25 -2.327944,0.5769 -3.449794,0.66322 -1.350975,0.10395 -35.432846,0.16189 -36.152665,0.0615 z m 233.748343,0.0431 c -0.026,-0.026 -0.5378,-0.0813 -1.13732,-0.1228 -0.97671,-0.0677 -2.53306,-0.3715 -3.03736,-0.59299 -1.67827,-0.73708 -2.19048,-1.0599 -2.921,-1.84095 -0.96551,-1.03228 -1.29998,-1.56052 -1.75716,-2.77506 -0.25026,-0.66483 -0.60496,-2.19383 -0.66781,-2.87866 -0.0911,-0.99315 -0.0942,-54.068082 -0.003,-55.287342 0.064,-0.858 0.42303,-2.66088 0.69143,-3.47233 0.40187,-1.21505 0.97685,-2.15163 1.86797,-3.04274 0.71084,-0.71084 1.42223,-1.20709 2.07008,-1.44401 0.20955,-0.0766 0.44534,-0.17343 0.52398,-0.21511 0.0786,-0.0417 0.58484,-0.19369 1.12488,-0.33781 1.84532,-0.49247 2.2145,-0.50264 18.29335,-0.50388 15.43484,-0.001 15.58886,0.002 16.97245,0.4068 1.40267,0.40987 2.7548,1.34485 3.48404,2.40917 0.78755,1.14944 1.05933,1.95987 1.1343,3.38257 0.13062,2.47888 -0.37353,3.97479 -1.79442,5.32429 -0.81354,0.77268 -2.06268,1.41939 -3.10419,1.60712 -1.12544,0.20287 -2.84559,0.23367 -13.43573,0.24055 -14.46916,0.009 -13.68959,-0.0904 -14.21876,1.82012 l -0.26846,0.96928 -0.003,3.92562 c -0.002,2.746372 0.0268,4.038692 0.0964,4.301992 0.35143,1.32936 0.59326,1.6575 1.36149,1.84735 0.36611,0.0905 2.90181,0.12791 12.48211,0.18422 6.65494,0.0391 12.32507,0.10699 12.7,0.15203 0.96639,0.11608 1.45248,0.22528 2.34608,0.52707 0.98824,0.33374 1.1736,0.42936 1.81109,0.93414 0.99581,0.78852 1.65166,1.76063 1.99314,2.95429 0.21183,0.74049 0.22134,2.82761 0.017,3.73638 -0.48571,2.1603 -2.29317,4.03379 -4.58703,4.75463 -0.55066,0.17304 -0.76467,0.17881 -8.86162,0.23845 -4.56926,0.0337 -8.63971,0.0996 -9.05933,0.14677 -1.39199,0.15642 -1.83059,0.25233 -2.16446,0.47327 -0.27408,0.18138 -0.35351,0.30585 -0.50207,0.78684 -0.45174,1.46255 -0.44539,1.34075 -0.45128,8.65993 -0.006,7.19216 -0.0156,6.99037 0.39018,8.05946 0.21737,0.57273 0.49406,0.76354 1.33063,0.91755 0.30268,0.0557 0.72178,0.14121 0.93133,0.18995 0.24069,0.056 3.34313,0.11094 8.42433,0.14923 4.72058,0.0356 8.34063,0.0975 8.763,0.14982 0.39582,0.0491 0.94827,0.17025 1.22767,0.2693 0.2794,0.0991 0.5842,0.19962 0.67733,0.22348 0.43386,0.11117 1.4557,0.70041 1.98006,1.14178 0.97637,0.82186 1.57516,1.78944 1.88059,3.03877 0.20657,0.84499 0.21879,2.76548 0.0232,3.65144 -0.43861,1.98711 -2.04232,3.68336 -4.13788,4.37666 -0.74224,0.24556 -1.26505,0.3612 -2.07433,0.45884 -0.75639,0.0912 -30.3233,0.19287 -30.41165,0.10452 z m 150.00331,-94.875772 c -0.79097,-0.18791 -0.80983,-0.19497 -1.68664,-0.63111 -0.49494,-0.2462 -0.84144,-0.50398 -1.32267,-0.98406 -0.95719,-0.95488 -1.49189,-2.11588 -1.84744,-4.01129 -0.0705,-0.37568 -0.0967,-7.13278 -0.0978,-25.23066 -0.002,-23.77696 -0.008,-24.75946 -0.16141,-25.81824 -0.22376,-1.54104 -0.31435,-1.84613 -0.64703,-2.17881 -0.33527,-0.33526 -1.0209,-0.54099 -2.2489,-0.67479 -0.46305,-0.0504 -4.60072,-0.1036 -9.9374,-0.12765 -9.95533,-0.0449 -12.52366,0.0154 -13.66039,0.32052 -0.93977,0.25224 -1.0726,0.34463 -1.29791,0.90269 -0.19626,0.4861 -0.19713,0.5055 -0.22112,4.8801 -0.0231,4.21267 -0.0169,4.41973 0.15152,5.06952 0.29509,1.13846 0.23998,1.08532 2.00568,1.934 2.01613,0.96904 2.69179,1.44625 3.41244,2.41011 0.61547,0.82319 0.99943,1.71316 1.3311,3.08531 l 0.23534,0.97367 0.0223,15.10314 c 0.0245,16.59615 0.0628,14.93912 -0.40742,17.63946 -0.0696,0.3997 -0.61426,2.07419 -0.77871,2.39406 -0.27568,0.53623 -1.042,1.58352 -1.43201,1.95708 -0.76584,0.7335 -1.83407,1.42995 -2.52572,1.64667 -0.11685,0.0366 -0.422,0.14802 -0.67811,0.24758 -0.25612,0.0996 -0.80857,0.21731 -1.22767,0.26168 -0.4191,0.0444 -0.97155,0.11538 -1.22767,0.15782 -0.6051,0.10024 -3.71613,0.0999 -4.318,-8.5e-4 -0.25611,-0.0427 -0.82761,-0.11349 -1.27,-0.15726 -0.44238,-0.0438 -1.01388,-0.16165 -1.27,-0.26195 -0.25611,-0.1003 -0.54186,-0.20445 -0.635,-0.23145 -0.0931,-0.027 -0.511,-0.2238 -0.9286,-0.43735 -0.61798,-0.31602 -0.90197,-0.53293 -1.52599,-1.16556 -0.62919,-0.63787 -0.83708,-0.91881 -1.15901,-1.56634 -0.71861,-1.44532 -0.81817,-1.80199 -1.17287,-4.20152 -0.16288,-1.10183 -0.16653,-1.71668 -0.16653,-28.08813 0,-23.41026 0.0165,-27.06482 0.12546,-27.74486 0.42561,-2.65682 0.49706,-2.91436 1.21549,-4.38154 0.34066,-0.69569 0.51006,-0.92091 1.2542,-1.66741 0.75009,-0.75249 0.96714,-0.91611 1.69376,-1.27685 0.45839,-0.22757 1.06203,-0.4804 1.34143,-0.56185 0.2794,-0.0814 0.60325,-0.18225 0.71966,-0.224 0.47463,-0.17019 1.55282,-0.32251 2.75167,-0.38875 1.66301,-0.0919 34.36816,-0.0931 36.23733,-0.001 1.45601,0.0715 2.64426,0.25534 3.72534,0.57645 0.54222,0.16105 0.77646,0.25261 1.651,0.64534 0.41926,0.18828 1.33125,0.8288 1.76359,1.23862 0.50775,0.48131 1.20919,1.49516 1.55939,2.25393 0.37721,0.8173 0.79509,2.46369 0.85924,3.38525 0.0276,0.39581 0.0874,1.08161 0.13296,1.524 0.11204,1.08723 0.1132,55.20348 10e-4,56.30333 -0.18936,1.85961 -0.25663,2.2752 -0.46596,2.87867 -0.85579,2.46701 -2.22851,3.68661 -4.8082,4.27183 -0.78927,0.17904 -2.20256,0.15715 -3.06391,-0.0475 z m -93.81066,-0.0832 c -2.01095,-0.17095 -2.59964,-0.25126 -3.34434,-0.45626 -1.13633,-0.31282 -1.49299,-0.4417 -2.01466,-0.728 -2.06911,-1.13554 -3.42616,-2.92144 -3.91348,-5.15022 -0.0958,-0.43797 -0.19475,-0.82969 -0.21996,-0.87049 -0.22612,-0.36587 -0.24393,-2.46751 -0.2425,-28.60152 10e-4,-19.35243 0.0283,-27.15438 0.0972,-27.85534 0.19613,-1.99476 0.68076,-3.6456 1.50057,-5.11156 0.43781,-0.78287 1.68477,-1.94917 2.5915,-2.42386 0.86636,-0.45355 1.06811,-0.52982 2.159,-0.81618 0.86519,-0.22711 1.44977,-0.30461 3.38667,-0.44901 1.38134,-0.10298 28.86099,-0.10753 29.80266,-0.005 1.97032,0.21467 3.11634,0.58929 4.14671,1.35552 0.45733,0.3401 1.33172,1.22933 1.6348,1.66254 0.34769,0.49698 0.78745,1.66153 0.8896,2.35578 0.21319,1.449 0.0758,3.0756 -0.34018,4.02669 -0.42402,0.96954 -0.58675,1.21269 -1.27929,1.91147 -0.92834,0.93671 -1.89915,1.44395 -3.42771,1.79094 -0.53954,0.12248 -1.94135,0.14423 -12.46126,0.19335 -12.23771,0.0571 -13.33186,0.0889 -14.03905,0.40692 -0.53641,0.24125 -0.71749,0.49679 -0.94477,1.33323 -0.17924,0.65966 -0.215,1.04306 -0.28553,3.06108 -0.0976,2.79185 0.005,6.00465 0.21358,6.71003 0.14062,0.47483 0.41282,1.00749 0.5733,1.12185 0.15132,0.10784 0.73852,0.25262 1.35914,0.33512 0.32596,0.0433 5.98381,0.10864 12.573,0.14514 8.93526,0.0495 12.09868,0.0927 12.446,0.17012 1.46596,0.32662 1.9836,0.48654 2.7027,0.83499 1.01585,0.49225 1.76654,1.18028 2.33137,2.1368 0.60444,1.02361 0.75437,1.68621 0.75615,3.34165 0.002,1.58528 -0.0905,2.00484 -0.71752,3.26645 -0.35461,0.71346 -0.50017,0.90293 -1.20902,1.57379 -0.88883,0.84119 -1.80706,1.36669 -3.01702,1.72664 -0.63241,0.18813 -0.67052,0.18916 -9.35566,0.25207 -5.97701,0.0433 -8.81373,0.0927 -9.01645,0.15694 -0.16267,0.0516 -0.41669,0.0938 -0.56448,0.0938 -0.35331,0 -1.02001,0.29013 -1.21687,0.52955 -0.30073,0.36572 -0.51758,1.44675 -0.60626,3.02215 -0.11705,2.07944 -0.11712,11.02202 0,12.53496 0.10332,1.33577 0.29963,2.05253 0.63053,2.30213 0.27165,0.20491 0.92023,0.38607 1.79896,0.50248 0.50502,0.0669 3.33183,0.12296 8.382,0.1662 7.74247,0.0663 8.88422,0.10887 9.86367,0.36766 1.52768,0.40365 2.31103,0.80935 3.27945,1.69845 0.72376,0.66446 1.29818,1.63335 1.57275,2.65279 0.24249,0.90029 0.25701,2.90194 0.0277,3.82496 -0.23078,0.92911 -0.8085,1.96418 -1.47539,2.64333 -0.85549,0.87123 -1.53949,1.30008 -2.6982,1.69167 -1.01512,0.34307 -1.47075,0.41765 -3.50035,0.57297 -1.18528,0.0907 -27.75754,0.0863 -28.829,-0.005 z m -390.651988,-0.5951 c -0.325967,-0.0374 -1.030817,-0.10247 -1.566334,-0.14465 -0.535516,-0.0422 -1.068916,-0.11801 -1.185333,-0.16853 -0.116417,-0.0505 -0.577723,-0.20464 -1.025118,-0.34251 -0.791786,-0.24398 -1.504487,-0.58798 -2.107548,-1.01725 -0.781113,-0.556 -1.751472,-1.67354 -2.177809,-2.50812 -0.164574,-0.32217 -0.624641,-1.76926 -0.888279,-2.794 -0.08772,-0.34098 -0.108912,-5.99896 -0.108912,-29.083 v -28.65968 l 0.281254,-1.05833 c 0.406194,-1.52847 0.640703,-2.14605 1.090194,-2.87105 0.883714,-1.42537 2.24075,-2.48034 3.873389,-3.01119 1.516541,-0.4931 2.206252,-0.60905 4.153162,-0.69819 1.875545,-0.0859 35.832312,-0.0859 37.930665,-7e-5 1.734744,0.071 2.438163,0.15646 3.429,0.41669 1.681708,0.44168 2.701815,0.94196 3.570918,1.75125 1.569745,1.4617 2.177508,2.8841 2.608927,6.10589 0.131106,0.97912 0.06921,55.13135 -0.06402,56.007 -0.282685,1.85794 -0.488061,2.62529 -0.998322,3.72995 -0.345448,0.74788 -0.477774,0.94137 -1.135168,1.65981 -0.654719,0.71553 -1.991216,1.63218 -2.696845,1.84967 -0.124943,0.0385 -0.608161,0.19082 -1.073827,0.33848 -0.611285,0.19382 -1.117355,0.28875 -1.820334,0.34146 -0.535516,0.0401 -1.297516,0.11064 -1.693333,0.15665 -0.872515,0.10143 -37.511717,0.10115 -38.396331,0 z m 33.226229,-13.56581 c 0.985131,-0.28516 1.142179,-0.76635 1.27541,-3.90792 0.12485,-2.94375 0.117475,-35.03886 -0.0087,-37.80006 -0.075,-1.64157 -0.122504,-2.08215 -0.273845,-2.54 -0.171899,-0.52003 -0.209,-0.56676 -0.606044,-0.76343 -0.52893,-0.26199 -0.969518,-0.32648 -2.879065,-0.42139 -1.971751,-0.098 -21.015171,-0.0986 -22.732999,-7.6e-4 -1.650305,0.094 -2.122373,0.17382 -2.726927,0.46092 -0.677189,0.32159 -0.818896,0.6366 -1.07729,2.39479 -0.05888,0.4006 -0.09078,3.28202 -0.0914,8.255 -9.32e-4,7.33435 0.08934,11.40879 0.268359,12.11517 0.11027,0.43509 0.391583,0.6783 1.255556,1.08549 2.894093,1.36398 3.693185,1.9066 4.528337,3.07493 0.699677,0.97882 0.906128,1.57046 1.181743,3.38667 0.09654,0.63616 0.151689,2.28866 0.221827,6.64633 0.08451,5.25012 0.10889,5.86385 0.257353,6.477 0.200711,0.82891 0.343975,1.03339 0.86835,1.23937 1.062541,0.41737 2.855129,0.48167 12.628422,0.45298 6.4818,-0.019 7.510517,-0.0392 7.910897,-0.1551 z m 33.321767,13.57212 c -2.56827,-0.22614 -4.020828,-0.65046 -5.391209,-1.57488 -0.801742,-0.54082 -1.736487,-1.53351 -2.230357,-2.36859 -0.484191,-0.81873 -0.599414,-1.08234 -0.879229,-2.0115 -0.168292,-0.55886 -0.207476,-0.7477 -0.450147,-2.1694 -0.16267,-0.95301 -0.158657,-53.86006 0.0042,-55.32967 0.328117,-2.961 0.93367,-4.67825 2.155791,-6.11352 0.328837,-0.38618 0.620421,-0.70214 0.647971,-0.70214 0.02754,0 0.239886,-0.15744 0.471864,-0.34986 0.642553,-0.53299 2.358289,-1.28096 3.474839,-1.51486 0.51832,-0.10857 1.824617,-0.23444 3.381612,-0.32583 0.651933,-0.0383 8.8243826,-0.0533 18.16099882,-0.0335 14.50644718,0.0309 17.06802818,0.0543 17.61066518,0.16088 0.826262,0.16235 1.23008,0.30229 1.926531,0.66763 2.661192,1.39597 3.99774,2.98912 4.686698,5.58649 0.14986,0.565 0.157268,1.19783 0.158657,13.55415 l 0.0014,12.96147 -0.295326,1.00853 c -0.29834,1.01886 -1.03179,2.61194 -1.462007,3.17556 -0.127787,0.16741 -0.389297,0.51031 -0.581143,0.762 -0.191855,0.25169 -0.617373,0.75724 -0.945608,1.12342 l -0.596799,0.66579 0.30182,0.56188 c 0.165997,0.30903 0.404842,0.73332 0.530767,0.94287 0.125925,0.20955 0.53445,0.9144 0.907838,1.56633 0.37338,0.65194 0.919268,1.60444 1.213079,2.11667 0.29381,0.51223 0.828759,1.48378 1.188787,2.159 0.718499,1.34753 1.629224,2.9432 2.585288,4.52967 0.168377,0.2794 0.620218,1.06045 1.004079,1.73566 0.38387,0.67522 0.97525,1.70392 1.314179,2.286 0.754397,1.29562 1.679465,2.89847 2.516531,4.36034 0.346625,0.60537 0.679805,1.15782 0.740384,1.22767 0.06059,0.0699 0.212581,0.3175 0.337752,0.55033 0.12518,0.23283 0.378418,0.69003 0.562754,1.016 1.081007,1.91156 1.284605,2.72373 1.241637,4.953 l -0.02856,1.48167 -0.348251,0.71966 c -0.233595,0.48274 -0.483548,0.84862 -0.759223,1.11136 -0.590889,0.56317 -1.454362,1.16214 -1.848917,1.28253 -0.248657,0.0759 -1.455149,0.10378 -4.48873,0.10378 h -4.148666 l -0.973667,-0.23991 c -1.439553,-0.3547 -1.752871,-0.46159 -2.409461,-0.82197 -0.966038,-0.53024 -1.440662,-1.06093 -2.077872,-2.32326 -0.490068,-0.97083 -1.087128,-1.96863 -1.394147,-2.32986 -0.05936,-0.0699 -0.451171,-0.7747 -0.870686,-1.56633 -0.419515,-0.79164 -0.894851,-1.68699 -1.05631,-1.98967 -0.161451,-0.30268 -0.609507,-1.15993 -0.995671,-1.905 -0.386165,-0.74507 -0.83511,-1.60232 -0.997653,-1.905 -1.136057,-2.11549 -1.543533,-2.88424 -1.543533,-2.91204 0,-0.0175 -0.241748,-0.46489 -0.5372099,-0.9941 -0.295395,-0.52922 -1.043307,-1.9528 -1.661958,-3.16354 -0.61865,-1.21073 -1.2298083,-2.39183 -1.3581206,-2.62466 -0.2335276,-0.42375 -0.5155946,-0.95252 -1.6484853,-3.09034 -0.7740565,-1.46066 -1.3304774,-2.32237 -1.6238728,-2.51483 -0.2030476,-0.13321 -0.4770289,-0.1555 -2.1986662,-0.17891 -1.33668338,-0.0182 -2.07026918,0.005 -2.28998768,0.0726 -0.19385282,0.0596 -1.37415682,0.12564 -2.94795772,0.16502 -2.1388069,0.0535 -2.6951939,0.0921 -3.0056665,0.20855 -0.7114201,0.26677 -0.9473776,0.64239 -1.1725148,1.86658 -0.133096,0.72369 -0.1980692,4.28844 -0.2122,11.64167 -0.00677,3.51578 -0.038337,6.43224 -0.07018,6.48101 -0.031843,0.0488 -0.1575985,0.58218 -0.2794593,1.18534 -0.3030558,1.49999 -0.4116239,1.84346 -0.8552264,2.70555 -0.5069586,0.98523 -0.7471238,1.32136 -1.4603138,2.04386 -0.802403,0.81288 -1.66668,1.33639 -2.878675,1.74366 -1.631992,0.54841 -3.950606,0.76283 -6.15243,0.56895 z m 24.9343326,-46.10103 c 1.1475296,-0.23586 1.6084126,-0.39265 1.7743677,-0.60363 0.1902206,-0.24182 0.4761148,-1.43336 0.6039018,-2.51691 0.05794,-0.49123 0.078,-1.87163 0.05376,-3.69813 -0.03629,-2.73501 -0.05207,-2.97583 -0.256472,-3.91359 -0.119786,-0.54958 -0.2872484,-1.12108 -0.3721267,-1.27 -0.2035979,-0.35717 -0.904604,-0.69547 -1.6242706,-0.78386 -0.6608064,-0.0812 -3.5226243,-0.0916 -9.746496,-0.0356 l -4.5296665,0.0407 -0.3498511,0.20048 c -0.468486,0.26847 -0.6483522,0.63155 -0.8863162,1.78919 -0.192608,0.93698 -0.199949,1.10924 -0.19497,4.572 0.0049,3.40049 0.01531,3.63934 0.189382,4.34413 0.3394966,1.37451 0.4661494,1.49286 2.0460886,1.91199 0.1681226,0.0446 2.9704283,0.0819 6.4769997,0.0862 5.2578675,0.006 6.2754761,-0.0119 6.8156663,-0.12295 z m 46.2279974,46.09414 c -0.34925,-0.0373 -1.11125,-0.10404 -1.693333,-0.14833 -0.582083,-0.0443 -1.248833,-0.14274 -1.481667,-0.21876 -0.232833,-0.076 -0.613833,-0.17952 -0.846666,-0.23 -1.003165,-0.21751 -2.631482,-1.14313 -3.473873,-1.97473 -0.688865,-0.68005 -1.103309,-1.28977 -1.61141,-2.37067 -0.513639,-1.09269 -0.839699,-2.7227 -0.973845,-4.86833 -0.120328,-1.92466 -0.05493,-53.09719 0.0693,-54.229 0.193404,-1.76197 0.835177,-3.65648 1.603367,-4.73319 0.414748,-0.58131 1.158189,-1.35056 1.690683,-1.74937 0.519709,-0.38923 1.815846,-1.01368 2.526444,-1.21718 0.2794,-0.08 0.60325,-0.17901 0.719667,-0.22 0.617965,-0.21759 1.378382,-0.32479 2.751667,-0.38794 2.013144,-0.0926 34.990462,-0.0903 37.168665,0.003 1.743997,0.0743 2.462733,0.18642 3.725333,0.58092 1.836589,0.57383 3.134283,1.45055 4.039302,2.72893 0.899499,1.27057 1.309472,2.45191 1.689514,4.86833 0.16475,1.04749 0.16216,10.27362 -0.003,11.176 -0.340125,1.85689 -0.820202,3.06028 -1.550172,3.88576 -0.976613,1.10438 -1.963132,1.76148 -3.10051,2.06518 -0.894978,0.23897 -2.822101,0.2543 -3.742004,0.0298 -1.030859,-0.25163 -2.097515,-0.83221 -2.72973,-1.48578 -1.37811,-1.42468 -1.954479,-3.13794 -2.097167,-6.23378 -0.100864,-2.18859 -0.303861,-3.32105 -0.646227,-3.60519 -0.262839,-0.21814 -1.024162,-0.43578 -1.765876,-0.50481 -2.964882,-0.27594 -23.700823,-0.32228 -24.807959,-0.0554 -0.650942,0.15689 -1.187526,0.43131 -1.360974,0.69602 -0.28387,0.43324 -0.542137,1.73458 -0.638437,3.21689 -0.122699,1.88865 -0.05177,6.98166 0.10364,7.44149 0.164304,0.48615 0.734238,0.91933 1.981065,1.50571 1.980438,0.9314 3.169674,1.89449 3.922386,3.1765 0.375344,0.63928 0.918532,2.16097 1.052593,2.94871 0.05402,0.31742 0.107179,4.92313 0.141715,12.27667 l 0.05526,11.76866 0.21689,0.78969 c 0.119296,0.43433 0.289103,0.85754 0.37736,0.94046 0.457318,0.42971 1.362744,0.57791 4.182127,0.68455 1.094316,0.0414 2.980266,0.11316 4.190999,0.15948 2.685898,0.10275 7.307478,0.10518 9.144,0.005 1.568391,-0.0857 2.366272,-0.20056 2.640084,-0.37996 0.311387,-0.20403 0.502057,-0.68994 0.696756,-1.77568 0.100203,-0.5588 0.222242,-1.22555 0.271204,-1.48167 0.131649,-0.68871 0.196867,-9.47716 0.0823,-11.09133 -0.165168,-2.32723 -0.402675,-3.56562 -0.750536,-3.91348 -0.297578,-0.29758 -1.253981,-0.51071 -2.601146,-0.57966 -1.710572,-0.0875 -2.445783,-0.18165 -3.598334,-0.4606 -1.631814,-0.39495 -2.551616,-0.86584 -3.629973,-1.85832 -1.035041,-0.95262 -1.614669,-2.53161 -1.617497,-4.40628 -0.0025,-1.71095 0.423503,-3.03447 1.330071,-4.13155 0.471356,-0.5704 1.308523,-1.26867 1.909792,-1.59292 0.540495,-0.29148 0.666843,-0.34437 1.753607,-0.73412 l 0.635,-0.22773 6.011333,-0.0272 c 5.384859,-0.0244 6.08192,-0.0123 6.688667,0.11573 0.99954,0.21096 1.839747,0.50037 2.825165,0.97313 0.816246,0.3916 0.946912,0.49094 1.862667,1.41615 0.868578,0.87755 1.023781,1.07973 1.314772,1.71277 0.405748,0.88267 0.406679,0.88513 0.68867,1.80573 0.239293,0.78122 0.289721,1.07217 0.501119,2.89137 0.19034,1.63794 0.1925,26.71406 0.002,28.36333 -0.213706,1.85451 -0.240638,1.98148 -0.736311,3.47133 -0.648563,1.9494 -2.688937,3.90277 -4.680525,4.48094 -0.2794,0.0811 -0.75565,0.22682 -1.058334,0.3238 -0.302683,0.097 -0.950383,0.20576 -1.439333,0.24173 -0.48895,0.036 -1.1938,0.10379 -1.566333,0.15073 -0.816348,0.10285 -35.400613,0.10218 -36.364332,-8.5e-4 z m 64.304332,8.5e-4 c -0.32596,-0.0374 -1.03081,-0.10247 -1.56633,-0.14465 -0.53552,-0.0422 -1.06892,-0.11801 -1.18533,-0.16853 -0.11642,-0.0505 -0.57773,-0.20464 -1.02512,-0.34251 -0.79179,-0.24398 -1.50449,-0.58798 -2.10755,-1.01725 -0.78111,-0.556 -1.75147,-1.67354 -2.17781,-2.50812 -0.16457,-0.32217 -0.62464,-1.76926 -0.88828,-2.794 -0.0877,-0.34098 -0.10891,-5.99896 -0.10891,-29.083 v -28.65967 l 0.28125,-1.05833 c 0.4062,-1.52847 0.64071,-2.14605 1.0902,-2.87105 0.88371,-1.42537 2.24075,-2.48034 3.87339,-3.01119 1.51654,-0.4931 2.20625,-0.60905 4.15316,-0.69819 1.87554,-0.0859 35.83231,-0.0859 37.93066,-8e-5 1.73475,0.071 2.43817,0.15647 3.429,0.4167 1.68171,0.44168 2.70182,0.94196 3.57092,1.75125 1.56975,1.4617 2.17751,2.8841 2.60893,6.10589 0.13111,0.97912 0.0692,55.13134 -0.064,56.007 -0.28268,1.85794 -0.48806,2.62529 -0.99832,3.72995 -0.34545,0.74788 -0.47777,0.94137 -1.13517,1.65981 -0.65472,0.71553 -1.99121,1.63218 -2.69684,1.84966 -0.12494,0.0385 -0.60816,0.19083 -1.07383,0.33849 -0.61128,0.19382 -1.11735,0.28875 -1.82033,0.34146 -0.53552,0.0401 -1.29752,0.11064 -1.69334,0.15665 -0.87251,0.10143 -37.51171,0.10115 -38.39633,0 z m 33.22623,-13.56581 c 0.98513,-0.28516 1.14218,-0.76635 1.27541,-3.90792 0.12485,-2.94375 0.11748,-35.03886 -0.009,-37.80006 -0.075,-1.64157 -0.12251,-2.08215 -0.27385,-2.54 -0.1719,-0.52003 -0.209,-0.56676 -0.60604,-0.76343 -0.52893,-0.26199 -0.96952,-0.32648 -2.87907,-0.42139 -1.97175,-0.098 -21.01517,-0.0986 -22.733,-7.6e-4 -1.6503,0.094 -2.12237,0.17382 -2.72692,0.46092 -0.67719,0.32158 -0.8189,0.6366 -1.07729,2.39479 -0.0589,0.4006 -0.0908,3.28202 -0.0914,8.255 -9.3e-4,7.33435 0.0893,11.40879 0.26836,12.11517 0.11027,0.43509 0.39158,0.6783 1.25555,1.08549 2.8941,1.36398 3.69319,1.9066 4.52834,3.07493 0.69968,0.97882 0.90613,1.57046 1.18174,3.38667 0.0965,0.63616 0.15169,2.28866 0.22183,6.64633 0.0845,5.25012 0.10889,5.86385 0.25735,6.477 0.20071,0.82891 0.34398,1.03339 0.86835,1.23937 1.06254,0.41737 2.85513,0.48167 12.62842,0.45298 6.4818,-0.019 7.51052,-0.0392 7.9109,-0.1551 z m 50.29744,13.57093 c -0.25612,-0.0354 -0.82762,-0.10356 -1.27,-0.15154 -0.44239,-0.048 -1.01389,-0.1683 -1.27,-0.26735 -0.25612,-0.0991 -0.69215,-0.25463 -0.96896,-0.34573 -1.03241,-0.33978 -2.32669,-1.33235 -3.13121,-2.40129 -0.40944,-0.54402 -0.97983,-1.53107 -0.97983,-1.69556 0,-0.0338 -0.0543,-0.18145 -0.12073,-0.3282 -0.0664,-0.14673 -0.1982,-0.58225 -0.2929,-0.96781 -0.0947,-0.38556 -0.1981,-0.74299 -0.2298,-0.79427 -0.19636,-0.31772 -0.2288,-3.23368 -0.28575,-25.68271 -0.0408,-16.07269 -0.0903,-24.19973 -0.14924,-24.511 -0.20165,-1.06408 -0.29918,-1.21597 -0.95358,-1.48507 -0.61306,-0.2521 -1.51881,-0.29894 -7.19667,-0.37217 -2.97703,-0.0384 -5.58415,-0.10807 -5.842,-0.15612 -2.95088,-0.54992 -4.73378,-1.82195 -5.58273,-3.98306 -0.46642,-1.18735 -0.53833,-3.06421 -0.17575,-4.58691 0.39695,-1.66704 1.887,-3.28851 3.64181,-3.963 1.36495,-0.52464 1.45446,-0.54371 3.00567,-0.64027 1.80848,-0.11257 38.58206,-0.13317 40.93633,-0.0229 2.19329,0.1027 3.21396,0.34164 4.56057,1.06763 0.9043,0.48753 1.64456,1.25507 2.12557,2.2039 0.10624,0.20955 0.23208,0.45617 0.27968,0.54803 0.38441,0.74212 0.52843,3.23569 0.2637,4.56585 -0.34132,1.71501 -1.40483,3.15728 -2.83236,3.84111 -1.08406,0.51928 -1.2814,0.58935 -2.0865,0.74086 -1.53896,0.2896 -2.21623,0.32187 -8.02566,0.38238 -3.25967,0.034 -6.13622,0.0983 -6.39233,0.14305 -0.65278,0.114 -1.22378,0.36499 -1.43161,0.62928 -0.0999,0.127 -0.26902,0.61497 -0.38862,1.12113 -0.21046,0.89069 -0.21177,0.92136 -0.21177,4.94161 0,5.23043 0.006,5.2585 1.31233,5.92976 0.32597,0.16752 0.76412,0.36793 0.97367,0.44536 0.97329,0.35961 2.52109,1.33519 3.10189,1.95513 0.84574,0.90273 1.36016,2.09305 1.69587,3.92412 0.14686,0.80101 0.15524,1.67755 0.15524,16.256 0,14.37434 -0.01,15.45198 -0.1481,16.04433 -0.0815,0.34925 -0.14813,0.71693 -0.14817,0.81707 0,0.39198 -0.59993,2.02217 -1.02888,2.79648 -0.88704,1.6012 -2.38638,2.79528 -4.34752,3.46235 -0.6002,0.20415 -1.1872,0.3402 -1.651,0.38266 -0.39582,0.0362 -0.98637,0.10517 -1.31233,0.15322 -0.66996,0.0987 -2.89352,0.10101 -3.59833,0.004 z m 61.04466,-0.004 c -0.25612,-0.0383 -0.82762,-0.10653 -1.27,-0.15153 -0.44238,-0.045 -1.01388,-0.16309 -1.27,-0.26245 -0.25612,-0.0994 -0.69215,-0.25519 -0.96896,-0.34629 -1.1337,-0.37311 -2.54098,-1.50537 -3.31285,-2.66542 -0.64877,-0.97504 -0.94927,-1.6821 -1.29301,-3.04242 l -0.29951,-1.18533 -0.0542,-24.34166 c -0.0376,-16.85975 -0.0821,-24.44577 -0.14484,-24.68034 -0.0498,-0.18626 -0.13547,-0.58419 -0.19031,-0.88427 -0.12765,-0.69846 -0.23206,-0.83849 -0.78023,-1.04635 -0.71922,-0.27272 -1.57887,-0.31902 -7.26472,-0.39123 -3.28938,-0.0418 -5.55708,-0.10449 -5.842,-0.16156 -1.22733,-0.24583 -1.72184,-0.40262 -2.59129,-0.8216 -0.80556,-0.38819 -1.03276,-0.5462 -1.58574,-1.10277 -0.61101,-0.61499 -1.14577,-1.41059 -1.39081,-2.06922 -0.2474,-0.66499 -0.44349,-1.83074 -0.44349,-2.63658 0,-2.35477 1.07274,-4.31684 2.96709,-5.42692 0.35133,-0.20587 0.71328,-0.39664 0.80434,-0.42393 0.0911,-0.0273 0.3588,-0.12326 0.59496,-0.21327 0.75784,-0.28883 1.57197,-0.43095 2.87261,-0.50146 1.66552,-0.0903 38.77242,-0.087 40.64,0.004 0.79163,0.0384 1.72473,0.12577 2.07355,0.19415 0.71455,0.14006 1.4423,0.35674 1.56288,0.46532 0.0442,0.0398 0.14124,0.0724 0.21556,0.0724 0.2393,0 1.38253,0.75908 1.88955,1.25461 0.60144,0.58782 1.19744,1.64124 1.43733,2.54043 0.13592,0.50949 0.17488,0.92444 0.18026,1.91996 0.009,1.61496 -0.15294,2.41552 -0.71162,3.52388 -0.35197,0.69825 -0.48804,0.87198 -1.12706,1.43902 -1.15373,1.02377 -2.33846,1.47707 -4.67379,1.78829 -0.37784,0.0504 -3.27914,0.11796 -6.56166,0.1529 -3.23639,0.0344 -6.11293,0.0972 -6.39233,0.13946 -0.49503,0.0749 -1.13704,0.32706 -1.40095,0.55034 -0.16888,0.14287 -0.28751,0.45401 -0.50394,1.32174 -0.16759,0.67192 -0.17427,0.8925 -0.15122,4.99533 l 0.0241,4.29235 0.26704,0.5653 c 0.29588,0.62633 0.19362,0.55809 2.06129,1.37558 3.01765,1.32085 4.14986,2.69401 4.71751,5.72145 0.14117,0.75285 0.15082,1.79596 0.15082,16.29833 v 15.494 l -0.18959,1.016 c -0.39441,2.11354 -1.04709,3.48868 -2.23684,4.71281 -0.62437,0.6424 -1.10597,1.00261 -1.84923,1.3831 -0.89751,0.45946 -0.91214,0.46576 -1.08259,0.46576 -0.0845,0 -0.18974,0.0326 -0.23398,0.0724 -0.1734,0.15613 -1.04695,0.37954 -1.73143,0.44281 -0.39582,0.0366 -0.98637,0.10582 -1.31234,0.15387 -0.68816,0.10142 -2.91919,0.101 -3.59833,-8.5e-4 z m -398.35665,-0.58873 c -4.16636,-0.29333 -6.6622,-2.12932 -7.47448,-5.49838 -0.585,-2.42641 -0.56522,-1.37885 -0.56525,-29.92966 -2e-5,-21.44443 0.0194,-25.73299 0.12233,-27.051 0.23472,-3.00471 0.70637,-4.56136 1.79768,-5.93307 1.19264,-1.4991 2.77754,-2.27943 5.61172,-2.76296 0.83221,-0.14198 1.87609,-0.15167 16.34067,-0.15167 h 15.45166 l 0.84667,0.20079 c 1.97119,0.46749 3.02897,1.08854 3.91208,2.29687 0.7325,1.00226 1.07915,2.20344 1.0751,3.72534 -0.007,2.74632 -1.25849,4.5987 -3.62877,5.37243 -1.55756,0.50844 -1.08697,0.49052 -14.48174,0.5516 l -12.27667,0.056 -0.59267,0.19378 c -0.72429,0.23682 -1.27466,0.75176 -1.50135,1.4047 -0.51307,1.47785 -0.71151,6.15561 -0.40417,9.5273 0.0444,0.48723 0.0997,0.96208 0.12286,1.05521 0.0232,0.0931 0.0778,0.31462 0.12151,0.49218 0.29962,1.2183 1.28201,1.6055 4.45052,1.75417 0.88732,0.0416 6.26368,0.0771 11.94747,0.0788 9.95085,0.003 10.36823,0.009 11.25256,0.17188 2.69162,0.49452 4.13224,1.5919 4.7891,3.64806 0.52237,1.63515 0.36534,3.76543 -0.38701,5.25012 -0.47512,0.93761 -1.7083,1.90951 -2.89331,2.28027 -1.47445,0.46133 -1.13077,0.44434 -10.26851,0.50792 -8.963,0.0624 -9.14485,0.0705 -10.31831,0.46024 -0.84754,0.2815 -1.29815,1.07892 -1.5421,2.72898 -0.0668,0.45171 -0.11929,4.02935 -0.16564,11.28701 -0.0375,5.87745 -0.10413,10.8905 -0.14903,11.21833 -0.49779,3.63406 -2.04733,5.7262 -4.92107,6.64425 -1.40203,0.44789 -3.69698,0.60175 -6.27185,0.42046 z"
       id="path234" /></g></svg>
