<?xml version="1.0" encoding="UTF-8" standalone="no"?>
<!-- Created with Inkscape (http://www.inkscape.org/) -->

<svg
   width="555.54016mm"
   height="163.13321mm"
   viewBox="0 0 555.54016 163.13321"
   version="1.1"
   id="svg5"
   xml:space="preserve"
   inkscape:version="1.2.2 (732a01da63, 2022-12-09)"
   sodipodi:docname="Forgotten Machines Logo - Innerer-Single-Line Trace Bitmap.svg"
   xmlns:inkscape="http://www.inkscape.org/namespaces/inkscape"
   xmlns:sodipodi="http://sodipodi.sourceforge.net/DTD/sodipodi-0.dtd"
   xmlns="http://www.w3.org/2000/svg"
   xmlns:svg="http://www.w3.org/2000/svg"><sodipodi:namedview
     id="namedview7"
     pagecolor="#ffffff"
     bordercolor="#000000"
     borderopacity="0.25"
     inkscape:showpageshadow="2"
     inkscape:pageopacity="0.0"
     inkscape:pagecheckerboard="0"
     inkscape:deskcolor="#d1d1d1"
     inkscape:document-units="mm"
     showgrid="false"
     inkscape:zoom="0.25323113"
     inkscape:cx="673.29795"
     inkscape:cy="1324.8766"
     inkscape:window-width="1920"
     inkscape:window-height="991"
     inkscape:window-x="-9"
     inkscape:window-y="-9"
     inkscape:window-maximized="1"
     inkscape:current-layer="layer1" /><defs
     id="defs2" /><g
     inkscape:label="Layer 1"
     inkscape:groupmode="layer"
     id="layer1"
     transform="translate(97.94576,201.1364)"><path
       style="fill:#000000;stroke-width:0.999998"
       d="m -62.34352,-38.261486 c -0.92464,-0.46801 -1.46594,-1.16629 -1.83362,-2.36539 l -0.19471,-0.635 -0.0475,-25.273 c -0.0379,-20.16487 -0.0698,-25.4099 -0.15771,-25.95034 -0.21053,-1.29429 -0.53191,-2.58312 -0.74324,-2.98058 -0.50076,-0.9418 -1.44169,-1.75458 -2.32179,-2.00558 -1.7679,-0.50418 -2.73632,-0.5596 -9.76559,-0.5588 -6.26313,8.5e-4 -6.63442,0.0152 -8.45122,0.32944 -1.59569,0.27599 -2.63976,0.92121 -3.33509,2.061 -0.31795,0.52119 -0.38057,0.6896 -0.62206,1.67286 -0.4093,1.66658 -0.43756,2.09832 -0.40451,6.18066 0.0339,4.18326 0.0635,4.49166 0.54477,5.67267 0.45792,1.12364 1.18382,1.7271 3.16852,2.63405 0.69691,0.31846 1.43316,0.69327 1.63612,0.83291 0.7855,0.54045 1.28814,1.3104 1.66102,2.54437 l 0.19188,0.635 0.0305,14.13934 c 0.0314,14.58902 -0.003,16.71734 -0.29019,17.99166 -0.44899,1.99153 -1.32461,3.22257 -2.77066,3.89529 -0.96452,0.4487 -1.11576,0.49876 -1.7795,0.58897 -0.32596,0.0443 -0.84031,0.11952 -1.143,0.16712 -1.26803,0.19942 -3.20154,0.0782 -4.86833,-0.3051 -0.88283,-0.20305 -1.83284,-0.73388 -2.40161,-1.34195 -0.66564,-0.71163 -0.98307,-1.39288 -1.53473,-3.29375 -0.16869,-0.58126 -0.16999,-0.80046 -0.16999,-28.49724 0,-27.82271 5e-4,-27.913354 0.17228,-28.497254 0.58718,-1.99631 0.84169,-2.53303 1.53116,-3.22894 0.82297,-0.83064 2.13599,-1.40022 3.58822,-1.55654 3.13211,-0.33714 2.30073,-0.32791 29.591,-0.32854 15.92998,0 26.75208,0.0316 27.60133,0.0816 1.92321,0.11311 3.14489,0.23772 3.89467,0.39727 0.76357,0.16247 2.03917,0.7592 2.47368,1.15721 0.34335,0.3145 1.08232,1.36716 1.08232,1.54175 0,0.0598 0.0757,0.28533 0.16818,0.50113 0.0925,0.21578 0.20509,0.60948 0.25019,0.87485 0.0451,0.26537 0.15981,0.9397 0.25491,1.498504 0.17172,1.00906 0.1729,1.2095 0.17314,29.36522 v 28.34923 l -0.17459,0.69144 c -0.38283,1.51617 -1.03995,2.4757 -2.0451,2.98626 -0.37152,0.18871 -0.49247,0.20279 -1.73567,0.20205 -1.32149,-8.5e-4 -1.34109,-0.004 -1.76784,-0.24831 -0.51055,-0.29283 -1.13067,-0.95584 -1.3682,-1.46285 -0.0934,-0.19931 -0.2681,-0.72433 -0.38826,-1.16671 l -0.21848,-0.80433 -0.0304,-25.44234 c -0.0211,-17.64309 -0.0581,-25.55913 -0.12076,-25.82333 -0.0497,-0.20955 -0.13619,-0.62838 -0.19214,-0.93073 -0.24217,-1.30865 -0.60884,-2.08185 -1.26378,-2.66501 -0.90936,-0.8097 -1.47226,-0.98976 -3.98748,-1.27557 -1.52133,-0.17287 -9.20151,-0.17217 -10.62567,9.4e-4 -2.11003,0.25652 -2.60151,0.39202 -3.45086,0.95141 -1.38056,0.90926 -1.96007,2.54649 -2.09139,5.9086 -0.0346,0.88477 -0.0694,12.35287 -0.0774,25.48467 -0.014,22.9308 -0.0208,23.89995 -0.17125,24.481 -0.36894,1.42492 -0.98049,2.293 -1.98584,2.81886 -0.48738,0.25493 -0.51556,0.25912 -1.73566,0.25806 -1.21244,-10e-4 -1.25162,-0.007 -1.74824,-0.2582 z m 96.98567,0.0534 c -0.80092,-0.22285 -1.47038,-0.67914 -1.82828,-1.24609 -0.32506,-0.51493 -0.64877,-1.57512 -0.73292,-2.40042 -0.0427,-0.4191 -0.10909,-5.73405 -0.14745,-11.811 -0.0694,-10.99125 -0.11328,-12.63488 -0.37195,-13.92767 -0.4529,-2.26346 -1.52737,-3.39637 -3.60807,-3.80433 -0.39582,-0.0776 -0.99698,-0.19635 -1.3359,-0.26388 -0.91148,-0.18161 -17.5758604,-0.18258 -18.4948604,-0.001 -0.33893,0.0669 -0.9376,0.1846 -1.33037,0.26149 -1.01797,0.19925 -1.70853,0.55164 -2.34314,1.19569 -0.65187,0.66158 -0.90311,1.17959 -1.19455,2.46293 l -0.22615,0.99584 -0.0562,10.20234 c -0.0581,10.54404 -0.0578,10.5372 -0.41084,12.78731 -0.21875,1.39443 -0.86451,2.80388 -1.58791998,3.46586 -0.41954,0.38391 -1.18156,0.81082 -1.80677,1.01221 -0.68977002,0.22219 -2.98588002,0.4455 -4.14866002,0.4035 -4.64203,-0.16769 -5.8861096,-1.1152 -6.7464396,-5.13822 -0.14667,-0.68587 -0.15493,-1.99562 -0.17587,-27.89766 -0.0237,-29.297974 -0.0396,-28.130734 0.39588,-28.984434 0.44379,-0.86989 2.0865896,-2.6988 2.8857596,-3.21266 0.84067,-0.54054 1.61846,-0.85714 2.58233,-1.05113 0.81019,-0.16307 1.32783,-0.19534 3.97934,-0.24806 6.55133,-0.13026 21.6017104,-0.22638 28.4480004,-0.18168 6.81924,0.0445 7.21851,0.0554 7.61317,0.20872 1.14008,0.44273 1.8903,0.93335 2.9663,1.9399 0.47006,0.43971 0.64802,0.68952 1.01607,1.42621 0.2454,0.49122 0.53389,1.19793 0.64108,1.57046 0.10717,0.37253 0.23485,0.753534 0.28371,0.846674 0.0489,0.0931 0.11882,0.72178 0.15546,1.397 0.10584,1.95111 0.2453,25.18826 0.2477,41.275 0.002,12.84697 -0.0142,14.80783 -0.12604,15.32466 -0.0705,0.32597 -0.15311,0.74347 -0.18349,0.92777 -0.0786,0.47705 -0.48585,1.31098 -0.79644,1.63107 -0.7797,0.80352 -2.35013,1.17103 -3.56252,0.83367 z m -8.9744,-41.27514 c 0.65982,-0.19628 1.745,-0.59568 2.32806,-0.85684 0.96553,-0.43248 1.96564,-1.31442 2.68684,-2.36937 0.2913,-0.4261 0.33005,-0.55575 0.49251,-1.64783 0.15191,-1.02117 0.17128,-1.46675 0.1398,-3.21733 -0.0435,-2.41872 -0.1806,-4.24378 -0.36258,-4.826 -0.28137,-0.90022 -0.73716,-1.67732 -1.34674,-2.2962 -0.64317,-0.65297 -1.18455,-0.97165 -2.26935,-1.3358 l -0.65637,-0.22033 h -9.5593 -9.5592904 l -0.84674,0.28408 c -1.01808,0.34157 -1.39789,0.5571 -2.13117,1.20939 -0.66858,0.59475 -0.95449,0.96022 -1.43138,1.82973 -0.58229,1.06168 -0.59643,1.16863 -0.59755,4.52427 -8.5e-4,2.6244 0.0179,3.05842 0.15804,3.64504 0.21996,0.92094 0.72995,1.85656 1.47373,2.70367 0.39192,0.44639 1.51862,1.36211 2.36472,1.92192 1.29882,0.85936 0.56811,0.80134 10.1844404,0.80876 8.04902,0.006 8.40414,-3e-5 8.93233,-0.15716 z m 139.6502,41.28222 c -0.23679,-0.0602 -0.67494,-0.24318 -0.97367,-0.40669 -0.67553,-0.36979 -1.15299,-1.00792 -1.46768,-1.96159 l -0.21846,-0.66202 8.5e-4,-11.06432 c 8.5e-4,-10.75961 -0.0179,-11.69947 -0.26528,-13.30797 -0.0465,-0.30268 -0.11694,-0.8371 -0.15644,-1.18759 -0.0395,-0.3505 -0.12814,-0.7696 -0.197,-0.93134 -0.43483,-1.02137 -0.55988,-1.26031 -0.867,-1.65663 -0.87284,-1.12633 -1.77174,-1.54254 -4.012,-1.85764 -1.26542,-0.17798 -15.61368,-0.17907 -17.19376,-0.001 -2.27504,0.25596 -3.15157,0.58204 -4.03118,1.49969 -0.66615,0.69495 -0.83659,1.04229 -1.19614,2.43767 l -0.2955,1.14681 -0.0336,9.779 c -0.0188,5.46643 -0.0721,10.32041 -0.1208,11.00667 -0.17933,2.52558 -0.60894,3.80311 -1.63085,4.84969 -1.18682,1.21546 -2.61157,1.62571 -5.6459,1.62571 -3.62752,0 -5.49128,-0.72563 -6.59522,-2.56774 -0.51169,-0.85386 -0.71049,-1.56021 -0.89668,-3.18603 -0.16136,-1.40894 -0.21115,-55.19054 -0.0524,-56.643974 0.14815,-1.35673 0.31375,-2.03793 0.66618,-2.74036 0.35602,-0.70957 0.81111,-1.15836 1.53367,-1.51244 0.42689,-0.20919 0.58469,-0.23633 1.52474,-0.26225 0.83746,-0.0231 1.12724,8.5e-4 1.43933,0.11701 1.15379,0.43085 1.73707,1.12448 2.1172,2.51777 0.28129,1.03098 0.35618,3.464344 0.30021,9.754274 -0.047,5.27732 0.0246,8.80172 0.20279,9.99067 0.0762,0.50856 0.27096,1.23845 0.49346,1.84959 0.31348,0.86103 1.33744,1.72949 2.56687,2.17706 1.2363,0.45007 1.57479,0.46068 14.69157,0.46068 13.62836,0 13.36272,0.011 14.76887,-0.61336 0.7418,-0.32938 1.67485,-1.26008 1.98139,-1.97638 0.33993,-0.79434 0.40554,-1.01449 0.47719,-1.60126 0.0427,-0.34925 0.11538,-0.88265 0.16162,-1.18533 0.24047,-1.57385 0.26559,-2.54069 0.2662,-10.24467 8.4e-4,-7.589674 0.009,-8.032884 0.16173,-8.621274 0.31444,-1.21071 0.83115,-1.93465 1.71141,-2.39777 0.31378,-0.16509 0.52593,-0.19849 1.43406,-0.22583 1.04184,-0.0314 1.08049,-0.026 1.71881,0.23975 1.4167,0.58977 1.99527,1.58708 2.16987,3.74027 0.13328,1.64352 0.0666,60.042584 -0.0693,60.691984 -0.31603,1.51023 -1.08143,2.47518 -2.25665,2.84504 -0.57026,0.17947 -1.6761,0.22267 -2.21236,0.0864 z m 99.87152,-0.0217 c -1.24763,-0.3338 -2.01874,-1.23039 -2.38499,-2.77306 -0.0796,-0.33539 -0.11489,-6.25613 -0.15335,-25.75087 -0.0393,-19.90147 -0.0729,-25.44208 -0.15734,-25.908 -0.23864,-1.31719 -0.45672,-2.13598 -0.70115,-2.6325 -0.69437,-1.41046 -2.19604,-2.21828 -4.5195,-2.43127 -1.3028,-0.11942 -21.99727,-0.1439 -23.368,-0.0276 -1.33994,0.11365 -2.70996,0.50312 -3.36386,0.95627 -0.47952,0.33231 -1.03908,0.98429 -1.29673,1.51091 -0.12279,0.25098 -0.31425,0.81075 -0.42547,1.24394 -0.20054,0.78108 -0.20223,0.82471 -0.20391,5.25141 -0.002,4.21855 0.008,4.50926 0.17606,5.29167 0.41872,1.95018 0.81995,2.65181 1.94413,3.39969 0.35212,0.23425 0.73312,0.46179 0.84667,0.50563 0.11354,0.0438 0.53749,0.23614 0.94211,0.42731 0.40461,0.19117 0.76144,0.34758 0.79295,0.34758 0.0315,0 0.31161,0.16908 0.62247,0.37573 0.89533,0.59522 1.32473,1.30587 1.65463,2.73833 l 0.21595,0.9377 -0.002,14.71696 c -0.001,12.91405 -0.0176,14.80511 -0.13263,15.43661 -0.0721,0.39582 -0.16316,0.92922 -0.2024,1.18534 -0.2188,1.42858 -1.04728,2.8579 -2.03407,3.50923 -0.69854,0.46106 -1.36569,0.70997 -2.32834,0.86871 -1.0107,0.16666 -4.16565,0.23932 -4.78366,0.11017 -0.25612,-0.0535 -0.75142,-0.12809 -1.10067,-0.16569 -1.04904,-0.11297 -2.19199,-0.65599 -2.77151,-1.31676 -0.3944,-0.44969 -0.93059,-1.58712 -1.0854,-2.30245 -0.0686,-0.31692 -0.20038,-1.10729 -0.29289,-1.75639 -0.16495,-1.15736 -0.1682,-1.69204 -0.1682,-27.65249 0,-25.94383 0.003,-26.49411 0.16736,-27.56416 0.28733,-1.874404 0.55257,-2.686284 1.22625,-3.753484 0.4154,-0.65801 1.45884,-1.28569 2.75693,-1.6584 0.71251,-0.20457 1.04922,-0.24215 3.00379,-0.33518 2.66803,-0.127 11.48724,-0.14403 25.82334,-0.0499 l 10.49866,0.069 1.09383,0.27249 c 2.15761,0.5375 3.11396,1.20284 3.80767,2.64902 0.47064,0.98116 0.64214,1.68368 0.7389,3.026974 0.0436,0.60568 0.0668,13.27991 0.0543,29.63334 l -0.022,28.575 -0.19415,0.55033 c -0.54144,1.53472 -1.15561,2.16204 -2.44572,2.49807 -0.60794,0.15835 -1.61795,0.15421 -2.22847,-0.009 z m -70.18866,-0.0589 c -0.0233,-0.0229 -0.45635,-0.0858 -0.96237,-0.13979 -0.50601,-0.054 -1.05846,-0.14776 -1.22766,-0.20839 -0.1692,-0.0606 -0.46004,-0.15761 -0.64631,-0.21552 -0.95912,-0.29817 -2.24746,-1.37817 -2.69309,-2.2576 -0.11946,-0.23573 -0.32437,-0.78705 -0.45538,-1.22516 l -0.23819,-0.79655 v -29.54867 -29.548664 l 0.2408,-0.67366 c 0.53163,-1.48728 1.33571,-2.1564 2.82192,-2.34825 1.33058,-0.17176 2.55119,0.14874 3.2077,0.84227 0.37802,0.39932 0.77536,1.19727 0.89648,1.8003 0.0618,0.30763 0.11185,3.360044 0.14857,9.057674 0.0305,4.72652 0.0844,8.64022 0.11996,8.6971 0.0355,0.0569 0.10054,0.55219 0.14446,1.10067 0.11632,1.45232 0.21958,1.94283 0.54862,2.6059 0.53925,1.08668 1.30981,1.70589 2.91517,2.34265 2.25135,0.89298 3.06327,1.66736 3.5358,3.37235 0.1444,0.52102 0.15252,1.38904 0.15252,16.29833 v 15.748 l -0.18601,0.70594 c -0.40209,1.52609 -1.09828,2.59792 -2.08356,3.20781 -0.95581,0.59164 -1.87162,0.913 -2.97977,1.04561 -0.85896,0.10277 -3.19483,0.20142 -3.25966,0.13765 z m 218.48146,-0.0804 c -0.0209,-0.0583 -0.0293,-1.03944 -0.0186,-2.18033 l 0.0194,-2.07433 h 22.05567 22.05566 v 2.159 2.159 l -22.0371,0.0213 c -17.58623,0.017 -22.04477,0 -22.07509,-0.0847 z m -59.32306,-0.48964 c -4.25502,-0.26585 -5.56777,-1.69395 -5.95142,-6.47435 -0.16086,-2.00434 -0.16954,-12.4188 -0.0113,-13.50434 0.273,-1.87228 0.89605,-2.63576 2.39039,-2.92909 0.97871,-0.19212 1.90883,-0.0579 2.61355,0.37712 0.42722,0.26374 0.50652,0.36151 0.79942,0.98564 0.41929,0.89346 0.44718,1.1815 0.51238,5.29167 0.0622,3.91916 0.12528,4.71522 0.46465,5.86184 0.2259,0.76327 0.64535,1.50737 1.15956,2.05706 0.86752,0.92738 1.68045,1.31748 3.48876,1.67412 0.93532,0.18447 1.00171,0.18563 10.59323,0.18581 8.99883,0 9.7058,-0.0103 10.44704,-0.15443 1.6814,-0.32693 2.46523,-0.7109 3.28411,-1.60877 0.85553,-0.93807 1.27163,-2.28612 1.46527,-4.74709 0.11339,-1.44108 0.1115,-12.92614 -0.002,-14.19054 -0.27697,-3.07647 -1.05923,-4.478 -3.0021,-5.3787 -0.32596,-0.15111 -0.89746,-0.33367 -1.27,-0.40568 -0.37253,-0.072 -0.92498,-0.17894 -1.22766,-0.23762 -0.4188,-0.0812 -3.5555,-0.12021 -13.12334,-0.16323 -8.35191,-0.0375 -12.84303,-0.0882 -13.37733,-0.15092 -3.94304,-0.46273 -4.97859,-1.75616 -5.24786,-6.55473 -0.0534,-0.95107 -0.0845,-5.17835 -0.0775,-10.541 0.0143,-11.066844 0.0613,-11.818024 0.83958,-13.440464 0.64635,-1.34732 1.77955,-2.0474 3.89311,-2.40512 1.31231,-0.2221 4.47508,-0.26189 20.83841,-0.26216 17.75675,0 19.78465,0.0333 21.36793,0.3543 2.95284,0.5986 3.82421,1.58389 4.29188,4.85298 0.0774,0.541094 0.10927,2.013824 0.10989,5.080004 8.5e-4,3.77299 -0.0184,4.43416 -0.15225,5.2383 -0.41942,2.52039 -1.24538,3.35971 -3.30847,3.36197 -1.4903,0.002 -2.2358,-0.51712 -2.74721,-1.9116 -0.18542,-0.50557 -0.43603,-2.56535 -0.43782,-3.59833 -10e-4,-0.60469 -0.29851,-2.59065 -0.47288,-3.15711 -0.60764,-1.97391 -1.64813,-2.94568 -3.67548,-3.43274 -1.38564,-0.33289 -2.22595,-0.35229 -15.19766,-0.35088 -13.35978,0.001 -13.48789,0.005 -14.88497,0.41315 -1.61091,0.47062 -2.81914,1.61845 -3.35073,3.18324 -0.527,1.55126 -0.6873,3.11736 -0.6873,6.71466 0,5.33388 0.42154,7.1838 1.96192,8.60992 0.84073,0.77838 1.71586,1.1217 3.56267,1.39768 1.08506,0.16216 1.61037,0.16768 16.06541,0.169 16.70781,0.002 18.31797,0.0435 19.939,0.51953 1.89235,0.55572 2.72366,1.59163 3.08196,3.84055 0.28563,1.79271 0.30206,2.64674 0.30054,15.621 -0.001,11.46954 -0.0172,13.05351 -0.14238,14.18166 -0.0775,0.6985 -0.19979,1.53561 -0.27182,1.86024 -0.18851,0.84958 -0.6426,1.74951 -1.1225,2.22466 -0.63074,0.62447 -1.83039,1.13182 -3.07347,1.2998 -0.34925,0.0472 -0.92075,0.12561 -1.27,0.17426 -0.76673,0.10679 -37.74293,0.17132 -39.38493,0.0687 z m -291.1114,-0.0433 c -0.0466,-0.0185 -0.85052,-0.0902 -1.78657,-0.15928 -0.93605,-0.0691 -1.7933,-0.16335 -1.905,-0.20947 -0.1117,-0.0461 -0.48382,-0.16893 -0.82692,-0.27288 -0.7387,-0.22379 -1.44037,-0.65898 -1.93709,-1.20142 -0.49305,-0.53844 -0.98312,-1.61953 -1.15867,-2.55601 -0.0786,-0.4191 -0.18819,-0.9525 -0.24363,-1.18534 -0.0769,-0.32281 -0.10078,-6.90667 -0.10078,-27.72833 v -27.305 l 0.2416,-1.185334 c 0.13288,-0.65194 0.26973,-1.22344 0.3041,-1.27 0.0344,-0.0466 0.12878,-0.25612 0.2098,-0.46567 0.081,-0.20955 0.2745,-0.57336 0.42996,-0.80847 0.88594,-1.33988 2.40115,-2.00564 5.07987,-2.23202 1.50822,-0.12746 35.10935,-0.12997 36.66066,-0.003 2.45225,0.20112 3.61911,0.61008 4.59828,1.61162 0.61025,0.62417 1.13529,1.86572 1.37523,3.25195 0.10819,0.625064 0.27624,5.458484 0.20971,6.031724 -0.0315,0.27118 -0.0888,1.73008 -0.12743,3.242 -0.0619,2.42264 -0.0903,2.80536 -0.23969,3.22423 -0.48434,1.3583 -0.98438,1.87166 -2.21058,2.26949 -0.75696,0.24559 -1.54945,0.23255 -2.4437,-0.0402 -0.95079,-0.29 -1.47303,-0.78203 -1.88215,-1.77322 -0.28784,-0.69737 -0.30749,-0.82325 -0.5091,-3.25967 -0.19914,-2.40657 -0.24317,-2.78187 -0.40273,-3.43207 -0.37939,-1.54599 -1.23803,-2.54097 -2.6435,-3.06322 -0.49353,-0.18339 -1.78789,-0.44733 -2.19737,-0.44808 -0.21173,0 -0.80407,-0.0568 -1.3163,-0.12535 -1.39502,-0.1867 -20.25963,-0.1871 -21.49796,-8.5e-4 -0.4616,0.0696 -0.96401,0.1265 -1.11646,0.1265 -0.31053,0 -1.41285,0.25521 -1.95606,0.45285 -0.35657,0.12975 -1.10408,0.59006 -1.42287,0.87621 -0.44067,0.39555 -0.92658,1.21133 -1.17515,1.97294 -0.42261,1.29487 -0.46849,1.73157 -0.52229,4.97119 -0.0978,5.89252 0.12244,7.33196 1.31712,8.60668 0.55996,0.59748 1.01918,0.90063 2.43711,1.60883 1.63475,0.81651 2.24013,1.18433 2.6174,1.59034 0.25695,0.2765 0.59738,1.07449 0.70764,1.65876 0.16618,0.88057 0.23452,4.1076 0.24191,11.42337 0.007,7.3118 0.1,11.86387 0.2633,12.93983 0.14973,0.98661 0.43782,2.18129 0.6125,2.54 0.65949,1.35434 1.58104,2.06463 3.17998,2.45099 1.60927,0.38887 1.52278,0.38535 9.45583,0.38535 7.84932,0 7.88484,-10e-4 9.35567,-0.36032 1.42959,-0.34889 2.5563,-1.14183 3.00811,-2.11701 0.60449,-1.30474 0.88772,-3.33103 0.88704,-6.34614 -10e-4,-4.4753 0.3698,-6.05263 1.6169,-6.87792 0.41244,-0.27294 1.666597,-0.63973 2.18092,-0.63783 0.21598,8.5e-4 0.65939,0.071 0.98536,0.15607 1.41817,0.37 1.97732,0.9552 2.48741,2.60334 l 0.18382,0.59395 -0.0233,7.91109 c -0.017,5.76387 -0.0499,7.96855 -0.12116,8.12277 -0.0538,0.11641 -0.17836,0.47175 -0.27671,0.78964 -0.48036,1.55255 -1.67379,2.6212 -3.48021,3.11633 -1.91893,0.52597 -2.11233,0.53119 -20.44453,0.55108 -9.12707,0.01 -16.63277,0.003 -16.67934,-0.0157 z m 232.79099,-0.0431 c -0.25611,-0.037 -0.88476,-0.1085 -1.397,-0.15886 -1.64302,-0.1615 -3.03957,-0.7697 -3.84664,-1.67521 -0.87186,-0.9782 -1.28715,-2.18649 -1.5271,-4.44311 -0.12361,-1.16242 -0.12088,-51.3673 0.003,-53.15444 0.10336,-1.49251 0.35064,-2.929114 0.63754,-3.703884 0.28756,-0.77656 0.83003,-1.65731 1.24058,-2.01419 0.83997,-0.73017 2.28031,-1.20972 4.17397,-1.38971 0.61259,-0.0582 6.01624,-0.0883 15.66333,-0.0873 16.25063,0.002 15.5449,-0.0208 16.74389,0.53321 0.79973,0.3695 1.3719,0.94858 1.69603,1.71649 0.23289,0.55177 0.23948,0.60739 0.20875,1.76275 l -0.0317,1.19299 -0.30733,0.508004 c -0.16903,0.2794 -0.41537,0.60942 -0.54742,0.73336 -0.31163,0.29251 -1.16956,0.72328 -1.69164,0.84938 -0.29909,0.0722 -3.66424,0.11314 -12.34912,0.15012 -12.43369,0.0529 -12.46913,0.054 -14.05466,0.42333 -0.94806,0.22084 -1.22002,0.33609 -1.76639,0.74862 -0.8694,0.6564 -1.32935,1.3746 -1.60993,2.51386 -0.0803,0.32597 -0.18525,0.70697 -0.23325,0.84667 -0.21443,0.62401 -0.3459,5.74967 -0.2139,8.33966 0.0702,1.37798 0.19211,2.05336 0.56148,3.11109 0.50119,1.4352 1.60944,2.37501 3.15068,2.67179 1.45656,0.28048 2.68014,0.31031 14.16597,0.3454 l 11.51467,0.0352 0.81918,0.21352 c 1.09827,0.28627 1.51521,0.48259 1.95113,0.91876 0.59182,0.59216 0.76418,1.05098 0.8097,2.15538 0.0441,1.069 -0.055,1.49224 -0.54509,2.32843 -0.35626,0.60786 -0.72533,0.91762 -1.63147,1.36929 l -0.71321,0.35551 -8.38846,0.0597 c -4.61364,0.0328 -8.7123,0.0962 -9.10811,0.14099 -1.99488,0.22544 -2.72986,0.4638 -3.55445,1.15273 -0.38104,0.31834 -0.95381,1.06383 -1.04181,1.35596 -0.0281,0.0931 -0.12401,0.37888 -0.21323,0.635 -0.38937,1.11768 -0.50884,2.18768 -0.60504,5.41867 -0.1716,5.76401 -0.0648,10.64717 0.26756,12.23433 0.0975,0.46567 0.21351,0.94192 0.25776,1.05833 0.39851,1.0486 1.11529,1.90068 1.93398,2.29905 0.57931,0.2819 1.63753,0.57901 2.07163,0.58164 0.18329,10e-4 0.48566,0.0461 0.67193,0.0999 0.23741,0.0686 2.60419,0.11641 7.91633,0.15982 4.16772,0.034 8.05392,0.0991 8.636,0.14466 2.20227,0.17219 3.41502,0.90389 3.89657,2.35097 0.16155,0.48543 0.18288,0.69729 0.15174,1.50721 -0.033,0.85898 -0.0608,0.9911 -0.31387,1.49272 -0.38643,0.76591 -0.69618,1.0578 -1.57544,1.48456 -1.48288,0.71973 -1.46014,0.71882 -17.56833,0.70603 -7.61365,-0.006 -14.05255,-0.0413 -14.30867,-0.0783 z m 150.76035,-94.750694 c -0.51698,-0.0989 -1.36993,-0.48348 -1.70851,-0.77035 -0.1418,-0.12014 -0.41379,-0.53595 -0.60441,-0.92401 -0.67162,-1.36725 -0.61948,0.88932 -0.6191,-26.79135 0,-26.9859 0.0251,-25.54932 -0.4752,-27.59272 -0.39904,-1.62974 -1.22969,-2.54624 -2.7848,-3.07262 -0.87977,-0.29779 -1.49514,-0.42158 -2.45533,-0.49391 -1.22086,-0.092 -21.7495,-0.0925 -22.90234,-5.9e-4 -1.84015,0.14669 -3.18156,0.63905 -4.02831,1.47857 -0.54731,0.54263 -0.85463,1.13661 -1.15028,2.2232 -0.19028,0.69932 -0.19373,0.79086 -0.19572,5.19918 -0.002,4.78856 0.0174,5.07908 0.43312,6.42973 0.47432,1.54106 0.97818,2.05884 2.90562,2.98586 0.72375,0.34809 1.48166,0.71514 1.68426,0.81565 0.20259,0.10052 0.56454,0.3747 0.80433,0.60929 0.61476,0.60142 0.91367,1.25309 1.24126,2.70614 0.0959,0.42551 0.0978,30.14952 0.002,30.734 -0.44728,2.72705 -1.21388,4.16634 -2.60427,4.88948 -1.33323,0.69343 -2.47938,0.86684 -5.2726,0.79771 -2.18524,-0.0541 -2.7878,-0.12186 -3.556,-0.40004 -1.28731,-0.46615 -1.88921,-0.99273 -2.46269,-2.15448 -0.36903,-0.74759 -0.50256,-1.28658 -0.75452,-3.04569 -0.16661,-1.16315 -0.16945,-1.62758 -0.16945,-27.63997 0,-23.73424 0.0138,-26.54446 0.1342,-27.30731 0.2806,-1.77799 0.45331,-2.4455 0.83386,-3.22273 0.59299,-1.21112 1.29211,-1.79547 2.73704,-2.28773 1.15638,-0.39395 1.54688,-0.4469 4.08423,-0.55374 2.6642,-0.11218 32.82518,-0.0516 34.84033,0.07 2.22547,0.13427 4.02289,0.75753 4.96698,1.72232 0.89814,0.91784 1.36333,2.16869 1.55584,4.18354 0.18275,1.91263 0.18366,56.34147 9.4e-4,57.78822 -0.20568,1.6288 -0.69479,2.563 -1.6409,3.13412 -0.84476,0.50995 -1.8391,0.68162 -2.83954,0.49026 z m -95.00735,-0.24471 c -0.23283,-0.0363 -0.61383,-0.0696 -0.84667,-0.0741 -0.59511,-0.0115 -1.92665,-0.36696 -2.7072,-0.72267 -1.07536,-0.49005 -1.95252,-1.51201 -2.40126,-2.79764 -0.1947,-0.55781 -0.426,-1.74438 -0.51989,-2.667 -0.12365,-1.21506 -0.0649,-52.74687 0.0616,-54.01733 0.11091,-1.11404 0.42467,-2.50131 0.70352,-3.11058 0.0904,-0.1974 0.16427,-0.3804 0.16427,-0.40667 0,-0.0263 0.16955,-0.3075 0.37678,-0.62495 0.58811,-0.90093 1.68017,-1.56142 3.08668,-1.86686 1.71033,-0.37142 2.24986,-0.38328 17.44921,-0.38328 13.60616,0 14.48188,0.009 15.24,0.15403 2.23726,0.42841 3.38667,1.71097 3.38667,3.77898 0,0.92987 -0.17154,1.52844 -0.64516,2.25127 -0.16527,0.25223 -0.84689,0.74913 -1.2777,0.93145 -0.17645,0.0747 -0.66103,0.20915 -1.07684,0.29885 -0.72512,0.15643 -1.22344,0.16316 -12.192,0.16474 -9.30209,10e-4 -11.63522,0.024 -12.50381,0.12166 -1.70964,0.19214 -2.50281,0.44681 -3.22302,1.03487 -1.29547,1.05776 -1.80416,2.47783 -1.93559,5.40349 -0.0985,2.19321 -0.0998,4.35198 -0.004,6.30766 0.0665,1.35302 0.11168,1.68415 0.33159,2.43141 0.31909,1.08421 0.5908,1.58616 1.18032,2.18039 0.83546,0.84215 1.67513,1.12616 3.87151,1.30947 0.69127,0.0577 5.3206,0.1041 12.446,0.12476 11.18052,0.0324 11.35638,0.0355 12.10522,0.21124 1.17674,0.27619 1.71546,0.51126 2.15287,0.9394 0.62487,0.61164 0.80175,1.06187 0.84078,2.14023 0.051,1.40983 -0.19906,2.15051 -0.9948,2.94625 -0.49514,0.49514 -1.09258,0.85119 -1.77665,1.05882 -0.32,0.0971 -1.66907,0.11837 -7.56818,0.11912 -9.7473,0.001 -11.27839,0.10043 -12.76024,0.82665 -1.1193,0.54855 -1.9024,1.56951 -2.22405,2.8996 -0.43329,1.7917 -0.42393,1.5906 -0.42959,9.22866 l -0.005,7.15433 0.19452,0.80434 c 0.36757,1.51993 0.63125,2.07047 1.31798,2.75171 0.69856,0.693 1.80429,1.14321 3.26312,1.32864 0.42883,0.0545 3.79901,0.11774 8.33966,0.15645 4.191,0.0357 8.05815,0.10279 8.59367,0.14903 2.00033,0.17269 3.17024,0.78117 3.74408,1.94733 0.27373,0.55629 0.27758,0.58065 0.2772,1.75099 0,1.16656 -0.005,1.19558 -0.26727,1.69794 -0.63606,1.21814 -1.78507,1.81555 -3.96568,2.06189 -0.98129,0.11086 -29.09291,0.116 -29.80266,0.005 z m -390.35565,-0.59168 c -0.25612,-0.0357 -0.69759,-0.0688 -0.98105,-0.0734 -0.61638,-0.01 -1.88625,-0.37634 -2.65206,-0.76505 -0.69219,-0.35134 -1.35496,-1.01414 -1.70613,-1.70621 -0.15148,-0.29853 -0.38288,-0.96188 -0.51423,-1.47411 l -0.23882,-0.93134 -0.002,-28.07533 -0.002,-28.07535 0.21248,-0.96532 c 0.25716,-1.16833 0.72661,-2.19685 1.26585,-2.77333 0.60772,-0.64971 1.39685,-1.01885 3.136,-1.46698 l 0.762,-0.19635 20.193,4.2e-4 20.19299962,4.3e-4 0.76199998,0.19321 c 2.02202,0.51269 2.85038,0.96597 3.47154,1.89963 0.56741,0.85287 0.91555,1.96726 1.13267,3.62573 0.13141,1.00382 0.13499,53.6422 0.004,54.68587 -0.29787,2.36805 -0.74644,3.62907 -1.5955,4.48524 -0.82651,0.83345 -2.22916,1.3978 -3.85908998,1.55271 -1.02323,0.0972 -38.90334962,0.15421 -39.58166962,0.0595 z m 33.1469996,-7.65329 c 2.30726,-0.23425 3.49396,-1.30057 4.05852,-3.6468 0.18158,-0.7546 0.21366,-1.16574 0.29511,-3.78102 0.10383,-3.33446 0.10683,-13.98049 0.008,-29.02731 -0.0668,-10.19677 -0.0691,-10.29294 -0.25179,-10.96433 -0.40478,-1.48737 -0.60607,-1.89881 -1.2069,-2.46706 -0.51956,-0.49137 -1.48705,-0.9873 -2.18345,-1.11921 -1.9716,-0.37347 -4.09162,-0.43586 -14.6500496,-0.43115 -12.53561,0.006 -13.86207,0.0899 -15.4656,0.98244 -0.65533,0.36478 -1.03048,0.70873 -1.41505,1.29735 -0.50808,0.77767 -0.74004,1.45242 -0.91755,2.66896 -0.0527,0.36102 -0.0993,4.0267 -0.11934,9.37831 -0.0441,11.78866 0.019,12.79329 0.88313,14.05672 0.16588,0.24254 0.39996,0.52887 0.5202,0.63629 0.3708,0.33132 1.30806,0.85748 2.38397,1.33834 1.93175,0.86335 2.60405,1.37451 3.0074,2.28655 0.45162,1.02119 0.52793,2.05575 0.6269,8.49879 0.0764,4.97539 0.10469,5.70912 0.24294,6.30767 0.29334,1.27002 0.52291,1.80601 0.99942,2.33345 0.76648,0.8484 1.8687,1.33981 3.52958,1.57363 1.64245,0.23123 17.5250496,0.29457 19.6543896,0.0784 z m 32.8083304,7.61052 c -3.38739,-0.41811 -4.98437,-2.07662 -5.41605,-5.62477 -0.11829,-0.97229 -0.12087,-52.43287 -0.003,-54.02378 0.13151,-1.77059 0.36518,-2.89012 0.80438,-3.8539 0.87353,-1.91684 2.30929,-2.68498 5.58804,-2.98963 1.35036,-0.12547 35.76348,-0.0358 36.27509,0.0945 0.51953,0.13234 1.11118,0.42752 1.91294,0.95436 1.096,0.7202 1.73332,1.55894 2.12247,2.79323 0.15412,0.48882 0.16016,0.9843 0.16016,13.12333 v 12.61534 l -0.2307,0.70538 c -0.26057,0.7967 -0.77711,1.7837 -1.28762,2.46038 -0.18939,0.25103 -0.41827,0.55583 -0.50862,0.67733 -0.0904,0.1215 -0.49643,0.56802 -0.90241,0.99227 -0.94505,0.98755 -1.12534,1.32639 -1.12132,2.1073 0.004,0.72493 0.0588,0.85415 1.2663,2.9692 0.50693,0.888 0.97886,1.71471 1.04871,1.83716 0.0699,0.12244 0.35957,0.6151 0.64382,1.0948 0.58185,0.98192 0.81091,1.39436 1.69277,3.04794 0.34018,0.63786 0.71241,1.30461 0.82718,1.48166 0.11477,0.17705 0.57905,0.96961 1.03173,1.76124 0.45268,0.79163 0.88936,1.55363 0.97041,1.69333 0.081,0.1397 0.27931,0.4826 0.44056,0.762 0.16126,0.2794 0.57016,0.98425 0.90868,1.56634 1.3067,2.24686 3.48604,6.01588 4.07479,7.04706 0.16662,0.29183 0.57511,0.9995 0.90774,1.57259 0.69653,1.20006 0.86365,1.79703 0.86365,3.08517 0,0.96443 -0.18424,1.40681 -0.74896,1.79837 l -0.36796,0.25514 -3.45473,-0.01 c -3.53993,-0.0102 -3.94407,-0.0398 -5.20609,-0.3808 -1.08972,-0.29445 -1.26224,-0.4565 -2.04564,-1.92146 -0.37934,-0.70936 -0.83984,-1.48896 -1.02333,-1.73242 -0.37044,-0.49151 -0.58761,-0.87 -1.41045,-2.4582 -0.30894,-0.59631 -0.68932,-1.32021 -0.84528,-1.60866 -0.15597,-0.28846 -0.57975,-1.09598 -0.94174,-1.79448 -0.36199,-0.6985 -0.68555,-1.3081 -0.719,-1.35467 -0.0335,-0.0466 -0.35741,-0.65616 -0.71989,-1.35466 -0.36247,-0.6985 -1.01017,-1.9177 -1.43934,-2.70934 -0.42917,-0.79163 -1.19117,-2.23943 -1.69337,-3.21733 -0.50218,-0.9779 -1.05527,-2.0447 -1.22908,-2.37066 -0.42553,-0.79803 -1.43778,-2.73272 -1.59474,-3.048 -0.24454,-0.4912 -1.05147,-1.86908 -1.43791,-2.45534 -0.79383,-1.20425 -1.35614,-1.66285 -2.437,-1.98752 -0.57423,-0.17249 -0.7196,-0.17874 -3.13267,-0.13454 -7.32632,0.13422 -7.76132,0.16317 -9.0763,0.6042 -0.51923,0.17413 -1.27397,0.66877 -1.64912,1.08075 -0.60433,0.66369 -0.84425,1.20449 -1.2081,2.72311 -0.19271,0.80436 -0.27692,4.40078 -0.28499,12.17153 l -0.006,6.07553 -0.20155,0.86713 c -0.11086,0.47693 -0.22864,1.01954 -0.26177,1.20581 -0.0331,0.18627 -0.23769,0.69458 -0.45461,1.12958 -0.83478,1.67401 -2.0227,2.41788 -4.28907,2.68583 -1.22285,0.14458 -2.97848,0.1409 -4.191,-0.009 z m 26.07733,-40.21422 c 1.99008,-0.40044 2.49554,-0.60643 3.20133,-1.30463 0.89783,-0.88818 1.27967,-1.94036 1.58488,-4.36713 0.25462,-2.02452 0.12468,-7.18891 -0.20876,-8.29733 -0.042,-0.1397 -0.10024,-0.43073 -0.12937,-0.64673 -0.0646,-0.47881 -0.47133,-1.55697 -0.75266,-1.99499 -0.44814,-0.69774 -1.27017,-1.32398 -2.1438,-1.63318 -1.21411,-0.42971 -2.36358,-0.4835 -9.51028,-0.44507 -6.52943,0.0351 -7.25719,0.0854 -8.28588,0.57299 -0.4382,0.20768 -0.76802,0.44548 -1.10957,0.79999 -1.04416,1.0838 -1.45885,2.57981 -1.60838,5.80232 -0.11272,2.42937 -0.11254,2.80865 0.002,4.953 0.0776,1.44845 0.13544,1.90379 0.34958,2.75167 0.28373,1.12336 0.43743,1.47394 0.93542,2.13351 0.63848,0.84567 1.28205,1.19371 2.94318,1.5917 0.79956,0.19156 0.84382,0.19277 7.45067,0.20218 5.61593,0.008 6.74478,-0.0103 7.28133,-0.1183 z m 45.67767,40.25668 c -0.23284,-0.0366 -0.71201,-0.0699 -1.06482,-0.074 -1.05626,-0.0122 -2.88144,-0.58747 -3.74157,-1.17926 -1.12058,-0.77097 -1.65156,-1.71704 -2.1108,-3.76085 l -0.19481,-0.86697 v -27.43203 c 0,-26.42315 0.006,-27.45834 0.15736,-28.14826 0.36755,-1.67296 0.72351,-2.44117 1.48817,-3.21166 0.78245,-0.78844 1.80212,-1.28072 3.4768,-1.67856 0.59951,-0.14242 1.72106,-0.15081 20.066,-0.15008 l 19.431,7.7e-4 0.762,0.19284 c 2.50872,0.63492 3.47186,1.34224 4.17387,3.06528 0.23697,0.58161 0.34388,1.04873 0.60296,2.63443 0.0574,0.35157 0.0915,2.24501 0.0915,5.08597 0,4.19315 -0.0124,4.58457 -0.16836,5.32424 -0.37369,1.77188 -0.90576,2.58821 -2.03297,3.11906 -0.42645,0.20083 -0.55837,0.2193 -1.56633,0.2193 -1.09738,0 -1.10259,-9.4e-4 -1.74392,-0.31375 -0.657,-0.32046 -0.86324,-0.52177 -1.28322,-1.25259 -0.35504,-0.61781 -0.63655,-2.04993 -0.69067,-3.51366 -0.0631,-1.70608 -0.2525,-3.03907 -0.56395,-3.96867 -0.45691,-1.3638 -1.1398,-2.02428 -2.61858,-2.53268 -0.84163,-0.28935 -1.41912,-0.34987 -4.78366,-0.50138 -3.20552,-0.14434 -20.09726,-0.15147 -21.42067,-0.009 -1.74194,0.18747 -2.16898,0.28072 -2.91395,0.63628 -1.23386,0.5889 -2.02261,1.60297 -2.324707,2.98883 -0.0812,0.37253 -0.199669,0.90593 -0.263245,1.18533 -0.290428,1.27625 -0.385108,7.96329 -0.135475,9.56733 0.198323,1.27435 0.722557,2.25198 1.579817,2.94614 0.27915,0.22604 1.20336,0.76276 2.0842,1.21037 1.04094,0.52895 1.73101,0.93762 2.01611,1.19395 0.4738,0.42599 0.86831,1.12112 1.19191,2.10021 l 0.19589,0.59267 0.0552,11.85333 0.0552,11.85333 0.27238,1.143 c 0.36162,1.51748 0.56869,1.93724 1.32305,2.68212 0.59004,0.58261 0.65008,0.61844 1.45032,0.86537 1.41436,0.43646 1.18773,0.4175 8.24023,0.68972 4.46276,0.17227 10.45506,0.0899 12.192,-0.16759 1.85059,-0.27433 2.98038,-1.25177 3.56608,-3.08516 0.0876,-0.27419 0.15925,-0.57425 0.15925,-0.66683 0,-0.0926 0.056,-0.47813 0.12447,-0.8568 0.25031,-1.38461 0.29446,-1.81906 0.34101,-3.35549 0.14887,-4.91402 0.0886,-10.21284 -0.13102,-11.51467 -0.25923,-1.53668 -0.46002,-2.37756 -0.68087,-2.85135 -0.30466,-0.65355 -1.07593,-1.49695 -1.62198,-1.77366 -0.66311,-0.33602 -2.20957,-0.70796 -2.94227,-0.70763 -0.65687,0 -1.88961,-0.11402 -2.921,-0.27086 -2.51142,-0.38189 -3.60077,-1.22613 -3.86377,-2.99436 -0.25544,-1.71749 0.46944,-3.13865 1.95291,-3.82874 1.3482,-0.62716 1.17497,-0.61206 7.02049,-0.61206 5.00978,0 5.26981,0.008 5.9489,0.175 1.42241,0.35052 2.37736,0.79436 2.98981,1.38958 0.73921,0.71843 1.40094,2.18861 1.58229,3.51542 0.20512,1.50066 0.23152,3.22921 0.23152,15.15534 0,14.41058 -0.0195,14.97251 -0.56798,16.35321 -0.40056,1.00834 -0.60877,1.35525 -1.11093,1.85108 -0.84255,0.83192 -2.41601,1.47677 -3.98091,1.63151 -0.9848,0.0974 -36.77697,0.15256 -37.38034,0.0576 z m 64.30433,0 c -0.25612,-0.0358 -0.69759,-0.0688 -0.98105,-0.0734 -0.61638,-0.01 -1.88626,-0.37634 -2.65207,-0.76505 -0.69218,-0.35134 -1.35495,-1.01415 -1.70612,-1.70621 -0.15148,-0.29854 -0.38289,-0.96188 -0.51423,-1.47412 l -0.23882,-0.93133 -0.002,-28.07534 -0.002,-28.07534 0.21248,-0.96532 c 0.25716,-1.16833 0.72662,-2.19685 1.26585,-2.77334 0.60772,-0.6497 1.39686,-1.01885 3.13601,-1.46698 l 0.762,-0.19634 20.19299,4.2e-4 20.193,4.2e-4 0.762,0.19321 c 2.02203,0.5127 2.85038,0.96597 3.47155,1.89964 0.56741,0.85287 0.91554,1.96726 1.13266,3.62572 0.13142,1.00383 0.13499,53.6422 0.004,54.68587 -0.29787,2.36805 -0.74644,3.62908 -1.5955,4.48524 -0.82651,0.83345 -2.22916,1.39781 -3.85909,1.55271 -1.02323,0.0972 -38.90335,0.15422 -39.58167,0.0595 z m 33.147,-7.65329 c 2.30726,-0.23425 3.49396,-1.30057 4.05852,-3.6468 0.18158,-0.7546 0.21366,-1.16574 0.29511,-3.78103 0.10383,-3.33445 0.10683,-13.98048 0.008,-29.0273 -0.0669,-10.19677 -0.0691,-10.29294 -0.25178,-10.96433 -0.40479,-1.48737 -0.60607,-1.89881 -1.20691,-2.46706 -0.51956,-0.49138 -1.48704,-0.9873 -2.18344,-1.11921 -1.97161,-0.37347 -4.09163,-0.43586 -14.65006,-0.43115 -12.53561,0.006 -13.86207,0.0899 -15.4656,0.98244 -0.65532,0.36478 -1.03047,0.70873 -1.41505,1.29735 -0.50807,0.77767 -0.74004,1.45242 -0.91755,2.66896 -0.0527,0.36101 -0.0993,4.02669 -0.11934,9.3783 -0.0441,11.78866 0.019,12.7933 0.88313,14.05673 0.16588,0.24254 0.39997,0.52886 0.5202,0.63629 0.3708,0.33132 1.30806,0.85748 2.38398,1.33833 1.93174,0.86336 2.60405,1.37451 3.00739,2.28655 0.45162,1.02119 0.52793,2.05576 0.62691,8.4988 0.0764,4.97539 0.10468,5.70912 0.24293,6.30766 0.29334,1.27003 0.52291,1.80602 0.99942,2.33346 0.76648,0.84839 1.8687,1.33981 3.52958,1.57363 1.64245,0.23122 17.52505,0.29456 19.65439,0.0784 z m 50.46133,7.65929 c -0.1397,-0.0373 -0.45285,-0.0722 -0.69589,-0.0777 -0.53522,-0.0121 -1.5859,-0.34363 -2.22309,-0.70139 -1.28713,-0.7227 -1.85666,-1.5274 -2.38944,-3.37612 l -0.27958,-0.96986 -0.0453,-24.384 c -0.0362,-19.46531 -0.0673,-24.48647 -0.15458,-24.892 -0.41985,-1.95131 -0.60307,-2.39267 -1.28181,-3.08782 -0.70369,-0.72071 -1.72716,-1.1357 -3.175,-1.28737 -0.46566,-0.0488 -3.24696,-0.11803 -6.18066,-0.1539 -2.9337,-0.0359 -5.54355,-0.1035 -5.79967,-0.15031 -2.07599,-0.37937 -3.11946,-1.18967 -3.47763,-2.70057 -0.19556,-0.82495 -0.19922,-1.11523 -0.0239,-1.90181 0.15076,-0.67654 0.53665,-1.35434 0.98668,-1.73301 0.32589,-0.27422 1.28496,-0.73237 1.96457,-0.93848 0.48538,-0.1472 1.44843,-0.15406 21.63233,-0.15406 h 21.12433 l 0.7662,0.19578 c 1.48221,0.37874 2.31907,1.01159 2.62903,1.98812 0.2092,0.65909 0.24793,1.92491 0.0808,2.6421 -0.37383,1.60462 -1.36045,2.26226 -3.8994,2.59921 -0.37414,0.0496 -3.33022,0.11911 -6.604,0.15517 -3.25967,0.0359 -6.21242,0.10481 -6.56167,0.15312 -1.94949,0.26967 -3.31806,1.33612 -3.83777,2.99058 -0.48134,1.53232 -0.49164,1.6681 -0.50263,6.62449 -0.0101,4.54518 -0.009,4.58526 0.18506,5.25743 0.56134,1.94767 1.21991,2.636 3.47704,3.63414 2.63377,1.1647 3.01541,1.59 3.42469,3.81653 0.12759,0.6941 0.13782,2.1125 0.11474,15.91733 -0.0266,15.90261 -0.0116,15.25279 -0.38501,16.67933 -0.54758,2.09179 -2.24248,3.48716 -4.59279,3.78114 -0.90007,0.11258 -3.93434,0.1653 -4.27566,0.0743 z m 61.04466,0.001 c -0.1397,-0.0378 -0.45409,-0.0733 -0.69866,-0.0788 -0.53711,-0.0121 -1.75174,-0.41834 -2.37922,-0.79575 -1.31123,-0.78866 -1.9823,-1.96414 -2.40318,-4.2096 -0.0578,-0.30815 -0.10706,-8.67092 -0.14574,-24.72266 -0.0409,-16.9763 -0.086,-24.35865 -0.15017,-24.59566 -0.0504,-0.18627 -0.15695,-0.64347 -0.2367,-1.016 -0.4412,-2.06113 -1.75567,-3.10529 -4.23099,-3.36091 -0.46567,-0.0481 -3.22792,-0.11465 -6.13834,-0.14792 -3.34146,-0.0382 -5.49977,-0.0966 -5.85635,-0.15836 -1.1342,-0.19656 -1.92005,-0.53904 -2.54276,-1.10816 -0.57166,-0.52247 -0.77544,-0.91517 -0.965,-1.85964 -0.12098,-0.60278 -0.12694,-0.79831 -0.04,-1.31233 0.2635,-1.55745 1.04741,-2.35687 2.88475,-2.94184 l 0.635,-0.20218 h 21.16667 21.16666 l 0.71967,0.19933 c 1.47896,0.40964 2.09906,0.84864 2.52245,1.7858 0.17302,0.38298 0.21979,0.64424 0.25209,1.40831 0.0751,1.77726 -0.39137,2.85906 -1.45003,3.36249 -0.53047,0.25226 -0.6995,0.31134 -1.28218,0.44812 -1.13655,0.26681 -1.90111,0.30329 -7.78933,0.37169 -5.91988,0.0688 -6.9703,0.12193 -7.61573,0.38549 -1.25548,0.51268 -1.74851,0.84539 -2.24138,1.51256 -0.38375,0.51946 -0.51634,0.82677 -0.75274,1.74455 -0.37016,1.43709 -0.38403,1.65688 -0.39021,6.18066 -0.006,4.25839 -0.002,4.37783 0.18512,5.10832 0.26772,1.04803 0.56349,1.62458 1.14532,2.23261 0.58,0.60612 1.25472,1.02714 2.5342,1.58133 2.57722,1.11629 3.07963,1.76487 3.28706,4.24341 0.10917,1.30447 0.103,29.19552 -0.007,30.43533 -0.12143,1.37198 -0.46971,2.44684 -1.11183,3.43133 -0.63454,0.97286 -2.2078,1.81424 -3.75375,2.00751 -0.8204,0.10256 -4.00798,0.15497 -4.318,0.071 z m -397.80631,-0.51386 c -0.97313,-0.0557 -2.2971,-0.26613 -2.61846,-0.4161 -0.0733,-0.0342 -0.38781,-0.18553 -0.69899,-0.33631 -1.09827,-0.53218 -1.74212,-1.52732 -2.11389,-3.26727 l -0.19899,-0.93134 v -27.64356 -27.64367 l 0.19156,-0.94471 c 0.40157,-1.98033 1.0312,-2.94338 2.33564,-3.5725 0.63421,-0.30588 1.19645,-0.4639 2.38346,-0.66987 0.78222,-0.13573 1.99707,-0.14692 15.95966,-0.14692 14.48135,0 15.13954,0.007 15.748,0.15837 0.69273,0.17276 1.53425,0.55605 1.85349,0.8442 0.11137,0.10052 0.31858,0.43042 0.46046,0.7331 0.22397,0.4778 0.26256,0.66751 0.29277,1.43933 0.0676,1.72629 -0.43995,2.46315 -1.99928,2.9027 -0.6481,0.18268 -0.68103,0.18329 -12.84177,0.23739 -7.56567,0.0336 -12.38476,0.0867 -12.7,0.13988 -1.74689,0.29455 -2.68982,0.714 -3.55898,1.58316 -0.95086,0.95086 -1.34735,1.93174 -1.6962,4.19621 -0.1266,0.82177 -0.14992,1.55482 -0.14951,4.699 4.3e-4,3.49193 0.0122,3.78633 0.1876,4.699 0.23315,1.21327 0.38236,1.69437 0.70854,2.28453 0.76483,1.38379 1.8692,2.09351 3.83122,2.46211 1.53034,0.2875 3.37489,0.33249 13.75833,0.33556 5.56472,0.002 10.57487,0.0372 11.13367,0.079 1.78559,0.13357 2.72182,0.55447 3.14348,1.41321 0.23022,0.46886 0.24312,0.55395 0.24192,1.59593 -0.002,1.57743 -0.22639,2.01982 -1.26874,2.49924 -0.96539,0.44405 -1.0633,0.44901 -10.033,0.50842 -9.0531,0.06 -9.2345,0.0693 -10.70023,0.54771 -1.49535,0.48814 -2.50264,1.41959 -3.05252,2.82273 -0.24024,0.61301 -0.34422,1.0632 -0.57042,2.46957 -0.16165,1.00504 -0.17186,1.53795 -0.20289,10.58333 -0.0366,10.68006 -0.0567,11.73165 -0.24038,12.57597 -0.45804,2.10581 -1.3202,3.07299 -3.17208,3.55849 -0.44496,0.11665 -2.5331,0.3029 -3.10114,0.27659 -0.1397,-0.006 -0.73025,-0.039 -1.31233,-0.0724 z"
       id="path307" /></g></svg>
