<?xml version="1.0" encoding="UTF-8" standalone="no"?>
<!-- Created with Inkscape (http://www.inkscape.org/) -->

<svg
   width="1402.5984mm"
   height="422.30737mm"
   viewBox="0 0 1402.5984 422.30737"
   version="1.1"
   id="svg5"
   xml:space="preserve"
   inkscape:version="1.2.2 (732a01da63, 2022-12-09)"
   sodipodi:docname="Forgotten Machines Logo - Center Color Removed.svg"
   xmlns:inkscape="http://www.inkscape.org/namespaces/inkscape"
   xmlns:sodipodi="http://sodipodi.sourceforge.net/DTD/sodipodi-0.dtd"
   xmlns="http://www.w3.org/2000/svg"
   xmlns:svg="http://www.w3.org/2000/svg"><sodipodi:namedview
     id="namedview7"
     pagecolor="#ffffff"
     bordercolor="#000000"
     borderopacity="0.25"
     inkscape:showpageshadow="2"
     inkscape:pageopacity="0.0"
     inkscape:pagecheckerboard="0"
     inkscape:deskcolor="#d1d1d1"
     inkscape:document-units="mm"
     showgrid="false"
     inkscape:zoom="0.089530724"
     inkscape:cx="1770.342"
     inkscape:cy="2641.5513"
     inkscape:window-width="1920"
     inkscape:window-height="991"
     inkscape:window-x="-9"
     inkscape:window-y="-9"
     inkscape:window-maximized="1"
     inkscape:current-layer="layer1" /><defs
     id="defs2" /><g
     inkscape:label="Layer 1"
     inkscape:groupmode="layer"
     id="layer1"
     transform="translate(383.01344,547.97796)"><path
       style="fill:#000000;stroke-width:1"
       d="m -287.2588,-125.81562 c -1.01482,-0.2449 -3.68811,-1.56852 -4.7625,-2.35803 -1.57844,-1.15992 -3.07338,-2.74579 -4.11928,-4.36986 -1.32781,-2.06181 -1.4504,-2.35797 -2.28781,-5.52706 l -0.66491,-2.51628 -0.12958,-63.71167 c -0.0713,-35.04141 -0.20127,-63.99742 -0.28889,-64.34667 -0.0876,-0.34925 -0.35229,-1.52207 -0.58817,-2.60627 -0.53167,-2.4438 -1.237,-3.31353 -2.86815,-3.53672 -0.55681,-0.0762 -1.34575,-0.22491 -1.75321,-0.33051 -0.40746,-0.10562 -2.26483,-0.29572 -4.1275,-0.42245 -4.11161,-0.27976 -31.27567,-0.13106 -32.7025,0.17899 -0.52388,0.11385 -1.60618,0.31796 -2.40512,0.4536 -1.7479,0.29674 -2.8997,0.84887 -3.41662,1.63779 -0.21069,0.32154 -0.60818,1.44621 -0.88331,2.49928 -0.71716,2.74485 -0.97671,7.42613 -0.85137,15.35546 0.10889,6.88855 0.30922,8.59653 1.16156,9.90357 0.27924,0.42818 4.04735,2.39619 6.18319,3.22933 1.22666,0.4785 3.82564,2.31204 5.34956,3.77402 1.37318,1.31739 3.54044,4.34537 3.54044,4.94654 0,0.15778 0.0852,0.37736 0.18942,0.48796 0.10419,0.1106 0.38515,0.96308 0.62437,1.89442 0.23922,0.93133 0.55879,2.07433 0.71016,2.54 0.22189,0.6826 0.27522,8.59838 0.27522,40.85166 v 40.00501 l -0.69536,2.96333 c -0.77164,3.28845 -0.9253,3.77622 -1.65648,5.25829 -0.27811,0.56371 -0.50566,1.1216 -0.50566,1.23973 0,0.11811 -0.61359,1.09484 -1.36353,2.17047 -2.05135,2.94225 -4.412,4.97305 -7.52647,6.47486 -1.69549,0.81757 -4.53862,1.67348 -6.35,1.91165 -0.87313,0.11481 -2.25425,0.2969 -3.06917,0.40466 -0.81492,0.10776 -3.00567,0.19592 -4.86833,0.19592 -1.86267,0 -4.05342,-0.0882 -4.86834,-0.19592 -0.81491,-0.10776 -2.20044,-0.28727 -3.07894,-0.39892 -0.87851,-0.11166 -1.83101,-0.2986 -2.11667,-0.41546 -0.28566,-0.11684 -1.09089,-0.37671 -1.78939,-0.57747 -0.6985,-0.20077 -1.36048,-0.44535 -1.47108,-0.5435 -0.1106,-0.0982 -0.33412,-0.17848 -0.49671,-0.17848 -0.50845,0 -3.86186,-2.3068 -5.17924,-3.56277 -1.93806,-1.84772 -4.60047,-5.94396 -4.60047,-7.07801 0,-0.16243 -0.0632,-0.35854 -0.14045,-0.43578 -0.23366,-0.23365 -0.87432,-2.19227 -1.13858,-3.48083 -0.13668,-0.66648 -0.33362,-1.31699 -0.43763,-1.4456 -0.59041,-0.72998 -0.62585,-5.34293 -0.56661,-73.74368 l 0.0608,-70.1675 0.47625,-1.3505 c 0.26194,-0.74276 0.47625,-1.48395 0.47625,-1.64708 0,-0.29443 0.69709,-2.54083 1.0403,-3.35242 0.0985,-0.23283 0.35133,-0.85196 0.56191,-1.37583 0.61573,-1.53173 2.46447,-4.23247 3.88618,-5.67718 1.31265,-1.3339 4.57029,-3.63616 5.14504,-3.63616 0.16648,0 0.36796,-0.0653 0.44775,-0.14505 0.13801,-0.13801 0.65722,-0.34222 2.57132,-1.01135 1.74695,-0.61067 3.63153,-0.99618 5.80328,-1.18711 1.23203,-0.10831 3.43068,-0.31589 4.88589,-0.46128 3.44222,-0.34394 136.2713,-0.3051 140.75834,0.0412 7.19039,0.55488 9.18117,0.83026 10.68916,1.47853 0.23284,0.1001 0.89959,0.34235 1.48167,0.53833 1.49326,0.50275 1.92424,0.71508 3.58785,1.76748 3.4353,2.17316 5.61568,4.77967 7.20253,8.61014 0.19292,0.46566 0.43292,1.03716 0.53336,1.27 0.3466,0.80355 0.66769,2.01121 0.85774,3.22611 0.10488,0.6704 0.38242,2.40951 0.61678,3.86472 0.42098,2.61402 0.42612,3.51312 0.4285,74.75656 l 0.002,72.11073 -0.64154,2.60761 c -0.7061,2.86993 -0.70415,2.8644 -1.69498,4.83011 -1.73457,3.44123 -4.59503,6.07902 -8.45848,7.80004 -1.1357,0.50591 -2.58324,0.65642 -6.35,0.66027 -4.83366,0.005 -6.10222,-0.28524 -8.67833,-1.98503 -1.23838,-0.81712 -3.6975,-3.17436 -4.43658,-4.25278 -1.38912,-2.02692 -2.01593,-3.48575 -2.91853,-6.79256 l -0.57251,-2.09744 -0.11877,-64.34667 -0.11876,-64.34667 -0.4745,-1.87768 c -0.26098,-1.03272 -0.5703,-2.05666 -0.68738,-2.27541 -0.3589,-0.67061 -1.12113,-1.02656 -2.65005,-1.23758 -0.80506,-0.11108 -2.17813,-0.32401 -3.05125,-0.47313 -2.13989,-0.36551 -23.84936,-0.3744 -25.7175,-0.0106 -0.6985,0.13604 -1.8415,0.34428 -2.54,0.46277 -2.73774,0.46438 -3.18546,0.9488 -3.82614,4.13982 -0.1868,0.93036 -0.40246,1.78761 -0.47925,1.905 -0.0768,0.11737 -0.18868,28.88365 -0.24865,63.92507 -0.10267,59.9896 -0.13092,63.80442 -0.48367,65.29917 -0.66251,2.80738 -1.03512,3.88552 -2.01168,5.82083 -1.84221,3.65079 -5.7786,6.94722 -9.46062,7.92254 -0.82834,0.21941 -9.3026,0.28228 -10.16,0.0754 z m 9.37702,-7.7331 c 2.43457,-1.21139 4.07572,-3.59668 4.92708,-7.16117 0.39607,-1.65828 0.40693,-3.25247 0.41419,-60.79744 0.004,-32.50199 0.0913,-61.10775 0.19366,-63.56833 0.35586,-8.55072 1.68929,-12.69867 4.79401,-14.91291 2.18252,-1.55654 4.4364,-2.19441 9.65445,-2.73226 3.23028,-0.33295 23.2587,-0.25514 26.20209,0.10181 5.79244,0.70246 6.89251,0.99642 8.81571,2.35566 2.0597,1.45574 3.12811,3.14272 3.79316,5.98932 1.1067,4.73693 1.01987,-0.4457 1.15112,68.70552 l 0.12132,63.92334 0.52745,1.8078 c 0.89132,3.05499 2.45422,5.20804 4.51099,6.21432 1.05885,0.51804 1.31092,0.55038 4.29021,0.55038 2.98915,0 3.22706,-0.0308 4.27606,-0.55353 1.99167,-0.9925 3.33812,-2.63135 4.50141,-5.47897 0.0951,-0.23283 0.36636,-1.20121 0.60275,-2.15193 0.42768,-1.71998 0.42982,-2.08094 0.42921,-72.39 -6.3e-4,-70.17618 -0.004,-70.67885 -0.43286,-73.20141 -0.23775,-1.397 -0.52625,-3.09355 -0.64112,-3.7701 -0.25031,-1.47434 -1.06336,-3.69902 -1.83166,-5.01184 -1.86859,-3.19293 -5.69638,-5.27453 -10.53458,-5.72883 -1.16417,-0.10932 -3.30729,-0.31811 -4.7625,-0.46399 -3.9402,-0.39499 -137.16712,-0.38559 -140.97001,0.01 -1.4552,0.15136 -3.40783,0.35191 -4.33916,0.44566 -3.36074,0.33829 -7.03948,1.82567 -8.85654,3.58085 -1.0596,1.02352 -2.46763,3.01589 -2.46763,3.49174 0,0.14908 -0.0788,0.36155 -0.17508,0.47214 -0.17412,0.19999 -0.70208,1.81674 -1.51722,4.64615 -0.42472,1.4742 -0.42661,1.83706 -0.37271,71.54334 0.04,51.7232 0.11697,70.17241 0.29406,70.48494 0.13194,0.23283 0.44785,1.18533 0.70201,2.11666 0.25418,0.93134 0.59867,1.9699 0.76554,2.30793 0.16687,0.33803 0.3034,0.69757 0.3034,0.79894 0,0.4681 1.83255,3.01157 2.79007,3.87246 1.7015,1.5298 4.48128,2.72771 7.15826,3.08479 0.87313,0.11646 2.06375,0.29906 2.64584,0.40578 0.58208,0.10673 2.29658,0.19404 3.81,0.19404 1.51341,0 3.22791,-0.0873 3.81,-0.19404 0.58208,-0.10672 1.77271,-0.28932 2.64583,-0.40578 1.45351,-0.19389 2.81942,-0.57148 3.75977,-1.03935 0.20225,-0.10062 0.93366,-0.45053 1.62534,-0.77756 2.971,-1.40466 5.00651,-4.48699 6.28497,-9.51721 l 0.69935,-2.75166 0.007,-38.52334 0.007,-38.52333 -0.50575,-1.76964 c -1.28902,-4.51037 -3.14854,-6.50926 -7.85508,-8.44381 -2.88344,-1.18521 -5.78289,-2.97794 -6.91286,-4.27423 -0.42998,-0.49327 -1.37969,-2.24762 -1.78227,-3.29232 -0.0897,-0.23284 -0.33331,-1.13771 -0.54129,-2.01084 -0.32863,-1.37958 -0.38766,-2.88368 -0.45073,-11.48454 -0.0675,-9.20376 -0.0423,-10.07271 0.36022,-12.4046 0.90529,-5.24515 1.81543,-7.3576 4.09114,-9.4956 2.01999,-1.89776 4.14426,-2.62554 9.78662,-3.35293 2.92638,-0.37725 32.06435,-0.44016 35.77167,-0.0772 3.17553,0.31088 6.32623,0.97481 7.72583,1.62806 1.41571,0.66074 3.78735,2.9885 4.52206,4.43837 0.52196,1.03004 1.35978,4.31798 1.8483,7.25346 0.20585,1.23696 0.27944,15.44528 0.33326,64.34667 l 0.0691,62.75917 0.44782,1.905 c 0.99841,4.24713 3.2381,6.81279 6.38554,7.31488 0.60763,0.0969 2.23715,0.1339 3.62117,0.0822 2.06,-0.077 2.69007,-0.18053 3.47396,-0.57057 z m 560.64133,7.6863 c -2.80855,-0.36081 -4.76862,-1.06062 -6.89517,-2.46184 -1.14942,-0.75738 -2.44063,-1.82225 -2.9827,-2.45988 -1.26145,-1.48383 -2.50463,-3.2335 -2.50463,-3.52512 0,-0.12844 -0.23237,-0.73617 -0.51639,-1.35056 -1.35661,-2.93467 -1.25222,-0.48592 -1.41471,-33.18453 -0.0924,-18.59722 -0.22985,-30.29428 -0.36684,-31.22083 -0.1205,-0.81492 -0.31695,-2.17274 -0.43659,-3.0174 -0.23914,-1.68863 -1.01388,-3.54275 -1.75964,-4.21115 -0.61356,-0.54995 -2.32573,-1.06925 -4.60839,-1.39774 -2.65714,-0.38239 -37.64102,-0.36906 -41.24696,0.0157 -2.94392,0.31413 -5.12127,0.90208 -5.71978,1.54449 -0.38762,0.41607 -0.73882,1.50632 -1.42388,4.42025 -0.27612,1.17446 -0.34811,5.27935 -0.49189,28.04584 -0.16413,25.99086 -0.17996,26.73197 -0.62215,29.10416 -0.47158,2.52993 -0.71768,3.47703 -1.18252,4.55084 -0.15118,0.34925 -0.402,1.016 -0.55738,1.48166 -0.15539,0.46567 -0.87622,1.70392 -1.60183,2.75167 -2.2573,3.25941 -4.17646,4.99307 -7.12443,6.43585 -4.09984,2.00652 -6.63901,2.42805 -14.64079,2.43055 -5.57437,0.002 -8.53224,-0.25552 -10.795,-0.93885 -0.81492,-0.24608 -1.67217,-0.50383 -1.905,-0.57275 -0.23284,-0.0689 -0.84233,-0.34702 -1.35444,-0.61798 -0.51212,-0.27095 -1.02148,-0.49265 -1.13195,-0.49265 -0.38883,0 -3.45544,-2.30065 -4.74216,-3.55772 -1.77186,-1.73103 -2.96435,-3.53629 -4.36113,-6.60228 -0.73986,-1.62397 -1.28436,-4.17782 -1.67922,-7.87593 -0.39844,-3.73175 -0.41019,-140.71556 -0.0123,-144.20889 0.43034,-3.77869 0.82468,-5.48007 1.65917,-7.15858 0.16385,-0.32959 0.29792,-0.69391 0.29792,-0.80961 0,-0.40794 1.95805,-3.26049 2.93085,-4.26976 1.10204,-1.14336 4.06434,-3.31724 4.52031,-3.31724 0.16271,0 0.38633,-0.083 0.49693,-0.18447 0.11059,-0.10145 0.86006,-0.3872 1.66548,-0.635 1.26589,-0.38946 1.98666,-0.45053 5.317,-0.45053 3.2607,0 4.0601,0.065 5.2031,0.42319 2.34394,0.73446 3.92566,1.66003 5.71763,3.34579 1.55863,1.46624 3.35871,3.74165 3.35871,4.24559 0,0.11337 0.13406,0.47578 0.29792,0.80537 0.76473,1.53816 1.23143,3.19039 1.64909,5.83804 0.16218,1.02798 0.29166,8.73119 0.39226,23.33619 0.0873,12.67276 0.23967,22.42208 0.3639,23.28333 0.23573,1.63422 0.83615,3.67346 1.19416,4.05583 0.62285,0.66527 1.98207,1.16466 3.69576,1.35789 1.00434,0.11326 2.58807,0.29893 3.51941,0.41262 2.2607,0.27597 56.07473,0.27805 57.66642,0.002 0.6473,-0.11217 1.93863,-0.30506 2.86963,-0.42865 2.70258,-0.35877 3.71414,-1.45944 4.14691,-4.51231 0.11872,-0.83744 0.3128,-2.18935 0.43131,-3.00427 0.12628,-0.86851 0.28175,-10.63526 0.37565,-23.60083 0.14344,-19.80593 0.19757,-22.25199 0.51767,-23.38917 0.1966,-0.6985 0.45102,-1.4354 0.56536,-1.63754 0.11432,-0.20216 0.20788,-0.4702 0.20788,-0.59565 0,-0.12546 0.23813,-0.74871 0.52917,-1.38498 0.29104,-0.63629 0.52916,-1.228 0.52916,-1.31496 0,-0.2638 2.29102,-3.06995 3.02091,-3.70014 0.94814,-0.81862 3.05249,-2.26757 3.29328,-2.26757 0.10949,0 0.47191,-0.14228 0.80537,-0.31618 0.33346,-0.17393 0.75391,-0.3168 0.93436,-0.3175 0.18045,0 0.44696,-0.12038 0.59224,-0.2659 0.18942,-0.18974 1.49617,-0.28406 4.61904,-0.33339 4.93232,-0.0779 4.91612,-0.0808 8.60177,1.54116 1.19471,0.5258 3.82122,2.74401 4.9504,4.18088 1.17388,1.49374 1.33758,1.75999 1.86,3.0251 0.19227,0.46567 0.43362,1.03717 0.5363,1.27 0.53778,1.2195 0.82746,2.60259 1.08608,5.18584 0.42365,4.23149 0.42365,149.01518 0,153.24667 -0.3215,3.21128 -0.59906,4.25638 -1.75588,6.6117 -0.0993,0.20217 -0.18053,0.48965 -0.18053,0.6389 0,0.24672 -0.33268,0.69727 -2.34781,3.17965 -1.02544,1.26319 -4.09122,3.36303 -5.69553,3.90098 -2.58015,0.86519 -5.92963,1.23469 -8.36083,0.92236 z m 4.56533,-7.53781 c 2.5864,-0.73688 4.24171,-2.0439 5.19083,-4.09859 0.30054,-0.65066 0.6415,-1.36133 0.75766,-1.57929 0.6619,-1.24187 0.70451,-5.9985 0.70451,-78.66124 0,-72.37741 -0.0436,-77.34944 -0.69033,-78.66401 -0.10647,-0.21641 -0.47096,-0.9648 -0.80996,-1.66307 -0.79367,-1.63477 -1.75677,-2.57241 -3.58778,-3.49292 -1.46659,-0.73732 -1.48719,-0.74084 -4.3311,-0.74084 -2.61116,0 -2.94873,0.0451 -3.91583,0.52242 -1.34542,0.6641 -2.84465,2.15841 -3.4384,3.42711 -0.25385,0.54242 -0.65562,1.72718 -0.89283,2.6328 -0.41942,1.6013 -0.43127,2.20228 -0.43127,21.8628 0,19.45043 -0.0488,21.33015 -0.65445,25.21238 -0.11805,0.7567 -0.29746,2.0902 -0.3987,2.96333 -0.47009,4.05445 -3.0194,7.60935 -6.5757,9.16948 -3.25533,1.4281 -4.1838,1.46103 -38.09115,1.35164 -18.43695,-0.0595 -30.6018,-0.17936 -31.64417,-0.31184 -4.67739,-0.59449 -8.80935,-3.20957 -9.90875,-6.27114 -0.95822,-2.66844 -1.08464,-3.26265 -1.62617,-7.64231 -0.12461,-1.00783 -0.20945,-9.79089 -0.20957,-21.69583 -1.5e-4,-13.20227 -0.0783,-20.57819 -0.22996,-21.69584 -0.33881,-2.49711 -0.78304,-4.32371 -1.31267,-5.3975 -0.54631,-1.10763 -2.30503,-2.9403 -3.22288,-3.35845 -0.34925,-0.15909 -0.8255,-0.39429 -1.05833,-0.52262 -0.74573,-0.41108 -5.25751,-0.44679 -6.46699,-0.0512 -4.08172,1.33507 -5.8463,4.32624 -6.53896,11.08431 -0.311,3.03424 -0.31144,137.89853 0,140.7624 0.80667,7.42908 2.51238,10.59856 7.08639,13.16762 1.1597,0.65136 3.84395,1.47764 4.81324,1.48162 0.49231,0.002 1.56182,0.14489 2.3767,0.3175 1.96071,0.41531 7.36845,0.41062 9.10175,-0.008 0.6985,-0.16865 1.7062,-0.30814 2.23933,-0.30996 1.21467,-0.004 3.75515,-0.89851 5.24626,-1.8469 2.9703,-1.88925 4.68825,-4.6638 5.53428,-8.93811 0.72356,-3.65557 0.83805,-7.70924 0.92103,-32.60996 0.0705,-21.16684 0.12486,-24.58953 0.40487,-25.50584 0.17789,-0.58208 0.38625,-1.42367 0.46306,-1.8702 0.27744,-1.61292 1.1229,-3.69041 1.95928,-4.81438 2.14384,-2.88102 4.45308,-3.9152 10.80541,-4.83914 2.17039,-0.31568 41.58149,-0.30705 43.32207,0.01 2.07501,0.37736 5.04302,1.05349 5.72774,1.3048 1.9997,0.73393 4.37458,3.04468 5.48935,5.34109 0.76189,1.56944 1.38967,3.59981 1.39101,4.49876 0,0.4361 0.10077,1.15155 0.2225,1.5899 0.6121,2.20406 0.69516,5.65537 0.81623,33.91634 l 0.12425,28.99834 0.69939,1.73613 c 0.44318,1.10011 1.03513,2.10813 1.61588,2.75167 2.07535,2.29965 5.94134,3.36524 9.02339,2.48714 z m 245.30717,7.61026 c -2.42733,-0.44329 -4.57386,-1.10543 -5.55204,-1.71262 -0.43425,-0.26955 -0.86355,-0.49009 -0.954,-0.49009 -0.32876,0 -2.38445,-1.83079 -3.48179,-3.10087 -1.32986,-1.53922 -2.58618,-3.93131 -3.20717,-6.10663 -0.90896,-3.1841 -0.86864,-0.44198 -0.98806,-67.20417 -0.0626,-34.98321 -0.17685,-63.79634 -0.25394,-64.02917 -0.0771,-0.23283 -0.30658,-1.28058 -0.50995,-2.32833 -0.31214,-1.60812 -0.47333,-2.00396 -1.03426,-2.54 -0.84544,-0.80791 -2.77781,-1.39601 -5.39712,-1.64254 -1.10596,-0.10409 -12.86934,-0.23338 -26.14084,-0.28731 -34.44255,-0.13998 -35.48276,-0.0361 -36.56541,3.65222 -0.33145,1.12914 -0.37042,2.3978 -0.37042,12.0573 0,10.74659 0.002,10.80325 0.5043,12.52997 0.75008,2.58 0.67841,2.50465 3.72903,3.92074 4.04356,1.87702 5.07025,2.43224 6.52554,3.52908 3.42212,2.57916 5.22347,5.49694 6.5347,10.58471 l 0.57279,2.2225 0.0681,37.465 c 0.0664,36.5208 0.0341,38.90243 -0.57169,42.12167 -0.10951,0.58208 -0.29576,1.61935 -0.41385,2.30505 -1.57274,9.1318 -8.21988,15.60633 -17.13647,16.69144 -2.5749,0.31335 -13.20628,0.316 -16.00496,0.004 -2.04836,-0.22837 -4.05505,-0.69545 -4.81254,-1.12023 -0.20216,-0.11334 -0.46456,-0.20609 -0.58312,-0.20609 -0.24375,0 -1.81362,-0.75153 -3.04749,-1.4589 -1.98527,-1.13813 -5.29759,-4.76419 -6.20808,-6.79611 -1.66662,-3.71932 -1.83212,-4.36623 -2.79906,-10.9416 -0.30505,-2.07448 -0.31434,-136.49653 -0.01,-138.47773 0.88618,-5.76041 1.19871,-7.25155 1.8226,-8.69567 0.17602,-0.40746 0.39611,-0.93134 0.48907,-1.16417 1.23051,-3.08176 4.52815,-6.88482 7.20505,-8.30933 2.37577,-1.26427 2.69276,-1.40352 4.23896,-1.8621 0.6403,-0.18991 1.4023,-0.4279 1.69334,-0.52891 1.65136,-0.57313 3.609,-0.88335 6.64417,-1.05294 4.45025,-0.24862 85.80267,-0.24553 91.04,0.003 2.21191,0.10515 4.73604,0.34489 5.60916,0.53276 1.87996,0.4045 5.17889,1.30844 5.92667,1.62397 2.17907,0.91948 4.65152,2.51168 6.3235,4.07215 0.96916,0.90454 3.18086,4.07901 3.75607,5.39117 0.1844,0.42061 0.41863,0.95526 0.52053,1.18809 0.64992,1.4851 1.36548,4.32865 1.70444,6.77333 0.36803,2.65441 0.5413,142.26979 0.18202,146.65794 -0.21667,2.64604 -0.74441,5.45152 -1.23942,6.58874 -1.7711,4.06884 -4.06631,6.73333 -7.24905,8.41529 -1.02849,0.54352 -1.1215,0.57673 -3.46892,1.23901 -1.44255,0.40698 -5.86399,0.70998 -7.09084,0.48591 z m 5.0945,-7.61026 c 1.73067,-0.49308 2.96105,-1.16404 3.90134,-2.12747 1.54764,-1.58578 2.19699,-3.39773 2.64742,-7.38748 0.32052,-2.83906 0.15953,-142.11756 -0.16773,-145.09751 -0.37427,-3.40825 -1.56096,-6.61047 -3.17678,-8.5725 -0.58111,-0.70559 -2.21678,-1.98473 -3.01737,-2.35966 -2.10212,-0.98446 -3.19868,-1.35094 -6.02221,-2.01263 l -2.11667,-0.49604 h -47.20167 -47.20166 l -1.9315,0.47631 c -3.70235,0.91303 -5.54364,1.7638 -7.26352,3.35611 -2.19779,2.03477 -3.36804,5.0014 -4.25682,10.79131 -0.40204,2.61898 -0.41233,4.33453 -0.41233,68.73202 0,58.47009 0.0376,66.32724 0.32821,68.49765 0.49708,3.71303 1.27614,6.78597 2.15212,8.48889 1.59074,3.09237 4.67117,5.08155 8.52634,5.50583 0.87312,0.0961 2.11137,0.28355 2.75166,0.41656 2.51395,0.52225 13.32827,-0.12078 14.04246,-0.83496 0.12312,-0.12313 0.40521,-0.22388 0.62685,-0.22388 0.22161,0 1.0611,-0.34584 1.86552,-0.76856 1.83888,-0.9663 3.4177,-2.64401 4.46572,-4.74546 1.07567,-2.15684 1.38375,-3.20311 1.98053,-6.72594 l 0.51392,-3.03367 v -36.58458 -36.58457 l -0.54925,-2.29237 c -0.31437,-1.31198 -0.8704,-2.90661 -1.30016,-3.7286 -1.26065,-2.41124 -2.14745,-3.04046 -8.41642,-5.97173 -4.63224,-2.16596 -6.11787,-4.18549 -7.29672,-9.91908 -0.39897,-1.9405 -0.42911,-2.86476 -0.42911,-13.16277 0,-10.97587 0.005,-11.09444 0.5084,-13.15294 0.66201,-2.70478 0.81487,-3.07152 1.93402,-4.63984 0.99089,-1.38862 3.45482,-3.25823 4.29397,-3.25823 0.2394,0 0.48739,-0.0843 0.55108,-0.18735 0.19782,-0.3201 3.72116,-1.04863 5.94169,-1.22861 2.77593,-0.22496 55.22062,-0.21616 58.1025,0.01 1.97953,0.1552 4.63415,0.68474 5.82084,1.16116 2.76087,1.10842 4.85119,2.86794 5.86374,4.93584 0.53545,1.09355 1.04654,3.05162 1.67621,6.42171 0.22225,1.18959 0.30124,13.95796 0.40074,64.77 0.095,48.49847 0.18388,63.53567 0.38052,64.34667 0.95988,3.95912 2.53058,5.95702 5.4545,6.93805 1.97648,0.66314 4.24612,0.75671 6.02962,0.24857 z m -583.791179,7.17861 c -2.568131,-0.54308 -5.487903,-2.33488 -7.577625,-4.65026 -0.697442,-0.77275 -1.394926,-1.65548 -1.549993,-1.96164 -0.155067,-0.30617 -0.4826,-0.89003 -0.727837,-1.29749 -0.245237,-0.40746 -0.514963,-0.97896 -0.599355,-1.27 -0.742802,-2.56138 -1.187683,-4.63749 -1.191916,-5.56214 -0.0028,-0.60795 -0.09912,-1.48636 -0.214122,-1.95203 -0.131572,-0.53279 -0.206206,-9.55696 -0.201295,-24.34167 0.0074,-22.24828 -0.108162,-28.45896 -0.658707,-35.416 -0.220641,-2.78789 -0.364045,-3.51062 -0.963612,-4.85595 -0.433578,-0.97287 -0.902081,-1.19937 -3.778039,-1.82664 l -2.54,-0.55398 h -21.272501 -21.272499 l -2.54,0.5559 c -3.48748,0.76327 -3.81891,1.09256 -4.34228,4.31417 -0.14186,0.87313 -0.34152,1.92088 -0.44372,2.32833 -0.10219,0.40746 -0.18747,11.36121 -0.1895,24.34167 -0.003,18.93818 -0.0645,24.26991 -0.31166,26.9875 -0.42202,4.64073 -1.09978,8.51946 -1.75685,10.05417 -0.17444,0.40746 -0.41032,0.97896 -0.5242,1.27 -0.11385,0.29104 -0.29114,0.69456 -0.39399,0.8967 -0.10283,0.20217 -0.18697,0.47124 -0.18697,0.59794 0,0.3559 -1.70868,2.90913 -2.91579,4.35701 -0.89328,1.07144 -4.13165,3.67335 -4.57189,3.67335 -0.0664,0 -0.6234,0.22712 -1.23779,0.50472 -3.64001,1.64465 -6.91934,2.13739 -14.24036,2.13967 -8.70708,0.003 -12.54857,-0.81205 -16.61583,-3.52412 -1.34961,-0.89992 -3.68201,-3.2465 -4.59567,-4.6236 -1.72227,-2.59588 -2.61823,-4.90896 -3.44348,-8.89 -0.20512,-0.98955 -0.5033,-2.37067 -0.66262,-3.06917 -0.24119,-1.05744 -0.29966,-12.62369 -0.34929,-69.10917 -0.0408,-46.38235 0.0106,-68.40824 0.16233,-69.63834 0.49337,-4.00001 0.63207,-4.60739 1.45012,-6.35 1.28042,-2.72758 6.60159,-8.86077 9.45291,-10.89541 1.15377,-0.82332 1.81045,-1.22128 4.0182,-2.43506 0.63627,-0.3498 2.48443,-0.8586 6.24416,-1.71898 3.20902,-0.73438 15.1765,-0.91684 60.642499,-0.92454 38.028292,-0.007 40.285781,0.0138 41.486672,0.37173 1.455504,0.43385 1.701376,0.53149 3.247453,1.28951 0.621919,0.30493 1.228958,0.55442 1.348952,0.55442 0.300482,0 2.679594,1.70442 4.710875,3.37492 1.947714,1.60174 3.481472,3.1423 4.331779,4.35091 0.989944,1.40712 2.627546,4.7577 3.258757,6.6675 0.327046,0.98955 0.679873,1.98967 0.784034,2.2225 0.530416,1.18551 0.908833,3.5237 1.079098,6.6675 0.420751,7.769 0.843174,128.64333 0.483023,138.21834 -0.149923,3.98598 -0.799338,8.16081 -1.564005,10.05417 -1.634257,4.04658 -4.325535,6.74199 -8.578299,8.59144 -1.854116,0.80631 -7.872329,1.07775 -10.689167,0.48212 z m 7.64051,-7.41261 c 3.305599,-1.09252 4.57109,-2.8731 5.467858,-7.69345 0.3995,-2.14744 0.414232,-3.46998 0.436753,-39.15833 0.02504,-39.72051 -0.31098,-97.65266 -0.595439,-102.65834 -0.09593,-1.68804 -0.275908,-3.30729 -0.399965,-3.59834 -0.124058,-0.29104 -0.480865,-1.35627 -0.792904,-2.36717 -0.312039,-1.0109 -1.040447,-2.77302 -1.618721,-3.91583 -0.835935,-1.65206 -1.342601,-2.3524 -2.472647,-3.41783 -1.311381,-1.23636 -4.705266,-3.84583 -5.001938,-3.84583 -0.07046,0 -0.531897,-0.1814 -1.025398,-0.40312 -2.626868,-1.18017 0.71175,-1.1023 -42.278111,-0.98616 -44.145069,0.11928 -56.217139,0.28577 -58.525829,0.80719 -0.81492,0.18407 -1.82277,0.39161 -2.23967,0.46125 -0.94799,0.15834 -3.73755,1.53375 -5.26764,2.59727 -1.4115,0.9811 -4.77876,4.69193 -6.16014,6.78873 -0.79938,1.21337 -1.04409,1.79599 -1.15566,2.75166 -0.0779,0.66679 -0.225,1.59334 -0.32698,2.05901 -0.25603,1.16918 -0.25292,134.3257 0.003,135.80178 0.10941,0.6306 0.31305,1.86093 0.45256,2.73406 0.27656,1.73103 0.87937,4.14126 1.19594,4.78176 0.10983,0.22225 0.47729,0.96285 0.81657,1.64582 1.66507,3.35186 4.52376,5.0699 9.61267,5.77714 4.06078,0.56437 7.27896,0.59127 11.1125,0.093 4.57966,-0.59532 5.93896,-1.03395 8.10381,-2.61506 1.34857,-0.98495 2.2004,-2.09781 3.11804,-4.07346 1.25679,-2.70587 1.55302,-4.13519 2.21543,-10.68917 0.38737,-3.83288 0.41751,-5.80161 0.42202,-27.58169 0.003,-13.61557 0.0872,-23.82647 0.20119,-24.34167 0.10799,-0.4881 0.35551,-1.67981 0.55006,-2.64823 0.52264,-2.60168 1.01382,-3.81205 2.09537,-5.16367 1.82385,-2.27927 3.7662,-3.36795 7.10658,-3.98325 0.75671,-0.13938 2.01375,-0.38536 2.79345,-0.54663 2.12217,-0.43891 44.320121,-0.43199 46.445995,0.008 0.8001,0.16546 2.311972,0.46537 3.359722,0.66648 3.471418,0.6663 5.835608,2.23101 7.333488,4.85354 1.144566,2.00393 1.751351,4.36772 2.119059,8.255 0.127973,1.35289 0.294364,14.16681 0.397171,30.58583 0.166624,26.60934 0.267674,30.78298 0.789263,32.59667 0.942657,3.27772 1.946656,4.76836 3.891237,5.77721 2.579773,1.33841 5.097442,1.54644 7.821126,0.64624 z m -73.045511,-103.00261 c -2.7592,-0.94571 -7.94806,-4.93865 -9.81147,-7.55016 -1.62433,-2.27645 -2.17883,-3.36787 -2.72021,-5.35423 -0.45217,-1.65902 -0.47646,-2.13222 -0.48102,-9.36729 l -0.005,-7.62 0.56176,-1.53712 c 1.11288,-3.04517 3.06999,-5.6376 5.79141,-7.67139 1.71224,-1.27961 1.90562,-1.37779 4.17047,-2.1172 l 1.96469,-0.64144 24.447499,0.0569 24.447501,0.0569 1.375833,0.59472 c 2.75027,1.18884 3.092683,1.39279 4.487143,2.67254 1.353482,1.24215 3.132858,3.62452 3.132858,4.19454 0,0.14774 0.180191,0.67242 0.400431,1.16592 0.684276,1.53332 0.712279,1.67251 0.904007,4.49561 0.362902,5.34384 0.451231,12.8048 0.181631,15.34584 -0.346223,3.26341 -0.671978,4.32229 -1.781895,5.79204 -2.22758,2.94975 -3.884591,4.29933 -6.900841,5.62049 -0.873125,0.38244 -1.752897,0.78095 -1.955038,0.88557 -0.202163,0.10463 -0.540301,0.19023 -0.751417,0.19023 -0.211137,0 -0.480907,0.097 -0.599525,0.21565 -0.118596,0.11859 -0.875517,0.40434 -1.682072,0.635 -1.418463,0.40563 -2.158937,0.41918 -22.633776,0.41389 l -21.167339,-0.005 -1.37583,-0.47158 z m 43.285833,-7.07435 c 0.457772,-0.27502 1.468523,-0.70455 2.645834,-1.12437 2.385356,-0.85063 3.903176,-1.87516 4.878811,-3.2932 l 0.682392,-0.9918 0.105241,-4.78814 c 0.12139,-5.52276 -0.218356,-11.3396 -0.759079,-12.99578 -0.723456,-2.21592 -1.773259,-3.23245 -4.108704,-3.97853 -1.227202,-0.39205 -2.134722,-0.40801 -23.210669,-0.40801 -21.024909,0 -21.992609,0.0169 -23.360339,0.40803 -2.50272,0.71573 -3.84549,1.96014 -5.48919,5.08713 -0.34489,0.65615 -0.38513,1.33196 -0.38513,6.46989 0,6.14926 0.15373,7.6381 0.96294,9.32606 0.95084,1.98338 3.75488,4.46062 7.08039,6.25526 0.71347,0.38502 1.47576,0.39772 20.637499,0.34378 15.02857,-0.0423 20.00024,-0.11821 20.320004,-0.31032 z m 424.391677,117.38947 c -0.81492,-0.0957 -2.43417,-0.26534 -3.59833,-0.37706 -3.42276,-0.32842 -7.44768,-1.82226 -10.26584,-3.81011 -2.03136,-1.43285 -4.3358,-3.90233 -5.52202,-5.91744 -0.5718,-0.97138 -1.03964,-1.81423 -1.03964,-1.87301 0,-0.0588 -0.1317,-0.407 -0.2927,-0.77386 -0.5814,-1.32495 -0.76858,-1.97343 -1.20057,-4.15948 l -0.43921,-2.2225 0.0226,-74.17823 c 0.0223,-73.36386 0.0272,-74.19928 0.44606,-76.09417 0.60971,-2.75852 0.78086,-3.18192 2.16434,-5.35404 1.42291,-2.23404 3.76013,-4.55706 5.35332,-5.32082 0.57034,-0.2734 1.27513,-0.61385 1.56617,-0.75656 1.02427,-0.50215 2.88055,-0.92889 5.08,-1.16784 1.82033,-0.19777 2.69026,-0.18305 4.80748,0.0812 1.42174,0.17751 2.75524,0.407 2.96333,0.51001 0.20809,0.103 0.71173,0.33387 1.11919,0.51302 0.40746,0.17916 1.12183,0.49344 1.5875,0.69842 1.12719,0.4961 3.87928,3.19371 5.03843,4.93867 1.56555,2.35671 2.16844,4.30868 2.68844,8.70445 0.10329,0.87313 0.19293,9.9641 0.19922,20.20219 0.0125,20.28148 0.18658,24.82405 1.08492,28.29822 0.19744,0.76359 0.97485,1.50989 2.10149,2.0174 0.29104,0.1311 1.07946,0.48637 1.75203,0.78945 0.67259,0.30309 1.35752,0.55108 1.52209,0.55108 0.16457,0 0.3581,0.0953 0.43004,0.21166 0.072,0.11642 0.27265,0.21167 0.44601,0.21167 0.17333,0 0.81066,0.31047 1.41624,0.68993 0.6056,0.37945 1.37841,0.83189 1.71736,1.00541 0.98056,0.50199 3.66572,3.11978 4.64517,4.52865 0.49333,0.7096 1.16753,1.86168 1.49824,2.56018 0.33069,0.6985 0.6756,1.42295 0.76644,1.60989 0.0908,0.18694 0.38727,1.37757 0.65869,2.64583 l 0.49352,2.30594 v 39.58167 39.58167 l -0.47805,2.2304 c -0.45004,2.09977 -0.72775,2.99171 -1.64507,5.28377 -0.6596,1.64812 -2.19587,3.85563 -3.87589,5.56935 -2.30565,2.35191 -3.64666,3.25825 -7.12432,4.81508 -1.47873,0.66196 -4.09514,1.3187 -5.92667,1.48761 -1.16417,0.10736 -2.83104,0.28575 -3.70417,0.39645 -1.8601,0.2358 -4.3733,0.23028 -6.45583,-0.0142 z m 8.36083,-7.59727 c 5.29745,-0.69062 8.56575,-2.4254 10.7677,-5.71536 1.14018,-1.70355 1.64315,-2.84825 2.18747,-4.97848 l 0.48567,-1.90068 v -39.15834 c 0,-36.97146 -0.0212,-39.23517 -0.37884,-40.53417 -0.74162,-2.69339 -1.69264,-4.36971 -3.1612,-5.57212 -1.05307,-0.86223 -3.64152,-2.19894 -6.51413,-3.36398 -0.29104,-0.11804 -0.67204,-0.29284 -0.84667,-0.38845 -0.17462,-0.0956 -0.8394,-0.44175 -1.47728,-0.76922 -2.29072,-1.176 -4.6079,-4.21424 -4.97417,-6.52206 -0.0739,-0.46567 -0.27044,-1.46579 -0.43673,-2.2225 -0.49109,-2.23459 -0.73182,-12.14825 -0.73182,-30.13664 0,-14.42491 -0.0464,-16.96326 -0.3387,-18.53021 -1.01605,-5.44654 -4.53217,-7.97274 -10.09714,-7.25439 -4.76595,0.61523 -7.2104,3.35426 -7.78173,8.71957 -0.14131,1.32707 -0.1933,26.59063 -0.15285,74.295 l 0.0613,72.28417 0.62082,2.00612 c 0.34146,1.10337 0.94282,2.57975 1.3364,3.28083 0.81487,1.45161 2.75441,3.52016 3.82111,4.07524 0.39577,0.20597 1.02053,0.53109 1.38832,0.72252 1.08399,0.56416 3.89926,1.45041 4.63823,1.4601 0.3759,0.005 1.49308,0.1429 2.48262,0.3066 2.06,0.34076 6.04084,0.29547 9.10166,-0.10355 z m 536.85296,6.38209 c -2.56333,-0.68499 -3.96588,-2.19843 -4.60284,-4.96684 -0.47824,-2.07848 -0.47439,-11.18654 0.006,-13.09309 0.6894,-2.73869 2.27133,-4.29012 5.02042,-4.9236 1.29036,-0.29735 7.21823,-0.33225 56.41374,-0.33225 53.01511,0 55.02261,0.014 56.39691,0.39516 2.4444,0.67782 3.831,1.9989 4.5709,4.35502 0.4685,1.49176 0.4811,12.58684 0.016,14.19509 -0.6674,2.30841 -2.1032,3.73619 -4.3969,4.37223 -1.3469,0.37346 -3.6378,0.38834 -56.75896,0.3687 -50.77664,-0.0188 -55.46374,-0.0494 -56.66497,-0.37042 z m 112.11703,-11.46245 v -5.715 h -55.45664 -55.45667 v 5.715 5.715 h 55.45667 55.45664 z m -259.39748,11.28882 c -11.6268,-0.64092 -18.28785,-5.57346 -20.53287,-15.20465 -1.17086,-5.02308 -1.36478,-8.72543 -1.3701,-26.1569 -0.005,-16.45086 0.0693,-17.71508 1.24898,-21.24446 1.31668,-3.93937 4.24902,-7.00379 8.07579,-8.43957 1.39634,-0.52389 4.28358,-0.99106 6.12237,-0.9906 6.8721,0.002 11.9057,3.43908 13.87638,9.47606 0.86915,2.66256 1.15083,5.33517 1.16353,11.03899 0.0152,6.81379 0.30743,13.59438 0.64717,15.01458 0.14931,0.6241 0.56223,1.71242 0.91762,2.41846 0.58399,1.16025 0.77847,1.35086 2.02197,1.98158 0.91048,0.46182 2.09173,0.82508 3.4925,1.07402 1.94242,0.34521 4.01582,0.37617 25.18833,0.37617 21.05017,0 23.22464,-0.0321 24.81749,-0.36591 3.73353,-0.78248 4.55715,-1.70165 5.3793,-6.00337 0.4162,-2.17756 0.44694,-3.20694 0.53984,-18.07822 0.10331,-16.53944 -0.0232,-20.43229 -0.75466,-23.21829 -0.58208,-2.21712 -1.08625,-2.90419 -2.69418,-3.67159 -1.12604,-0.5374 -1.93999,-0.72204 -4.68179,-1.06197 -3.13821,-0.38909 -4.89153,-0.41174 -32.22407,-0.41603 -30.13822,-0.005 -32.72604,-0.07 -37.18922,-0.93781 -6.18966,-1.20346 -10.46791,-4.17397 -12.97078,-9.00598 -1.4695,-2.83703 -2.19873,-5.95532 -2.67297,-11.43 -0.44491,-5.13609 -0.43718,-50.14603 0.01,-55.35083 0.60052,-6.99745 1.89755,-10.7593 4.90121,-14.2152 3.54351,-4.0771 8.26325,-5.90575 17.21783,-6.67108 4.8626,-0.41558 92.52611,-0.40891 97.57834,0.007 5.73906,0.47295 10.53283,1.59826 13.22916,3.10551 4.70243,2.62865 7.62225,6.80805 8.64602,12.37586 1.00459,5.46345 0.98505,5.117 0.97976,17.37493 -0.003,6.9301 -0.09,12.07565 -0.21262,12.5759 -0.11417,0.46567 -0.29746,1.51668 -0.40729,2.33557 -0.32734,2.44027 -1.54104,5.80382 -2.73008,7.5659 -1.15548,1.71236 -2.93368,3.44917 -4.42781,4.3248 -3.57475,2.09495 -9.20528,2.51155 -13.72614,1.01557 -4.28477,-1.41782 -7.65185,-5.54187 -8.73629,-10.70034 -0.50886,-2.42066 -0.86971,-5.75795 -0.86971,-8.04369 0,-3.32918 -0.98645,-8.19366 -1.89609,-9.35006 -0.60848,-0.77358 -1.99932,-1.35822 -4.26955,-1.7947 -1.85736,-0.35713 -4.05018,-0.38138 -34.47436,-0.38138 -30.41902,0 -32.60277,0.0242 -34.24615,0.37869 -3.71386,0.80124 -4.69972,1.94437 -5.69745,6.60631 -0.70843,3.31019 -0.68273,19.89772 0.0361,23.26581 0.88931,4.16716 1.89774,5.16344 6.04088,5.96807 1.89691,0.36838 4.33709,0.39786 43.07417,0.52053 27.6951,0.0877 41.64905,0.20525 42.8625,0.36114 6.82049,0.8762 10.19496,2.155 13.30105,5.04061 3.80521,3.53513 4.99861,6.70111 6.05644,16.06717 0.29085,2.5752 0.33485,7.24658 0.33591,35.66584 0.002,34.26479 0.0133,33.72637 -0.89368,39.6875 -0.75884,4.98706 -2.30293,8.34346 -5.13996,11.17278 -3.17088,3.16224 -7.02696,4.69507 -14.0831,5.59812 -2.34986,0.30074 -8.06822,0.34254 -51.1175,0.3737 -26.65941,0.0193 -49.04317,0.004 -49.74167,-0.035 z m 94.40334,-7.25815 c 6.95407,-0.29371 10.004,-0.82999 12.98141,-2.28253 3.82897,-1.868 5.33201,-5.05793 5.95994,-12.64897 0.28169,-3.40512 0.28573,-65.6263 0.004,-69.25638 -0.59775,-7.71602 -1.91125,-10.89703 -5.286,-12.80163 -0.63754,-0.35979 -1.44769,-0.74259 -1.80035,-0.85064 -2.02004,-0.61892 -3.27874,-0.86286 -6.0387,-1.17026 -2.67229,-0.29767 -8.31061,-0.35922 -43.60334,-0.47615 -36.32572,-0.12035 -40.72551,-0.17035 -42.37717,-0.48169 -4.34359,-0.81879 -6.35514,-1.74714 -8.45799,-3.90345 -3.50824,-3.59751 -4.40975,-7.91608 -4.40975,-21.12501 0,-7.88909 0.18643,-10.42065 1.07296,-14.5691 1.0999,-5.14691 4.36649,-8.85628 8.90727,-10.1146 3.81544,-1.05732 2.71094,-1.0272 37.83203,-1.03137 34.01581,-0.004 33.6147,-0.0135 37.59524,0.88672 4.63529,1.0483 7.58825,3.65897 8.894,7.8631 0.60623,1.95188 1.36836,6.63141 1.37046,8.41455 0.003,2.3219 0.64721,7.7052 1.07423,8.97257 1.27004,3.76951 3.34488,5.11889 7.58158,4.93069 3.25048,-0.1444 4.94345,-1.15041 6.23669,-3.70601 1.41207,-2.79044 1.61074,-4.96144 1.61316,-17.62885 0.003,-13.56457 -0.23502,-15.95719 -1.9216,-19.35054 -1.62646,-3.27239 -5.27283,-5.22673 -10.87852,-5.83051 -4.98126,-0.53655 -12.81108,-0.63288 -51.435,-0.63292 -45.8158,-5e-5 -50.54228,0.1082 -54.78886,1.25497 -4.06483,1.09768 -6.2397,3.00399 -7.61333,6.67317 -0.79325,2.11889 -1.15467,4.33741 -1.40638,8.63253 -0.29111,4.96733 -0.28986,44.79271 0.002,49.90888 0.53293,9.35637 2.34097,13.36506 6.76283,14.9942 0.40746,0.15013 0.93133,0.35591 1.16417,0.45732 0.99718,0.4343 3.61715,0.86746 6.97865,1.1538 2.91454,0.24828 9.05527,0.30878 32.07385,0.31604 30.21216,0.01 32.16626,0.0653 36.00636,1.02804 4.62632,1.15985 7.60284,3.7737 9.005,7.90785 1.18129,3.48283 1.23781,4.58245 1.23781,24.08051 0,18.90067 -0.0758,20.74986 -0.99399,24.23584 -1.54383,5.86151 -4.63535,8.48656 -11.38851,9.67011 -2.36358,0.41424 -48.89077,0.40507 -51.32917,-0.0102 -3.85267,-0.65599 -5.60121,-1.2269 -7.40834,-2.4189 -1.59093,-1.04938 -2.30989,-1.70938 -3.09516,-2.84131 -1.49464,-2.15447 -2.0463,-3.74608 -2.73558,-7.89231 -0.3429,-2.06267 -0.40532,-3.55109 -0.40904,-9.75282 -0.005,-8.01088 -0.21444,-11.21911 -0.87035,-13.31885 -0.86866,-2.78081 -2.27053,-4.01011 -5.2403,-4.59517 -1.59525,-0.31431 -1.85888,-0.31308 -3.53481,0.0163 -0.99604,0.1957 -2.02034,0.47258 -2.2762,0.61531 -1.35346,0.75493 -2.08282,1.53183 -2.79049,2.97241 -1.26479,2.5747 -1.37056,4.01964 -1.37503,18.78682 -0.005,16.50528 0.26243,21.42714 1.3907,25.59609 0.35232,1.30179 0.42638,1.49062 1.28155,3.26695 1.81024,3.76019 5.71987,5.61073 12.74845,6.03415 3.79398,0.22855 88.32717,0.24773 93.6896,0.0212 z m -823.504576,7.10171 c -0.05209,-0.0521 -1.617747,-0.19241 -3.47925,-0.31181 -2.900426,-0.18607 -4.155651,-0.38288 -7.885578,-1.23641 -0.263652,-0.0603 -0.53122,-0.19359 -0.594572,-0.2961 -0.06335,-0.10251 -0.261874,-0.18639 -0.441134,-0.18639 -0.294069,0 -0.624819,-0.12573 -2.400745,-0.91264 -0.9511242,-0.42143 -2.6198192,-1.67128 -3.9849642,-2.98476 -1.33786,-1.28721 -3.846703,-4.53227 -3.846703,-4.9755 0,-0.12899 -0.08725,-0.3999 -0.193865,-0.60206 -0.439632,-0.83344 -0.864468,-1.93385 -0.864468,-2.23912 0,-0.17926 -0.08232,-0.37681 -0.182901,-0.43897 -0.100605,-0.0622 -0.34584204,-1.04411 -0.54499904,-2.18208 -0.199136,-1.13798 -0.471615,-2.45004 -0.605494,-2.9157 -0.180573,-0.62817 -0.260731,-18.76313 -0.310558,-70.27334 -0.06047,-62.52708 -0.03389,-69.6265 0.267716,-71.4375 0.564939,-3.39247 0.995765,-5.57469 1.16821004,-5.91725 0.09051,-0.17981 0.328803,-0.75554 0.529548,-1.27942 0.931079,-2.42993 2.133854,-4.31264 4.099856,-6.4175 1.002665,-1.07351 4.8566712,-3.95417 5.2902062,-3.95417 0.133372,0 0.407882,-0.0855 0.610045,-0.18993 1.79142,-0.92576 5.385393,-1.83847 8.586618,-2.18061 3.73253,-0.3989 93.166358,-0.40299 96.478598,-0.004 3.62981,0.43679 6.85186,1.22665 9.07316,2.22415 2.79872,1.25683 7.13528,5.59776 8.39734,8.40579 0.71584,1.59273 0.91599,2.09753 0.91599,2.31028 0,0.1295 0.0963,0.40085 0.21398,0.60302 0.11768,0.20214 0.46223,1.36766 0.76568,2.59003 0.9264,3.73179 1.17824,12.62059 0.76164,26.88167 -0.22511,7.70666 -0.36843,8.65552 -1.78918,11.84665 -0.2316,0.52021 -0.49534,1.13934 -0.58608,1.37583 -0.73131,1.90587 -5.00814,5.95819 -6.88021,6.51904 -3.82617,1.14628 -4.22272,1.21348 -7.15992,1.21348 -4.56838,0 -7.12601,-0.75436 -10.19281,-3.00632 -2.94256,-2.16076 -5.46078,-6.86416 -5.86975,-10.96321 -0.26718,-2.67792 -0.53031,-5.67641 -0.78943,-8.9963 -0.21782,-2.7908 -0.54896,-4.43213 -1.12479,-5.57543 -0.47992,-0.95286 -1.84779,-1.39837 -6.084129,-1.98169 -0.982684,-0.13531 -11.224282,-0.25603 -26.881668,-0.31684 -26.51161,-0.103 -28.041177,-0.0638 -31.952587,0.81905 -2.573337,0.58081 -2.973282,0.95074 -3.780451,3.4966 -0.635297,2.00385 -0.665459,2.27328 -0.860341,7.68581 -0.18796,5.22017 -0.01905,14.00274 0.305097,15.85989 0.06966,0.39914 0.318854,1.13459 0.553762,1.63436 0.45538,0.9688 1.736725,1.90011 4.302019,3.12682 3.405188,1.62836 4.39437,2.18301 6.395869,3.58617 1.601597,1.1228 4.293298,3.9552 4.293298,4.51768 0,0.15355 0.09525,0.46836 0.211667,0.69963 0.116417,0.23124 0.308441,0.61209 0.426699,0.8463 0.421174,0.83412 0.889423,2.42268 1.086929,3.68751 0.1103,0.70627 0.292989,1.85564 0.405977,2.55414 0.118089,0.73012 0.283993,13.19246 0.390229,29.31584 0.117898,17.89125 0.264096,28.3907 0.403818,28.99833 0.120459,0.52387 0.379243,1.76212 0.575098,2.75167 0.546883,2.76311 1.049613,3.39255 3.272917,4.09772 2.561505,0.81244 4.018386,0.8695 22.119167,0.86656 17.940021,-0.003 19.65886,-0.0682 22.026775,-0.83655 1.628945,-0.52857 1.931265,-0.73467 2.287335,-1.55929 1.04601,-2.4225 1.36844,-5.50276 1.4911,-14.2452 0.055,-3.91927 0.20534,-7.72927 0.33408,-8.46667 0.74718,-4.27969 0.93946,-5.01155 1.79356,-6.8267 0.49752,-1.05729 1.32179,-2.48124 1.8317,-3.16429 0.94742,-1.26909 4.24389,-3.94392 4.86052,-3.94392 0.18436,0 0.40049,-0.0653 0.48027,-0.14505 0.21162,-0.21163 1.51373,-0.67289 3.20633,-1.13581 1.11049,-0.3037 2.18984,-0.40612 4.30862,-0.40885 3.29887,-0.004 5.30075,0.40519 7.27725,1.48829 0.20216,0.11079 0.47075,0.20142 0.59688,0.20142 0.30166,0 1.95317,1.13293 3.2221,2.21033 0.85521,0.72614 3.11598,3.63536 3.11598,4.00973 0,0.0651 0.22786,0.62103 0.50637,1.23541 0.8254,1.82087 1.12004,2.71592 1.48582,4.51386 0.30922,1.51991 0.34019,3.86922 0.28727,21.80167 l -0.0593,20.09817 -0.60371,2.2225 c -0.33204,1.22238 -0.6723,2.31775 -0.75614,2.43417 -0.0838,0.11641 -0.32772,0.68791 -0.54204,1.27 -1.10274,2.99538 -3.79471,6.23263 -6.87993,8.27352 -1.63387,1.08083 -1.9701,1.25711 -3.59833,1.88648 -0.52387,0.2025 -1.143,0.44805 -1.37583,0.54567 -1.2508,0.52443 -5.12088,1.26463 -7.9375,1.51814 -2.38036,0.21427 -89.767669,0.49048 -89.973726,0.2844 z m 87.751226,-7.5002 c 10.13352,-0.90966 14.05096,-3.46962 16.07121,-10.5022 l 0.54462,-1.89583 v -19.16568 c 0,-18.3588 -0.0174,-19.22634 -0.41222,-20.60711 -0.90104,-3.15076 -2.35708,-5.22876 -4.2149,-6.01531 -3.276,-1.38699 -7.26416,-1.16243 -9.94856,0.56013 -3.07834,1.97538 -4.05842,6.15263 -4.05179,17.26966 0.004,6.11111 -0.30893,9.47229 -1.1906,12.80411 -1.47225,5.56345 -4.44278,7.80428 -11.826096,8.92108 -2.719155,0.41129 -37.765462,0.4206 -40.110834,0.0106 -2.295504,-0.40123 -5.28102,-1.11703 -6.138334,-1.47172 -1.436391,-0.59425 -3.36042,-2.15948 -4.29713,-3.4958 -1.459357,-2.08191 -1.969897,-3.63076 -2.666619,-8.09001 -0.417343,-2.67108 -0.652568,-13.87731 -0.677587,-32.27916 -0.02589,-19.0564 -0.177969,-26.21092 -0.610447,-28.72093 -0.552238,-3.20489 -1.97214,-4.97531 -5.400717,-6.73394 -0.814917,-0.418 -1.624542,-0.84715 -1.799167,-0.95371 -0.174625,-0.10655 -1.127125,-0.58388 -2.116667,-1.06076 -2.591583,-1.24892 -3.242945,-1.67933 -4.737968,-3.13081 -1.527132,-1.48264 -2.357268,-3.015 -3.117575,-5.75486 -0.495871,-1.78689 -0.499237,-1.87496 -0.4924,-12.91166 l 0.007,-11.1125 0.70449,-2.62892 c 0.820526,-3.06187 1.084178,-3.68995 2.284836,-5.44293 2.051939,-2.99589 4.68884,-4.10259 12.019238,-5.04438 3.69678,-0.47493 50.854252,-0.47906 54.398335,-0.005 1.280583,0.17138 2.734818,0.3124 3.2316,0.31337 1.37814,0.003 4.865812,0.82201 6.338232,1.48897 1.7903,0.81094 2.68004,1.53187 3.7617,3.04794 1.43268,2.00806 2.12333,4.23824 2.46301,7.95318 0.29428,3.21867 0.57178,6.52027 0.7205,8.5725 0.28837,3.97927 1.77361,7.01817 4.01662,8.21824 1.09614,0.58646 3.59315,1.20093 4.88023,1.20093 1.64317,0 4.45819,-0.87245 5.51102,-1.708 1.1644,-0.9241 2.11993,-2.37954 2.77275,-4.22339 0.5454,-1.54049 0.56591,-1.78073 0.76708,-8.99111 0.11369,-4.07459 0.2129,-8.40846 0.22048,-9.63084 0.0215,-3.47063 -0.30394,-11.85553 -0.50113,-12.91166 -1.46835,-7.86403 -5.0462,-11.05849 -13.33293,-11.90424 -3.04562,-0.31084 -88.408973,-0.46857 -92.286664,-0.17052 -5.27812,0.40568 -7.238449,0.88148 -10.309267,2.50224 -0.489543,0.25838 -1.426888,1.01771 -2.08297,1.6874 -1.7469902,1.78321 -2.8460482,4.2105 -3.6182932,7.99095 l -0.605303,2.96333 v 67.94501 c 0,53.03501 0.05728,68.2237 0.261027,69.215 0.143573,0.6985 0.411734,2.07962 0.595905,3.06917 0.332867,1.78841 0.516255,2.31377 1.51456,4.3391 1.5548822,3.15451 4.8437802,5.21274 9.5876752,6.00012 4.664858,0.77425 7.378657,0.81722 49.635834,0.78606 31.212854,-0.023 41.997416,-0.0953 44.238336,-0.29644 z m 494.66501,7.36647 c -0.58208,-0.0916 -1.58221,-0.1764 -2.2225,-0.18843 -1.33185,-0.025 -4.56275,-0.6652 -6.50913,-1.28977 -3.07795,-0.98765 -5.85819,-2.65684 -7.79812,-4.6817 -1.48945,-1.5547 -3.26108,-3.80624 -3.26108,-4.14446 0,-0.12755 -0.2495,-0.74075 -0.55442,-1.36267 -0.80243,-1.63665 -0.84254,-1.7491 -1.5355,-4.30578 -0.34717,-1.28088 -0.73321,-3.42845 -0.85809,-4.77372 -0.30849,-3.32332 -0.31363,-133.23596 -0.006,-137.53504 0.14093,-1.96562 0.44205,-3.97573 0.85613,-5.715 0.75546,-3.1732 0.88621,-3.57302 1.91546,-5.85792 0.6571,-1.45868 2.55693,-4.10876 3.81125,-5.3163 1.25734,-1.21044 4.16939,-3.2562 4.6351,-3.2562 0.11436,0 0.37331,-0.0855 0.57547,-0.18993 2.10094,-1.08572 5.56728,-1.88967 9.68088,-2.24529 2.9878,-0.2583 9.74989,-0.31153 39.85459,-0.31376 23.69314,-0.002 36.96847,0.0737 38.31166,0.21775 4.0312,0.4323 6.74296,1.38542 9.45786,3.32422 1.56936,1.12073 2.59557,2.1333 3.48658,3.44035 2.19032,3.21295 2.70673,4.73976 2.8859,8.53234 0.17198,3.64018 -0.13174,6.51781 -0.84764,8.0311 -0.29963,0.63337 -0.54478,1.22488 -0.54478,1.31445 0,0.29462 -1.53076,2.31462 -2.62776,3.46761 -1.07015,1.12476 -3.90656,3.20783 -4.36793,3.20783 -0.13282,0 -0.54193,0.15649 -0.90915,0.34773 -0.36723,0.19124 -0.82813,0.42629 -1.02424,0.52231 -0.40297,0.19731 -2.31134,0.54739 -4.51176,0.82765 -0.81492,0.10381 -14.24517,0.19368 -29.845,0.19973 -23.63713,0.009 -28.7513,0.0626 -30.69167,0.32051 -2.88986,0.38413 -4.34272,0.80789 -4.9011,1.42949 -0.23719,0.26405 -0.68152,1.38496 -0.98742,2.49091 -0.50483,1.82519 -0.57364,2.54265 -0.74532,7.7709 -0.11225,3.41823 -0.11104,7.75335 0.003,10.66286 0.17621,4.4962 0.23995,5.0437 0.76831,6.60157 0.66506,1.96092 1.0548,2.34088 2.90889,2.83593 1.10865,0.29601 4.8778,0.35714 31.317,0.50789 16.67738,0.0951 30.81043,0.2619 31.75,0.37476 2.36366,0.2839 3.76108,0.58847 5.60571,1.22176 2.36309,0.81127 2.78435,1.03045 4.37932,2.27842 2.63671,2.06309 4.35826,4.48691 5.17743,7.28944 0.32419,1.10916 0.41881,2.12124 0.43889,4.69481 0.0286,3.66092 -0.3463,5.97251 -1.23147,7.59375 -0.27815,0.50942 -0.50639,1.0333 -0.5072,1.16417 -0.002,0.38337 -2.33151,3.17087 -3.59685,4.30473 -2.00082,1.79292 -4.13271,3.02717 -6.56167,3.79887 -1.06089,0.33705 -3.00418,0.38309 -21.9075,0.51911 -11.48355,0.0826 -21.59372,0.245 -22.64833,0.36373 -4.62581,0.52078 -5.86611,0.90534 -6.40664,1.98632 -0.13297,0.26592 -0.39199,1.00736 -0.57557,1.64765 -0.91245,3.18237 -0.94259,3.67786 -1.03674,17.03917 -0.13185,18.71237 0.0466,22.52561 1.14645,24.49754 0.11276,0.20216 0.205,0.49117 0.205,0.64228 0,0.66254 2.15612,1.37787 5.50333,1.82584 1.18413,0.15849 8.13046,0.26848 20.32,0.32175 21.78702,0.0952 23.06187,0.17327 27.1423,1.66184 0.4344,0.15848 0.85509,0.3534 0.93486,0.4332 0.0798,0.0798 0.27663,0.14505 0.43746,0.14505 0.4316,0 2.52916,1.38559 3.93443,2.59899 1.33135,1.14957 2.86879,3.16451 3.631,4.75872 1.69822,3.55195 1.66742,11.20671 -0.0585,14.54979 -1.00662,1.94975 -2.38574,3.70806 -3.96576,5.05621 -2.73815,2.33634 -6.07844,3.67794 -10.46574,4.20353 -2.16259,0.25908 -75.76483,0.40312 -77.36416,0.15141 z m 75.2475,-7.39691 c 3.60553,-0.42737 4.64977,-0.69452 6.32403,-1.61781 2.87604,-1.58604 4.25931,-4.08635 4.25931,-7.69893 0,-5.68261 -3.32707,-8.61748 -10.37167,-9.14901 -1.45521,-0.10982 -11.17071,-0.27001 -21.59,-0.35598 -13.2515,-0.10937 -19.19859,-0.22975 -19.79084,-0.40063 -0.46566,-0.13436 -1.22796,-0.24655 -1.69401,-0.24932 -1.99011,-0.0118 -5.32227,-1.33794 -6.93991,-2.76185 -1.04506,-0.91992 -2.69024,-3.3471 -2.69024,-3.96902 0,-0.21241 -0.0787,-0.47668 -0.17486,-0.58727 -0.0962,-0.1106 -0.37725,-1.15358 -0.62465,-2.31775 -0.84671,-3.98437 -1.12164,-16.88273 -0.66772,-31.32667 0.32141,-10.22767 0.8735,-13.15337 3.07852,-16.31402 1.56648,-2.24538 3.96549,-3.65328 7.02409,-4.12223 4.59872,-0.70506 8.27179,-0.82706 25.33712,-0.84156 9.42975,-0.008 18.33562,-0.0954 19.79083,-0.19408 2.34408,-0.159 2.79995,-0.25582 3.9972,-0.84885 1.43607,-0.71134 3.7317,-2.72683 3.95954,-3.47637 0.0752,-0.24727 0.25193,-0.59243 0.39279,-0.76706 0.94082,-1.16626 1.27824,-5.30091 0.60691,-7.43695 -0.87009,-2.76849 -2.59814,-4.13785 -6.52655,-5.17182 -1.38747,-0.36519 -3.28096,-0.39706 -31.11072,-0.52356 -19.85362,-0.0902 -30.27803,-0.21336 -31.58681,-0.37302 -4.46064,-0.54415 -6.25174,-1.09884 -8.24719,-2.55409 -1.34391,-0.98011 -3.24017,-3.76365 -3.24017,-4.7563 0,-0.17926 -0.0952,-0.38481 -0.21167,-0.45676 -0.11641,-0.0719 -0.21585,-0.33951 -0.22096,-0.59457 -0.005,-0.25508 -0.15303,-0.84476 -0.32873,-1.31043 -0.70261,-1.86226 -1.05502,-13.26424 -0.6542,-21.16667 0.15669,-3.08927 0.49418,-5.21309 1.24449,-7.83166 1.31841,-4.60109 4.90758,-7.3635 10.33107,-7.95135 0.98954,-0.10725 2.51354,-0.2867 3.38667,-0.39878 0.94452,-0.12124 13.07543,-0.20762 29.95083,-0.21325 31.07053,-0.0104 30.08408,0.0274 32.81121,-1.25749 1.70911,-0.80529 2.49632,-1.50666 3.43235,-3.05818 l 0.78587,-1.30262 0.002,-3.28083 c 0.002,-3.26348 -0.002,-3.28757 -0.65987,-4.55429 -1.37473,-2.64602 -3.9221,-4.27659 -7.58975,-4.85825 -1.8832,-0.29867 -6.16319,-0.32548 -39.57655,-0.24801 -22.69848,0.0526 -38.17412,0.16924 -39.26417,0.29586 -3.44231,0.39986 -6.12518,1.3066 -8.39241,2.8364 -1.23395,0.83261 -2.32048,2.3913 -3.66539,5.25829 -0.63644,1.35674 -1.44215,6.04672 -1.69088,9.8425 -0.31212,4.76349 -0.30655,129.27849 0.006,132.49358 0.27487,2.82816 1.23118,6.85916 1.99953,8.42833 1.33088,2.71801 2.99019,4.26568 6.02822,5.62259 1.30438,0.58259 3.94547,1.13851 6.77334,1.42572 1.68804,0.17143 3.16441,0.3497 3.28083,0.39612 0.11642,0.0464 15.73742,0.0906 34.71334,0.0982 32.95914,0.0131 34.65781,-0.005 37.99416,-0.40027 z M 984.2229,-364.88204 c -1.87249,-0.44735 -3.86438,-1.13312 -4.83316,-1.66396 -2.42672,-1.32973 -4.79812,-3.75318 -5.93321,-6.0634 -0.3335,-0.67877 -0.67733,-1.37815 -0.76409,-1.55417 -0.21726,-0.44087 -0.84586,-2.63038 -1.12308,-3.91196 -0.15996,-0.73939 -0.2691,-20.15581 -0.36111,-64.24216 -0.14071,-67.41437 -0.0816,-63.61431 -1.05858,-68.07526 -0.41686,-1.90347 -1.39322,-2.54616 -5.04171,-3.31874 -0.90642,-0.19193 -8.31285,-0.25517 -29.8859,-0.25517 h -28.68083 l -1.69334,0.48624 c -2.99883,0.86112 -3.06927,0.92522 -3.79895,3.45619 -0.3005,1.04236 -0.33576,2.54594 -0.283,12.065 l 0.0603,10.87424 0.63891,1.79916 0.63892,1.79917 2.00692,0.98175 c 1.1038,0.53997 2.76891,1.34272 3.70025,1.78391 2.05251,0.9723 4.56099,2.69543 5.73259,3.93785 1.54023,1.63336 2.2774,2.8281 3.69989,5.99649 0.10454,0.23284 0.45385,1.56634 0.77629,2.96334 l 0.58623,2.54 v 38.52333 c 0,36.3079 -0.022,38.63289 -0.38248,40.42833 -0.21038,1.04775 -0.46798,2.4092 -0.57248,3.02544 -0.19446,1.14673 -1.11455,4.0907 -1.48467,4.75044 -0.11341,0.20215 -0.20621,0.4733 -0.20621,0.60255 0,0.425 -2.3484,3.87681 -3.354,4.92991 -1.97845,2.07186 -4.57221,3.77612 -7.441,4.88919 -0.52387,0.20326 -1.19062,0.46436 -1.48166,0.58021 -0.29104,0.11586 -1.38642,0.29745 -2.43417,0.40355 -1.04775,0.10609 -2.42887,0.27969 -3.06917,0.38577 -1.51339,0.25073 -9.71311,0.24977 -11.21833,-0.001 -0.64029,-0.10681 -2.06904,-0.28539 -3.175,-0.39685 -1.91353,-0.19284 -3.68059,-0.65906 -4.11692,-1.0862 -0.11059,-0.10827 -0.33543,-0.19685 -0.49964,-0.19685 -0.16421,0 -0.99436,-0.34388 -1.84478,-0.76418 -2.59035,-1.28022 -5.48473,-3.99018 -6.78569,-6.35333 -0.31238,-0.56741 -0.63276,-1.12691 -0.71196,-1.24332 -0.26484,-0.38925 -1.25612,-2.95288 -1.48065,-3.82927 -0.33956,-1.3252 -0.62161,-2.88854 -1.07739,-5.97193 -0.4072,-2.75474 -0.4163,-4.29292 -0.4163,-70.43204 0,-58.71265 0.0413,-67.87362 0.31364,-69.57381 1.04344,-6.51362 1.316,-7.49178 3.02279,-10.84801 0.866,-1.7029 1.86815,-2.95389 3.80368,-4.7482 1.90565,-1.7666 4.40683,-3.20831 6.82989,-3.93682 0.64029,-0.19251 1.40229,-0.43394 1.69333,-0.53652 1.47707,-0.52061 4.09023,-0.88048 7.62,-1.04939 5.0034,-0.23942 83.7659,-0.24001 89.535,-6.3e-4 5.08652,0.21102 8.52634,0.8295 11.7475,2.11221 2.88246,1.14783 5.4232,2.79223 7.12165,4.60927 0.85874,0.91866 3.14418,4.10843 3.14418,4.38825 0,0.064 0.2367,0.60707 0.526,1.20673 0.8912,1.84751 1.7607,6.04733 2.1182,10.23179 0.2847,3.33128 0.3245,12.4005 0.3169,72.17834 0,42.44624 -0.086,69.13075 -0.2134,70.37917 -0.5445,5.34754 -0.705,6.21729 -1.4644,7.9375 -0.8882,2.01215 -1.2367,2.67849 -1.8818,3.59833 -2.27387,3.24243 -5.06239,5.05748 -9.28118,6.04117 -1.93781,0.45184 -6.0176,0.54257 -7.58281,0.16864 z m 6.41138,-7.50606 c 2.79226,-0.76808 4.25463,-2.14946 5.45958,-5.15723 1.16836,-2.91644 1.13743,-0.88279 1.14588,-75.35569 0.008,-68.96386 -0.0258,-72.39776 -0.74047,-75.77667 -0.51289,-2.42478 -0.68007,-2.93129 -1.5119,-4.58103 -1.76525,-3.50098 -4.30155,-5.1526 -10.02364,-6.52733 -1.55956,-0.37469 -3.03215,-0.52437 -6.56167,-0.66696 -5.86803,-0.23706 -81.59509,-0.2407 -86.88917,-0.004 -3.88698,0.17366 -5.80076,0.47456 -8.26871,1.30006 -3.18387,1.06497 -5.42955,2.94842 -6.69024,5.61109 -1.14858,2.42598 -1.29825,2.99417 -2.09082,7.9375 -0.39554,2.46708 -0.40729,4.43593 -0.409,68.58001 -0.002,64.37076 0.009,66.10955 0.41048,68.79167 0.7336,4.89644 0.92979,5.69151 1.93258,7.83166 1.30133,2.77737 2.5309,3.83025 6.40766,5.48699 0.44933,0.19202 1.7352,0.46049 2.8575,0.59659 2.63457,0.31951 11.25216,0.32271 13.57639,0.005 4.72516,-0.6458 7.86195,-2.72768 9.65985,-6.41119 1.0313,-2.11288 1.37943,-3.27311 1.96839,-6.55992 0.43032,-2.40159 0.43676,-2.98501 0.43676,-39.6261 v -37.18857 l -0.53302,-2.10851 c -0.77339,-3.05938 -1.25936,-4.03384 -2.78841,-5.5914 -0.99837,-1.01695 -1.29261,-1.17919 -7.47357,-4.12099 -1.54066,-0.73327 -3.59652,-2.19287 -4.14262,-2.94113 -1.24836,-1.71053 -2.00395,-3.70913 -2.61605,-6.91986 -0.40636,-2.13142 -0.438,-3.06086 -0.438,-12.861 0,-9.79703 0.0309,-10.70547 0.42604,-12.51924 0.71082,-3.263 1.39599,-4.70557 3.00254,-6.32179 2.08187,-2.09436 5.44317,-3.32603 10.11809,-3.70752 2.84727,-0.23235 54.37706,-0.22842 57.4675,0.004 6.28216,0.47323 10.13466,2.46928 12.0132,6.22427 0.66976,1.33875 0.84726,2.03006 1.66946,6.50165 0.21647,1.17731 0.29667,14.48202 0.39044,64.77001 0.11108,59.56776 0.13996,63.36855 0.49098,64.65297 0.78014,2.85444 2.14666,4.88683 3.95675,5.88474 2.29794,1.26687 5.0031,1.53356 7.78722,0.76771 z m -241.89056,7.09799 c -6.22063,-0.56593 -6.52604,-0.62101 -11.32416,-2.04248 -0.23284,-0.069 -0.77864,-0.34772 -1.21287,-0.61942 -0.43426,-0.27171 -0.85133,-0.49401 -0.92683,-0.49401 -0.36764,0 -2.89046,-1.89759 -4.1826,-3.14604 -1.27669,-1.23353 -3.73187,-4.57268 -3.73187,-5.0755 0,-0.10014 -0.22452,-0.60432 -0.4989,-1.12039 -0.2744,-0.51607 -0.70521,-1.8764 -0.95737,-3.02295 -0.25216,-1.14655 -0.51136,-2.17024 -0.57605,-2.27487 -0.56885,-0.92043 -0.61275,-6.10074 -0.60784,-71.72025 0.003,-37.07871 0.0784,-68.32072 0.16815,-69.42667 0.0897,-1.10596 0.29404,-2.58234 0.45411,-3.28084 0.16008,-0.6985 0.45411,-2.07734 0.65339,-3.06409 0.19928,-0.98675 0.43095,-1.93925 0.51477,-2.11667 0.0838,-0.17741 0.2964,-0.65595 0.47236,-1.0634 1.31862,-3.05365 2.03346,-4.19371 3.76405,-6.00305 2.84317,-2.97255 5.47596,-4.50574 9.525,-5.54681 2.27023,-0.58371 3.72626,-0.77706 8.5725,-1.13835 3.4537,-0.25747 72.57555,-0.26885 74.93,-0.0123 2.9439,0.32074 4.26961,0.58364 5.96822,1.18355 2.52025,0.8901 4.22907,1.98352 6.26982,4.01186 1.08379,1.0772 2.89613,3.49496 2.89613,3.86361 0,0.1213 0.15898,0.53783 0.35331,0.92562 0.19433,0.38779 0.43559,0.8755 0.53615,1.08379 0.3331,0.69002 0.69431,3.82299 0.6884,5.97128 -0.006,2.18215 -0.36044,5.09688 -0.70061,5.76108 -0.10626,0.20749 -0.50669,1.0353 -0.88983,1.83958 -1.21344,2.5472 -3.97702,5.27462 -6.65492,6.56783 -2.06977,0.99953 -2.46146,1.12573 -4.97375,1.6024 -2.14933,0.4078 -3.1405,0.42154 -30.26833,0.41957 -18.19895,-10e-4 -28.78944,0.0763 -30.16293,0.22116 -5.28608,0.55741 -6.07364,0.77453 -6.91711,1.90687 -0.21298,0.28591 -0.6201,1.37709 -0.90471,2.42485 -0.45337,1.66909 -0.54168,2.60536 -0.71313,7.56063 -0.25692,7.42642 0.0136,14.71607 0.62014,16.71858 0.81706,2.69688 1.38098,3.11386 4.84565,3.58307 0.95919,0.1299 13.44159,0.28024 31.53833,0.37986 22.24697,0.12246 30.25028,0.23124 31.115,0.42289 2.35255,0.52141 4.56466,1.09739 5.08,1.32273 0.29104,0.12726 0.76729,0.33414 1.05834,0.45973 1.17862,0.50863 3.34465,2.05845 4.37297,3.12893 1.48717,1.54813 2.88548,4.00337 3.36952,5.91633 0.56896,2.24864 0.56119,7.96207 -0.0136,9.93141 -0.69099,2.36793 -2.09207,4.82113 -3.6631,6.41387 -2.71406,2.75157 -4.58511,3.90246 -8.19341,5.03985 -1.47197,0.46399 -1.62228,0.46809 -22.96583,0.62788 -23.26714,0.17419 -24.29771,0.22541 -26.67,1.32551 -1.42035,0.65866 -2.04297,2.90746 -2.3535,8.50039 -0.52134,9.38953 -0.22998,33.29485 0.42107,34.54832 0.10759,0.20717 0.3578,0.77049 0.55598,1.2518 0.38737,0.94077 0.68969,1.15515 2.32895,1.65149 2.33936,0.70832 4.78004,0.80286 22.96583,0.88962 10.14669,0.0484 18.71976,0.17712 19.51389,0.29297 0.779,0.11365 2.00717,0.20664 2.72929,0.20664 1.26831,0 5.9794,1.10831 6.42707,1.512 0.1106,0.0997 0.33204,0.18133 0.49211,0.18133 0.59823,0 3.29268,1.9617 4.87019,3.54576 1.79731,1.80477 2.9177,3.74578 3.57355,6.19091 0.52074,1.94145 0.52265,7.78322 0.003,9.73666 -0.60765,2.28499 -1.7835,4.36295 -3.48632,6.16107 -1.43988,1.52049 -4.37115,3.78727 -4.89743,3.78727 -0.12808,0 -0.39825,0.0914 -0.60042,0.20302 -0.20214,0.11165 -1.12953,0.45321 -2.06087,0.75901 -1.63919,0.53821 -3.04171,0.74676 -7.72583,1.14878 -2.68988,0.23086 -70.26527,0.21859 -72.81334,-0.0132 z m 74.08334,-7.47778 c 5.46595,-0.55742 8.43894,-2.17518 9.90225,-5.38833 0.43616,-0.95773 0.56054,-1.61579 0.63581,-3.3641 0.16918,-3.92949 -0.75472,-6.02821 -3.47881,-7.90243 -0.49024,-0.3373 -1.02184,-0.61327 -1.18131,-0.61327 -0.15947,0 -0.38043,-0.0876 -0.49102,-0.19468 -0.39859,-0.38587 -2.7871,-0.91216 -5.06942,-1.11699 -1.28059,-0.11494 -10.99609,-0.28522 -21.59,-0.37841 -10.59392,-0.0932 -19.97604,-0.26254 -20.84917,-0.37632 -1.58384,-0.20639 -4.0775,-0.84828 -5.08,-1.30764 -2.64873,-1.21369 -4.64572,-3.52195 -5.46809,-6.32038 -1.30615,-4.44472 -1.1988,-2.45084 -1.19911,-22.26725 0,-14.15998 0.0605,-18.39684 0.27925,-19.47333 1.06589,-5.24601 1.73114,-7.03943 3.25672,-8.77991 0.7561,-0.86258 3.24877,-2.65009 3.69556,-2.65009 0.1195,0 0.50598,-0.14402 0.85883,-0.32005 0.35285,-0.17602 1.34379,-0.41932 2.20212,-0.54066 0.85831,-0.12134 2.2273,-0.31809 3.04222,-0.43723 0.89383,-0.13067 9.66934,-0.25289 22.11917,-0.30807 14.45641,-0.0641 20.92278,-0.16366 21.59,-0.33254 2.98784,-0.75625 5.46193,-2.70481 6.60779,-5.20423 0.56572,-1.23397 0.66891,-1.73624 0.75368,-3.66848 0.20021,-4.56345 -1.38252,-7.06311 -5.22338,-8.24943 -3.71799,-1.14837 -2.14175,-1.0917 -32.72393,-1.17655 -28.43676,-0.0789 -32.07025,-0.16748 -35.45416,-0.8643 -3.84023,-0.79078 -6.47461,-3.14793 -7.71417,-6.90231 -0.97122,-2.94155 -1.13915,-4.07313 -1.30992,-8.82616 -0.2118,-5.89425 -0.21184,-5.69738 0.003,-12.3825 0.16781,-5.21166 0.214,-5.64917 0.87152,-8.255 0.83071,-3.29212 0.98613,-3.66624 2.17887,-5.24467 1.66123,-2.1984 3.70906,-3.41331 6.81698,-4.04427 3.65127,-0.74128 4.83273,-0.76803 33.86667,-0.76666 32.49486,10e-4 30.93896,0.0702 34.22159,-1.51053 1.42503,-0.68622 2.74688,-1.96817 3.44947,-3.34536 0.68512,-1.34297 0.9885,-3.90109 0.69856,-5.89041 -0.4388,-3.0106 -1.93806,-5.18904 -4.4444,-6.45776 -0.67249,-0.34042 -1.37789,-0.69782 -1.56754,-0.79421 -0.18968,-0.0964 -1.28505,-0.34833 -2.43417,-0.55986 -1.96634,-0.36196 -4.20148,-0.3846 -37.96684,-0.3846 -37.3103,0 -39.00399,0.035 -43.18,0.89348 -3.94198,0.81032 -6.7298,2.51973 -8.38109,5.13902 -1.31826,2.09104 -2.51302,6.23461 -2.89901,10.05417 -0.3091,3.05869 -0.44774,131.7541 -0.14512,134.72583 0.57423,5.63929 1.91076,9.32526 4.22485,11.65155 2.37697,2.38953 5.68898,3.6166 11.1162,4.11844 4.28449,0.39618 71.59172,0.41088 75.45917,0.0165 z m -1050.39586,5.99678 c -0.81492,-0.0889 -2.62467,-0.25121 -4.02167,-0.3607 -1.397,-0.10948 -2.77812,-0.30222 -3.06916,-0.42829 -0.29104,-0.12608 -1.38642,-0.49041 -2.43417,-0.80961 -1.04775,-0.3192 -2.26029,-0.80033 -2.69454,-1.06917 -0.43425,-0.26885 -0.84581,-0.48881 -0.91457,-0.48881 -0.33543,0 -2.88894,-2.02962 -4.04399,-3.2143 -1.3132,-1.3469 -3.24773,-4.12564 -3.24773,-4.66501 0,-0.16007 -0.0803,-0.38151 -0.17847,-0.49211 -0.0982,-0.11059 -0.34391,-0.77258 -0.5461,-1.47108 -0.2022,-0.6985 -0.45148,-1.50813 -0.55395,-1.79917 -0.10247,-0.29104 -0.35679,-1.14829 -0.56515,-1.905 -0.36056,-1.30946 -0.37883,-4.84736 -0.37883,-73.3425 v -71.96667 l 0.70423,-2.64583 c 0.83279,-3.12882 1.12219,-4.05688 1.34981,-4.32858 0.0926,-0.1106 0.16846,-0.32235 0.16846,-0.47055 0,-0.52402 2.02754,-3.56191 3.25911,-4.88316 1.05631,-1.13324 4.26499,-3.65271 4.65191,-3.65271 0.0664,0 0.6234,-0.22712 1.23777,-0.50471 1.79609,-0.81153 4.13246,-1.5253 6.62037,-2.02254 2.60292,-0.52024 11.62805,-0.62716 52.70501,-0.62439 41.44499,0.003 51.1393,0.11276 53.44583,0.6063 6.1672,1.31961 8.85749,2.47936 11.59309,4.99763 2.55535,2.35233 4.01146,4.60944 5.31385,8.23688 0.23793,0.66271 0.87681,3.97723 1.27571,6.61851 0.32345,2.14169 0.3294,137.17614 0.006,139.37464 -0.93459,6.35604 -1.19623,7.43968 -2.39027,9.89935 -0.31083,0.64029 -0.56364,1.24235 -0.56182,1.3379 0.007,0.37531 -1.93952,2.86682 -3.10496,3.97399 -1.10295,1.04781 -3.66287,2.94311 -3.97517,2.94311 -0.0669,0 -0.47694,0.22054 -0.9112,0.49009 -0.43423,0.26955 -1.36104,0.66152 -2.05954,0.87104 -0.6985,0.20953 -1.8415,0.57117 -2.54,0.80367 -0.73399,0.2443 -2.29732,0.49746 -3.70416,0.59982 -1.3388,0.0974 -3.2438,0.27123 -4.23334,0.38626 -2.13618,0.24833 -93.92852,0.25377 -96.2025,0.006 z m 98.53084,-7.55297 c 1.37136,-0.11698 3.0238,-0.40397 3.78466,-0.6573 0.74276,-0.2473 1.45296,-0.44964 1.57821,-0.44964 0.62587,0 3.51692,-1.71207 4.46782,-2.64584 1.10852,-1.08854 2.18116,-2.87998 2.7259,-4.55257 0.42425,-1.30258 1.12484,-4.80626 1.39859,-6.99425 0.31879,-2.54788 0.3179,-134.1943 0,-136.35134 -0.29138,-1.97141 -1.06242,-5.67698 -1.26706,-6.08934 -0.0866,-0.17463 -0.47026,-0.98425 -0.85244,-1.79917 -0.91136,-1.94314 -2.36701,-3.37696 -4.42644,-4.36001 -1.66573,-0.79512 -2.09751,-0.9383 -5.18583,-1.71967 l -1.905,-0.48198 h -50.27084 -50.27083 l -2.01084,0.49051 c -5.62319,1.37168 -8.06464,2.94934 -9.59604,6.20092 -0.8836,1.87615 -1.06723,2.44751 -1.62014,5.04113 -0.42222,1.97635 -0.42639,2.6811 -0.42639,71.91671 v 69.92081 l 0.54173,2.27246 c 1.06091,4.45028 2.76304,6.88528 5.87008,8.39749 0.90711,0.4415 1.95486,0.88044 2.32833,0.97541 0.37346,0.095 1.2029,0.32104 1.84319,0.50236 0.64029,0.18132 1.87854,0.3363 2.75167,0.34439 0.87312,0.008 1.9685,0.0942 2.43416,0.19144 1.20459,0.25144 95.08287,0.1055 98.10751,-0.15252 z m -44.87334,-18.67533 c -19.68187,-0.1808 -20.97715,-0.25934 -24.33152,-1.4754 -2.02876,-0.73549 -2.45278,-0.98264 -3.77188,-2.19854 -1.80989,-1.6683 -2.41082,-2.85074 -3.1887,-6.27434 -0.53096,-2.33689 -0.67825,-5.77738 -0.88349,-20.6375 -0.10882,-7.87818 -0.25247,-12.43226 -0.41398,-13.12333 -0.87021,-3.72356 -1.30096,-4.69044 -2.62548,-5.89324 -1.1331,-1.02897 -4.30457,-2.89093 -4.92411,-2.89093 -0.38439,0 -5.34232,-2.66583 -6.29339,-3.38389 -1.12432,-0.84886 -2.11169,-2.08356 -2.71052,-3.38944 -1.3549,-2.95467 -1.69482,-9.68537 -1.64086,-32.49084 0.0565,-23.87512 0.24269,-26.48707 2.16461,-30.36341 1.55242,-3.13108 5.02945,-5.44884 8.93182,-5.95388 5.54578,-0.71772 9.50857,-0.81155 34.29,-0.81192 24.5733,-4.2e-4 29.65647,0.11593 35.06002,0.80206 3.94979,0.50153 7.19381,2.63896 8.54704,5.63146 0.88384,1.95446 1.51566,4.74957 1.72339,7.62402 0.21918,3.03289 0.22092,97.18664 0.002,100.64751 -0.15613,2.46661 -0.63936,5.09162 -1.30535,7.09083 -0.82736,2.48369 -2.57785,4.51195 -4.91103,5.69037 -2.82501,1.42682 -7.89982,1.63759 -33.71841,1.40041 z m 29.31584,-7.6983 c 0.80524,-0.20781 1.43787,-0.52141 1.72874,-0.85698 0.62454,-0.72052 1.15854,-2.59766 1.3898,-4.8855 0.1059,-1.04775 0.24166,-22.14563 0.30171,-46.88417 0.11299,-46.56664 0.009,-55.17538 -0.69329,-57.33971 -0.60338,-1.85981 -0.77085,-2.14469 -1.43089,-2.43411 -2.85278,-1.25093 -4.04594,-1.293 -36.43274,-1.28462 -32.71616,0.009 -31.83229,-0.0318 -35.34892,1.60945 -0.86428,0.40337 -1.50444,2.29358 -1.99723,5.89732 -0.2971,2.17264 -0.30008,37.57179 -0.004,44.34417 0.28451,6.50196 0.45763,7.25104 1.87166,8.09895 0.53711,0.32208 1.21469,0.69414 1.50573,0.82681 3.21122,1.46382 6.31569,3.07994 7.57174,3.94169 3.13422,2.15031 5.53167,5.41592 6.24827,8.51089 0.8867,3.82962 0.97987,5.37771 1.21016,20.10833 0.12375,7.91633 0.32102,14.86958 0.43838,15.45167 0.52491,2.60363 1.15827,3.91583 1.89004,3.91583 0.21804,0 0.44523,0.079 0.50489,0.17549 0.10535,0.17047 1.47282,0.51038 3.19736,0.79477 1.97868,0.32629 11.10111,0.45421 28.36334,0.39772 15.79964,-0.0517 18.59536,-0.10681 19.685,-0.388 z m 83.079164,33.93586 c -5.149681,-0.48888 -7.835583,-1.08709 -10.371665,-2.30999 -3.48467,-1.68031 -6.60167,-4.51879 -8.56116,-7.79616 -0.64653,-1.08138 -1.17551,-2.05899 -1.17551,-2.17246 0,-0.11347 -0.0897,-0.3717 -0.19926,-0.57385 -0.1096,-0.20215 -0.39413,-1.0226 -0.63227,-1.82323 -0.41569,-1.39748 -0.51437,-1.87533 -1.11999,-5.42348 -0.4067,-2.3826 -0.39665,-135.07338 0.0106,-138.74751 0.36419,-3.28668 0.9449,-6.16442 1.85096,-9.17267 0.41451,-1.37622 2.12831,-4.24331 3.49786,-5.85169 0.84444,-0.99173 1.59063,-1.80314 1.65819,-1.80314 0.0676,0 0.64605,-0.42926 1.28552,-0.95392 1.07101,-0.87874 1.81625,-1.30089 3.8085,-2.1574 0.40745,-0.17518 0.93133,-0.40188 1.164162,-0.50377 0.872025,-0.38163 2.378181,-0.8177 3.916744,-1.13401 3.904784,-0.80275 5.599134,-0.82827 51.539924,-0.77644 46.639968,0.0526 46.133555,0.0432 48.471668,0.89982 1.167532,0.42774 3.699383,1.71908 3.940789,2.00995 0.131191,0.15809 0.33384,0.28744 0.450342,0.28744 0.372491,0 2.924302,1.92469 4.410033,3.32625 1.304586,1.23067 4.00467,4.97258 4.00467,5.54985 0,0.12722 0.08547,0.3967 0.189928,0.59885 0.398145,0.77044 0.867622,2.1095 1.182074,3.37151 0.288524,1.15806 0.319956,5.14976 0.270109,34.29 l -0.05641,32.97938 -0.597514,1.79916 c -0.980567,2.95256 -2.298658,5.73309 -3.472265,7.32481 -1.724872,2.3394 -2.600579,3.43099 -4.046156,5.04377 l -1.505311,1.6794 0.425556,0.64893 c 0.234082,0.35691 0.62592,1.07755 0.870755,1.60143 0.244835,0.52387 0.718333,1.35066 1.052195,1.8373 0.333862,0.48664 0.607018,0.9526 0.607018,1.03546 0,0.0829 0.381,0.75393 0.846666,1.49126 0.465667,0.73733 0.846667,1.39967 0.846667,1.47186 0,0.0722 0.178922,0.3841 0.397595,0.69311 0.218672,0.30901 0.801751,1.32384 1.295738,2.25517 0.493988,0.93134 1.077066,1.94617 1.295739,2.25518 0.218673,0.30901 0.397595,0.62047 0.397595,0.69212 0,0.0717 0.256138,0.5332 0.569193,1.02566 0.313055,0.49246 0.965348,1.65738 1.449556,2.58871 1.537843,2.95789 2.3368,4.41978 2.918651,5.34038 0.311277,0.49245 0.565933,0.94304 0.565933,1.0013 0,0.0583 0.333375,0.62708 0.740834,1.26404 0.407458,0.63696 0.740833,1.21489 0.740833,1.28428 0,0.0694 0.333375,0.64732 0.740833,1.28428 0.407459,0.63696 0.740834,1.20846 0.740834,1.27 0,0.0615 0.317436,0.60812 0.705421,1.21463 0.387964,0.60651 0.946002,1.53062 1.24007,2.05358 0.294069,0.52296 0.723054,1.28422 0.953347,1.69168 0.230272,0.40745 0.733468,1.31233 1.118235,2.01083 0.384747,0.6985 0.876554,1.52283 1.092899,1.83184 0.216344,0.30901 0.393361,0.62315 0.393361,0.69809 0,0.0749 0.333375,0.65739 0.740833,1.29435 0.407459,0.63696 0.740834,1.20577 0.740834,1.26404 0,0.0583 0.243247,0.49124 0.540533,0.96219 0.297307,0.47094 0.710247,1.15961 0.91766,1.53038 0.779843,1.39399 1.49153,2.63613 2.569167,4.48411 0.610997,1.04775 1.299147,2.23837 1.529229,2.64583 1.099841,1.94781 1.545801,2.69559 1.956625,3.28084 0.245174,0.34925 0.579692,0.92075 0.743395,1.27 0.163703,0.34925 0.411014,0.77787 0.549592,0.9525 0.138578,0.17462 0.610722,0.98425 1.049232,1.79916 2.568808,4.77388 2.902585,6.20375 2.791502,11.95917 -0.07264,3.76382 -0.09773,3.95893 -0.64626,5.02605 -0.31386,0.61061 -0.570675,1.19825 -0.570675,1.30585 0,0.42489 -2.258018,2.6313 -3.922691,3.83305 -1.642386,1.18565 -1.87052,1.28463 -3.451098,1.49735 -2.345352,0.31563 -20.816063,0.14325 -21.836212,-0.2038 -0.407458,-0.13861 -1.598083,-0.44139 -2.645833,-0.67285 -2.19873,-0.48571 -2.348611,-0.54415 -4.932342,-1.92327 -1.57154,-0.83885 -3.258735,-2.68308 -4.234857,-4.62905 -1.550035,-3.09012 -2.247773,-4.31915 -3.31252,-5.83494 -1.021842,-1.45472 -1.345607,-2.01629 -3.286612,-5.70089 -0.551942,-1.04775 -1.236599,-2.33363 -1.52146,-2.8575 -0.628904,-1.15664 -0.95612,-1.77436 -1.224957,-2.31252 -0.111972,-0.22413 -0.57785,-1.1052 -1.035283,-1.95791 -0.722122,-1.34616 -1.384554,-2.64073 -1.930591,-3.7729 -0.169439,-0.35131 -1.409043,-2.6413 -2.406142,-4.445 -0.35397,-0.6403 -1.034563,-1.92617 -1.512464,-2.8575 -0.47788,-0.93134 -0.983572,-1.90765 -1.123738,-2.16959 -0.140187,-0.26194 -0.334878,-0.64294 -0.432668,-0.84666 -0.183007,-0.3813 -0.87702,-1.63458 -1.728872,-3.12209 -0.266679,-0.46566 -1.070716,-1.98966 -1.786763,-3.38666 -0.716026,-1.397 -1.4161772,-2.75432 -1.5558982,-3.01625 -0.372513,-0.69848 -0.59436,-1.12749 -2.271057,-4.39209 -2.093362,-4.07582 -3.069188,-5.89065 -3.294867,-6.12775 -0.105283,-0.11059 -0.19141,-0.3268 -0.19141,-0.48045 0,-0.15366 -0.255143,-0.6823 -0.56697,-1.17475 -0.311828,-0.49246 -1.104159,-1.94313 -1.760728,-3.22371 -1.61374704,-3.1475 -3.15377,-5.43287 -3.922374,-5.82082 -0.830072,-0.41896 -9.5856848,-0.58398 -10.8259248,-0.20405 -0.49367,0.15124 -3.412786,0.30554 -7.477337,0.39524 -4.078626,0.09 -6.83188,0.23579 -7.090833,0.37546 -0.232834,0.12557 -0.775865,0.37906 -1.206733,0.56329 -1.171575,0.50098 -1.732047,1.61408 -2.25533,4.47921 -0.351218,1.92302 -0.540152,11.72716 -0.491532,25.50583 0.05247,14.86581 -0.116523,19.16935 -0.897636,22.86 -0.736134,3.47809 -0.84129,3.82172 -1.813539,5.92667 -1.481836,3.20822 -4.082965,6.20484 -7.083764,8.16087 -0.972418,0.63385 -1.8738,1.15246 -2.003044,1.15246 -0.129244,0 -0.400389,0.0914 -0.602551,0.20302 -0.202142,0.11166 -1.129538,0.45093 -2.060872,0.75394 -3.40978,1.10936 -10.161418,1.62264 -15.134167,1.15055 z m 9.736666,-7.58132 c 2.087563,-0.23492 3.330173,-0.60799 5.41945,-1.62707 3.264599,-1.59236 5.185813,-4.65379 6.4055,-10.20705 l 0.663384,-3.02044 v -20.15706 c 0,-22.71947 0.03467,-23.35578 1.511787,-28.30372 0.660527,-2.21256 2.015469,-3.95549 4.163462,-5.35565 1.419627,-0.92539 1.934612,-1.12914 4.484159,-1.77412 1.590717,-0.40242 10.073534,-0.71591 20.9549998,-0.7744 7.076398,-0.038 7.42844196,0.002 9.419167,1.0747 2.595224,1.39826 4.504817,4.27926 10.4176202,15.71695 0.571711,1.10596 1.667065,3.20146 2.434082,4.65667 0.767016,1.45521 2.102358,4.02696 2.96744,5.715 0.865081,1.68804 1.963039,3.78354 2.439924,4.65667 1.623737,2.97287 2.12399,3.91482 3.653535,6.87917 0.840952,1.62983 1.603016,3.05858 1.693482,3.175 0.09047,0.11641 0.60706,1.06891 1.148017,2.11666 1.758103,3.40523 3.670215,7.05617 4.629107,8.83875 0.516149,0.95952 1.460966,2.74471 2.099585,3.96709 1.337819,2.56069 1.614255,3.02095 2.913042,4.85008 0.523875,0.73778 1.61925,2.63479 2.434167,4.21557 1.372425,2.66222 1.557803,2.91849 2.514219,3.47567 0.567902,0.33084 1.568027,0.74237 2.2225,0.91451 3.444431,0.90596 3.8804,0.93715 13.100918,0.93733 l 8.947658,1.7e-4 0.92763,-0.85507 c 1.495446,-1.37844 1.679998,-1.9687 1.548765,-4.95315 -0.07381,-1.67852 -0.248158,-2.95126 -0.509143,-3.71678 -0.218292,-0.64029 -1.790129,-3.54542 -3.492945,-6.45583 -4.101084,-7.00942 -3.879363,-6.62572 -4.525645,-7.83167 -0.311933,-0.58208 -0.699368,-1.20871 -0.860976,-1.3925 -0.161607,-0.18379 -0.293814,-0.3935 -0.293814,-0.46603 0,-0.0725 -0.762,-1.43279 -1.693333,-3.02283 -0.931334,-1.59003 -1.693334,-2.95671 -1.693334,-3.03706 0,-0.0803 -0.114765,-0.26085 -0.255037,-0.40112 -0.244602,-0.24461 -1.053042,-1.61339 -2.149644,-3.63963 -0.283528,-0.52387 -1.412177,-2.4765 -2.508123,-4.33916 -1.095947,-1.86267 -2.057549,-3.52955 -2.136902,-3.70417 -0.07933,-0.17463 -0.238316,-0.46038 -0.353251,-0.635 -0.114935,-0.17463 -0.51018,-0.84138 -0.878332,-1.48167 -0.368131,-0.64029 -1.196848,-2.06904 -1.841563,-3.175 -0.644737,-1.10596 -1.401975,-2.48708 -1.682772,-3.06917 -0.589026,-1.22103 -2.780813,-5.10798 -5.166339,-9.16208 -0.910082,-1.54665 -1.654704,-2.85502 -1.654704,-2.90748 0,-0.0525 -0.466027,-0.88253 -1.035622,-1.84458 -1.632521,-2.75734 -2.06466,-3.53353 -3.032104,-5.44621 -0.812588,-1.6065 -0.906293,-1.94617 -0.905002,-3.28084 0.0021,-1.85003 0.587756,-3.01988 2.442189,-4.87547 3.76699,-3.76934 6.148811,-7.50198 7.281757,-11.41158 l 0.540449,-1.86494 v -30.90136 -30.90135 l -0.633349,-1.89041 c -0.865378,-2.58296 -2.3622,-4.76617 -4.185899,-6.10531 -1.816418,-1.33381 -3.877459,-2.47521 -5.340753,-2.95769 -1.104243,-0.3641 -3.414014,-0.38997 -44.873334,-0.50258 -28.413816,-0.0772 -44.560956,-0.0446 -46.143334,0.0931 -6.17836,0.53772 -10.032937,1.9787 -12.258842,4.58279 -1.56799,1.83438 -2.78393,4.89031 -3.38881,8.51681 -0.60617,3.63429 -0.65058,8.5886 -0.64681,72.15615 0.004,70.16831 -0.0383,67.27859 1.04517,71.03635 1.74752,6.06064 5.935133,9.26268 12.905401,9.86804 1.342136,0.11656 2.490004,0.26369 2.550816,0.32695 0.150961,0.15703 6.040861,-0.0733 8.259742,-0.32297 z m 17.780001,-100.51345 c -4.588785,-1.06123 -6.216777,-1.95317 -8.044752,-4.40756 -1.089364,-1.46267 -1.541611,-2.5569 -2.182685,-5.28101 -1.001268,-4.25479 -1.202098,-11.90279 -0.586402,-22.33084 0.190585,-3.22798 0.95358,-6.74275 1.877801,-8.65023 0.843831,-1.74157 2.992353,-3.83477 4.783709,-4.66053 2.453767,-1.13112 4.37532,-1.25539 21.085663,-1.36364 16.83926876,-0.10908 21.2614298,0.0871 23.1451788,1.02685 0.344593,0.1719 0.742547,0.31255 0.884343,0.31255 0.34726,0 3.2991852,1.96152 3.7025372,2.46029 1.854814,2.29356 2.711196,4.71482 3.659124,10.34555 0.342265,2.03301 0.340529,17.45528 -0.0021,19.47333 -0.837607,4.93223 -1.483804,6.94111 -2.78875,8.66949 -1.465856,1.94152 -3.2614662,3.16669 -5.4227522,3.70002 -4.396084,1.08481 -4.146847,1.07295 -22.0129108,1.04762 -14.06779,-0.0199 -16.940467,-0.0742 -18.097924,-0.34189 z m 37.4610848,-7.6979 c 2.181458,-0.6516 2.300753,-0.81332 3.120263,-4.22963 l 0.579967,-2.41771 -0.0021,-8.46667 c -0.0021,-8.41171 -0.0049,-8.4827 -0.5657,-10.93778 -0.861314,-3.77023 -1.166707,-4.21332 -3.446929,-5.00114 -1.7381,-0.60052 -4.283837,-0.64609 -25.3999998,-0.45469 -11.618511,0.10532 -11.643636,0.1065 -12.63123,0.59251 -1.244219,0.61231 -1.62742,1.39045 -2.308881,4.6886 -0.483849,2.3417 -0.502455,2.76786 -0.490009,11.21834 0.01228,8.30327 0.03842,8.88845 0.478007,10.68916 0.523071,2.14255 0.892683,3.0435 1.448478,3.53071 0.341397,0.29926 2.242883,1.03908 3.343635,1.30093 0.232833,0.0554 7.995708,0.0834 17.250833,0.0622 l 16.8275008,-0.0385 1.795251,-0.53625 z M 116.49537,-366.77897 c -0.87312,-0.0932 -2.77812,-0.25773 -4.23333,-0.36557 -1.58534,-0.11749 -3.15487,-0.36587 -3.91583,-0.6197 -0.6985,-0.23298 -1.63892,-0.48821 -2.08981,-0.56717 -0.45089,-0.079 -0.97477,-0.22175 -1.16417,-0.31729 -0.1894,-0.0955 -0.72536,-0.35097 -1.19102,-0.56761 -0.46567,-0.21663 -1.32292,-0.68053 -1.905,-1.03088 -0.58209,-0.35036 -1.33581,-0.77898 -1.67494,-0.9525 -1.024702,-0.5243 -3.833561,-3.42602 -4.827759,-4.98738 -0.805498,-1.26498 -1.645666,-2.87999 -2.304542,-4.42979 -0.180954,-0.42566 -0.516975,-1.9438 -1.124374,-5.08 -0.180361,-0.93133 -0.432159,-3.36021 -0.559519,-5.3975 -0.300313,-4.80347 -0.137393,-133.1633 0.172593,-135.99583 0.193548,-1.76853 1.115144,-6.01374 1.516401,-6.985 1.192551,-2.88681 2.930589,-5.50847 4.923557,-7.42677 1.374352,-1.32286 3.048443,-2.5745 3.984413,-2.97897 0.29104,-0.12577 1.05304,-0.47362 1.69333,-0.77301 0.6403,-0.29939 1.68805,-0.70153 2.32834,-0.89365 0.64029,-0.19212 1.40229,-0.43195 1.69333,-0.53296 1.81568,-0.63014 3.55462,-0.86144 7.87993,-1.04812 6.01918,-0.25978 84.50536,-0.26056 91.28591,-8.4e-4 3.14221,0.12032 5.68509,0.32445 6.66627,0.53513 2.1455,0.46069 4.75592,1.29481 6.00035,1.91734 0.56371,0.282 1.10809,0.51273 1.20972,0.51273 0.42983,0 3.77099,2.3654 4.67688,3.31106 1.05725,1.10366 3.10811,4.02743 3.63867,5.18739 0.97765,2.13751 1.66095,4.81688 2.286,8.96405 0.41557,2.75737 0.41256,25.9851 -0.004,28.25751 -0.42443,2.31723 -0.8514,4.02651 -1.21608,4.86833 -0.17651,0.40746 -0.39766,0.93133 -0.49145,1.16417 -0.65551,1.62717 -1.34404,2.63923 -2.84635,4.18373 -2.52332,2.59421 -4.4926,3.84331 -7.11449,4.51266 -2.14656,0.54799 -7.48991,0.5568 -9.525,0.0157 -3.76786,-1.00183 -6.5661,-2.99448 -8.59604,-6.12133 -0.51094,-0.787 -0.92896,-1.50737 -0.92896,-1.60081 0,-0.0934 -0.22427,-0.64015 -0.49837,-1.21491 -0.27409,-0.57477 -0.6604,-1.75941 -0.85844,-2.63253 -0.19803,-0.87313 -0.45305,-1.9685 -0.56669,-2.43417 -0.11365,-0.46567 -0.29395,-2.70863 -0.40067,-4.98437 -0.28761,-6.13232 -0.85888,-8.92967 -1.92815,-9.44151 -2.12749,-1.01837 -2.69964,-1.10496 -9.18852,-1.39059 -9.19522,-0.40476 -53.24841,-0.37965 -55.98058,0.0319 -2.35547,0.35481 -3.97676,1.09778 -4.44359,2.03631 -0.69702,1.4013 -1.27544,4.47715 -1.5107,8.03325 -0.3048,4.60712 -0.13498,16.99478 0.24955,18.20333 0.43356,1.36269 1.33217,2.11352 4.20343,3.51217 1.46312,0.71272 2.94597,1.44356 3.29522,1.62409 1.36527,0.70574 3.86743,2.60522 5.00876,3.80237 1.25279,1.31404 3.14041,4.04883 3.14041,4.54986 0,0.16006 0.0791,0.3815 0.1759,0.4921 0.0967,0.11059 0.35157,0.82021 0.56631,1.57691 0.21474,0.75671 0.4713,1.48366 0.57012,1.61544 0.57726,0.76969 0.65662,4.06149 0.7826,32.4629 l 0.13005,29.31583 0.48232,1.91394 c 0.55264,2.19296 1.12052,3.2719 1.7221,3.2719 0.22767,0 0.46522,0.0829 0.52788,0.18433 0.2936,0.47508 3.65118,0.87777 9.01272,1.08094 14.50524,0.54967 24.40184,0.70467 30.48,0.47738 8.77255,-0.32805 9.84788,-0.55608 10.57038,-2.2416 0.21179,-0.49407 0.59011,-2.03649 0.84072,-3.4276 0.25059,-1.39111 0.55213,-3.05316 0.67007,-3.69345 0.32432,-1.76077 0.49077,-22.48241 0.21595,-26.88167 -0.35213,-5.63636 -0.83067,-8.50988 -1.68216,-10.1009 -0.48535,-0.90691 -3.10401,-1.57685 -6.91079,-1.76801 -4.15984,-0.2089 -6.29048,-0.47867 -8.99584,-1.13902 -2.17538,-0.53099 -2.66418,-0.69465 -3.88006,-1.29915 -0.32958,-0.16386 -0.6985,-0.29792 -0.81978,-0.29792 -0.31651,0 -2.61718,-1.67367 -3.95853,-2.87971 -1.10956,-0.99761 -2.98338,-3.61739 -2.98338,-4.17101 0,-0.15015 -0.0821,-0.36348 -0.18235,-0.47408 -0.10031,-0.1106 -0.38606,-1.03108 -0.635,-2.04551 -0.91095,-3.71187 -0.44302,-9.43285 0.98216,-12.00837 1.75859,-3.17803 4.58275,-5.89888 7.56103,-7.28442 0.46566,-0.21664 1.0244,-0.48629 1.24165,-0.59923 1.12851,-0.58666 3.87996,-1.278 5.84819,-1.46944 1.36131,-0.1324 7.34453,-0.18248 15.45166,-0.12932 l 13.23016,0.0867 2.53609,0.67715 c 1.39486,0.37244 2.62835,0.7694 2.74108,0.88215 0.11276,0.11275 0.33319,0.20499 0.48986,0.20499 0.15668,0 1.20919,0.44894 2.33892,0.99764 1.86377,0.90521 2.28955,1.23365 4.59626,3.54541 2.07173,2.07629 2.68776,2.84157 3.32875,4.13529 1.01367,2.04591 2.24515,5.83311 2.51202,7.72527 0.81443,5.77484 0.81511,5.80729 0.81561,39.68806 0,33.87881 -0.0121,34.48937 -0.81904,39.58167 -0.19067,1.20331 -1.15648,4.48268 -1.51086,5.13004 -0.11066,0.20215 -0.20119,0.47729 -0.20119,0.61142 0,0.44546 -2.39625,3.87032 -3.5884,5.12874 -1.02199,1.07883 -4.17477,3.52313 -4.54427,3.52313 -0.0719,0 -0.48603,0.22054 -0.92029,0.49009 -0.43423,0.26955 -1.36104,0.65846 -2.05954,0.86426 -0.6985,0.20579 -1.88912,0.57254 -2.64583,0.815 -0.75671,0.24246 -2.37596,0.51527 -3.59833,0.60624 -1.22238,0.091 -3.03213,0.25968 -4.02167,0.37492 -2.17676,0.25349 -88.8532,0.2518 -91.22834,-0.002 z m 93.23917,-7.54145 c 1.28059,-0.11343 2.80459,-0.36284 3.38667,-0.55424 0.58208,-0.19141 1.39171,-0.44919 1.79917,-0.57285 2.93469,-0.89067 5.72251,-3.1065 6.92548,-5.50452 1.47318,-2.93667 1.87663,-4.75555 2.17927,-9.82483 0.2317,-3.88109 0.22733,-63.37911 -0.005,-66.675 -0.48415,-6.87128 -1.65511,-10.31166 -4.43061,-13.0175 -1.69985,-1.65717 -3.76337,-2.65361 -7.27566,-3.51325 l -2.07726,-0.50841 h -12.93759 c -12.48825,0 -12.9932,0.0154 -14.5386,0.44398 -3.56356,0.98824 -5.91092,2.65074 -7.14356,5.05935 -0.56636,1.10666 -0.59578,1.30532 -0.59578,4.02167 0,2.71871 0.029,2.91404 0.59726,4.02166 1.7152,3.34321 4.32179,4.47584 12.64289,5.4936 0.99558,0.12177 2.59897,0.2214 3.56307,0.2214 1.07247,0 2.42392,0.16972 3.48152,0.43723 3.16488,0.80051 4.02406,1.16622 5.42762,2.31025 0.89566,0.73005 2.75681,3.3314 2.75681,3.85324 0,0.16479 0.0888,0.3901 0.1974,0.5007 0.22199,0.22615 0.90472,3.56216 1.25406,6.12775 0.33746,2.47825 0.65625,8.75515 0.66652,13.12333 0.0133,5.68299 -0.40236,19.74251 -0.61962,20.955 -0.10428,0.58209 -0.30141,1.91559 -0.43802,2.96334 -0.67524,5.17834 -2.00888,7.91894 -4.8394,9.94481 -2.26142,1.61857 -3.45357,1.86055 -11.56678,2.3478 -7.15107,0.42947 -15.21489,0.30639 -34.50166,-0.52661 -6.38567,-0.2758 -7.93496,-0.50763 -11.00261,-1.64638 -1.85748,-0.68952 -3.9498,-2.78304 -4.82521,-4.82796 -0.19935,-0.46566 -0.66796,-2.08491 -1.04134,-3.59833 l -0.67888,-2.75167 -0.13125,-29.63333 c -0.0892,-20.13935 -0.20401,-29.87068 -0.35838,-30.37417 -1.09596,-3.57446 -2.2422,-5.4931 -4.0815,-6.83196 -0.40746,-0.29659 -2.31968,-1.34197 -4.24936,-2.32306 -5.15381,-2.62027 -6.83637,-4.00681 -8.02625,-6.61415 -0.72128,-1.58049 -0.99526,-2.78548 -1.26839,-5.57867 -0.47875,-4.89604 -0.12749,-19.27998 0.54606,-22.36133 0.82956,-3.79506 1.0412,-4.52789 1.65047,-5.715 1.46786,-2.86009 4.63698,-5.08341 7.99306,-5.6076 4.49787,-0.70254 6.05473,-0.74239 28.96608,-0.74158 21.88665,8.5e-4 30.54058,0.17021 36.93583,0.72311 1.98256,0.17141 4.4413,0.86939 6.06063,1.72048 0.98874,0.51967 2.48264,1.91838 3.10037,2.90285 0.57988,0.92413 0.81398,1.49617 1.51756,3.70836 0.42308,1.33023 0.86515,5.14933 0.98535,8.51272 0.21565,6.03406 1.55372,9.97785 3.92234,11.56057 2.60532,1.74088 7.44605,1.95995 9.90318,0.44817 1.10202,-0.67804 2.60765,-2.30309 3.18757,-3.44044 0.32766,-0.6426 0.84356,-2.27331 1.14645,-3.62382 l 0.55072,-2.45545 v -11.16845 c 0,-6.34462 -0.0904,-11.72751 -0.20923,-12.46285 -0.68898,-4.26246 -0.9328,-5.37201 -1.47117,-6.69497 -1.8551,-4.55883 -4.16749,-6.24178 -10.8078,-7.86593 l -2.01083,-0.49183 h -48.26 c -46.28215,0 -48.32507,0.0161 -49.8475,0.39244 -3.82649,0.94596 -4.98822,1.39122 -7.15163,2.74099 -2.23272,1.39302 -3.87542,3.79002 -4.817911,7.03019 -1.085533,3.73192 -1.007724,-1.24323 -1.09074,69.74055 -0.04703,40.21291 0.0021,67.2966 0.124545,69.42666 0.229214,3.96944 0.863134,6.90273 2.050306,9.48719 0.89398,1.94621 2.98122,4.08845 4.85439,4.98231 2.01337,0.96076 2.05528,0.97768 3.27937,1.3235 2.72271,0.7692 3.58792,0.92307 5.29167,0.94105 0.98954,0.0105 2.22779,0.0959 2.75166,0.18994 1.37148,0.24613 89.74807,0.10293 92.60417,-0.15005 z m 67.73334,7.54931 c -0.81492,-0.0889 -2.62467,-0.25121 -4.02167,-0.3607 -1.397,-0.10948 -2.77812,-0.30222 -3.06916,-0.42829 -0.29105,-0.12608 -1.38642,-0.49041 -2.43417,-0.80961 -1.04775,-0.3192 -2.2603,-0.80033 -2.69454,-1.06917 -0.43425,-0.26885 -0.84582,-0.48881 -0.91457,-0.48881 -0.33543,0 -2.88895,-2.02962 -4.044,-3.2143 -1.3132,-1.3469 -3.24772,-4.12564 -3.24772,-4.66501 0,-0.16007 -0.0803,-0.38151 -0.17848,-0.49211 -0.0982,-0.11059 -0.3439,-0.77258 -0.5461,-1.47108 -0.20219,-0.6985 -0.45147,-1.50813 -0.55393,-1.79917 -0.10249,-0.29104 -0.35681,-1.14829 -0.56515,-1.905 -0.36058,-1.30946 -0.37884,-4.84736 -0.37884,-73.3425 v -71.96667 l 0.70423,-2.64583 c 0.83278,-3.12882 1.12219,-4.05688 1.3498,-4.32858 0.0927,-0.1106 0.16847,-0.32235 0.16847,-0.47055 0,-0.52402 2.02755,-3.56191 3.25911,-4.88316 1.0563,-1.13324 4.26498,-3.65271 4.65191,-3.65271 0.0664,0 0.6234,-0.22712 1.23778,-0.50471 1.79608,-0.81153 4.13245,-1.5253 6.62036,-2.02254 2.60291,-0.52024 11.62804,-0.62716 52.705,-0.62439 41.44499,0.003 51.13931,0.11276 53.44584,0.6063 6.1672,1.31961 8.85749,2.47936 11.59309,4.99763 2.55534,2.35233 4.01146,4.60944 5.31385,8.23688 0.23793,0.66271 0.8768,3.97723 1.27571,6.61851 0.32345,2.14169 0.3294,137.17614 0.006,139.37464 -0.93459,6.35604 -1.19623,7.43968 -2.39027,9.89935 -0.31083,0.64029 -0.56364,1.24235 -0.56182,1.3379 0.007,0.37531 -1.93953,2.86682 -3.10496,3.97399 -1.10296,1.04781 -3.66287,2.94311 -3.97517,2.94311 -0.0669,0 -0.47695,0.22054 -0.9112,0.49009 -0.43423,0.26955 -1.36104,0.66152 -2.05954,0.87104 -0.6985,0.20953 -1.8415,0.57117 -2.54,0.80367 -0.734,0.2443 -2.29732,0.49746 -3.70417,0.59982 -1.33879,0.0974 -3.24379,0.27123 -4.23333,0.38626 -2.13618,0.24833 -93.92852,0.25377 -96.2025,0.006 z m 98.53083,-7.55297 c 1.37137,-0.11698 3.02381,-0.40397 3.78467,-0.6573 0.74276,-0.2473 1.45296,-0.44964 1.57821,-0.44964 0.62587,0 3.51692,-1.71207 4.46781,-2.64584 1.10852,-1.08854 2.18117,-2.87998 2.72591,-4.55257 0.42424,-1.30258 1.12484,-4.80626 1.39859,-6.99425 0.31879,-2.54788 0.3179,-134.1943 0,-136.35134 -0.29138,-1.97141 -1.06242,-5.67698 -1.26706,-6.08934 -0.0867,-0.17463 -0.47026,-0.98425 -0.85244,-1.79917 -0.91136,-1.94314 -2.36701,-3.37696 -4.42644,-4.36001 -1.66573,-0.79512 -2.09751,-0.9383 -5.18584,-1.71967 l -1.905,-0.48198 h -50.27083 -50.27083 l -2.01084,0.49051 c -5.6232,1.37168 -8.06465,2.94934 -9.59603,6.20092 -0.88363,1.87615 -1.06725,2.44751 -1.62014,5.04113 -0.42132,1.97635 -0.42549,2.6811 -0.42549,71.91671 v 69.92081 l 0.54174,2.27246 c 1.06091,4.45028 2.76303,6.88528 5.87006,8.39749 0.90712,0.4415 1.95487,0.88044 2.32834,0.97541 0.37346,0.095 1.2029,0.32104 1.84319,0.50236 0.64029,0.18132 1.87854,0.3363 2.75167,0.34439 0.87312,0.008 1.9685,0.0942 2.43416,0.19144 1.2046,0.25144 95.08287,0.1055 98.1075,-0.15252 z m -44.87333,-18.67533 c -19.68187,-0.1808 -20.97714,-0.25934 -24.33153,-1.4754 -2.02876,-0.73549 -2.45277,-0.98264 -3.77188,-2.19854 -1.8099,-1.6683 -2.41082,-2.85074 -3.18869,-6.27434 -0.53097,-2.33689 -0.67825,-5.77738 -0.8835,-20.6375 -0.10882,-7.87818 -0.25247,-12.43226 -0.41398,-13.12333 -0.8702,-3.72356 -1.30094,-4.69044 -2.62547,-5.89324 -1.13309,-1.02897 -4.30458,-2.89093 -4.9241,-2.89093 -0.38441,0 -5.34234,-2.66583 -6.29341,-3.38389 -1.12431,-0.84886 -2.11169,-2.08356 -2.71051,-3.38944 -1.3549,-2.95467 -1.69482,-9.68537 -1.64087,-32.49084 0.0565,-23.87512 0.2427,-26.48707 2.16461,-30.36341 1.55243,-3.13108 5.02946,-5.44884 8.93183,-5.95388 5.54577,-0.71772 9.50857,-0.81155 34.29,-0.81192 24.57329,-4.2e-4 29.65647,0.11593 35.06002,0.80206 3.94979,0.50153 7.19381,2.63896 8.54704,5.63146 0.88384,1.95446 1.51566,4.74957 1.72339,7.62402 0.21918,3.03289 0.22092,97.18664 0.002,100.64751 -0.15613,2.46661 -0.63936,5.09162 -1.30535,7.09083 -0.82736,2.48369 -2.57785,4.51195 -4.91103,5.69037 -2.82501,1.42682 -7.89982,1.63759 -33.71841,1.40041 z m 29.31583,-7.6983 c 0.80525,-0.20781 1.43788,-0.52141 1.72875,-0.85698 0.62454,-0.72052 1.15854,-2.59766 1.3898,-4.8855 0.1059,-1.04775 0.24166,-22.14563 0.30171,-46.88417 0.11299,-46.56664 0.009,-55.17538 -0.69329,-57.33971 -0.60338,-1.85981 -0.77085,-2.14469 -1.43089,-2.43411 -2.85278,-1.25093 -4.04594,-1.293 -36.43274,-1.28462 -32.71616,0.009 -31.8323,-0.0318 -35.34893,1.60945 -0.86428,0.40337 -1.50442,2.29358 -1.99722,5.89732 -0.2971,2.17264 -0.30008,37.57179 -0.004,44.34417 0.28452,6.50196 0.45762,7.25104 1.87166,8.09895 0.5371,0.32208 1.21469,0.69414 1.50573,0.82681 3.21122,1.46382 6.31569,3.07994 7.57174,3.94169 3.13421,2.15031 5.53168,5.41592 6.24828,8.51089 0.88669,3.82962 0.97986,5.37771 1.21014,20.10833 0.12376,7.91633 0.32103,14.86958 0.43838,15.45167 0.52493,2.60363 1.15828,3.91583 1.89006,3.91583 0.21803,0 0.44524,0.079 0.50488,0.17549 0.10535,0.17047 1.47282,0.51038 3.19736,0.79477 1.97868,0.32629 11.10111,0.45421 28.36333,0.39772 15.79965,-0.0517 18.59536,-0.10681 19.685,-0.388 z m 125.62417,33.93368 c -0.64029,-0.0884 -2.06904,-0.25891 -3.175,-0.37887 -1.10595,-0.11996 -2.5347,-0.42054 -3.175,-0.66795 -0.64029,-0.24742 -1.64041,-0.60643 -2.2225,-0.79782 -1.24815,-0.41037 -2.85299,-1.39211 -4.77877,-2.92335 -3.28858,-2.61484 -5.94261,-7.01279 -6.67201,-11.05615 -0.0774,-0.42919 -0.23732,-0.96665 -0.35535,-1.19434 -0.118,-0.2277 -0.30783,-1.27545 -0.42183,-2.32834 -0.12632,-1.16692 -0.26742,-25.38457 -0.36138,-62.02767 -0.10179,-39.70491 -0.22815,-60.50857 -0.37219,-61.27751 -0.43608,-2.32798 -1.0429,-3.59833 -1.7189,-3.59833 -0.21074,0 -0.44846,-0.0653 -0.52824,-0.14506 -0.69022,-0.69023 -1.71122,-0.74858 -16.01216,-0.91508 -14.75645,-0.17181 -15.81258,-0.23426 -19.47945,-1.15172 -1.37518,-0.34408 -1.94818,-0.55389 -2.98988,-1.09476 -0.30901,-0.16044 -0.6714,-0.29171 -0.80537,-0.29171 -0.37281,0 -2.7404,-1.66201 -3.90516,-2.74135 -1.9634,-1.81941 -4.14681,-5.80634 -4.14681,-7.57212 0,-0.32459 -0.0987,-0.92291 -0.21928,-1.3296 -0.55284,-1.86426 -0.0827,-6.9472 0.88095,-9.5236 0.71933,-1.92326 3.4348,-5.16396 5.47667,-6.53598 1.27721,-0.85821 3.85009,-2.14235 4.29238,-2.14235 0.15378,0 0.3701,-0.0811 0.4807,-0.1802 0.57408,-0.51444 3.11609,-0.91616 6.92897,-1.095 5.14924,-0.24152 94.82775,-0.24082 100.79878,8.5e-4 4.91734,0.19897 7.9193,0.71149 9.78707,1.6709 0.2051,0.10536 0.75393,0.36882 1.2196,0.58545 2.76231,1.28507 5.27456,3.75109 6.43907,6.32055 0.15828,0.34925 0.41709,0.92075 0.57514,1.27 1.25036,2.76308 1.2504,10.81324 6e-5,13.54667 -1.34662,2.94396 -2.45055,4.45907 -4.31726,5.92535 -1.16615,0.91601 -1.52097,1.11515 -3.64951,2.04826 -0.52388,0.22965 -1.1096,0.5008 -1.30162,0.60255 -0.3418,0.18112 -3.58458,0.76042 -7.16505,1.27999 -1.20239,0.17448 -6.78392,0.31015 -16.8275,0.40902 -12.44975,0.12256 -15.16384,0.20122 -15.81812,0.45841 -0.43441,0.17075 -0.8551,0.37574 -0.93487,0.45552 -0.0798,0.0798 -0.31191,0.14507 -0.51586,0.14507 -0.60945,0 -1.26612,1.36172 -1.80371,3.74022 -0.4949,2.18957 -0.50661,2.46858 -0.50661,12.06584 0,13.06401 0.0284,13.18386 3.53469,14.88788 1.02455,0.49793 2.02821,0.98686 2.23035,1.08652 0.20217,0.0997 0.46599,0.18121 0.5863,0.18121 0.12031,0 0.59597,0.23812 1.057,0.52916 0.46103,0.29104 0.94145,0.52917 1.06758,0.52917 0.35581,0 4.25088,2.83566 4.98632,3.63011 2.24627,2.42651 3.42235,5.08398 4.24813,9.59906 0.36593,2.00067 0.38713,4.23353 0.38713,40.74583 0,35.50726 -0.0291,38.77457 -0.35977,40.42833 -0.19786,0.98955 -0.41869,2.16808 -0.49072,2.61898 -0.072,0.45089 -0.21413,0.97477 -0.31575,1.16417 -0.10162,0.18939 -0.35242,0.91585 -0.55729,1.61435 -1.13513,3.86975 -4.23122,7.73931 -8.08772,10.10819 -1.08877,0.66879 -2.09684,1.21598 -2.24014,1.21598 -0.14329,0 -0.32076,0.0602 -0.39435,0.13381 -0.41762,0.41762 -3.8848,1.3904 -5.54592,1.55601 -1.04775,0.10445 -2.57175,0.28774 -3.38667,0.40729 -1.67758,0.24612 -7.65869,0.25133 -9.41917,0.008 z m 10.70024,-7.55856 c 3.47563,-0.38434 6.96627,-2.00935 8.92876,-4.15661 1.11794,-1.2232 2.30714,-3.48167 2.85312,-5.41849 1.04476,-3.70615 1.01293,-2.38438 1.01227,-42.03409 0,-35.84332 -0.0138,-37.101 -0.41677,-39.45758 -0.45934,-2.6865 -0.71952,-3.53157 -1.44818,-4.70346 -0.62806,-1.01009 -2.23488,-2.43885 -3.32027,-2.95231 -0.46567,-0.22029 -0.98954,-0.48493 -1.16417,-0.5881 -0.17462,-0.10316 -0.6985,-0.34779 -1.16416,-0.54362 -3.84116,-1.61535 -5.09641,-2.30606 -6.6979,-3.68555 -1.70605,-1.46957 -2.69907,-3.27876 -3.43562,-6.25946 -0.44808,-1.81328 -0.61477,-10.33859 -0.3704,-18.94417 0.1868,-6.57847 0.24043,-7.23695 0.74232,-9.11303 0.69661,-2.60398 0.97117,-3.23247 2.02668,-4.63949 0.88604,-1.18107 2.84967,-2.70984 4.08545,-3.18069 0.37738,-0.14378 1.00425,-0.40165 1.39306,-0.57305 1.38108,-0.60882 4.12561,-0.73846 18.87224,-0.89141 10.49397,-0.10885 15.14194,-0.22861 15.66194,-0.40355 0.40669,-0.13683 1.13896,-0.24878 1.62727,-0.24878 2.42549,0 5.62866,-1.15318 7.05079,-2.53836 1.70491,-1.66065 2.4707,-4.09902 2.27444,-7.24223 -0.13314,-2.13255 -0.5715,-3.60132 -1.48099,-4.96219 -0.82829,-1.23938 -2.69424,-2.25921 -5.58404,-3.05196 l -1.87524,-0.51442 h -52.81084 -52.81083 l -1.37583,0.45421 c -4.65225,1.53588 -6.30206,3.03288 -7.19644,6.52991 -0.5153,2.01482 -0.52131,2.3292 -0.0828,4.34004 0.44308,2.03183 0.80655,2.7714 2.02211,4.11443 1.42052,1.56948 2.62793,2.10988 6.95046,3.1108 0.83551,0.19347 4.95861,0.3129 14.605,0.42306 7.39246,0.0844 14.25046,0.23732 15.24,0.33977 4.28297,0.44345 7.39208,2.04778 9.08689,4.68893 0.60977,0.95024 1.19285,2.76625 1.91027,5.94968 0.20282,0.89992 0.30772,15.02485 0.46218,62.23 l 0.19983,61.06584 0.65314,2.50298 c 0.35922,1.37664 0.84457,2.90064 1.07855,3.38667 0.69992,1.45397 2.21134,3.43055 3.06235,4.00483 2.83879,1.91573 4.81904,2.67557 7.592,2.91315 1.11313,0.0954 2.08538,0.2349 2.16052,0.31005 0.18976,0.18976 7.35034,-0.004 9.68284,-0.26175 z m 141.91143,7.54766 c -0.64029,-0.0959 -2.06904,-0.26632 -3.175,-0.3788 -1.10595,-0.11248 -2.5347,-0.40756 -3.175,-0.65574 -0.64029,-0.24818 -1.64041,-0.60781 -2.2225,-0.7992 -1.63772,-0.53845 -3.70001,-1.91677 -6.07684,-4.06138 -1.13593,-1.02498 -3.30168,-4.11187 -3.9921,-5.69008 -0.23742,-0.5427 -0.51856,-1.17723 -0.62477,-1.41006 -0.1062,-0.23283 -0.50024,-1.66158 -0.87563,-3.175 l -0.68256,-2.75167 -0.13546,-60.85416 c -0.0956,-42.93331 -0.20354,-61.10351 -0.36661,-61.70084 -0.12713,-0.46567 -0.34857,-1.53527 -0.49213,-2.3769 -0.27046,-1.58579 -0.75247,-2.3856 -1.4377,-2.3856 -0.20889,0 -0.44509,-0.0653 -0.52487,-0.14506 -0.69223,-0.69223 -1.7015,-0.74967 -16.01216,-0.91131 -14.85834,-0.16781 -15.65794,-0.21619 -19.57917,-1.18457 -1.42777,-0.3526 -1.49822,-0.38012 -3.72067,-1.45379 -2.72439,-1.31615 -5.39924,-3.90201 -6.61753,-6.39735 -0.33083,-0.67765 -0.69317,-1.4057 -0.80516,-1.6179 -0.49176,-0.93175 -1.02747,-4.33281 -1.02747,-6.52314 0,-2.15403 0.50791,-5.23943 1.03166,-6.267 0.10391,-0.20389 0.31528,-0.65646 0.46969,-1.00571 0.73038,-1.65199 3.1347,-4.48721 4.74282,-5.59281 0.46566,-0.32016 1.37054,-0.84647 2.01083,-1.16959 0.64029,-0.32311 1.332,-0.67359 1.5371,-0.77883 0.50362,-0.25839 1.89787,-0.71704 3.43707,-1.13066 0.7661,-0.20586 2.86567,-0.41821 5.29166,-0.5352 5.07679,-0.2448 94.79968,-0.24921 100.64751,-0.005 4.41185,0.18429 6.51732,0.49969 8.67833,1.30002 0.64029,0.23713 1.35467,0.48627 1.5875,0.55364 0.23283,0.0674 1.13771,0.57892 2.01083,1.13678 3.23232,2.06518 5.38127,4.96582 6.25579,8.44409 0.30781,1.22422 0.39952,2.36249 0.40077,4.97417 0.002,4.11697 -0.32434,5.73465 -1.72013,8.52693 -0.77104,1.54249 -1.27991,2.2436 -2.36542,3.25905 -1.46649,1.37183 -3.70273,2.92485 -4.21157,2.92485 -0.16773,0 -0.60539,0.15648 -0.97261,0.34772 -0.36722,0.19125 -0.82476,0.4242 -1.01678,0.51767 -0.34657,0.16869 -3.71323,0.76338 -7.16505,1.26563 -1.21441,0.1767 -6.68358,0.30558 -16.8275,0.39652 -11.94393,0.10708 -15.15866,0.19345 -15.66333,0.42084 -0.34925,0.15736 -0.92577,0.41115 -1.28118,0.56399 -0.86868,0.37356 -1.25743,0.85022 -1.65091,2.02425 -0.94641,2.82374 -0.98379,3.35262 -0.98256,13.89693 0,6.67776 0.0799,10.3805 0.23383,10.94062 0.44304,1.61241 1.24183,2.972 1.94919,3.31769 0.96677,0.47246 3.13127,1.45753 3.68954,1.67911 1.20593,0.47865 1.78457,0.77634 3.83926,1.97522 1.71128,0.99849 2.56245,1.67134 3.83866,3.03441 2.34274,2.50222 3.36247,4.75114 4.1486,9.1494 0.37901,2.12058 0.39723,4.00366 0.39723,41.06333 v 38.84084 l -0.47362,2.54 c -0.2605,1.397 -0.65242,3.01625 -0.87097,3.59833 -1.35744,3.61573 -1.42608,3.76299 -2.4174,5.18583 -1.27485,1.82979 -2.85407,3.50026 -4.50323,4.76342 -0.8353,0.63979 -1.58142,1.16325 -1.65805,1.16325 -0.0766,0 -0.4946,0.21964 -0.92885,0.48808 -0.43424,0.26845 -1.26579,0.64352 -1.84788,0.8335 -0.58208,0.18998 -1.5822,0.54889 -2.2225,0.79759 -0.64029,0.2487 -2.02141,0.5347 -3.06916,0.63554 -1.04775,0.10085 -2.57175,0.28118 -3.38667,0.40073 -1.72392,0.25292 -7.72342,0.25121 -9.41917,-0.003 z m 10.795,-7.55412 c 4.79485,-0.50644 8.8282,-3.05994 10.54905,-6.67857 1.08485,-2.28127 1.22305,-2.67872 1.66738,-4.79507 0.35456,-1.68879 0.37774,-4.16247 0.37774,-40.3225 0,-36.35921 -0.0215,-38.62301 -0.38257,-40.29773 -0.39715,-1.84207 -0.97616,-3.29776 -1.72256,-4.33075 -0.76915,-1.06445 -3.06648,-2.51844 -5.72654,-3.62436 -3.11313,-1.2943 -5.33594,-2.60108 -6.61394,-3.88832 -1.84032,-1.8536 -2.23298,-2.63708 -3.13834,-6.26195 l -0.52447,-2.09978 0.063,-10.91772 c 0.0656,-11.36297 0.0703,-11.42947 1.05237,-14.93939 0.69949,-2.4999 1.02279,-3.20891 2.04521,-4.48514 1.77537,-2.21611 4.61319,-3.69205 7.96281,-4.14143 0.81492,-0.10933 8.14917,-0.26722 16.29833,-0.35087 10.49069,-0.10768 15.03257,-0.22527 15.55611,-0.40274 0.40669,-0.13786 1.13864,-0.25066 1.62657,-0.25066 1.5407,0 3.92746,-0.61785 5.57149,-1.44227 1.31195,-0.65789 1.71973,-0.99257 2.34933,-1.9282 1.69969,-2.5258 1.97826,-7.72347 0.55872,-10.42414 -1.08915,-2.07208 -2.36119,-2.88999 -6.29471,-4.04743 l -1.5875,-0.46712 h -52.81084 c -50.83016,0 -52.85846,0.0147 -54.08083,0.39249 -4.20432,1.29936 -5.8335,2.47218 -7.09956,5.11084 -0.45464,0.94752 -0.50829,1.34644 -0.5124,3.81 -0.004,2.67914 0.0136,2.78887 0.68415,4.16309 1.12414,2.30373 3.08675,3.79542 5.91212,4.49351 3.33606,0.82427 3.66048,0.84316 16.99652,0.98956 7.27604,0.0799 14.14452,0.23988 15.26326,0.35559 5.50437,0.56927 8.91377,2.9309 10.13079,7.01744 1.21478,4.07902 1.12584,-0.43031 1.28863,65.31915 0.10325,41.70228 0.22043,60.7824 0.37958,61.80666 0.78395,5.04499 2.88944,8.76827 5.98407,10.58198 1.76941,1.03703 4.75649,2.00752 6.25829,2.03329 0.67625,0.0116 1.46767,0.10101 1.75871,0.19868 0.63418,0.21281 7.625,0.0916 10.16,-0.17614 z m -1006.05169,6.18363 c -5.75757,-0.47077 -9.61711,-1.66815 -12.75565,-3.95731 -3.53967,-2.58174 -5.98831,-6.70013 -6.72483,-11.31055 -0.1233,-0.77182 -0.27025,-1.47787 -0.32656,-1.56898 -0.0563,-0.0911 -0.24043,-1.90842 -0.40915,-4.03846 -0.45711,-5.77074 -0.4577,-129.78446 -6.4e-4,-135.63531 0.5699,-7.29547 1.64221,-10.93137 4.22443,-14.32382 2.98871,-3.92651 7.05104,-6.00404 14.0874,-7.2045 2.08098,-0.35503 4.70256,-0.37918 41.16917,-0.37918 h 38.94667 l 1.905,0.47996 c 3.50971,0.88426 4.83516,1.46373 6.92003,3.02537 3.57966,2.68131 5.37483,6.76634 5.34281,12.15801 -0.0417,7.01869 -3.22923,11.54821 -9.52408,13.53372 -3.29553,1.03947 -2.82957,1.0241 -35.33543,1.16549 l -30.48,0.13258 -1.67289,0.46833 c -4.10001,1.14781 -4.90402,3.16473 -5.44569,13.66096 -0.20691,4.00945 -0.20609,6.04793 0.004,9.94833 0.48705,9.04122 1.15716,10.36419 5.77854,11.40825 1.93589,0.43736 2.50482,0.44777 31.92186,0.58447 29.59879,0.13753 29.9791,0.14459 32.35588,0.60029 2.77649,0.53234 3.87276,0.87573 5.63828,1.76613 2.21424,1.11669 3.66697,2.41379 4.98182,4.44812 2.74432,4.246 2.72202,12.54611 -0.0448,16.68952 -1.7748,2.65779 -4.65772,4.60042 -8.11197,5.46618 -4.09436,1.02619 -5.62071,1.09002 -26.10733,1.09173 -19.16362,0.002 -20.31266,0.0394 -23.39673,0.77049 -2.68339,0.63608 -3.71406,2.20801 -4.50202,6.86634 -0.28891,1.70803 -0.36122,5.78388 -0.50659,28.55657 -0.0933,14.61029 -0.2604,27.23092 -0.37139,28.04583 -1.04835,7.69705 -4.17079,12.65864 -9.68748,15.3935 -3.21236,1.5925 -5.88559,2.06821 -12.15763,2.16348 -2.61937,0.0398 -5.19112,0.0373 -5.715,-0.006 z m 10.37167,-7.51606 c 0.75671,-0.10675 2.22756,-0.50337 3.26855,-0.8814 1.49183,-0.54173 2.14494,-0.91995 3.08352,-1.78565 1.38524,-1.27769 2.51007,-3.37069 3.04989,-5.67499 0.1909,-0.81492 0.40776,-1.67217 0.4819,-1.905 0.0741,-0.23284 0.20034,-12.52009 0.28044,-27.305 0.13885,-25.62806 0.16581,-27.00999 0.57793,-29.63334 0.90536,-5.76297 1.71027,-7.7344 4.15777,-10.18344 2.19819,-2.19957 4.09541,-3.04007 8.64777,-3.83113 1.6653,-0.28937 5.09121,-0.36245 22.91307,-0.48878 14.65117,-0.10385 21.33705,-0.22351 22.225,-0.39776 1.72782,-0.33908 3.45298,-1.00137 4.31182,-1.65533 2.02381,-1.54101 2.56543,-6.65916 1.03043,-9.7372 -0.3971,-0.79629 -0.74457,-1.12186 -1.83727,-1.72146 -0.74115,-0.4067 -2.0711,-0.92973 -2.95543,-1.1623 -1.55675,-0.40939 -2.5503,-0.42752 -31.24122,-0.56994 -19.69753,-0.0978 -30.16561,-0.22519 -31.22084,-0.38003 -0.87312,-0.12812 -2.15089,-0.32887 -2.83949,-0.44612 -5.47229,-0.93178 -8.98693,-3.79328 -10.41435,-8.47901 -0.15958,-0.52387 -0.50364,-2.00025 -0.76456,-3.28083 -0.45002,-2.20866 -0.47457,-2.82337 -0.47758,-11.95917 -0.003,-8.3819 0.0469,-9.91905 0.38331,-11.85333 1.03039,-5.92518 1.87879,-7.95036 4.34562,-10.37321 1.90604,-1.87206 3.48159,-2.71051 6.27455,-3.3391 3.88347,-0.87403 4.5748,-0.89263 33.24266,-0.8945 27.45987,-0.002 31.408,-0.0868 33.54849,-0.72248 2.26164,-0.67164 3.25427,-1.45642 4.03683,-3.19155 0.40999,-0.90906 0.47731,-1.41657 0.47731,-3.59833 0,-2.71974 -0.29109,-3.78414 -1.45059,-5.30433 -0.66685,-0.87428 -2.65923,-1.90208 -4.80189,-2.47712 l -1.76447,-0.47355 h -37.67667 c -35.296,0 -37.8235,0.0241 -40.00048,0.38142 -2.47439,0.40615 -4.79811,1.10383 -6.41954,1.92743 -2.75402,1.39891 -4.31231,3.87708 -5.29806,8.42562 l -0.56359,2.60053 v 69.00334 69.00333 l 0.49593,2.32833 c 0.53403,2.50725 1.67569,5.23893 2.68928,6.43468 1.21813,1.43705 3.76079,2.70264 6.65729,3.31362 3.14227,0.66281 9.87216,0.80544 13.54667,0.28708 z"
       id="path248" /></g></svg>
