<?xml version="1.0" encoding="UTF-8" standalone="no"?>
<!-- Created with Inkscape (http://www.inkscape.org/) -->

<svg
   width="488.29932mm"
   height="62.823547mm"
   viewBox="0 0 488.29932 62.823548"
   version="1.1"
   id="svg5"
   xml:space="preserve"
   inkscape:version="1.2.2 (732a01da63, 2022-12-09)"
   sodipodi:docname="Data General User's Group - Trace Bitmap.svg"
   xmlns:inkscape="http://www.inkscape.org/namespaces/inkscape"
   xmlns:sodipodi="http://sodipodi.sourceforge.net/DTD/sodipodi-0.dtd"
   xmlns="http://www.w3.org/2000/svg"
   xmlns:svg="http://www.w3.org/2000/svg"><sodipodi:namedview
     id="namedview7"
     pagecolor="#ffffff"
     bordercolor="#000000"
     borderopacity="0.25"
     inkscape:showpageshadow="2"
     inkscape:pageopacity="0.0"
     inkscape:pagecheckerboard="0"
     inkscape:deskcolor="#d1d1d1"
     inkscape:document-units="mm"
     showgrid="false"
     inkscape:zoom="0.25323113"
     inkscape:cx="862.84811"
     inkscape:cy="163.88191"
     inkscape:window-width="1920"
     inkscape:window-height="991"
     inkscape:window-x="-9"
     inkscape:window-y="-9"
     inkscape:window-maximized="1"
     inkscape:current-layer="layer1" /><defs
     id="defs2" /><g
     inkscape:label="Layer 1"
     inkscape:groupmode="layer"
     id="layer1"
     transform="translate(-972.57008,-195.01768)"><path
       style="fill:#000000;stroke-width:1"
       d="m 1247.7201,257.73223 c -11.8624,-1.27946 -20.6419,-7.98598 -24.4024,-18.64071 -2.5069,-7.10257 -2.6019,-16.72481 -0.2367,-23.96973 2.437,-7.46467 7.9362,-13.96349 14.6908,-17.36098 3.8953,-1.95929 7.0313,-2.7334 11.1125,-2.74304 4.4161,-0.0104 7.8275,0.87139 11.5358,2.98191 l 2.1167,1.20466 h 2.0092 2.0093 l 0.28,2.64584 c 0.273,2.58025 0.2229,8.69662 -0.088,10.73055 -0.1124,0.73558 -0.2415,0.92496 -0.7523,1.103 -1.1491,0.40058 -2.3814,-0.40208 -3.2565,-2.12115 -0.2735,-0.53722 -0.7478,-1.96597 -1.0538,-3.175 -0.7108,-2.80746 -1.3234,-3.91375 -3.0897,-5.57997 -3.4026,-3.20992 -9.3099,-4.77336 -13.1489,-3.48008 -5.2668,1.77425 -9.8852,7.12826 -12.2005,14.14382 -2.2944,6.95202 -2.5556,16.77007 -0.6448,24.23574 1.9113,7.46747 6.6704,13.08011 12.791,15.08502 1.3446,0.44047 2.2429,0.5751 4.3625,0.65382 3.3374,0.12394 5.254,-0.18193 7.1811,-1.14604 2.292,-1.14661 3.6215,-3.04817 4.5648,-6.52888 0.4834,-1.78371 0.5426,-5.37799 0.1159,-7.03767 -0.4375,-1.70167 -1.6979,-3.48198 -3.1393,-4.43418 -1.1737,-0.77536 -1.2347,-0.85929 -1.2949,-1.78201 l -0.063,-0.96833 2.709,-0.18022 c 3.5438,-0.23575 6.9671,-0.24555 9.0061,-0.0258 l 1.6404,0.17681 v 3.10402 c 2e-4,1.70722 -0.1114,4.36703 -0.2479,5.9107 -0.4025,4.55262 0.2295,6.73682 2.5059,8.66003 2.1361,1.80473 2.2422,1.93538 2.0846,2.56687 -0.2112,0.84633 -0.5539,1.13753 -2.5945,2.20442 -3.3558,1.75455 -7.2551,2.8367 -12.3825,3.43649 -3.355,0.39245 -9.8914,0.57046 -12.1201,0.33007 z m -97.1154,-0.44895 c -1.5794,-0.22619 -3.231,-1.12797 -3.9943,-2.18092 -0.3304,-0.45575 -0.8111,-1.45588 -1.0683,-2.2225 l -0.4676,-1.39385 -0.071,-12.748 -0.071,-12.748 -0.7817,-0.19654 c -0.43,-0.10809 -1.2818,-0.31031 -1.893,-0.44936 l -1.1112,-0.25282 v -1.53909 -1.53909 l 1.8897,-0.14783 1.8897,-0.14783 0.1239,-1.30822 c 0.068,-0.71952 0.2735,-3.64184 0.4563,-6.49405 0.1828,-2.85221 0.3482,-5.20153 0.3676,-5.22071 0.019,-0.0192 1.4878,-0.10394 3.2632,-0.18833 l 3.2279,-0.15345 v 6.69708 6.69707 h 3.9158 3.9159 v 1.905 1.905 h -3.9159 -3.9158 v 11.61506 c 0,12.51136 0.022,12.78334 1.1184,13.95778 1.1728,1.25608 3.2868,1.51475 5.65,0.69133 l 1.3709,-0.47767 0.4812,0.55939 c 0.5716,0.66458 0.5939,0.97509 0.1385,1.93465 -1.1438,2.41045 -6.1948,4.06514 -10.5186,3.4459 z m 141.0081,0.004 c -7.933,-0.82302 -13.856,-6.13108 -15.448,-13.8441 -0.5475,-2.65257 -0.5333,-6.41231 0.033,-8.77537 1.7175,-7.16459 7.8315,-12.89645 14.6829,-13.76512 2.0292,-0.25728 4.9964,0.0583 7.0722,0.75219 4.3757,1.46264 7.9272,5.08102 9.5943,9.77501 0.4466,1.2573 0.8394,6.19203 0.4929,6.19203 -0.093,0 -1.6061,0.15563 -3.3628,0.34585 -3.2458,0.35145 -13.1441,0.51036 -18.0107,0.28915 l -2.3284,-0.10583 0.01,2.96333 c 0.01,2.50896 0.081,3.18823 0.4913,4.43003 0.9223,2.79047 2.2358,4.65596 4.1931,5.95514 1.9365,1.28534 3.3462,1.62932 6.2099,1.51525 3.9596,-0.15773 6.8105,-1.32579 9.5549,-3.9147 1.3445,-1.2683 1.4999,-1.35631 2.1722,-1.23018 0.5491,0.10302 0.7755,0.28333 0.9369,0.7463 0.3212,0.92134 -0.3829,2.14976 -2.3849,4.16102 -1.3985,1.40502 -2.0696,1.89273 -3.7174,2.70175 -3.2285,1.58504 -6.5897,2.18159 -10.1882,1.80825 z m 8.2081,-23.96472 c 0.2676,-0.26763 -0.3713,-3.22974 -0.9775,-4.53208 -0.7177,-1.5416 -2.2873,-3.30476 -3.4869,-3.91672 -1.0331,-0.52706 -3.09,-0.71741 -4.278,-0.3959 -2.7825,0.75302 -5.19,4.08283 -5.707,7.89331 l -0.1348,0.99341 1.1384,0.0925 c 1.7202,0.1397 13.2873,0.024 13.4458,-0.13448 z m 65.1566,23.98136 c -0.8181,-0.0865 -2.2388,-0.3633 -3.157,-0.61521 -6.0036,-1.64706 -10.4915,-6.26304 -12.1149,-12.46068 -0.7087,-2.70552 -0.7987,-6.89711 -0.2029,-9.44767 1.2864,-5.50627 4.7134,-9.9241 9.5966,-12.37127 4.3018,-2.15583 9.8147,-2.10932 14.0969,0.11893 2.2835,1.18819 5.0221,4.0178 6.3426,6.55311 1.2275,2.35691 1.8488,4.6604 1.8488,6.85405 v 1.6322 l -1.0054,0.12927 c -4.8763,0.62696 -15.7167,0.89197 -20.6222,0.50416 -1.9501,-0.15417 -2.0551,-0.14115 -2.1859,0.27094 -0.2681,0.84476 -0.1291,5.1623 0.2078,6.45267 0.8763,3.35686 2.8788,5.8803 5.7507,7.24675 1.5361,0.73089 1.8333,0.79696 3.9088,0.86914 4.1748,0.14518 7.4522,-1.06205 10.1336,-3.73272 1.718,-1.71111 2.1776,-1.88054 3.1446,-1.15928 0.8108,0.60477 0.8002,1.00639 -0.061,2.30304 -1.9738,2.97273 -4.7743,5.04368 -8.3912,6.20523 -1.1342,0.36421 -4.8567,0.91657 -5.5909,0.8296 -0.1164,-0.0138 -0.8811,-0.0958 -1.6993,-0.18226 z m 8.0894,-23.99073 c 0.2763,-0.2763 -0.3616,-3.15317 -0.992,-4.47414 -0.7504,-1.57222 -2.3514,-3.25886 -3.7446,-3.94481 -1.4065,-0.6925 -3.9997,-0.70942 -5.2712,-0.0344 -2.0618,1.09461 -3.9182,3.83944 -4.625,6.83863 -0.178,0.75494 -0.325,1.4393 -0.3267,1.52081 0,0.0815 0.5446,0.18869 1.214,0.23821 1.9357,0.14318 13.5803,0.0209 13.7455,-0.1443 z m -314.6572,23.54654 c -1.9068,-0.0947 -3.5107,-0.2159 -3.5642,-0.26934 -0.053,-0.0534 -0.1853,-0.48936 -0.293,-0.96872 -0.2739,-1.21936 -0.012,-1.57409 1.7734,-2.40543 1.7699,-0.82395 2.6338,-1.60924 2.8026,-2.54762 0.066,-0.36531 0.092,-11.57454 0.058,-24.90941 -0.07,-27.63743 0.1476,-24.90507 -2.0722,-26.02562 -1.5407,-0.77776 -1.984,-1.3744 -1.7899,-2.40912 0.078,-0.41294 0.2576,-0.84773 0.4004,-0.9662 0.4169,-0.34604 13.0653,-0.91767 17.582,-0.79461 10.1425,0.27633 17.3993,2.94418 23.4795,8.63192 2.8392,2.65598 5.4727,6.85022 6.7673,10.77801 1.7838,5.41172 2.2408,13.32447 1.0863,18.8059 -2.5556,12.1336 -11.7258,20.23913 -25.5123,22.55048 -4.5349,0.76029 -12.1527,0.95508 -20.7179,0.52976 z m 20.9401,-5.38821 c 4.0783,-0.77365 7.1562,-2.40512 9.8697,-5.23153 3.4762,-3.62094 5.009,-7.89701 5.5998,-15.62217 0.279,-3.64788 0.05,-8.64791 -0.5561,-12.15173 -1.3609,-7.86572 -4.9598,-13.56738 -10.1614,-16.09853 -4.0676,-1.97932 -10.8976,-2.77471 -14.8167,-1.72549 l -1.0583,0.28334 -0.054,25.006 -0.054,25.00601 0.6888,0.11649 c 0.3788,0.0641 1.4508,0.24859 2.3821,0.41002 2.3406,0.40572 6.0427,0.40916 8.1597,0.008 z m 35.4208,5.22258 c -3.5057,-0.86211 -6.3718,-2.85274 -7.7109,-5.35562 -0.6322,-1.1817 -0.7239,-1.56125 -0.8029,-3.3235 -0.1481,-3.30636 0.6138,-5.63862 2.5255,-7.73024 1.9218,-2.10276 4.377,-3.37667 8.7628,-4.54675 3.5766,-0.95416 5.5129,-1.31196 7.9375,-1.46672 l 2.2225,-0.14185 v -2.96333 c 0,-2.83468 -0.025,-3.00533 -0.5687,-3.93069 -0.5961,-1.01401 -1.6068,-1.83156 -3.0296,-2.45059 -1.2139,-0.52816 -4.3987,-0.53283 -5.3607,-0.008 -0.705,0.38471 -1.7235,2.1282 -1.7281,2.958 0,0.5412 -0.7212,1.86921 -1.3044,2.41163 -0.7094,0.65991 -1.5141,0.91384 -2.8918,0.9126 -1.7716,-0.002 -3.2271,-1.00856 -3.8586,-2.66944 -0.5304,-1.39503 0.8576,-3.74255 3.1317,-5.29687 2.556,-1.74694 6.768,-2.57893 11.1202,-2.19656 5.153,0.45273 8.4495,2.11019 10.2885,5.17304 1.368,2.27826 1.4962,3.16383 1.7177,11.87008 0.3332,13.09474 0.2681,12.62526 1.9054,13.7602 0.7738,0.53639 1.1246,0.63631 2.2956,0.6539 1.5754,0.0237 1.9777,0.35737 1.9777,1.64071 0,1.55096 -1.3436,2.41597 -4.5175,2.90842 -2.7761,0.43072 -4.2504,-0.15997 -6.3102,-2.52811 -1.3632,-1.56736 -2.0709,-1.71803 -3.0872,-0.65726 -1.5572,1.62539 -4.2129,2.75229 -7.4102,3.14441 -2.5055,0.30727 -3.5013,0.2758 -5.3043,-0.1676 z m 8.8644,-4.75168 c 1.4657,-0.71714 3.1514,-2.51095 3.6539,-3.8884 0.2931,-0.80339 0.3903,-1.94629 0.4697,-5.52492 l 0.1001,-4.51199 -0.7118,0.11955 c -0.3915,0.0657 -1.6608,0.26602 -2.8208,0.44505 -5.5589,0.85798 -8.6019,2.58807 -9.5447,5.42663 -0.4211,1.26771 -0.4605,3.73594 -0.08,5.00597 0.3908,1.30456 1.6797,2.67566 3.0099,3.20197 1.6317,0.6456 4.2961,0.52242 5.9237,-0.27386 z m 50.6368,4.85615 c -2.7164,-0.62233 -5.5406,-2.1269 -6.9011,-3.67648 -0.3715,-0.42311 -0.971,-1.39292 -1.3322,-2.15514 -0.6169,-1.30182 -0.6554,-1.52706 -0.6358,-3.71419 0.016,-1.81756 0.121,-2.60319 0.4772,-3.58125 0.9049,-2.4848 2.4675,-4.30736 4.9872,-5.81664 2.5673,-1.53774 9.2208,-3.31415 13.3001,-3.55095 l 2.2754,-0.13208 v -2.8648 c 0,-2.46356 -0.061,-2.99143 -0.4377,-3.76899 -0.8567,-1.76975 -2.8654,-3.01442 -5.1585,-3.19648 -2.646,-0.21008 -3.9172,0.62861 -4.5809,3.02224 -0.7133,2.57223 -2.0783,3.68355 -4.5337,3.69101 -1.5397,0.005 -2.3749,-0.44078 -3.2195,-1.7172 -1.0706,-1.61799 -0.558,-3.52962 1.4757,-5.50322 0.9491,-0.92109 3.2788,-2.10715 4.9188,-2.5042 2.9097,-0.70446 7.8438,-0.65742 10.795,0.1029 3.2609,0.84013 5.986,2.79306 7.177,5.14339 1.1115,2.19332 1.1921,2.89381 1.515,13.15736 0.1675,5.3263 0.4033,9.93077 0.5279,10.30817 0.4637,1.40505 2.4336,2.55008 4.0209,2.33718 1.4158,-0.18989 1.9363,1.09125 1.0403,2.56073 -0.8571,1.40591 -4.586,2.47393 -6.8603,1.96495 -1.3497,-0.30204 -3.0903,-1.48249 -4.2214,-2.8628 -1.0305,-1.25766 -1.4724,-1.24979 -3.0917,0.0551 -2.3717,1.91115 -4.5703,2.67842 -8.2569,2.88155 -1.328,0.0732 -2.4421,0.012 -3.2808,-0.18017 z m 8.2145,-4.77706 c 1.4421,-0.69126 2.7778,-2.1082 3.3504,-3.55407 0.437,-1.10362 0.4883,-1.63751 0.5616,-5.83924 l 0.081,-4.62455 -0.6002,0.12202 c -0.3301,0.0671 -1.5527,0.26976 -2.7169,0.45033 -7.1253,1.1052 -9.8938,3.61943 -9.577,8.69753 0.1713,2.74535 1.2756,4.38805 3.4218,5.09017 1.3404,0.43851 4.2271,0.25824 5.4797,-0.34219 z m 130.8505,4.83781 c -2.8017,-0.2192 -3.0692,-0.35825 -3.0692,-1.59534 0,-0.76977 0.093,-0.87677 1.5483,-1.77853 1.8193,-1.12748 1.7596,-0.71474 2.0421,-14.11746 l 0.2465,-11.69478 -0.4897,-0.87756 c -0.3516,-0.63009 -0.9971,-1.21202 -2.2889,-2.06356 -1.5325,-1.01025 -1.8073,-1.2801 -1.8543,-1.821 -0.1029,-1.18539 -0.051,-1.20112 5.274,-1.60804 2.7176,-0.20766 5.346,-0.41917 5.8408,-0.47001 l 0.8995,-0.0924 v 1.98483 c 0,1.09166 0.047,1.98484 0.104,1.98484 0.057,0 0.5573,-0.34858 1.1113,-0.77463 2.1483,-1.65218 5.0449,-2.66704 8.6755,-3.03961 2.8095,-0.28831 4.7734,-0.0122 6.7316,0.94634 2.4554,1.20194 3.9856,2.98664 5.1596,6.01759 l 0.5427,1.40114 0.061,10.90083 c 0.041,7.28577 0.1381,11.094 0.2935,11.48329 0.1396,0.34976 0.7086,0.87167 1.4243,1.3064 1.7931,1.0893 2.2285,1.6313 2.0741,2.58244 -0.07,0.43111 -0.2021,0.85685 -0.2936,0.94609 -0.3743,0.36486 -7.7356,0.65735 -10.6333,0.42251 -1.5658,-0.1269 -3.0184,-0.23073 -3.228,-0.23073 -0.3094,0 -0.381,-0.17572 -0.381,-0.93518 0,-1.2553 0.1267,-1.5178 0.9906,-2.05167 0.4053,-0.25048 1.1102,-0.92771 1.5665,-1.50496 l 0.8296,-1.04953 v -9.89091 c 0,-10.81044 -0.03,-11.11939 -1.2409,-12.92278 -0.7009,-1.04372 -2.0353,-2.01084 -3.2899,-2.38446 -1.4621,-0.43541 -4.4843,-0.31314 -5.8962,0.23855 -2.13,0.83225 -3.8122,2.88901 -4.3815,5.35676 -0.1218,0.52812 -0.2117,5.03361 -0.2147,10.76331 0,8.07614 0.048,9.92745 0.2885,10.25654 0.1615,0.22087 0.9949,0.73914 1.8521,1.15171 1.7522,0.84341 2.0376,1.3825 1.2572,2.37467 -0.3969,0.50453 -0.5891,0.55257 -2.7088,0.67711 -4.7883,0.28132 -6.3818,0.30082 -8.8433,0.10824 z m 74.8241,0.12299 c -0.291,-0.0432 -1.4566,-0.13945 -2.5902,-0.21398 l -2.0612,-0.13552 -0.2586,-0.86328 -0.2586,-0.86328 0.8144,-0.65174 c 0.4479,-0.35847 1.3251,-1.11801 1.9493,-1.68787 l 1.1349,-1.03612 V 239.31586 227.1012 l -0.4762,-0.70509 c -0.2619,-0.38779 -0.9525,-0.98203 -1.5346,-1.32051 -2.0528,-1.19376 -2.6162,-2.0743 -1.9287,-3.01452 0.2555,-0.34952 0.9271,-0.45865 5.1642,-0.83925 l 4.8705,-0.43749 0.132,2.01587 c 0.073,1.10874 0.19,2.81618 0.261,3.79433 l 0.1289,1.77845 0.3921,-0.50845 c 0.2156,-0.27965 0.8914,-1.31807 1.5017,-2.30762 2.0846,-3.37956 4.232,-4.86627 7.2717,-5.03448 2.1655,-0.11984 3.182,0.3247 4.0227,1.75917 0.4945,0.84378 0.5519,1.13485 0.4788,2.42775 -0.089,1.57051 -0.4184,2.22997 -1.5285,3.05698 -0.5226,0.38936 -0.8882,0.43642 -3.3908,0.43642 -2.7422,0 -2.8247,0.0136 -3.6807,0.60621 -1.0193,0.7057 -1.6766,1.51744 -2.4229,2.99212 -1.2625,2.49466 -1.2902,2.72274 -1.3789,11.36506 -0.1008,9.82721 -0.2563,9.24252 2.7495,10.3389 1.0789,0.39352 1.2388,0.52939 1.4492,1.23181 0.1301,0.43422 0.2036,1.02344 0.1632,1.30937 -0.068,0.47969 -0.1878,0.53046 -1.555,0.65703 -1.9292,0.1786 -8.7364,0.38027 -9.4192,0.27905 z m 27.6225,-0.28805 c -4.1844,-1.14969 -6.9486,-3.33405 -8.0638,-6.37234 -0.5176,-1.41032 -0.4645,-4.5806 0.107,-6.38173 0.9327,-2.93976 2.9918,-5.12124 6.2846,-6.65846 2.8133,-1.31336 8.7807,-2.77622 12.1663,-2.98248 l 2.1001,-0.12794 v -2.99234 c 0,-2.68313 -0.049,-3.08962 -0.4762,-3.93374 -0.8841,-1.74745 -3.1611,-2.95831 -5.5631,-2.95831 -2.2457,0 -3.4413,0.81058 -4.0055,2.7157 -0.5099,1.72128 -0.6294,1.97659 -1.2964,2.76924 -0.7606,0.90391 -1.6856,1.28848 -3.0982,1.28807 -1.4264,-4.2e-4 -2.4,-0.49182 -3.282,-1.65654 -0.8582,-1.13347 -0.9107,-2.16214 -0.1834,-3.59742 0.9394,-1.85373 3.0781,-3.45271 5.6764,-4.24381 3.0466,-0.9276 8.2876,-0.98593 11.6159,-0.12927 3.2593,0.8389 5.9812,2.83277 7.1733,5.25461 1.0734,2.18049 1.2289,3.62749 1.4693,13.66457 0.2456,10.25379 0.2197,10.08865 1.7792,11.33209 0.7016,0.55936 0.9882,0.64922 2.0833,0.65309 1.1301,0.004 1.3018,0.0622 1.5603,0.52916 0.4248,0.76739 0.3686,1.53257 -0.1715,2.33402 -0.7061,1.04776 -1.6048,1.46866 -3.6915,1.72897 -3.0747,0.38356 -4.5053,-0.2759 -6.872,-3.16789 -0.8624,-1.05371 -1.6751,-0.95905 -3.2562,0.37928 -2.2435,1.89888 -4.449,2.65108 -8.3517,2.84827 -1.7925,0.0906 -2.5092,0.0335 -3.7042,-0.2948 z m 8.2875,-4.49766 c 1.4496,-0.54235 2.9207,-1.92694 3.6785,-3.46218 0.5018,-1.01665 0.525,-1.24875 0.5898,-5.89375 l 0.067,-4.83542 -0.5966,0.12208 c -0.3281,0.0672 -1.2633,0.22291 -2.0782,0.34614 -7.1574,1.08232 -9.965,3.17085 -10.2216,7.60375 -0.2437,4.21008 1.8403,6.51589 5.9274,6.55829 0.9646,0.01 1.8101,-0.13093 2.6333,-0.43891 z m 26.7434,4.78468 c -0.2911,-0.0427 -1.5417,-0.13818 -2.7791,-0.21214 -2.1242,-0.12697 -2.2632,-0.16356 -2.4871,-0.65497 -0.3216,-0.70575 -0.2985,-1.45618 0.054,-1.74852 0.16,-0.13278 0.8029,-0.41476 1.4287,-0.62661 0.8866,-0.30013 1.278,-0.58372 1.7728,-1.28434 l 0.635,-0.89915 0.056,-24.61411 0.056,-24.6141 -0.693,-1.00556 c -0.5024,-0.72896 -1.129,-1.25307 -2.278,-1.90539 -1.6668,-0.94627 -1.9945,-1.47159 -1.4975,-2.40039 0.2033,-0.37978 0.5613,-0.42021 4.8285,-0.54529 2.5349,-0.0743 5.1324,-0.15637 5.7722,-0.18236 l 1.1634,-0.0473 0.2521,1.5875 c 0.1845,1.16183 0.2557,8.55241 0.2654,27.5624 0.015,29.48665 -0.1552,26.89449 1.8471,28.10801 1.3035,0.78999 1.4974,1.06206 1.5916,2.23287 l 0.067,0.83422 -1.4816,0.13588 c -1.9982,0.18325 -7.9138,0.37599 -8.5725,0.27931 z m -456.45915,-1.4618 c -10.60261,-2.76412 -18.94194,-11.92333 -21.40252,-23.50672 -0.5092,-2.39706 -0.51026,-8.01043 -0.002,-10.58334 2.42557,-12.279 11.1634,-21.37835 23.15078,-24.10864 l 1.32292,-0.30131 v 29.50873 29.50872 l -0.58209,-0.0104 c -0.32014,-0.006 -1.43933,-0.23389 -2.48708,-0.50704 z m 13.01745,-14.06317 v -14.62939 h 12.7 12.7 v 1.66561 c 0,8.1043 -5.8084,17.8981 -13.7701,23.2184 -3.3724,2.25354 -7.2562,3.82832 -10.4149,4.22298 l -1.215,0.15179 z"
       id="path336" /></g></svg>
