  0
SECTION
  2
HEADER
  9
$ACADVER
  1
AC1014
  9
$HANDSEED
  5
FFFF
  9
$INSUNITS
 70
     4
  9
$MEASUREMENT
 70
     1
  0
ENDSEC
  0
SECTION
  2
TABLES
  0
TABLE
  2
VPORT
  5
8
330
0
100
AcDbSymbolTable
 70
     4
  0
VPORT
  5
2E
330
8
100
AcDbSymbolTableRecord
100
AcDbViewportTableRecord
  2
*ACTIVE
 70
     0
 10
0.0
 20
0.0
 11
1.0
 21
1.0
 12
210.0
 22
148.5
 13
0.0
 23
0.0
 14
10.0
 24
10.0
 15
10.0
 25
10.0
 16
0.0
 26
0.0
 36
1.0
 17
0.0
 27
0.0
 37
0.0
 40
341.0
 41
1.24
 42
50.0
 43
0.0
 44
0.0
 50
0.0
 51
0.0
 71
     0
 72
   100
 73
     1
 74
     3
 75
     0
 76
     0
 77
     0
 78
     0
  0
ENDTAB
  0
TABLE
  2
LTYPE
  5
5
330
0
100
AcDbSymbolTable
 70
     1
  0
LTYPE
  5
14
330
5
100
AcDbSymbolTableRecord
100
AcDbLinetypeTableRecord
  2
BYBLOCK
 70
     0
  3

 72
    65
 73
     0
 40
0.0
  0
LTYPE
  5
15
330
5
100
AcDbSymbolTableRecord
100
AcDbLinetypeTableRecord
  2
BYLAYER
 70
     0
  3

 72
    65
 73
     0
 40
0.0
  0
LTYPE
  5
16
330
5
100
AcDbSymbolTableRecord
100
AcDbLinetypeTableRecord
  2
CONTINUOUS
 70
     0
  3
Solid line
 72
    65
 73
     0
 40
0.0
  0
ENDTAB
  0
TABLE
  2
LAYER
  5
2
100
AcDbSymbolTable
 70
2
  0
LAYER
  5
50
100
AcDbSymbolTableRecord
100
AcDbLayerTableRecord
  2
0
 70
0
  6
CONTINUOUS
  0
LAYER
  5
51
100
AcDbSymbolTableRecord
100
AcDbLayerTableRecord
  2
Layer_1
 70
0
  6
CONTINUOUS
  0
ENDTAB
  0
TABLE
  2
STYLE
  5
3
330
0
100
AcDbSymbolTable
 70
     1
  0
STYLE
  5
11
330
3
100
AcDbSymbolTableRecord
100
AcDbTextStyleTableRecord
  2
STANDARD
 70
     0
 40
0.0
 41
1.0
 50
0.0
 71
     0
 42
2.5
  3
txt
  4

  0
ENDTAB
  0
TABLE
  2
VIEW
  5
6
330
0
100
AcDbSymbolTable
 70
     0
  0
ENDTAB
  0
TABLE
  2
UCS
  5
7
330
0
100
AcDbSymbolTable
 70
     0
  0
ENDTAB
  0
TABLE
  2
APPID
  5
9
330
0
100
AcDbSymbolTable
 70
     2
  0
APPID
  5
12
330
9
100
AcDbSymbolTableRecord
100
AcDbRegAppTableRecord
  2
ACAD
 70
     0
  0
ENDTAB
  0
TABLE
  2
DIMSTYLE
  5
A
330
0
100
AcDbSymbolTable
 70
     1
  0
DIMSTYLE
105
27
330
A
100
AcDbSymbolTableRecord
100
AcDbDimStyleTableRecord
  2
ISO-25
 70
     0
  3

  4

  5

  6

  7

 40
1.0
 41
2.5
 42
0.625
 43
3.75
 44
1.25
 45
0.0
 46
0.0
 47
0.0
 48
0.0
140
2.5
141
2.5
142
0.0
143
0.03937007874016
144
1.0
145
0.0
146
1.0
147
0.625
 71
     0
 72
     0
 73
     0
 74
     0
 75
     0
 76
     0
 77
     1
 78
     8
170
     0
171
     3
172
     1
173
     0
174
     0
175
     0
176
     0
177
     0
178
     0
270
     2
271
     2
272
     2
273
     2
274
     3
340
11
275
     0
280
     0
281
     0
282
     0
283
     0
284
     8
285
     0
286
     0
287
     3
288
     0
  0
ENDTAB
  0
TABLE
  2
BLOCK_RECORD
  5
1
330
0
100
AcDbSymbolTable
 70
     1
  0
BLOCK_RECORD
  5
1F
330
1
100
AcDbSymbolTableRecord
100
AcDbBlockTableRecord
  2
*MODEL_SPACE
  0
BLOCK_RECORD
  5
1B
330
1
100
AcDbSymbolTableRecord
100
AcDbBlockTableRecord
  2
*PAPER_SPACE
  0
ENDTAB
  0
ENDSEC
  0
SECTION
  2
BLOCKS
  0
BLOCK
  5
20
330
1F
100
AcDbEntity
  8
0
100
AcDbBlockBegin
  2
*MODEL_SPACE
 70
     0
 10
0.0
 20
0.0
 30
0.0
  3
*MODEL_SPACE
  1

  0
ENDBLK
  5
21
330
1F
100
AcDbEntity
  8
0
100
AcDbBlockEnd
  0
BLOCK
  5
1C
330
1B
100
AcDbEntity
 67
     1
  8
0
100
AcDbBlockBegin
  2
*PAPER_SPACE
  1

  0
ENDBLK
  5
1D
330
1B
100
AcDbEntity
 67
     1
  8
0
100
AcDbBlockEnd
  0
ENDSEC
  0
SECTION
  2
ENTITIES
  0
SPLINE
  5
100
100
AcDbEntity
  8
Layer_1
 62
7
100
AcDbSpline
 70
8
 71
3
 72
8
 73
4
 74
0
 40
0
 40
0
 40
0
 40
0
 40
1
 40
1
 40
1
 40
1
 10
275.150100
 20
0.109318
 30
0.0
 10
263.287700
 20
1.388778
 30
0.0
 10
254.508200
 20
8.095298
 30
0.0
 10
250.747700
 20
18.750028
 30
0.0
  0
SPLINE
  5
101
100
AcDbEntity
  8
Layer_1
 62
7
100
AcDbSpline
 70
8
 71
3
 72
8
 73
4
 74
0
 40
0
 40
0
 40
0
 40
0
 40
1
 40
1
 40
1
 40
1
 10
250.747700
 20
18.750028
 30
0.0
 10
248.240800
 20
25.852598
 30
0.0
 10
248.145800
 20
35.474838
 30
0.0
 10
250.511000
 20
42.719758
 30
0.0
  0
SPLINE
  5
102
100
AcDbEntity
  8
Layer_1
 62
7
100
AcDbSpline
 70
8
 71
3
 72
8
 73
4
 74
0
 40
0
 40
0
 40
0
 40
0
 40
1
 40
1
 40
1
 40
1
 10
250.511000
 20
42.719758
 30
0.0
 10
252.948000
 20
50.184428
 30
0.0
 10
258.447200
 20
56.683248
 30
0.0
 10
265.201800
 20
60.080738
 30
0.0
  0
SPLINE
  5
103
100
AcDbEntity
  8
Layer_1
 62
7
100
AcDbSpline
 70
8
 71
3
 72
8
 73
4
 74
0
 40
0
 40
0
 40
0
 40
0
 40
1
 40
1
 40
1
 40
1
 10
265.201800
 20
60.080738
 30
0.0
 10
269.097100
 20
62.040028
 30
0.0
 10
272.233100
 20
62.814138
 30
0.0
 10
276.314300
 20
62.823778
 30
0.0
  0
SPLINE
  5
104
100
AcDbEntity
  8
Layer_1
 62
7
100
AcDbSpline
 70
8
 71
3
 72
8
 73
4
 74
0
 40
0
 40
0
 40
0
 40
0
 40
1
 40
1
 40
1
 40
1
 10
276.314300
 20
62.823778
 30
0.0
 10
280.730400
 20
62.834178
 30
0.0
 10
284.141800
 20
61.952388
 30
0.0
 10
287.850100
 20
59.841868
 30
0.0
  0
SPLINE
  5
105
100
AcDbEntity
  8
Layer_1
 62
7
100
AcDbSpline
 70
8
 71
3
 72
8
 73
4
 74
0
 40
0
 40
0
 40
0
 40
0
 40
1
 40
1
 40
1
 40
1
 10
294.265300
 20
55.991368
 30
0.0
 10
294.538300
 20
53.411118
 30
0.0
 10
294.488200
 20
47.294748
 30
0.0
 10
294.177300
 20
45.260818
 30
0.0
  0
SPLINE
  5
106
100
AcDbEntity
  8
Layer_1
 62
7
100
AcDbSpline
 70
8
 71
3
 72
8
 73
4
 74
0
 40
0
 40
0
 40
0
 40
0
 40
1
 40
1
 40
1
 40
1
 10
294.177300
 20
45.260818
 30
0.0
 10
294.064900
 20
44.525238
 30
0.0
 10
293.935800
 20
44.335858
 30
0.0
 10
293.425000
 20
44.157818
 30
0.0
  0
SPLINE
  5
107
100
AcDbEntity
  8
Layer_1
 62
7
100
AcDbSpline
 70
8
 71
3
 72
8
 73
4
 74
0
 40
0
 40
0
 40
0
 40
0
 40
1
 40
1
 40
1
 40
1
 10
293.425000
 20
44.157818
 30
0.0
 10
292.275900
 20
43.757238
 30
0.0
 10
291.043600
 20
44.559898
 30
0.0
 10
290.168500
 20
46.278968
 30
0.0
  0
SPLINE
  5
108
100
AcDbEntity
  8
Layer_1
 62
7
100
AcDbSpline
 70
8
 71
3
 72
8
 73
4
 74
0
 40
0
 40
0
 40
0
 40
0
 40
1
 40
1
 40
1
 40
1
 10
290.168500
 20
46.278968
 30
0.0
 10
289.895000
 20
46.816188
 30
0.0
 10
289.420700
 20
48.244938
 30
0.0
 10
289.114700
 20
49.453968
 30
0.0
  0
SPLINE
  5
109
100
AcDbEntity
  8
Layer_1
 62
7
100
AcDbSpline
 70
8
 71
3
 72
8
 73
4
 74
0
 40
0
 40
0
 40
0
 40
0
 40
1
 40
1
 40
1
 40
1
 10
289.114700
 20
49.453968
 30
0.0
 10
288.403900
 20
52.261428
 30
0.0
 10
287.791300
 20
53.367718
 30
0.0
 10
286.025000
 20
55.033938
 30
0.0
  0
SPLINE
  5
10a
100
AcDbEntity
  8
Layer_1
 62
7
100
AcDbSpline
 70
8
 71
3
 72
8
 73
4
 74
0
 40
0
 40
0
 40
0
 40
0
 40
1
 40
1
 40
1
 40
1
 10
286.025000
 20
55.033938
 30
0.0
 10
282.622400
 20
58.243858
 30
0.0
 10
276.715100
 20
59.807298
 30
0.0
 10
272.876100
 20
58.514018
 30
0.0
  0
SPLINE
  5
10b
100
AcDbEntity
  8
Layer_1
 62
7
100
AcDbSpline
 70
8
 71
3
 72
8
 73
4
 74
0
 40
0
 40
0
 40
0
 40
0
 40
1
 40
1
 40
1
 40
1
 10
272.876100
 20
58.514018
 30
0.0
 10
267.609300
 20
56.739768
 30
0.0
 10
262.990900
 20
51.385758
 30
0.0
 10
260.675600
 20
44.370198
 30
0.0
  0
SPLINE
  5
10c
100
AcDbEntity
  8
Layer_1
 62
7
100
AcDbSpline
 70
8
 71
3
 72
8
 73
4
 74
0
 40
0
 40
0
 40
0
 40
0
 40
1
 40
1
 40
1
 40
1
 10
260.675600
 20
44.370198
 30
0.0
 10
258.381200
 20
37.418178
 30
0.0
 10
258.120000
 20
27.600128
 30
0.0
 10
260.030800
 20
20.134458
 30
0.0
  0
SPLINE
  5
10d
100
AcDbEntity
  8
Layer_1
 62
7
100
AcDbSpline
 70
8
 71
3
 72
8
 73
4
 74
0
 40
0
 40
0
 40
0
 40
0
 40
1
 40
1
 40
1
 40
1
 10
260.030800
 20
20.134458
 30
0.0
 10
261.942100
 20
12.666988
 30
0.0
 10
266.701200
 20
7.054348
 30
0.0
 10
272.821800
 20
5.049438
 30
0.0
  0
SPLINE
  5
10e
100
AcDbEntity
  8
Layer_1
 62
7
100
AcDbSpline
 70
8
 71
3
 72
8
 73
4
 74
0
 40
0
 40
0
 40
0
 40
0
 40
1
 40
1
 40
1
 40
1
 10
272.821800
 20
5.049438
 30
0.0
 10
274.166400
 20
4.608968
 30
0.0
 10
275.064700
 20
4.474338
 30
0.0
 10
277.184300
 20
4.395618
 30
0.0
  0
SPLINE
  5
10f
100
AcDbEntity
  8
Layer_1
 62
7
100
AcDbSpline
 70
8
 71
3
 72
8
 73
4
 74
0
 40
0
 40
0
 40
0
 40
0
 40
1
 40
1
 40
1
 40
1
 10
277.184300
 20
4.395618
 30
0.0
 10
280.521700
 20
4.271678
 30
0.0
 10
282.438300
 20
4.577548
 30
0.0
 10
284.365400
 20
5.541658
 30
0.0
  0
SPLINE
  5
110
100
AcDbEntity
  8
Layer_1
 62
7
100
AcDbSpline
 70
8
 71
3
 72
8
 73
4
 74
0
 40
0
 40
0
 40
0
 40
0
 40
1
 40
1
 40
1
 40
1
 10
284.365400
 20
5.541658
 30
0.0
 10
286.657400
 20
6.688268
 30
0.0
 10
287.986900
 20
8.589828
 30
0.0
 10
288.930200
 20
12.070538
 30
0.0
  0
SPLINE
  5
111
100
AcDbEntity
  8
Layer_1
 62
7
100
AcDbSpline
 70
8
 71
3
 72
8
 73
4
 74
0
 40
0
 40
0
 40
0
 40
0
 40
1
 40
1
 40
1
 40
1
 10
288.930200
 20
12.070538
 30
0.0
 10
289.413600
 20
13.854248
 30
0.0
 10
289.472800
 20
17.448528
 30
0.0
 10
289.046100
 20
19.108208
 30
0.0
  0
SPLINE
  5
112
100
AcDbEntity
  8
Layer_1
 62
7
100
AcDbSpline
 70
8
 71
3
 72
8
 73
4
 74
0
 40
0
 40
0
 40
0
 40
0
 40
1
 40
1
 40
1
 40
1
 10
289.046100
 20
19.108208
 30
0.0
 10
288.608600
 20
20.809878
 30
0.0
 10
287.348200
 20
22.590188
 30
0.0
 10
285.906800
 20
23.542388
 30
0.0
  0
SPLINE
  5
113
100
AcDbEntity
  8
Layer_1
 62
7
100
AcDbSpline
 70
8
 71
3
 72
8
 73
4
 74
0
 40
0
 40
0
 40
0
 40
0
 40
1
 40
1
 40
1
 40
1
 10
285.906800
 20
23.542388
 30
0.0
 10
284.733100
 20
24.317748
 30
0.0
 10
284.672100
 20
24.401678
 30
0.0
 10
284.611900
 20
25.324398
 30
0.0
  0
LWPOLYLINE
  5
114
100
AcDbEntity
  8
Layer_1
 62
7
100
AcDbPolyline
 90
5
 70
0
 10
287.850100
 20
59.841868
 30
0.0
 10
289.966800
 20
58.637208
 30
0.0
 10
291.976000
 20
58.637208
 30
0.0
 10
293.985300
 20
58.637208
 30
0.0
 10
294.265300
 20
55.991368
 30
0.0
  0
SPLINE
  5
115
100
AcDbEntity
  8
Layer_1
 62
7
100
AcDbSpline
 70
8
 71
3
 72
8
 73
4
 74
0
 40
0
 40
0
 40
0
 40
0
 40
1
 40
1
 40
1
 40
1
 10
287.257900
 20
26.472948
 30
0.0
 10
290.801700
 20
26.708698
 30
0.0
 10
294.225000
 20
26.718498
 30
0.0
 10
296.264000
 20
26.498748
 30
0.0
  0
LWPOLYLINE
  5
116
100
AcDbEntity
  8
Layer_1
 62
7
100
AcDbPolyline
 90
3
 70
0
 10
284.611900
 20
25.324398
 30
0.0
 10
284.548900
 20
26.292728
 30
0.0
 10
287.257900
 20
26.472948
 30
0.0
  0
SPLINE
  5
117
100
AcDbEntity
  8
Layer_1
 62
7
100
AcDbSpline
 70
8
 71
3
 72
8
 73
4
 74
0
 40
0
 40
0
 40
0
 40
0
 40
1
 40
1
 40
1
 40
1
 10
297.904400
 20
23.217918
 30
0.0
 10
297.904600
 20
21.510698
 30
0.0
 10
297.793000
 20
18.850888
 30
0.0
 10
297.656500
 20
17.307218
 30
0.0
  0
SPLINE
  5
118
100
AcDbEntity
  8
Layer_1
 62
7
100
AcDbSpline
 70
8
 71
3
 72
8
 73
4
 74
0
 40
0
 40
0
 40
0
 40
0
 40
1
 40
1
 40
1
 40
1
 10
297.656500
 20
17.307218
 30
0.0
 10
297.254000
 20
12.754598
 30
0.0
 10
297.886000
 20
10.570398
 30
0.0
 10
300.162400
 20
8.647188
 30
0.0
  0
SPLINE
  5
119
100
AcDbEntity
  8
Layer_1
 62
7
100
AcDbSpline
 70
8
 71
3
 72
8
 73
4
 74
0
 40
0
 40
0
 40
0
 40
0
 40
1
 40
1
 40
1
 40
1
 10
300.162400
 20
8.647188
 30
0.0
 10
302.298500
 20
6.842458
 30
0.0
 10
302.404600
 20
6.711808
 30
0.0
 10
302.247000
 20
6.080318
 30
0.0
  0
SPLINE
  5
11a
100
AcDbEntity
  8
Layer_1
 62
7
100
AcDbSpline
 70
8
 71
3
 72
8
 73
4
 74
0
 40
0
 40
0
 40
0
 40
0
 40
1
 40
1
 40
1
 40
1
 10
302.247000
 20
6.080318
 30
0.0
 10
302.035800
 20
5.233988
 30
0.0
 10
301.693100
 20
4.942788
 30
0.0
 10
299.652500
 20
3.875898
 30
0.0
  0
SPLINE
  5
11b
100
AcDbEntity
  8
Layer_1
 62
7
100
AcDbSpline
 70
8
 71
3
 72
8
 73
4
 74
0
 40
0
 40
0
 40
0
 40
0
 40
1
 40
1
 40
1
 40
1
 10
299.652500
 20
3.875898
 30
0.0
 10
296.296700
 20
2.121348
 30
0.0
 10
292.397400
 20
1.039198
 30
0.0
 10
287.270000
 20
0.439408
 30
0.0
  0
SPLINE
  5
11c
100
AcDbEntity
  8
Layer_1
 62
7
100
AcDbSpline
 70
8
 71
3
 72
8
 73
4
 74
0
 40
0
 40
0
 40
0
 40
0
 40
1
 40
1
 40
1
 40
1
 10
287.270000
 20
0.439408
 30
0.0
 10
283.915000
 20
0.046958
 30
0.0
 10
277.378600
 20
-0.131052
 30
0.0
 10
275.149900
 20
0.109338
 30
0.0
  0
LWPOLYLINE
  5
11d
100
AcDbEntity
  8
Layer_1
 62
7
100
AcDbPolyline
 90
3
 70
0
 10
296.264000
 20
26.498748
 30
0.0
 10
297.904400
 20
26.321938
 30
0.0
 10
297.904400
 20
23.217918
 30
0.0
  0
SPLINE
  5
11e
100
AcDbEntity
  8
Layer_1
 62
7
100
AcDbSpline
 70
8
 71
3
 72
8
 73
4
 74
0
 40
0
 40
0
 40
0
 40
0
 40
1
 40
1
 40
1
 40
1
 10
178.034700
 20
0.558268
 30
0.0
 10
176.455300
 20
0.784458
 30
0.0
 10
174.803700
 20
1.686238
 30
0.0
 10
174.040400
 20
2.739188
 30
0.0
  0
SPLINE
  5
11f
100
AcDbEntity
  8
Layer_1
 62
7
100
AcDbSpline
 70
8
 71
3
 72
8
 73
4
 74
0
 40
0
 40
0
 40
0
 40
0
 40
1
 40
1
 40
1
 40
1
 10
174.040400
 20
2.739188
 30
0.0
 10
173.710000
 20
3.194938
 30
0.0
 10
173.229300
 20
4.195068
 30
0.0
 10
172.972100
 20
4.961688
 30
0.0
  0
LWPOLYLINE
  5
120
100
AcDbEntity
  8
Layer_1
 62
7
100
AcDbPolyline
 90
2
 70
0
 10
275.149900
 20
0.109338
 30
0.0
 10
275.150100
 20
0.109318
 30
0.0
  0
SPLINE
  5
121
100
AcDbEntity
  8
Layer_1
 62
7
100
AcDbSpline
 70
8
 71
3
 72
8
 73
4
 74
0
 40
0
 40
0
 40
0
 40
0
 40
1
 40
1
 40
1
 40
1
 10
171.580800
 20
32.048078
 30
0.0
 10
171.150800
 20
32.156168
 30
0.0
 10
170.299000
 20
32.358388
 30
0.0
 10
169.687800
 20
32.497438
 30
0.0
  0
LWPOLYLINE
  5
122
100
AcDbEntity
  8
Layer_1
 62
7
100
AcDbPolyline
 90
5
 70
0
 10
172.972100
 20
4.961688
 30
0.0
 10
172.504500
 20
6.355538
 30
0.0
 10
172.433500
 20
19.103538
 30
0.0
 10
172.362500
 20
31.851538
 30
0.0
 10
171.580800
 20
32.048078
 30
0.0
  0
SPLINE
  5
123
100
AcDbEntity
  8
Layer_1
 62
7
100
AcDbSpline
 70
8
 71
3
 72
8
 73
4
 74
0
 40
0
 40
0
 40
0
 40
0
 40
1
 40
1
 40
1
 40
1
 10
172.479900
 20
37.432318
 30
0.0
 10
172.547900
 20
38.151838
 30
0.0
 10
172.753400
 20
41.074158
 30
0.0
 10
172.936200
 20
43.926368
 30
0.0
  0
SPLINE
  5
124
100
AcDbEntity
  8
Layer_1
 62
7
100
AcDbSpline
 70
8
 71
3
 72
8
 73
4
 74
0
 40
0
 40
0
 40
0
 40
0
 40
1
 40
1
 40
1
 40
1
 10
172.936200
 20
43.926368
 30
0.0
 10
173.119000
 20
46.778578
 30
0.0
 10
173.284400
 20
49.127898
 30
0.0
 10
173.303800
 20
49.147078
 30
0.0
  0
SPLINE
  5
125
100
AcDbEntity
  8
Layer_1
 62
7
100
AcDbSpline
 70
8
 71
3
 72
8
 73
4
 74
0
 40
0
 40
0
 40
0
 40
0
 40
1
 40
1
 40
1
 40
1
 10
173.303800
 20
49.147078
 30
0.0
 10
173.322800
 20
49.166278
 30
0.0
 10
174.791600
 20
49.251018
 30
0.0
 10
176.567000
 20
49.335408
 30
0.0
  0
LWPOLYLINE
  5
126
100
AcDbEntity
  8
Layer_1
 62
7
100
AcDbPolyline
 90
7
 70
0
 10
169.687800
 20
32.497438
 30
0.0
 10
168.576600
 20
32.750258
 30
0.0
 10
168.576600
 20
34.289348
 30
0.0
 10
168.576600
 20
35.828438
 30
0.0
 10
170.466300
 20
35.976268
 30
0.0
 10
172.356000
 20
36.124098
 30
0.0
 10
172.479900
 20
37.432318
 30
0.0
  0
SPLINE
  5
127
100
AcDbEntity
  8
Layer_1
 62
7
100
AcDbSpline
 70
8
 71
3
 72
8
 73
4
 74
0
 40
0
 40
0
 40
0
 40
0
 40
1
 40
1
 40
1
 40
1
 10
179.794900
 20
20.669648
 30
0.0
 10
179.794900
 20
8.158288
 30
0.0
 10
179.816900
 20
7.886308
 30
0.0
 10
180.913300
 20
6.711868
 30
0.0
  0
SPLINE
  5
128
100
AcDbEntity
  8
Layer_1
 62
7
100
AcDbSpline
 70
8
 71
3
 72
8
 73
4
 74
0
 40
0
 40
0
 40
0
 40
0
 40
1
 40
1
 40
1
 40
1
 10
180.913300
 20
6.711868
 30
0.0
 10
182.086100
 20
5.455788
 30
0.0
 10
184.200100
 20
5.197118
 30
0.0
 10
186.563300
 20
6.020538
 30
0.0
  0
LWPOLYLINE
  5
129
100
AcDbEntity
  8
Layer_1
 62
7
100
AcDbPolyline
 90
11
 70
0
 10
176.567000
 20
49.335408
 30
0.0
 10
179.794900
 20
49.488858
 30
0.0
 10
179.794900
 20
42.791778
 30
0.0
 10
179.794900
 20
36.094708
 30
0.0
 10
183.710700
 20
36.094708
 30
0.0
 10
187.626600
 20
36.094708
 30
0.0
 10
187.626600
 20
34.189708
 30
0.0
 10
187.626600
 20
32.284708
 30
0.0
 10
183.710700
 20
32.284708
 30
0.0
 10
179.794900
 20
32.284708
 30
0.0
 10
179.794900
 20
20.669648
 30
0.0
  0
SPLINE
  5
12a
100
AcDbEntity
  8
Layer_1
 62
7
100
AcDbSpline
 70
8
 71
3
 72
8
 73
4
 74
0
 40
0
 40
0
 40
0
 40
0
 40
1
 40
1
 40
1
 40
1
 10
188.415400
 20
5.938818
 30
0.0
 10
188.987000
 20
5.274238
 30
0.0
 10
189.009300
 20
4.963728
 30
0.0
 10
188.553900
 20
4.004168
 30
0.0
  0
SPLINE
  5
12b
100
AcDbEntity
  8
Layer_1
 62
7
100
AcDbSpline
 70
8
 71
3
 72
8
 73
4
 74
0
 40
0
 40
0
 40
0
 40
0
 40
1
 40
1
 40
1
 40
1
 10
188.553900
 20
4.004168
 30
0.0
 10
187.410100
 20
1.593718
 30
0.0
 10
182.359100
 20
-0.060972
 30
0.0
 10
178.035300
 20
0.558268
 30
0.0
  0
LWPOLYLINE
  5
12c
100
AcDbEntity
  8
Layer_1
 62
7
100
AcDbPolyline
 90
3
 70
0
 10
186.563300
 20
6.020538
 30
0.0
 10
187.934200
 20
6.498208
 30
0.0
 10
188.415400
 20
5.938818
 30
0.0
  0
SPLINE
  5
12d
100
AcDbEntity
  8
Layer_1
 62
7
100
AcDbSpline
 70
8
 71
3
 72
8
 73
4
 74
0
 40
0
 40
0
 40
0
 40
0
 40
1
 40
1
 40
1
 40
1
 10
319.042800
 20
0.554268
 30
0.0
 10
311.109800
 20
1.377288
 30
0.0
 10
305.186800
 20
6.685348
 30
0.0
 10
303.594800
 20
14.398368
 30
0.0
  0
SPLINE
  5
12e
100
AcDbEntity
  8
Layer_1
 62
7
100
AcDbSpline
 70
8
 71
3
 72
8
 73
4
 74
0
 40
0
 40
0
 40
0
 40
0
 40
1
 40
1
 40
1
 40
1
 10
303.594800
 20
14.398368
 30
0.0
 10
303.047300
 20
17.050938
 30
0.0
 10
303.061500
 20
20.810678
 30
0.0
 10
303.627800
 20
23.173738
 30
0.0
  0
SPLINE
  5
12f
100
AcDbEntity
  8
Layer_1
 62
7
100
AcDbSpline
 70
8
 71
3
 72
8
 73
4
 74
0
 40
0
 40
0
 40
0
 40
0
 40
1
 40
1
 40
1
 40
1
 10
303.627800
 20
23.173738
 30
0.0
 10
305.345300
 20
30.338328
 30
0.0
 10
311.459300
 20
36.070188
 30
0.0
 10
318.310700
 20
36.938858
 30
0.0
  0
SPLINE
  5
130
100
AcDbEntity
  8
Layer_1
 62
7
100
AcDbSpline
 70
8
 71
3
 72
8
 73
4
 74
0
 40
0
 40
0
 40
0
 40
0
 40
1
 40
1
 40
1
 40
1
 10
318.310700
 20
36.938858
 30
0.0
 10
320.339900
 20
37.196138
 30
0.0
 10
323.307100
 20
36.880558
 30
0.0
 10
325.382900
 20
36.186668
 30
0.0
  0
SPLINE
  5
131
100
AcDbEntity
  8
Layer_1
 62
7
100
AcDbSpline
 70
8
 71
3
 72
8
 73
4
 74
0
 40
0
 40
0
 40
0
 40
0
 40
1
 40
1
 40
1
 40
1
 10
325.382900
 20
36.186668
 30
0.0
 10
329.758600
 20
34.724028
 30
0.0
 10
333.310100
 20
31.105648
 30
0.0
 10
334.977200
 20
26.411658
 30
0.0
  0
SPLINE
  5
132
100
AcDbEntity
  8
Layer_1
 62
7
100
AcDbSpline
 70
8
 71
3
 72
8
 73
4
 74
0
 40
0
 40
0
 40
0
 40
0
 40
1
 40
1
 40
1
 40
1
 10
334.977200
 20
26.411658
 30
0.0
 10
335.423800
 20
25.154358
 30
0.0
 10
335.816600
 20
20.219628
 30
0.0
 10
335.470100
 20
20.219628
 30
0.0
  0
SPLINE
  5
133
100
AcDbEntity
  8
Layer_1
 62
7
100
AcDbSpline
 70
8
 71
3
 72
8
 73
4
 74
0
 40
0
 40
0
 40
0
 40
0
 40
1
 40
1
 40
1
 40
1
 10
335.470100
 20
20.219628
 30
0.0
 10
335.377100
 20
20.219628
 30
0.0
 10
333.864000
 20
20.063998
 30
0.0
 10
332.107300
 20
19.873778
 30
0.0
  0
SPLINE
  5
134
100
AcDbEntity
  8
Layer_1
 62
7
100
AcDbSpline
 70
8
 71
3
 72
8
 73
4
 74
0
 40
0
 40
0
 40
0
 40
0
 40
1
 40
1
 40
1
 40
1
 10
332.107300
 20
19.873778
 30
0.0
 10
328.861500
 20
19.522328
 30
0.0
 10
318.963200
 20
19.363418
 30
0.0
 10
314.096600
 20
19.584628
 30
0.0
  0
LWPOLYLINE
  5
135
100
AcDbEntity
  8
Layer_1
 62
7
100
AcDbPolyline
 90
2
 70
0
 10
178.035300
 20
0.558268
 30
0.0
 10
178.034700
 20
0.558268
 30
0.0
  0
SPLINE
  5
136
100
AcDbEntity
  8
Layer_1
 62
7
100
AcDbSpline
 70
8
 71
3
 72
8
 73
4
 74
0
 40
0
 40
0
 40
0
 40
0
 40
1
 40
1
 40
1
 40
1
 10
311.778200
 20
16.727128
 30
0.0
 10
311.788200
 20
14.218168
 30
0.0
 10
311.859200
 20
13.538898
 30
0.0
 10
312.269500
 20
12.297098
 30
0.0
  0
SPLINE
  5
137
100
AcDbEntity
  8
Layer_1
 62
7
100
AcDbSpline
 70
8
 71
3
 72
8
 73
4
 74
0
 40
0
 40
0
 40
0
 40
0
 40
1
 40
1
 40
1
 40
1
 10
312.269500
 20
12.297098
 30
0.0
 10
313.191800
 20
9.506628
 30
0.0
 10
314.505300
 20
7.641138
 30
0.0
 10
316.462600
 20
6.341958
 30
0.0
  0
SPLINE
  5
138
100
AcDbEntity
  8
Layer_1
 62
7
100
AcDbSpline
 70
8
 71
3
 72
8
 73
4
 74
0
 40
0
 40
0
 40
0
 40
0
 40
1
 40
1
 40
1
 40
1
 10
316.462600
 20
6.341958
 30
0.0
 10
318.399100
 20
5.056618
 30
0.0
 10
319.808800
 20
4.712638
 30
0.0
 10
322.672500
 20
4.826708
 30
0.0
  0
SPLINE
  5
139
100
AcDbEntity
  8
Layer_1
 62
7
100
AcDbSpline
 70
8
 71
3
 72
8
 73
4
 74
0
 40
0
 40
0
 40
0
 40
0
 40
1
 40
1
 40
1
 40
1
 10
322.672500
 20
4.826708
 30
0.0
 10
326.632100
 20
4.984438
 30
0.0
 10
329.483000
 20
6.152498
 30
0.0
 10
332.227400
 20
8.741408
 30
0.0
  0
SPLINE
  5
13a
100
AcDbEntity
  8
Layer_1
 62
7
100
AcDbSpline
 70
8
 71
3
 72
8
 73
4
 74
0
 40
0
 40
0
 40
0
 40
0
 40
1
 40
1
 40
1
 40
1
 10
332.227400
 20
8.741408
 30
0.0
 10
333.571900
 20
10.009708
 30
0.0
 10
333.727300
 20
10.097718
 30
0.0
 10
334.399600
 20
9.971588
 30
0.0
  0
SPLINE
  5
13b
100
AcDbEntity
  8
Layer_1
 62
7
100
AcDbSpline
 70
8
 71
3
 72
8
 73
4
 74
0
 40
0
 40
0
 40
0
 40
0
 40
1
 40
1
 40
1
 40
1
 10
334.399600
 20
9.971588
 30
0.0
 10
334.948700
 20
9.868568
 30
0.0
 10
335.175100
 20
9.688258
 30
0.0
 10
335.336500
 20
9.225288
 30
0.0
  0
SPLINE
  5
13c
100
AcDbEntity
  8
Layer_1
 62
7
100
AcDbSpline
 70
8
 71
3
 72
8
 73
4
 74
0
 40
0
 40
0
 40
0
 40
0
 40
1
 40
1
 40
1
 40
1
 10
335.336500
 20
9.225288
 30
0.0
 10
335.657700
 20
8.303948
 30
0.0
 10
334.953600
 20
7.075528
 30
0.0
 10
332.951600
 20
5.064268
 30
0.0
  0
SPLINE
  5
13d
100
AcDbEntity
  8
Layer_1
 62
7
100
AcDbSpline
 70
8
 71
3
 72
8
 73
4
 74
0
 40
0
 40
0
 40
0
 40
0
 40
1
 40
1
 40
1
 40
1
 10
332.951600
 20
5.064268
 30
0.0
 10
331.553100
 20
3.659248
 30
0.0
 10
330.882000
 20
3.171538
 30
0.0
 10
329.234200
 20
2.362518
 30
0.0
  0
SPLINE
  5
13e
100
AcDbEntity
  8
Layer_1
 62
7
100
AcDbSpline
 70
8
 71
3
 72
8
 73
4
 74
0
 40
0
 40
0
 40
0
 40
0
 40
1
 40
1
 40
1
 40
1
 10
329.234200
 20
2.362518
 30
0.0
 10
326.005700
 20
0.777478
 30
0.0
 10
322.644500
 20
0.180928
 30
0.0
 10
319.046000
 20
0.554268
 30
0.0
  0
LWPOLYLINE
  5
13f
100
AcDbEntity
  8
Layer_1
 62
7
100
AcDbPolyline
 90
3
 70
0
 10
314.096600
 20
19.584628
 30
0.0
 10
311.768200
 20
19.690458
 30
0.0
 10
311.778200
 20
16.727128
 30
0.0
  0
SPLINE
  5
140
100
AcDbEntity
  8
Layer_1
 62
7
100
AcDbSpline
 70
8
 71
3
 72
8
 73
4
 74
0
 40
0
 40
0
 40
0
 40
0
 40
1
 40
1
 40
1
 40
1
 10
327.250900
 20
24.518988
 30
0.0
 10
327.518500
 20
24.786618
 30
0.0
 10
326.879600
 20
27.748728
 30
0.0
 10
326.273400
 20
29.051068
 30
0.0
  0
SPLINE
  5
141
100
AcDbEntity
  8
Layer_1
 62
7
100
AcDbSpline
 70
8
 71
3
 72
8
 73
4
 74
0
 40
0
 40
0
 40
0
 40
0
 40
1
 40
1
 40
1
 40
1
 10
326.273400
 20
29.051068
 30
0.0
 10
325.555700
 20
30.592668
 30
0.0
 10
323.986100
 20
32.355828
 30
0.0
 10
322.786500
 20
32.967788
 30
0.0
  0
SPLINE
  5
142
100
AcDbEntity
  8
Layer_1
 62
7
100
AcDbSpline
 70
8
 71
3
 72
8
 73
4
 74
0
 40
0
 40
0
 40
0
 40
0
 40
1
 40
1
 40
1
 40
1
 10
322.786500
 20
32.967788
 30
0.0
 10
321.753400
 20
33.494848
 30
0.0
 10
319.696500
 20
33.685198
 30
0.0
 10
318.508500
 20
33.363688
 30
0.0
  0
SPLINE
  5
143
100
AcDbEntity
  8
Layer_1
 62
7
100
AcDbSpline
 70
8
 71
3
 72
8
 73
4
 74
0
 40
0
 40
0
 40
0
 40
0
 40
1
 40
1
 40
1
 40
1
 10
318.508500
 20
33.363688
 30
0.0
 10
315.726000
 20
32.610668
 30
0.0
 10
313.318500
 20
29.280858
 30
0.0
 10
312.801500
 20
25.470378
 30
0.0
  0
LWPOLYLINE
  5
144
100
AcDbEntity
  8
Layer_1
 62
7
100
AcDbPolyline
 90
2
 70
0
 10
319.046000
 20
0.554268
 30
0.0
 10
319.042800
 20
0.554268
 30
0.0
  0
SPLINE
  5
145
100
AcDbEntity
  8
Layer_1
 62
7
100
AcDbSpline
 70
8
 71
3
 72
8
 73
4
 74
0
 40
0
 40
0
 40
0
 40
0
 40
1
 40
1
 40
1
 40
1
 10
313.805100
 20
24.384468
 30
0.0
 10
315.525300
 20
24.244768
 30
0.0
 10
327.092400
 20
24.360468
 30
0.0
 10
327.250900
 20
24.518948
 30
0.0
  0
LWPOLYLINE
  5
146
100
AcDbEntity
  8
Layer_1
 62
7
100
AcDbPolyline
 90
3
 70
0
 10
312.801500
 20
25.470378
 30
0.0
 10
312.666700
 20
24.476968
 30
0.0
 10
313.805100
 20
24.384468
 30
0.0
  0
SPLINE
  5
147
100
AcDbEntity
  8
Layer_1
 62
7
100
AcDbSpline
 70
8
 71
3
 72
8
 73
4
 74
0
 40
0
 40
0
 40
0
 40
0
 40
1
 40
1
 40
1
 40
1
 10
392.407500
 20
0.537628
 30
0.0
 10
391.589400
 20
0.624128
 30
0.0
 10
390.168700
 20
0.900928
 30
0.0
 10
389.250500
 20
1.152838
 30
0.0
  0
SPLINE
  5
148
100
AcDbEntity
  8
Layer_1
 62
7
100
AcDbSpline
 70
8
 71
3
 72
8
 73
4
 74
0
 40
0
 40
0
 40
0
 40
0
 40
1
 40
1
 40
1
 40
1
 10
389.250500
 20
1.152838
 30
0.0
 10
383.246900
 20
2.799898
 30
0.0
 10
378.759000
 20
7.415878
 30
0.0
 10
377.135600
 20
13.613518
 30
0.0
  0
SPLINE
  5
149
100
AcDbEntity
  8
Layer_1
 62
7
100
AcDbSpline
 70
8
 71
3
 72
8
 73
4
 74
0
 40
0
 40
0
 40
0
 40
0
 40
1
 40
1
 40
1
 40
1
 10
377.135600
 20
13.613518
 30
0.0
 10
376.426900
 20
16.319038
 30
0.0
 10
376.336900
 20
20.510628
 30
0.0
 10
376.932700
 20
23.061188
 30
0.0
  0
SPLINE
  5
14a
100
AcDbEntity
  8
Layer_1
 62
7
100
AcDbSpline
 70
8
 71
3
 72
8
 73
4
 74
0
 40
0
 40
0
 40
0
 40
0
 40
1
 40
1
 40
1
 40
1
 10
376.932700
 20
23.061188
 30
0.0
 10
378.219100
 20
28.567458
 30
0.0
 10
381.646100
 20
32.985288
 30
0.0
 10
386.529300
 20
35.432458
 30
0.0
  0
SPLINE
  5
14b
100
AcDbEntity
  8
Layer_1
 62
7
100
AcDbSpline
 70
8
 71
3
 72
8
 73
4
 74
0
 40
0
 40
0
 40
0
 40
0
 40
1
 40
1
 40
1
 40
1
 10
386.529300
 20
35.432458
 30
0.0
 10
390.831100
 20
37.588288
 30
0.0
 10
396.344000
 20
37.541778
 30
0.0
 10
400.626200
 20
35.313528
 30
0.0
  0
SPLINE
  5
14c
100
AcDbEntity
  8
Layer_1
 62
7
100
AcDbSpline
 70
8
 71
3
 72
8
 73
4
 74
0
 40
0
 40
0
 40
0
 40
0
 40
1
 40
1
 40
1
 40
1
 10
400.626200
 20
35.313528
 30
0.0
 10
402.909700
 20
34.125338
 30
0.0
 10
405.648300
 20
31.295728
 30
0.0
 10
406.968800
 20
28.760418
 30
0.0
  0
SPLINE
  5
14d
100
AcDbEntity
  8
Layer_1
 62
7
100
AcDbSpline
 70
8
 71
3
 72
8
 73
4
 74
0
 40
0
 40
0
 40
0
 40
0
 40
1
 40
1
 40
1
 40
1
 10
406.968800
 20
28.760418
 30
0.0
 10
408.196300
 20
26.403508
 30
0.0
 10
408.817600
 20
24.100018
 30
0.0
 10
408.817600
 20
21.906368
 30
0.0
  0
LWPOLYLINE
  5
14e
100
AcDbEntity
  8
Layer_1
 62
7
100
AcDbPolyline
 90
1
 70
1
 10
327.250900
 20
24.518948
 30
0.0
  0
SPLINE
  5
14f
100
AcDbEntity
  8
Layer_1
 62
7
100
AcDbSpline
 70
8
 71
3
 72
8
 73
4
 74
0
 40
0
 40
0
 40
0
 40
0
 40
1
 40
1
 40
1
 40
1
 10
407.812200
 20
20.144898
 30
0.0
 10
402.935900
 20
19.517938
 30
0.0
 10
392.095500
 20
19.252928
 30
0.0
 10
387.190000
 20
19.640738
 30
0.0
  0
SPLINE
  5
150
100
AcDbEntity
  8
Layer_1
 62
7
100
AcDbSpline
 70
8
 71
3
 72
8
 73
4
 74
0
 40
0
 40
0
 40
0
 40
0
 40
1
 40
1
 40
1
 40
1
 10
387.190000
 20
19.640738
 30
0.0
 10
385.239900
 20
19.794908
 30
0.0
 10
385.134900
 20
19.781888
 30
0.0
 10
385.004100
 20
19.369798
 30
0.0
  0
SPLINE
  5
151
100
AcDbEntity
  8
Layer_1
 62
7
100
AcDbSpline
 70
8
 71
3
 72
8
 73
4
 74
0
 40
0
 40
0
 40
0
 40
0
 40
1
 40
1
 40
1
 40
1
 10
385.004100
 20
19.369798
 30
0.0
 10
384.736000
 20
18.525038
 30
0.0
 10
384.875000
 20
14.207498
 30
0.0
 10
385.211900
 20
12.917128
 30
0.0
  0
SPLINE
  5
152
100
AcDbEntity
  8
Layer_1
 62
7
100
AcDbSpline
 70
8
 71
3
 72
8
 73
4
 74
0
 40
0
 40
0
 40
0
 40
0
 40
1
 40
1
 40
1
 40
1
 10
385.211900
 20
12.917128
 30
0.0
 10
386.088200
 20
9.560268
 30
0.0
 10
388.090700
 20
7.036828
 30
0.0
 10
390.962600
 20
5.670378
 30
0.0
  0
SPLINE
  5
153
100
AcDbEntity
  8
Layer_1
 62
7
100
AcDbSpline
 70
8
 71
3
 72
8
 73
4
 74
0
 40
0
 40
0
 40
0
 40
0
 40
1
 40
1
 40
1
 40
1
 10
390.962600
 20
5.670378
 30
0.0
 10
392.498700
 20
4.939488
 30
0.0
 10
392.795900
 20
4.873418
 30
0.0
 10
394.871400
 20
4.801238
 30
0.0
  0
SPLINE
  5
154
100
AcDbEntity
  8
Layer_1
 62
7
100
AcDbSpline
 70
8
 71
3
 72
8
 73
4
 74
0
 40
0
 40
0
 40
0
 40
0
 40
1
 40
1
 40
1
 40
1
 10
394.871400
 20
4.801238
 30
0.0
 10
399.046200
 20
4.656058
 30
0.0
 10
402.323600
 20
5.863288
 30
0.0
 10
405.005000
 20
8.533958
 30
0.0
  0
SPLINE
  5
155
100
AcDbEntity
  8
Layer_1
 62
7
100
AcDbSpline
 70
8
 71
3
 72
8
 73
4
 74
0
 40
0
 40
0
 40
0
 40
0
 40
1
 40
1
 40
1
 40
1
 10
405.005000
 20
8.533958
 30
0.0
 10
406.723000
 20
10.245068
 30
0.0
 10
407.182600
 20
10.414498
 30
0.0
 10
408.149600
 20
9.693238
 30
0.0
  0
SPLINE
  5
156
100
AcDbEntity
  8
Layer_1
 62
7
100
AcDbSpline
 70
8
 71
3
 72
8
 73
4
 74
0
 40
0
 40
0
 40
0
 40
0
 40
1
 40
1
 40
1
 40
1
 10
408.149600
 20
9.693238
 30
0.0
 10
408.960400
 20
9.088468
 30
0.0
 10
408.949800
 20
8.686848
 30
0.0
 10
408.088600
 20
7.390198
 30
0.0
  0
SPLINE
  5
157
100
AcDbEntity
  8
Layer_1
 62
7
100
AcDbSpline
 70
8
 71
3
 72
8
 73
4
 74
0
 40
0
 40
0
 40
0
 40
0
 40
1
 40
1
 40
1
 40
1
 10
408.088600
 20
7.390198
 30
0.0
 10
406.114800
 20
4.417468
 30
0.0
 10
403.314300
 20
2.346518
 30
0.0
 10
399.697400
 20
1.184968
 30
0.0
  0
SPLINE
  5
158
100
AcDbEntity
  8
Layer_1
 62
7
100
AcDbSpline
 70
8
 71
3
 72
8
 73
4
 74
0
 40
0
 40
0
 40
0
 40
0
 40
1
 40
1
 40
1
 40
1
 10
399.697400
 20
1.184968
 30
0.0
 10
398.563200
 20
0.820758
 30
0.0
 10
394.840700
 20
0.268398
 30
0.0
 10
394.106500
 20
0.355368
 30
0.0
  0
SPLINE
  5
159
100
AcDbEntity
  8
Layer_1
 62
7
100
AcDbSpline
 70
8
 71
3
 72
8
 73
4
 74
0
 40
0
 40
0
 40
0
 40
0
 40
1
 40
1
 40
1
 40
1
 10
394.106500
 20
0.355368
 30
0.0
 10
393.990100
 20
0.369168
 30
0.0
 10
393.225400
 20
0.451168
 30
0.0
 10
392.407200
 20
0.537628
 30
0.0
  0
LWPOLYLINE
  5
15a
100
AcDbEntity
  8
Layer_1
 62
7
100
AcDbPolyline
 90
3
 70
0
 10
408.817600
 20
21.906368
 30
0.0
 10
408.817600
 20
20.274168
 30
0.0
 10
407.812200
 20
20.144898
 30
0.0
  0
SPLINE
  5
15b
100
AcDbEntity
  8
Layer_1
 62
7
100
AcDbSpline
 70
8
 71
3
 72
8
 73
4
 74
0
 40
0
 40
0
 40
0
 40
0
 40
1
 40
1
 40
1
 40
1
 10
400.496900
 20
24.528358
 30
0.0
 10
400.773200
 20
24.804658
 30
0.0
 10
400.135300
 20
27.681528
 30
0.0
 10
399.504900
 20
29.002498
 30
0.0
  0
SPLINE
  5
15c
100
AcDbEntity
  8
Layer_1
 62
7
100
AcDbSpline
 70
8
 71
3
 72
8
 73
4
 74
0
 40
0
 40
0
 40
0
 40
0
 40
1
 40
1
 40
1
 40
1
 10
399.504900
 20
29.002498
 30
0.0
 10
398.754500
 20
30.574718
 30
0.0
 10
397.153500
 20
32.261358
 30
0.0
 10
395.760300
 20
32.947308
 30
0.0
  0
SPLINE
  5
15d
100
AcDbEntity
  8
Layer_1
 62
7
100
AcDbSpline
 70
8
 71
3
 72
8
 73
4
 74
0
 40
0
 40
0
 40
0
 40
0
 40
1
 40
1
 40
1
 40
1
 10
395.760300
 20
32.947308
 30
0.0
 10
394.353800
 20
33.639808
 30
0.0
 10
391.760600
 20
33.656728
 30
0.0
 10
390.489100
 20
32.981708
 30
0.0
  0
SPLINE
  5
15e
100
AcDbEntity
  8
Layer_1
 62
7
100
AcDbSpline
 70
8
 71
3
 72
8
 73
4
 74
0
 40
0
 40
0
 40
0
 40
0
 40
1
 40
1
 40
1
 40
1
 10
390.489100
 20
32.981708
 30
0.0
 10
388.427300
 20
31.887098
 30
0.0
 10
386.570900
 20
29.142268
 30
0.0
 10
385.864100
 20
26.143078
 30
0.0
  0
SPLINE
  5
15f
100
AcDbEntity
  8
Layer_1
 62
7
100
AcDbSpline
 70
8
 71
3
 72
8
 73
4
 74
0
 40
0
 40
0
 40
0
 40
0
 40
1
 40
1
 40
1
 40
1
 10
385.864100
 20
26.143078
 30
0.0
 10
385.686100
 20
25.388138
 30
0.0
 10
385.539100
 20
24.703778
 30
0.0
 10
385.537400
 20
24.622268
 30
0.0
  0
SPLINE
  5
160
100
AcDbEntity
  8
Layer_1
 62
7
100
AcDbSpline
 70
8
 71
3
 72
8
 73
4
 74
0
 40
0
 40
0
 40
0
 40
0
 40
1
 40
1
 40
1
 40
1
 10
385.537400
 20
24.622268
 30
0.0
 10
385.537400
 20
24.540768
 30
0.0
 10
386.082000
 20
24.433578
 30
0.0
 10
386.751400
 20
24.384058
 30
0.0
  0
SPLINE
  5
161
100
AcDbEntity
  8
Layer_1
 62
7
100
AcDbSpline
 70
8
 71
3
 72
8
 73
4
 74
0
 40
0
 40
0
 40
0
 40
0
 40
1
 40
1
 40
1
 40
1
 10
386.751400
 20
24.384058
 30
0.0
 10
388.687100
 20
24.240878
 30
0.0
 10
400.331700
 20
24.363158
 30
0.0
 10
400.496900
 20
24.528358
 30
0.0
  0
LWPOLYLINE
  5
162
100
AcDbEntity
  8
Layer_1
 62
7
100
AcDbPolyline
 90
2
 70
0
 10
392.407200
 20
0.537628
 30
0.0
 10
392.407500
 20
0.537628
 30
0.0
  0
SPLINE
  5
163
100
AcDbEntity
  8
Layer_1
 62
7
100
AcDbSpline
 70
8
 71
3
 72
8
 73
4
 74
0
 40
0
 40
0
 40
0
 40
0
 40
1
 40
1
 40
1
 40
1
 10
85.839700
 20
0.981818
 30
0.0
 10
83.932900
 20
1.076518
 30
0.0
 10
82.329000
 20
1.197718
 30
0.0
 10
82.275500
 20
1.251158
 30
0.0
  0
SPLINE
  5
164
100
AcDbEntity
  8
Layer_1
 62
7
100
AcDbSpline
 70
8
 71
3
 72
8
 73
4
 74
0
 40
0
 40
0
 40
0
 40
0
 40
1
 40
1
 40
1
 40
1
 10
82.275500
 20
1.251158
 30
0.0
 10
82.222500
 20
1.304558
 30
0.0
 10
82.090200
 20
1.740518
 30
0.0
 10
81.982500
 20
2.219878
 30
0.0
  0
SPLINE
  5
165
100
AcDbEntity
  8
Layer_1
 62
7
100
AcDbSpline
 70
8
 71
3
 72
8
 73
4
 74
0
 40
0
 40
0
 40
0
 40
0
 40
1
 40
1
 40
1
 40
1
 10
81.982500
 20
2.219878
 30
0.0
 10
81.708600
 20
3.439238
 30
0.0
 10
81.970500
 20
3.793968
 30
0.0
 10
83.755900
 20
4.625308
 30
0.0
  0
SPLINE
  5
166
100
AcDbEntity
  8
Layer_1
 62
7
100
AcDbSpline
 70
8
 71
3
 72
8
 73
4
 74
0
 40
0
 40
0
 40
0
 40
0
 40
1
 40
1
 40
1
 40
1
 10
83.755900
 20
4.625308
 30
0.0
 10
85.525800
 20
5.449258
 30
0.0
 10
86.389700
 20
6.234548
 30
0.0
 10
86.558500
 20
7.172928
 30
0.0
  0
SPLINE
  5
167
100
AcDbEntity
  8
Layer_1
 62
7
100
AcDbSpline
 70
8
 71
3
 72
8
 73
4
 74
0
 40
0
 40
0
 40
0
 40
0
 40
1
 40
1
 40
1
 40
1
 10
86.558500
 20
7.172928
 30
0.0
 10
86.624500
 20
7.538238
 30
0.0
 10
86.650500
 20
18.747468
 30
0.0
 10
86.616500
 20
32.082338
 30
0.0
  0
SPLINE
  5
168
100
AcDbEntity
  8
Layer_1
 62
7
100
AcDbSpline
 70
8
 71
3
 72
8
 73
4
 74
0
 40
0
 40
0
 40
0
 40
0
 40
1
 40
1
 40
1
 40
1
 10
86.616500
 20
32.082338
 30
0.0
 10
86.546500
 20
59.719768
 30
0.0
 10
86.764100
 20
56.987408
 30
0.0
 10
84.544300
 20
58.107958
 30
0.0
  0
SPLINE
  5
169
100
AcDbEntity
  8
Layer_1
 62
7
100
AcDbSpline
 70
8
 71
3
 72
8
 73
4
 74
0
 40
0
 40
0
 40
0
 40
0
 40
1
 40
1
 40
1
 40
1
 10
84.544300
 20
58.107958
 30
0.0
 10
83.003600
 20
58.885718
 30
0.0
 10
82.560300
 20
59.482358
 30
0.0
 10
82.754400
 20
60.517078
 30
0.0
  0
SPLINE
  5
16a
100
AcDbEntity
  8
Layer_1
 62
7
100
AcDbSpline
 70
8
 71
3
 72
8
 73
4
 74
0
 40
0
 40
0
 40
0
 40
0
 40
1
 40
1
 40
1
 40
1
 10
82.754400
 20
60.517078
 30
0.0
 10
82.832400
 20
60.930018
 30
0.0
 10
83.012000
 20
61.364808
 30
0.0
 10
83.154800
 20
61.483278
 30
0.0
  0
SPLINE
  5
16b
100
AcDbEntity
  8
Layer_1
 62
7
100
AcDbSpline
 70
8
 71
3
 72
8
 73
4
 74
0
 40
0
 40
0
 40
0
 40
0
 40
1
 40
1
 40
1
 40
1
 10
83.154800
 20
61.483278
 30
0.0
 10
83.571700
 20
61.829318
 30
0.0
 10
96.220100
 20
62.400948
 30
0.0
 10
100.736800
 20
62.277888
 30
0.0
  0
SPLINE
  5
16c
100
AcDbEntity
  8
Layer_1
 62
7
100
AcDbSpline
 70
8
 71
3
 72
8
 73
4
 74
0
 40
0
 40
0
 40
0
 40
0
 40
1
 40
1
 40
1
 40
1
 10
100.736800
 20
62.277888
 30
0.0
 10
110.879300
 20
62.001558
 30
0.0
 10
118.136100
 20
59.333708
 30
0.0
 10
124.216300
 20
53.645968
 30
0.0
  0
SPLINE
  5
16d
100
AcDbEntity
  8
Layer_1
 62
7
100
AcDbSpline
 70
8
 71
3
 72
8
 73
4
 74
0
 40
0
 40
0
 40
0
 40
0
 40
1
 40
1
 40
1
 40
1
 10
124.216300
 20
53.645968
 30
0.0
 10
127.055500
 20
50.989988
 30
0.0
 10
129.689000
 20
46.795748
 30
0.0
 10
130.983600
 20
42.867958
 30
0.0
  0
SPLINE
  5
16e
100
AcDbEntity
  8
Layer_1
 62
7
100
AcDbSpline
 70
8
 71
3
 72
8
 73
4
 74
0
 40
0
 40
0
 40
0
 40
0
 40
1
 40
1
 40
1
 40
1
 10
130.983600
 20
42.867958
 30
0.0
 10
132.767400
 20
37.456238
 30
0.0
 10
133.224400
 20
29.543488
 30
0.0
 10
132.069900
 20
24.062058
 30
0.0
  0
SPLINE
  5
16f
100
AcDbEntity
  8
Layer_1
 62
7
100
AcDbSpline
 70
8
 71
3
 72
8
 73
4
 74
0
 40
0
 40
0
 40
0
 40
0
 40
1
 40
1
 40
1
 40
1
 10
132.069900
 20
24.062058
 30
0.0
 10
129.514300
 20
11.928458
 30
0.0
 10
120.344100
 20
3.822928
 30
0.0
 10
106.557600
 20
1.511578
 30
0.0
  0
SPLINE
  5
170
100
AcDbEntity
  8
Layer_1
 62
7
100
AcDbSpline
 70
8
 71
3
 72
8
 73
4
 74
0
 40
0
 40
0
 40
0
 40
0
 40
1
 40
1
 40
1
 40
1
 10
106.557600
 20
1.511578
 30
0.0
 10
102.022700
 20
0.751288
 30
0.0
 10
94.404900
 20
0.556498
 30
0.0
 10
85.839700
 20
0.981818
 30
0.0
  0
LWPOLYLINE
  5
171
100
AcDbEntity
  8
Layer_1
 62
7
100
AcDbPolyline
 90
1
 70
1
 10
400.496900
 20
24.528358
 30
0.0
  0
SPLINE
  5
172
100
AcDbEntity
  8
Layer_1
 62
7
100
AcDbSpline
 70
8
 71
3
 72
8
 73
4
 74
0
 40
0
 40
0
 40
0
 40
0
 40
1
 40
1
 40
1
 40
1
 10
106.779800
 20
6.370028
 30
0.0
 10
110.858100
 20
7.143678
 30
0.0
 10
113.936000
 20
8.775148
 30
0.0
 10
116.649500
 20
11.601558
 30
0.0
  0
SPLINE
  5
173
100
AcDbEntity
  8
Layer_1
 62
7
100
AcDbSpline
 70
8
 71
3
 72
8
 73
4
 74
0
 40
0
 40
0
 40
0
 40
0
 40
1
 40
1
 40
1
 40
1
 10
116.649500
 20
11.601558
 30
0.0
 10
120.125700
 20
15.222498
 30
0.0
 10
121.658500
 20
19.498568
 30
0.0
 10
122.249300
 20
27.223728
 30
0.0
  0
SPLINE
  5
174
100
AcDbEntity
  8
Layer_1
 62
7
100
AcDbSpline
 70
8
 71
3
 72
8
 73
4
 74
0
 40
0
 40
0
 40
0
 40
0
 40
1
 40
1
 40
1
 40
1
 10
122.249300
 20
27.223728
 30
0.0
 10
122.528300
 20
30.871608
 30
0.0
 10
122.299300
 20
35.871638
 30
0.0
 10
121.693200
 20
39.375458
 30
0.0
  0
SPLINE
  5
175
100
AcDbEntity
  8
Layer_1
 62
7
100
AcDbSpline
 70
8
 71
3
 72
8
 73
4
 74
0
 40
0
 40
0
 40
0
 40
0
 40
1
 40
1
 40
1
 40
1
 10
121.693200
 20
39.375458
 30
0.0
 10
120.332300
 20
47.241178
 30
0.0
 10
116.733400
 20
52.942838
 30
0.0
 10
111.531800
 20
55.473988
 30
0.0
  0
SPLINE
  5
176
100
AcDbEntity
  8
Layer_1
 62
7
100
AcDbSpline
 70
8
 71
3
 72
8
 73
4
 74
0
 40
0
 40
0
 40
0
 40
0
 40
1
 40
1
 40
1
 40
1
 10
111.531800
 20
55.473988
 30
0.0
 10
107.464200
 20
57.453308
 30
0.0
 10
100.634200
 20
58.248698
 30
0.0
 10
96.715100
 20
57.199478
 30
0.0
  0
LWPOLYLINE
  5
177
100
AcDbEntity
  8
Layer_1
 62
7
100
AcDbPolyline
 90
1
 70
1
 10
85.839700
 20
0.981818
 30
0.0
  0
SPLINE
  5
178
100
AcDbEntity
  8
Layer_1
 62
7
100
AcDbSpline
 70
8
 71
3
 72
8
 73
4
 74
0
 40
0
 40
0
 40
0
 40
0
 40
1
 40
1
 40
1
 40
1
 10
96.237600
 20
6.787638
 30
0.0
 10
96.616400
 20
6.723538
 30
0.0
 10
97.688400
 20
6.539048
 30
0.0
 10
98.619700
 20
6.377618
 30
0.0
  0
SPLINE
  5
179
100
AcDbEntity
  8
Layer_1
 62
7
100
AcDbSpline
 70
8
 71
3
 72
8
 73
4
 74
0
 40
0
 40
0
 40
0
 40
0
 40
1
 40
1
 40
1
 40
1
 10
98.619700
 20
6.377618
 30
0.0
 10
100.960300
 20
5.971898
 30
0.0
 10
104.662400
 20
5.968458
 30
0.0
 10
106.779400
 20
6.369618
 30
0.0
  0
LWPOLYLINE
  5
17a
100
AcDbEntity
  8
Layer_1
 62
7
100
AcDbPolyline
 90
5
 70
0
 10
96.715100
 20
57.199478
 30
0.0
 10
95.656800
 20
56.916138
 30
0.0
 10
95.602800
 20
31.910138
 30
0.0
 10
95.548800
 20
6.904128
 30
0.0
 10
96.237600
 20
6.787638
 30
0.0
  0
SPLINE
  5
17b
100
AcDbEntity
  8
Layer_1
 62
7
100
AcDbSpline
 70
8
 71
3
 72
8
 73
4
 74
0
 40
0
 40
0
 40
0
 40
0
 40
1
 40
1
 40
1
 40
1
 10
142.200600
 20
1.147448
 30
0.0
 10
138.694900
 20
2.009558
 30
0.0
 10
135.828800
 20
4.000188
 30
0.0
 10
134.489700
 20
6.503068
 30
0.0
  0
SPLINE
  5
17c
100
AcDbEntity
  8
Layer_1
 62
7
100
AcDbSpline
 70
8
 71
3
 72
8
 73
4
 74
0
 40
0
 40
0
 40
0
 40
0
 40
1
 40
1
 40
1
 40
1
 10
134.489700
 20
6.503068
 30
0.0
 10
133.857500
 20
7.684768
 30
0.0
 10
133.765800
 20
8.064318
 30
0.0
 10
133.686800
 20
9.826568
 30
0.0
  0
SPLINE
  5
17d
100
AcDbEntity
  8
Layer_1
 62
7
100
AcDbSpline
 70
8
 71
3
 72
8
 73
4
 74
0
 40
0
 40
0
 40
0
 40
0
 40
1
 40
1
 40
1
 40
1
 10
133.686800
 20
9.826568
 30
0.0
 10
133.538700
 20
13.132928
 30
0.0
 10
134.300600
 20
15.465188
 30
0.0
 10
136.212300
 20
17.556808
 30
0.0
  0
SPLINE
  5
17e
100
AcDbEntity
  8
Layer_1
 62
7
100
AcDbSpline
 70
8
 71
3
 72
8
 73
4
 74
0
 40
0
 40
0
 40
0
 40
0
 40
1
 40
1
 40
1
 40
1
 10
136.212300
 20
17.556808
 30
0.0
 10
138.134100
 20
19.659568
 30
0.0
 10
140.589300
 20
20.933478
 30
0.0
 10
144.975100
 20
22.103558
 30
0.0
  0
SPLINE
  5
17f
100
AcDbEntity
  8
Layer_1
 62
7
100
AcDbSpline
 70
8
 71
3
 72
8
 73
4
 74
0
 40
0
 40
0
 40
0
 40
0
 40
1
 40
1
 40
1
 40
1
 10
144.975100
 20
22.103558
 30
0.0
 10
148.551700
 20
23.057718
 30
0.0
 10
150.488000
 20
23.415518
 30
0.0
 10
152.912600
 20
23.570278
 30
0.0
  0
LWPOLYLINE
  5
180
100
AcDbEntity
  8
Layer_1
 62
7
100
AcDbPolyline
 90
2
 70
0
 10
106.779400
 20
6.369618
 30
0.0
 10
106.779800
 20
6.370028
 30
0.0
  0
SPLINE
  5
181
100
AcDbEntity
  8
Layer_1
 62
7
100
AcDbSpline
 70
8
 71
3
 72
8
 73
4
 74
0
 40
0
 40
0
 40
0
 40
0
 40
1
 40
1
 40
1
 40
1
 10
155.135100
 20
26.675458
 30
0.0
 10
155.135100
 20
29.510138
 30
0.0
 10
155.110100
 20
29.680788
 30
0.0
 10
154.566400
 20
30.606148
 30
0.0
  0
SPLINE
  5
182
100
AcDbEntity
  8
Layer_1
 62
7
100
AcDbSpline
 70
8
 71
3
 72
8
 73
4
 74
0
 40
0
 40
0
 40
0
 40
0
 40
1
 40
1
 40
1
 40
1
 10
154.566400
 20
30.606148
 30
0.0
 10
153.970300
 20
31.620158
 30
0.0
 10
152.959600
 20
32.437708
 30
0.0
 10
151.536800
 20
33.056738
 30
0.0
  0
SPLINE
  5
183
100
AcDbEntity
  8
Layer_1
 62
7
100
AcDbSpline
 70
8
 71
3
 72
8
 73
4
 74
0
 40
0
 40
0
 40
0
 40
0
 40
1
 40
1
 40
1
 40
1
 10
151.536800
 20
33.056738
 30
0.0
 10
150.322900
 20
33.584898
 30
0.0
 10
147.138100
 20
33.589568
 30
0.0
 10
146.176100
 20
33.064738
 30
0.0
  0
SPLINE
  5
184
100
AcDbEntity
  8
Layer_1
 62
7
100
AcDbSpline
 70
8
 71
3
 72
8
 73
4
 74
0
 40
0
 40
0
 40
0
 40
0
 40
1
 40
1
 40
1
 40
1
 10
146.176100
 20
33.064738
 30
0.0
 10
145.471100
 20
32.680028
 30
0.0
 10
144.452600
 20
30.936538
 30
0.0
 10
144.448000
 20
30.106738
 30
0.0
  0
SPLINE
  5
185
100
AcDbEntity
  8
Layer_1
 62
7
100
AcDbSpline
 70
8
 71
3
 72
8
 73
4
 74
0
 40
0
 40
0
 40
0
 40
0
 40
1
 40
1
 40
1
 40
1
 10
144.448000
 20
30.106738
 30
0.0
 10
144.448000
 20
29.565538
 30
0.0
 10
143.726800
 20
28.237528
 30
0.0
 10
143.143600
 20
27.695108
 30
0.0
  0
SPLINE
  5
186
100
AcDbEntity
  8
Layer_1
 62
7
100
AcDbSpline
 70
8
 71
3
 72
8
 73
4
 74
0
 40
0
 40
0
 40
0
 40
0
 40
1
 40
1
 40
1
 40
1
 10
143.143600
 20
27.695108
 30
0.0
 10
142.434200
 20
27.035198
 30
0.0
 10
141.629500
 20
26.781268
 30
0.0
 10
140.251800
 20
26.782508
 30
0.0
  0
SPLINE
  5
187
100
AcDbEntity
  8
Layer_1
 62
7
100
AcDbSpline
 70
8
 71
3
 72
8
 73
4
 74
0
 40
0
 40
0
 40
0
 40
0
 40
1
 40
1
 40
1
 40
1
 10
140.251800
 20
26.782508
 30
0.0
 10
138.480200
 20
26.784508
 30
0.0
 10
137.024700
 20
27.791068
 30
0.0
 10
136.393200
 20
29.451948
 30
0.0
  0
SPLINE
  5
188
100
AcDbEntity
  8
Layer_1
 62
7
100
AcDbSpline
 70
8
 71
3
 72
8
 73
4
 74
0
 40
0
 40
0
 40
0
 40
0
 40
1
 40
1
 40
1
 40
1
 10
136.393200
 20
29.451948
 30
0.0
 10
135.862800
 20
30.846978
 30
0.0
 10
137.250800
 20
33.194498
 30
0.0
 10
139.524900
 20
34.748818
 30
0.0
  0
SPLINE
  5
189
100
AcDbEntity
  8
Layer_1
 62
7
100
AcDbSpline
 70
8
 71
3
 72
8
 73
4
 74
0
 40
0
 40
0
 40
0
 40
0
 40
1
 40
1
 40
1
 40
1
 10
139.524900
 20
34.748818
 30
0.0
 10
142.080900
 20
36.495758
 30
0.0
 10
146.292900
 20
37.327748
 30
0.0
 10
150.645100
 20
36.945378
 30
0.0
  0
SPLINE
  5
18a
100
AcDbEntity
  8
Layer_1
 62
7
100
AcDbSpline
 70
8
 71
3
 72
8
 73
4
 74
0
 40
0
 40
0
 40
0
 40
0
 40
1
 40
1
 40
1
 40
1
 10
150.645100
 20
36.945378
 30
0.0
 10
155.798100
 20
36.492648
 30
0.0
 10
159.094600
 20
34.835188
 30
0.0
 10
160.933600
 20
31.772338
 30
0.0
  0
SPLINE
  5
18b
100
AcDbEntity
  8
Layer_1
 62
7
100
AcDbSpline
 70
8
 71
3
 72
8
 73
4
 74
0
 40
0
 40
0
 40
0
 40
0
 40
1
 40
1
 40
1
 40
1
 10
160.933600
 20
31.772338
 30
0.0
 10
162.301600
 20
29.494078
 30
0.0
 10
162.429800
 20
28.608508
 30
0.0
 10
162.651300
 20
19.902258
 30
0.0
  0
SPLINE
  5
18c
100
AcDbEntity
  8
Layer_1
 62
7
100
AcDbSpline
 70
8
 71
3
 72
8
 73
4
 74
0
 40
0
 40
0
 40
0
 40
0
 40
1
 40
1
 40
1
 40
1
 10
162.651300
 20
19.902258
 30
0.0
 10
162.984500
 20
6.807518
 30
0.0
 10
162.919400
 20
7.276998
 30
0.0
 10
164.556700
 20
6.142058
 30
0.0
  0
SPLINE
  5
18d
100
AcDbEntity
  8
Layer_1
 62
7
100
AcDbSpline
 70
8
 71
3
 72
8
 73
4
 74
0
 40
0
 40
0
 40
0
 40
0
 40
1
 40
1
 40
1
 40
1
 10
164.556700
 20
6.142058
 30
0.0
 10
165.330500
 20
5.605668
 30
0.0
 10
165.681300
 20
5.505748
 30
0.0
 10
166.852300
 20
5.488158
 30
0.0
  0
SPLINE
  5
18e
100
AcDbEntity
  8
Layer_1
 62
7
100
AcDbSpline
 70
8
 71
3
 72
8
 73
4
 74
0
 40
0
 40
0
 40
0
 40
0
 40
1
 40
1
 40
1
 40
1
 10
166.852300
 20
5.488158
 30
0.0
 10
168.427700
 20
5.464458
 30
0.0
 10
168.830000
 20
5.130788
 30
0.0
 10
168.830000
 20
3.847448
 30
0.0
  0
SPLINE
  5
18f
100
AcDbEntity
  8
Layer_1
 62
7
100
AcDbSpline
 70
8
 71
3
 72
8
 73
4
 74
0
 40
0
 40
0
 40
0
 40
0
 40
1
 40
1
 40
1
 40
1
 10
168.830000
 20
3.847448
 30
0.0
 10
168.830000
 20
2.296488
 30
0.0
 10
167.486400
 20
1.431478
 30
0.0
 10
164.312500
 20
0.939028
 30
0.0
  0
SPLINE
  5
190
100
AcDbEntity
  8
Layer_1
 62
7
100
AcDbSpline
 70
8
 71
3
 72
8
 73
4
 74
0
 40
0
 40
0
 40
0
 40
0
 40
1
 40
1
 40
1
 40
1
 10
164.312500
 20
0.939028
 30
0.0
 10
161.536400
 20
0.508308
 30
0.0
 10
160.062100
 20
1.098998
 30
0.0
 10
158.002300
 20
3.467138
 30
0.0
  0
SPLINE
  5
191
100
AcDbEntity
  8
Layer_1
 62
7
100
AcDbSpline
 70
8
 71
3
 72
8
 73
4
 74
0
 40
0
 40
0
 40
0
 40
0
 40
1
 40
1
 40
1
 40
1
 10
158.002300
 20
3.467138
 30
0.0
 10
156.639100
 20
5.034498
 30
0.0
 10
155.931400
 20
5.185168
 30
0.0
 10
154.915100
 20
4.124398
 30
0.0
  0
SPLINE
  5
192
100
AcDbEntity
  8
Layer_1
 62
7
100
AcDbSpline
 70
8
 71
3
 72
8
 73
4
 74
0
 40
0
 40
0
 40
0
 40
0
 40
1
 40
1
 40
1
 40
1
 10
154.915100
 20
4.124398
 30
0.0
 10
153.357900
 20
2.499008
 30
0.0
 10
150.702200
 20
1.372108
 30
0.0
 10
147.504900
 20
0.979988
 30
0.0
  0
SPLINE
  5
193
100
AcDbEntity
  8
Layer_1
 62
7
100
AcDbSpline
 70
8
 71
3
 72
8
 73
4
 74
0
 40
0
 40
0
 40
0
 40
0
 40
1
 40
1
 40
1
 40
1
 10
147.504900
 20
0.979988
 30
0.0
 10
144.999400
 20
0.672718
 30
0.0
 10
144.003600
 20
0.704188
 30
0.0
 10
142.200600
 20
1.147588
 30
0.0
  0
LWPOLYLINE
  5
194
100
AcDbEntity
  8
Layer_1
 62
7
100
AcDbPolyline
 90
3
 70
0
 10
152.912600
 20
23.570278
 30
0.0
 10
155.135100
 20
23.712128
 30
0.0
 10
155.135100
 20
26.675458
 30
0.0
  0
SPLINE
  5
195
100
AcDbEntity
  8
Layer_1
 62
7
100
AcDbSpline
 70
8
 71
3
 72
8
 73
4
 74
0
 40
0
 40
0
 40
0
 40
0
 40
1
 40
1
 40
1
 40
1
 10
151.065000
 20
5.899128
 30
0.0
 10
152.530700
 20
6.616268
 30
0.0
 10
154.216400
 20
8.410078
 30
0.0
 10
154.718900
 20
9.787528
 30
0.0
  0
SPLINE
  5
196
100
AcDbEntity
  8
Layer_1
 62
7
100
AcDbSpline
 70
8
 71
3
 72
8
 73
4
 74
0
 40
0
 40
0
 40
0
 40
0
 40
1
 40
1
 40
1
 40
1
 10
154.718900
 20
9.787528
 30
0.0
 10
155.012000
 20
10.590918
 30
0.0
 10
155.109200
 20
11.733818
 30
0.0
 10
155.188600
 20
15.312448
 30
0.0
  0
LWPOLYLINE
  5
197
100
AcDbEntity
  8
Layer_1
 62
7
100
AcDbPolyline
 90
2
 70
0
 10
142.200600
 20
1.147588
 30
0.0
 10
142.200600
 20
1.147448
 30
0.0
  0
SPLINE
  5
198
100
AcDbEntity
  8
Layer_1
 62
7
100
AcDbSpline
 70
8
 71
3
 72
8
 73
4
 74
0
 40
0
 40
0
 40
0
 40
0
 40
1
 40
1
 40
1
 40
1
 10
154.576900
 20
19.704888
 30
0.0
 10
154.185400
 20
19.639188
 30
0.0
 10
152.916100
 20
19.438868
 30
0.0
 10
151.756100
 20
19.259838
 30
0.0
  0
SPLINE
  5
199
100
AcDbEntity
  8
Layer_1
 62
7
100
AcDbSpline
 70
8
 71
3
 72
8
 73
4
 74
0
 40
0
 40
0
 40
0
 40
0
 40
1
 40
1
 40
1
 40
1
 10
151.756100
 20
19.259838
 30
0.0
 10
146.197200
 20
18.401858
 30
0.0
 10
143.154200
 20
16.671768
 30
0.0
 10
142.211400
 20
13.833208
 30
0.0
  0
SPLINE
  5
19a
100
AcDbEntity
  8
Layer_1
 62
7
100
AcDbSpline
 70
8
 71
3
 72
8
 73
4
 74
0
 40
0
 40
0
 40
0
 40
0
 40
1
 40
1
 40
1
 40
1
 10
142.211400
 20
13.833208
 30
0.0
 10
141.790300
 20
12.565498
 30
0.0
 10
141.750900
 20
10.097268
 30
0.0
 10
142.131400
 20
8.827238
 30
0.0
  0
SPLINE
  5
19b
100
AcDbEntity
  8
Layer_1
 62
7
100
AcDbSpline
 70
8
 71
3
 72
8
 73
4
 74
0
 40
0
 40
0
 40
0
 40
0
 40
1
 40
1
 40
1
 40
1
 10
142.131400
 20
8.827238
 30
0.0
 10
142.522200
 20
7.522678
 30
0.0
 10
143.811100
 20
6.151578
 30
0.0
 10
145.141300
 20
5.625268
 30
0.0
  0
SPLINE
  5
19c
100
AcDbEntity
  8
Layer_1
 62
7
100
AcDbSpline
 70
8
 71
3
 72
8
 73
4
 74
0
 40
0
 40
0
 40
0
 40
0
 40
1
 40
1
 40
1
 40
1
 10
145.141300
 20
5.625268
 30
0.0
 10
146.773000
 20
4.979668
 30
0.0
 10
149.437400
 20
5.102848
 30
0.0
 10
151.065000
 20
5.899128
 30
0.0
  0
LWPOLYLINE
  5
19d
100
AcDbEntity
  8
Layer_1
 62
7
100
AcDbPolyline
 90
3
 70
0
 10
155.188600
 20
15.312448
 30
0.0
 10
155.288700
 20
19.824438
 30
0.0
 10
154.576900
 20
19.704888
 30
0.0
  0
SPLINE
  5
19e
100
AcDbEntity
  8
Layer_1
 62
7
100
AcDbSpline
 70
8
 71
3
 72
8
 73
4
 74
0
 40
0
 40
0
 40
0
 40
0
 40
1
 40
1
 40
1
 40
1
 10
201.701800
 20
1.042978
 30
0.0
 10
198.985400
 20
1.665308
 30
0.0
 10
196.161200
 20
3.169878
 30
0.0
 10
194.800700
 20
4.719458
 30
0.0
  0
SPLINE
  5
19f
100
AcDbEntity
  8
Layer_1
 62
7
100
AcDbSpline
 70
8
 71
3
 72
8
 73
4
 74
0
 40
0
 40
0
 40
0
 40
0
 40
1
 40
1
 40
1
 40
1
 10
194.800700
 20
4.719458
 30
0.0
 10
194.429200
 20
5.142568
 30
0.0
 10
193.829700
 20
6.112378
 30
0.0
 10
193.468500
 20
6.874598
 30
0.0
  0
SPLINE
  5
1a0
100
AcDbEntity
  8
Layer_1
 62
7
100
AcDbSpline
 70
8
 71
3
 72
8
 73
4
 74
0
 40
0
 40
0
 40
0
 40
0
 40
1
 40
1
 40
1
 40
1
 10
193.468500
 20
6.874598
 30
0.0
 10
192.851600
 20
8.176418
 30
0.0
 10
192.813100
 20
8.401658
 30
0.0
 10
192.832700
 20
10.588788
 30
0.0
  0
SPLINE
  5
1a1
100
AcDbEntity
  8
Layer_1
 62
7
100
AcDbSpline
 70
8
 71
3
 72
8
 73
4
 74
0
 40
0
 40
0
 40
0
 40
0
 40
1
 40
1
 40
1
 40
1
 10
192.832700
 20
10.588788
 30
0.0
 10
192.848700
 20
12.406348
 30
0.0
 10
192.953700
 20
13.191978
 30
0.0
 10
193.309900
 20
14.170038
 30
0.0
  0
SPLINE
  5
1a2
100
AcDbEntity
  8
Layer_1
 62
7
100
AcDbSpline
 70
8
 71
3
 72
8
 73
4
 74
0
 40
0
 40
0
 40
0
 40
0
 40
1
 40
1
 40
1
 40
1
 10
193.309900
 20
14.170038
 30
0.0
 10
194.214800
 20
16.654838
 30
0.0
 10
195.777400
 20
18.477398
 30
0.0
 10
198.297100
 20
19.986678
 30
0.0
  0
SPLINE
  5
1a3
100
AcDbEntity
  8
Layer_1
 62
7
100
AcDbSpline
 70
8
 71
3
 72
8
 73
4
 74
0
 40
0
 40
0
 40
0
 40
0
 40
1
 40
1
 40
1
 40
1
 10
198.297100
 20
19.986678
 30
0.0
 10
200.864400
 20
21.524418
 30
0.0
 10
207.517900
 20
23.300828
 30
0.0
 10
211.597200
 20
23.537628
 30
0.0
  0
LWPOLYLINE
  5
1a4
100
AcDbEntity
  8
Layer_1
 62
7
100
AcDbPolyline
 90
1
 70
1
 10
151.065000
 20
5.899128
 30
0.0
  0
SPLINE
  5
1a5
100
AcDbEntity
  8
Layer_1
 62
7
100
AcDbSpline
 70
8
 71
3
 72
8
 73
4
 74
0
 40
0
 40
0
 40
0
 40
0
 40
1
 40
1
 40
1
 40
1
 10
213.872600
 20
26.534508
 30
0.0
 10
213.872600
 20
28.998068
 30
0.0
 10
213.811600
 20
29.525938
 30
0.0
 10
213.434900
 20
30.303498
 30
0.0
  0
SPLINE
  5
1a6
100
AcDbEntity
  8
Layer_1
 62
7
100
AcDbSpline
 70
8
 71
3
 72
8
 73
4
 74
0
 40
0
 40
0
 40
0
 40
0
 40
1
 40
1
 40
1
 40
1
 10
213.434900
 20
30.303498
 30
0.0
 10
212.578200
 20
32.073248
 30
0.0
 10
210.569500
 20
33.317918
 30
0.0
 10
208.276400
 20
33.499978
 30
0.0
  0
SPLINE
  5
1a7
100
AcDbEntity
  8
Layer_1
 62
7
100
AcDbSpline
 70
8
 71
3
 72
8
 73
4
 74
0
 40
0
 40
0
 40
0
 40
0
 40
1
 40
1
 40
1
 40
1
 10
208.276400
 20
33.499978
 30
0.0
 10
205.630400
 20
33.710058
 30
0.0
 10
204.359200
 20
32.871368
 30
0.0
 10
203.695500
 20
30.477738
 30
0.0
  0
SPLINE
  5
1a8
100
AcDbEntity
  8
Layer_1
 62
7
100
AcDbSpline
 70
8
 71
3
 72
8
 73
4
 74
0
 40
0
 40
0
 40
0
 40
0
 40
1
 40
1
 40
1
 40
1
 10
203.695500
 20
30.477738
 30
0.0
 10
202.982200
 20
27.905508
 30
0.0
 10
201.617200
 20
26.794188
 30
0.0
 10
199.161800
 20
26.786728
 30
0.0
  0
SPLINE
  5
1a9
100
AcDbEntity
  8
Layer_1
 62
7
100
AcDbSpline
 70
8
 71
3
 72
8
 73
4
 74
0
 40
0
 40
0
 40
0
 40
0
 40
1
 40
1
 40
1
 40
1
 10
199.161800
 20
26.786728
 30
0.0
 10
197.622100
 20
26.781728
 30
0.0
 10
196.786900
 20
27.227508
 30
0.0
 10
195.942300
 20
28.503928
 30
0.0
  0
SPLINE
  5
1aa
100
AcDbEntity
  8
Layer_1
 62
7
100
AcDbSpline
 70
8
 71
3
 72
8
 73
4
 74
0
 40
0
 40
0
 40
0
 40
0
 40
1
 40
1
 40
1
 40
1
 10
195.942300
 20
28.503928
 30
0.0
 10
194.871700
 20
30.121918
 30
0.0
 10
195.384300
 20
32.033548
 30
0.0
 10
197.418000
 20
34.007148
 30
0.0
  0
SPLINE
  5
1ab
100
AcDbEntity
  8
Layer_1
 62
7
100
AcDbSpline
 70
8
 71
3
 72
8
 73
4
 74
0
 40
0
 40
0
 40
0
 40
0
 40
1
 40
1
 40
1
 40
1
 10
197.418000
 20
34.007148
 30
0.0
 10
198.367100
 20
34.928238
 30
0.0
 10
200.696800
 20
36.114298
 30
0.0
 10
202.336800
 20
36.511348
 30
0.0
  0
SPLINE
  5
1ac
100
AcDbEntity
  8
Layer_1
 62
7
100
AcDbSpline
 70
8
 71
3
 72
8
 73
4
 74
0
 40
0
 40
0
 40
0
 40
0
 40
1
 40
1
 40
1
 40
1
 10
202.336800
 20
36.511348
 30
0.0
 10
205.246500
 20
37.215808
 30
0.0
 10
210.180600
 20
37.168768
 30
0.0
 10
213.131800
 20
36.408448
 30
0.0
  0
SPLINE
  5
1ad
100
AcDbEntity
  8
Layer_1
 62
7
100
AcDbSpline
 70
8
 71
3
 72
8
 73
4
 74
0
 40
0
 40
0
 40
0
 40
0
 40
1
 40
1
 40
1
 40
1
 10
213.131800
 20
36.408448
 30
0.0
 10
216.392700
 20
35.568318
 30
0.0
 10
219.117800
 20
33.615388
 30
0.0
 10
220.308800
 20
31.265058
 30
0.0
  0
SPLINE
  5
1ae
100
AcDbEntity
  8
Layer_1
 62
7
100
AcDbSpline
 70
8
 71
3
 72
8
 73
4
 74
0
 40
0
 40
0
 40
0
 40
0
 40
1
 40
1
 40
1
 40
1
 10
220.308800
 20
31.265058
 30
0.0
 10
221.420300
 20
29.071738
 30
0.0
 10
221.500900
 20
28.371248
 30
0.0
 10
221.823800
 20
18.107698
 30
0.0
  0
SPLINE
  5
1af
100
AcDbEntity
  8
Layer_1
 62
7
100
AcDbSpline
 70
8
 71
3
 72
8
 73
4
 74
0
 40
0
 40
0
 40
0
 40
0
 40
1
 40
1
 40
1
 40
1
 10
221.823800
 20
18.107698
 30
0.0
 10
221.991300
 20
12.781398
 30
0.0
 10
222.227100
 20
8.176928
 30
0.0
 10
222.351700
 20
7.799528
 30
0.0
  0
SPLINE
  5
1b0
100
AcDbEntity
  8
Layer_1
 62
7
100
AcDbSpline
 70
8
 71
3
 72
8
 73
4
 74
0
 40
0
 40
0
 40
0
 40
0
 40
1
 40
1
 40
1
 40
1
 10
222.351700
 20
7.799528
 30
0.0
 10
222.815400
 20
6.394478
 30
0.0
 10
224.785300
 20
5.249448
 30
0.0
 10
226.372600
 20
5.462348
 30
0.0
  0
SPLINE
  5
1b1
100
AcDbEntity
  8
Layer_1
 62
7
100
AcDbSpline
 70
8
 71
3
 72
8
 73
4
 74
0
 40
0
 40
0
 40
0
 40
0
 40
1
 40
1
 40
1
 40
1
 10
226.372600
 20
5.462348
 30
0.0
 10
227.788400
 20
5.652238
 30
0.0
 10
228.308900
 20
4.371098
 30
0.0
 10
227.412900
 20
2.901618
 30
0.0
  0
SPLINE
  5
1b2
100
AcDbEntity
  8
Layer_1
 62
7
100
AcDbSpline
 70
8
 71
3
 72
8
 73
4
 74
0
 40
0
 40
0
 40
0
 40
0
 40
1
 40
1
 40
1
 40
1
 10
227.412900
 20
2.901618
 30
0.0
 10
226.555800
 20
1.495708
 30
0.0
 10
222.826900
 20
0.427688
 30
0.0
 10
220.552600
 20
0.936668
 30
0.0
  0
SPLINE
  5
1b3
100
AcDbEntity
  8
Layer_1
 62
7
100
AcDbSpline
 70
8
 71
3
 72
8
 73
4
 74
0
 40
0
 40
0
 40
0
 40
0
 40
1
 40
1
 40
1
 40
1
 10
220.552600
 20
0.936668
 30
0.0
 10
219.202900
 20
1.238708
 30
0.0
 10
217.462300
 20
2.419158
 30
0.0
 10
216.331200
 20
3.799468
 30
0.0
  0
SPLINE
  5
1b4
100
AcDbEntity
  8
Layer_1
 62
7
100
AcDbSpline
 70
8
 71
3
 72
8
 73
4
 74
0
 40
0
 40
0
 40
0
 40
0
 40
1
 40
1
 40
1
 40
1
 10
216.331200
 20
3.799468
 30
0.0
 10
215.300700
 20
5.057128
 30
0.0
 10
214.858800
 20
5.049258
 30
0.0
 10
213.239500
 20
3.744368
 30
0.0
  0
SPLINE
  5
1b5
100
AcDbEntity
  8
Layer_1
 62
7
100
AcDbSpline
 70
8
 71
3
 72
8
 73
4
 74
0
 40
0
 40
0
 40
0
 40
0
 40
1
 40
1
 40
1
 40
1
 10
213.239500
 20
3.744368
 30
0.0
 10
210.867800
 20
1.833218
 30
0.0
 10
208.669200
 20
1.065948
 30
0.0
 10
204.982600
 20
0.862818
 30
0.0
  0
SPLINE
  5
1b6
100
AcDbEntity
  8
Layer_1
 62
7
100
AcDbSpline
 70
8
 71
3
 72
8
 73
4
 74
0
 40
0
 40
0
 40
0
 40
0
 40
1
 40
1
 40
1
 40
1
 10
204.982600
 20
0.862818
 30
0.0
 10
203.654600
 20
0.789618
 30
0.0
 10
202.540500
 20
0.850818
 30
0.0
 10
201.701800
 20
1.042988
 30
0.0
  0
LWPOLYLINE
  5
1b7
100
AcDbEntity
  8
Layer_1
 62
7
100
AcDbPolyline
 90
3
 70
0
 10
211.597200
 20
23.537628
 30
0.0
 10
213.872600
 20
23.669708
 30
0.0
 10
213.872600
 20
26.534508
 30
0.0
  0
SPLINE
  5
1b8
100
AcDbEntity
  8
Layer_1
 62
7
100
AcDbSpline
 70
8
 71
3
 72
8
 73
4
 74
0
 40
0
 40
0
 40
0
 40
0
 40
1
 40
1
 40
1
 40
1
 10
209.916300
 20
5.820038
 30
0.0
 10
211.358400
 20
6.511298
 30
0.0
 10
212.694100
 20
7.928238
 30
0.0
 10
213.266700
 20
9.374108
 30
0.0
  0
SPLINE
  5
1b9
100
AcDbEntity
  8
Layer_1
 62
7
100
AcDbSpline
 70
8
 71
3
 72
8
 73
4
 74
0
 40
0
 40
0
 40
0
 40
0
 40
1
 40
1
 40
1
 40
1
 10
213.266700
 20
9.374108
 30
0.0
 10
213.703700
 20
10.477728
 30
0.0
 10
213.755000
 20
11.011618
 30
0.0
 10
213.828300
 20
15.213348
 30
0.0
  0
LWPOLYLINE
  5
1ba
100
AcDbEntity
  8
Layer_1
 62
7
100
AcDbPolyline
 90
1
 70
1
 10
201.701800
 20
1.042988
 30
0.0
  0
SPLINE
  5
1bb
100
AcDbEntity
  8
Layer_1
 62
7
100
AcDbSpline
 70
8
 71
3
 72
8
 73
4
 74
0
 40
0
 40
0
 40
0
 40
0
 40
1
 40
1
 40
1
 40
1
 10
213.309100
 20
19.715878
 30
0.0
 10
212.979000
 20
19.648778
 30
0.0
 10
211.756400
 20
19.446118
 30
0.0
 10
210.592200
 20
19.265548
 30
0.0
  0
SPLINE
  5
1bc
100
AcDbEntity
  8
Layer_1
 62
7
100
AcDbSpline
 70
8
 71
3
 72
8
 73
4
 74
0
 40
0
 40
0
 40
0
 40
0
 40
1
 40
1
 40
1
 40
1
 10
210.592200
 20
19.265548
 30
0.0
 10
203.466900
 20
18.160348
 30
0.0
 10
200.698400
 20
15.646118
 30
0.0
 10
201.015200
 20
10.568018
 30
0.0
  0
SPLINE
  5
1bd
100
AcDbEntity
  8
Layer_1
 62
7
100
AcDbSpline
 70
8
 71
3
 72
8
 73
4
 74
0
 40
0
 40
0
 40
0
 40
0
 40
1
 40
1
 40
1
 40
1
 10
201.015200
 20
10.568018
 30
0.0
 10
201.186500
 20
7.822668
 30
0.0
 10
202.290800
 20
6.179968
 30
0.0
 10
204.437000
 20
5.477848
 30
0.0
  0
SPLINE
  5
1be
100
AcDbEntity
  8
Layer_1
 62
7
100
AcDbSpline
 70
8
 71
3
 72
8
 73
4
 74
0
 40
0
 40
0
 40
0
 40
0
 40
1
 40
1
 40
1
 40
1
 10
204.437000
 20
5.477848
 30
0.0
 10
205.777400
 20
5.039338
 30
0.0
 10
208.664100
 20
5.219608
 30
0.0
 10
209.916700
 20
5.820038
 30
0.0
  0
LWPOLYLINE
  5
1bf
100
AcDbEntity
  8
Layer_1
 62
7
100
AcDbPolyline
 90
3
 70
0
 10
213.828300
 20
15.213348
 30
0.0
 10
213.909300
 20
19.837898
 30
0.0
 10
213.309100
 20
19.715878
 30
0.0
  0
SPLINE
  5
1c0
100
AcDbEntity
  8
Layer_1
 62
7
100
AcDbSpline
 70
8
 71
3
 72
8
 73
4
 74
0
 40
0
 40
0
 40
0
 40
0
 40
1
 40
1
 40
1
 40
1
 10
340.766800
 20
0.982228
 30
0.0
 10
337.965100
 20
1.201428
 30
0.0
 10
337.697600
 20
1.340478
 30
0.0
 10
337.697600
 20
2.577568
 30
0.0
  0
SPLINE
  5
1c1
100
AcDbEntity
  8
Layer_1
 62
7
100
AcDbSpline
 70
8
 71
3
 72
8
 73
4
 74
0
 40
0
 40
0
 40
0
 40
0
 40
1
 40
1
 40
1
 40
1
 10
337.697600
 20
2.577568
 30
0.0
 10
337.697600
 20
3.347338
 30
0.0
 10
337.790600
 20
3.454338
 30
0.0
 10
339.245900
 20
4.356098
 30
0.0
  0
SPLINE
  5
1c2
100
AcDbEntity
  8
Layer_1
 62
7
100
AcDbSpline
 70
8
 71
3
 72
8
 73
4
 74
0
 40
0
 40
0
 40
0
 40
0
 40
1
 40
1
 40
1
 40
1
 10
339.245900
 20
4.356098
 30
0.0
 10
341.065200
 20
5.483578
 30
0.0
 10
341.005500
 20
5.070838
 30
0.0
 10
341.288000
 20
18.473558
 30
0.0
  0
LWPOLYLINE
  5
1c3
100
AcDbEntity
  8
Layer_1
 62
7
100
AcDbPolyline
 90
2
 70
0
 10
209.916700
 20
5.820038
 30
0.0
 10
209.916300
 20
5.820038
 30
0.0
  0
SPLINE
  5
1c4
100
AcDbEntity
  8
Layer_1
 62
7
100
AcDbSpline
 70
8
 71
3
 72
8
 73
4
 74
0
 40
0
 40
0
 40
0
 40
0
 40
1
 40
1
 40
1
 40
1
 10
341.044800
 20
31.045898
 30
0.0
 10
340.693200
 20
31.675988
 30
0.0
 10
340.047700
 20
32.257918
 30
0.0
 10
338.755900
 20
33.109458
 30
0.0
  0
SPLINE
  5
1c5
100
AcDbEntity
  8
Layer_1
 62
7
100
AcDbSpline
 70
8
 71
3
 72
8
 73
4
 74
0
 40
0
 40
0
 40
0
 40
0
 40
1
 40
1
 40
1
 40
1
 10
338.755900
 20
33.109458
 30
0.0
 10
337.223400
 20
34.119708
 30
0.0
 10
336.948600
 20
34.389558
 30
0.0
 10
336.901600
 20
34.930458
 30
0.0
  0
SPLINE
  5
1c6
100
AcDbEntity
  8
Layer_1
 62
7
100
AcDbSpline
 70
8
 71
3
 72
8
 73
4
 74
0
 40
0
 40
0
 40
0
 40
0
 40
1
 40
1
 40
1
 40
1
 10
336.901600
 20
34.930458
 30
0.0
 10
336.798700
 20
36.115848
 30
0.0
 10
336.850600
 20
36.131578
 30
0.0
 10
342.175600
 20
36.538498
 30
0.0
  0
SPLINE
  5
1c7
100
AcDbEntity
  8
Layer_1
 62
7
100
AcDbSpline
 70
8
 71
3
 72
8
 73
4
 74
0
 40
0
 40
0
 40
0
 40
0
 40
1
 40
1
 40
1
 40
1
 10
342.175600
 20
36.538498
 30
0.0
 10
344.893200
 20
36.746158
 30
0.0
 10
347.521600
 20
36.957668
 30
0.0
 10
348.016400
 20
37.008508
 30
0.0
  0
LWPOLYLINE
  5
1c8
100
AcDbEntity
  8
Layer_1
 62
7
100
AcDbPolyline
 90
3
 70
0
 10
341.288000
 20
18.473558
 30
0.0
 10
341.534500
 20
30.168338
 30
0.0
 10
341.044800
 20
31.045898
 30
0.0
  0
SPLINE
  5
1c9
100
AcDbEntity
  8
Layer_1
 62
7
100
AcDbSpline
 70
8
 71
3
 72
8
 73
4
 74
0
 40
0
 40
0
 40
0
 40
0
 40
1
 40
1
 40
1
 40
1
 10
348.915900
 20
35.116078
 30
0.0
 10
348.915900
 20
34.024418
 30
0.0
 10
348.962900
 20
33.131238
 30
0.0
 10
349.019900
 20
33.131238
 30
0.0
  0
SPLINE
  5
1ca
100
AcDbEntity
  8
Layer_1
 62
7
100
AcDbSpline
 70
8
 71
3
 72
8
 73
4
 74
0
 40
0
 40
0
 40
0
 40
0
 40
1
 40
1
 40
1
 40
1
 10
349.019900
 20
33.131238
 30
0.0
 10
349.076900
 20
33.131238
 30
0.0
 10
349.577200
 20
33.479818
 30
0.0
 10
350.131200
 20
33.905868
 30
0.0
  0
SPLINE
  5
1cb
100
AcDbEntity
  8
Layer_1
 62
7
100
AcDbSpline
 70
8
 71
3
 72
8
 73
4
 74
0
 40
0
 40
0
 40
0
 40
0
 40
1
 40
1
 40
1
 40
1
 10
350.131200
 20
33.905868
 30
0.0
 10
352.279500
 20
35.558048
 30
0.0
 10
355.176100
 20
36.572908
 30
0.0
 10
358.806700
 20
36.945478
 30
0.0
  0
SPLINE
  5
1cc
100
AcDbEntity
  8
Layer_1
 62
7
100
AcDbSpline
 70
8
 71
3
 72
8
 73
4
 74
0
 40
0
 40
0
 40
0
 40
0
 40
1
 40
1
 40
1
 40
1
 10
358.806700
 20
36.945478
 30
0.0
 10
361.616200
 20
37.233788
 30
0.0
 10
363.580100
 20
36.957678
 30
0.0
 10
365.538300
 20
35.999138
 30
0.0
  0
SPLINE
  5
1cd
100
AcDbEntity
  8
Layer_1
 62
7
100
AcDbSpline
 70
8
 71
3
 72
8
 73
4
 74
0
 40
0
 40
0
 40
0
 40
0
 40
1
 40
1
 40
1
 40
1
 10
365.538300
 20
35.999138
 30
0.0
 10
367.993700
 20
34.797198
 30
0.0
 10
369.523900
 20
33.012498
 30
0.0
 10
370.697900
 20
29.981548
 30
0.0
  0
LWPOLYLINE
  5
1ce
100
AcDbEntity
  8
Layer_1
 62
7
100
AcDbPolyline
 90
3
 70
0
 10
348.016400
 20
37.008508
 30
0.0
 10
348.915900
 20
37.100908
 30
0.0
 10
348.915900
 20
35.116078
 30
0.0
  0
SPLINE
  5
1cf
100
AcDbEntity
  8
Layer_1
 62
7
100
AcDbSpline
 70
8
 71
3
 72
8
 73
4
 74
0
 40
0
 40
0
 40
0
 40
0
 40
1
 40
1
 40
1
 40
1
 10
371.301600
 20
17.679578
 30
0.0
 10
371.342600
 20
10.393808
 30
0.0
 10
371.439700
 20
6.585578
 30
0.0
 10
371.595100
 20
6.196288
 30
0.0
  0
SPLINE
  5
1d0
100
AcDbEntity
  8
Layer_1
 62
7
100
AcDbSpline
 70
8
 71
3
 72
8
 73
4
 74
0
 40
0
 40
0
 40
0
 40
0
 40
1
 40
1
 40
1
 40
1
 10
371.595100
 20
6.196288
 30
0.0
 10
371.734700
 20
5.846528
 30
0.0
 10
372.303700
 20
5.324618
 30
0.0
 10
373.019400
 20
4.889888
 30
0.0
  0
SPLINE
  5
1d1
100
AcDbEntity
  8
Layer_1
 62
7
100
AcDbSpline
 70
8
 71
3
 72
8
 73
4
 74
0
 40
0
 40
0
 40
0
 40
0
 40
1
 40
1
 40
1
 40
1
 10
373.019400
 20
4.889888
 30
0.0
 10
374.812500
 20
3.800588
 30
0.0
 10
375.247900
 20
3.258588
 30
0.0
 10
375.093500
 20
2.307448
 30
0.0
  0
SPLINE
  5
1d2
100
AcDbEntity
  8
Layer_1
 62
7
100
AcDbSpline
 70
8
 71
3
 72
8
 73
4
 74
0
 40
0
 40
0
 40
0
 40
0
 40
1
 40
1
 40
1
 40
1
 10
375.093500
 20
2.307448
 30
0.0
 10
375.023500
 20
1.876338
 30
0.0
 10
374.891400
 20
1.450598
 30
0.0
 10
374.799900
 20
1.361358
 30
0.0
  0
SPLINE
  5
1d3
100
AcDbEntity
  8
Layer_1
 62
7
100
AcDbSpline
 70
8
 71
3
 72
8
 73
4
 74
0
 40
0
 40
0
 40
0
 40
0
 40
1
 40
1
 40
1
 40
1
 10
374.799900
 20
1.361358
 30
0.0
 10
374.425600
 20
0.996498
 30
0.0
 10
367.064300
 20
0.704008
 30
0.0
 10
364.166600
 20
0.938848
 30
0.0
  0
SPLINE
  5
1d4
100
AcDbEntity
  8
Layer_1
 62
7
100
AcDbSpline
 70
8
 71
3
 72
8
 73
4
 74
0
 40
0
 40
0
 40
0
 40
0
 40
1
 40
1
 40
1
 40
1
 10
364.166600
 20
0.938848
 30
0.0
 10
362.600800
 20
1.065748
 30
0.0
 10
361.148200
 20
1.169578
 30
0.0
 10
360.938600
 20
1.169578
 30
0.0
  0
SPLINE
  5
1d5
100
AcDbEntity
  8
Layer_1
 62
7
100
AcDbSpline
 70
8
 71
3
 72
8
 73
4
 74
0
 40
0
 40
0
 40
0
 40
0
 40
1
 40
1
 40
1
 40
1
 10
360.938600
 20
1.169578
 30
0.0
 10
360.629200
 20
1.169578
 30
0.0
 10
360.557600
 20
1.345298
 30
0.0
 10
360.557600
 20
2.104758
 30
0.0
  0
SPLINE
  5
1d6
100
AcDbEntity
  8
Layer_1
 62
7
100
AcDbSpline
 70
8
 71
3
 72
8
 73
4
 74
0
 40
0
 40
0
 40
0
 40
0
 40
1
 40
1
 40
1
 40
1
 10
360.557600
 20
2.104758
 30
0.0
 10
360.557600
 20
3.360058
 30
0.0
 10
360.684300
 20
3.622558
 30
0.0
 10
361.548200
 20
4.156428
 30
0.0
  0
SPLINE
  5
1d7
100
AcDbEntity
  8
Layer_1
 62
7
100
AcDbSpline
 70
8
 71
3
 72
8
 73
4
 74
0
 40
0
 40
0
 40
0
 40
0
 40
1
 40
1
 40
1
 40
1
 10
361.548200
 20
4.156428
 30
0.0
 10
361.953500
 20
4.406908
 30
0.0
 10
362.658400
 20
5.084138
 30
0.0
 10
363.114700
 20
5.661388
 30
0.0
  0
LWPOLYLINE
  5
1d8
100
AcDbEntity
  8
Layer_1
 62
7
100
AcDbPolyline
 90
3
 70
0
 10
370.697900
 20
29.981548
 30
0.0
 10
371.240600
 20
28.580408
 30
0.0
 10
371.301600
 20
17.679578
 30
0.0
  0
SPLINE
  5
1d9
100
AcDbEntity
  8
Layer_1
 62
7
100
AcDbSpline
 70
8
 71
3
 72
8
 73
4
 74
0
 40
0
 40
0
 40
0
 40
0
 40
1
 40
1
 40
1
 40
1
 10
363.944300
 20
16.601828
 30
0.0
 10
363.944300
 20
27.412268
 30
0.0
 10
363.914300
 20
27.721218
 30
0.0
 10
362.703400
 20
29.524608
 30
0.0
  0
SPLINE
  5
1da
100
AcDbEntity
  8
Layer_1
 62
7
100
AcDbSpline
 70
8
 71
3
 72
8
 73
4
 74
0
 40
0
 40
0
 40
0
 40
0
 40
1
 40
1
 40
1
 40
1
 10
362.703400
 20
29.524608
 30
0.0
 10
362.002500
 20
30.568328
 30
0.0
 10
360.668100
 20
31.535448
 30
0.0
 10
359.413500
 20
31.909068
 30
0.0
  0
SPLINE
  5
1db
100
AcDbEntity
  8
Layer_1
 62
7
100
AcDbSpline
 70
8
 71
3
 72
8
 73
4
 74
0
 40
0
 40
0
 40
0
 40
0
 40
1
 40
1
 40
1
 40
1
 10
359.413500
 20
31.909068
 30
0.0
 10
357.951400
 20
32.344478
 30
0.0
 10
354.929200
 20
32.222208
 30
0.0
 10
353.517300
 20
31.670518
 30
0.0
  0
SPLINE
  5
1dc
100
AcDbEntity
  8
Layer_1
 62
7
100
AcDbSpline
 70
8
 71
3
 72
8
 73
4
 74
0
 40
0
 40
0
 40
0
 40
0
 40
1
 40
1
 40
1
 40
1
 10
353.517300
 20
31.670518
 30
0.0
 10
351.387300
 20
30.838268
 30
0.0
 10
349.705100
 20
28.781508
 30
0.0
 10
349.135800
 20
26.313758
 30
0.0
  0
SPLINE
  5
1dd
100
AcDbEntity
  8
Layer_1
 62
7
100
AcDbSpline
 70
8
 71
3
 72
8
 73
4
 74
0
 40
0
 40
0
 40
0
 40
0
 40
1
 40
1
 40
1
 40
1
 10
349.135800
 20
26.313758
 30
0.0
 10
349.014000
 20
25.785638
 30
0.0
 10
348.924100
 20
21.280148
 30
0.0
 10
348.921100
 20
15.550448
 30
0.0
  0
SPLINE
  5
1de
100
AcDbEntity
  8
Layer_1
 62
7
100
AcDbSpline
 70
8
 71
3
 72
8
 73
4
 74
0
 40
0
 40
0
 40
0
 40
0
 40
1
 40
1
 40
1
 40
1
 10
348.921100
 20
15.550448
 30
0.0
 10
348.921100
 20
7.474308
 30
0.0
 10
348.969100
 20
5.622998
 30
0.0
 10
349.209600
 20
5.293908
 30
0.0
  0
SPLINE
  5
1df
100
AcDbEntity
  8
Layer_1
 62
7
100
AcDbSpline
 70
8
 71
3
 72
8
 73
4
 74
0
 40
0
 40
0
 40
0
 40
0
 40
1
 40
1
 40
1
 40
1
 10
349.209600
 20
5.293908
 30
0.0
 10
349.371100
 20
5.073038
 30
0.0
 10
350.204500
 20
4.554768
 30
0.0
 10
351.061700
 20
4.142198
 30
0.0
  0
SPLINE
  5
1e0
100
AcDbEntity
  8
Layer_1
 62
7
100
AcDbSpline
 70
8
 71
3
 72
8
 73
4
 74
0
 40
0
 40
0
 40
0
 40
0
 40
1
 40
1
 40
1
 40
1
 10
351.061700
 20
4.142198
 30
0.0
 10
352.813900
 20
3.298788
 30
0.0
 10
353.099300
 20
2.759698
 30
0.0
 10
352.318900
 20
1.767528
 30
0.0
  0
SPLINE
  5
1e1
100
AcDbEntity
  8
Layer_1
 62
7
100
AcDbSpline
 70
8
 71
3
 72
8
 73
4
 74
0
 40
0
 40
0
 40
0
 40
0
 40
1
 40
1
 40
1
 40
1
 10
352.318900
 20
1.767528
 30
0.0
 10
351.922000
 20
1.262998
 30
0.0
 10
351.729800
 20
1.214958
 30
0.0
 10
349.610100
 20
1.090418
 30
0.0
  0
SPLINE
  5
1e2
100
AcDbEntity
  8
Layer_1
 62
7
100
AcDbSpline
 70
8
 71
3
 72
8
 73
4
 74
0
 40
0
 40
0
 40
0
 40
0
 40
1
 40
1
 40
1
 40
1
 10
349.610100
 20
1.090418
 30
0.0
 10
344.821800
 20
0.809098
 30
0.0
 10
343.228300
 20
0.789598
 30
0.0
 10
340.766800
 20
0.982178
 30
0.0
  0
LWPOLYLINE
  5
1e3
100
AcDbEntity
  8
Layer_1
 62
7
100
AcDbPolyline
 90
3
 70
0
 10
363.114700
 20
5.661388
 30
0.0
 10
363.944300
 20
6.710918
 30
0.0
 10
363.944300
 20
16.601828
 30
0.0
  0
SPLINE
  5
1e4
100
AcDbEntity
  8
Layer_1
 62
7
100
AcDbSpline
 70
8
 71
3
 72
8
 73
4
 74
0
 40
0
 40
0
 40
0
 40
0
 40
1
 40
1
 40
1
 40
1
 10
415.590900
 20
0.859238
 30
0.0
 10
415.299900
 20
0.902438
 30
0.0
 10
414.134300
 20
0.998688
 30
0.0
 10
413.000700
 20
1.073218
 30
0.0
  0
LWPOLYLINE
  5
1e5
100
AcDbEntity
  8
Layer_1
 62
7
100
AcDbPolyline
 90
1
 70
1
 10
340.766800
 20
0.982178
 30
0.0
  0
SPLINE
  5
1e6
100
AcDbEntity
  8
Layer_1
 62
7
100
AcDbSpline
 70
8
 71
3
 72
8
 73
4
 74
0
 40
0
 40
0
 40
0
 40
0
 40
1
 40
1
 40
1
 40
1
 10
411.236700
 20
3.587038
 30
0.0
 10
411.684600
 20
3.945508
 30
0.0
 10
412.561800
 20
4.705048
 30
0.0
 10
413.186000
 20
5.274908
 30
0.0
  0
LWPOLYLINE
  5
1e7
100
AcDbEntity
  8
Layer_1
 62
7
100
AcDbPolyline
 90
5
 70
0
 10
413.000700
 20
1.073218
 30
0.0
 10
410.939500
 20
1.208738
 30
0.0
 10
410.680900
 20
2.072018
 30
0.0
 10
410.422300
 20
2.935298
 30
0.0
 10
411.236700
 20
3.587038
 30
0.0
  0
SPLINE
  5
1e8
100
AcDbEntity
  8
Layer_1
 62
7
100
AcDbSpline
 70
8
 71
3
 72
8
 73
4
 74
0
 40
0
 40
0
 40
0
 40
0
 40
1
 40
1
 40
1
 40
1
 10
413.844700
 20
31.445438
 30
0.0
 10
413.582800
 20
31.833228
 30
0.0
 10
412.892200
 20
32.427468
 30
0.0
 10
412.310100
 20
32.765948
 30
0.0
  0
SPLINE
  5
1e9
100
AcDbEntity
  8
Layer_1
 62
7
100
AcDbSpline
 70
8
 71
3
 72
8
 73
4
 74
0
 40
0
 40
0
 40
0
 40
0
 40
1
 40
1
 40
1
 40
1
 10
412.310100
 20
32.765948
 30
0.0
 10
410.257300
 20
33.959708
 30
0.0
 10
409.693900
 20
34.840248
 30
0.0
 10
410.381400
 20
35.780468
 30
0.0
  0
SPLINE
  5
1ea
100
AcDbEntity
  8
Layer_1
 62
7
100
AcDbSpline
 70
8
 71
3
 72
8
 73
4
 74
0
 40
0
 40
0
 40
0
 40
0
 40
1
 40
1
 40
1
 40
1
 10
410.381400
 20
35.780468
 30
0.0
 10
410.636900
 20
36.129988
 30
0.0
 10
411.308500
 20
36.239118
 30
0.0
 10
415.545600
 20
36.619718
 30
0.0
  0
LWPOLYLINE
  5
1eb
100
AcDbEntity
  8
Layer_1
 62
7
100
AcDbPolyline
 90
5
 70
0
 10
413.186000
 20
5.274908
 30
0.0
 10
414.320900
 20
6.311028
 30
0.0
 10
414.320900
 20
18.525688
 30
0.0
 10
414.320900
 20
30.740348
 30
0.0
 10
413.844700
 20
31.445438
 30
0.0
  0
SPLINE
  5
1ec
100
AcDbEntity
  8
Layer_1
 62
7
100
AcDbSpline
 70
8
 71
3
 72
8
 73
4
 74
0
 40
0
 40
0
 40
0
 40
0
 40
1
 40
1
 40
1
 40
1
 10
420.548100
 20
35.041338
 30
0.0
 10
420.621100
 20
33.932598
 30
0.0
 10
420.738100
 20
32.225158
 30
0.0
 10
420.809100
 20
31.247008
 30
0.0
  0
LWPOLYLINE
  5
1ed
100
AcDbEntity
  8
Layer_1
 62
7
100
AcDbPolyline
 90
3
 70
0
 10
415.545600
 20
36.619718
 30
0.0
 10
420.416100
 20
37.057208
 30
0.0
 10
420.548100
 20
35.041338
 30
0.0
  0
SPLINE
  5
1ee
100
AcDbEntity
  8
Layer_1
 62
7
100
AcDbSpline
 70
8
 71
3
 72
8
 73
4
 74
0
 40
0
 40
0
 40
0
 40
0
 40
1
 40
1
 40
1
 40
1
 10
421.330100
 20
29.977008
 30
0.0
 10
421.545700
 20
30.256658
 30
0.0
 10
422.221500
 20
31.295078
 30
0.0
 10
422.831800
 20
32.284628
 30
0.0
  0
SPLINE
  5
1ef
100
AcDbEntity
  8
Layer_1
 62
7
100
AcDbSpline
 70
8
 71
3
 72
8
 73
4
 74
0
 40
0
 40
0
 40
0
 40
0
 40
1
 40
1
 40
1
 40
1
 10
422.831800
 20
32.284628
 30
0.0
 10
424.916400
 20
35.664188
 30
0.0
 10
427.063800
 20
37.150898
 30
0.0
 10
430.103500
 20
37.319108
 30
0.0
  0
SPLINE
  5
1f0
100
AcDbEntity
  8
Layer_1
 62
7
100
AcDbSpline
 70
8
 71
3
 72
8
 73
4
 74
0
 40
0
 40
0
 40
0
 40
0
 40
1
 40
1
 40
1
 40
1
 10
430.103500
 20
37.319108
 30
0.0
 10
432.269000
 20
37.438948
 30
0.0
 10
433.285500
 20
36.994408
 30
0.0
 10
434.126200
 20
35.559938
 30
0.0
  0
SPLINE
  5
1f1
100
AcDbEntity
  8
Layer_1
 62
7
100
AcDbSpline
 70
8
 71
3
 72
8
 73
4
 74
0
 40
0
 40
0
 40
0
 40
0
 40
1
 40
1
 40
1
 40
1
 10
434.126200
 20
35.559938
 30
0.0
 10
434.620700
 20
34.716158
 30
0.0
 10
434.678100
 20
34.425088
 30
0.0
 10
434.605000
 20
33.132188
 30
0.0
  0
SPLINE
  5
1f2
100
AcDbEntity
  8
Layer_1
 62
7
100
AcDbSpline
 70
8
 71
3
 72
8
 73
4
 74
0
 40
0
 40
0
 40
0
 40
0
 40
1
 40
1
 40
1
 40
1
 10
434.605000
 20
33.132188
 30
0.0
 10
434.516000
 20
31.561678
 30
0.0
 10
434.186600
 20
30.902218
 30
0.0
 10
433.076500
 20
30.075208
 30
0.0
  0
SPLINE
  5
1f3
100
AcDbEntity
  8
Layer_1
 62
7
100
AcDbSpline
 70
8
 71
3
 72
8
 73
4
 74
0
 40
0
 40
0
 40
0
 40
0
 40
1
 40
1
 40
1
 40
1
 10
433.076500
 20
30.075208
 30
0.0
 10
432.553900
 20
29.685848
 30
0.0
 10
432.188300
 20
29.638788
 30
0.0
 10
429.685700
 20
29.638788
 30
0.0
  0
SPLINE
  5
1f4
100
AcDbEntity
  8
Layer_1
 62
7
100
AcDbSpline
 70
8
 71
3
 72
8
 73
4
 74
0
 40
0
 40
0
 40
0
 40
0
 40
1
 40
1
 40
1
 40
1
 10
429.685700
 20
29.638788
 30
0.0
 10
426.943500
 20
29.638788
 30
0.0
 10
426.861000
 20
29.625188
 30
0.0
 10
426.005000
 20
29.032578
 30
0.0
  0
SPLINE
  5
1f5
100
AcDbEntity
  8
Layer_1
 62
7
100
AcDbSpline
 70
8
 71
3
 72
8
 73
4
 74
0
 40
0
 40
0
 40
0
 40
0
 40
1
 40
1
 40
1
 40
1
 10
426.005000
 20
29.032578
 30
0.0
 10
424.985700
 20
28.326878
 30
0.0
 10
424.328400
 20
27.515138
 30
0.0
 10
423.582100
 20
26.040458
 30
0.0
  0
SPLINE
  5
1f6
100
AcDbEntity
  8
Layer_1
 62
7
100
AcDbSpline
 70
8
 71
3
 72
8
 73
4
 74
0
 40
0
 40
0
 40
0
 40
0
 40
1
 40
1
 40
1
 40
1
 10
423.582100
 20
26.040458
 30
0.0
 10
422.319600
 20
23.545798
 30
0.0
 10
422.291900
 20
23.317718
 30
0.0
 10
422.203200
 20
14.675398
 30
0.0
  0
SPLINE
  5
1f7
100
AcDbEntity
  8
Layer_1
 62
7
100
AcDbSpline
 70
8
 71
3
 72
8
 73
4
 74
0
 40
0
 40
0
 40
0
 40
0
 40
1
 40
1
 40
1
 40
1
 10
422.203200
 20
14.675398
 30
0.0
 10
422.102400
 20
4.848188
 30
0.0
 10
421.946900
 20
5.432878
 30
0.0
 10
424.952700
 20
4.336498
 30
0.0
  0
SPLINE
  5
1f8
100
AcDbEntity
  8
Layer_1
 62
7
100
AcDbSpline
 70
8
 71
3
 72
8
 73
4
 74
0
 40
0
 40
0
 40
0
 40
0
 40
1
 40
1
 40
1
 40
1
 10
424.952700
 20
4.336498
 30
0.0
 10
426.031600
 20
3.942978
 30
0.0
 10
426.191500
 20
3.807108
 30
0.0
 10
426.401900
 20
3.104688
 30
0.0
  0
SPLINE
  5
1f9
100
AcDbEntity
  8
Layer_1
 62
7
100
AcDbSpline
 70
8
 71
3
 72
8
 73
4
 74
0
 40
0
 40
0
 40
0
 40
0
 40
1
 40
1
 40
1
 40
1
 10
426.401900
 20
3.104688
 30
0.0
 10
426.532000
 20
2.670468
 30
0.0
 10
426.605500
 20
2.081248
 30
0.0
 10
426.565100
 20
1.795318
 30
0.0
  0
SPLINE
  5
1fa
100
AcDbEntity
  8
Layer_1
 62
7
100
AcDbSpline
 70
8
 71
3
 72
8
 73
4
 74
0
 40
0
 40
0
 40
0
 40
0
 40
1
 40
1
 40
1
 40
1
 10
426.565100
 20
1.795318
 30
0.0
 10
426.497100
 20
1.315628
 30
0.0
 10
426.377300
 20
1.264858
 30
0.0
 10
425.010100
 20
1.138288
 30
0.0
  0
SPLINE
  5
1fb
100
AcDbEntity
  8
Layer_1
 62
7
100
AcDbSpline
 70
8
 71
3
 72
8
 73
4
 74
0
 40
0
 40
0
 40
0
 40
0
 40
1
 40
1
 40
1
 40
1
 10
425.010100
 20
1.138288
 30
0.0
 10
423.080900
 20
0.959688
 30
0.0
 10
416.273700
 20
0.758018
 30
0.0
 10
415.590900
 20
0.859238
 30
0.0
  0
LWPOLYLINE
  5
1fc
100
AcDbEntity
  8
Layer_1
 62
7
100
AcDbPolyline
 90
3
 70
0
 10
420.809100
 20
31.247008
 30
0.0
 10
420.938000
 20
29.468558
 30
0.0
 10
421.330100
 20
29.977008
 30
0.0
  0
SPLINE
  5
1fd
100
AcDbEntity
  8
Layer_1
 62
7
100
AcDbSpline
 70
8
 71
3
 72
8
 73
4
 74
0
 40
0
 40
0
 40
0
 40
0
 40
1
 40
1
 40
1
 40
1
 10
443.213400
 20
1.147288
 30
0.0
 10
439.029000
 20
2.296978
 30
0.0
 10
436.264800
 20
4.481338
 30
0.0
 10
435.149600
 20
7.519628
 30
0.0
  0
SPLINE
  5
1fe
100
AcDbEntity
  8
Layer_1
 62
7
100
AcDbSpline
 70
8
 71
3
 72
8
 73
4
 74
0
 40
0
 40
0
 40
0
 40
0
 40
1
 40
1
 40
1
 40
1
 10
435.149600
 20
7.519628
 30
0.0
 10
434.632000
 20
8.929948
 30
0.0
 10
434.685100
 20
12.100228
 30
0.0
 10
435.256600
 20
13.901358
 30
0.0
  0
SPLINE
  5
1ff
100
AcDbEntity
  8
Layer_1
 62
7
100
AcDbSpline
 70
8
 71
3
 72
8
 73
4
 74
0
 40
0
 40
0
 40
0
 40
0
 40
1
 40
1
 40
1
 40
1
 10
435.256600
 20
13.901358
 30
0.0
 10
436.189300
 20
16.841118
 30
0.0
 10
438.248400
 20
19.022598
 30
0.0
 10
441.541200
 20
20.559818
 30
0.0
  0
SPLINE
  5
200
100
AcDbEntity
  8
Layer_1
 62
7
100
AcDbSpline
 70
8
 71
3
 72
8
 73
4
 74
0
 40
0
 40
0
 40
0
 40
0
 40
1
 40
1
 40
1
 40
1
 10
441.541200
 20
20.559818
 30
0.0
 10
444.354500
 20
21.873178
 30
0.0
 10
450.321900
 20
23.336038
 30
0.0
 10
453.707500
 20
23.542298
 30
0.0
  0
LWPOLYLINE
  5
201
100
AcDbEntity
  8
Layer_1
 62
7
100
AcDbPolyline
 90
1
 70
1
 10
415.590900
 20
0.859238
 30
0.0
  0
SPLINE
  5
202
100
AcDbEntity
  8
Layer_1
 62
7
100
AcDbSpline
 70
8
 71
3
 72
8
 73
4
 74
0
 40
0
 40
0
 40
0
 40
0
 40
1
 40
1
 40
1
 40
1
 10
455.807600
 20
26.662578
 30
0.0
 10
455.807600
 20
29.345708
 30
0.0
 10
455.758600
 20
29.752198
 30
0.0
 10
455.331400
 20
30.596318
 30
0.0
  0
SPLINE
  5
203
100
AcDbEntity
  8
Layer_1
 62
7
100
AcDbSpline
 70
8
 71
3
 72
8
 73
4
 74
0
 40
0
 40
0
 40
0
 40
0
 40
1
 40
1
 40
1
 40
1
 10
455.331400
 20
30.596318
 30
0.0
 10
454.447300
 20
32.343768
 30
0.0
 10
452.170300
 20
33.554628
 30
0.0
 10
449.768300
 20
33.554628
 30
0.0
  0
SPLINE
  5
204
100
AcDbEntity
  8
Layer_1
 62
7
100
AcDbSpline
 70
8
 71
3
 72
8
 73
4
 74
0
 40
0
 40
0
 40
0
 40
0
 40
1
 40
1
 40
1
 40
1
 10
449.768300
 20
33.554628
 30
0.0
 10
447.522600
 20
33.554628
 30
0.0
 10
446.327000
 20
32.744048
 30
0.0
 10
445.762800
 20
30.838928
 30
0.0
  0
SPLINE
  5
205
100
AcDbEntity
  8
Layer_1
 62
7
100
AcDbSpline
 70
8
 71
3
 72
8
 73
4
 74
0
 40
0
 40
0
 40
0
 40
0
 40
1
 40
1
 40
1
 40
1
 10
445.762800
 20
30.838928
 30
0.0
 10
445.252900
 20
29.117648
 30
0.0
 10
445.133400
 20
28.862338
 30
0.0
 10
444.466400
 20
28.069688
 30
0.0
  0
SPLINE
  5
206
100
AcDbEntity
  8
Layer_1
 62
7
100
AcDbSpline
 70
8
 71
3
 72
8
 73
4
 74
0
 40
0
 40
0
 40
0
 40
0
 40
1
 40
1
 40
1
 40
1
 10
444.466400
 20
28.069688
 30
0.0
 10
443.705800
 20
27.165778
 30
0.0
 10
442.780800
 20
26.781208
 30
0.0
 10
441.368200
 20
26.781618
 30
0.0
  0
SPLINE
  5
207
100
AcDbEntity
  8
Layer_1
 62
7
100
AcDbSpline
 70
8
 71
3
 72
8
 73
4
 74
0
 40
0
 40
0
 40
0
 40
0
 40
1
 40
1
 40
1
 40
1
 10
441.368200
 20
26.781618
 30
0.0
 10
439.941800
 20
26.782038
 30
0.0
 10
438.968200
 20
27.273438
 30
0.0
 10
438.086200
 20
28.438158
 30
0.0
  0
SPLINE
  5
208
100
AcDbEntity
  8
Layer_1
 62
7
100
AcDbSpline
 70
8
 71
3
 72
8
 73
4
 74
0
 40
0
 40
0
 40
0
 40
0
 40
1
 40
1
 40
1
 40
1
 10
438.086200
 20
28.438158
 30
0.0
 10
437.228000
 20
29.571628
 30
0.0
 10
437.175500
 20
30.600298
 30
0.0
 10
437.902800
 20
32.035578
 30
0.0
  0
SPLINE
  5
209
100
AcDbEntity
  8
Layer_1
 62
7
100
AcDbSpline
 70
8
 71
3
 72
8
 73
4
 74
0
 40
0
 40
0
 40
0
 40
0
 40
1
 40
1
 40
1
 40
1
 10
437.902800
 20
32.035578
 30
0.0
 10
438.842200
 20
33.889308
 30
0.0
 10
440.980900
 20
35.488288
 30
0.0
 10
443.579200
 20
36.279388
 30
0.0
  0
SPLINE
  5
20a
100
AcDbEntity
  8
Layer_1
 62
7
100
AcDbSpline
 70
8
 71
3
 72
8
 73
4
 74
0
 40
0
 40
0
 40
0
 40
0
 40
1
 40
1
 40
1
 40
1
 10
443.579200
 20
36.279388
 30
0.0
 10
446.625800
 20
37.206988
 30
0.0
 10
451.866800
 20
37.265318
 30
0.0
 10
455.195100
 20
36.408658
 30
0.0
  0
SPLINE
  5
20b
100
AcDbEntity
  8
Layer_1
 62
7
100
AcDbSpline
 70
8
 71
3
 72
8
 73
4
 74
0
 40
0
 40
0
 40
0
 40
0
 40
1
 40
1
 40
1
 40
1
 10
455.195100
 20
36.408658
 30
0.0
 10
458.454400
 20
35.569758
 30
0.0
 10
461.176300
 20
33.575888
 30
0.0
 10
462.368400
 20
31.154048
 30
0.0
  0
SPLINE
  5
20c
100
AcDbEntity
  8
Layer_1
 62
7
100
AcDbSpline
 70
8
 71
3
 72
8
 73
4
 74
0
 40
0
 40
0
 40
0
 40
0
 40
1
 40
1
 40
1
 40
1
 10
462.368400
 20
31.154048
 30
0.0
 10
463.441800
 20
28.973558
 30
0.0
 10
463.597300
 20
27.526558
 30
0.0
 10
463.837700
 20
17.489478
 30
0.0
  0
SPLINE
  5
20d
100
AcDbEntity
  8
Layer_1
 62
7
100
AcDbSpline
 70
8
 71
3
 72
8
 73
4
 74
0
 40
0
 40
0
 40
0
 40
0
 40
1
 40
1
 40
1
 40
1
 10
463.837700
 20
17.489478
 30
0.0
 10
464.083300
 20
7.235688
 30
0.0
 10
464.057400
 20
7.400828
 30
0.0
 10
465.616900
 20
6.157388
 30
0.0
  0
SPLINE
  5
20e
100
AcDbEntity
  8
Layer_1
 62
7
100
AcDbSpline
 70
8
 71
3
 72
8
 73
4
 74
0
 40
0
 40
0
 40
0
 40
0
 40
1
 40
1
 40
1
 40
1
 10
465.616900
 20
6.157388
 30
0.0
 10
466.318500
 20
5.598028
 30
0.0
 10
466.605100
 20
5.508168
 30
0.0
 10
467.700200
 20
5.504298
 30
0.0
  0
SPLINE
  5
20f
100
AcDbEntity
  8
Layer_1
 62
7
100
AcDbSpline
 70
8
 71
3
 72
8
 73
4
 74
0
 40
0
 40
0
 40
0
 40
0
 40
1
 40
1
 40
1
 40
1
 10
467.700200
 20
5.504298
 30
0.0
 10
468.830300
 20
5.500298
 30
0.0
 10
469.002000
 20
5.442098
 30
0.0
 10
469.260500
 20
4.975138
 30
0.0
  0
SPLINE
  5
210
100
AcDbEntity
  8
Layer_1
 62
7
100
AcDbSpline
 70
8
 71
3
 72
8
 73
4
 74
0
 40
0
 40
0
 40
0
 40
0
 40
1
 40
1
 40
1
 40
1
 10
469.260500
 20
4.975138
 30
0.0
 10
469.685300
 20
4.207748
 30
0.0
 10
469.629100
 20
3.442568
 30
0.0
 10
469.089000
 20
2.641118
 30
0.0
  0
SPLINE
  5
211
100
AcDbEntity
  8
Layer_1
 62
7
100
AcDbSpline
 70
8
 71
3
 72
8
 73
4
 74
0
 40
0
 40
0
 40
0
 40
0
 40
1
 40
1
 40
1
 40
1
 10
469.089000
 20
2.641118
 30
0.0
 10
468.382900
 20
1.593358
 30
0.0
 10
467.484200
 20
1.172458
 30
0.0
 10
465.397500
 20
0.912148
 30
0.0
  0
SPLINE
  5
212
100
AcDbEntity
  8
Layer_1
 62
7
100
AcDbSpline
 70
8
 71
3
 72
8
 73
4
 74
0
 40
0
 40
0
 40
0
 40
0
 40
1
 40
1
 40
1
 40
1
 10
465.397500
 20
0.912148
 30
0.0
 10
462.322800
 20
0.528588
 30
0.0
 10
460.892200
 20
1.188048
 30
0.0
 10
458.525500
 20
4.080038
 30
0.0
  0
SPLINE
  5
213
100
AcDbEntity
  8
Layer_1
 62
7
100
AcDbSpline
 70
8
 71
3
 72
8
 73
4
 74
0
 40
0
 40
0
 40
0
 40
0
 40
1
 40
1
 40
1
 40
1
 10
458.525500
 20
4.080038
 30
0.0
 10
457.663100
 20
5.133748
 30
0.0
 10
456.850400
 20
5.039088
 30
0.0
 10
455.269300
 20
3.700758
 30
0.0
  0
SPLINE
  5
214
100
AcDbEntity
  8
Layer_1
 62
7
100
AcDbSpline
 70
8
 71
3
 72
8
 73
4
 74
0
 40
0
 40
0
 40
0
 40
0
 40
1
 40
1
 40
1
 40
1
 10
455.269300
 20
3.700758
 30
0.0
 10
453.025800
 20
1.801878
 30
0.0
 10
450.820300
 20
1.049678
 30
0.0
 10
446.917600
 20
0.852488
 30
0.0
  0
SPLINE
  5
215
100
AcDbEntity
  8
Layer_1
 62
7
100
AcDbSpline
 70
8
 71
3
 72
8
 73
4
 74
0
 40
0
 40
0
 40
0
 40
0
 40
1
 40
1
 40
1
 40
1
 10
446.917600
 20
0.852488
 30
0.0
 10
445.125100
 20
0.761888
 30
0.0
 10
444.408400
 20
0.818988
 30
0.0
 10
443.213400
 20
1.147288
 30
0.0
  0
LWPOLYLINE
  5
216
100
AcDbEntity
  8
Layer_1
 62
7
100
AcDbPolyline
 90
3
 70
0
 10
453.707500
 20
23.542298
 30
0.0
 10
455.807600
 20
23.670238
 30
0.0
 10
455.807600
 20
26.662578
 30
0.0
  0
SPLINE
  5
217
100
AcDbEntity
  8
Layer_1
 62
7
100
AcDbSpline
 70
8
 71
3
 72
8
 73
4
 74
0
 40
0
 40
0
 40
0
 40
0
 40
1
 40
1
 40
1
 40
1
 10
451.500900
 20
5.644948
 30
0.0
 10
452.950500
 20
6.187298
 30
0.0
 10
454.421600
 20
7.571888
 30
0.0
 10
455.179400
 20
9.107128
 30
0.0
  0
SPLINE
  5
218
100
AcDbEntity
  8
Layer_1
 62
7
100
AcDbSpline
 70
8
 71
3
 72
8
 73
4
 74
0
 40
0
 40
0
 40
0
 40
0
 40
1
 40
1
 40
1
 40
1
 10
455.179400
 20
9.107128
 30
0.0
 10
455.681200
 20
10.123778
 30
0.0
 10
455.704400
 20
10.355878
 30
0.0
 10
455.769200
 20
15.000878
 30
0.0
  0
LWPOLYLINE
  5
219
100
AcDbEntity
  8
Layer_1
 62
7
100
AcDbPolyline
 90
1
 70
1
 10
443.213400
 20
1.147288
 30
0.0
  0
SPLINE
  5
21a
100
AcDbEntity
  8
Layer_1
 62
7
100
AcDbSpline
 70
8
 71
3
 72
8
 73
4
 74
0
 40
0
 40
0
 40
0
 40
0
 40
1
 40
1
 40
1
 40
1
 10
455.239600
 20
19.714218
 30
0.0
 10
454.911500
 20
19.647018
 30
0.0
 10
453.976300
 20
19.491308
 30
0.0
 10
453.161400
 20
19.368078
 30
0.0
  0
SPLINE
  5
21b
100
AcDbEntity
  8
Layer_1
 62
7
100
AcDbSpline
 70
8
 71
3
 72
8
 73
4
 74
0
 40
0
 40
0
 40
0
 40
0
 40
1
 40
1
 40
1
 40
1
 10
453.161400
 20
19.368078
 30
0.0
 10
446.004000
 20
18.285758
 30
0.0
 10
443.196400
 20
16.197228
 30
0.0
 10
442.939800
 20
11.764328
 30
0.0
  0
SPLINE
  5
21c
100
AcDbEntity
  8
Layer_1
 62
7
100
AcDbSpline
 70
8
 71
3
 72
8
 73
4
 74
0
 40
0
 40
0
 40
0
 40
0
 40
1
 40
1
 40
1
 40
1
 10
442.939800
 20
11.764328
 30
0.0
 10
442.696100
 20
7.554248
 30
0.0
 10
444.780100
 20
5.248438
 30
0.0
 10
448.867200
 20
5.206038
 30
0.0
  0
SPLINE
  5
21d
100
AcDbEntity
  8
Layer_1
 62
7
100
AcDbSpline
 70
8
 71
3
 72
8
 73
4
 74
0
 40
0
 40
0
 40
0
 40
0
 40
1
 40
1
 40
1
 40
1
 10
448.867200
 20
5.206038
 30
0.0
 10
449.831800
 20
5.196038
 30
0.0
 10
450.677300
 20
5.336968
 30
0.0
 10
451.500500
 20
5.644948
 30
0.0
  0
LWPOLYLINE
  5
21e
100
AcDbEntity
  8
Layer_1
 62
7
100
AcDbPolyline
 90
3
 70
0
 10
455.769200
 20
15.000878
 30
0.0
 10
455.836200
 20
19.836298
 30
0.0
 10
455.239600
 20
19.714218
 30
0.0
  0
SPLINE
  5
21f
100
AcDbEntity
  8
Layer_1
 62
7
100
AcDbSpline
 70
8
 71
3
 72
8
 73
4
 74
0
 40
0
 40
0
 40
0
 40
0
 40
1
 40
1
 40
1
 40
1
 10
478.244300
 20
0.860268
 30
0.0
 10
477.953200
 20
0.902968
 30
0.0
 10
476.702600
 20
0.998448
 30
0.0
 10
475.465200
 20
1.072408
 30
0.0
  0
SPLINE
  5
220
100
AcDbEntity
  8
Layer_1
 62
7
100
AcDbSpline
 70
8
 71
3
 72
8
 73
4
 74
0
 40
0
 40
0
 40
0
 40
0
 40
1
 40
1
 40
1
 40
1
 10
475.465200
 20
1.072408
 30
0.0
 10
473.341000
 20
1.199378
 30
0.0
 10
473.202000
 20
1.235968
 30
0.0
 10
472.978100
 20
1.727378
 30
0.0
  0
SPLINE
  5
221
100
AcDbEntity
  8
Layer_1
 62
7
100
AcDbSpline
 70
8
 71
3
 72
8
 73
4
 74
0
 40
0
 40
0
 40
0
 40
0
 40
1
 40
1
 40
1
 40
1
 10
472.978100
 20
1.727378
 30
0.0
 10
472.656500
 20
2.433128
 30
0.0
 10
472.679600
 20
3.183558
 30
0.0
 10
473.032100
 20
3.475898
 30
0.0
  0
SPLINE
  5
222
100
AcDbEntity
  8
Layer_1
 62
7
100
AcDbSpline
 70
8
 71
3
 72
8
 73
4
 74
0
 40
0
 40
0
 40
0
 40
0
 40
1
 40
1
 40
1
 40
1
 10
473.032100
 20
3.475898
 30
0.0
 10
473.192100
 20
3.608678
 30
0.0
 10
473.835000
 20
3.890658
 30
0.0
 10
474.460800
 20
4.102508
 30
0.0
  0
SPLINE
  5
223
100
AcDbEntity
  8
Layer_1
 62
7
100
AcDbSpline
 70
8
 71
3
 72
8
 73
4
 74
0
 40
0
 40
0
 40
0
 40
0
 40
1
 40
1
 40
1
 40
1
 10
474.460800
 20
4.102508
 30
0.0
 10
475.347400
 20
4.402638
 30
0.0
 10
475.738800
 20
4.686228
 30
0.0
 10
476.233600
 20
5.386848
 30
0.0
  0
LWPOLYLINE
  5
224
100
AcDbEntity
  8
Layer_1
 62
7
100
AcDbPolyline
 90
2
 70
0
 10
451.500500
 20
5.644948
 30
0.0
 10
451.500900
 20
5.644948
 30
0.0
  0
SPLINE
  5
225
100
AcDbEntity
  8
Layer_1
 62
7
100
AcDbSpline
 70
8
 71
3
 72
8
 73
4
 74
0
 40
0
 40
0
 40
0
 40
0
 40
1
 40
1
 40
1
 40
1
 10
476.287600
 20
56.519768
 30
0.0
 10
475.785200
 20
57.248728
 30
0.0
 10
475.158600
 20
57.772838
 30
0.0
 10
474.009600
 20
58.425158
 30
0.0
  0
SPLINE
  5
226
100
AcDbEntity
  8
Layer_1
 62
7
100
AcDbSpline
 70
8
 71
3
 72
8
 73
4
 74
0
 40
0
 40
0
 40
0
 40
0
 40
1
 40
1
 40
1
 40
1
 10
474.009600
 20
58.425158
 30
0.0
 10
472.342800
 20
59.371428
 30
0.0
 10
472.015100
 20
59.896748
 30
0.0
 10
472.512100
 20
60.825548
 30
0.0
  0
SPLINE
  5
227
100
AcDbEntity
  8
Layer_1
 62
7
100
AcDbSpline
 70
8
 71
3
 72
8
 73
4
 74
0
 40
0
 40
0
 40
0
 40
0
 40
1
 40
1
 40
1
 40
1
 10
472.512100
 20
60.825548
 30
0.0
 10
472.715400
 20
61.205328
 30
0.0
 10
473.073400
 20
61.245758
 30
0.0
 10
477.340600
 20
61.370838
 30
0.0
  0
SPLINE
  5
228
100
AcDbEntity
  8
Layer_1
 62
7
100
AcDbSpline
 70
8
 71
3
 72
8
 73
4
 74
0
 40
0
 40
0
 40
0
 40
0
 40
1
 40
1
 40
1
 40
1
 10
477.340600
 20
61.370838
 30
0.0
 10
479.875500
 20
61.445138
 30
0.0
 10
482.473000
 20
61.527208
 30
0.0
 10
483.112800
 20
61.553198
 30
0.0
  0
LWPOLYLINE
  5
229
100
AcDbEntity
  8
Layer_1
 62
7
100
AcDbPolyline
 90
5
 70
0
 10
476.233600
 20
5.386848
 30
0.0
 10
476.868600
 20
6.285998
 30
0.0
 10
476.924600
 20
30.900108
 30
0.0
 10
476.980600
 20
55.514208
 30
0.0
 10
476.287600
 20
56.519768
 30
0.0
  0
SPLINE
  5
22a
100
AcDbEntity
  8
Layer_1
 62
7
100
AcDbSpline
 70
8
 71
3
 72
8
 73
4
 74
0
 40
0
 40
0
 40
0
 40
0
 40
1
 40
1
 40
1
 40
1
 10
484.528300
 20
60.012998
 30
0.0
 10
484.712800
 20
58.851168
 30
0.0
 10
484.784000
 20
51.460588
 30
0.0
 10
484.793700
 20
32.450598
 30
0.0
  0
SPLINE
  5
22b
100
AcDbEntity
  8
Layer_1
 62
7
100
AcDbSpline
 70
8
 71
3
 72
8
 73
4
 74
0
 40
0
 40
0
 40
0
 40
0
 40
1
 40
1
 40
1
 40
1
 10
484.793700
 20
32.450598
 30
0.0
 10
484.808700
 20
2.963948
 30
0.0
 10
484.638500
 20
5.556108
 30
0.0
 10
486.640800
 20
4.342588
 30
0.0
  0
SPLINE
  5
22c
100
AcDbEntity
  8
Layer_1
 62
7
100
AcDbSpline
 70
8
 71
3
 72
8
 73
4
 74
0
 40
0
 40
0
 40
0
 40
0
 40
1
 40
1
 40
1
 40
1
 10
486.640800
 20
4.342588
 30
0.0
 10
487.944300
 20
3.552598
 30
0.0
 10
488.138200
 20
3.280528
 30
0.0
 10
488.232400
 20
2.109718
 30
0.0
  0
LWPOLYLINE
  5
22d
100
AcDbEntity
  8
Layer_1
 62
7
100
AcDbPolyline
 90
3
 70
0
 10
483.112800
 20
61.553198
 30
0.0
 10
484.276200
 20
61.600498
 30
0.0
 10
484.528300
 20
60.012998
 30
0.0
  0
SPLINE
  5
22e
100
AcDbEntity
  8
Layer_1
 62
7
100
AcDbSpline
 70
8
 71
3
 72
8
 73
4
 74
0
 40
0
 40
0
 40
0
 40
0
 40
1
 40
1
 40
1
 40
1
 10
486.817800
 20
1.139618
 30
0.0
 10
484.819600
 20
0.956368
 30
0.0
 10
478.904000
 20
0.763628
 30
0.0
 10
478.245300
 20
0.860308
 30
0.0
  0
LWPOLYLINE
  5
22f
100
AcDbEntity
  8
Layer_1
 62
7
100
AcDbPolyline
 90
3
 70
0
 10
488.232400
 20
2.109718
 30
0.0
 10
488.299400
 20
1.275498
 30
0.0
 10
486.817800
 20
1.139618
 30
0.0
  0
SPLINE
  5
230
100
AcDbEntity
  8
Layer_1
 62
7
100
AcDbSpline
 70
8
 71
3
 72
8
 73
4
 74
0
 40
0
 40
0
 40
0
 40
0
 40
1
 40
1
 40
1
 40
1
 10
21.785150
 20
2.322068
 30
0.0
 10
11.182540
 20
5.086188
 30
0.0
 10
2.843210
 20
14.245398
 30
0.0
 10
0.382630
 20
25.828788
 30
0.0
  0
SPLINE
  5
231
100
AcDbEntity
  8
Layer_1
 62
7
100
AcDbSpline
 70
8
 71
3
 72
8
 73
4
 74
0
 40
0
 40
0
 40
0
 40
0
 40
1
 40
1
 40
1
 40
1
 10
0.382630
 20
25.828788
 30
0.0
 10
-0.126570
 20
28.225848
 30
0.0
 10
-0.127630
 20
33.839218
 30
0.0
 10
0.380630
 20
36.412128
 30
0.0
  0
SPLINE
  5
232
100
AcDbEntity
  8
Layer_1
 62
7
100
AcDbSpline
 70
8
 71
3
 72
8
 73
4
 74
0
 40
0
 40
0
 40
0
 40
0
 40
1
 40
1
 40
1
 40
1
 10
0.380630
 20
36.412128
 30
0.0
 10
2.806200
 20
48.691128
 30
0.0
 10
11.544030
 20
57.790478
 30
0.0
 10
23.531410
 20
60.520768
 30
0.0
  0
LWPOLYLINE
  5
233
100
AcDbEntity
  8
Layer_1
 62
7
100
AcDbPolyline
 90
2
 70
0
 10
478.245300
 20
0.860308
 30
0.0
 10
478.244300
 20
0.860268
 30
0.0
  0
SPLINE
  5
234
100
AcDbEntity
  8
Layer_1
 62
7
100
AcDbSpline
 70
8
 71
3
 72
8
 73
4
 74
0
 40
0
 40
0
 40
0
 40
0
 40
1
 40
1
 40
1
 40
1
 10
24.272240
 20
1.815028
 30
0.0
 10
23.952100
 20
1.821028
 30
0.0
 10
22.832910
 20
2.048918
 30
0.0
 10
21.785160
 20
2.322068
 30
0.0
  0
LWPOLYLINE
  5
235
100
AcDbEntity
  8
Layer_1
 62
7
100
AcDbPolyline
 90
5
 70
0
 10
23.531410
 20
60.520768
 30
0.0
 10
24.854330
 20
60.822078
 30
0.0
 10
24.854330
 20
31.313348
 30
0.0
 10
24.854330
 20
1.804628
 30
0.0
 10
24.272240
 20
1.815028
 30
0.0
  0
LWPOLYLINE
  5
236
100
AcDbEntity
  8
Layer_1
 62
7
100
AcDbPolyline
 90
1
 70
1
 10
21.785160
 20
2.322068
 30
0.0
  0
SPLINE
  5
237
100
AcDbEntity
  8
Layer_1
 62
7
100
AcDbSpline
 70
8
 71
3
 72
8
 73
4
 74
0
 40
0
 40
0
 40
0
 40
0
 40
1
 40
1
 40
1
 40
1
 10
60.202600
 20
29.349018
 30
0.0
 10
60.202600
 20
21.244718
 30
0.0
 10
54.394200
 20
11.450918
 30
0.0
 10
46.432500
 20
6.130618
 30
0.0
  0
SPLINE
  5
238
100
AcDbEntity
  8
Layer_1
 62
7
100
AcDbSpline
 70
8
 71
3
 72
8
 73
4
 74
0
 40
0
 40
0
 40
0
 40
0
 40
1
 40
1
 40
1
 40
1
 10
46.432500
 20
6.130618
 30
0.0
 10
43.060100
 20
3.877078
 30
0.0
 10
39.176300
 20
2.302298
 30
0.0
 10
36.017600
 20
1.907638
 30
0.0
  0
LWPOLYLINE
  5
239
100
AcDbEntity
  8
Layer_1
 62
7
100
AcDbPolyline
 90
5
 70
0
 10
34.802600
 20
16.385238
 30
0.0
 10
34.802600
 20
31.014628
 30
0.0
 10
47.502600
 20
31.014628
 30
0.0
 10
60.202600
 20
31.014628
 30
0.0
 10
60.202600
 20
29.349018
 30
0.0
  0
LWPOLYLINE
  5
23a
100
AcDbEntity
  8
Layer_1
 62
7
100
AcDbPolyline
 90
3
 70
0
 10
36.017600
 20
1.907638
 30
0.0
 10
34.802600
 20
1.755848
 30
0.0
 10
34.802600
 20
16.385238
 30
0.0
  0
ENDSEC
  0
SECTION
  2
OBJECTS
  0
DICTIONARY
  5
C
330
0
100
AcDbDictionary
  3
ACAD_GROUP
350
D
  3
ACAD_MLINESTYLE
350
17
  0
DICTIONARY
  5
D
330
C
100
AcDbDictionary
  0
DICTIONARY
  5
1A
330
C
100
AcDbDictionary
  0
DICTIONARY
  5
17
330
C
100
AcDbDictionary
  3
STANDARD
350
18
  0
DICTIONARY
  5
19
330
C
100
AcDbDictionary
  0
ENDSEC
  0
EOF
