<?xml version="1.0" encoding="UTF-8" standalone="no"?>
<!-- Created with Inkscape (http://www.inkscape.org/) -->

<svg
   width="169.35854mm"
   height="59.019863mm"
   viewBox="0 0 169.35855 59.019863"
   version="1.1"
   id="svg5"
   xml:space="preserve"
   inkscape:version="1.2.2 (732a01da63, 2022-12-09)"
   sodipodi:docname="Data General User's Group - Composite.svg"
   xmlns:inkscape="http://www.inkscape.org/namespaces/inkscape"
   xmlns:sodipodi="http://sodipodi.sourceforge.net/DTD/sodipodi-0.dtd"
   xmlns="http://www.w3.org/2000/svg"
   xmlns:svg="http://www.w3.org/2000/svg"><sodipodi:namedview
     id="namedview7"
     pagecolor="#ffffff"
     bordercolor="#000000"
     borderopacity="0.25"
     inkscape:showpageshadow="2"
     inkscape:pageopacity="0.0"
     inkscape:pagecheckerboard="0"
     inkscape:deskcolor="#d1d1d1"
     inkscape:document-units="mm"
     showgrid="false"
     inkscape:zoom="1.0129245"
     inkscape:cx="389.46633"
     inkscape:cy="157.46484"
     inkscape:window-width="1404"
     inkscape:window-height="981"
     inkscape:window-x="-1"
     inkscape:window-y="0"
     inkscape:window-maximized="0"
     inkscape:current-layer="layer1" /><defs
     id="defs2" /><g
     inkscape:label="Layer 1"
     inkscape:groupmode="layer"
     id="layer1"
     transform="translate(-374.34986,-170.46813)"><path
       style="fill:#000000;stroke-width:1"
       d="m 392.8075,229.04436 c -1.22153,-0.22684 -2.28893,-0.48041 -2.372,-0.56348 -0.0831,-0.0831 -0.21744,-0.94731 -0.2986,-1.92053 -0.13981,-1.67642 -0.12638,-1.76288 0.25532,-1.64375 0.93911,0.2931 3.51867,0.55031 5.55818,0.55421 3.25134,0.006 5.74556,-0.72918 5.74556,-1.69402 0,-0.50459 0.0326,-0.50339 -2.03846,-0.0751 -1.82877,0.3782 -5.02446,0.31065 -6.53404,-0.13811 -0.52464,-0.15596 -1.26044,-0.66552 -1.93454,-1.33973 -1.42986,-1.43009 -2.00118,-3.14437 -2.02364,-6.07212 -0.0179,-2.33781 0.34115,-3.40412 1.62493,-4.8251 2.18135,-2.4145 6.62627,-2.95104 10.10089,-1.21928 l 1.41764,0.70656 0.064,-0.76571 0.064,-0.76572 4.2077,-0.10583 c 3.01328,-0.0758 4.23358,-0.0381 4.29889,0.13267 0.0502,0.13117 0.0617,3.56017 0.0256,7.62 l -0.0656,7.3815 -0.635,1.2608 c -0.34925,0.69344 -0.97321,1.52818 -1.38658,1.85496 -2.28716,1.80812 -10.5638,2.6411 -16.07438,1.61776 z m 8.23542,-10.01587 c 1.65218,-0.85437 1.67391,-3.86584 0.0349,-4.83404 -1.87096,-1.10521 -3.83922,0.83302 -3.21186,3.16286 0.43823,1.62744 1.83785,2.36368 3.17699,1.67118 z m 74.80578,9.56307 c -0.0557,-0.0904 -0.15666,-4.63853 -0.22442,-10.10708 l -0.1232,-9.94281 h 4.16077 4.16077 v 0.52916 c 0,0.63153 0.26881,0.66651 1.02566,0.13348 1.67948,-1.18282 2.38495,-1.39685 4.58351,-1.39057 4.47494,0.0128 7.26455,1.69209 8.23406,4.95679 1.06796,3.59619 0.38653,7.61146 -1.61724,9.52944 -2.14931,2.05728 -6.34552,2.89921 -9.50838,1.90776 -0.73798,-0.23133 -1.44957,-0.42183 -1.58132,-0.42333 -0.1497,-0.002 -0.29216,0.69191 -0.37981,1.84935 -0.0772,1.01865 -0.19038,2.11016 -0.25164,2.42559 l -0.11137,0.57351 -4.13309,0.0615 c -2.2732,0.0338 -4.17864,-0.0124 -4.2343,-0.10278 z m 11.92001,-9.1776 c 1.25554,-0.5958 1.70318,-2.19835 1.05044,-3.76059 -0.38035,-0.9103 -1.08841,-1.3967 -2.03319,-1.3967 -0.94479,0 -1.65285,0.4864 -2.0332,1.3967 -0.59046,1.41317 -0.14399,3.19408 0.94978,3.78848 0.72977,0.39659 1.18458,0.39045 2.06617,-0.0279 z m -26.65303,6.24817 c -2.48144,-0.32257 -5.74887,-1.67409 -7.08496,-2.93058 -1.34647,-1.26625 -1.73635,-3.59989 -1.74299,-10.4328 l -0.003,-3.54542 h 4.41231 4.41231 l 0.14851,4.68924 c 0.087,2.74832 0.2463,4.87288 0.38476,5.13292 0.35151,0.66011 0.83282,0.95938 1.54294,0.95938 0.34925,0 0.78613,-0.11603 0.97085,-0.25785 0.82011,-0.62966 0.88792,-1.13239 0.80384,-5.95916 l -0.0813,-4.67036 4.49791,-0.0571 4.49792,-0.0571 v 5.49712 c 0,6.52245 -0.13584,7.42484 -1.27675,8.4813 -2.52672,2.33969 -7.41048,3.67972 -11.48186,3.15046 z m -23.85972,-0.27852 c -1.98792,-0.41861 -4.38099,-1.60031 -5.54282,-2.73705 -1.94336,-1.9014 -2.97073,-5.08333 -2.52085,-7.80748 0.32687,-1.97926 0.79451,-2.9846 2.01826,-4.33891 1.48204,-1.64018 3.40667,-2.49129 6.57176,-2.9062 5.03927,-0.66059 9.41607,0.41888 11.61505,2.86467 1.7285,1.92251 2.33198,3.69952 2.21384,6.51894 -0.0683,1.62977 -0.19639,2.28183 -0.63507,3.23259 -1.00452,2.17708 -3.40877,3.98015 -6.48082,4.86031 -1.87926,0.53841 -5.43847,0.69237 -7.23935,0.31313 z m 3.64162,-6.26708 c 1.17913,-0.32748 1.65004,-1.06416 1.65004,-2.58124 0,-1.1537 -0.0621,-1.3247 -0.71966,-1.98229 -0.55911,-0.5591 -0.8944,-0.71967 -1.50284,-0.71967 -0.60843,0 -0.94373,0.16057 -1.50283,0.71967 -0.65758,0.65759 -0.71967,0.82859 -0.71967,1.98229 0,1.35654 0.45635,2.23198 1.35216,2.59393 0.58764,0.23743 0.54072,0.23785 1.4428,-0.0127 z m -27.84947,4.94736 c -0.18957,-1.38304 -0.16695,-14.88716 0.0249,-14.88751 0.0873,-1.6e-4 1.9685,-0.024 4.18042,-0.0529 l 4.02166,-0.0526 0.0635,1.21709 c 0.0349,0.66939 0.1147,1.21708 0.17729,1.21708 0.0626,0 0.51028,-0.43018 0.99486,-0.95596 0.74016,-0.8031 1.06507,-0.98958 2.03191,-1.1662 1.25214,-0.22874 2.99114,-0.0813 3.50161,0.29683 0.27694,0.20516 0.29928,0.77045 0.16261,4.11543 l -0.15842,3.8776 -2.11667,0.0523 c -1.29851,0.0321 -2.36212,0.16957 -2.75167,0.35573 -0.99213,0.47413 -1.40562,1.58108 -1.5346,4.10835 -0.0615,1.20573 -0.17005,2.28105 -0.24114,2.3896 -0.0711,0.10855 -1.95023,0.2568 -4.17586,0.32945 l -4.04659,0.13209 z m -29.58462,-17.25525 c -2.80705,-0.20026 -6.08709,-1.30129 -7.45525,-2.50255 -1.35759,-1.19198 -1.47705,-1.78879 -1.57278,-7.85786 l -0.0856,-5.42594 2.30896,-0.15084 c 1.26993,-0.083 3.27912,-0.11779 4.46487,-0.0774 l 2.15591,0.0734 0.0108,1.37583 c 0.0444,5.65597 0.16952,8.64509 0.37822,9.03504 0.32623,0.60956 1.35859,0.94661 2.10377,0.68684 1.13229,-0.39472 1.20367,-0.72528 1.31856,-6.10634 l 0.10583,-4.95696 4.29514,-0.0926 4.29513,-0.0926 -0.0715,5.89627 c -0.0676,5.57439 -0.0967,5.94441 -0.53326,6.77804 -0.70784,1.35169 -1.95168,2.11302 -4.6208,2.82829 -2.13808,0.57296 -4.53667,0.77214 -7.098,0.58942 z m 79.19247,-0.0881 c -3.55712,-0.36816 -5.10717,-0.60479 -5.26038,-0.80304 -0.16482,-0.21328 -0.6947,-3.97444 -0.577,-4.09575 0.028,-0.0289 1.80527,0.10501 3.94954,0.29745 4.06741,0.36503 5.84134,0.28475 6.05577,-0.27406 0.22318,-0.5816 -0.2483,-0.70542 -3.11412,-0.8178 -3.71808,-0.1458 -5.08028,-0.52265 -6.30071,-1.74308 -1.16151,-1.16151 -1.52644,-2.03512 -1.52644,-3.65424 0,-2.80377 1.49825,-4.47382 4.55755,-5.08018 2.21235,-0.43849 8.34463,-0.51106 11.38194,-0.13469 1.49067,0.18472 2.78641,0.38288 2.87942,0.44036 0.17697,0.10937 -0.0306,1.83587 -0.42885,3.56689 l -0.23349,1.01488 -0.8762,-0.10806 c -1.74111,-0.21472 -3.66537,-0.34199 -5.58702,-0.36951 -1.62834,-0.0233 -2.03154,0.0374 -2.38784,0.35989 -0.3702,0.33503 -0.3877,0.42894 -0.12829,0.68835 0.22258,0.22258 1.22823,0.33869 3.88211,0.44823 3.18887,0.13161 3.66576,0.19976 4.34793,0.62137 1.13242,0.69987 1.85567,2.28123 1.84976,4.04445 -0.007,2.19776 -0.97806,3.79276 -2.76166,4.53781 -1.5706,0.65607 -7.44218,1.29669 -9.72202,1.06073 z m -58.20834,-0.23123 c -0.52387,-0.031 -2.17116,-0.21524 -3.66064,-0.40933 -2.01586,-0.26269 -2.75272,-0.43954 -2.88252,-0.69184 -0.0959,-0.18643 -0.24047,-1.1841 -0.32126,-2.21707 l -0.14688,-1.87811 1.1244,0.1383 c 1.2928,0.15902 6.31274,0.53341 7.2752,0.54259 0.3561,0.003 0.83235,-0.13088 1.05833,-0.29839 0.38832,-0.28784 0.39094,-0.3248 0.0478,-0.67305 -0.30525,-0.30978 -0.84408,-0.37786 -3.38167,-0.42728 -2.83474,-0.0552 -3.08977,-0.0951 -4.18773,-0.6559 -3.22733,-1.64829 -3.57293,-6.50811 -0.63234,-8.89209 1.29667,-1.05123 5.08534,-1.5239 10.25819,-1.27979 2.98868,0.14103 6.30491,0.58119 6.59968,0.87596 0.0728,0.0728 -0.003,1.0624 -0.16872,2.19912 l -0.30107,2.06676 -4.1335,-0.0807 c -2.27342,-0.0444 -4.34321,-0.0142 -4.59953,0.0672 -0.26848,0.0852 -0.46603,0.32131 -0.46603,0.55698 0,0.45672 0.22982,0.50014 2.23118,0.42151 1.51736,-0.0596 4.95665,0.49766 5.81694,0.94253 1.68118,0.86937 2.61462,3.78207 1.82086,5.6818 -0.40436,0.96777 -1.50807,2.17332 -2.54734,2.78237 -1.2694,0.74392 -5.9524,1.39742 -8.80331,1.22848 z m 19.79084,-0.15144 c -2.51294,-0.41591 -3.31519,-0.68133 -4.57483,-1.51354 -1.33616,-0.88277 -2.11576,-1.90452 -2.57399,-3.37348 -0.52762,-1.69138 -0.59845,-2.48396 -0.36748,-4.11247 0.70394,-4.96346 4.47453,-7.4497 11.3263,-7.4683 7.08694,-0.0192 10.04964,2.18785 10.58347,7.88423 0.17646,1.88292 -0.0848,2.5331 -0.99823,2.48417 -0.38239,-0.0205 -3.00506,-0.018 -5.82816,0.005 l -5.13292,0.0427 v 0.51404 c 0,0.28273 0.16292,0.67697 0.36204,0.87609 0.31956,0.31956 0.71078,0.34792 3.33375,0.24165 1.63444,-0.0662 4.10584,-0.31852 5.49199,-0.56067 1.38616,-0.24215 2.5617,-0.39886 2.61232,-0.34824 0.0506,0.0506 -0.32837,1.073 -0.8422,2.27194 -1.04095,2.4289 -0.72569,2.19256 -3.76123,2.81967 -2.1056,0.43499 -7.61467,0.57039 -9.63083,0.2367 z m 6.71982,-10.49618 c -0.0846,-0.83621 -1.17593,-1.69334 -2.15609,-1.69334 -1.3111,0 -2.90153,1.62423 -2.0993,2.14393 0.15798,0.10234 1.19211,0.16189 2.29807,0.13233 2.00554,-0.0536 2.01069,-0.0551 1.95732,-0.58292 z m 9.00972,8.41806 c -0.0451,-1.07922 -0.10889,-4.5428 -0.14167,-7.69683 l -0.0596,-5.73461 2.58784,-0.13914 c 1.42332,-0.0765 3.18183,-0.13915 3.90781,-0.13915 1.43158,0 1.57691,0.11864 1.57691,1.28731 0,0.33973 0.0568,0.61769 0.12627,0.61769 0.0694,0 0.55901,-0.38091 1.08791,-0.84647 0.52891,-0.46556 1.34678,-0.95018 1.8175,-1.07694 1.19695,-0.3223 4.09147,-0.0551 4.26365,0.39355 0.14922,0.38885 0.12689,6.71426 -0.026,7.37368 -0.0943,0.40645 -0.28908,0.45655 -2.18078,0.56079 -3.80186,0.20949 -4.34465,0.79742 -4.34649,4.70789 l -10e-4,2.54 -4.26503,0.0572 -4.26503,0.0572 -0.0821,-1.96223 z"
       id="path234" /><path
       style="fill:#000000;stroke-width:0.999999"
       d="m 485.16547,187.69314 c -3.25811,-0.35141 -5.66946,-2.1934 -6.70231,-5.11981 -0.68854,-1.95078 -0.71463,-4.59359 -0.065,-6.58346 0.66933,-2.05024 2.17973,-3.83519 4.03493,-4.76833 1.06988,-0.53813 1.9312,-0.75075 3.05213,-0.7534 1.21293,-0.002 2.14989,0.23934 3.1684,0.81901 l 0.58137,0.33086 h 0.55184 0.55187 l 0.0769,0.7267 c 0.075,0.70869 0.0612,2.3886 -0.0242,2.94724 -0.0309,0.20203 -0.0664,0.25404 -0.20663,0.30294 -0.3156,0.11006 -0.65407,-0.11044 -0.89442,-0.58259 -0.0751,-0.14755 -0.20539,-0.53996 -0.28943,-0.87203 -0.19523,-0.7711 -0.36349,-1.07495 -0.84862,-1.53259 -0.93454,-0.88163 -2.55702,-1.31104 -3.61144,-0.95582 -1.44657,0.4873 -2.71504,1.95782 -3.35096,3.88469 -0.63017,1.90944 -0.70191,4.60604 -0.1771,6.65653 0.52495,2.051 1.83209,3.59256 3.51314,4.14322 0.36932,0.12099 0.61604,0.15796 1.1982,0.17958 0.91664,0.034 1.44305,-0.0499 1.97234,-0.31477 0.62952,-0.31493 0.99467,-0.8372 1.25376,-1.79321 0.13277,-0.48991 0.14904,-1.4771 0.0318,-1.93294 -0.12012,-0.46738 -0.46633,-0.95635 -0.86222,-1.21788 -0.32237,-0.21297 -0.33913,-0.23602 -0.35566,-0.48945 l -0.0173,-0.26596 0.74405,-0.0495 c 0.97333,-0.0648 1.91357,-0.0675 2.4736,-0.007 l 0.45054,0.0486 v 0.85254 c 6e-5,0.4689 -0.0306,1.19943 -0.0681,1.62341 -0.11056,1.25041 0.0631,1.85032 0.68826,2.37854 0.5867,0.49569 0.61583,0.53156 0.57255,0.70502 -0.058,0.23245 -0.15214,0.31242 -0.7126,0.60545 -0.92169,0.48191 -1.99267,0.77913 -3.40095,0.94386 -0.92148,0.10773 -2.71675,0.15668 -3.32888,0.0907 z m -26.67348,-0.1233 c -0.4338,-0.0621 -0.88742,-0.30981 -1.09706,-0.59901 -0.0908,-0.12517 -0.22278,-0.39987 -0.29342,-0.61043 l -0.12844,-0.38283 -0.0195,-3.50134 -0.0195,-3.50132 -0.2147,-0.054 c -0.11816,-0.0297 -0.35205,-0.0853 -0.51993,-0.12342 l -0.30519,-0.0695 v -0.42272 -0.42273 l 0.51901,-0.0406 0.51902,-0.0406 0.034,-0.35931 c 0.0187,-0.19762 0.0751,-1.00026 0.12532,-1.78364 0.0502,-0.78338 0.0956,-1.42864 0.10098,-1.43391 0.005,-0.005 0.40863,-0.0286 0.89626,-0.0518 l 0.88657,-0.0421 v 1.83939 1.83941 h 1.07551 1.07553 v 0.52322 0.52323 h -1.07553 -1.07551 v 3.19016 c 0,3.43634 0.006,3.51104 0.30718,3.8336 0.32212,0.345 0.90274,0.41604 1.55181,0.18989 l 0.37653,-0.1312 0.13216,0.15364 c 0.157,0.18253 0.16313,0.26781 0.038,0.53137 -0.31416,0.66204 -1.70145,1.11652 -2.88901,0.94644 z m 38.72893,0.001 c -2.17885,-0.22604 -3.80565,-1.68394 -4.2429,-3.80239 -0.15038,-0.72854 -0.14649,-1.76118 0.009,-2.41022 0.47173,-1.9678 2.15098,-3.5421 4.03277,-3.78068 0.55733,-0.0707 1.3723,0.016 1.94243,0.20659 1.20182,0.40172 2.17727,1.39554 2.63515,2.68477 0.12271,0.34534 0.23055,1.70069 0.13538,1.70069 -0.0255,0 -0.44113,0.0427 -0.92362,0.095 -0.89148,0.0966 -3.61013,0.14017 -4.94677,0.0794 l -0.63952,-0.0291 0.002,0.8139 c 0.002,0.6891 0.0222,0.87567 0.13493,1.21674 0.25332,0.76642 0.61408,1.27878 1.15167,1.63562 0.53188,0.35303 0.91906,0.44751 1.7056,0.41617 1.08753,-0.0433 1.87055,-0.36413 2.62433,-1.0752 0.36927,-0.34834 0.41195,-0.37251 0.59661,-0.33787 0.15081,0.0283 0.213,0.0778 0.25732,0.20497 0.0882,0.25305 -0.10516,0.59045 -0.65503,1.14286 -0.38411,0.3859 -0.56844,0.51984 -1.02101,0.74206 -0.88673,0.43534 -1.80991,0.59918 -2.79826,0.49664 z m 2.25442,-6.58208 c 0.0735,-0.0735 -0.10197,-0.88708 -0.26848,-1.24478 -0.19712,-0.42341 -0.62823,-0.90767 -0.9577,-1.07575 -0.28375,-0.14476 -0.8487,-0.19705 -1.17499,-0.10871 -0.76423,0.20681 -1.42547,1.12137 -1.56746,2.16795 l -0.0371,0.27285 0.31268,0.0254 c 0.47247,0.0384 3.64945,0.006 3.69298,-0.0369 z m 17.89575,6.58666 c -0.2247,-0.0238 -0.6149,-0.0998 -0.8671,-0.16898 -1.64893,-0.45238 -2.88156,-1.72019 -3.32744,-3.42242 -0.19465,-0.74309 -0.21937,-1.89434 -0.0557,-2.59487 0.35332,-1.51234 1.29456,-2.72573 2.63577,-3.39786 1.18152,-0.59212 2.69568,-0.57934 3.87183,0.0326 0.62717,0.32634 1.37935,1.10352 1.74204,1.79986 0.33714,0.64734 0.50778,1.28001 0.50778,1.88251 v 0.4483 l -0.27614,0.0355 c -1.33931,0.1722 -4.3167,0.24498 -5.66404,0.13847 -0.5356,-0.0423 -0.56445,-0.0388 -0.60038,0.0744 -0.0736,0.23202 -0.0355,1.41787 0.0571,1.77227 0.24068,0.922 0.79069,1.61507 1.57947,1.99039 0.4219,0.20074 0.50353,0.21889 1.07358,0.2387 1.14664,0.0399 2.0468,-0.29169 2.78327,-1.02521 0.47186,-0.46998 0.59809,-0.5165 0.86369,-0.31841 0.2227,0.16611 0.21978,0.27641 -0.0168,0.63255 -0.54211,0.81649 -1.31129,1.38529 -2.3047,1.70432 -0.31151,0.1 -1.33393,0.25174 -1.53558,0.22785 -0.032,-0.004 -0.24201,-0.0263 -0.46672,-0.0501 z m 2.22182,-6.58924 c 0.0758,-0.0758 -0.0993,-0.86604 -0.27246,-1.22886 -0.2061,-0.43182 -0.64584,-0.89507 -1.02849,-1.08347 -0.3863,-0.1902 -1.09855,-0.19485 -1.44777,-0.01 -0.56629,0.30065 -1.07616,1.05454 -1.27029,1.87828 -0.049,0.20736 -0.0892,0.39532 -0.0897,0.41771 0,0.0223 0.14957,0.0518 0.33343,0.0654 0.53165,0.0393 3.72993,0.006 3.77531,-0.0396 z m -86.42297,6.46723 c -0.52373,-0.026 -0.96424,-0.0593 -0.97894,-0.074 -0.0146,-0.0147 -0.0509,-0.1344 -0.0805,-0.26607 -0.0752,-0.3349 -0.004,-0.43233 0.48707,-0.66067 0.48613,-0.2263 0.7234,-0.44199 0.76977,-0.69971 0.0182,-0.10037 0.0253,-3.17903 0.016,-6.84157 -0.0193,-7.59082 0.0405,-6.84036 -0.56914,-7.14812 -0.42317,-0.21362 -0.54493,-0.3775 -0.49161,-0.66169 0.0215,-0.11338 0.0708,-0.23283 0.10994,-0.26537 0.11448,-0.0951 3.58848,-0.25205 4.82902,-0.21824 2.78572,0.076 4.77885,0.80864 6.44883,2.37082 0.7798,0.72948 1.50311,1.88146 1.85868,2.96025 0.48993,1.48638 0.61546,3.65968 0.29837,5.16518 -0.70193,3.3326 -3.22058,5.55884 -7.00716,6.19367 -1.24554,0.20882 -3.33783,0.26232 -5.69032,0.1455 z m 5.75135,-1.47991 c 1.12014,-0.21248 1.9655,-0.66058 2.71079,-1.43688 0.95476,-0.99452 1.37576,-2.16897 1.53802,-4.29074 0.0767,-1.00193 0.0137,-2.37522 -0.15273,-3.33757 -0.37379,-2.16037 -1.36225,-3.72639 -2.79091,-4.42159 -1.1172,-0.54363 -2.99311,-0.76208 -4.06951,-0.47391 l -0.29067,0.0778 -0.0149,6.86809 -0.0148,6.8681 0.18919,0.032 c 0.10405,0.0177 0.39848,0.0684 0.65426,0.11264 0.64287,0.11142 1.65968,0.1124 2.24113,0.002 z m 9.72859,1.43442 c -0.96286,-0.23678 -1.75007,-0.78353 -2.11786,-1.47096 -0.17363,-0.32456 -0.19883,-0.42881 -0.22052,-0.91282 -0.0406,-0.90812 0.16858,-1.54869 0.69365,-2.12317 0.52784,-0.57754 1.20218,-0.92743 2.40677,-1.2488 0.98233,-0.26207 1.51415,-0.36034 2.18009,-0.40285 l 0.61042,-0.039 v -0.8139 c 0,-0.77857 -0.007,-0.82544 -0.15619,-1.0796 -0.16372,-0.2785 -0.44132,-0.50304 -0.83209,-0.67306 -0.33341,-0.14507 -1.20814,-0.14635 -1.47237,-0.002 -0.19363,0.10564 -0.47336,0.58453 -0.47463,0.81244 0,0.14864 -0.19809,0.51339 -0.35827,0.66237 -0.19484,0.18125 -0.41585,0.25099 -0.79426,0.25065 -0.48657,-5.5e-4 -0.88634,-0.277 -1.05978,-0.73318 -0.14569,-0.38315 0.23554,-1.02792 0.86015,-1.45483 0.70202,-0.4798 1.85888,-0.70831 3.05424,-0.60329 1.41531,0.12435 2.32071,0.57958 2.82581,1.4208 0.37574,0.62575 0.41094,0.86898 0.47178,3.26022 0.0915,3.59656 0.0736,3.46761 0.52334,3.77934 0.21252,0.14732 0.30887,0.17477 0.6305,0.1796 0.4327,0.006 0.54319,0.0982 0.54319,0.45063 0,0.42599 -0.36903,0.66357 -1.24077,0.79882 -0.76248,0.11829 -1.1674,-0.0439 -1.73314,-0.69436 -0.37441,-0.43049 -0.56879,-0.47187 -0.84793,-0.18052 -0.42769,0.44642 -1.1571,0.75593 -2.03526,0.86363 -0.68816,0.0844 -0.96166,0.0757 -1.45687,-0.046 z m 2.43468,-1.30509 c 0.40256,-0.19696 0.86555,-0.68964 1.00356,-1.06797 0.0805,-0.22066 0.10725,-0.53457 0.12901,-1.51746 l 0.0275,-1.23925 -0.1955,0.0329 c -0.10749,0.018 -0.45615,0.073 -0.77476,0.12221 -1.52679,0.23566 -2.36258,0.71084 -2.62152,1.49047 -0.11571,0.34818 -0.12648,1.0261 -0.022,1.37493 0.10737,0.3583 0.46134,0.73489 0.82669,0.87943 0.44816,0.17733 1.17997,0.14349 1.627,-0.0752 z m 13.90777,1.33379 c -0.74607,-0.17093 -1.52176,-0.58417 -1.89543,-1.00978 -0.10209,-0.1162 -0.2667,-0.38257 -0.3659,-0.59192 -0.16944,-0.35756 -0.18001,-0.41942 -0.17463,-1.02013 0.005,-0.4992 0.0333,-0.71499 0.13107,-0.98362 0.24853,-0.68247 0.67771,-1.18305 1.36977,-1.59759 0.70513,-0.42234 2.53256,-0.91025 3.65297,-0.97529 l 0.62496,-0.0363 v -0.78685 c 0,-0.67663 -0.0167,-0.82161 -0.12025,-1.03517 -0.23531,-0.48608 -0.78701,-0.82794 -1.41683,-0.87794 -0.72674,-0.0577 -1.07589,0.17265 -1.25818,0.83008 -0.19591,0.70648 -0.57081,1.01172 -1.24521,1.01377 -0.42289,0.001 -0.65228,-0.12111 -0.88427,-0.47165 -0.29404,-0.4444 -0.15325,-0.96944 0.40532,-1.5115 0.26068,-0.25299 0.90054,-0.57875 1.35098,-0.6878 0.79917,-0.19349 2.15437,-0.18057 2.96493,0.0282 0.89564,0.23076 1.6441,0.76714 1.97122,1.41267 0.30528,0.60242 0.32742,0.79481 0.41611,3.61377 0.046,1.46291 0.1108,2.72756 0.14498,2.83122 0.12737,0.38592 0.66842,0.7004 1.10438,0.64192 0.38886,-0.0521 0.53182,0.29973 0.28573,0.70333 -0.23542,0.38614 -1.25959,0.67949 -1.88424,0.53969 -0.3707,-0.0829 -0.84877,-0.40717 -1.15944,-0.78629 -0.28303,-0.34542 -0.4044,-0.34326 -0.84915,0.0151 -0.65141,0.52491 -1.25527,0.73566 -2.26783,0.79145 -0.36474,0.0201 -0.67073,0.004 -0.9011,-0.0495 z m 2.25618,-1.31206 c 0.39609,-0.18986 0.76295,-0.57903 0.92022,-0.97615 0.12,-0.30311 0.13411,-0.44976 0.15423,-1.60379 l 0.0222,-1.27017 -0.16485,0.0335 c -0.0907,0.0184 -0.42647,0.0741 -0.74622,0.12369 -1.95702,0.30355 -2.71741,0.9941 -2.6304,2.38885 0.047,0.75402 0.35035,1.2052 0.93983,1.39804 0.36815,0.12049 1.16101,0.0709 1.50504,-0.094 z m 35.93908,1.32874 c -0.76951,-0.0602 -0.84298,-0.0984 -0.84298,-0.43817 0,-0.21143 0.0255,-0.24082 0.42525,-0.48849 0.49968,-0.30967 0.48329,-0.1963 0.56087,-3.87746 l 0.0677,-3.21207 -0.13451,-0.24102 c -0.0966,-0.17306 -0.27386,-0.3329 -0.62866,-0.56678 -0.42091,-0.27747 -0.49639,-0.35158 -0.5093,-0.50015 -0.0282,-0.32557 -0.014,-0.32989 1.44855,-0.44166 0.74641,-0.0571 1.46831,-0.11509 1.60422,-0.12908 l 0.24705,-0.0254 v 0.54514 c 0,0.29984 0.0129,0.54516 0.0286,0.54516 0.0157,0 0.15307,-0.0957 0.30522,-0.21275 0.59006,-0.4538 1.38563,-0.73253 2.3828,-0.83486 0.77165,-0.0791 1.31105,-0.004 1.84888,0.25992 0.6744,0.33012 1.09467,0.82031 1.41713,1.65277 l 0.14906,0.38484 0.0167,2.99399 c 0.0111,2.0011 0.0379,3.04706 0.0806,3.15398 0.0383,0.0961 0.19462,0.23941 0.39119,0.35881 0.49249,0.29919 0.61208,0.44805 0.56967,0.70928 -0.0193,0.11841 -0.0555,0.23535 -0.0806,0.25985 -0.10283,0.10025 -2.12465,0.18055 -2.92052,0.11608 -0.43007,-0.0349 -0.82902,-0.0633 -0.8866,-0.0633 -0.085,0 -0.10466,-0.0482 -0.10466,-0.25686 0,-0.34477 0.0348,-0.41687 0.27207,-0.5635 0.11129,-0.0688 0.30493,-0.25481 0.43026,-0.41335 l 0.22784,-0.28827 v -2.71661 c 0,-2.96916 -0.009,-3.05402 -0.34082,-3.54934 -0.1925,-0.28666 -0.55901,-0.55229 -0.90359,-0.6549 -0.40158,-0.11964 -1.23165,-0.086 -1.61944,0.0655 -0.58501,0.22858 -1.04704,0.79349 -1.20341,1.47127 -0.0335,0.14505 -0.0582,1.38251 -0.0589,2.95622 0,2.21818 0.0131,2.72665 0.0793,2.81704 0.0444,0.0606 0.27326,0.203 0.5087,0.31632 0.48125,0.23165 0.55964,0.37972 0.3453,0.65223 -0.10909,0.13857 -0.16181,0.15176 -0.744,0.18597 -1.31515,0.0773 -1.7528,0.0826 -2.42887,0.0297 z m 20.551,0.0337 c -0.0799,-0.0123 -0.40006,-0.0383 -0.71142,-0.0588 l -0.56612,-0.0372 -0.071,-0.23711 -0.0711,-0.23711 0.22368,-0.179 c 0.12302,-0.0984 0.36395,-0.30706 0.53539,-0.46358 l 0.3117,-0.28458 v -3.35485 -3.35485 l -0.13079,-0.19366 c -0.0719,-0.1065 -0.2616,-0.26972 -0.42148,-0.36268 -0.56383,-0.32788 -0.71857,-0.56972 -0.52974,-0.82797 0.0702,-0.0959 0.25464,-0.12598 1.41839,-0.23051 l 1.33772,-0.12012 0.0362,0.55367 c 0.02,0.30453 0.0521,0.7735 0.0717,1.04214 l 0.0355,0.48847 0.10773,-0.13965 c 0.0593,-0.0768 0.24483,-0.36202 0.41245,-0.63381 0.57255,-0.92821 1.16235,-1.33655 1.99722,-1.38275 0.59478,-0.0329 0.87397,0.0892 1.10487,0.48317 0.13582,0.23175 0.15159,0.3117 0.1315,0.6668 -0.0244,0.43135 -0.11497,0.61248 -0.4198,0.83962 -0.14354,0.107 -0.24396,0.11989 -0.93132,0.11989 -0.75316,0 -0.77581,0.004 -1.01093,0.16649 -0.27996,0.19382 -0.46049,0.41678 -0.66546,0.82181 -0.34676,0.68517 -0.35437,0.74782 -0.37873,3.12149 -0.0277,2.69913 -0.0704,2.53854 0.75517,2.83966 0.29633,0.1081 0.34025,0.14541 0.39803,0.33833 0.0357,0.11927 0.056,0.28109 0.0448,0.35963 -0.0186,0.13175 -0.0515,0.14569 -0.42709,0.18046 -0.52987,0.0491 -2.39951,0.10442 -2.58705,0.0767 z m 7.58673,-0.0791 c -1.14928,-0.31576 -1.90849,-0.91572 -2.21478,-1.75021 -0.14217,-0.38735 -0.12759,-1.25809 0.0294,-1.75279 0.25617,-0.80743 0.82172,-1.40659 1.72612,-1.8288 0.77269,-0.36072 2.41168,-0.7625 3.34157,-0.81915 l 0.5768,-0.0351 v -0.82187 c 0,-0.73694 -0.0135,-0.84859 -0.13079,-1.08044 -0.24283,-0.47994 -0.86822,-0.81251 -1.52795,-0.81251 -0.61679,0 -0.94518,0.22263 -1.10015,0.74588 -0.14004,0.47277 -0.17286,0.54289 -0.35606,0.76059 -0.2089,0.24827 -0.46296,0.35389 -0.85094,0.35378 -0.39177,-1.1e-4 -0.65918,-0.13508 -0.90143,-0.45498 -0.23571,-0.31131 -0.25013,-0.59385 -0.0504,-0.98806 0.25801,-0.50914 0.84542,-0.94831 1.55907,-1.16559 0.83677,-0.25477 2.27625,-0.2708 3.19039,-0.0355 0.89519,0.2304 1.64278,0.77803 1.9702,1.44321 0.29482,0.59889 0.33753,0.99631 0.40356,3.75307 0.0675,2.81629 0.0604,2.77093 0.48866,3.11245 0.19271,0.15363 0.27142,0.17832 0.5722,0.17937 0.31039,0.001 0.35755,0.0171 0.42854,0.14534 0.1167,0.21077 0.10124,0.42094 -0.0471,0.64105 -0.19394,0.28778 -0.44077,0.40339 -1.0139,0.47488 -0.84448,0.1054 -1.23741,-0.0757 -1.88745,-0.87008 -0.23686,-0.28941 -0.46007,-0.26342 -0.89433,0.10418 -0.61619,0.52155 -1.22195,0.72814 -2.29386,0.7823 -0.49233,0.0249 -0.68917,0.009 -1.01739,-0.081 z m 2.27622,-1.23531 c 0.39814,-0.14896 0.80219,-0.52924 1.01032,-0.95091 0.13783,-0.27924 0.1442,-0.34298 0.16199,-1.61877 l 0.0184,-1.32809 -0.16386,0.0335 c -0.0901,0.0184 -0.34698,0.0612 -0.57079,0.0951 -1.96584,0.29726 -2.73697,0.87089 -2.80744,2.08842 -0.0669,1.15633 0.50546,1.78964 1.62801,1.80128 0.26492,0.002 0.49715,-0.036 0.72325,-0.12049 z m 7.34528,1.31415 c -0.08,-0.0123 -0.42345,-0.0379 -0.7633,-0.0583 -0.58343,-0.0349 -0.62161,-0.0449 -0.6831,-0.1799 -0.0883,-0.19383 -0.082,-0.39995 0.0149,-0.48023 0.0439,-0.0365 0.22052,-0.11387 0.3924,-0.17211 0.24352,-0.0824 0.35102,-0.16032 0.48691,-0.35276 l 0.17441,-0.24695 0.0153,-6.76046 0.0153,-6.76044 -0.19034,-0.27618 c -0.13799,-0.20022 -0.31008,-0.34417 -0.62566,-0.52333 -0.45781,-0.25991 -0.54781,-0.40419 -0.4113,-0.65929 0.0558,-0.10429 0.15416,-0.11546 1.32617,-0.14977 0.69623,-0.0204 1.40965,-0.0429 1.58539,-0.0501 l 0.31953,-0.013 0.0692,0.43603 c 0.0507,0.3191 0.0702,2.34898 0.0729,7.57021 0.004,8.09873 -0.0426,7.38678 0.50732,7.72008 0.35801,0.21698 0.41128,0.29171 0.43714,0.61327 l 0.0184,0.22913 -0.40694,0.0373 c -0.54882,0.0503 -2.17359,0.10332 -2.3545,0.0767 z M 415.57687,187.0853 c -2.91209,-0.75918 -5.20254,-3.27483 -5.87836,-6.4563 -0.13985,-0.65836 -0.14015,-2.20011 -5.5e-4,-2.90679 0.66619,-3.37252 3.06611,-5.87173 6.35853,-6.62161 l 0.36335,-0.0828 v 8.10479 8.1048 l -0.15987,-0.002 c -0.088,-0.001 -0.39532,-0.0642 -0.6831,-0.13925 z m 3.57534,-3.86255 v -4.01807 h 3.48816 3.48814 v 0.45747 c 0,2.2259 -1.59532,4.91585 -3.78205,6.37711 -0.92627,0.61895 -1.99297,1.05147 -2.86054,1.15986 l -0.33371,0.0417 z"
       id="path336" /></g></svg>
