<?xml version="1.0" encoding="UTF-8" standalone="no"?>
<!-- Created with Inkscape (http://www.inkscape.org/) -->

<svg
   width="145.81485mm"
   height="145.62808mm"
   viewBox="0 0 145.81485 145.62808"
   version="1.1"
   id="svg5"
   inkscape:version="1.2.2 (732a01da63, 2022-12-09)"
   sodipodi:docname="DCC Logo.svg"
   xml:space="preserve"
   xmlns:inkscape="http://www.inkscape.org/namespaces/inkscape"
   xmlns:sodipodi="http://sodipodi.sourceforge.net/DTD/sodipodi-0.dtd"
   xmlns="http://www.w3.org/2000/svg"
   xmlns:svg="http://www.w3.org/2000/svg"><sodipodi:namedview
     id="namedview7"
     pagecolor="#ffffff"
     bordercolor="#000000"
     borderopacity="0.25"
     inkscape:showpageshadow="2"
     inkscape:pageopacity="0.0"
     inkscape:pagecheckerboard="0"
     inkscape:deskcolor="#d1d1d1"
     inkscape:document-units="mm"
     showgrid="false"
     inkscape:zoom="0.71624579"
     inkscape:cx="300.87437"
     inkscape:cy="278.53567"
     inkscape:window-width="1920"
     inkscape:window-height="991"
     inkscape:window-x="-9"
     inkscape:window-y="-9"
     inkscape:window-maximized="1"
     inkscape:current-layer="layer1" /><defs
     id="defs2" /><g
     inkscape:label="Layer 1"
     inkscape:groupmode="layer"
     id="layer1"
     transform="translate(-0.34060275,-74.836774)"><path
       style="fill:#000000;stroke-width:1"
       d="m 70.544615,220.2201 c -0.05535,-0.16606 -1.287665,-0.27582 -3.880557,-0.34565 -2.089694,-0.0563 -3.850623,-0.18156 -3.913172,-0.2784 -0.06255,-0.0968 -1.038865,-0.24111 -2.169584,-0.32059 -1.130721,-0.0795 -2.055854,-0.21353 -2.055854,-0.29788 0,-0.0844 -0.381,-0.2143 -0.846667,-0.28876 -0.465667,-0.0745 -0.846667,-0.22952 -0.846667,-0.34456 0,-0.11504 -0.142875,-0.20916 -0.3175,-0.20916 -0.174625,0 -0.3175,0.0952 -0.3175,0.21166 0,0.11642 -0.142875,0.21167 -0.3175,0.21167 -0.174625,0 -0.3175,-0.0831 -0.3175,-0.18473 0,-0.10161 -0.486403,-0.23148 -1.080895,-0.2886 -0.594491,-0.0571 -1.143133,-0.20457 -1.219204,-0.32765 -0.07607,-0.12308 -0.399292,-0.28929 -0.718271,-0.36935 -0.31898,-0.0801 -0.579963,-0.23048 -0.579963,-0.33428 0,-0.1038 -0.428625,-0.18872 -0.9525,-0.18872 -0.705555,0 -0.9525,-0.0823 -0.9525,-0.3175 0,-0.22296 -0.225105,-0.3175 -0.755953,-0.3175 -0.415772,0 -0.898827,-0.14288 -1.073452,-0.3175 -0.174625,-0.17463 -0.596445,-0.3175 -0.937381,-0.3175 -0.340933,0 -0.61988,-0.0952 -0.61988,-0.21167 0,-0.11641 -0.241114,-0.21166 -0.535809,-0.21166 -0.294697,0 -0.590637,-0.14288 -0.657646,-0.3175 -0.06701,-0.17463 -0.34684,-0.3175 -0.621841,-0.3175 -0.517309,0 -2.258312,-0.80503 -2.382759,-1.10177 -0.03881,-0.0925 -0.34837,-0.16823 -0.687917,-0.16823 -0.407655,0 -0.617362,-0.10785 -0.617362,-0.3175 0,-0.19756 -0.199906,-0.3175 -0.529166,-0.3175 -0.291042,0 -0.529167,-0.0877 -0.529167,-0.19485 0,-0.10717 -0.28575,-0.25761 -0.635,-0.33432 -0.34925,-0.0767 -0.635,-0.21958 -0.635,-0.3175 0,-0.0979 -0.28575,-0.24079 -0.635,-0.3175 -0.34925,-0.0767 -0.635,-0.22715 -0.635,-0.33432 0,-0.10717 -0.142875,-0.19485 -0.3175,-0.19485 -0.174625,0 -0.3175,-0.14287 -0.3175,-0.3175 0,-0.17462 -0.159294,-0.3175 -0.353989,-0.3175 -0.563177,0 -1.962885,-0.71476 -1.968883,-1.00541 -0.003,-0.14553 -0.233397,-0.26459 -0.511982,-0.26459 -0.278587,0 -0.561346,-0.14287 -0.628358,-0.3175 -0.06701,-0.17462 -0.319872,-0.3175 -0.561917,-0.3175 -0.242048,0 -0.660771,-0.23812 -0.9305,-0.52916 -0.269729,-0.29105 -0.598555,-0.52917 -0.730726,-0.52917 -0.132171,0 -0.240311,-0.13255 -0.240311,-0.29455 0,-0.16201 -0.238125,-0.35432 -0.529167,-0.42737 -0.291042,-0.073 -0.529167,-0.22625 -0.529167,-0.34045 0,-0.1142 -0.142875,-0.20763 -0.3175,-0.20763 -0.174625,0 -0.3175,-0.14288 -0.3175,-0.3175 0,-0.17463 -0.142875,-0.3175 -0.3175,-0.3175 -0.174625,0 -0.3175,-0.0877 -0.3175,-0.19485 0,-0.10717 -0.28575,-0.25761 -0.635,-0.33432 -0.34925,-0.0767 -0.635,-0.23448 -0.635,-0.3506 0,-0.22283 -1.150613,-1.44856 -1.359787,-1.44856 -0.06729,0 -0.479431,-0.36735 -0.915864,-0.81633 -0.436434,-0.44898 -1.007828,-0.88402 -1.269765,-0.96676 -0.261938,-0.0827 -0.47625,-0.23927 -0.47625,-0.34784 0,-0.10858 -0.142875,-0.19741 -0.3175,-0.19741 -0.174625,0 -0.3175,-0.10635 -0.3175,-0.23633 0,-0.12998 -0.5715,-0.80078 -1.27,-1.49066 -0.6985,-0.68988 -1.27,-1.39316 -1.27,-1.56283 0,-0.16968 -0.142875,-0.30851 -0.3175,-0.30851 -0.174625,0 -0.3175,-0.0953 -0.3175,-0.21167 0,-0.26189 -0.639528,-0.91285 -1.361682,-1.38602 -0.298824,-0.1958 -0.543318,-0.46531 -0.543318,-0.59892 0,-0.1336 -0.238125,-0.42174 -0.529167,-0.6403 -0.291042,-0.21856 -0.529167,-0.52692 -0.529167,-0.68524 0,-0.15832 -0.120288,-0.28785 -0.267307,-0.28785 -0.253944,0 -0.605624,-0.50996 -0.912323,-1.32292 -0.07686,-0.20373 -0.223884,-0.37041 -0.326723,-0.37041 -0.102839,0 -0.18698,-0.14288 -0.18698,-0.3175 0,-0.17463 -0.119062,-0.31841 -0.264583,-0.31951 -0.145521,-0.001 -0.451545,-0.42731 -0.680053,-0.94714 -0.228508,-0.51983 -0.538071,-0.99218 -0.687917,-1.04969 -0.149846,-0.0575 -0.272447,-0.29803 -0.272447,-0.53452 0,-0.24109 -0.139476,-0.42998 -0.3175,-0.42998 -0.174625,0 -0.3175,-0.14287 -0.3175,-0.3175 0,-0.17462 -0.08492,-0.3175 -0.18872,-0.3175 -0.103796,0 -0.248486,-0.23812 -0.321533,-0.52916 -0.07305,-0.29104 -0.226247,-0.52917 -0.340446,-0.52917 -0.114199,0 -0.207634,-0.14287 -0.207634,-0.3175 0,-0.17462 -0.142875,-0.3175 -0.3175,-0.3175 -0.198605,0 -0.3175,-0.20064 -0.3175,-0.53581 0,-0.2947 -0.142875,-0.59064 -0.3175,-0.65764 -0.174625,-0.067 -0.3175,-0.21371 -0.3175,-0.32598 0,-0.11228 -0.142875,-0.34702 -0.3175,-0.52164 -0.174625,-0.17463 -0.3175,-0.59645 -0.3175,-0.93738 0,-0.4099 -0.1075542,-0.61988 -0.3175,-0.61988 -0.1937703,0 -0.3175,-0.19739 -0.3175,-0.50652 0,-0.27859 -0.142875,-0.56135 -0.3175,-0.62836 -0.174625,-0.067 -0.3175,-0.36295 -0.3175,-0.65765 0,-0.29469 -0.09525,-0.53581 -0.2116667,-0.53581 -0.1164166,0 -0.2116666,-0.18369 -0.2116666,-0.40821 0,-0.22452 -0.1303086,-0.53852 -0.2895744,-0.69779 -0.159266,-0.15927 -0.3626038,-0.52326 -0.4518622,-0.80887 -0.089258,-0.28561 -0.2208871,-0.56699 -0.2925087,-0.62529 -0.2821872,-0.22968 -0.8710547,-1.53925 -0.8710547,-1.93711 0,-0.23171 -0.142875,-0.56417 -0.3175,-0.7388 -0.174625,-0.17462 -0.3175,-0.59644 -0.3175,-0.93738 0,-0.34093 -0.087682,-0.61988 -0.1948487,-0.61988 -0.1071666,0 -0.2576097,-0.28575 -0.3343179,-0.635 -0.076708,-0.34925 -0.2150326,-0.635 -0.3073878,-0.635 -0.092355,0 -0.2146557,-0.4864 -0.2717788,-1.08089 -0.057123,-0.59449 -0.1975597,-1.14218 -0.3120813,-1.21709 -0.1145214,-0.0749 -0.263442,-0.61536 -0.3309343,-1.20103 -0.067492,-0.58566 -0.1534869,-1.20479 -0.191099,-1.37583 -0.053038,-0.2412 0.2155017,-0.32556 1.196533,-0.3759 0.6957052,-0.0357 1.329472,-0.16936 1.4083707,-0.29702 0.1021271,-0.16524 7.1158664,-0.26043 24.3467474,-0.33042 13.311812,-0.0541 24.250921,-0.16779 24.309129,-0.25271 0.05821,-0.0849 0.629131,-0.21486 1.268713,-0.28873 0.639585,-0.0739 1.19521,-0.23132 1.234724,-0.34985 0.03951,-0.11854 0.295224,-0.21553 0.568248,-0.21553 0.273027,0 0.623219,-0.12681 0.778208,-0.2818 0.154991,-0.15499 0.542794,-0.3473 0.861786,-0.42736 0.318994,-0.0801 0.579988,-0.23901 0.579988,-0.3532 0,-0.1142 0.227935,-0.20764 0.50652,-0.20764 0.278587,0 0.561346,-0.14287 0.628358,-0.3175 0.06701,-0.17462 0.352624,-0.3175 0.634699,-0.3175 0.369689,0 0.549713,-0.14683 0.644866,-0.52594 0.08144,-0.32447 0.333481,-0.57651 0.657947,-0.65795 0.289268,-0.0726 0.525943,-0.26455 0.525943,-0.42655 0,-0.16201 0.08333,-0.29456 0.185166,-0.29456 0.261184,0 2.143167,-1.8317 2.143167,-2.0859 0,-0.11543 0.28575,-0.49562 0.635,-0.84487 0.34925,-0.34925 0.635,-0.7852 0.635,-0.96878 0,-0.18358 0.09344,-0.33378 0.207635,-0.33378 0.114198,0 0.267398,-0.23813 0.340446,-0.52917 0.07305,-0.29104 0.210168,-0.52916 0.304714,-0.52916 0.09455,0 0.234664,-0.28575 0.311372,-0.635 0.07671,-0.34925 0.225336,-0.635 0.330284,-0.635 0.104949,0 0.250582,-0.23813 0.32363,-0.52917 0.07305,-0.29104 0.210168,-0.52917 0.304713,-0.52917 0.09455,0 0.234665,-0.28575 0.311373,-0.635 0.07671,-0.34925 0.216825,-0.635 0.311372,-0.635 0.09455,0 0.231667,-0.23812 0.304713,-0.52916 0.07305,-0.29105 0.226249,-0.52917 0.340447,-0.52917 0.114198,0 0.207634,-0.14586 0.207634,-0.32414 0,-0.17828 0.142875,-0.37897 0.3175,-0.44598 0.174625,-0.067 0.3175,-0.30514 0.3175,-0.52917 0,-0.22403 0.142875,-0.46216 0.3175,-0.52917 0.174625,-0.067 0.3175,-0.33958 0.3175,-0.60571 0,-0.26613 0.142875,-0.5387 0.3175,-0.60571 0.174625,-0.067 0.3175,-0.2677 0.3175,-0.44598 0,-0.3399 0.416751,-0.40521 1.217084,-0.19073 0.324974,0.0871 0.47625,0.28787 0.47625,0.63211 0,0.30731 0.124087,0.50448 0.3175,0.50448 0.174625,0 0.3175,0.17884 0.3175,0.39742 0,0.21857 0.142875,0.51599 0.3175,0.66091 0.174625,0.14493 0.3175,0.39472 0.3175,0.55509 0,0.16037 0.09344,0.29158 0.207634,0.29158 0.114198,0 0.267399,0.23812 0.340447,0.52917 0.07305,0.29104 0.217735,0.52916 0.321532,0.52916 0.103795,0 0.18872,0.14587 0.18872,0.32414 0,0.17828 0.142875,0.37897 0.3175,0.44598 0.174625,0.067 0.3175,0.34977 0.3175,0.62836 0,0.30913 0.12373,0.50652 0.3175,0.50652 0.19377,0 0.3175,0.19739 0.3175,0.50652 0,0.27859 0.142875,0.56135 0.3175,0.62836 0.174625,0.067 0.3175,0.32213 0.3175,0.56693 0,0.2448 0.142875,0.58797 0.3175,0.7626 0.174625,0.17462 0.3175,0.50119 0.3175,0.72571 0,0.29432 0.147644,0.40822 0.529167,0.40822 0.443983,0 0.529166,0.0998 0.529166,0.61988 0,0.34093 0.142875,0.76275 0.3175,0.93738 0.174625,0.17462 0.3175,0.41955 0.3175,0.54428 0,0.12474 0.142875,0.22679 0.3175,0.22679 0.174625,0 0.3175,0.14287 0.3175,0.3175 0,0.17462 0.09416,0.3175 0.209247,0.3175 0.322077,0 1.060753,0.69605 1.060753,0.99954 0,0.14875 0.142875,0.27046 0.3175,0.27046 0.174625,0 0.3175,0.0934 0.3175,0.20763 0,0.1142 0.238125,0.2674 0.529167,0.34045 0.291041,0.073 0.529166,0.21773 0.529166,0.32153 0,0.1038 0.142875,0.18872 0.3175,0.18872 0.174625,0 0.3175,0.14288 0.3175,0.3175 0,0.17463 0.132686,0.3175 0.294854,0.3175 0.162171,0 0.34968,0.14288 0.416691,0.3175 0.06701,0.17463 0.32213,0.3175 0.56693,0.3175 0.244804,0 0.587972,0.14288 0.762597,0.3175 0.174625,0.17463 0.596445,0.3175 0.937381,0.3175 0.409895,0 0.619881,0.10756 0.619881,0.3175 0,0.21167 0.211666,0.3175 0.635,0.3175 0.34925,0 0.635,0.0867 0.635,0.19267 0,0.10596 0.809625,0.2601 1.799166,0.34253 0.989542,0.0824 1.799167,0.23386 1.799167,0.3365 0,0.24288 5.869307,0.24452 5.961945,0.002 0.03934,-0.10313 9.676358,-0.22019 21.781168,-0.26459 20.10655,-0.0737 21.73689,-0.0534 22.06625,0.27568 0.38748,0.38709 0.50464,2.07884 0.14397,2.07884 -0.11642,0 -0.21167,0.22794 -0.21167,0.50653 0,0.27858 -0.14287,0.56134 -0.3175,0.62835 -0.22927,0.088 -0.3175,0.44719 -0.3175,1.29265 0,0.89961 -0.0735,1.17081 -0.3175,1.17081 -0.2293,0 -0.3175,0.23518 -0.3175,0.84666 0,0.46567 -0.0877,0.84667 -0.19485,0.84667 -0.10716,0 -0.25761,0.28575 -0.33431,0.635 -0.0767,0.34925 -0.21498,0.635 -0.30727,0.635 -0.0923,0 -0.22872,0.381 -0.30318,0.84667 -0.0745,0.46566 -0.22195,0.84666 -0.32774,0.84666 -0.10579,0 -0.25511,0.28575 -0.33181,0.635 -0.0767,0.34925 -0.22716,0.635 -0.33432,0.635 -0.10717,0 -0.19485,0.24112 -0.19485,0.53581 0,0.2947 -0.14288,0.59064 -0.3175,0.65765 -0.17463,0.067 -0.3175,0.34977 -0.3175,0.62836 0,0.30913 -0.12373,0.50652 -0.3175,0.50652 -0.20906,0 -0.3175,0.20915 -0.3175,0.61235 0,0.34906 -0.13652,0.66474 -0.3175,0.73419 -0.17463,0.067 -0.3175,0.36295 -0.3175,0.65765 0,0.29469 -0.0849,0.53581 -0.18872,0.53581 -0.1038,0 -0.24849,0.23812 -0.32153,0.52916 -0.073,0.29105 -0.21868,0.52917 -0.32363,0.52917 -0.10495,0 -0.25358,0.28575 -0.33029,0.635 -0.0767,0.34925 -0.22715,0.635 -0.33432,0.635 -0.10716,0 -0.19484,0.14288 -0.19484,0.3175 0,0.17463 -0.14288,0.3175 -0.3175,0.3175 -0.19377,0 -0.3175,0.19739 -0.3175,0.50652 0,0.27859 -0.14288,0.56135 -0.3175,0.62836 -0.17463,0.067 -0.3175,0.36295 -0.3175,0.65764 0,0.33517 -0.1189,0.53581 -0.3175,0.53581 -0.17463,0 -0.3175,0.14288 -0.3175,0.3175 0,0.17463 -0.0849,0.3175 -0.18872,0.3175 -0.1038,0 -0.24849,0.23813 -0.32154,0.52917 -0.073,0.29104 -0.2312,0.52917 -0.35145,0.52917 -0.12026,0 -0.3169,0.28185 -0.437,0.62635 -0.12009,0.34449 -0.40088,0.68428 -0.62399,0.7551 -0.25329,0.0804 -0.40564,0.32212 -0.40564,0.64364 0,0.31658 -0.12229,0.51491 -0.3175,0.51491 -0.17462,0 -0.3175,0.14287 -0.3175,0.3175 0,0.17462 -0.14287,0.3175 -0.3175,0.3175 -0.17462,0 -0.3175,0.14287 -0.3175,0.3175 0,0.17462 -0.0952,0.3175 -0.21166,0.3175 -0.11642,0 -0.21167,0.14287 -0.21167,0.3175 0,0.17462 -0.13255,0.3175 -0.29455,0.3175 -0.16201,0 -0.35432,0.23812 -0.42737,0.52916 -0.073,0.29104 -0.22625,0.52917 -0.34045,0.52917 -0.11419,0 -0.20763,0.14287 -0.20763,0.3175 0,0.17462 -0.14288,0.3175 -0.3175,0.3175 -0.17463,0 -0.3175,0.14287 -0.3175,0.3175 0,0.17462 -0.14288,0.3175 -0.3175,0.3175 -0.17463,0 -0.3175,0.14287 -0.3175,0.3175 0,0.17462 -0.14288,0.3175 -0.3175,0.3175 -0.17463,0 -0.3175,0.10205 -0.3175,0.22679 0,0.29304 -0.5385,0.83154 -0.83155,0.83154 -0.12473,0 -0.22678,0.14288 -0.22678,0.3175 0,0.17463 -0.14288,0.3175 -0.3175,0.3175 -0.17463,0 -0.3175,0.14288 -0.3175,0.3175 0,0.17463 -0.14288,0.3175 -0.3175,0.3175 -0.17463,0 -0.3175,0.14288 -0.3175,0.3175 0,0.17463 -0.14288,0.3175 -0.3175,0.3175 -0.17463,0 -0.3175,0.14288 -0.3175,0.3175 0,0.17463 -0.14288,0.3175 -0.3175,0.3175 -0.17463,0 -0.3175,0.14288 -0.3175,0.3175 0,0.17463 -0.10206,0.3175 -0.22679,0.3175 -0.29305,0 -0.83155,0.5385 -0.83155,0.83155 0,0.12473 -0.14287,0.22679 -0.3175,0.22679 -0.17462,0 -0.3175,0.14287 -0.3175,0.3175 0,0.17462 -0.14287,0.3175 -0.3175,0.3175 -0.17462,0 -0.3175,0.0888 -0.3175,0.1974 0,0.10857 -0.19965,0.26077 -0.44367,0.33822 -0.24403,0.0775 -0.79846,0.5064 -1.23209,0.95321 -0.43362,0.44682 -1.04359,0.87645 -1.35549,0.95473 -0.31189,0.0783 -0.56708,0.22725 -0.56708,0.33105 0,0.10379 -0.14288,0.18872 -0.3175,0.18872 -0.17463,0 -0.3175,0.14287 -0.3175,0.3175 0,0.17462 -0.14288,0.3175 -0.3175,0.3175 -0.17463,0 -0.3175,0.0934 -0.3175,0.20763 0,0.1142 -0.23813,0.2674 -0.52917,0.34045 -0.29104,0.073 -0.52916,0.26536 -0.52916,0.42737 0,0.162 -0.0998,0.29455 -0.22178,0.29455 -0.12197,0 -0.44246,0.23812 -0.71219,0.52917 -0.26972,0.29104 -0.69679,0.52916 -0.94903,0.52916 -0.25224,0 -0.51345,0.14288 -0.58046,0.3175 -0.067,0.17463 -0.25452,0.3175 -0.41669,0.3175 -0.16217,0 -0.29485,0.14288 -0.29485,0.3175 0,0.19055 -0.19542,0.3175 -0.48871,0.3175 -0.2688,0 -0.67361,0.13985 -0.89959,0.31077 -0.22598,0.17092 -0.62518,0.3138 -0.88712,0.3175 -0.27923,0.004 -0.47625,0.13808 -0.47625,0.32423 0,0.17463 -0.14288,0.3175 -0.3175,0.3175 -0.17463,0 -0.3175,0.0877 -0.3175,0.19485 0,0.10717 -0.28575,0.25761 -0.635,0.33432 -0.34925,0.0767 -0.635,0.21958 -0.635,0.3175 0,0.0979 -0.28575,0.24079 -0.635,0.3175 -0.34925,0.0767 -0.635,0.22715 -0.635,0.33432 0,0.10716 -0.24111,0.19485 -0.53581,0.19485 -0.2947,0 -0.58633,0.13164 -0.64807,0.29253 -0.0617,0.1609 -0.48737,0.35252 -0.94585,0.42584 -0.45848,0.0733 -0.8336,0.22742 -0.8336,0.34246 0,0.11504 -0.14288,0.20917 -0.3175,0.20917 -0.17463,0 -0.3175,0.0934 -0.3175,0.20763 0,0.1142 -0.261,0.27314 -0.57999,0.3532 -0.31899,0.0801 -0.7068,0.27238 -0.86179,0.42737 -0.15499,0.15499 -0.56074,0.2818 -0.901676,0.2818 -0.340934,0 -0.619881,0.0952 -0.619881,0.21166 0,0.11642 -0.278947,0.21167 -0.61988,0.21167 -0.340936,0 -0.762756,0.14287 -0.937381,0.3175 -0.174625,0.17462 -0.60325,0.3175 -0.9525,0.3175 -0.34925,0 -0.76305,0.12805 -0.919556,0.28455 -0.156504,0.15651 -0.755498,0.33764 -1.331095,0.40252 -0.575598,0.0649 -1.081414,0.22258 -1.124037,0.35044 -0.04262,0.12787 -0.457361,0.23249 -0.921641,0.23249 -0.468131,0 -0.985575,0.14143 -1.161648,0.3175 -0.186631,0.18663 -0.703874,0.3175 -1.254881,0.3175 -0.515558,0 -0.93738,0.0941 -0.93738,0.20916 0,0.11504 -0.381,0.27009 -0.846667,0.34456 -0.465667,0.0745 -0.846667,0.20623 -0.846667,0.29281 0,0.0866 -1.066254,0.20136 -2.369451,0.25505 -1.539799,0.0634 -2.398287,0.18413 -2.451805,0.34469 -0.05707,0.17121 -0.917114,0.24706 -2.801262,0.24706 -2.134587,0 -2.787144,0.0682 -3.036409,0.3175 -0.19695,0.19695 -0.716479,0.3175 -1.368307,0.3175 -0.738791,0 -1.086984,-0.0943 -1.172644,-0.3175 -0.06701,-0.17462 -0.267699,-0.3175 -0.445979,-0.3175 -0.178279,0 -0.324142,-0.0952 -0.324142,-0.21167 0,-0.11641 -0.238125,-0.21166 -0.529167,-0.21166 -0.291042,0 -0.529167,0.0952 -0.529167,0.21166 0,0.11642 -0.1905,0.21167 -0.423333,0.21167 -0.235185,0 -0.423333,0.14111 -0.423333,0.3175 0,0.37623 -0.981505,0.44215 -1.104166,0.0742 z m 6.483223,-17.43208 c 1.154024,-0.17394 2.707458,-0.31625 3.452076,-0.31625 0.744618,0 1.30215,-0.0837 1.238961,-0.1859 -0.145771,-0.23586 0.903755,-0.4491 2.210384,-0.4491 0.701832,0 1.046338,-0.0967 1.131066,-0.3175 0.08042,-0.20957 0.411908,-0.3175 0.975147,-0.3175 0.46932,0 0.853308,-0.0831 0.853308,-0.18474 0,-0.1016 0.496037,-0.2324 1.102301,-0.29065 0.606266,-0.0583 1.138079,-0.21325 1.181807,-0.34443 0.04373,-0.13119 0.493387,-0.23852 0.999244,-0.23852 0.535329,0 1.052445,-0.1327 1.237243,-0.3175 0.174625,-0.17462 0.56243,-0.3175 0.861786,-0.3175 0.299358,0 0.544286,-0.0941 0.544286,-0.20916 0,-0.11504 0.37512,-0.26915 0.8336,-0.34247 0.458481,-0.0733 0.884115,-0.26493 0.945856,-0.42583 0.06174,-0.1609 0.343182,-0.29254 0.625422,-0.29254 0.282239,0 0.567989,-0.14287 0.635,-0.3175 0.06701,-0.17462 0.362949,-0.3175 0.657646,-0.3175 0.294695,0 0.535809,-0.0952 0.535809,-0.21166 0,-0.11642 0.136072,-0.21167 0.302381,-0.21167 0.166311,0 0.429992,-0.11906 0.585961,-0.26458 0.54305,-0.50668 1.614809,-1.00542 2.160568,-1.00542 0.30218,0 0.54942,-0.0888 0.54942,-0.1974 0,-0.10858 0.20538,-0.26259 0.45638,-0.34226 0.25101,-0.0797 0.66065,-0.36525 0.91031,-0.63464 0.24965,-0.26938 0.71103,-0.55432 1.02528,-0.63319 0.31425,-0.0789 0.57137,-0.22833 0.57137,-0.33212 0,-0.1038 0.14287,-0.18872 0.3175,-0.18872 0.17462,0 0.3175,-0.13255 0.3175,-0.29456 0,-0.162 0.23812,-0.35432 0.52916,-0.42736 0.29104,-0.073 0.52917,-0.22625 0.52917,-0.34045 0,-0.1142 0.14287,-0.20763 0.3175,-0.20763 0.17462,0 0.3175,-0.14288 0.3175,-0.3175 0,-0.17463 0.13269,-0.3175 0.29485,-0.3175 0.16217,0 0.34968,-0.14288 0.41669,-0.3175 0.067,-0.17463 0.2677,-0.3175 0.44598,-0.3175 0.17828,0 0.32415,-0.0888 0.32415,-0.19741 0,-0.10857 0.21431,-0.26468 0.47625,-0.34691 0.26193,-0.0822 0.67569,-0.36327 0.91945,-0.62452 0.24376,-0.26124 0.64858,-0.54017 0.89958,-0.61984 0.25101,-0.0797 0.45638,-0.27796 0.45638,-0.44064 0,-0.16268 0.21432,-0.4083 0.47625,-0.5458 0.26194,-0.13751 0.55242,-0.37899 0.64552,-0.53662 0.0931,-0.15763 0.30741,-0.2866 0.47625,-0.2866 0.16884,0 0.30698,-0.10205 0.30698,-0.22678 0,-0.29305 0.5385,-0.83155 0.83155,-0.83155 0.12473,0 0.22679,-0.14287 0.22679,-0.3175 0,-0.17462 0.14287,-0.3175 0.3175,-0.3175 0.17462,0 0.3175,-0.14287 0.3175,-0.3175 0,-0.17462 0.0892,-0.3175 0.19812,-0.3175 0.10897,0 0.41226,-0.381 0.67398,-0.84667 0.26172,-0.46566 0.60119,-0.84666 0.75437,-0.84666 0.15319,0 0.27853,-0.14288 0.27853,-0.3175 0,-0.17463 0.0953,-0.3175 0.21166,-0.3175 0.11642,0 0.21167,-0.14288 0.21167,-0.3175 0,-0.17463 0.14287,-0.3175 0.3175,-0.3175 0.17462,0 0.3175,-0.14288 0.3175,-0.3175 0,-0.17463 0.14287,-0.3175 0.3175,-0.3175 0.17462,0 0.3175,-0.14288 0.3175,-0.3175 0,-0.17463 0.14287,-0.3175 0.3175,-0.3175 0.19377,0 0.3175,-0.19739 0.3175,-0.50652 0,-0.27859 0.14287,-0.56135 0.3175,-0.62836 0.17462,-0.067 0.3175,-0.36295 0.3175,-0.65765 0,-0.33516 0.11889,-0.53581 0.3175,-0.53581 0.17462,0 0.3175,-0.10814 0.3175,-0.24031 0,-0.13217 0.23812,-0.46099 0.52917,-0.73072 0.29765,-0.27586 0.52916,-0.72635 0.52916,-1.02969 0,-0.33825 0.11836,-0.53928 0.3175,-0.53928 0.20552,0 0.3175,-0.206 0.3175,-0.58408 0,-1.15902 -0.20021,-1.18499 -8.72945,-1.13227 l -7.77696,0.0481 -0.74263,0.70038 c -0.40844,0.38522 -0.74262,0.80821 -0.74262,0.93998 0,0.13177 -0.10206,0.23959 -0.22679,0.23959 -0.29305,0 -0.83155,0.5385 -0.83155,0.83155 0,0.12473 -0.14287,0.22678 -0.3175,0.22678 -0.17462,0 -0.3175,0.14288 -0.3175,0.3175 0,0.17463 -0.0998,0.3175 -0.22177,0.3175 -0.12198,0 -0.44246,0.23813 -0.71219,0.52917 -0.26973,0.29104 -0.598554,0.52917 -0.730725,0.52917 -0.132171,0 -0.240312,0.14287 -0.240312,0.3175 0,0.18929 -0.19468,0.3175 -0.482125,0.3175 -0.472411,0 -1.211208,0.64702 -1.211208,1.06075 0,0.11509 -0.131212,0.20925 -0.291583,0.20925 -0.16037,0 -0.410157,0.14287 -0.555084,0.3175 -0.144926,0.17462 -0.442338,0.3175 -0.660916,0.3175 -0.21858,0 -0.397417,0.14287 -0.397417,0.3175 0,0.17462 -0.142875,0.3175 -0.3175,0.3175 -0.174625,0 -0.3175,0.0849 -0.3175,0.18872 0,0.10379 -0.238125,0.24848 -0.529166,0.32153 -0.291042,0.073 -0.529167,0.22625 -0.529167,0.34045 0,0.11419 -0.145864,0.20763 -0.324142,0.20763 -0.178281,0 -0.37897,0.14288 -0.44598,0.3175 -0.07548,0.19669 -0.397635,0.3175 -0.846666,0.3175 -0.449034,0 -0.771191,0.12081 -0.846667,0.3175 -0.06701,0.17463 -0.213701,0.3175 -0.325977,0.3175 -0.112277,0 -0.347015,0.14288 -0.52164,0.3175 -0.174625,0.17463 -0.501195,0.3175 -0.725714,0.3175 -0.224517,0 -0.408214,0.0863 -0.408214,0.1918 0,0.1055 -0.47625,0.25731 -1.058333,0.33737 -0.582084,0.08 -1.058334,0.23074 -1.058334,0.33486 0,0.10411 -0.381,0.25023 -0.846666,0.32469 -0.465667,0.0745 -0.846667,0.21263 -0.846667,0.30703 0,0.0944 -0.428625,0.23592 -0.9525,0.31448 -0.523875,0.0786 -0.9525,0.22727 -0.9525,0.33047 0,0.1032 -0.428625,0.18763 -0.9525,0.18763 -0.705555,0 -0.9525,0.0823 -0.9525,0.3175 0,0.2584 -0.35009,0.3175 -1.880804,0.3175 -1.256701,0 -2.081987,0.10493 -2.487084,0.3162 -0.877,0.45739 -8.729871,0.45841 -10.025445,0.001 -0.49494,-0.17462 -1.507041,-0.3175 -2.249113,-0.3175 -1.058195,0 -1.34922,-0.0685 -1.34922,-0.3175 0,-0.23518 -0.246945,-0.3175 -0.9525,-0.3175 -0.523875,0 -0.9525,-0.0884 -0.9525,-0.19643 0,-0.10804 -0.523875,-0.26189 -1.164167,-0.34189 -0.640291,-0.08 -1.164166,-0.22973 -1.164166,-0.33273 0,-0.103 -0.214313,-0.18858 -0.47625,-0.19017 -0.747177,-0.005 -1.435416,-0.23842 -1.308045,-0.44451 0.06377,-0.10318 -0.3183,-0.1876 -0.849046,-0.1876 -0.68325,0 -0.964993,-0.086 -0.964993,-0.29455 0,-0.16201 -0.238125,-0.35432 -0.529166,-0.42737 -0.291042,-0.073 -0.529167,-0.22625 -0.529167,-0.34045 0,-0.11419 -0.149678,-0.20763 -0.332619,-0.20763 -0.18294,0 -0.475495,-0.14287 -0.65012,-0.3175 -0.174625,-0.17462 -0.53863,-0.3175 -0.808901,-0.3175 -0.270271,0 -0.546227,-0.14287 -0.613238,-0.3175 -0.06701,-0.17462 -0.267699,-0.3175 -0.44598,-0.3175 -0.178278,0 -0.324142,-0.0849 -0.324142,-0.18872 0,-0.1038 -0.238125,-0.24849 -0.529167,-0.32153 -0.291041,-0.073 -0.529166,-0.22625 -0.529166,-0.34045 0,-0.1142 -0.142875,-0.20763 -0.3175,-0.20763 -0.174625,0 -0.3175,-0.10021 -0.3175,-0.22268 0,-0.12247 -0.28575,-0.32229 -0.635,-0.44404 -0.34925,-0.12175 -0.635,-0.30729 -0.635,-0.41232 0,-0.10503 -0.142875,-0.19096 -0.3175,-0.19096 -0.174625,0 -0.3175,-0.14288 -0.3175,-0.3175 0,-0.17463 -0.142875,-0.3175 -0.3175,-0.3175 -0.174625,0 -0.3175,-0.0888 -0.3175,-0.19741 0,-0.10857 -0.205372,-0.26258 -0.456381,-0.34225 -0.251007,-0.0797 -0.666744,-0.37183 -0.923855,-0.64926 -0.257112,-0.27743 -0.575615,-0.50442 -0.707786,-0.50442 -0.132171,0 -0.240311,-0.14287 -0.240311,-0.3175 0,-0.17462 -0.142875,-0.3175 -0.3175,-0.3175 -0.174625,0 -0.3175,-0.14287 -0.3175,-0.3175 0,-0.17462 -0.142875,-0.3175 -0.3175,-0.3175 -0.174625,0 -0.3175,-0.14287 -0.3175,-0.3175 0,-0.17462 -0.102053,-0.3175 -0.226786,-0.3175 -0.293049,0 -0.831548,-0.53849 -0.831548,-0.83154 0,-0.12474 -0.142875,-0.22679 -0.3175,-0.22679 -0.174625,0 -0.3175,-0.13076 -0.3175,-0.29057 0,-0.45192 -1.558349,-0.51948 -9.081463,-0.39369 -6.450215,0.10785 -6.883732,0.13946 -7.274568,0.53029 -0.257749,0.25775 -0.332092,0.46722 -0.195734,0.55149 0.120927,0.0747 0.285371,0.39687 0.365429,0.71585 0.08006,0.31898 0.230486,0.57996 0.334283,0.57996 0.103795,0 0.18872,0.14288 0.18872,0.3175 0,0.17463 0.142875,0.3175 0.3175,0.3175 0.193771,0 0.3175,0.1974 0.3175,0.50652 0,0.27859 0.142875,0.56135 0.3175,0.62836 0.174625,0.067 0.3175,0.2677 0.3175,0.44598 0,0.17828 0.08883,0.32414 0.197403,0.32414 0.108572,0 0.262585,0.20538 0.342252,0.45638 0.07967,0.25101 0.371837,0.66675 0.649264,0.92386 0.277427,0.25711 0.504415,0.57561 0.504415,0.70779 0,0.13217 0.142875,0.24031 0.3175,0.24031 0.197554,0 0.3175,0.1999 0.3175,0.52916 0,0.32926 0.119945,0.52917 0.3175,0.52917 0.174625,0 0.3175,0.14288 0.3175,0.3175 0,0.17463 0.142875,0.3175 0.3175,0.3175 0.174625,0 0.3175,0.14288 0.3175,0.3175 0,0.17463 0.142875,0.3175 0.3175,0.3175 0.174625,0 0.3175,0.10814 0.3175,0.24031 0,0.13217 0.238124,0.461 0.529166,0.73073 0.291042,0.26973 0.529167,0.59021 0.529167,0.71219 0,0.12197 0.0998,0.22177 0.221774,0.22177 0.121975,0 0.442459,0.23813 0.712188,0.52917 0.269729,0.29104 0.598555,0.52916 0.730726,0.52916 0.132171,0 0.240312,0.0881 0.240312,0.1957 0,0.34446 2.435517,2.70595 2.963657,2.87357 0.582953,0.18503 1.058009,0.60587 1.058009,0.93728 0,0.12473 0.145864,0.22679 0.324142,0.22679 0.178281,0 0.375673,0.13428 0.43865,0.29839 0.06298,0.16412 0.345738,0.35644 0.628358,0.42737 0.282617,0.0709 0.51385,0.2224 0.51385,0.3366 0,0.1142 0.142875,0.20764 0.3175,0.20764 0.174625,0 0.3175,0.14287 0.3175,0.3175 0,0.17462 0.142875,0.3175 0.3175,0.3175 0.174625,0 0.3175,0.0877 0.3175,0.19484 0,0.10717 0.28575,0.25762 0.635,0.33432 0.34925,0.0767 0.635,0.22716 0.635,0.33432 0,0.10717 0.142875,0.19485 0.3175,0.19485 0.174625,0 0.3175,0.14287 0.3175,0.3175 0,0.19755 0.199907,0.3175 0.529167,0.3175 0.32926,0 0.529167,0.11994 0.529167,0.3175 0,0.17462 0.142875,0.3175 0.3175,0.3175 0.174625,0 0.3175,0.0941 0.3175,0.20916 0,0.11505 0.375119,0.26915 0.8336,0.34247 0.458481,0.0733 0.884115,0.26494 0.945856,0.42583 0.06174,0.1609 0.353371,0.29254 0.648068,0.29254 0.294695,0 0.535809,0.0877 0.535809,0.19485 0,0.10716 0.28575,0.25761 0.635,0.33432 0.34925,0.0767 0.635,0.22715 0.635,0.33432 0,0.10716 0.241114,0.19484 0.535809,0.19484 0.294697,0 0.586327,0.13164 0.648068,0.29254 0.06174,0.1609 0.487375,0.35252 0.945856,0.42583 0.45848,0.0733 0.8336,0.22743 0.8336,0.34247 0,0.11504 0.244928,0.20916 0.544286,0.20916 0.299356,0 0.687161,0.14288 0.861786,0.3175 0.174625,0.17463 0.60325,0.3175 0.9525,0.3175 0.34925,0 0.777875,0.14288 0.9525,0.3175 0.174625,0.17463 0.588507,0.3175 0.919742,0.3175 0.331233,0 0.633991,0.0943 0.672798,0.20959 0.0388,0.11528 0.665867,0.27172 1.393471,0.34766 0.727604,0.0759 1.322917,0.21974 1.322917,0.31957 0,0.0998 0.566767,0.18152 1.259482,0.18152 0.839692,0 1.3159,0.0962 1.42875,0.28863 0.127133,0.21679 1.010236,0.31607 3.547781,0.39887 2.206612,0.072 3.405816,0.19215 3.457224,0.34637 0.115127,0.34539 3.966938,0.29628 6.48082,-0.0826 z M 3.4921154,147.66292 c 0,-0.10937 -0.6680566,-0.26468 -1.48457,-0.34514 -1.33712013,-0.13175 -1.49732153,-0.19709 -1.6129546,-0.65781 -0.17011586,-0.67779 0.0880279,-2.231 0.40872345,-2.45922 0.19703245,-0.14022 0.1947818,-0.2055 -0.009948,-0.28857 -0.19371098,-0.0786 -0.26458333,-0.89033 -0.26458333,-3.0304 0,-2.40301 0.0564868,-2.94473 0.3175,-3.04489 0.22927138,-0.088 0.31749998,-0.44718 0.31749998,-1.29264 -4e-7,-0.64395 0.09525,-1.17081 0.2116662,-1.17081 0.1175927,0 0.2116667,-0.56445 0.2116667,-1.27 0,-0.98778 0.070556,-1.27 0.3175,-1.27 0.250012,0 0.3175,-0.29567 0.3175,-1.39096 0,-0.95418 0.099698,-1.49065 0.3175,-1.70845 0.174625,-0.17462 0.3208752,-0.62026 0.3250004,-0.9903 0.00413,-0.37003 0.1436251,-0.91092 0.3099995,-1.20196 0.1663745,-0.29104 0.3058742,-0.79791 0.3099996,-1.12637 0.00413,-0.32846 0.1503754,-0.74008 0.3250004,-0.9147 0.174625,-0.17463 0.3175,-0.59645 0.3175,-0.93738 0,-0.34094 0.094124,-0.61988 0.2091652,-0.61988 0.1150411,0 0.2700896,-0.381 0.3445529,-0.84667 0.074463,-0.46567 0.2059223,-0.84667 0.2921313,-0.84667 0.086209,0 0.2107661,-0.40276 0.2767929,-0.89503 0.066027,-0.49226 0.2214436,-0.92883 0.34537,-0.97014 0.1239266,-0.0413 0.225321,-0.34611 0.225321,-0.67734 0,-0.33124 0.1190625,-0.72986 0.2645834,-0.88583 0.4602384,-0.49328 1.0054166,-1.59516 1.0054166,-2.03208 0,-0.23152 0.142875,-0.47578 0.3175,-0.54279 0.174625,-0.067 0.3175,-0.2677 0.3175,-0.44598 0,-0.17827 0.090934,-0.32414 0.2020754,-0.32414 0.1111415,0 0.2680223,-0.35719 0.3486239,-0.79375 0.080602,-0.43656 0.3706677,-1.00351 0.6445912,-1.25989 0.2739236,-0.25638 0.4980428,-0.70882 0.4980428,-1.00542 0,-0.33824 0.1183576,-0.53927 0.3175,-0.53927 0.1975555,0 0.3174997,-0.19991 0.3174997,-0.52917 0,-0.29104 0.09525,-0.52916 0.211667,-0.52916 0.116416,0 0.211666,-0.12171 0.211666,-0.27046 0,-0.14876 0.1905,-0.43357 0.423334,-0.63293 0.232833,-0.19936 0.423333,-0.50628 0.423333,-0.68204 0,-0.17577 0.08492,-0.31957 0.18872,-0.31957 0.103796,0 0.248486,-0.23813 0.321533,-0.52917 0.07305,-0.29104 0.226248,-0.52917 0.340446,-0.52917 0.114199,0 0.207634,-0.14586 0.207634,-0.32414 0,-0.17828 0.142875,-0.37897 0.3175,-0.44598 0.174625,-0.067 0.3175,-0.34977 0.3175,-0.62836 0,-0.30913 0.12373,-0.50652 0.3175,-0.50652 0.174625,0 0.3175,-0.14287 0.3175,-0.3175 0,-0.17462 0.142875,-0.3175 0.3175,-0.3175 0.174625,0 0.3175,-0.10258 0.3175,-0.22795 0,-0.12537 0.28575,-0.5137 0.635,-0.86295 0.34925,-0.34925 0.635,-0.77054 0.635,-0.93621 0,-0.16567 0.09525,-0.30122 0.211667,-0.30122 0.116417,0 0.211667,-0.14288 0.211667,-0.3175 0,-0.17463 0.132549,-0.3175 0.294553,-0.3175 0.162005,0 0.354319,-0.23813 0.427366,-0.52917 0.07305,-0.29104 0.226248,-0.52916 0.340446,-0.52916 0.114198,0 0.207634,-0.13269 0.207634,-0.29486 0,-0.16217 0.142875,-0.34968 0.3175,-0.41669 0.174625,-0.067 0.3175,-0.36295 0.3175,-0.657646 0,-0.430417 0.104083,-0.535808 0.529167,-0.535808 0.32926,0 0.529167,-0.119945 0.529167,-0.3175 0,-0.174625 0.142875,-0.3175 0.3175,-0.3175 0.174625,0 0.3175,-0.142875 0.3175,-0.3175 0,-0.174625 0.142875,-0.3175 0.3175,-0.3175 0.174625,0 0.3175,-0.142875 0.3175,-0.3175 0,-0.174625 0.142875,-0.3175 0.3175,-0.3175 0.174625,0 0.3175,-0.142875 0.3175,-0.3175 0,-0.174625 0.142875,-0.3175 0.3175,-0.3175 0.174625,0 0.3175,-0.102578 0.3175,-0.227948 0,-0.125372 0.28575,-0.5137 0.635,-0.86295 0.34925,-0.34925 0.635,-0.770547 0.635,-0.936217 0,-0.180189 0.212619,-0.301218 0.529166,-0.301218 0.329261,0 0.529167,-0.119945 0.529167,-0.3175 0,-0.174625 0.09242,-0.3175 0.20538,-0.3175 0.11296,0 0.833429,-0.618839 1.60104,-1.375199 0.767614,-0.756359 1.627692,-1.433436 1.911287,-1.504613 0.283595,-0.07118 0.515626,-0.261963 0.515626,-0.423968 0,-0.162003 0.108141,-0.294553 0.240312,-0.294553 0.132171,0 0.450674,-0.226987 0.707786,-0.504415 0.257111,-0.277428 0.672848,-0.569596 0.923855,-0.649263 0.251009,-0.07967 0.456381,-0.233681 0.456381,-0.342253 0,-0.108571 0.142875,-0.197403 0.3175,-0.197403 0.174625,0 0.318401,-0.119062 0.319504,-0.264583 0.0011,-0.145521 0.429728,-0.452618 0.9525,-0.682439 0.522772,-0.22982 0.950495,-0.539382 0.950495,-0.687916 0,-0.148534 0.142875,-0.270061 0.3175,-0.270061 0.174625,0 0.3175,-0.09344 0.3175,-0.207634 0,-0.114199 0.238125,-0.2674 0.529167,-0.340447 0.291042,-0.07305 0.529167,-0.217736 0.529167,-0.321532 0,-0.103797 0.142875,-0.188721 0.3175,-0.188721 0.174625,0 0.3175,-0.142875 0.3175,-0.3175 0,-0.211666 0.211666,-0.3175 0.635,-0.3175 0.34925,0 0.635,-0.09343 0.635,-0.207634 0,-0.114198 0.238125,-0.267399 0.529166,-0.340446 0.291042,-0.07305 0.529167,-0.210168 0.529167,-0.304715 0,-0.09455 0.28575,-0.234663 0.635,-0.311371 0.34925,-0.07671 0.635,-0.274777 0.635,-0.440152 0,-0.19298 0.227453,-0.300682 0.635,-0.300682 0.34925,0 0.635,-0.09343 0.635,-0.207634 0,-0.114198 0.238125,-0.267399 0.529167,-0.340446 0.291041,-0.07305 0.529166,-0.209364 0.529166,-0.302927 0,-0.09356 0.381405,-0.234554 0.847567,-0.313311 0.466162,-0.07876 0.793915,-0.230005 0.72834,-0.336105 -0.06557,-0.1061 0.124522,-0.19291 0.422434,-0.19291 0.340364,0 0.541659,-0.117992 0.541659,-0.3175 0,-0.194636 0.197949,-0.3175 0.511529,-0.3175 0.281339,0 0.545325,-0.101394 0.586634,-0.225321 0.04131,-0.123926 0.477871,-0.279343 0.970138,-0.34537 0.557706,-0.0748 0.895033,-0.229207 0.895033,-0.409679 0,-0.169973 0.224864,-0.28963 0.544286,-0.28963 0.299355,0 0.687161,-0.142875 0.861786,-0.3175 0.174625,-0.174625 0.596444,-0.3175 0.93738,-0.3175 0.340934,0 0.619881,-0.09525 0.619881,-0.211666 0,-0.116417 0.383989,-0.211667 0.853309,-0.211667 0.563238,0 0.894727,-0.10793 0.975146,-0.3175 0.07794,-0.203103 0.40416,-0.3175 0.905402,-0.3175 0.430959,0 0.968457,-0.139846 1.194437,-0.310768 0.236487,-0.178869 0.882521,-0.313626 1.522122,-0.3175 0.843676,-0.0051 1.11125,-0.08318 1.11125,-0.324232 0,-0.244231 0.272142,-0.3175 1.179286,-0.3175 0.766033,0 1.290547,-0.11126 1.496786,-0.3175 0.220379,-0.220378 0.760711,-0.3175 1.766409,-0.3175 0.7969,0 1.480657,-0.09482 1.519464,-0.210704 0.03881,-0.115888 1.237368,-0.273401 2.663472,-0.350029 1.426104,-0.07663 2.592916,-0.219936 2.592916,-0.318461 0,-0.09853 2.8575,-0.179139 6.35,-0.179139 3.515504,0 6.35,0.08315 6.35,0.186288 0,0.102458 1.095375,0.25473 2.434167,0.338381 1.338791,0.08365 2.434166,0.237946 2.434166,0.342878 0,0.104933 0.357188,0.192087 0.79375,0.193677 1.028529,0.0037 1.772258,0.207119 1.625545,0.444507 -0.06377,0.103181 0.675488,0.190632 1.642796,0.194334 1.209918,0.0046 1.886958,0.103709 2.169615,0.3175 0.22598,0.170923 0.637595,0.310768 0.914703,0.310768 0.277105,0 0.646705,0.142875 0.82133,0.3175 0.210816,0.210817 0.739153,0.3175 1.572381,0.3175 0.974337,0 1.25488,0.07098 1.25488,0.3175 0,0.229306 0.235185,0.3175 0.846667,0.3175 0.465666,0 0.846666,0.08768 0.846666,0.194849 0,0.107166 0.28575,0.257609 0.635,0.334318 0.34925,0.07671 0.635,0.227151 0.635,0.334318 0,0.107166 0.278947,0.194848 0.619881,0.194848 0.340936,0 0.762756,0.142875 0.937376,0.3175 0.17463,0.174625 0.56542,0.3175 0.86843,0.3175 0.30301,0 0.60576,0.142875 0.67277,0.3175 0.067,0.174625 0.33958,0.3175 0.60571,0.3175 0.26613,0 0.5387,0.142875 0.60571,0.3175 0.067,0.174625 0.36295,0.3175 0.65765,0.3175 0.29469,0 0.53581,0.09413 0.53581,0.209165 0,0.115041 0.381,0.27009 0.84666,0.344553 0.46567,0.07446 0.84667,0.210896 0.84667,0.303184 0,0.09229 0.28575,0.230557 0.635,0.307265 0.34925,0.07671 0.635,0.216825 0.635,0.311371 0,0.09455 0.23812,0.231668 0.52917,0.304715 0.29104,0.07305 0.52916,0.226248 0.52916,0.340446 0,0.114199 0.1905,0.207634 0.42334,0.207634 0.23518,0 0.42333,0.141112 0.42333,0.3175 0,0.193771 0.19739,0.3175 0.50652,0.3175 0.27859,0 0.56135,0.142875 0.62836,0.3175 0.067,0.174625 0.36295,0.3175 0.65764,0.3175 0.33517,0 0.53581,0.118895 0.53581,0.3175 0,0.174625 0.14288,0.3175 0.3175,0.3175 0.17463,0 0.3175,0.08492 0.3175,0.188721 0,0.103796 0.23813,0.248485 0.52917,0.321532 0.29104,0.07305 0.52917,0.226248 0.52917,0.340447 0,0.114198 0.28575,0.207634 0.635,0.207634 0.42333,0 0.635,0.105833 0.635,0.3175 0,0.174624 0.13959,0.317499 0.3102,0.317499 0.17061,0 0.60252,0.28575 0.9598,0.635 0.35727,0.34925 0.74156,0.635 0.85396,0.635 0.1124,0 0.20437,0.142875 0.20437,0.3175 0,0.174625 0.14287,0.3175 0.3175,0.3175 0.17462,0 0.3175,0.09525 0.3175,0.211667 0,0.116417 0.21738,0.211667 0.48306,0.211667 0.30663,0 0.7898,0.347264 1.32292,0.950798 0.52418,0.593422 1.01886,0.951437 1.3161,0.9525 0.28147,0.0011 0.47625,0.131557 0.47625,0.319202 0,0.174625 0.14288,0.3175 0.3175,0.3175 0.17463,0 0.3175,0.142875 0.3175,0.317499 0,0.174625 0.10277,0.3175 0.22838,0.3175 0.2974,0 2.09996,1.802558 2.09996,2.099956 0,0.125607 0.14287,0.228378 0.3175,0.228378 0.17462,0 0.3175,0.142875 0.3175,0.3175 0,0.174625 0.14287,0.3175 0.3175,0.3175 0.17462,0 0.3175,0.142875 0.3175,0.3175 0,0.174625 0.10277,0.3175 0.22837,0.3175 0.2974,0 2.09996,1.802557 2.09996,2.099955 0,0.125607 0.14287,0.228378 0.3175,0.228378 0.17462,0 0.3175,0.142875 0.3175,0.3175 0,0.174625 0.14287,0.3175 0.3175,0.3175 0.17462,0 0.3175,0.102578 0.3175,0.227948 0,0.125372 0.28575,0.513696 0.635,0.862946 0.34925,0.34925 0.635,0.73582 0.635,0.85903 0,0.12322 0.23812,0.44472 0.52917,0.71445 0.29104,0.26973 0.52916,0.59021 0.52916,0.71219 0,0.12197 0.14288,0.22177 0.3175,0.22177 0.17463,0 0.3175,0.10814 0.3175,0.24031 0,0.13217 0.23813,0.461 0.52917,0.73073 0.29104,0.26973 0.52917,0.68845 0.52917,0.9305 0,0.24204 0.13925,0.49351 0.30944,0.55882 0.17019,0.0653 0.37393,0.32426 0.45275,0.57544 0.0788,0.25119 0.36819,0.66646 0.64306,0.92284 0.27486,0.25638 0.49975,0.66119 0.49975,0.89958 0,0.24417 0.13864,0.43345 0.3175,0.43345 0.21166,0 0.3175,0.21166 0.3175,0.635 0,0.42333 0.10583,0.635 0.3175,0.635 0.17462,0 0.3175,0.14287 0.3175,0.3175 0,0.17462 0.0877,0.3175 0.19484,0.3175 0.10717,0 0.25761,0.28575 0.33432,0.635 0.0767,0.34924 0.22534,0.63499 0.33029,0.63499 0.10495,0 0.25058,0.23813 0.32363,0.52917 0.073,0.29104 0.21017,0.52917 0.30471,0.52917 0.0945,0 0.23466,0.28575 0.31137,0.635 0.0767,0.34925 0.22715,0.635 0.33432,0.635 0.10717,0 0.19485,0.23812 0.19485,0.52916 0,0.32926 0.11994,0.52917 0.3175,0.52917 0.17462,0 0.3175,0.1837 0.3175,0.40822 0,0.22451 0.14287,0.55108 0.3175,0.72571 0.17462,0.17462 0.3175,0.46156 0.3175,0.63763 0,0.17607 0.0879,0.37446 0.19538,0.44088 0.10746,0.0664 0.2579,0.40541 0.33432,0.75332 0.0764,0.34792 0.22549,0.63257 0.33128,0.63257 0.10579,0 0.25327,0.381 0.32774,0.84667 0.0745,0.46567 0.20786,0.84667 0.29644,0.84667 0.0886,0 0.2236,0.33337 0.30004,0.74083 0.0764,0.40746 0.22992,0.74083 0.34106,0.74083 0.11114,0 0.20207,0.23813 0.20207,0.52917 0,0.32926 0.11995,0.52917 0.3175,0.52917 0.24298,0 0.3175,0.26794 0.3175,1.14152 0,0.81942 0.0896,1.1759 0.3175,1.26336 0.17463,0.067 0.3175,0.35501 0.3175,0.64 0,0.285 0.11166,0.55539 0.24813,0.60088 0.141,0.047 0.28987,0.67146 0.3448,1.44639 0.0532,0.75003 0.18301,1.41901 0.28854,1.48664 0.10553,0.0676 0.25084,0.49625 0.32293,0.9525 0.0721,0.45625 0.21124,0.88258 0.30924,0.9474 0.098,0.0648 0.24012,0.85063 0.31583,1.74625 0.0757,0.89561 0.21892,1.62839 0.31826,1.62839 0.0993,0 0.18061,0.71736 0.18061,1.59414 0,1.22176 0.0742,1.62261 0.3175,1.71598 0.26777,0.10276 0.3175,0.79397 0.3175,4.41367 0,4.27187 -0.002,4.29243 -0.47625,4.41946 -0.26194,0.0702 -5.64357,0.12894 -11.95917,0.13053 -7.51224,0.002 -11.48292,0.0761 -11.48292,0.21455 0,0.1176 -0.56444,0.21167 -1.27,0.21167 -0.70555,0 -1.27,-0.0941 -1.27,-0.21167 0,-0.11641 -0.28575,-0.21166 -0.635,-0.21166 -0.34925,0 -0.635,0.0952 -0.635,0.21166 0,0.13859 -4.09087,0.21167 -11.8493,0.21167 H 94.728511 l -0.132812,-0.52917 c -0.07305,-0.29104 -0.210168,-0.52916 -0.304713,-0.52916 -0.09455,0 -0.234664,-0.28575 -0.311372,-0.635 -0.07671,-0.34925 -0.227153,-0.635 -0.334319,-0.635 -0.107165,0 -0.194848,-0.14288 -0.194848,-0.3175 0,-0.17463 -0.142875,-0.3175 -0.3175,-0.3175 -0.174625,0 -0.3175,-0.18278 -0.3175,-0.40618 0,-0.4907 -0.637891,-1.75047 -1.005417,-1.98559 -0.145521,-0.0931 -0.264583,-0.34484 -0.264583,-0.55944 0,-0.21459 -0.142875,-0.44499 -0.3175,-0.51201 -0.174625,-0.067 -0.3175,-0.26769 -0.3175,-0.44597 0,-0.17828 -0.08492,-0.32415 -0.18872,-0.32415 -0.103797,0 -0.248486,-0.23812 -0.321532,-0.52916 -0.07305,-0.29105 -0.226249,-0.52917 -0.340447,-0.52917 -0.114198,0 -0.207634,-0.28575 -0.207634,-0.635 0,-0.42333 -0.105834,-0.635 -0.3175,-0.635 -0.198605,0 -0.3175,-0.20065 -0.3175,-0.53581 0,-0.2947 -0.142875,-0.59064 -0.3175,-0.65764 -0.174625,-0.067 -0.3175,-0.25453 -0.3175,-0.4167 0,-0.16216 -0.09344,-0.29485 -0.207635,-0.29485 -0.114198,0 -0.273139,-0.26099 -0.353202,-0.57999 -0.08006,-0.31899 -0.272376,-0.70679 -0.427365,-0.86178 -0.154989,-0.15499 -0.281798,-0.41787 -0.281798,-0.58418 0,-0.16631 -0.09525,-0.30238 -0.211667,-0.30238 -0.116417,0 -0.211667,-0.14288 -0.211667,-0.3175 0,-0.17463 -0.100872,-0.3175 -0.224159,-0.3175 -0.123287,0 -0.16529,-0.0952 -0.09334,-0.21167 0.07195,-0.11642 0.02995,-0.21167 -0.09334,-0.21167 -0.123288,0 -0.22416,-0.18721 -0.22416,-0.41603 0,-0.22882 -0.28575,-0.70835 -0.635,-1.06563 -0.34925,-0.35728 -0.635,-0.83681 -0.635,-1.06563 0,-0.22882 -0.142875,-0.41604 -0.3175,-0.41604 -0.174625,0 -0.3175,-0.0998 -0.3175,-0.22177 0,-0.12198 -0.238125,-0.44246 -0.529166,-0.71219 -0.291042,-0.26973 -0.529167,-0.59856 -0.529167,-0.73073 0,-0.13217 -0.10875,-0.24031 -0.241668,-0.24031 -0.132916,0 -0.514746,-0.28575 -0.848506,-0.635 -0.333763,-0.34925 -0.705811,-0.635 -0.826774,-0.635 -0.120962,0 -0.43452,-0.23154 -0.696794,-0.51454 -0.262274,-0.283 -0.733978,-0.57908 -1.048227,-0.65795 -0.314251,-0.0789 -0.571364,-0.22833 -0.571364,-0.33212 0,-0.1038 -0.214313,-0.19175 -0.47625,-0.19545 -0.261938,-0.004 -0.661143,-0.14658 -0.887123,-0.3175 -0.225979,-0.17093 -0.640209,-0.31077 -0.92051,-0.31077 -0.280302,0 -0.830335,-0.15218 -1.222299,-0.33818 -0.885355,-0.42013 -4.762737,-0.36199 -4.907706,0.0736 -0.05003,0.15034 -0.43841,0.26459 -0.899445,0.26459 -0.446263,0 -0.845187,0.10139 -0.886496,0.22532 -0.04131,0.12393 -0.477872,0.27934 -0.970138,0.34537 -0.557706,0.0748 -0.895033,0.2292 -0.895033,0.40968 0,0.16437 -0.219054,0.28963 -0.50652,0.28963 -0.278588,0 -0.561347,0.14287 -0.628358,0.3175 -0.06701,0.17462 -0.267699,0.3175 -0.44598,0.3175 -0.178278,0 -0.324142,0.0953 -0.324142,0.21166 0,0.11642 -0.145864,0.21167 -0.324142,0.21167 -0.17828,0 -0.37897,0.14288 -0.445979,0.3175 -0.06701,0.17463 -0.302146,0.3175 -0.522525,0.3175 -0.220377,0 -0.400687,0.0998 -0.400687,0.22177 0,0.12198 -0.224888,0.43154 -0.499749,0.68792 -0.274862,0.25638 -0.567032,0.68046 -0.649265,0.94239 -0.08223,0.26194 -0.238345,0.47625 -0.346917,0.47625 -0.10857,0 -0.197402,0.14288 -0.197402,0.3175 0,0.17463 -0.13255,0.3175 -0.294554,0.3175 -0.162005,0 -0.359086,0.25712 -0.437957,0.57137 -0.07887,0.31425 -0.374948,0.78595 -0.657947,1.04822 -0.282998,0.26228 -0.514542,0.66172 -0.514542,0.88766 0,0.22594 -0.142875,0.46562 -0.3175,0.53263 -0.174625,0.067 -0.3175,0.35276 -0.3175,0.635 0,0.28224 -0.142875,0.56799 -0.3175,0.635 -0.174625,0.067 -0.3175,0.31533 -0.3175,0.55181 0,0.23649 -0.09525,0.42998 -0.211667,0.42998 -0.116417,0 -0.211667,0.1837 -0.211667,0.40821 0,0.22452 -0.119062,0.53409 -0.264583,0.68792 -0.145521,0.15384 -0.399741,0.54164 -0.564934,0.86179 -0.165193,0.32014 -0.474756,0.58208 -0.687917,0.58208 -0.318226,0 -0.387566,0.17041 -0.387566,0.9525 0,0.70555 -0.08232,0.9525 -0.3175,0.9525 -0.174625,0 -0.3175,0.14287 -0.3175,0.3175 0,0.17462 -0.09344,0.3175 -0.207634,0.3175 -0.114198,0 -0.267399,0.23812 -0.340447,0.52917 -0.07305,0.29104 -0.20741,0.52916 -0.298585,0.52916 -0.09118,0 -0.22554,0.23813 -0.298586,0.52917 -0.07305,0.29104 -0.226248,0.52917 -0.340447,0.52917 -0.114198,0 -0.207634,0.18369 -0.207634,0.40821 0,0.22452 -0.126809,0.53502 -0.281798,0.69001 -0.154989,0.15499 -0.347305,0.5428 -0.427366,0.86179 -0.08006,0.31899 -0.239003,0.57999 -0.353202,0.57999 -0.114198,0 -0.207634,0.14287 -0.207634,0.3175 0,0.17462 -0.142875,0.3175 -0.3175,0.3175 -0.174625,0 -0.3175,0.14287 -0.3175,0.3175 0,0.17462 -0.09525,0.3175 -0.211667,0.3175 -0.116416,0 -0.211666,0.22485 -0.211666,0.49968 0,0.44473 -0.122206,0.51436 -1.11125,0.63316 -0.611188,0.0734 -5.230813,0.1343 -10.265833,0.13532 -5.960718,0.001 -9.154583,0.0757 -9.154583,0.2135 0,0.11642 -0.529497,0.21167 -1.17666,0.21167 -0.730538,0 -1.127059,-0.0803 -1.04584,-0.21167 0.085,-0.13753 -0.98558,-0.21166 -3.056674,-0.21166 -1.983884,0 -3.187493,0.0799 -3.187493,0.21166 0,0.13256 -1.305278,0.21167 -3.4925,0.21167 -2.187222,0 -3.4925,-0.0791 -3.4925,-0.21167 0,-0.11759 -0.564444,-0.21166 -1.27,-0.21166 -0.705555,0 -1.27,0.0941 -1.27,0.21166 0,0.12891 -0.889665,0.20585 -2.275416,0.19679 -1.4683807,-0.01 -2.1252706,-0.0794 -1.8520837,-0.19679 0.4039354,-0.17357 0.4015107,-0.18259 -0.052917,-0.19679 -0.2619375,-0.008 -0.47625,0.0804 -0.47625,0.19679 0,0.11642 -0.28575,0.21167 -0.635,0.21167 -0.34925,0 -0.635,-0.0952 -0.635,-0.21167 0,-0.11759 -0.5644445,-0.21166 -1.27,-0.21166 -0.7055554,0 -1.2699999,0.0941 -1.2699999,0.21166 0,0.11642 -0.238125,0.21167 -0.5291667,0.21167 -0.2910417,0 -0.5291667,-0.0895 -0.5291667,-0.19885 z m 28.7866666,-9.64365 c 0,-0.17463 0.102052,-0.3175 0.226786,-0.3175 0.354825,0 0.797193,-0.53026 0.949877,-1.1386 0.07658,-0.3051 0.224153,-0.55473 0.32795,-0.55473 0.103795,0 0.18872,-0.28874 0.18872,-0.64165 0,-0.37509 0.131898,-0.69225 0.3175,-0.76347 0.205581,-0.0789 0.3175,-0.40698 0.3175,-0.93074 0,-0.4449 0.142875,-0.95178 0.3175,-1.1264 0.174625,-0.17463 0.3175,-0.52161 0.3175,-0.77108 0,-0.24946 0.142875,-0.59644 0.3175,-0.77107 0.174625,-0.17462 0.3175,-0.50119 0.3175,-0.72571 0,-0.22452 0.142875,-0.40822 0.3175,-0.40822 0.229305,0 0.3175,-0.23518 0.3175,-0.84666 0,-0.61148 0.08819,-0.84667 0.3175,-0.84667 0.197555,0 0.3175,-0.19991 0.3175,-0.52917 0,-0.29104 0.09525,-0.52916 0.211666,-0.52916 0.116417,0 0.211667,-0.14587 0.211667,-0.32414 0,-0.17829 0.142875,-0.37897 0.3175,-0.44598 0.174625,-0.067 0.3175,-0.25452 0.3175,-0.4167 0,-0.16216 0.142875,-0.29485 0.3175,-0.29485 0.197555,0 0.3175,-0.19991 0.3175,-0.52917 0,-0.29104 0.102053,-0.52916 0.226786,-0.52916 0.296103,0 0.831547,-0.53972 0.831547,-0.83819 0,-0.12839 0.13428,-0.28496 0.298397,-0.34794 0.16412,-0.063 0.356434,-0.34574 0.427366,-0.62836 0.07093,-0.28261 0.222405,-0.51385 0.336603,-0.51385 0.114198,0 0.207634,-0.14287 0.207634,-0.3175 0,-0.17462 0.142875,-0.3175 0.3175,-0.3175 0.174625,0 0.3175,-0.0916 0.3175,-0.20354 0,-0.11195 0.428625,-0.64456 0.9525,-1.18359 0.523875,-0.53903 0.9525,-1.10386 0.9525,-1.25518 0,-0.15132 0.238125,-0.33489 0.529167,-0.40794 0.291042,-0.0731 0.529167,-0.22625 0.529167,-0.34044 0,-0.1142 0.142875,-0.20764 0.3175,-0.20764 0.174625,0 0.3175,-0.0921 0.3175,-0.20461 0,-0.11254 0.33655,-0.54116 0.747888,-0.9525 0.41134,-0.41134 0.839965,-0.74789 0.9525,-0.74789 0.112537,0 0.204612,-0.14287 0.204612,-0.3175 0,-0.17462 0.142875,-0.3175 0.3175,-0.3175 0.174625,0 0.3175,-0.0888 0.3175,-0.1974 0,-0.10857 0.205371,-0.26259 0.45638,-0.34225 0.251007,-0.0797 0.666744,-0.37184 0.923855,-0.64927 0.257112,-0.27742 0.575615,-0.50441 0.707786,-0.50441 0.132171,0 0.240312,-0.0934 0.240312,-0.20764 0,-0.11419 0.231233,-0.26567 0.51385,-0.3366 0.28262,-0.0709 0.565379,-0.26324 0.628358,-0.42736 0.06298,-0.16412 0.355619,-0.2984 0.650316,-0.2984 0.335164,0 0.535809,-0.1189 0.535809,-0.3175 0,-0.19377 0.197392,-0.3175 0.506521,-0.3175 0.278587,0 0.561346,-0.14288 0.628357,-0.3175 0.06701,-0.17463 0.267699,-0.3175 0.44598,-0.3175 0.178278,0 0.324142,-0.0953 0.324142,-0.21167 0,-0.11642 0.238125,-0.21166 0.529167,-0.21166 0.32926,0 0.529166,-0.11995 0.529166,-0.3175 0,-0.22972 0.235924,-0.3175 0.853309,-0.3175 0.563239,0 0.894728,-0.10794 0.975146,-0.3175 0.06701,-0.17463 0.339581,-0.3175 0.605712,-0.3175 0.266131,0 0.5387,-0.14288 0.605712,-0.3175 0.0771,-0.20093 0.401828,-0.3175 0.88443,-0.3175 0.419428,0 0.905472,-0.14288 1.080097,-0.3175 0.174625,-0.17463 0.501195,-0.3175 0.725714,-0.3175 0.224517,0 0.408214,-0.0841 0.408214,-0.1868 0,-0.10274 0.738187,-0.2557 1.640416,-0.33991 0.902229,-0.0842 1.701044,-0.25022 1.775147,-0.36891 0.0741,-0.11869 0.812288,-0.26428 1.640417,-0.32354 0.828126,-0.0593 1.505686,-0.19018 1.505686,-0.29095 0,-0.26222 10.741935,-0.23607 10.830278,0.0264 0.0388,0.11528 0.68968,0.27269 1.446388,0.34981 0.756709,0.0771 1.430317,0.22293 1.496907,0.32402 0.06659,0.10109 0.757153,0.24321 1.534583,0.3158 0.777431,0.0726 1.41351,0.20315 1.41351,0.29011 0,0.087 0.238125,0.21788 0.529167,0.29092 0.291042,0.0731 0.529167,0.22625 0.529167,0.34045 0,0.1142 0.294866,0.20764 0.655258,0.20764 0.360392,0 0.931892,0.14287 1.27,0.3175 0.338108,0.17462 0.891375,0.46037 1.229483,0.635 0.338108,0.17462 0.851793,0.3175 1.14152,0.3175 0.28973,0 0.581605,0.14287 0.648617,0.3175 0.06701,0.17462 0.362949,0.3175 0.657646,0.3175 0.294695,0 0.535809,0.0849 0.535809,0.18871 0,0.1038 0.238125,0.24849 0.529167,0.32154 0.291041,0.073 0.529166,0.21868 0.529166,0.32363 0,0.10495 0.286582,0.25376 0.636848,0.33069 0.350266,0.0769 0.582769,0.22737 0.516674,0.33431 -0.0661,0.10695 0.06576,0.19445 0.293006,0.19445 0.22725,0 0.468006,0.14287 0.535017,0.3175 0.06701,0.17462 0.362949,0.3175 0.657646,0.3175 0.335164,0 0.535809,0.11889 0.535809,0.3175 0,0.17462 0.142875,0.3175 0.3175,0.3175 0.174625,0 0.3175,0.14287 0.3175,0.3175 0,0.17462 0.142875,0.3175 0.3175,0.3175 0.174625,0 0.3175,0.0849 0.3175,0.18872 0,0.1038 0.238125,0.24848 0.529167,0.32153 0.291041,0.073 0.529166,0.22625 0.529166,0.34045 0,0.1142 0.135548,0.20763 0.301219,0.20763 0.165669,0 0.586967,0.28575 0.936216,0.635 0.349252,0.34925 0.737582,0.635 0.862952,0.635 0.12537,0 0.22795,0.14288 0.22795,0.3175 0,0.17463 0.14287,0.3175 0.3175,0.3175 0.17462,0 0.3175,0.14288 0.3175,0.3175 0,0.17463 0.14287,0.3175 0.3175,0.3175 0.17462,0 0.3175,0.14288 0.3175,0.3175 0,0.17463 0.14287,0.3175 0.3175,0.3175 0.19755,0 0.3175,0.19991 0.3175,0.52917 0,0.40956 0.10897,0.52916 0.48212,0.52916 0.46368,0 1.21121,0.64463 1.21121,1.04448 0,0.10613 0.28575,0.47871 0.635,0.82796 0.34925,0.34925 0.635,0.73758 0.635,0.86295 0,0.12537 0.14287,0.22795 0.3175,0.22795 0.17462,0 0.3175,0.18031 0.3175,0.40068 0,0.22038 0.14287,0.45552 0.3175,0.52253 0.17462,0.067 0.3175,0.31532 0.3175,0.55181 0,0.23649 0.0888,0.42998 0.1974,0.42998 0.10857,0 0.26259,0.20537 0.34225,0.45638 0.0797,0.25101 0.37184,0.66674 0.64927,0.92385 0.27743,0.25711 0.50441,0.57562 0.50441,0.70779 0,0.13217 0.14288,0.24031 0.3175,0.24031 0.21167,0 0.3175,0.21167 0.3175,0.635 0,0.42333 0.10584,0.635 0.3175,0.635 0.22931,0 0.3175,0.23519 0.3175,0.84667 0,0.61148 0.0882,0.84666 0.3175,0.84666 0.17463,0 0.3175,0.13494 0.3175,0.29987 0,0.16492 0.10462,0.33473 0.23249,0.37735 0.12787,0.0426 0.2842,0.55062 0.3474,1.12889 0.0632,0.57827 0.24434,1.12756 0.40252,1.22066 0.15817,0.0931 0.28759,0.40266 0.28759,0.68792 0,0.28525 0.0894,0.51865 0.1987,0.51865 0.10928,0 0.26297,0.42862 0.34153,0.9525 0.0786,0.52387 0.22727,0.9525 0.33047,0.9525 0.1032,0 0.18764,0.23812 0.18764,0.52916 0,0.32926 0.11994,0.52917 0.3175,0.52917 0.17462,0 0.3175,0.14288 0.3175,0.3175 0,0.27571 0.90546,0.3175 6.87916,0.3175 h 6.87917 v -1.79917 c 0,-1.05833 -0.0872,-1.79916 -0.21167,-1.79916 -0.11641,0 -0.21166,-0.24112 -0.21166,-0.53581 0,-0.2947 -0.14288,-0.59064 -0.3175,-0.65765 -0.22275,-0.0855 -0.3175,-0.43291 -0.3175,-1.16416 0,-0.73126 -0.0948,-1.0787 -0.3175,-1.16417 -0.20455,-0.0785 -0.3175,-0.40579 -0.3175,-0.92001 0,-0.43899 -0.14288,-1.14012 -0.3175,-1.55806 -0.17463,-0.41793 -0.3175,-1.00106 -0.3175,-1.29584 0,-0.33531 -0.11887,-0.53597 -0.3175,-0.53597 -0.19377,0 -0.3175,-0.19739 -0.3175,-0.50652 0,-0.27859 -0.14288,-0.56135 -0.3175,-0.62836 -0.17463,-0.067 -0.3175,-0.2677 -0.3175,-0.44598 0,-0.17828 -0.0831,-0.32414 -0.18462,-0.32414 -0.10154,0 -0.24554,-0.381 -0.32,-0.84667 -0.0745,-0.46566 -0.22951,-0.84666 -0.34455,-0.84666 -0.11504,0 -0.20917,-0.14288 -0.20917,-0.3175 0,-0.17463 -0.14287,-0.3175 -0.3175,-0.3175 -0.20994,0 -0.3175,-0.20999 -0.3175,-0.61988 0,-0.34094 -0.14287,-0.76276 -0.3175,-0.93738 -0.17462,-0.17463 -0.3175,-0.5178 -0.3175,-0.7626 0,-0.2448 -0.14287,-0.49992 -0.3175,-0.56693 -0.17462,-0.067 -0.3175,-0.25452 -0.3175,-0.41669 0,-0.16217 -0.14287,-0.29486 -0.3175,-0.29486 -0.17885,0 -0.3175,-0.18927 -0.3175,-0.43344 0,-0.23839 -0.23812,-0.65412 -0.52916,-0.92385 -0.29105,-0.26973 -0.52917,-0.59856 -0.52917,-0.73073 0,-0.13217 -0.14288,-0.24031 -0.3175,-0.24031 -0.21167,0 -0.3175,-0.21167 -0.3175,-0.635 0,-0.34925 -0.0934,-0.635 -0.20763,-0.635 -0.1142,0 -0.2674,-0.23812 -0.34045,-0.52917 -0.073,-0.29104 -0.26536,-0.52916 -0.42737,-0.52916 -0.162,0 -0.29455,-0.14288 -0.29455,-0.3175 0,-0.17463 -0.14288,-0.3175 -0.3175,-0.3175 -0.17463,0 -0.3175,-0.10814 -0.3175,-0.24031 0,-0.13217 -0.22699,-0.45068 -0.50441,-0.70779 -0.27743,-0.25711 -0.56805,-0.66797 -0.64583,-0.91303 -0.0778,-0.24505 -0.32682,-0.5044 -0.55343,-0.57632 -0.22661,-0.0719 -0.47018,-0.36254 -0.54128,-0.64583 -0.0711,-0.28328 -0.26182,-0.51505 -0.42383,-0.51505 -0.162,0 -0.29455,-0.14288 -0.29455,-0.3175 0,-0.17463 -0.14288,-0.3175 -0.3175,-0.3175 -0.17463,0 -0.3175,-0.14288 -0.3175,-0.3175 0,-0.17463 -0.10814,-0.3175 -0.24032,-0.3175 -0.13217,0 -0.46099,-0.23813 -0.73072,-0.52917 -0.26973,-0.29104 -0.58147,-0.52917 -0.69276,-0.52917 -0.1113,0 -0.64337,-0.42862 -1.1824,-0.9525 -0.53903,-0.52387 -1.07165,-0.9525 -1.18359,-0.9525 -0.11195,0 -0.20355,-0.14287 -0.20355,-0.3175 0,-0.17462 -0.14287,-0.3175 -0.3175,-0.3175 -0.17462,0 -0.3175,-0.0934 -0.3175,-0.20763 0,-0.1142 -0.23812,-0.2674 -0.52916,-0.34045 -0.29105,-0.073 -0.52917,-0.21773 -0.52917,-0.32153 0,-0.1038 -0.14288,-0.18872 -0.3175,-0.18872 -0.17463,0 -0.3175,-0.14288 -0.3175,-0.3175 0,-0.17463 -0.14288,-0.3175 -0.3175,-0.3175 -0.17463,0 -0.3175,-0.13255 -0.3175,-0.29455 0,-0.16201 -0.23813,-0.35432 -0.52917,-0.42737 -0.29104,-0.073 -0.52916,-0.22625 -0.52916,-0.34045 0,-0.1142 -0.13269,-0.20763 -0.29486,-0.20763 -0.16217,0 -0.34968,-0.14288 -0.41669,-0.3175 -0.067,-0.17463 -0.36295,-0.3175 -0.65764,-0.3175 -0.33517,0 -0.53581,-0.1189 -0.53581,-0.3175 0,-0.19756 -0.19991,-0.3175 -0.52917,-0.3175 -0.29104,0 -0.52917,-0.0877 -0.52917,-0.19485 0,-0.10717 -0.28575,-0.25761 -0.635,-0.334318 -0.34925,-0.07671 -0.635,-0.219583 -0.635,-0.3175 0,-0.09792 -0.28575,-0.240792 -0.635,-0.3175 -0.349247,-0.07671 -0.634997,-0.227152 -0.634997,-0.334319 0,-0.107164 -0.142875,-0.194847 -0.3175,-0.194847 -0.174625,0 -0.3175,-0.142875 -0.3175,-0.3175 0,-0.199907 -0.201587,-0.3175 -0.544286,-0.3175 -0.299355,0 -0.687161,-0.142875 -0.861786,-0.3175 -0.174625,-0.174625 -0.596444,-0.3175 -0.93738,-0.3175 -0.409895,0 -0.619881,-0.107554 -0.619881,-0.3175 0,-0.197555 -0.199906,-0.3175 -0.529166,-0.3175 -0.291042,0 -0.529167,-0.08465 -0.529167,-0.18811 0,-0.103461 -0.333375,-0.250652 -0.740833,-0.327091 -0.407459,-0.07644 -0.740834,-0.229917 -0.740834,-0.341056 0,-0.111142 -0.336364,-0.202076 -0.747475,-0.202076 -0.469164,0 -0.792842,-0.118218 -0.869313,-0.3175 -0.08155,-0.212518 -0.415919,-0.3175 -1.011235,-0.3175 -0.489168,0 -1.074291,-0.139846 -1.300271,-0.310769 -0.225979,-0.170921 -0.870113,-0.313796 -1.431408,-0.3175 -0.617023,-0.0041 -1.146074,-0.132269 -1.338036,-0.324231 -0.174625,-0.174625 -0.596445,-0.3175 -0.937381,-0.3175 -0.340934,0 -0.619881,-0.08294 -0.619881,-0.184317 0,-0.101374 -0.660531,-0.249405 -1.467847,-0.328956 -0.833153,-0.0821 -1.504329,-0.254089 -1.552219,-0.397766 -0.116713,-0.350139 -17.242743,-0.366691 -17.466392,-0.01689 -0.08307,0.129936 -0.717741,0.282224 -1.410375,0.338419 -0.692633,0.05619 -1.295883,0.211821 -1.340555,0.345838 -0.04801,0.14402 -0.552804,0.243664 -1.234393,0.243664 -0.82978,0 -1.187338,0.08904 -1.275006,0.3175 -0.08203,0.213769 -0.417727,0.3175 -1.027496,0.3175 -0.498113,0 -1.178484,0.142289 -1.511937,0.316196 -0.333453,0.173908 -0.827394,0.316783 -1.097648,0.3175 -0.270252,6.35e-4 -0.634245,0.144179 -0.80887,0.318804 -0.174625,0.174625 -0.54882,0.3175 -0.831547,0.3175 -0.282725,0 -0.514047,0.08465 -0.514047,0.18811 0,0.103461 -0.333375,0.250652 -0.740834,0.327091 -0.407458,0.07644 -0.740833,0.222347 -0.740833,0.324239 0,0.101893 -0.28575,0.248019 -0.635,0.324727 -0.34925,0.07671 -0.635,0.227152 -0.635,0.334319 0,0.107164 -0.241114,0.194847 -0.535809,0.194847 -0.294697,0 -0.590636,0.142875 -0.657646,0.3175 -0.06701,0.174625 -0.349771,0.3175 -0.628358,0.3175 -0.278585,0 -0.50652,0.09158 -0.50652,0.203509 0,0.11193 -0.381,0.3061 -0.846667,0.431491 -0.465666,0.125392 -0.846666,0.319562 -0.846666,0.431491 0,0.11193 -0.142875,0.203509 -0.3175,0.203509 -0.174625,0 -0.3175,0.08492 -0.3175,0.18872 0,0.103797 -0.257114,0.253253 -0.571365,0.332124 -0.314249,0.07887 -0.785952,0.374948 -1.048226,0.657948 -0.262274,0.283 -0.671911,0.51455 -0.910302,0.51455 -0.244171,0 -0.433441,0.13864 -0.433441,0.3175 0,0.17462 -0.183697,0.3175 -0.408214,0.3175 -0.224519,0 -0.551089,0.14287 -0.725714,0.3175 -0.174625,0.17462 -0.419555,0.3175 -0.544286,0.3175 -0.124733,0 -0.226786,0.0934 -0.226786,0.20763 0,0.1142 -0.238125,0.2674 -0.529166,0.34045 -0.291042,0.073 -0.529167,0.26536 -0.529167,0.42737 0,0.162 -0.142875,0.29455 -0.3175,0.29455 -0.174625,0 -0.3175,0.0952 -0.3175,0.21167 0,0.11641 -0.142875,0.21166 -0.3175,0.21166 -0.174625,0 -0.3175,0.13255 -0.3175,0.29456 0,0.162 -0.231777,0.35272 -0.515059,0.42382 -0.283282,0.0711 -0.573905,0.31468 -0.645827,0.54129 -0.07192,0.2266 -0.325552,0.47383 -0.563619,0.54939 -0.238066,0.0756 -0.793549,0.50906 -1.234402,0.96333 -0.440855,0.45427 -0.907951,0.82595 -1.03799,0.82595 -0.13004,0 -0.236436,0.14287 -0.236436,0.3175 0,0.17462 -0.142875,0.3175 -0.3175,0.3175 -0.174625,0 -0.3175,0.14287 -0.3175,0.3175 0,0.17462 -0.09525,0.3175 -0.211667,0.3175 -0.116417,0 -0.211667,0.14287 -0.211667,0.3175 0,0.17462 -0.142875,0.3175 -0.3175,0.3175 -0.174625,0 -0.3175,0.14287 -0.3175,0.3175 0,0.17462 -0.142875,0.3175 -0.3175,0.3175 -0.174625,0 -0.317499,0.0942 -0.317499,0.20924 0,0.32208 -0.696049,1.06075 -0.999541,1.06075 -0.148753,0 -0.270459,0.23813 -0.270459,0.52917 0,0.32926 -0.119946,0.52917 -0.3175,0.52917 -0.174625,0 -0.3175,0.10814 -0.3175,0.24031 0,0.13217 -0.226988,0.45067 -0.504415,0.70779 -0.277427,0.25711 -0.569597,0.67284 -0.649264,0.92385 -0.07967,0.25101 -0.23368,0.45638 -0.342252,0.45638 -0.10857,0 -0.197403,0.14288 -0.197403,0.3175 0,0.17463 -0.142875,0.3175 -0.3175,0.3175 -0.178024,0 -0.3175,0.18889 -0.3175,0.42998 0,0.23649 -0.142875,0.4848 -0.3175,0.55181 -0.174625,0.067 -0.3175,0.24433 -0.3175,0.39404 0,0.14972 -0.142875,0.32704 -0.3175,0.39405 -0.174625,0.067 -0.3175,0.2677 -0.3175,0.44598 0,0.17828 -0.09344,0.32414 -0.207634,0.32414 -0.114199,0 -0.267399,0.23813 -0.340447,0.52917 -0.07305,0.29104 -0.20741,0.52916 -0.298585,0.52916 -0.09118,0 -0.22554,0.23813 -0.298586,0.52917 -0.07305,0.29104 -0.226248,0.52917 -0.340447,0.52917 -0.114198,0 -0.207634,0.1905 -0.207634,0.42333 0,0.23283 -0.08593,0.42333 -0.190959,0.42333 -0.105029,0 -0.290574,0.28575 -0.412325,0.635 -0.121748,0.34925 -0.321566,0.635 -0.444038,0.635 -0.122473,0 -0.222678,0.22794 -0.222678,0.50652 0,0.27859 -0.142875,0.56135 -0.3175,0.62836 -0.174625,0.067 -0.3175,0.36295 -0.3175,0.65765 0,0.29469 -0.09093,0.53581 -0.202076,0.53581 -0.11114,0 -0.267879,0.35077 -0.348308,0.77949 -0.08043,0.42872 -0.355797,0.97641 -0.611931,1.21708 -0.346398,0.3255 -0.501705,0.79004 -0.606266,1.81343 -0.07731,0.75671 -0.234886,1.40758 -0.350162,1.44639 -0.115274,0.0388 -0.20959,0.34836 -0.20959,0.68791 0,0.40766 -0.107849,0.61736 -0.3175,0.61736 -0.229305,0 -0.3175,0.23519 -0.3175,0.84667 0,0.61148 -0.08819,0.84667 -0.3175,0.84667 -0.235185,0 -0.3175,0.24694 -0.3175,0.9525 0,0.52387 -0.08767,0.9525 -0.19482,0.9525 -0.10715,0 -0.261635,0.62392 -0.3433,1.3865 -0.244118,2.27954 -0.54472,2.18429 6.941036,2.19925 5.461887,0.0109 6.297084,-0.0295 6.297084,-0.30492 z M 74.249425,92.249324 c -0.606937,-0.04261 -1.654687,-0.043 -2.328333,-8.47e-4 -0.673646,0.04213 -0.177061,0.077 1.103522,0.07747 1.280583,4.24e-4 1.831748,-0.03399 1.224811,-0.0766 z"
       id="path318" /></g></svg>
