<?xml version="1.0" encoding="UTF-8" standalone="no"?>
<!-- Created with Inkscape (http://www.inkscape.org/) -->

<svg
   width="225.04939mm"
   height="11.91892mm"
   viewBox="0 0 225.0494 11.91892"
   version="1.1"
   id="svg5"
   xml:space="preserve"
   inkscape:version="1.2.2 (732a01da63, 2022-12-09)"
   sodipodi:docname="DCC Text Only.svg"
   xmlns:inkscape="http://www.inkscape.org/namespaces/inkscape"
   xmlns:sodipodi="http://sodipodi.sourceforge.net/DTD/sodipodi-0.dtd"
   xmlns="http://www.w3.org/2000/svg"
   xmlns:svg="http://www.w3.org/2000/svg"><sodipodi:namedview
     id="namedview7"
     pagecolor="#ffffff"
     bordercolor="#000000"
     borderopacity="0.25"
     inkscape:showpageshadow="2"
     inkscape:pageopacity="0.0"
     inkscape:pagecheckerboard="0"
     inkscape:deskcolor="#d1d1d1"
     inkscape:document-units="mm"
     showgrid="false"
     inkscape:zoom="0.71624579"
     inkscape:cx="358.81537"
     inkscape:cy="13.263603"
     inkscape:window-width="1920"
     inkscape:window-height="991"
     inkscape:window-x="-9"
     inkscape:window-y="-9"
     inkscape:window-maximized="1"
     inkscape:current-layer="layer1" /><defs
     id="defs2" /><g
     inkscape:label="Layer 1"
     inkscape:groupmode="layer"
     id="layer1"
     transform="translate(102.37764,-68.734917)"><path
       style="fill:#000000;stroke-width:1"
       d="m -101.4999,80.514357 c -0.73883,-0.0911 -0.77663,-0.13537 -0.84667,-0.99198 -0.0403,-0.49314 -0.0415,-3.06715 -0.003,-5.72 l 0.0707,-4.82337 3.855168,0.0695 c 4.22464,0.0761 4.77752,0.22411 5.24396,1.40346 0.29584,0.748 0.29393,8.00532 -0.002,8.76203 -0.43419,1.10911 -1.0292,1.28951 -4.43623,1.34505 -1.70979,0.0279 -3.456708,0.008 -3.882058,-0.0447 z m 4.992908,-3.24198 c 0.5375,-0.20436 0.54295,-0.22982 0.54295,-2.54 v -2.33357 h -1.69334 -1.69333 v 2.286 c 0,1.49578 0.0878,2.3738 0.254,2.54 0.30601,0.30601 1.83606,0.33411 2.58972,0.0476 z m 5.24906,3.2048 c -0.36459,-0.23142 -0.39085,-10.94784 -0.0279,-11.38517 0.34675,-0.4178 1.97229,-0.37707 2.33379,0.0585 0.22545,0.27164 0.30745,1.59872 0.3662,5.92667 l 0.0757,5.57666 -1.23987,-0.003 c -0.68193,-0.002 -1.36049,-0.0798 -1.50792,-0.17339 z m 6.44041,-0.0154 c -2.3933,-0.2074 -2.52894,-0.55994 -2.42921,-6.31404 0.0661,-3.8155 0.0727,-3.86284 0.60857,-4.3982 0.40371,-0.40331 0.91041,-0.59859 1.98891,-0.76649 1.568465,-0.24419 6.326491,-0.18027 6.595288,0.0886 0.279432,0.2795 0.209925,2.43603 -0.08812,2.73411 -0.197999,0.19802 -1.04895,0.27557 -3.023811,0.27557 -2.21252,0 -2.787424,0.0619 -2.949133,0.3175 -0.110474,0.17462 -0.202324,1.23938 -0.204114,2.36613 -0.004,2.54415 0.12066,2.71387 1.99361,2.71387 h 1.331606 l 0.150021,-1.84891 c 0.08355,-1.02976 0.260559,-1.91921 0.399523,-2.00759 0.13723,-0.0873 0.738378,-0.16014 1.335887,-0.16193 l 1.086382,-0.003 0.149978,1.60049 c 0.204887,2.18645 -0.02935,4.0103 -0.598932,4.66356 -0.718989,0.8246 -2.703866,1.05622 -6.346455,0.74057 z m 8.379726,0.0632 c -0.201794,-0.0901 -0.264583,-1.41635 -0.264583,-5.5887 0,-6.1841 -0.01158,-6.13829 1.549703,-6.13257 1.588778,0.006 1.527079,-0.24276 1.455559,5.86421 -0.03514,3.00119 -0.1486,5.54159 -0.252122,5.64534 -0.221818,0.22229 -2.105861,0.38259 -2.488557,0.21172 z m 6.909632,-2.7e-4 c -0.289676,-0.0868 -0.362519,-0.70287 -0.492544,-4.16547 -0.08392,-2.23498 -0.189203,-4.1002 -0.233951,-4.14495 -0.04475,-0.0447 -0.632729,-0.1406 -1.306625,-0.21301 l -1.225262,-0.13165 -0.06285,-1.56735 -0.06285,-1.56736 2.265362,0.13861 c 1.245949,0.0762 3.298294,0.1386 4.560767,0.1386 h 2.295406 v 1.472 1.47199 l -1.42875,0.0626 -1.42875,0.0626 -0.177802,4.1275 c -0.09779,2.27012 -0.214757,4.16509 -0.259928,4.21104 -0.131335,0.13359 -2.068811,0.21679 -2.442221,0.10488 z m 6.510223,-0.1329 c -0.364644,-0.27221 -0.386114,-0.61681 -0.314122,-5.04218 0.08245,-5.06854 0.146006,-5.39558 1.180089,-6.07292 0.468471,-0.30686 1.059004,-0.37042 3.441481,-0.37042 3.088791,0 3.679349,0.16799 4.278584,1.21709 0.325854,0.57048 0.504537,9.61968 0.198981,10.07721 -0.267965,0.40124 -2.061536,0.578 -2.465243,0.24295 -0.242972,-0.20164 -0.319208,-0.73896 -0.319208,-2.24982 v -1.98492 h -1.564854 c -1.855775,0 -1.821813,-0.0457 -1.821813,2.45148 0,1.555 -0.04716,1.78215 -0.370417,1.78418 -0.203729,0.001 -0.703791,0.0557 -1.11125,0.12094 -0.468498,0.075 -0.884711,0.0112 -1.132228,-0.17358 z m 5.754679,-7.43849 c 0.10371,-0.54401 -0.314433,-0.75912 -1.483055,-0.76295 -1.148658,-0.004 -1.657729,0.1517 -1.657729,0.50624 0,0.56171 0.540398,0.77735 1.795232,0.71638 1.04684,-0.0509 1.282998,-0.13154 1.345552,-0.45966 z m 5.116337,7.51159 c -0.408536,-0.11371 -0.560477,-0.33504 -0.675718,-0.98432 -0.181335,-1.02164 -0.174297,-7.09035 0.01042,-8.98679 l 0.13401,-1.37583 1.403086,-0.062 1.403083,-0.062 0.08698,4.04366 c 0.06982,3.24631 0.147925,4.08222 0.396081,4.23918 0.170009,0.10753 1.19017,0.19698 2.267024,0.19876 l 1.957917,0.003 v 1.4529 1.45289 l -0.982042,0.13461 c -1.263507,0.17318 -5.315268,0.13652 -6.000837,-0.0543 z m 14.285379,-0.21979 c -1.164167,-0.0663 -2.224147,-0.19039 -2.355512,-0.27582 -0.906145,-0.58932 -1.435449,-5.05222 -0.96063,-8.09967 0.197001,-1.26437 0.335824,-1.57851 0.946584,-2.14204 0.67843,-0.62595 0.830523,-0.66733 2.918477,-0.79387 1.21151,-0.0734 2.72244,-0.062 3.357618,0.0254 1.129921,0.15544 1.158519,0.17646 1.323773,0.97267 0.0929,0.44759 0.09125,1.11434 -0.0036,1.48167 l -0.172568,0.66787 -2.738717,0.10583 -2.738719,0.10584 v 2.43416 2.43417 l 2.804584,0.0591 2.804583,0.0591 v 1.58136 1.58135 l -1.534583,-0.0383 c -0.844021,-0.021 -2.487084,-0.0925 -3.65125,-0.15875 z m 8.316406,0.0433 c -1.766803,-0.18568 -2.221327,-1.69133 -2.009034,-6.65512 0.128702,-3.00925 0.387318,-3.9819 1.146048,-4.31026 0.208037,-0.09 1.624593,-0.2074 3.147905,-0.26081 4.301445,-0.15083 4.720382,0.23242 4.900919,4.48351 0.136999,3.22596 -0.161673,5.3045 -0.863001,6.00583 -0.705424,0.70543 -3.510832,1.03236 -6.322837,0.73685 z m 4.27776,-5.56132 v -2.54 h -1.283915 c -0.706154,0 -1.468154,0.0986 -1.693333,0.21912 -0.453976,0.24296 -0.508076,0.92691 -0.271473,3.43213 l 0.134937,1.42875 h 1.556891 1.556893 z m 17.8858334,5.50451 -0.635,-0.11099 -0.05637,-5.66009 -0.05637,-5.66009 3.760542,0.0109 3.76053999,0.0109 0.687916,0.85864 c 0.666706,0.83215 0.687917,0.92013 0.687917,2.85337 0,2.31934 -0.332704,3.35836 -1.178336,3.67987 -0.310096,0.11789 -1.43389099,0.27463 -2.49732099,0.34829 -1.063431,0.0737 -2.003489,0.23853 -2.089019,0.36637 -0.08553,0.12785 -0.156968,0.62535 -0.15875,1.10557 -0.0063,1.69992 -0.191717,2.14713 -0.925172,2.23158 -0.366063,0.0421 -0.951319,0.0267 -1.300569,-0.0344 z m 5.185834,-7.08456 c 0,-0.90838 -0.424885,-1.17161 -1.891085,-1.17161 h -1.072249 v 0.81139 c 0,0.44626 0.0635,0.87488 0.141112,0.9525 0.07761,0.0776 0.74436,0.14111 1.481667,0.14111 h 1.340555 z m 16.7216656,3.08641 v -4.25802 l -1.11125,-0.003 c -0.611187,-0.002 -1.217475,-0.0732 -1.347305,-0.15875 -0.393327,-0.25912 -0.539561,-1.04904 -0.385004,-2.0797 l 0.146545,-0.97722 4.047257,0.0922 c 2.22599,0.0507 4.213945,0.16603 4.417674,0.25627 0.28416,0.12587 0.370417,0.42003 0.370417,1.26326 0,1.32673 -0.240411,1.60719 -1.377711,1.60719 -1.584025,0 -1.607674,0.0598 -1.741835,4.40285 l -0.118995,3.85215 -0.973645,0.003 c -0.535506,0.002 -1.18796,0.0603 -1.449898,0.13052 l -0.47625,0.12763 z m 8.09625,4.05259 -1.11125,-0.0777 v -5.5981 -5.59811 h 3.925505 3.925504 l -0.06259,1.42875 -0.06259,1.42875 -2.328333,0.13182 c -1.280583,0.0725 -2.358771,0.14394 -2.395971,0.15875 -0.0372,0.0148 -0.0372,0.23734 0,0.49451 0.08739,0.60413 0.662207,0.75494 2.978054,0.78132 l 1.852083,0.0211 v 1.04584 c 0,0.57522 -0.0962,1.1053 -0.213772,1.17796 -0.117573,0.0727 -1.14151,0.22666 -2.275417,0.34222 -1.133904,0.11555 -2.152131,0.29984 -2.262727,0.40954 -0.424205,0.42075 0.307541,0.64654 2.49712,0.77054 l 2.254796,0.12769 v 1.55561 1.5556 l -2.804583,-0.0392 c -1.54252,-0.0215 -3.304645,-0.0741 -3.915833,-0.1169 z m 8.202083,-5.55895 v -5.715 h 3.692364 c 3.599123,0 3.707359,0.0129 4.28625,0.51131 0.56315,0.48485 0.593666,0.60262 0.589623,2.27542 -0.0029,1.19516 -0.111148,1.95938 -0.335674,2.36958 -0.303466,0.55443 -0.300782,0.66555 0.03185,1.31799 0.397338,0.77936 0.741832,3.62099 0.522681,4.31147 -0.119522,0.37659 -0.313502,0.43257 -1.49886,0.43257 h -1.361569 v -1.02879 c 0,-0.56584 -0.06057,-1.47071 -0.134603,-2.01084 l -0.134606,-0.98204 h -1.452894 -1.452897 v 1.98437 1.98438 l -0.661459,0.13229 c -0.363802,0.0728 -0.982927,0.13229 -1.375833,0.13229 h -0.714375 z m 5.053542,-1.40229 c 0.513691,-0.10274 0.661458,-0.24245 0.661458,-0.62541 0,-0.39154 -0.145718,-0.52045 -0.707405,-0.62582 -1.099496,-0.20627 -1.924666,-0.0458 -2.007436,0.39047 -0.177997,0.93812 0.417815,1.18788 2.053383,0.86076 z m 21.479619,6.93749 c -2.428762,-0.25706 -2.691168,-0.85785 -2.577266,-5.90084 0.120487,-5.33447 0.225506,-5.46374 4.4197,-5.44012 4.432761,0.025 4.725225,0.40073 4.601104,5.9116 -0.107421,4.76936 -0.434804,5.28824 -3.449199,5.46676 -0.931334,0.0552 -2.278785,0.0383 -2.994339,-0.0374 z m 3.47726,-5.66615 0.05959,-2.35346 -0.668132,-0.13363 c -2.126431,-0.42528 -2.521219,-0.0704 -2.517324,2.26275 0.0045,2.7159 0.0029,2.71323 1.664582,2.63976 l 1.401695,-0.062 z m 4.883385,5.70423 c -0.191782,-0.0509 -0.404795,-0.30183 -0.473361,-0.55753 -0.165349,-0.61664 -0.161378,-3.98823 0.0091,-7.7145 l 0.13799,-3.01625 h 1.754964 1.754962 l 1.2115,2.2225 c 0.666326,1.22238 1.279148,2.2225 1.361829,2.2225 0.08268,0 0.21767,-0.98799 0.299976,-2.19553 l 0.149646,-2.19554 1.182258,-0.13895 c 0.855654,-0.10056 1.22972,-0.0642 1.354062,0.13179 0.197904,0.31186 0.195254,6.08599 -0.0041,9.0549 l -0.135058,2.01083 -1.27,0.0608 -1.27,0.0608 -1.587507,-2.9643 c -0.873125,-1.63037 -1.645989,-2.96743 -1.71748,-2.97126 -0.209668,-0.0112 -0.399186,1.81082 -0.399186,3.83782 0,1.82404 -0.01636,1.88692 -0.542946,2.08713 -0.551352,0.20962 -1.18588,0.23222 -1.816581,0.0647 z m 13.027512,0.007 c -0.408841,-0.0898 -0.455477,-0.28794 -0.58112,-2.46838 -0.07513,-1.30387 -0.13704,-3.1565 -0.137569,-4.11693 l -9.63e-4,-1.74625 -1.005417,-0.003 c -0.552979,-0.002 -1.110303,-0.0732 -1.238499,-0.15875 -0.128198,-0.0855 -0.299054,-0.81324 -0.37968,-1.61713 l -0.146596,-1.46162 2.390513,0.13774 c 1.314782,0.0758 3.3192,0.13817 4.454262,0.1387 l 2.06375,9.6e-4 v 1.35319 c 0,1.53872 -0.07444,1.61015 -1.678074,1.61015 h -1.00845 l -0.124278,3.94404 c -0.06835,2.16922 -0.214353,4.03411 -0.324442,4.1442 -0.23426,0.23426 -1.642081,0.38428 -2.283437,0.24332 z m -99.567984,-5.68573 v -5.60917 h 2.08008 2.08008 l 0.26053,1.42875 c 0.469144,2.57278 0.901673,4.28625 1.081975,4.28625 0.174459,0 0.907906,-2.85261 1.182657,-4.59975 0.07746,-0.49257 0.248014,-0.9758 0.379009,-1.07383 0.130994,-0.098 1.023982,-0.13737 1.984419,-0.0874 l 1.74625,0.0908 v 5.58675 5.58676 h -1.375833 -1.375834 l -0.01488,-1.85209 c -0.01445,-1.79883 -0.212223,-2.87552 -0.454268,-2.47303 -0.06536,0.10869 -0.231949,0.76912 -0.370193,1.46762 -0.58881,2.97506 -0.515476,2.8575 -1.782444,2.8575 h -1.1238 l -0.489901,-2.23232 c -0.546341,-2.48949 -0.834411,-2.55837 -0.844162,-0.20185 -0.0099,2.40065 -0.03214,2.43417 -1.612538,2.43417 h -1.351147 z m 23.7837304,5.3616 c -0.248655,-0.1204 -0.571083,-0.47114 -0.716504,-0.77942 -0.323802,-0.68644 -0.53514,-6.30658 -0.322485,-8.57591 l 0.151378,-1.61544 h 1.327759 1.32776 l 0.107503,3.92277 c 0.05913,2.15752 0.162547,3.97781 0.229826,4.04509 0.06728,0.0673 0.746781,0.17245 1.5100106,0.23371 l 1.3876888,0.11139 v -3.90248 c 0,-2.75304 0.074814,-3.97729 0.254,-4.15648 0.1397,-0.1397 0.80645,-0.254 1.4816666,-0.254 H 10.92762 v 4.95224 4.95224 l -0.748199,0.65693 -0.7481975,0.65693 -3.008886,-0.0143 c -1.6548861,-0.008 -3.2123291,-0.11284 -3.4609871,-0.23324 z m 43.3782756,-0.1669 c -0.989565,-0.60338 -1.169435,-1.54958 -1.086385,-5.71492 0.1012,-5.0757 0.104182,-5.07871 5.203128,-5.24929 l 3.227917,-0.10799 v 1.59811 1.5981 l -2.548113,0.0707 c -1.978637,0.0549 -2.592881,0.1416 -2.748426,0.38814 -0.110171,0.17462 -0.201772,1.34144 -0.203554,2.59292 l -0.0032,2.27541 h 2.751667 2.751667 v 1.48167 1.48167 l -3.33375,-7.9e-4 c -2.93224,-7e-4 -3.415305,-0.0505 -4.01091,-0.41368 z m 39.041743,0.2947 c -0.08731,-0.0893 -0.15875,-2.67071 -0.15875,-5.73634 v -5.57389 l 2.69875,0.023 c 1.484312,0.0126 3.265417,0.0841 3.95801,0.15875 1.148801,0.12387 1.296022,0.19889 1.67833,0.85525 0.571875,0.98181 0.593547,3.0503 0.0416,3.96991 -0.379169,0.63174 -0.381839,0.70759 -0.04956,1.40782 0.251367,0.52972 0.351204,1.31768 0.351204,2.77187 v 2.03176 h -1.375835 -1.375833 v -2.01083 -2.01084 h -1.45183 -1.451832 l -0.113504,1.81934 c -0.06243,1.00063 -0.20221,1.90804 -0.310627,2.01646 -0.260575,0.26057 -2.237061,0.48556 -2.440123,0.27777 z m 5.421481,-7.1354 c 0.236394,-0.17286 0.317748,-0.40497 0.225861,-0.64442 -0.119608,-0.3117 -0.35999,-0.36383 -1.438143,-0.31192 -1.0709,0.0516 -1.307637,0.13109 -1.3704,0.46031 -0.04173,0.21888 0.05257,0.47936 0.209541,0.57884 0.434086,0.2751 1.956321,0.22198 2.373141,-0.0828 z m 5.704008,6.85838 c -0.446405,-0.28299 -0.750595,-0.70034 -0.898404,-1.23262 -0.298099,-1.07349 -0.291368,-7.43277 0.0088,-8.29377 0.392062,-1.12467 1.176245,-1.38414 4.210385,-1.3931 4.389921,-0.013 4.739191,0.45237 4.601211,6.13044 -0.1155,4.75297 -0.30163,4.96005 -4.601211,5.11906 -2.390102,0.0884 -2.711069,0.0565 -3.32076,-0.33001 z m 5.012252,-4.10113 c -0.001,-0.7276 -0.0619,-1.82298 -0.13531,-2.43417 l -0.13348,-1.11125 h -1.452185 -1.452183 v 2.43417 2.43417 h 1.5875 1.587498 l -0.002,-1.32292 z m 4.71143,4.35773 c -0.2015,-0.0813 -0.26459,-1.33499 -0.26459,-5.25764 0,-2.83299 0.0578,-5.30155 0.12848,-5.4857 0.0986,-0.25699 0.443,-0.33481 1.48167,-0.33481 h 1.35319 v 4.01401 4.014 l 2.06375,0.0606 2.06375,0.0606 0.0622,1.53458 0.0622,1.53459 -3.34303,-0.0167 c -1.83866,-0.009 -3.46208,-0.0648 -3.6076,-0.12348 z m 8.2453,-0.0105 c -0.45284,-0.0867 -0.48167,-0.18201 -0.42333,-1.39993 l 0.0626,-1.30692 2.39321,-0.13881 c 2.76045,-0.16011 3.49167,-0.30381 3.37227,-0.66275 -0.10725,-0.32245 -0.9837,-0.5166 -2.48465,-0.55041 -1.64964,-0.0372 -2.64894,-0.36474 -3.06919,-1.00611 -0.47555,-0.72578 -0.67621,-3.53994 -0.32772,-4.5959 0.43671,-1.32323 1.12444,-1.49074 5.884,-1.43312 l 2.16958,0.0263 v 1.48167 1.48167 h -2.31102 c -2.57101,0 -2.98065,0.0867 -2.98065,0.63118 0,0.45475 0.77195,0.63882 2.67909,0.63882 2.72603,0 3.34126,0.70385 3.21674,3.6801 -0.0941,2.24873 -0.49795,2.91544 -1.8963,3.13046 -1.01583,0.1562 -5.50397,0.17319 -6.28464,0.0238 z"
       id="path246" /></g></svg>
