<?xml version="1.0" encoding="UTF-8" standalone="no"?>
<!-- Created with Inkscape (http://www.inkscape.org/) -->

<svg
   xmlns:dc="http://purl.org/dc/elements/1.1/"
   xmlns:cc="http://creativecommons.org/ns#"
   xmlns:rdf="http://www.w3.org/1999/02/22-rdf-syntax-ns#"
   xmlns:svg="http://www.w3.org/2000/svg"
   xmlns="http://www.w3.org/2000/svg"
   xmlns:sodipodi="http://sodipodi.sourceforge.net/DTD/sodipodi-0.dtd"
   xmlns:inkscape="http://www.inkscape.org/namespaces/inkscape"
   width="522.77649mm"
   height="185.27061mm"
   viewBox="0 0 522.77649 185.27061"
   version="1.1"
   id="svg1576"
   inkscape:version="0.92.5 (2060ec1f9f, 2020-04-08)"
   sodipodi:docname="dccc logo.svg">
  <defs
     id="defs1570" />
  <sodipodi:namedview
     id="base"
     pagecolor="#ffffff"
     bordercolor="#666666"
     borderopacity="1.0"
     inkscape:pageopacity="0.0"
     inkscape:pageshadow="2"
     inkscape:zoom="0.35"
     inkscape:cx="2096.4957"
     inkscape:cy="210.1177"
     inkscape:document-units="mm"
     inkscape:current-layer="layer1"
     showgrid="false"
     fit-margin-top="0"
     fit-margin-left="0"
     fit-margin-right="0"
     fit-margin-bottom="0"
     inkscape:window-width="2560"
     inkscape:window-height="1024"
     inkscape:window-x="0"
     inkscape:window-y="0"
     inkscape:window-maximized="1" />
  <metadata
     id="metadata1573">
    <rdf:RDF>
      <cc:Work
         rdf:about="">
        <dc:format>image/svg+xml</dc:format>
        <dc:type
           rdf:resource="http://purl.org/dc/dcmitype/StillImage" />
        <dc:title></dc:title>
      </cc:Work>
    </rdf:RDF>
  </metadata>
  <g
     inkscape:label="Layer 1"
     inkscape:groupmode="layer"
     id="layer1"
     transform="translate(576.62044,-19.156357)">
    <path
       style="fill:#000000;stroke-width:0.47797206"
       d="m -576.4945,203.73321 c -0.1175,-0.36606 -0.1604,-5.83372 -0.096,-12.15031 l 0.1181,-11.4847 h 8.1324 c 11.6745,0 11.7584,0.0855 11.7584,11.98644 0,8.90694 -0.42608,10.79778 -2.6412,11.72087 -2.089,0.87055 -16.9895,0.8082 -17.2721,-0.0723 z m 12.9521,-6.9601 c 0.2584,-0.37226 0.3954,-2.52105 0.319,-5.00544 l -0.1338,-4.35316 h -3.2787 -3.2787 l -0.1252,4.79202 c -0.1426,5.45759 -0.2346,5.3283 3.7406,5.25901 1.2683,-0.0221 2.5076,-0.33336 2.7568,-0.69243 z m 9.43842,7.27732 c -0.16026,-0.1916 -0.29143,-5.57531 -0.29143,-11.96376 0,-12.9896 -0.19803,-12.24977 3.27869,-12.24977 3.48193,0 3.27871,-0.78082 3.27871,12.59817 v 11.96376 h -2.98727 c -1.64299,0 -3.11841,-0.15684 -3.2787,-0.3484 z m 11.67549,-0.0117 c -0.5111,-0.11985 -1.39635,-0.81162 -1.96721,-1.53722 -0.99149,-1.26018 -1.04413,-1.70184 -1.17627,-9.86684 -0.20395,-12.60229 -0.0231,-12.79755 11.84744,-12.79755 7.55606,0 7.64552,0.0139 7.90613,1.17583 0.46261,2.06353 0.29562,4.47405 -0.36461,5.2633 -0.50619,0.60513 -1.71815,0.73188 -5.79237,0.60577 -7.52402,-0.23287 -7.11944,-0.51516 -7.11944,4.96742 0,5.57006 0.20985,5.86614 4.00557,5.65134 l 2.77041,-0.15683 0.12772,-3.7413 c 0.0789,-2.3159 0.32882,-3.83344 0.65574,-3.98316 0.29045,-0.13312 1.70843,-0.21321 3.15104,-0.17817 l 2.62296,0.0638 0.12509,5.08491 c 0.21785,8.86172 -0.77445,9.84469 -9.83013,9.73789 -3.31795,-0.0391 -6.45084,-0.16928 -6.96195,-0.28915 z m 18.92572,0.0117 c -0.16027,-0.1916 -0.29145,-5.57531 -0.29145,-11.96376 0,-13.18299 -0.29889,-12.24977 3.92343,-12.24977 1.95721,0 2.60396,0.19789 2.81716,0.86202 0.35849,1.11685 0.0133,22.37514 -0.37594,23.12737 -0.317,0.61313 -5.58518,0.80754 -6.0732,0.22414 z m 13.91935,-0.16828 c -0.14688,-0.28416 -0.31412,-4.22321 -0.37158,-8.75346 l -0.1044,-8.23682 -1.73073,-0.0488 c -4.49834,-0.12681 -4.13513,0.19119 -4.13513,-3.6196 v -3.40705 l 9.50824,0.14083 9.50822,0.14082 0.13019,3.26622 0.13021,3.26623 h -3.081 c -2.16248,0 -3.08703,0.19474 -3.10131,0.65322 -0.0118,0.3593 -0.0825,4.09215 -0.15846,8.29527 -0.076,4.20311 -0.27517,7.90698 -0.44262,8.23086 -0.37694,0.7291 -5.77901,0.79253 -6.15138,0.0723 z m 13.63963,0.1896 c -0.39481,-0.47198 -0.32281,-18.83818 0.0806,-20.57089 0.16656,-0.71535 0.96293,-1.83238 1.76971,-2.48233 1.35249,-1.08957 1.94753,-1.1811 7.63176,-1.17401 9.65668,0.0118 9.87902,0.33003 9.88005,14.12847 5.3e-4,6.43758 -0.15564,9.35846 -0.52392,9.79865 -0.28853,0.34489 -1.67175,0.6271 -3.07384,0.6271 -3.01291,0 -3.07732,-0.1114 -3.13625,-5.4227 l -0.0413,-3.72269 h -3.06014 -3.06011 l -0.21858,4.44205 -0.21858,4.44204 -2.86006,0.1521 c -1.57304,0.0835 -2.99927,-0.0132 -3.16941,-0.21773 z m 12.36831,-15.87342 c 0,-0.94564 -0.29144,-1.04519 -3.06014,-1.04519 -2.25864,0 -3.06011,0.1825 -3.06011,0.69679 0,1.18882 0.49249,1.39358 3.35157,1.39358 2.47724,0 2.76868,-0.11001 2.76868,-1.04518 z m 9.17786,15.14967 c -0.7198,-1.60784 -0.51489,-22.25841 0.22818,-22.99565 0.321,-0.31845 1.78886,-0.49892 3.34273,-0.411 l 2.7704,0.15682 0.12078,8.33922 c 0.0851,5.86899 0.2793,8.45952 0.65573,8.74543 0.2942,0.22345 2.45293,0.40986 4.79721,0.41425 l 4.26231,0.008 v 3.07965 c 0,2.32615 -0.16919,3.15726 -0.69151,3.39685 -0.38031,0.17442 -3.91439,0.31722 -7.8535,0.31722 -6.72723,0 -7.19056,-0.0639 -7.6324,-1.05074 z m 26.34415,-0.0102 c -0.53947,-0.25928 -1.3748,-1.24383 -1.8563,-2.1879 -0.76631,-1.5025 -0.87564,-2.63526 -0.87707,-9.08616 -0.001,-6.81095 0.074,-7.50432 0.99711,-9.14541 0.57065,-1.0146 1.64809,-2.04305 2.51366,-2.39946 2.07211,-0.85315 13.61906,-0.898 14.32373,-0.0557 0.54882,0.65609 0.7161,4.43929 0.25924,5.86257 -0.22299,0.69464 -1.16537,0.82662 -5.90167,0.82662 l -5.6363,3e-5 v 4.96463 4.96464 h 5.68307 5.68309 v 3.39686 3.39688 l -7.10387,-0.0333 c -3.9071,-0.0178 -7.54523,-0.24525 -8.08469,-0.50452 z m 18.90589,-0.63817 c -1.57125,-1.62042 -1.89392,-3.91447 -1.67844,-11.93306 0.27821,-10.35221 0.43292,-10.52447 9.52766,-10.60998 5.74756,-0.0541 6.39833,0.0355 7.52645,1.03643 2.04766,1.81657 2.31441,3.03276 2.3214,10.5838 0.01,11.38574 -0.59057,12.09866 -10.20061,12.09866 -5.96242,0 -6.42693,-0.0729 -7.49646,-1.17585 z m 11.14612,-10.58253 v -4.96463 h -3.01336 c -2.03104,0 -3.06727,0.21293 -3.17874,0.65324 -0.0909,0.35928 -0.097,2.59337 -0.0133,4.96464 l 0.15184,4.31139 h 3.02683 3.02685 v -4.96464 z m 9.38394,11.11626 c -0.12193,-0.37964 -0.16833,-5.74051 -0.10322,-11.91307 l 0.1183,-11.22286 h 4.36772 4.3677 l 0.58714,2.87427 c 1.74512,8.54322 1.98575,9.45605 2.30995,8.76351 0.27765,-0.59309 2.57519,-11.06246 2.57519,-11.73454 0,-0.11121 1.91803,-0.13511 4.2623,-0.0527 l 4.26231,0.14952 v 11.75837 11.75836 h -3.06011 -3.06013 l -0.12624,-4.57268 c -0.0696,-2.515 -0.28406,-4.5727 -0.47689,-4.5727 -0.19282,0 -0.59197,1.35221 -0.88701,3.00491 -0.29504,1.65269 -0.73812,3.7803 -0.98458,4.72797 -0.44477,1.71006 -0.46676,1.72188 -2.9143,1.56779 l -2.46616,-0.15525 -0.95358,-4.44203 c -0.52448,-2.44314 -1.00734,-4.55964 -1.07304,-4.70335 -0.0657,-0.14379 -0.2298,1.85521 -0.36472,4.44203 l -0.24526,4.70335 -2.95683,0.15465 c -2.14218,0.11198 -3.01787,-0.0356 -3.17838,-0.5355 z m 26.31746,0.29372 c -0.16027,-0.1916 -0.29145,-5.60046 -0.29145,-12.01967 v -11.67124 h 7.9126 7.9126 l 1.48635,1.77684 c 1.44716,1.72997 1.48633,1.88904 1.48633,6.03576 0,7.21212 -1.0716,8.38783 -7.64508,8.38783 -2.25865,0 -4.2031,0.18665 -4.321,0.4146 -0.1178,0.22803 -0.27166,1.8154 -0.34172,3.52751 -0.0701,1.7121 -0.32946,3.28566 -0.57648,3.49685 -0.56222,0.48064 -5.22742,0.52343 -5.62215,0.0516 z m 11.86745,-14.9375 c -0.13696,-1.69833 -0.13715,-1.69843 -2.86924,-1.85399 l -2.73225,-0.15565 v 1.50561 c 0,0.8281 0.13119,1.66241 0.29145,1.85402 0.16026,0.19159 1.45144,0.34839 2.86922,0.34839 h 2.5778 z m 10.71004,14.53976 c -2.06003,-1.0995 -2.39146,-3.15772 -2.2362,-13.8865 l 0.13233,-9.14541 h 3.06014 3.06013 l 0.21857,8.36152 0.21857,8.3615 2.95084,0.15446 2.95083,0.15446 0.0517,-7.73214 c 0.0285,-4.25267 0.0304,-7.90151 0.006,-8.10848 -0.10557,-0.83753 1.85093,-1.49716 4.00069,-1.34886 l 2.28199,0.15743 v 10.31026 10.31025 l -1.21091,1.4481 c -1.20179,1.43721 -1.25939,1.4491 -7.65031,1.57756 -4.81784,0.0968 -6.79028,-0.0579 -7.83283,-0.61427 z m 23.90719,-7.8299 v -8.6218 l -2.95083,-0.15445 -2.95083,-0.15446 -0.13977,-2.04055 c -0.0769,-1.12231 -0.0239,-2.59211 0.11763,-3.26623 l 0.25734,-1.22564 h 8.86601 c 9.62399,0 9.91959,0.0849 9.90924,2.84814 -0.0133,3.57822 -0.29754,3.94559 -3.05161,3.94559 -1.55171,0 -2.70215,0.2646 -2.997,0.6893 -0.2862,0.41225 -0.52734,3.82556 -0.59998,8.49215 l -0.12144,7.80284 -3.16941,0.15347 -3.16942,0.15348 z m 14.18501,7.90985 c -0.11766,-0.36639 -0.1606,-5.71644 -0.0955,-11.889 l 0.11829,-11.22286 8.14635,-0.14202 c 6.30663,-0.10983 8.19488,0.01 8.36128,0.52755 0.11814,0.36823 0.11578,1.90192 -0.006,3.40817 l -0.21987,2.73869 h -4.28022 c -4.58309,0 -5.66323,0.24821 -5.66323,1.30142 0,0.97455 1.47179,1.29638 5.96504,1.30439 l 3.9978,0.008 0.19915,2.22103 c 0.10954,1.22156 0.0228,2.45619 -0.19251,2.74362 -0.2154,0.28742 -2.49745,0.64019 -5.07127,0.7839 -3.77108,0.21055 -4.67962,0.41347 -4.67962,1.04517 0,0.64159 0.89283,0.81073 4.91804,0.93166 l 4.91807,0.14774 v 3.37976 3.37974 h -8.1012 c -6.16147,0 -8.15236,-0.15941 -8.31501,-0.66616 z m 19.14024,-11.22284 0.11748,-11.88902 h 7.94382 c 7.80587,0 7.96343,0.0219 9.07108,1.26695 0.99362,1.11675 1.12723,1.68137 1.12723,4.76351 0,2.68823 -0.19923,3.79933 -0.86172,4.80617 -0.8451,1.28435 -0.84574,1.32689 -0.0339,2.20527 0.59809,0.64702 0.91088,1.95378 1.12668,4.70704 0.45532,5.80807 0.29324,6.10628 -3.21747,5.92137 l -2.91528,-0.15348 -0.21857,-4.18073 -0.2186,-4.18076 h -2.84155 -2.84154 l -0.0592,3.65814 c -0.0326,2.012 -0.0817,3.95215 -0.10922,4.31143 -0.035,0.45484 -0.98195,0.65324 -3.11843,0.65324 h -3.06835 z m 11.92083,-4.05011 c 0,-0.9171 -0.33483,-1.06424 -2.73227,-1.20075 -2.68317,-0.15288 -2.73225,-0.13116 -2.73225,1.20075 0,1.33201 0.0491,1.35358 2.73225,1.20078 2.39744,-0.13647 2.73227,-0.28367 2.73227,-1.20078 z m 21.6394,15.60516 c -3.54962,-1.43473 -3.95568,-2.62693 -3.97653,-11.67497 -0.0265,-11.55189 0.41296,-12.02832 11.10038,-12.02958 l 6.90523,-5.3e-4 -0.12919,3.47258 -0.1292,3.47259 -4.5902,-0.0351 c -7.04332,-0.0539 -6.55741,-0.45272 -6.55741,5.38091 v 4.95468 h 5.70397 5.70394 l -0.1302,3.26622 -0.13021,3.26621 -6.5574,0.0962 c -3.60659,0.053 -6.8525,-0.023 -7.21315,-0.16887 z m 18.40288,-0.32696 c -0.57793,-0.35506 -1.46317,-1.30972 -1.96723,-2.12147 -0.8518,-1.3718 -0.90709,-2.0352 -0.78361,-9.40669 0.18888,-11.27802 0.67005,-11.87177 9.57992,-11.82073 9.00618,0.0515 9.75419,0.93447 9.7155,11.46757 -0.0279,7.60771 -0.49784,9.69647 -2.55296,11.34831 -1.36065,1.09364 -1.96657,1.19329 -7.21315,1.18625 -3.67504,-0.005 -6.10428,-0.23905 -6.77847,-0.65324 z m 9.26391,-6.5908 c 0.69953,-0.0579 0.76825,-0.56608 0.65575,-4.84994 l -0.12573,-4.78535 -1.93112,-0.214 c -1.06212,-0.11771 -2.38998,-0.0763 -2.95082,0.092 -0.97261,0.29183 -1.01973,0.52078 -1.01973,4.9558 0,2.64461 0.18907,4.72496 0.43842,4.82405 0.39526,0.15702 2.89898,0.14556 4.93321,-0.0226 z m 9.68772,6.58555 c -0.11763,-0.36639 -0.1606,-5.71644 -0.0956,-11.889 l 0.11829,-11.22286 3.64895,-0.15268 c 2.12185,-0.0887 3.88242,0.079 4.20682,0.40092 0.30687,0.30442 1.50725,2.4308 2.66758,4.72529 1.16031,2.29448 2.2596,4.1718 2.44285,4.1718 0.18322,0 0.39,-2.05771 0.45945,-4.5727 l 0.12623,-4.5727 2.95082,-0.15447 2.95084,-0.15445 0.0441,1.46102 c 0.16899,5.58788 -0.019,21.72523 -0.25675,22.00916 -0.16044,0.19179 -1.50612,0.35026 -2.9904,0.35215 l -2.6987,0.005 -2.53405,-4.44203 c -1.39371,-2.44313 -2.85638,-5.20636 -3.25038,-6.14049 -0.39399,-0.93413 -0.87664,-1.69842 -1.07254,-1.69842 -0.19592,0 -0.35618,2.67926 -0.35618,5.95392 0,6.77378 0.10602,6.58834 -3.76534,6.58834 -1.52725,0 -2.45909,-0.23912 -2.59619,-0.66618 z m 26.73623,-0.16037 c -0.1459,-0.45465 -0.26535,-4.32369 -0.26535,-8.59787 v -7.77124 l -2.73228,-0.15564 -2.73222,-0.15565 -0.13036,-3.27666 -0.13036,-3.2767 9.31074,0.14122 9.31074,0.14103 v 3.13556 3.13556 l -2.95082,0.15446 -2.95087,0.15446 v 8.28172 c 0,9.42395 0.22347,8.91615 -3.9234,8.91615 -1.91328,0 -2.60593,-0.20407 -2.8058,-0.82665 z m 15.14453,0.40865 -0.98358,-0.17736 v -11.72203 -11.72203 h 7.8976 c 4.82131,0 8.24142,0.21995 8.78022,0.56466 1.10723,0.70839 2.12005,3.5396 2.12005,5.9264 0,1.95263 -0.77991,4.48341 -1.38165,4.48341 -0.61463,0 -0.41082,1.16632 0.3883,2.22186 0.5914,0.78124 0.75737,1.98067 0.76502,5.52839 l 0.0101,4.53072 h -3.06012 -3.06011 l -0.12774,-4.0501 -0.12772,-4.05011 h -2.82316 -2.82313 l -0.006,3.52752 c -0.004,1.94012 -0.15216,3.80072 -0.32983,4.13463 -0.33425,0.62799 -3.50954,1.11544 -5.23727,0.80397 z m 11.25689,-15.78245 c 0,-0.93797 -0.29144,-1.04516 -2.84155,-1.04516 -2.55011,0 -2.84154,0.10723 -2.84154,1.04516 0,0.93801 0.29143,1.04521 2.84154,1.04521 2.55011,0 2.84155,-0.10725 2.84155,-1.04521 z m 13.11478,15.84927 c -1.7889,-0.35179 -3.09602,-1.35156 -3.75314,-2.87063 -0.73202,-1.69223 -0.88154,-15.21891 -0.19219,-17.38642 0.86418,-2.71722 2.70171,-3.42702 8.87743,-3.42916 9.27116,-0.004 9.93138,0.76261 9.93138,11.52083 0,10.9207 -0.66898,11.86716 -8.60701,12.17807 -2.83995,0.11125 -5.65536,0.10542 -6.25647,-0.0117 z m 8.21317,-11.79916 -0.12575,-4.83398 h -2.84155 -2.84152 l -0.12573,4.83398 -0.12573,4.83401 h 3.0929 3.09296 z m 9.43356,11.51198 c -0.37899,-0.72716 -0.19769,-22.52017 0.19122,-22.98505 0.21616,-0.2584 1.65171,-0.39891 3.19016,-0.31225 l 2.79712,0.15762 0.12047,8.23086 0.12043,8.23086 2.72116,0.0759 c 1.49662,0.0417 3.46568,0.10054 4.37571,0.13057 0.91001,0.0303 1.82057,0.37538 2.02359,0.76718 0.23481,0.4533 0.42801,0.50547 0.53123,0.1434 0.10345,-0.36266 2.05494,-0.59208 5.3826,-0.63275 8.55583,-0.10448 10.07213,-1.7568 1.97816,-2.15547 -4.53795,-0.2235 -4.91498,-0.32619 -6.01165,-1.63717 -1.01407,-1.21223 -1.19169,-1.91072 -1.33229,-5.23936 -0.31324,-7.41463 0.90903,-8.3236 10.85583,-8.07348 l 6.33881,0.1594 0.1302,3.26621 0.1302,3.26622 h -5.48534 c -5.19393,0 -5.48537,0.0555 -5.48537,1.04518 0,0.97587 0.29144,1.0452 4.39333,1.0452 6.56886,0 7.84717,1.20004 7.84717,7.36685 0,3.4741 -0.80047,5.85686 -2.28698,6.80789 -1.39671,0.89361 -16.15223,0.95712 -16.39996,0.0706 -0.13615,-0.48758 -0.34261,-0.45563 -0.83142,0.12874 -0.53237,0.63645 -1.95935,0.75398 -7.87392,0.64859 -3.97304,-0.0708 -7.31216,-0.29839 -7.42022,-0.50576 z m 44.59947,-0.27896 c -0.47199,-0.56424 -0.60555,-2.77516 -0.6018,-9.96386 0.006,-5.08129 0.12671,-10.12059 0.27575,-11.19844 l 0.27101,-1.95973 h 3.00289 c 2.973125,0 3.003415,0.0139 3.049745,1.43714 0.0257,0.79043 0.0238,6.01024 -0.006,11.59959 -0.0372,7.46125 -0.19476,10.27506 -0.59322,10.58605 -0.85037,0.66358 -4.727385,0.30413 -5.400665,-0.50075 z m 9.294145,0.30212 c -0.62929,-0.42099 -0.72041,-1.72588 -0.72041,-10.31994 0,-5.41089 0.12293,-10.57289 0.27324,-11.47109 l 0.27323,-1.63312 h 3.67438 3.67432 l 2.531,4.71045 c 1.39205,2.59076 2.66488,4.55048 2.82842,4.35495 0.16357,-0.19554 0.2974,-2.17248 0.2974,-4.39324 0,-3.1998 0.14356,-4.10357 0.69148,-4.35495 1.20494,-0.55273 4.92697,-0.34238 5.25759,0.29716 0.57547,1.11312 0.2181,22.54339 -0.38356,23.00027 -0.86776,0.65895 -5.04632,0.48796 -5.58531,-0.22854 -0.27021,-0.35929 -1.86653,-3.2029 -3.54721,-6.31913 -1.68071,-3.11625 -3.12804,-5.57956 -3.2163,-5.4741 -0.0882,0.10548 -0.20516,2.58807 -0.2598,5.51682 -0.0547,2.92877 -0.21367,5.54401 -0.3533,5.81166 -0.3603,0.6906 -4.57205,1.08022 -5.43517,0.5028 z m 28.4122,0.0767 c -3.68718,-0.26399 -3.93356,-0.35838 -5.13662,-1.96796 l -1.26365,-1.69071 v -8.02149 c 0,-11.62987 0.28276,-11.9324 10.93901,-11.7042 l 6.76598,0.14498 v 3.13557 3.13556 l -5.54188,0.14596 -5.54189,0.14597 -0.29609,1.61169 c -0.16291,0.88645 -0.16158,3.11364 0.006,4.94931 l 0.29904,3.33762 4.66465,0.008 c 6.58879,0.01 6.63192,0.0324 6.63192,3.41982 0,1.53038 -0.19995,2.93017 -0.44424,3.11069 -0.60933,0.45018 -6.39363,0.57554 -11.07906,0.2401 z m -257.548745,-37.5327 c -9.4346,-2.02331 -18.1841,-6.15527 -25.57385,-12.07736 -7.81351,-6.26164 -15.61097,-17.00656 -20.09388,-27.68943 -1.70724,-4.06843 -4.38708,-12.8222 -4.38708,-14.33056 0,-0.77664 1.89825,-0.85252 21.32898,-0.85252 23.46708,0 24.63363,-0.12937 28.29127,-3.13769 2.56715,-2.11143 3.98508,-4.2769 7.20805,-11.008158 1.50441,-3.142 2.85813,-5.70974 3.00824,-5.7061 0.1502,0.004 1.64999,2.85222 3.33308,6.33016 3.43072,7.089388 6.29833,10.715248 9.71132,12.279148 1.91093,0.87564 4.0123,0.97284 24.27788,1.12307 25.17359,0.18661 22.81081,-0.36047 21.32745,4.93806 -0.46027,1.64417 -1.16041,3.87826 -1.55575,4.96464 -0.39539,1.08639 -1.01772,2.79832 -1.38295,3.80431 -1.87989,5.1778 -7.22947,14.46252 -11.34287,19.6867 -8.33411,10.58454 -20.83848,18.61325 -33.34851,21.41215 -5.50132,1.23082 -15.68924,1.35991 -20.80138,0.26358 z m 18.34002,-18.69718 c 6.27636,-1.42805 13.20982,-4.888 17.88591,-8.92546 5.2574,-4.53937 13.78572,-16.05599 12.78006,-17.25816 -0.16645,-0.19899 -3.13997,-0.35465 -6.60781,-0.34591 l -6.30518,0.0158 -2.55534,2.91374 c -4.17719,4.76301 -9.31058,8.14871 -15.3955,10.15398 -4.01442,1.32292 -13.07668,1.30629 -17.26404,-0.0317 -5.87116,-1.87605 -11.07731,-5.37471 -15.31814,-10.29423 l -2.19956,-2.55154 h -6.65294 c -3.65912,0 -6.65295,0.13049 -6.65295,0.28998 0,0.77589 3.71032,6.65978 6.33049,10.03902 3.48509,4.4947 10.33407,10.1557 15.24184,12.5981 8.74193,4.3505 17.5805,5.47424 26.71316,3.39631 z m -70.43589,-54.846308 c -0.41004,-1.27737 0.22286,-9.37088 1.14132,-14.59507 3.33771,-18.98507 12.88772,-35.74615 26.52085,-46.54641 11.16226,-8.84284 25.26793,-13.06773 39.11421,-11.71537 22.48675,2.19625 42.09783,18.71295 51.22865,43.14544 3.23128,8.64637 5.05341,17.6218 5.24457,25.83348 l 0.10343,4.44205 -21.70475,0.1355 -21.70483,0.1355 -1.96202,-4.05495 c -1.07913,-2.23022 -2.45343,-5.11321 -3.05403,-6.40663 -2.98421,-6.42655 -3.70896,-7.73873 -5.3734,-9.72891 -4.62206,-5.5266 -12.65545,-4.93491 -16.69774,1.22985 -0.70924,1.08165 -1.53772,2.55456 -1.84102,3.27312 -0.30335,0.71857 -2.12578,4.54004 -4.04987,8.49216 l -3.49834,7.18566 h -21.60097 c -19.2806,0 -21.62947,-0.0887 -21.86596,-0.82541 z m 27.83349,-10.16592 c 0,-1.23392 2.73899,-8.90119 4.02685,-11.27237 3.3329,-6.13646 8.91626,-12.33912 13.7542,-15.27984 7.68018,-4.66834 17.76546,-5.75826 26.37212,-2.85004 6.16474,2.0831 13.19461,7.88502 17.40276,14.36292 2.67864,4.12342 3.89236,6.7147 5.33863,11.39804 l 1.21036,3.91945 5.55123,0.14662 5.55119,0.14661 -0.31231,-2.237 c -0.38579,-2.76327 -2.13453,-8.68041 -3.59566,-12.16628 -7.78968,-18.5845 -23.94749,-30.57355 -41.20089,-30.57095 -13.73019,0.002 -27.68076,7.87816 -35.76608,20.19251 -1.48322,2.25902 -2.90779,4.40756 -3.16571,4.77454 -1.75231,2.49325 -5.48576,13.29247 -6.31855,18.2768 l -0.28377,1.69843 h 5.71781 c 3.63957,0 5.71782,-0.19607 5.71782,-0.53945 z"
       id="path1540"
       inkscape:connector-curvature="0" />
  </g>
</svg>
