<?xml version="1.0" encoding="UTF-8" standalone="no"?>
<!-- Created with Inkscape (http://www.inkscape.org/) -->

<svg
   width="123.81784mm"
   height="39.803692mm"
   viewBox="0 0 123.81785 39.803692"
   version="1.1"
   id="svg5"
   xml:space="preserve"
   inkscape:version="1.2.2 (732a01da63, 2022-12-09)"
   sodipodi:docname="User's Group.svg"
   xmlns:inkscape="http://www.inkscape.org/namespaces/inkscape"
   xmlns:sodipodi="http://sodipodi.sourceforge.net/DTD/sodipodi-0.dtd"
   xmlns="http://www.w3.org/2000/svg"
   xmlns:svg="http://www.w3.org/2000/svg"><sodipodi:namedview
     id="namedview7"
     pagecolor="#ffffff"
     bordercolor="#000000"
     borderopacity="0.25"
     inkscape:showpageshadow="2"
     inkscape:pageopacity="0.0"
     inkscape:pagecheckerboard="0"
     inkscape:deskcolor="#d1d1d1"
     inkscape:document-units="mm"
     showgrid="false"
     inkscape:zoom="1.4324916"
     inkscape:cx="188.13374"
     inkscape:cy="181.85098"
     inkscape:window-width="1920"
     inkscape:window-height="991"
     inkscape:window-x="-9"
     inkscape:window-y="-9"
     inkscape:window-maximized="1"
     inkscape:current-layer="layer1" /><defs
     id="defs2" /><g
     inkscape:label="Layer 1"
     inkscape:groupmode="layer"
     id="layer1"
     transform="translate(-374.34986,-189.6843)"><path
       style="fill:#000000;stroke-width:1"
       d="m 392.8075,229.04436 c -1.22153,-0.22684 -2.28893,-0.48041 -2.372,-0.56348 -0.0831,-0.0831 -0.21744,-0.94731 -0.2986,-1.92053 -0.13981,-1.67642 -0.12638,-1.76288 0.25532,-1.64375 0.93911,0.2931 3.51867,0.55031 5.55818,0.55421 3.25134,0.006 5.74556,-0.72918 5.74556,-1.69402 0,-0.50459 0.0326,-0.50339 -2.03846,-0.0751 -1.82877,0.3782 -5.02446,0.31065 -6.53404,-0.13811 -0.52464,-0.15596 -1.26044,-0.66552 -1.93454,-1.33973 -1.42986,-1.43009 -2.00118,-3.14437 -2.02364,-6.07212 -0.0179,-2.33781 0.34115,-3.40412 1.62493,-4.8251 2.18135,-2.4145 6.62627,-2.95104 10.10089,-1.21928 l 1.41764,0.70656 0.064,-0.76571 0.064,-0.76572 4.2077,-0.10583 c 3.01328,-0.0758 4.23358,-0.0381 4.29889,0.13267 0.0502,0.13117 0.0617,3.56017 0.0256,7.62 l -0.0656,7.3815 -0.635,1.2608 c -0.34925,0.69344 -0.97321,1.52818 -1.38658,1.85496 -2.28716,1.80812 -10.5638,2.6411 -16.07438,1.61776 z m 8.23542,-10.01587 c 1.65218,-0.85437 1.67391,-3.86584 0.0349,-4.83404 -1.87096,-1.10521 -3.83922,0.83302 -3.21186,3.16286 0.43823,1.62744 1.83785,2.36368 3.17699,1.67118 z m 74.80578,9.56307 c -0.0557,-0.0904 -0.15666,-4.63853 -0.22442,-10.10708 l -0.1232,-9.94281 h 4.16077 4.16077 v 0.52916 c 0,0.63153 0.26881,0.66651 1.02566,0.13348 1.67948,-1.18282 2.38495,-1.39685 4.58351,-1.39057 4.47494,0.0128 7.26455,1.69209 8.23406,4.95679 1.06796,3.59619 0.38653,7.61146 -1.61724,9.52944 -2.14931,2.05728 -6.34552,2.89921 -9.50838,1.90776 -0.73798,-0.23133 -1.44957,-0.42183 -1.58132,-0.42333 -0.1497,-0.002 -0.29216,0.69191 -0.37981,1.84935 -0.0772,1.01865 -0.19038,2.11016 -0.25164,2.42559 l -0.11137,0.57351 -4.13309,0.0615 c -2.2732,0.0338 -4.17864,-0.0124 -4.2343,-0.10278 z m 11.92001,-9.1776 c 1.25554,-0.5958 1.70318,-2.19835 1.05044,-3.76059 -0.38035,-0.9103 -1.08841,-1.3967 -2.03319,-1.3967 -0.94479,0 -1.65285,0.4864 -2.0332,1.3967 -0.59046,1.41317 -0.14399,3.19408 0.94978,3.78848 0.72977,0.39659 1.18458,0.39045 2.06617,-0.0279 z m -26.65303,6.24817 c -2.48144,-0.32257 -5.74887,-1.67409 -7.08496,-2.93058 -1.34647,-1.26625 -1.73635,-3.59989 -1.74299,-10.4328 l -0.003,-3.54542 h 4.41231 4.41231 l 0.14851,4.68924 c 0.087,2.74832 0.2463,4.87288 0.38476,5.13292 0.35151,0.66011 0.83282,0.95938 1.54294,0.95938 0.34925,0 0.78613,-0.11603 0.97085,-0.25785 0.82011,-0.62966 0.88792,-1.13239 0.80384,-5.95916 l -0.0813,-4.67036 4.49791,-0.0571 4.49792,-0.0571 v 5.49712 c 0,6.52245 -0.13584,7.42484 -1.27675,8.4813 -2.52672,2.33969 -7.41048,3.67972 -11.48186,3.15046 z m -23.85972,-0.27852 c -1.98792,-0.41861 -4.38099,-1.60031 -5.54282,-2.73705 -1.94336,-1.9014 -2.97073,-5.08333 -2.52085,-7.80748 0.32687,-1.97926 0.79451,-2.9846 2.01826,-4.33891 1.48204,-1.64018 3.40667,-2.49129 6.57176,-2.9062 5.03927,-0.66059 9.41607,0.41888 11.61505,2.86467 1.7285,1.92251 2.33198,3.69952 2.21384,6.51894 -0.0683,1.62977 -0.19639,2.28183 -0.63507,3.23259 -1.00452,2.17708 -3.40877,3.98015 -6.48082,4.86031 -1.87926,0.53841 -5.43847,0.69237 -7.23935,0.31313 z m 3.64162,-6.26708 c 1.17913,-0.32748 1.65004,-1.06416 1.65004,-2.58124 0,-1.1537 -0.0621,-1.3247 -0.71966,-1.98229 -0.55911,-0.5591 -0.8944,-0.71967 -1.50284,-0.71967 -0.60843,0 -0.94373,0.16057 -1.50283,0.71967 -0.65758,0.65759 -0.71967,0.82859 -0.71967,1.98229 0,1.35654 0.45635,2.23198 1.35216,2.59393 0.58764,0.23743 0.54072,0.23785 1.4428,-0.0127 z m -27.84947,4.94736 c -0.18957,-1.38304 -0.16695,-14.88716 0.0249,-14.88751 0.0873,-1.6e-4 1.9685,-0.024 4.18042,-0.0529 l 4.02166,-0.0526 0.0635,1.21709 c 0.0349,0.66939 0.1147,1.21708 0.17729,1.21708 0.0626,0 0.51028,-0.43018 0.99486,-0.95596 0.74016,-0.8031 1.06507,-0.98958 2.03191,-1.1662 1.25214,-0.22874 2.99114,-0.0813 3.50161,0.29683 0.27694,0.20516 0.29928,0.77045 0.16261,4.11543 l -0.15842,3.8776 -2.11667,0.0523 c -1.29851,0.0321 -2.36212,0.16957 -2.75167,0.35573 -0.99213,0.47413 -1.40562,1.58108 -1.5346,4.10835 -0.0615,1.20573 -0.17005,2.28105 -0.24114,2.3896 -0.0711,0.10855 -1.95023,0.2568 -4.17586,0.32945 l -4.04659,0.13209 z m -29.58462,-17.25525 c -2.80705,-0.20026 -6.08709,-1.30129 -7.45525,-2.50255 -1.35759,-1.19198 -1.47705,-1.78879 -1.57278,-7.85786 l -0.0856,-5.42594 2.30896,-0.15084 c 1.26993,-0.083 3.27912,-0.11779 4.46487,-0.0774 l 2.15591,0.0734 0.0108,1.37583 c 0.0444,5.65597 0.16952,8.64509 0.37822,9.03504 0.32623,0.60956 1.35859,0.94661 2.10377,0.68684 1.13229,-0.39472 1.20367,-0.72528 1.31856,-6.10634 l 0.10583,-4.95696 4.29514,-0.0926 4.29513,-0.0926 -0.0715,5.89627 c -0.0676,5.57439 -0.0967,5.94441 -0.53326,6.77804 -0.70784,1.35169 -1.95168,2.11302 -4.6208,2.82829 -2.13808,0.57296 -4.53667,0.77214 -7.098,0.58942 z m 79.19247,-0.0881 c -3.55712,-0.36816 -5.10717,-0.60479 -5.26038,-0.80304 -0.16482,-0.21328 -0.6947,-3.97444 -0.577,-4.09575 0.028,-0.0289 1.80527,0.10501 3.94954,0.29745 4.06741,0.36503 5.84134,0.28475 6.05577,-0.27406 0.22318,-0.5816 -0.2483,-0.70542 -3.11412,-0.8178 -3.71808,-0.1458 -5.08028,-0.52265 -6.30071,-1.74308 -1.16151,-1.16151 -1.52644,-2.03512 -1.52644,-3.65424 0,-2.80377 1.49825,-4.47382 4.55755,-5.08018 2.21235,-0.43849 8.34463,-0.51106 11.38194,-0.13469 1.49067,0.18472 2.78641,0.38288 2.87942,0.44036 0.17697,0.10937 -0.0306,1.83587 -0.42885,3.56689 l -0.23349,1.01488 -0.8762,-0.10806 c -1.74111,-0.21472 -3.66537,-0.34199 -5.58702,-0.36951 -1.62834,-0.0233 -2.03154,0.0374 -2.38784,0.35989 -0.3702,0.33503 -0.3877,0.42894 -0.12829,0.68835 0.22258,0.22258 1.22823,0.33869 3.88211,0.44823 3.18887,0.13161 3.66576,0.19976 4.34793,0.62137 1.13242,0.69987 1.85567,2.28123 1.84976,4.04445 -0.007,2.19776 -0.97806,3.79276 -2.76166,4.53781 -1.5706,0.65607 -7.44218,1.29669 -9.72202,1.06073 z m -58.20834,-0.23123 c -0.52387,-0.031 -2.17116,-0.21524 -3.66064,-0.40933 -2.01586,-0.26269 -2.75272,-0.43954 -2.88252,-0.69184 -0.0959,-0.18643 -0.24047,-1.1841 -0.32126,-2.21707 l -0.14688,-1.87811 1.1244,0.1383 c 1.2928,0.15902 6.31274,0.53341 7.2752,0.54259 0.3561,0.003 0.83235,-0.13088 1.05833,-0.29839 0.38832,-0.28784 0.39094,-0.3248 0.0478,-0.67305 -0.30525,-0.30978 -0.84408,-0.37786 -3.38167,-0.42728 -2.83474,-0.0552 -3.08977,-0.0951 -4.18773,-0.6559 -3.22733,-1.64829 -3.57293,-6.50811 -0.63234,-8.89209 1.29667,-1.05123 5.08534,-1.5239 10.25819,-1.27979 2.98868,0.14103 6.30491,0.58119 6.59968,0.87596 0.0728,0.0728 -0.003,1.0624 -0.16872,2.19912 l -0.30107,2.06676 -4.1335,-0.0807 c -2.27342,-0.0444 -4.34321,-0.0142 -4.59953,0.0672 -0.26848,0.0852 -0.46603,0.32131 -0.46603,0.55698 0,0.45672 0.22982,0.50014 2.23118,0.42151 1.51736,-0.0596 4.95665,0.49766 5.81694,0.94253 1.68118,0.86937 2.61462,3.78207 1.82086,5.6818 -0.40436,0.96777 -1.50807,2.17332 -2.54734,2.78237 -1.2694,0.74392 -5.9524,1.39742 -8.80331,1.22848 z m 19.79084,-0.15144 c -2.51294,-0.41591 -3.31519,-0.68133 -4.57483,-1.51354 -1.33616,-0.88277 -2.11576,-1.90452 -2.57399,-3.37348 -0.52762,-1.69138 -0.59845,-2.48396 -0.36748,-4.11247 0.70394,-4.96346 4.47453,-7.4497 11.3263,-7.4683 7.08694,-0.0192 10.04964,2.18785 10.58347,7.88423 0.17646,1.88292 -0.0848,2.5331 -0.99823,2.48417 -0.38239,-0.0205 -3.00506,-0.018 -5.82816,0.005 l -5.13292,0.0427 v 0.51404 c 0,0.28273 0.16292,0.67697 0.36204,0.87609 0.31956,0.31956 0.71078,0.34792 3.33375,0.24165 1.63444,-0.0662 4.10584,-0.31852 5.49199,-0.56067 1.38616,-0.24215 2.5617,-0.39886 2.61232,-0.34824 0.0506,0.0506 -0.32837,1.073 -0.8422,2.27194 -1.04095,2.4289 -0.72569,2.19256 -3.76123,2.81967 -2.1056,0.43499 -7.61467,0.57039 -9.63083,0.2367 z m 6.71982,-10.49618 c -0.0846,-0.83621 -1.17593,-1.69334 -2.15609,-1.69334 -1.3111,0 -2.90153,1.62423 -2.0993,2.14393 0.15798,0.10234 1.19211,0.16189 2.29807,0.13233 2.00554,-0.0536 2.01069,-0.0551 1.95732,-0.58292 z m 9.00972,8.41806 c -0.0451,-1.07922 -0.10889,-4.5428 -0.14167,-7.69683 l -0.0596,-5.73461 2.58784,-0.13914 c 1.42332,-0.0765 3.18183,-0.13915 3.90781,-0.13915 1.43158,0 1.57691,0.11864 1.57691,1.28731 0,0.33973 0.0568,0.61769 0.12627,0.61769 0.0694,0 0.55901,-0.38091 1.08791,-0.84647 0.52891,-0.46556 1.34678,-0.95018 1.8175,-1.07694 1.19695,-0.3223 4.09147,-0.0551 4.26365,0.39355 0.14922,0.38885 0.12689,6.71426 -0.026,7.37368 -0.0943,0.40645 -0.28908,0.45655 -2.18078,0.56079 -3.80186,0.20949 -4.34465,0.79742 -4.34649,4.70789 l -10e-4,2.54 -4.26503,0.0572 -4.26503,0.0572 -0.0821,-1.96223 z"
       id="path234" /></g></svg>
