M48
; DRILL file {KiCad (5.1.9)-1} date 08/27/22 22:21:43
; FORMAT={-:-/ absolute / metric / decimal}
; #@! TF.CreationDate,2022-08-27T22:21:43+05:30
; #@! TF.GenerationSoftware,Kicad,Pcbnew,(5.1.9)-1
FMAT,2
METRIC
T1C1.000
%
G90
G05
T1
X58.42Y-60.96
X58.42Y-63.5
X58.42Y-66.04
X58.42Y-68.58
X58.42Y-71.12
X58.42Y-73.66
X58.42Y-76.2
X58.42Y-78.74
X58.42Y-81.28
X58.42Y-83.82
X58.42Y-86.36
X58.42Y-88.9
X58.42Y-91.44
X58.42Y-93.98
X58.42Y-96.52
X58.42Y-99.06
X58.42Y-101.6
X58.42Y-111.76
X58.42Y-114.3
X58.42Y-116.84
X58.42Y-119.38
X58.42Y-121.92
X58.42Y-124.46
X58.42Y-127.0
X58.42Y-129.54
X58.42Y-132.08
X58.42Y-134.62
X60.96Y-60.96
X60.96Y-63.5
X60.96Y-66.04
X60.96Y-68.58
X60.96Y-71.12
X60.96Y-73.66
X60.96Y-76.2
X60.96Y-78.74
X60.96Y-81.28
X60.96Y-83.82
X60.96Y-86.36
X60.96Y-88.9
X60.96Y-91.44
X60.96Y-93.98
X60.96Y-96.52
X60.96Y-99.06
X60.96Y-101.6
X60.96Y-111.76
X60.96Y-114.3
X60.96Y-116.84
X60.96Y-119.38
X60.96Y-121.92
X60.96Y-124.46
X60.96Y-127.0
X60.96Y-129.54
X60.96Y-132.08
X60.96Y-134.62
X73.66Y-60.96
X73.66Y-63.5
X73.66Y-66.04
X73.66Y-68.58
X73.66Y-71.12
X73.66Y-73.66
X73.66Y-76.2
X73.66Y-78.74
X73.66Y-81.28
X73.66Y-83.82
X73.66Y-86.36
X73.66Y-88.9
X73.66Y-91.44
X73.66Y-93.98
X73.66Y-96.52
X73.66Y-99.06
X73.66Y-101.6
X73.66Y-111.76
X73.66Y-114.3
X73.66Y-116.84
X73.66Y-119.38
X73.66Y-121.92
X73.66Y-124.46
X73.66Y-127.0
X73.66Y-129.54
X73.66Y-132.08
X73.66Y-134.62
X76.2Y-60.96
X76.2Y-63.5
X76.2Y-66.04
X76.2Y-68.58
X76.2Y-71.12
X76.2Y-73.66
X76.2Y-76.2
X76.2Y-78.74
X76.2Y-81.28
X76.2Y-83.82
X76.2Y-86.36
X76.2Y-88.9
X76.2Y-91.44
X76.2Y-93.98
X76.2Y-96.52
X76.2Y-99.06
X76.2Y-101.6
X76.2Y-111.76
X76.2Y-114.3
X76.2Y-116.84
X76.2Y-119.38
X76.2Y-121.92
X76.2Y-124.46
X76.2Y-127.0
X76.2Y-129.54
X76.2Y-132.08
X76.2Y-134.62
X87.63Y-60.96
X87.63Y-63.5
X87.63Y-66.04
X87.63Y-68.58
X87.63Y-71.12
X87.63Y-73.66
X87.63Y-76.2
X87.63Y-78.74
X87.63Y-81.28
X87.63Y-87.63
X87.63Y-90.17
X87.63Y-92.71
X87.63Y-95.25
X87.63Y-97.79
X87.63Y-100.33
X87.63Y-102.87
X87.63Y-105.41
X87.63Y-111.76
X87.63Y-114.3
X87.63Y-116.84
X87.63Y-119.38
X87.63Y-121.92
X87.63Y-124.46
X87.63Y-127.0
X87.63Y-129.54
X87.63Y-132.08
X87.63Y-134.62
X95.25Y-60.96
X95.25Y-63.5
X95.25Y-66.04
X95.25Y-68.58
X95.25Y-71.12
X95.25Y-73.66
X95.25Y-76.2
X95.25Y-78.74
X95.25Y-81.28
X95.25Y-87.63
X95.25Y-90.17
X95.25Y-92.71
X95.25Y-95.25
X95.25Y-97.79
X95.25Y-100.33
X95.25Y-102.87
X95.25Y-105.41
X95.25Y-111.76
X95.25Y-114.3
X95.25Y-116.84
X95.25Y-119.38
X95.25Y-121.92
X95.25Y-124.46
X95.25Y-127.0
X95.25Y-129.54
X95.25Y-132.08
X95.25Y-134.62
X100.33Y-60.96
X100.33Y-63.5
X100.33Y-66.04
X100.33Y-68.58
X100.33Y-71.12
X100.33Y-73.66
X100.33Y-76.2
X100.33Y-78.74
X100.33Y-81.28
X100.33Y-87.63
X100.33Y-90.17
X100.33Y-92.71
X100.33Y-95.25
X100.33Y-97.79
X100.33Y-100.33
X100.33Y-102.87
X100.33Y-105.41
X100.33Y-111.76
X100.33Y-114.3
X100.33Y-116.84
X100.33Y-119.38
X100.33Y-121.92
X100.33Y-124.46
X100.33Y-127.0
X100.33Y-129.54
X100.33Y-132.08
X100.33Y-134.62
X107.95Y-60.96
X107.95Y-63.5
X107.95Y-66.04
X107.95Y-68.58
X107.95Y-71.12
X107.95Y-73.66
X107.95Y-76.2
X107.95Y-78.74
X107.95Y-81.28
X107.95Y-87.63
X107.95Y-90.17
X107.95Y-92.71
X107.95Y-95.25
X107.95Y-97.79
X107.95Y-100.33
X107.95Y-102.87
X107.95Y-105.41
X107.95Y-111.76
X107.95Y-114.3
X107.95Y-116.84
X107.95Y-119.38
X107.95Y-121.92
X107.95Y-124.46
X107.95Y-127.0
X107.95Y-129.54
X107.95Y-132.08
X107.95Y-134.62
X119.38Y-60.96
X119.38Y-63.5
X119.38Y-66.04
X119.38Y-68.58
X119.38Y-71.12
X119.38Y-73.66
X119.38Y-76.2
X119.38Y-78.74
X119.38Y-81.28
X119.38Y-83.82
X119.38Y-86.36
X119.38Y-88.9
X119.38Y-91.44
X119.38Y-93.98
X119.38Y-96.52
X119.38Y-99.06
X119.38Y-101.6
X119.38Y-111.76
X119.38Y-114.3
X119.38Y-116.84
X119.38Y-119.38
X119.38Y-121.92
X119.38Y-124.46
X119.38Y-127.0
X119.38Y-129.54
X119.38Y-132.08
X119.38Y-134.62
X121.92Y-60.96
X121.92Y-63.5
X121.92Y-66.04
X121.92Y-68.58
X121.92Y-71.12
X121.92Y-73.66
X121.92Y-76.2
X121.92Y-78.74
X121.92Y-81.28
X121.92Y-83.82
X121.92Y-86.36
X121.92Y-88.9
X121.92Y-91.44
X121.92Y-93.98
X121.92Y-96.52
X121.92Y-99.06
X121.92Y-101.6
X121.92Y-111.76
X121.92Y-114.3
X121.92Y-116.84
X121.92Y-119.38
X121.92Y-121.92
X121.92Y-124.46
X121.92Y-127.0
X121.92Y-129.54
X121.92Y-132.08
X121.92Y-134.62
X134.62Y-60.96
X134.62Y-63.5
X134.62Y-66.04
X134.62Y-68.58
X134.62Y-71.12
X134.62Y-73.66
X134.62Y-76.2
X134.62Y-78.74
X134.62Y-81.28
X134.62Y-83.82
X134.62Y-86.36
X134.62Y-88.9
X134.62Y-91.44
X134.62Y-93.98
X134.62Y-96.52
X134.62Y-99.06
X134.62Y-101.6
X134.62Y-111.76
X134.62Y-114.3
X134.62Y-116.84
X134.62Y-119.38
X134.62Y-121.92
X134.62Y-124.46
X134.62Y-127.0
X134.62Y-129.54
X134.62Y-132.08
X134.62Y-134.62
X137.16Y-60.96
X137.16Y-63.5
X137.16Y-66.04
X137.16Y-68.58
X137.16Y-71.12
X137.16Y-73.66
X137.16Y-76.2
X137.16Y-78.74
X137.16Y-81.28
X137.16Y-83.82
X137.16Y-86.36
X137.16Y-88.9
X137.16Y-91.44
X137.16Y-93.98
X137.16Y-96.52
X137.16Y-99.06
X137.16Y-101.6
X137.16Y-111.76
X137.16Y-114.3
X137.16Y-116.84
X137.16Y-119.38
X137.16Y-121.92
X137.16Y-124.46
X137.16Y-127.0
X137.16Y-129.54
X137.16Y-132.08
X137.16Y-134.62
X160.02Y-73.66
X160.02Y-76.2
X160.02Y-78.74
X160.02Y-81.28
X160.02Y-83.82
X160.02Y-86.36
X160.02Y-88.9
X160.02Y-91.44
X160.02Y-93.98
X160.02Y-96.52
X160.02Y-99.06
X160.02Y-101.6
X160.02Y-104.14
X160.02Y-106.68
X160.02Y-109.22
X160.02Y-111.76
X160.02Y-114.3
X160.02Y-116.84
X160.02Y-119.38
X160.02Y-121.92
X160.02Y-124.46
X160.02Y-127.0
X160.02Y-129.54
X160.02Y-132.08
X160.02Y-134.62
X162.56Y-73.66
X162.56Y-76.2
X162.56Y-78.74
X162.56Y-81.28
X162.56Y-83.82
X162.56Y-86.36
X162.56Y-88.9
X162.56Y-91.44
X162.56Y-93.98
X162.56Y-96.52
X162.56Y-99.06
X162.56Y-101.6
X162.56Y-104.14
X162.56Y-106.68
X162.56Y-109.22
X162.56Y-111.76
X162.56Y-114.3
X162.56Y-116.84
X162.56Y-119.38
X162.56Y-121.92
X162.56Y-124.46
X162.56Y-127.0
X162.56Y-129.54
X162.56Y-132.08
X162.56Y-134.62
X175.26Y-73.66
X175.26Y-76.2
X175.26Y-78.74
X175.26Y-81.28
X175.26Y-83.82
X175.26Y-86.36
X175.26Y-88.9
X175.26Y-91.44
X175.26Y-93.98
X175.26Y-96.52
X175.26Y-99.06
X175.26Y-101.6
X175.26Y-104.14
X175.26Y-106.68
X175.26Y-109.22
X175.26Y-111.76
X175.26Y-114.3
X175.26Y-116.84
X175.26Y-119.38
X175.26Y-121.92
X175.26Y-124.46
X175.26Y-127.0
X175.26Y-129.54
X175.26Y-132.08
X175.26Y-134.62
X177.8Y-73.66
X177.8Y-76.2
X177.8Y-78.74
X177.8Y-81.28
X177.8Y-83.82
X177.8Y-86.36
X177.8Y-88.9
X177.8Y-91.44
X177.8Y-93.98
X177.8Y-96.52
X177.8Y-99.06
X177.8Y-101.6
X177.8Y-104.14
X177.8Y-106.68
X177.8Y-109.22
X177.8Y-111.76
X177.8Y-114.3
X177.8Y-116.84
X177.8Y-119.38
X177.8Y-121.92
X177.8Y-124.46
X177.8Y-127.0
X177.8Y-129.54
X177.8Y-132.08
X177.8Y-134.62
X189.23Y-60.96
X189.23Y-63.5
X189.23Y-66.04
X189.23Y-68.58
X189.23Y-71.12
X189.23Y-73.66
X189.23Y-76.2
X189.23Y-82.55
X189.23Y-85.09
X189.23Y-87.63
X189.23Y-90.17
X189.23Y-92.71
X189.23Y-95.25
X189.23Y-101.6
X189.23Y-104.14
X189.23Y-106.68
X189.23Y-109.22
X189.23Y-111.76
X189.23Y-118.11
X189.23Y-120.65
X189.23Y-123.19
X189.23Y-125.73
X189.23Y-132.08
X189.23Y-134.62
X189.23Y-137.16
X196.85Y-60.96
X196.85Y-63.5
X196.85Y-66.04
X196.85Y-68.58
X196.85Y-71.12
X196.85Y-73.66
X196.85Y-76.2
X196.85Y-82.55
X196.85Y-85.09
X196.85Y-87.63
X196.85Y-90.17
X196.85Y-92.71
X196.85Y-95.25
X196.85Y-101.6
X196.85Y-104.14
X196.85Y-106.68
X196.85Y-109.22
X196.85Y-111.76
X196.85Y-118.11
X196.85Y-120.65
X196.85Y-123.19
X196.85Y-125.73
X196.85Y-132.08
X196.85Y-134.62
X196.85Y-137.16
X201.93Y-60.96
X201.93Y-63.5
X201.93Y-66.04
X201.93Y-68.58
X201.93Y-71.12
X201.93Y-73.66
X201.93Y-76.2
X201.93Y-82.55
X201.93Y-85.09
X201.93Y-87.63
X201.93Y-90.17
X201.93Y-92.71
X201.93Y-95.25
X201.93Y-101.6
X201.93Y-104.14
X201.93Y-106.68
X201.93Y-109.22
X201.93Y-111.76
X201.93Y-118.11
X201.93Y-120.65
X201.93Y-123.19
X201.93Y-125.73
X201.93Y-132.08
X201.93Y-134.62
X201.93Y-137.16
X209.55Y-60.96
X209.55Y-63.5
X209.55Y-66.04
X209.55Y-68.58
X209.55Y-71.12
X209.55Y-73.66
X209.55Y-76.2
X209.55Y-82.55
X209.55Y-85.09
X209.55Y-87.63
X209.55Y-90.17
X209.55Y-92.71
X209.55Y-95.25
X209.55Y-101.6
X209.55Y-104.14
X209.55Y-106.68
X209.55Y-109.22
X209.55Y-111.76
X209.55Y-118.11
X209.55Y-120.65
X209.55Y-123.19
X209.55Y-125.73
X209.55Y-132.08
X209.55Y-134.62
X209.55Y-137.16
X220.98Y-73.66
X220.98Y-76.2
X220.98Y-78.74
X220.98Y-81.28
X220.98Y-83.82
X220.98Y-86.36
X220.98Y-88.9
X220.98Y-91.44
X220.98Y-93.98
X220.98Y-96.52
X220.98Y-99.06
X220.98Y-101.6
X220.98Y-104.14
X220.98Y-106.68
X220.98Y-109.22
X220.98Y-111.76
X220.98Y-114.3
X220.98Y-116.84
X220.98Y-119.38
X220.98Y-121.92
X220.98Y-124.46
X220.98Y-127.0
X220.98Y-129.54
X220.98Y-132.08
X220.98Y-134.62
X223.52Y-73.66
X223.52Y-76.2
X223.52Y-78.74
X223.52Y-81.28
X223.52Y-83.82
X223.52Y-86.36
X223.52Y-88.9
X223.52Y-91.44
X223.52Y-93.98
X223.52Y-96.52
X223.52Y-99.06
X223.52Y-101.6
X223.52Y-104.14
X223.52Y-106.68
X223.52Y-109.22
X223.52Y-111.76
X223.52Y-114.3
X223.52Y-116.84
X223.52Y-119.38
X223.52Y-121.92
X223.52Y-124.46
X223.52Y-127.0
X223.52Y-129.54
X223.52Y-132.08
X223.52Y-134.62
X236.22Y-73.66
X236.22Y-76.2
X236.22Y-78.74
X236.22Y-81.28
X236.22Y-83.82
X236.22Y-86.36
X236.22Y-88.9
X236.22Y-91.44
X236.22Y-93.98
X236.22Y-96.52
X236.22Y-99.06
X236.22Y-101.6
X236.22Y-104.14
X236.22Y-106.68
X236.22Y-109.22
X236.22Y-111.76
X236.22Y-114.3
X236.22Y-116.84
X236.22Y-119.38
X236.22Y-121.92
X236.22Y-124.46
X236.22Y-127.0
X236.22Y-129.54
X236.22Y-132.08
X236.22Y-134.62
X238.76Y-73.66
X238.76Y-76.2
X238.76Y-78.74
X238.76Y-81.28
X238.76Y-83.82
X238.76Y-86.36
X238.76Y-88.9
X238.76Y-91.44
X238.76Y-93.98
X238.76Y-96.52
X238.76Y-99.06
X238.76Y-101.6
X238.76Y-104.14
X238.76Y-106.68
X238.76Y-109.22
X238.76Y-111.76
X238.76Y-114.3
X238.76Y-116.84
X238.76Y-119.38
X238.76Y-121.92
X238.76Y-124.46
X238.76Y-127.0
X238.76Y-129.54
X238.76Y-132.08
X238.76Y-134.62
T0
M30
