%TF.GenerationSoftware,KiCad,Pcbnew,7.0.9*%
%TF.CreationDate,2024-04-03T05:19:41-05:00*%
%TF.ProjectId,MFM_ST506 Breakout Board,4d464d5f-5354-4353-9036-20427265616b,rev?*%
%TF.SameCoordinates,Original*%
%TF.FileFunction,Soldermask,Bot*%
%TF.FilePolarity,Negative*%
%FSLAX46Y46*%
G04 Gerber Fmt 4.6, Leading zero omitted, Abs format (unit mm)*
G04 Created by KiCad (PCBNEW 7.0.9) date 2024-04-03 05:19:41*
%MOMM*%
%LPD*%
G01*
G04 APERTURE LIST*
%ADD10C,1.700000*%
%ADD11O,1.700000X1.700000*%
G04 APERTURE END LIST*
D10*
%TO.C,J1*%
X58420000Y-111760000D03*
D11*
X60960000Y-111760000D03*
X58420000Y-114300000D03*
X60960000Y-114300000D03*
X58420000Y-116840000D03*
X60960000Y-116840000D03*
X58420000Y-119380000D03*
X60960000Y-119380000D03*
X58420000Y-121920000D03*
X60960000Y-121920000D03*
X58420000Y-124460000D03*
X60960000Y-124460000D03*
X58420000Y-127000000D03*
X60960000Y-127000000D03*
X58420000Y-129540000D03*
X60960000Y-129540000D03*
X58420000Y-132080000D03*
X60960000Y-132080000D03*
X58420000Y-134620000D03*
X60960000Y-134620000D03*
%TD*%
D10*
%TO.C,J2*%
X73660000Y-111760000D03*
D11*
X76200000Y-111760000D03*
X73660000Y-114300000D03*
X76200000Y-114300000D03*
X73660000Y-116840000D03*
X76200000Y-116840000D03*
X73660000Y-119380000D03*
X76200000Y-119380000D03*
X73660000Y-121920000D03*
X76200000Y-121920000D03*
X73660000Y-124460000D03*
X76200000Y-124460000D03*
X73660000Y-127000000D03*
X76200000Y-127000000D03*
X73660000Y-129540000D03*
X76200000Y-129540000D03*
X73660000Y-132080000D03*
X76200000Y-132080000D03*
X73660000Y-134620000D03*
X76200000Y-134620000D03*
%TD*%
D10*
%TO.C,J4*%
X119380000Y-111760000D03*
D11*
X121920000Y-111760000D03*
X119380000Y-114300000D03*
X121920000Y-114300000D03*
X119380000Y-116840000D03*
X121920000Y-116840000D03*
X119380000Y-119380000D03*
X121920000Y-119380000D03*
X119380000Y-121920000D03*
X121920000Y-121920000D03*
X119380000Y-124460000D03*
X121920000Y-124460000D03*
X119380000Y-127000000D03*
X121920000Y-127000000D03*
X119380000Y-129540000D03*
X121920000Y-129540000D03*
X119380000Y-132080000D03*
X121920000Y-132080000D03*
X119380000Y-134620000D03*
X121920000Y-134620000D03*
%TD*%
D10*
%TO.C,J3*%
X134620000Y-111760000D03*
D11*
X137160000Y-111760000D03*
X134620000Y-114300000D03*
X137160000Y-114300000D03*
X134620000Y-116840000D03*
X137160000Y-116840000D03*
X134620000Y-119380000D03*
X137160000Y-119380000D03*
X134620000Y-121920000D03*
X137160000Y-121920000D03*
X134620000Y-124460000D03*
X137160000Y-124460000D03*
X134620000Y-127000000D03*
X137160000Y-127000000D03*
X134620000Y-129540000D03*
X137160000Y-129540000D03*
X134620000Y-132080000D03*
X137160000Y-132080000D03*
X134620000Y-134620000D03*
X137160000Y-134620000D03*
%TD*%
D10*
%TO.C,J15*%
X87630000Y-111760000D03*
D11*
X87630000Y-114300000D03*
X87630000Y-116840000D03*
X87630000Y-119380000D03*
X87630000Y-121920000D03*
X87630000Y-124460000D03*
X87630000Y-127000000D03*
X87630000Y-129540000D03*
X87630000Y-132080000D03*
X87630000Y-134620000D03*
%TD*%
D10*
%TO.C,J17*%
X100330000Y-111760000D03*
D11*
X100330000Y-114300000D03*
X100330000Y-116840000D03*
X100330000Y-119380000D03*
X100330000Y-121920000D03*
X100330000Y-124460000D03*
X100330000Y-127000000D03*
X100330000Y-129540000D03*
X100330000Y-132080000D03*
X100330000Y-134620000D03*
%TD*%
D10*
%TO.C,J18*%
X107950000Y-111760000D03*
D11*
X107950000Y-114300000D03*
X107950000Y-116840000D03*
X107950000Y-119380000D03*
X107950000Y-121920000D03*
X107950000Y-124460000D03*
X107950000Y-127000000D03*
X107950000Y-129540000D03*
X107950000Y-132080000D03*
X107950000Y-134620000D03*
%TD*%
D10*
%TO.C,J11*%
X87630000Y-60960000D03*
D11*
X87630000Y-63500000D03*
X87630000Y-66040000D03*
X87630000Y-68580000D03*
X87630000Y-71120000D03*
X87630000Y-73660000D03*
X87630000Y-76200000D03*
X87630000Y-78740000D03*
X87630000Y-81280000D03*
%TD*%
D10*
%TO.C,J12*%
X95250000Y-60960000D03*
D11*
X95250000Y-63500000D03*
X95250000Y-66040000D03*
X95250000Y-68580000D03*
X95250000Y-71120000D03*
X95250000Y-73660000D03*
X95250000Y-76200000D03*
X95250000Y-78740000D03*
X95250000Y-81280000D03*
%TD*%
D10*
%TO.C,J13*%
X100330000Y-60960000D03*
D11*
X100330000Y-63500000D03*
X100330000Y-66040000D03*
X100330000Y-68580000D03*
X100330000Y-71120000D03*
X100330000Y-73660000D03*
X100330000Y-76200000D03*
X100330000Y-78740000D03*
X100330000Y-81280000D03*
%TD*%
D10*
%TO.C,J14*%
X107950000Y-60960000D03*
D11*
X107950000Y-63500000D03*
X107950000Y-66040000D03*
X107950000Y-68580000D03*
X107950000Y-71120000D03*
X107950000Y-73660000D03*
X107950000Y-76200000D03*
X107950000Y-78740000D03*
X107950000Y-81280000D03*
%TD*%
D10*
%TO.C,J27*%
X100330000Y-87630000D03*
D11*
X100330000Y-90170000D03*
X100330000Y-92710000D03*
X100330000Y-95250000D03*
X100330000Y-97790000D03*
X100330000Y-100330000D03*
X100330000Y-102870000D03*
X100330000Y-105410000D03*
%TD*%
D10*
%TO.C,J28*%
X107950000Y-87630000D03*
D11*
X107950000Y-90170000D03*
X107950000Y-92710000D03*
X107950000Y-95250000D03*
X107950000Y-97790000D03*
X107950000Y-100330000D03*
X107950000Y-102870000D03*
X107950000Y-105410000D03*
%TD*%
D10*
%TO.C,J26*%
X95250000Y-87630000D03*
D11*
X95250000Y-90170000D03*
X95250000Y-92710000D03*
X95250000Y-95250000D03*
X95250000Y-97790000D03*
X95250000Y-100330000D03*
X95250000Y-102870000D03*
X95250000Y-105410000D03*
%TD*%
D10*
%TO.C,J25*%
X87630000Y-87630000D03*
D11*
X87630000Y-90170000D03*
X87630000Y-92710000D03*
X87630000Y-95250000D03*
X87630000Y-97790000D03*
X87630000Y-100330000D03*
X87630000Y-102870000D03*
X87630000Y-105410000D03*
%TD*%
D10*
%TO.C,J16*%
X95250000Y-111760000D03*
D11*
X95250000Y-114300000D03*
X95250000Y-116840000D03*
X95250000Y-119380000D03*
X95250000Y-121920000D03*
X95250000Y-124460000D03*
X95250000Y-127000000D03*
X95250000Y-129540000D03*
X95250000Y-132080000D03*
X95250000Y-134620000D03*
%TD*%
D10*
%TO.C,J41*%
X201930000Y-60960000D03*
D11*
X201930000Y-63500000D03*
X201930000Y-66040000D03*
X201930000Y-68580000D03*
X201930000Y-71120000D03*
X201930000Y-73660000D03*
X201930000Y-76200000D03*
%TD*%
D10*
%TO.C,J42*%
X201930000Y-82550000D03*
D11*
X201930000Y-85090000D03*
X201930000Y-87630000D03*
X201930000Y-90170000D03*
X201930000Y-92710000D03*
X201930000Y-95250000D03*
%TD*%
D10*
%TO.C,J43*%
X201930000Y-101600000D03*
D11*
X201930000Y-104140000D03*
X201930000Y-106680000D03*
X201930000Y-109220000D03*
X201930000Y-111760000D03*
%TD*%
D10*
%TO.C,J44*%
X201930000Y-118110000D03*
D11*
X201930000Y-120650000D03*
X201930000Y-123190000D03*
X201930000Y-125730000D03*
%TD*%
D10*
%TO.C,J45*%
X201930000Y-132080000D03*
D11*
X201930000Y-134620000D03*
X201930000Y-137160000D03*
%TD*%
D10*
%TO.C,J7*%
X58420000Y-60960000D03*
D11*
X60960000Y-60960000D03*
X58420000Y-63500000D03*
X60960000Y-63500000D03*
X58420000Y-66040000D03*
X60960000Y-66040000D03*
X58420000Y-68580000D03*
X60960000Y-68580000D03*
X58420000Y-71120000D03*
X60960000Y-71120000D03*
X58420000Y-73660000D03*
X60960000Y-73660000D03*
X58420000Y-76200000D03*
X60960000Y-76200000D03*
X58420000Y-78740000D03*
X60960000Y-78740000D03*
X58420000Y-81280000D03*
X60960000Y-81280000D03*
X58420000Y-83820000D03*
X60960000Y-83820000D03*
X58420000Y-86360000D03*
X60960000Y-86360000D03*
X58420000Y-88900000D03*
X60960000Y-88900000D03*
X58420000Y-91440000D03*
X60960000Y-91440000D03*
X58420000Y-93980000D03*
X60960000Y-93980000D03*
X58420000Y-96520000D03*
X60960000Y-96520000D03*
X58420000Y-99060000D03*
X60960000Y-99060000D03*
X58420000Y-101600000D03*
X60960000Y-101600000D03*
%TD*%
D10*
%TO.C,J19*%
X189230000Y-60960000D03*
D11*
X189230000Y-63500000D03*
X189230000Y-66040000D03*
X189230000Y-68580000D03*
X189230000Y-71120000D03*
X189230000Y-73660000D03*
X189230000Y-76200000D03*
%TD*%
D10*
%TO.C,J21*%
X189230000Y-82550000D03*
D11*
X189230000Y-85090000D03*
X189230000Y-87630000D03*
X189230000Y-90170000D03*
X189230000Y-92710000D03*
X189230000Y-95250000D03*
%TD*%
D10*
%TO.C,J46*%
X189230000Y-101600000D03*
D11*
X189230000Y-104140000D03*
X189230000Y-106680000D03*
X189230000Y-109220000D03*
X189230000Y-111760000D03*
%TD*%
D10*
%TO.C,J47*%
X189230000Y-118110000D03*
D11*
X189230000Y-120650000D03*
X189230000Y-123190000D03*
X189230000Y-125730000D03*
%TD*%
D10*
%TO.C,J48*%
X189230000Y-132080000D03*
D11*
X189230000Y-134620000D03*
X189230000Y-137160000D03*
%TD*%
D10*
%TO.C,J20*%
X196850000Y-60960000D03*
D11*
X196850000Y-63500000D03*
X196850000Y-66040000D03*
X196850000Y-68580000D03*
X196850000Y-71120000D03*
X196850000Y-73660000D03*
X196850000Y-76200000D03*
%TD*%
D10*
%TO.C,J49*%
X196850000Y-82550000D03*
D11*
X196850000Y-85090000D03*
X196850000Y-87630000D03*
X196850000Y-90170000D03*
X196850000Y-92710000D03*
X196850000Y-95250000D03*
%TD*%
D10*
%TO.C,J50*%
X196850000Y-101600000D03*
D11*
X196850000Y-104140000D03*
X196850000Y-106680000D03*
X196850000Y-109220000D03*
X196850000Y-111760000D03*
%TD*%
D10*
%TO.C,J51*%
X196850000Y-118110000D03*
D11*
X196850000Y-120650000D03*
X196850000Y-123190000D03*
X196850000Y-125730000D03*
%TD*%
D10*
%TO.C,J52*%
X196850000Y-132080000D03*
D11*
X196850000Y-134620000D03*
X196850000Y-137160000D03*
%TD*%
D10*
%TO.C,J22*%
X209550000Y-60960000D03*
D11*
X209550000Y-63500000D03*
X209550000Y-66040000D03*
X209550000Y-68580000D03*
X209550000Y-71120000D03*
X209550000Y-73660000D03*
X209550000Y-76200000D03*
%TD*%
D10*
%TO.C,J53*%
X209550000Y-82550000D03*
D11*
X209550000Y-85090000D03*
X209550000Y-87630000D03*
X209550000Y-90170000D03*
X209550000Y-92710000D03*
X209550000Y-95250000D03*
%TD*%
D10*
%TO.C,J54*%
X209550000Y-101600000D03*
D11*
X209550000Y-104140000D03*
X209550000Y-106680000D03*
X209550000Y-109220000D03*
X209550000Y-111760000D03*
%TD*%
D10*
%TO.C,J55*%
X209550000Y-118110000D03*
D11*
X209550000Y-120650000D03*
X209550000Y-123190000D03*
X209550000Y-125730000D03*
%TD*%
D10*
%TO.C,J56*%
X209550000Y-132080000D03*
D11*
X209550000Y-134620000D03*
X209550000Y-137160000D03*
%TD*%
D10*
%TO.C,J8*%
X73660000Y-60960000D03*
D11*
X76200000Y-60960000D03*
X73660000Y-63500000D03*
X76200000Y-63500000D03*
X73660000Y-66040000D03*
X76200000Y-66040000D03*
X73660000Y-68580000D03*
X76200000Y-68580000D03*
X73660000Y-71120000D03*
X76200000Y-71120000D03*
X73660000Y-73660000D03*
X76200000Y-73660000D03*
X73660000Y-76200000D03*
X76200000Y-76200000D03*
X73660000Y-78740000D03*
X76200000Y-78740000D03*
X73660000Y-81280000D03*
X76200000Y-81280000D03*
X73660000Y-83820000D03*
X76200000Y-83820000D03*
X73660000Y-86360000D03*
X76200000Y-86360000D03*
X73660000Y-88900000D03*
X76200000Y-88900000D03*
X73660000Y-91440000D03*
X76200000Y-91440000D03*
X73660000Y-93980000D03*
X76200000Y-93980000D03*
X73660000Y-96520000D03*
X76200000Y-96520000D03*
X73660000Y-99060000D03*
X76200000Y-99060000D03*
X73660000Y-101600000D03*
X76200000Y-101600000D03*
%TD*%
D10*
%TO.C,J9*%
X119380000Y-60960000D03*
D11*
X121920000Y-60960000D03*
X119380000Y-63500000D03*
X121920000Y-63500000D03*
X119380000Y-66040000D03*
X121920000Y-66040000D03*
X119380000Y-68580000D03*
X121920000Y-68580000D03*
X119380000Y-71120000D03*
X121920000Y-71120000D03*
X119380000Y-73660000D03*
X121920000Y-73660000D03*
X119380000Y-76200000D03*
X121920000Y-76200000D03*
X119380000Y-78740000D03*
X121920000Y-78740000D03*
X119380000Y-81280000D03*
X121920000Y-81280000D03*
X119380000Y-83820000D03*
X121920000Y-83820000D03*
X119380000Y-86360000D03*
X121920000Y-86360000D03*
X119380000Y-88900000D03*
X121920000Y-88900000D03*
X119380000Y-91440000D03*
X121920000Y-91440000D03*
X119380000Y-93980000D03*
X121920000Y-93980000D03*
X119380000Y-96520000D03*
X121920000Y-96520000D03*
X119380000Y-99060000D03*
X121920000Y-99060000D03*
X119380000Y-101600000D03*
X121920000Y-101600000D03*
%TD*%
D10*
%TO.C,J10*%
X134620000Y-60960000D03*
D11*
X137160000Y-60960000D03*
X134620000Y-63500000D03*
X137160000Y-63500000D03*
X134620000Y-66040000D03*
X137160000Y-66040000D03*
X134620000Y-68580000D03*
X137160000Y-68580000D03*
X134620000Y-71120000D03*
X137160000Y-71120000D03*
X134620000Y-73660000D03*
X137160000Y-73660000D03*
X134620000Y-76200000D03*
X137160000Y-76200000D03*
X134620000Y-78740000D03*
X137160000Y-78740000D03*
X134620000Y-81280000D03*
X137160000Y-81280000D03*
X134620000Y-83820000D03*
X137160000Y-83820000D03*
X134620000Y-86360000D03*
X137160000Y-86360000D03*
X134620000Y-88900000D03*
X137160000Y-88900000D03*
X134620000Y-91440000D03*
X137160000Y-91440000D03*
X134620000Y-93980000D03*
X137160000Y-93980000D03*
X134620000Y-96520000D03*
X137160000Y-96520000D03*
X134620000Y-99060000D03*
X137160000Y-99060000D03*
X134620000Y-101600000D03*
X137160000Y-101600000D03*
%TD*%
D10*
%TO.C,J5*%
X160020000Y-73660000D03*
D11*
X162560000Y-73660000D03*
X160020000Y-76200000D03*
X162560000Y-76200000D03*
X160020000Y-78740000D03*
X162560000Y-78740000D03*
X160020000Y-81280000D03*
X162560000Y-81280000D03*
X160020000Y-83820000D03*
X162560000Y-83820000D03*
X160020000Y-86360000D03*
X162560000Y-86360000D03*
X160020000Y-88900000D03*
X162560000Y-88900000D03*
X160020000Y-91440000D03*
X162560000Y-91440000D03*
X160020000Y-93980000D03*
X162560000Y-93980000D03*
X160020000Y-96520000D03*
X162560000Y-96520000D03*
X160020000Y-99060000D03*
X162560000Y-99060000D03*
X160020000Y-101600000D03*
X162560000Y-101600000D03*
X160020000Y-104140000D03*
X162560000Y-104140000D03*
X160020000Y-106680000D03*
X162560000Y-106680000D03*
X160020000Y-109220000D03*
X162560000Y-109220000D03*
X160020000Y-111760000D03*
X162560000Y-111760000D03*
X160020000Y-114300000D03*
X162560000Y-114300000D03*
X160020000Y-116840000D03*
X162560000Y-116840000D03*
X160020000Y-119380000D03*
X162560000Y-119380000D03*
X160020000Y-121920000D03*
X162560000Y-121920000D03*
X160020000Y-124460000D03*
X162560000Y-124460000D03*
X160020000Y-127000000D03*
X162560000Y-127000000D03*
X160020000Y-129540000D03*
X162560000Y-129540000D03*
X160020000Y-132080000D03*
X162560000Y-132080000D03*
X160020000Y-134620000D03*
X162560000Y-134620000D03*
%TD*%
D10*
%TO.C,J6*%
X175260000Y-73660000D03*
D11*
X177800000Y-73660000D03*
X175260000Y-76200000D03*
X177800000Y-76200000D03*
X175260000Y-78740000D03*
X177800000Y-78740000D03*
X175260000Y-81280000D03*
X177800000Y-81280000D03*
X175260000Y-83820000D03*
X177800000Y-83820000D03*
X175260000Y-86360000D03*
X177800000Y-86360000D03*
X175260000Y-88900000D03*
X177800000Y-88900000D03*
X175260000Y-91440000D03*
X177800000Y-91440000D03*
X175260000Y-93980000D03*
X177800000Y-93980000D03*
X175260000Y-96520000D03*
X177800000Y-96520000D03*
X175260000Y-99060000D03*
X177800000Y-99060000D03*
X175260000Y-101600000D03*
X177800000Y-101600000D03*
X175260000Y-104140000D03*
X177800000Y-104140000D03*
X175260000Y-106680000D03*
X177800000Y-106680000D03*
X175260000Y-109220000D03*
X177800000Y-109220000D03*
X175260000Y-111760000D03*
X177800000Y-111760000D03*
X175260000Y-114300000D03*
X177800000Y-114300000D03*
X175260000Y-116840000D03*
X177800000Y-116840000D03*
X175260000Y-119380000D03*
X177800000Y-119380000D03*
X175260000Y-121920000D03*
X177800000Y-121920000D03*
X175260000Y-124460000D03*
X177800000Y-124460000D03*
X175260000Y-127000000D03*
X177800000Y-127000000D03*
X175260000Y-129540000D03*
X177800000Y-129540000D03*
X175260000Y-132080000D03*
X177800000Y-132080000D03*
X175260000Y-134620000D03*
X177800000Y-134620000D03*
%TD*%
D10*
%TO.C,J23*%
X220980000Y-73660000D03*
D11*
X223520000Y-73660000D03*
X220980000Y-76200000D03*
X223520000Y-76200000D03*
X220980000Y-78740000D03*
X223520000Y-78740000D03*
X220980000Y-81280000D03*
X223520000Y-81280000D03*
X220980000Y-83820000D03*
X223520000Y-83820000D03*
X220980000Y-86360000D03*
X223520000Y-86360000D03*
X220980000Y-88900000D03*
X223520000Y-88900000D03*
X220980000Y-91440000D03*
X223520000Y-91440000D03*
X220980000Y-93980000D03*
X223520000Y-93980000D03*
X220980000Y-96520000D03*
X223520000Y-96520000D03*
X220980000Y-99060000D03*
X223520000Y-99060000D03*
X220980000Y-101600000D03*
X223520000Y-101600000D03*
X220980000Y-104140000D03*
X223520000Y-104140000D03*
X220980000Y-106680000D03*
X223520000Y-106680000D03*
X220980000Y-109220000D03*
X223520000Y-109220000D03*
X220980000Y-111760000D03*
X223520000Y-111760000D03*
X220980000Y-114300000D03*
X223520000Y-114300000D03*
X220980000Y-116840000D03*
X223520000Y-116840000D03*
X220980000Y-119380000D03*
X223520000Y-119380000D03*
X220980000Y-121920000D03*
X223520000Y-121920000D03*
X220980000Y-124460000D03*
X223520000Y-124460000D03*
X220980000Y-127000000D03*
X223520000Y-127000000D03*
X220980000Y-129540000D03*
X223520000Y-129540000D03*
X220980000Y-132080000D03*
X223520000Y-132080000D03*
X220980000Y-134620000D03*
X223520000Y-134620000D03*
%TD*%
D10*
%TO.C,J24*%
X236220000Y-73660000D03*
D11*
X238760000Y-73660000D03*
X236220000Y-76200000D03*
X238760000Y-76200000D03*
X236220000Y-78740000D03*
X238760000Y-78740000D03*
X236220000Y-81280000D03*
X238760000Y-81280000D03*
X236220000Y-83820000D03*
X238760000Y-83820000D03*
X236220000Y-86360000D03*
X238760000Y-86360000D03*
X236220000Y-88900000D03*
X238760000Y-88900000D03*
X236220000Y-91440000D03*
X238760000Y-91440000D03*
X236220000Y-93980000D03*
X238760000Y-93980000D03*
X236220000Y-96520000D03*
X238760000Y-96520000D03*
X236220000Y-99060000D03*
X238760000Y-99060000D03*
X236220000Y-101600000D03*
X238760000Y-101600000D03*
X236220000Y-104140000D03*
X238760000Y-104140000D03*
X236220000Y-106680000D03*
X238760000Y-106680000D03*
X236220000Y-109220000D03*
X238760000Y-109220000D03*
X236220000Y-111760000D03*
X238760000Y-111760000D03*
X236220000Y-114300000D03*
X238760000Y-114300000D03*
X236220000Y-116840000D03*
X238760000Y-116840000D03*
X236220000Y-119380000D03*
X238760000Y-119380000D03*
X236220000Y-121920000D03*
X238760000Y-121920000D03*
X236220000Y-124460000D03*
X238760000Y-124460000D03*
X236220000Y-127000000D03*
X238760000Y-127000000D03*
X236220000Y-129540000D03*
X238760000Y-129540000D03*
X236220000Y-132080000D03*
X238760000Y-132080000D03*
X236220000Y-134620000D03*
X238760000Y-134620000D03*
%TD*%
M02*
