%TF.GenerationSoftware,KiCad,Pcbnew,(5.1.9)-1*%
%TF.CreationDate,2022-08-27T22:21:39+05:30*%
%TF.ProjectId,MFM_ST506 Breakout Board,4d464d5f-5354-4353-9036-20427265616b,rev?*%
%TF.SameCoordinates,Original*%
%TF.FileFunction,Other,User*%
%FSLAX46Y46*%
G04 Gerber Fmt 4.6, Leading zero omitted, Abs format (unit mm)*
G04 Created by KiCad (PCBNEW (5.1.9)-1) date 2022-08-27 22:21:39*
%MOMM*%
%LPD*%
G01*
G04 APERTURE LIST*
%ADD10C,0.050000*%
%ADD11C,0.150000*%
G04 APERTURE END LIST*
D10*
%TO.C,J52*%
X198650000Y-130280000D02*
X195050000Y-130280000D01*
X198650000Y-138930000D02*
X198650000Y-130280000D01*
X195050000Y-138930000D02*
X198650000Y-138930000D01*
X195050000Y-130280000D02*
X195050000Y-138930000D01*
%TO.C,J41*%
X200130000Y-59160000D02*
X200130000Y-78010000D01*
X200130000Y-78010000D02*
X203730000Y-78010000D01*
X203730000Y-78010000D02*
X203730000Y-59160000D01*
X203730000Y-59160000D02*
X200130000Y-59160000D01*
%TO.C,J42*%
X203730000Y-80750000D02*
X200130000Y-80750000D01*
X203730000Y-97050000D02*
X203730000Y-80750000D01*
X200130000Y-97050000D02*
X203730000Y-97050000D01*
X200130000Y-80750000D02*
X200130000Y-97050000D01*
%TO.C,J24*%
X234420000Y-71860000D02*
X234420000Y-136410000D01*
X234420000Y-136410000D02*
X240570000Y-136410000D01*
X240570000Y-136410000D02*
X240570000Y-71860000D01*
X240570000Y-71860000D02*
X234420000Y-71860000D01*
%TO.C,J23*%
X219180000Y-71860000D02*
X219180000Y-136410000D01*
X219180000Y-136410000D02*
X225330000Y-136410000D01*
X225330000Y-136410000D02*
X225330000Y-71860000D01*
X225330000Y-71860000D02*
X219180000Y-71860000D01*
%TO.C,J6*%
X173460000Y-71860000D02*
X173460000Y-136410000D01*
X173460000Y-136410000D02*
X179610000Y-136410000D01*
X179610000Y-136410000D02*
X179610000Y-71860000D01*
X179610000Y-71860000D02*
X173460000Y-71860000D01*
%TO.C,J5*%
X158220000Y-71860000D02*
X158220000Y-136410000D01*
X158220000Y-136410000D02*
X164370000Y-136410000D01*
X164370000Y-136410000D02*
X164370000Y-71860000D01*
X164370000Y-71860000D02*
X158220000Y-71860000D01*
%TO.C,J10*%
X138970000Y-59160000D02*
X132820000Y-59160000D01*
X138970000Y-103410000D02*
X138970000Y-59160000D01*
X132820000Y-103410000D02*
X138970000Y-103410000D01*
X132820000Y-59160000D02*
X132820000Y-103410000D01*
%TO.C,J9*%
X123730000Y-59160000D02*
X117580000Y-59160000D01*
X123730000Y-103410000D02*
X123730000Y-59160000D01*
X117580000Y-103410000D02*
X123730000Y-103410000D01*
X117580000Y-59160000D02*
X117580000Y-103410000D01*
%TO.C,J8*%
X78010000Y-59160000D02*
X71860000Y-59160000D01*
X78010000Y-103410000D02*
X78010000Y-59160000D01*
X71860000Y-103410000D02*
X78010000Y-103410000D01*
X71860000Y-59160000D02*
X71860000Y-103410000D01*
%TO.C,J7*%
X62770000Y-59160000D02*
X56620000Y-59160000D01*
X62770000Y-103410000D02*
X62770000Y-59160000D01*
X56620000Y-103410000D02*
X62770000Y-103410000D01*
X56620000Y-59160000D02*
X56620000Y-103410000D01*
%TO.C,J25*%
X89430000Y-85830000D02*
X85830000Y-85830000D01*
X89430000Y-107180000D02*
X89430000Y-85830000D01*
X85830000Y-107180000D02*
X89430000Y-107180000D01*
X85830000Y-85830000D02*
X85830000Y-107180000D01*
%TO.C,J56*%
X211350000Y-130280000D02*
X207750000Y-130280000D01*
X211350000Y-138930000D02*
X211350000Y-130280000D01*
X207750000Y-138930000D02*
X211350000Y-138930000D01*
X207750000Y-130280000D02*
X207750000Y-138930000D01*
%TO.C,J55*%
X211350000Y-116310000D02*
X207750000Y-116310000D01*
X211350000Y-127510000D02*
X211350000Y-116310000D01*
X207750000Y-127510000D02*
X211350000Y-127510000D01*
X207750000Y-116310000D02*
X207750000Y-127510000D01*
%TO.C,J54*%
X211350000Y-99800000D02*
X207750000Y-99800000D01*
X211350000Y-113550000D02*
X211350000Y-99800000D01*
X207750000Y-113550000D02*
X211350000Y-113550000D01*
X207750000Y-99800000D02*
X207750000Y-113550000D01*
%TO.C,J53*%
X211350000Y-80750000D02*
X207750000Y-80750000D01*
X211350000Y-97050000D02*
X211350000Y-80750000D01*
X207750000Y-97050000D02*
X211350000Y-97050000D01*
X207750000Y-80750000D02*
X207750000Y-97050000D01*
%TO.C,J22*%
X207750000Y-59160000D02*
X207750000Y-78010000D01*
X207750000Y-78010000D02*
X211350000Y-78010000D01*
X211350000Y-78010000D02*
X211350000Y-59160000D01*
X211350000Y-59160000D02*
X207750000Y-59160000D01*
%TO.C,J51*%
X198650000Y-116310000D02*
X195050000Y-116310000D01*
X198650000Y-127510000D02*
X198650000Y-116310000D01*
X195050000Y-127510000D02*
X198650000Y-127510000D01*
X195050000Y-116310000D02*
X195050000Y-127510000D01*
%TO.C,J50*%
X198650000Y-99800000D02*
X195050000Y-99800000D01*
X198650000Y-113550000D02*
X198650000Y-99800000D01*
X195050000Y-113550000D02*
X198650000Y-113550000D01*
X195050000Y-99800000D02*
X195050000Y-113550000D01*
%TO.C,J49*%
X198650000Y-80750000D02*
X195050000Y-80750000D01*
X198650000Y-97050000D02*
X198650000Y-80750000D01*
X195050000Y-97050000D02*
X198650000Y-97050000D01*
X195050000Y-80750000D02*
X195050000Y-97050000D01*
%TO.C,J20*%
X195050000Y-59160000D02*
X195050000Y-78010000D01*
X195050000Y-78010000D02*
X198650000Y-78010000D01*
X198650000Y-78010000D02*
X198650000Y-59160000D01*
X198650000Y-59160000D02*
X195050000Y-59160000D01*
%TO.C,J48*%
X191030000Y-130280000D02*
X187430000Y-130280000D01*
X191030000Y-138930000D02*
X191030000Y-130280000D01*
X187430000Y-138930000D02*
X191030000Y-138930000D01*
X187430000Y-130280000D02*
X187430000Y-138930000D01*
%TO.C,J47*%
X191030000Y-116310000D02*
X187430000Y-116310000D01*
X191030000Y-127510000D02*
X191030000Y-116310000D01*
X187430000Y-127510000D02*
X191030000Y-127510000D01*
X187430000Y-116310000D02*
X187430000Y-127510000D01*
%TO.C,J46*%
X191030000Y-99800000D02*
X187430000Y-99800000D01*
X191030000Y-113550000D02*
X191030000Y-99800000D01*
X187430000Y-113550000D02*
X191030000Y-113550000D01*
X187430000Y-99800000D02*
X187430000Y-113550000D01*
%TO.C,J21*%
X191030000Y-80750000D02*
X187430000Y-80750000D01*
X191030000Y-97050000D02*
X191030000Y-80750000D01*
X187430000Y-97050000D02*
X191030000Y-97050000D01*
X187430000Y-80750000D02*
X187430000Y-97050000D01*
%TO.C,J19*%
X187430000Y-59160000D02*
X187430000Y-78010000D01*
X187430000Y-78010000D02*
X191030000Y-78010000D01*
X191030000Y-78010000D02*
X191030000Y-59160000D01*
X191030000Y-59160000D02*
X187430000Y-59160000D01*
%TO.C,J45*%
X203730000Y-130280000D02*
X200130000Y-130280000D01*
X203730000Y-138930000D02*
X203730000Y-130280000D01*
X200130000Y-138930000D02*
X203730000Y-138930000D01*
X200130000Y-130280000D02*
X200130000Y-138930000D01*
%TO.C,J44*%
X203730000Y-116310000D02*
X200130000Y-116310000D01*
X203730000Y-127510000D02*
X203730000Y-116310000D01*
X200130000Y-127510000D02*
X203730000Y-127510000D01*
X200130000Y-116310000D02*
X200130000Y-127510000D01*
%TO.C,J43*%
X203730000Y-99800000D02*
X200130000Y-99800000D01*
X203730000Y-113550000D02*
X203730000Y-99800000D01*
X200130000Y-113550000D02*
X203730000Y-113550000D01*
X200130000Y-99800000D02*
X200130000Y-113550000D01*
%TO.C,J3*%
X138970000Y-109960000D02*
X132820000Y-109960000D01*
X138970000Y-136410000D02*
X138970000Y-109960000D01*
X132820000Y-136410000D02*
X138970000Y-136410000D01*
X132820000Y-109960000D02*
X132820000Y-136410000D01*
%TO.C,J4*%
X123730000Y-109960000D02*
X117580000Y-109960000D01*
X123730000Y-136410000D02*
X123730000Y-109960000D01*
X117580000Y-136410000D02*
X123730000Y-136410000D01*
X117580000Y-109960000D02*
X117580000Y-136410000D01*
%TO.C,J18*%
X106150000Y-109960000D02*
X109700000Y-109960000D01*
X109700000Y-109960000D02*
X109700000Y-136360000D01*
X109700000Y-136360000D02*
X106150000Y-136360000D01*
X106150000Y-136360000D02*
X106150000Y-109960000D01*
%TO.C,J17*%
X98530000Y-109960000D02*
X102080000Y-109960000D01*
X102080000Y-109960000D02*
X102080000Y-136360000D01*
X102080000Y-136360000D02*
X98530000Y-136360000D01*
X98530000Y-136360000D02*
X98530000Y-109960000D01*
%TO.C,J16*%
X93450000Y-109960000D02*
X97000000Y-109960000D01*
X97000000Y-109960000D02*
X97000000Y-136360000D01*
X97000000Y-136360000D02*
X93450000Y-136360000D01*
X93450000Y-136360000D02*
X93450000Y-109960000D01*
%TO.C,J15*%
X85830000Y-109960000D02*
X89380000Y-109960000D01*
X89380000Y-109960000D02*
X89380000Y-136360000D01*
X89380000Y-136360000D02*
X85830000Y-136360000D01*
X85830000Y-136360000D02*
X85830000Y-109960000D01*
%TO.C,J2*%
X78010000Y-109960000D02*
X71860000Y-109960000D01*
X78010000Y-136410000D02*
X78010000Y-109960000D01*
X71860000Y-136410000D02*
X78010000Y-136410000D01*
X71860000Y-109960000D02*
X71860000Y-136410000D01*
%TO.C,J1*%
X62770000Y-109960000D02*
X56620000Y-109960000D01*
X62770000Y-136410000D02*
X62770000Y-109960000D01*
X56620000Y-136410000D02*
X62770000Y-136410000D01*
X56620000Y-109960000D02*
X56620000Y-136410000D01*
%TO.C,J28*%
X109750000Y-85830000D02*
X106150000Y-85830000D01*
X109750000Y-107180000D02*
X109750000Y-85830000D01*
X106150000Y-107180000D02*
X109750000Y-107180000D01*
X106150000Y-85830000D02*
X106150000Y-107180000D01*
%TO.C,J27*%
X102130000Y-85830000D02*
X98530000Y-85830000D01*
X102130000Y-107180000D02*
X102130000Y-85830000D01*
X98530000Y-107180000D02*
X102130000Y-107180000D01*
X98530000Y-85830000D02*
X98530000Y-107180000D01*
%TO.C,J26*%
X97050000Y-85830000D02*
X93450000Y-85830000D01*
X97050000Y-107180000D02*
X97050000Y-85830000D01*
X93450000Y-107180000D02*
X97050000Y-107180000D01*
X93450000Y-85830000D02*
X93450000Y-107180000D01*
%TO.C,J14*%
X109750000Y-59160000D02*
X106150000Y-59160000D01*
X109750000Y-83060000D02*
X109750000Y-59160000D01*
X106150000Y-83060000D02*
X109750000Y-83060000D01*
X106150000Y-59160000D02*
X106150000Y-83060000D01*
%TO.C,J13*%
X102130000Y-59160000D02*
X98530000Y-59160000D01*
X102130000Y-83060000D02*
X102130000Y-59160000D01*
X98530000Y-83060000D02*
X102130000Y-83060000D01*
X98530000Y-59160000D02*
X98530000Y-83060000D01*
%TO.C,J12*%
X97050000Y-59160000D02*
X93450000Y-59160000D01*
X97050000Y-83060000D02*
X97050000Y-59160000D01*
X93450000Y-83060000D02*
X97050000Y-83060000D01*
X93450000Y-59160000D02*
X93450000Y-83060000D01*
%TO.C,J11*%
X89430000Y-59160000D02*
X85830000Y-59160000D01*
X89430000Y-83060000D02*
X89430000Y-59160000D01*
X85830000Y-83060000D02*
X89430000Y-83060000D01*
X85830000Y-59160000D02*
X85830000Y-83060000D01*
%TD*%
%TO.C,J52*%
D11*
X196040476Y-129202380D02*
X196040476Y-129916666D01*
X195992857Y-130059523D01*
X195897619Y-130154761D01*
X195754761Y-130202380D01*
X195659523Y-130202380D01*
X196992857Y-129202380D02*
X196516666Y-129202380D01*
X196469047Y-129678571D01*
X196516666Y-129630952D01*
X196611904Y-129583333D01*
X196850000Y-129583333D01*
X196945238Y-129630952D01*
X196992857Y-129678571D01*
X197040476Y-129773809D01*
X197040476Y-130011904D01*
X196992857Y-130107142D01*
X196945238Y-130154761D01*
X196850000Y-130202380D01*
X196611904Y-130202380D01*
X196516666Y-130154761D01*
X196469047Y-130107142D01*
X197421428Y-129297619D02*
X197469047Y-129250000D01*
X197564285Y-129202380D01*
X197802380Y-129202380D01*
X197897619Y-129250000D01*
X197945238Y-129297619D01*
X197992857Y-129392857D01*
X197992857Y-129488095D01*
X197945238Y-129630952D01*
X197373809Y-130202380D01*
X197992857Y-130202380D01*
%TO.C,J41*%
X201120476Y-58082380D02*
X201120476Y-58796666D01*
X201072857Y-58939523D01*
X200977619Y-59034761D01*
X200834761Y-59082380D01*
X200739523Y-59082380D01*
X202025238Y-58415714D02*
X202025238Y-59082380D01*
X201787142Y-58034761D02*
X201549047Y-58749047D01*
X202168095Y-58749047D01*
X203072857Y-59082380D02*
X202501428Y-59082380D01*
X202787142Y-59082380D02*
X202787142Y-58082380D01*
X202691904Y-58225238D01*
X202596666Y-58320476D01*
X202501428Y-58368095D01*
%TO.C,J42*%
X201120476Y-79672380D02*
X201120476Y-80386666D01*
X201072857Y-80529523D01*
X200977619Y-80624761D01*
X200834761Y-80672380D01*
X200739523Y-80672380D01*
X202025238Y-80005714D02*
X202025238Y-80672380D01*
X201787142Y-79624761D02*
X201549047Y-80339047D01*
X202168095Y-80339047D01*
X202501428Y-79767619D02*
X202549047Y-79720000D01*
X202644285Y-79672380D01*
X202882380Y-79672380D01*
X202977619Y-79720000D01*
X203025238Y-79767619D01*
X203072857Y-79862857D01*
X203072857Y-79958095D01*
X203025238Y-80100952D01*
X202453809Y-80672380D01*
X203072857Y-80672380D01*
%TO.C,J24*%
X236680476Y-70782380D02*
X236680476Y-71496666D01*
X236632857Y-71639523D01*
X236537619Y-71734761D01*
X236394761Y-71782380D01*
X236299523Y-71782380D01*
X237109047Y-70877619D02*
X237156666Y-70830000D01*
X237251904Y-70782380D01*
X237490000Y-70782380D01*
X237585238Y-70830000D01*
X237632857Y-70877619D01*
X237680476Y-70972857D01*
X237680476Y-71068095D01*
X237632857Y-71210952D01*
X237061428Y-71782380D01*
X237680476Y-71782380D01*
X238537619Y-71115714D02*
X238537619Y-71782380D01*
X238299523Y-70734761D02*
X238061428Y-71449047D01*
X238680476Y-71449047D01*
%TO.C,J23*%
X221440476Y-70782380D02*
X221440476Y-71496666D01*
X221392857Y-71639523D01*
X221297619Y-71734761D01*
X221154761Y-71782380D01*
X221059523Y-71782380D01*
X221869047Y-70877619D02*
X221916666Y-70830000D01*
X222011904Y-70782380D01*
X222250000Y-70782380D01*
X222345238Y-70830000D01*
X222392857Y-70877619D01*
X222440476Y-70972857D01*
X222440476Y-71068095D01*
X222392857Y-71210952D01*
X221821428Y-71782380D01*
X222440476Y-71782380D01*
X222773809Y-70782380D02*
X223392857Y-70782380D01*
X223059523Y-71163333D01*
X223202380Y-71163333D01*
X223297619Y-71210952D01*
X223345238Y-71258571D01*
X223392857Y-71353809D01*
X223392857Y-71591904D01*
X223345238Y-71687142D01*
X223297619Y-71734761D01*
X223202380Y-71782380D01*
X222916666Y-71782380D01*
X222821428Y-71734761D01*
X222773809Y-71687142D01*
%TO.C,J6*%
X176196666Y-70782380D02*
X176196666Y-71496666D01*
X176149047Y-71639523D01*
X176053809Y-71734761D01*
X175910952Y-71782380D01*
X175815714Y-71782380D01*
X177101428Y-70782380D02*
X176910952Y-70782380D01*
X176815714Y-70830000D01*
X176768095Y-70877619D01*
X176672857Y-71020476D01*
X176625238Y-71210952D01*
X176625238Y-71591904D01*
X176672857Y-71687142D01*
X176720476Y-71734761D01*
X176815714Y-71782380D01*
X177006190Y-71782380D01*
X177101428Y-71734761D01*
X177149047Y-71687142D01*
X177196666Y-71591904D01*
X177196666Y-71353809D01*
X177149047Y-71258571D01*
X177101428Y-71210952D01*
X177006190Y-71163333D01*
X176815714Y-71163333D01*
X176720476Y-71210952D01*
X176672857Y-71258571D01*
X176625238Y-71353809D01*
%TO.C,J5*%
X160956666Y-70782380D02*
X160956666Y-71496666D01*
X160909047Y-71639523D01*
X160813809Y-71734761D01*
X160670952Y-71782380D01*
X160575714Y-71782380D01*
X161909047Y-70782380D02*
X161432857Y-70782380D01*
X161385238Y-71258571D01*
X161432857Y-71210952D01*
X161528095Y-71163333D01*
X161766190Y-71163333D01*
X161861428Y-71210952D01*
X161909047Y-71258571D01*
X161956666Y-71353809D01*
X161956666Y-71591904D01*
X161909047Y-71687142D01*
X161861428Y-71734761D01*
X161766190Y-71782380D01*
X161528095Y-71782380D01*
X161432857Y-71734761D01*
X161385238Y-71687142D01*
%TO.C,J10*%
X135080476Y-58082380D02*
X135080476Y-58796666D01*
X135032857Y-58939523D01*
X134937619Y-59034761D01*
X134794761Y-59082380D01*
X134699523Y-59082380D01*
X136080476Y-59082380D02*
X135509047Y-59082380D01*
X135794761Y-59082380D02*
X135794761Y-58082380D01*
X135699523Y-58225238D01*
X135604285Y-58320476D01*
X135509047Y-58368095D01*
X136699523Y-58082380D02*
X136794761Y-58082380D01*
X136890000Y-58130000D01*
X136937619Y-58177619D01*
X136985238Y-58272857D01*
X137032857Y-58463333D01*
X137032857Y-58701428D01*
X136985238Y-58891904D01*
X136937619Y-58987142D01*
X136890000Y-59034761D01*
X136794761Y-59082380D01*
X136699523Y-59082380D01*
X136604285Y-59034761D01*
X136556666Y-58987142D01*
X136509047Y-58891904D01*
X136461428Y-58701428D01*
X136461428Y-58463333D01*
X136509047Y-58272857D01*
X136556666Y-58177619D01*
X136604285Y-58130000D01*
X136699523Y-58082380D01*
%TO.C,J9*%
X120316666Y-58082380D02*
X120316666Y-58796666D01*
X120269047Y-58939523D01*
X120173809Y-59034761D01*
X120030952Y-59082380D01*
X119935714Y-59082380D01*
X120840476Y-59082380D02*
X121030952Y-59082380D01*
X121126190Y-59034761D01*
X121173809Y-58987142D01*
X121269047Y-58844285D01*
X121316666Y-58653809D01*
X121316666Y-58272857D01*
X121269047Y-58177619D01*
X121221428Y-58130000D01*
X121126190Y-58082380D01*
X120935714Y-58082380D01*
X120840476Y-58130000D01*
X120792857Y-58177619D01*
X120745238Y-58272857D01*
X120745238Y-58510952D01*
X120792857Y-58606190D01*
X120840476Y-58653809D01*
X120935714Y-58701428D01*
X121126190Y-58701428D01*
X121221428Y-58653809D01*
X121269047Y-58606190D01*
X121316666Y-58510952D01*
%TO.C,J8*%
X74596666Y-58082380D02*
X74596666Y-58796666D01*
X74549047Y-58939523D01*
X74453809Y-59034761D01*
X74310952Y-59082380D01*
X74215714Y-59082380D01*
X75215714Y-58510952D02*
X75120476Y-58463333D01*
X75072857Y-58415714D01*
X75025238Y-58320476D01*
X75025238Y-58272857D01*
X75072857Y-58177619D01*
X75120476Y-58130000D01*
X75215714Y-58082380D01*
X75406190Y-58082380D01*
X75501428Y-58130000D01*
X75549047Y-58177619D01*
X75596666Y-58272857D01*
X75596666Y-58320476D01*
X75549047Y-58415714D01*
X75501428Y-58463333D01*
X75406190Y-58510952D01*
X75215714Y-58510952D01*
X75120476Y-58558571D01*
X75072857Y-58606190D01*
X75025238Y-58701428D01*
X75025238Y-58891904D01*
X75072857Y-58987142D01*
X75120476Y-59034761D01*
X75215714Y-59082380D01*
X75406190Y-59082380D01*
X75501428Y-59034761D01*
X75549047Y-58987142D01*
X75596666Y-58891904D01*
X75596666Y-58701428D01*
X75549047Y-58606190D01*
X75501428Y-58558571D01*
X75406190Y-58510952D01*
%TO.C,J7*%
X59356666Y-58082380D02*
X59356666Y-58796666D01*
X59309047Y-58939523D01*
X59213809Y-59034761D01*
X59070952Y-59082380D01*
X58975714Y-59082380D01*
X59737619Y-58082380D02*
X60404285Y-58082380D01*
X59975714Y-59082380D01*
%TO.C,J25*%
X86820476Y-84752380D02*
X86820476Y-85466666D01*
X86772857Y-85609523D01*
X86677619Y-85704761D01*
X86534761Y-85752380D01*
X86439523Y-85752380D01*
X87249047Y-84847619D02*
X87296666Y-84800000D01*
X87391904Y-84752380D01*
X87630000Y-84752380D01*
X87725238Y-84800000D01*
X87772857Y-84847619D01*
X87820476Y-84942857D01*
X87820476Y-85038095D01*
X87772857Y-85180952D01*
X87201428Y-85752380D01*
X87820476Y-85752380D01*
X88725238Y-84752380D02*
X88249047Y-84752380D01*
X88201428Y-85228571D01*
X88249047Y-85180952D01*
X88344285Y-85133333D01*
X88582380Y-85133333D01*
X88677619Y-85180952D01*
X88725238Y-85228571D01*
X88772857Y-85323809D01*
X88772857Y-85561904D01*
X88725238Y-85657142D01*
X88677619Y-85704761D01*
X88582380Y-85752380D01*
X88344285Y-85752380D01*
X88249047Y-85704761D01*
X88201428Y-85657142D01*
%TO.C,J56*%
X208740476Y-129202380D02*
X208740476Y-129916666D01*
X208692857Y-130059523D01*
X208597619Y-130154761D01*
X208454761Y-130202380D01*
X208359523Y-130202380D01*
X209692857Y-129202380D02*
X209216666Y-129202380D01*
X209169047Y-129678571D01*
X209216666Y-129630952D01*
X209311904Y-129583333D01*
X209550000Y-129583333D01*
X209645238Y-129630952D01*
X209692857Y-129678571D01*
X209740476Y-129773809D01*
X209740476Y-130011904D01*
X209692857Y-130107142D01*
X209645238Y-130154761D01*
X209550000Y-130202380D01*
X209311904Y-130202380D01*
X209216666Y-130154761D01*
X209169047Y-130107142D01*
X210597619Y-129202380D02*
X210407142Y-129202380D01*
X210311904Y-129250000D01*
X210264285Y-129297619D01*
X210169047Y-129440476D01*
X210121428Y-129630952D01*
X210121428Y-130011904D01*
X210169047Y-130107142D01*
X210216666Y-130154761D01*
X210311904Y-130202380D01*
X210502380Y-130202380D01*
X210597619Y-130154761D01*
X210645238Y-130107142D01*
X210692857Y-130011904D01*
X210692857Y-129773809D01*
X210645238Y-129678571D01*
X210597619Y-129630952D01*
X210502380Y-129583333D01*
X210311904Y-129583333D01*
X210216666Y-129630952D01*
X210169047Y-129678571D01*
X210121428Y-129773809D01*
%TO.C,J55*%
X208740476Y-115232380D02*
X208740476Y-115946666D01*
X208692857Y-116089523D01*
X208597619Y-116184761D01*
X208454761Y-116232380D01*
X208359523Y-116232380D01*
X209692857Y-115232380D02*
X209216666Y-115232380D01*
X209169047Y-115708571D01*
X209216666Y-115660952D01*
X209311904Y-115613333D01*
X209550000Y-115613333D01*
X209645238Y-115660952D01*
X209692857Y-115708571D01*
X209740476Y-115803809D01*
X209740476Y-116041904D01*
X209692857Y-116137142D01*
X209645238Y-116184761D01*
X209550000Y-116232380D01*
X209311904Y-116232380D01*
X209216666Y-116184761D01*
X209169047Y-116137142D01*
X210645238Y-115232380D02*
X210169047Y-115232380D01*
X210121428Y-115708571D01*
X210169047Y-115660952D01*
X210264285Y-115613333D01*
X210502380Y-115613333D01*
X210597619Y-115660952D01*
X210645238Y-115708571D01*
X210692857Y-115803809D01*
X210692857Y-116041904D01*
X210645238Y-116137142D01*
X210597619Y-116184761D01*
X210502380Y-116232380D01*
X210264285Y-116232380D01*
X210169047Y-116184761D01*
X210121428Y-116137142D01*
%TO.C,J54*%
X208740476Y-98722380D02*
X208740476Y-99436666D01*
X208692857Y-99579523D01*
X208597619Y-99674761D01*
X208454761Y-99722380D01*
X208359523Y-99722380D01*
X209692857Y-98722380D02*
X209216666Y-98722380D01*
X209169047Y-99198571D01*
X209216666Y-99150952D01*
X209311904Y-99103333D01*
X209550000Y-99103333D01*
X209645238Y-99150952D01*
X209692857Y-99198571D01*
X209740476Y-99293809D01*
X209740476Y-99531904D01*
X209692857Y-99627142D01*
X209645238Y-99674761D01*
X209550000Y-99722380D01*
X209311904Y-99722380D01*
X209216666Y-99674761D01*
X209169047Y-99627142D01*
X210597619Y-99055714D02*
X210597619Y-99722380D01*
X210359523Y-98674761D02*
X210121428Y-99389047D01*
X210740476Y-99389047D01*
%TO.C,J53*%
X208740476Y-79672380D02*
X208740476Y-80386666D01*
X208692857Y-80529523D01*
X208597619Y-80624761D01*
X208454761Y-80672380D01*
X208359523Y-80672380D01*
X209692857Y-79672380D02*
X209216666Y-79672380D01*
X209169047Y-80148571D01*
X209216666Y-80100952D01*
X209311904Y-80053333D01*
X209550000Y-80053333D01*
X209645238Y-80100952D01*
X209692857Y-80148571D01*
X209740476Y-80243809D01*
X209740476Y-80481904D01*
X209692857Y-80577142D01*
X209645238Y-80624761D01*
X209550000Y-80672380D01*
X209311904Y-80672380D01*
X209216666Y-80624761D01*
X209169047Y-80577142D01*
X210073809Y-79672380D02*
X210692857Y-79672380D01*
X210359523Y-80053333D01*
X210502380Y-80053333D01*
X210597619Y-80100952D01*
X210645238Y-80148571D01*
X210692857Y-80243809D01*
X210692857Y-80481904D01*
X210645238Y-80577142D01*
X210597619Y-80624761D01*
X210502380Y-80672380D01*
X210216666Y-80672380D01*
X210121428Y-80624761D01*
X210073809Y-80577142D01*
%TO.C,J22*%
X208740476Y-58082380D02*
X208740476Y-58796666D01*
X208692857Y-58939523D01*
X208597619Y-59034761D01*
X208454761Y-59082380D01*
X208359523Y-59082380D01*
X209169047Y-58177619D02*
X209216666Y-58130000D01*
X209311904Y-58082380D01*
X209550000Y-58082380D01*
X209645238Y-58130000D01*
X209692857Y-58177619D01*
X209740476Y-58272857D01*
X209740476Y-58368095D01*
X209692857Y-58510952D01*
X209121428Y-59082380D01*
X209740476Y-59082380D01*
X210121428Y-58177619D02*
X210169047Y-58130000D01*
X210264285Y-58082380D01*
X210502380Y-58082380D01*
X210597619Y-58130000D01*
X210645238Y-58177619D01*
X210692857Y-58272857D01*
X210692857Y-58368095D01*
X210645238Y-58510952D01*
X210073809Y-59082380D01*
X210692857Y-59082380D01*
%TO.C,J51*%
X196040476Y-115232380D02*
X196040476Y-115946666D01*
X195992857Y-116089523D01*
X195897619Y-116184761D01*
X195754761Y-116232380D01*
X195659523Y-116232380D01*
X196992857Y-115232380D02*
X196516666Y-115232380D01*
X196469047Y-115708571D01*
X196516666Y-115660952D01*
X196611904Y-115613333D01*
X196850000Y-115613333D01*
X196945238Y-115660952D01*
X196992857Y-115708571D01*
X197040476Y-115803809D01*
X197040476Y-116041904D01*
X196992857Y-116137142D01*
X196945238Y-116184761D01*
X196850000Y-116232380D01*
X196611904Y-116232380D01*
X196516666Y-116184761D01*
X196469047Y-116137142D01*
X197992857Y-116232380D02*
X197421428Y-116232380D01*
X197707142Y-116232380D02*
X197707142Y-115232380D01*
X197611904Y-115375238D01*
X197516666Y-115470476D01*
X197421428Y-115518095D01*
%TO.C,J50*%
X196040476Y-98722380D02*
X196040476Y-99436666D01*
X195992857Y-99579523D01*
X195897619Y-99674761D01*
X195754761Y-99722380D01*
X195659523Y-99722380D01*
X196992857Y-98722380D02*
X196516666Y-98722380D01*
X196469047Y-99198571D01*
X196516666Y-99150952D01*
X196611904Y-99103333D01*
X196850000Y-99103333D01*
X196945238Y-99150952D01*
X196992857Y-99198571D01*
X197040476Y-99293809D01*
X197040476Y-99531904D01*
X196992857Y-99627142D01*
X196945238Y-99674761D01*
X196850000Y-99722380D01*
X196611904Y-99722380D01*
X196516666Y-99674761D01*
X196469047Y-99627142D01*
X197659523Y-98722380D02*
X197754761Y-98722380D01*
X197850000Y-98770000D01*
X197897619Y-98817619D01*
X197945238Y-98912857D01*
X197992857Y-99103333D01*
X197992857Y-99341428D01*
X197945238Y-99531904D01*
X197897619Y-99627142D01*
X197850000Y-99674761D01*
X197754761Y-99722380D01*
X197659523Y-99722380D01*
X197564285Y-99674761D01*
X197516666Y-99627142D01*
X197469047Y-99531904D01*
X197421428Y-99341428D01*
X197421428Y-99103333D01*
X197469047Y-98912857D01*
X197516666Y-98817619D01*
X197564285Y-98770000D01*
X197659523Y-98722380D01*
%TO.C,J49*%
X196040476Y-79672380D02*
X196040476Y-80386666D01*
X195992857Y-80529523D01*
X195897619Y-80624761D01*
X195754761Y-80672380D01*
X195659523Y-80672380D01*
X196945238Y-80005714D02*
X196945238Y-80672380D01*
X196707142Y-79624761D02*
X196469047Y-80339047D01*
X197088095Y-80339047D01*
X197516666Y-80672380D02*
X197707142Y-80672380D01*
X197802380Y-80624761D01*
X197850000Y-80577142D01*
X197945238Y-80434285D01*
X197992857Y-80243809D01*
X197992857Y-79862857D01*
X197945238Y-79767619D01*
X197897619Y-79720000D01*
X197802380Y-79672380D01*
X197611904Y-79672380D01*
X197516666Y-79720000D01*
X197469047Y-79767619D01*
X197421428Y-79862857D01*
X197421428Y-80100952D01*
X197469047Y-80196190D01*
X197516666Y-80243809D01*
X197611904Y-80291428D01*
X197802380Y-80291428D01*
X197897619Y-80243809D01*
X197945238Y-80196190D01*
X197992857Y-80100952D01*
%TO.C,J20*%
X196040476Y-58082380D02*
X196040476Y-58796666D01*
X195992857Y-58939523D01*
X195897619Y-59034761D01*
X195754761Y-59082380D01*
X195659523Y-59082380D01*
X196469047Y-58177619D02*
X196516666Y-58130000D01*
X196611904Y-58082380D01*
X196850000Y-58082380D01*
X196945238Y-58130000D01*
X196992857Y-58177619D01*
X197040476Y-58272857D01*
X197040476Y-58368095D01*
X196992857Y-58510952D01*
X196421428Y-59082380D01*
X197040476Y-59082380D01*
X197659523Y-58082380D02*
X197754761Y-58082380D01*
X197850000Y-58130000D01*
X197897619Y-58177619D01*
X197945238Y-58272857D01*
X197992857Y-58463333D01*
X197992857Y-58701428D01*
X197945238Y-58891904D01*
X197897619Y-58987142D01*
X197850000Y-59034761D01*
X197754761Y-59082380D01*
X197659523Y-59082380D01*
X197564285Y-59034761D01*
X197516666Y-58987142D01*
X197469047Y-58891904D01*
X197421428Y-58701428D01*
X197421428Y-58463333D01*
X197469047Y-58272857D01*
X197516666Y-58177619D01*
X197564285Y-58130000D01*
X197659523Y-58082380D01*
%TO.C,J48*%
X188420476Y-129202380D02*
X188420476Y-129916666D01*
X188372857Y-130059523D01*
X188277619Y-130154761D01*
X188134761Y-130202380D01*
X188039523Y-130202380D01*
X189325238Y-129535714D02*
X189325238Y-130202380D01*
X189087142Y-129154761D02*
X188849047Y-129869047D01*
X189468095Y-129869047D01*
X189991904Y-129630952D02*
X189896666Y-129583333D01*
X189849047Y-129535714D01*
X189801428Y-129440476D01*
X189801428Y-129392857D01*
X189849047Y-129297619D01*
X189896666Y-129250000D01*
X189991904Y-129202380D01*
X190182380Y-129202380D01*
X190277619Y-129250000D01*
X190325238Y-129297619D01*
X190372857Y-129392857D01*
X190372857Y-129440476D01*
X190325238Y-129535714D01*
X190277619Y-129583333D01*
X190182380Y-129630952D01*
X189991904Y-129630952D01*
X189896666Y-129678571D01*
X189849047Y-129726190D01*
X189801428Y-129821428D01*
X189801428Y-130011904D01*
X189849047Y-130107142D01*
X189896666Y-130154761D01*
X189991904Y-130202380D01*
X190182380Y-130202380D01*
X190277619Y-130154761D01*
X190325238Y-130107142D01*
X190372857Y-130011904D01*
X190372857Y-129821428D01*
X190325238Y-129726190D01*
X190277619Y-129678571D01*
X190182380Y-129630952D01*
%TO.C,J47*%
X188420476Y-115232380D02*
X188420476Y-115946666D01*
X188372857Y-116089523D01*
X188277619Y-116184761D01*
X188134761Y-116232380D01*
X188039523Y-116232380D01*
X189325238Y-115565714D02*
X189325238Y-116232380D01*
X189087142Y-115184761D02*
X188849047Y-115899047D01*
X189468095Y-115899047D01*
X189753809Y-115232380D02*
X190420476Y-115232380D01*
X189991904Y-116232380D01*
%TO.C,J46*%
X188420476Y-98722380D02*
X188420476Y-99436666D01*
X188372857Y-99579523D01*
X188277619Y-99674761D01*
X188134761Y-99722380D01*
X188039523Y-99722380D01*
X189325238Y-99055714D02*
X189325238Y-99722380D01*
X189087142Y-98674761D02*
X188849047Y-99389047D01*
X189468095Y-99389047D01*
X190277619Y-98722380D02*
X190087142Y-98722380D01*
X189991904Y-98770000D01*
X189944285Y-98817619D01*
X189849047Y-98960476D01*
X189801428Y-99150952D01*
X189801428Y-99531904D01*
X189849047Y-99627142D01*
X189896666Y-99674761D01*
X189991904Y-99722380D01*
X190182380Y-99722380D01*
X190277619Y-99674761D01*
X190325238Y-99627142D01*
X190372857Y-99531904D01*
X190372857Y-99293809D01*
X190325238Y-99198571D01*
X190277619Y-99150952D01*
X190182380Y-99103333D01*
X189991904Y-99103333D01*
X189896666Y-99150952D01*
X189849047Y-99198571D01*
X189801428Y-99293809D01*
%TO.C,J21*%
X188420476Y-79672380D02*
X188420476Y-80386666D01*
X188372857Y-80529523D01*
X188277619Y-80624761D01*
X188134761Y-80672380D01*
X188039523Y-80672380D01*
X188849047Y-79767619D02*
X188896666Y-79720000D01*
X188991904Y-79672380D01*
X189230000Y-79672380D01*
X189325238Y-79720000D01*
X189372857Y-79767619D01*
X189420476Y-79862857D01*
X189420476Y-79958095D01*
X189372857Y-80100952D01*
X188801428Y-80672380D01*
X189420476Y-80672380D01*
X190372857Y-80672380D02*
X189801428Y-80672380D01*
X190087142Y-80672380D02*
X190087142Y-79672380D01*
X189991904Y-79815238D01*
X189896666Y-79910476D01*
X189801428Y-79958095D01*
%TO.C,J19*%
X188420476Y-58082380D02*
X188420476Y-58796666D01*
X188372857Y-58939523D01*
X188277619Y-59034761D01*
X188134761Y-59082380D01*
X188039523Y-59082380D01*
X189420476Y-59082380D02*
X188849047Y-59082380D01*
X189134761Y-59082380D02*
X189134761Y-58082380D01*
X189039523Y-58225238D01*
X188944285Y-58320476D01*
X188849047Y-58368095D01*
X189896666Y-59082380D02*
X190087142Y-59082380D01*
X190182380Y-59034761D01*
X190230000Y-58987142D01*
X190325238Y-58844285D01*
X190372857Y-58653809D01*
X190372857Y-58272857D01*
X190325238Y-58177619D01*
X190277619Y-58130000D01*
X190182380Y-58082380D01*
X189991904Y-58082380D01*
X189896666Y-58130000D01*
X189849047Y-58177619D01*
X189801428Y-58272857D01*
X189801428Y-58510952D01*
X189849047Y-58606190D01*
X189896666Y-58653809D01*
X189991904Y-58701428D01*
X190182380Y-58701428D01*
X190277619Y-58653809D01*
X190325238Y-58606190D01*
X190372857Y-58510952D01*
%TO.C,J45*%
X201120476Y-129202380D02*
X201120476Y-129916666D01*
X201072857Y-130059523D01*
X200977619Y-130154761D01*
X200834761Y-130202380D01*
X200739523Y-130202380D01*
X202025238Y-129535714D02*
X202025238Y-130202380D01*
X201787142Y-129154761D02*
X201549047Y-129869047D01*
X202168095Y-129869047D01*
X203025238Y-129202380D02*
X202549047Y-129202380D01*
X202501428Y-129678571D01*
X202549047Y-129630952D01*
X202644285Y-129583333D01*
X202882380Y-129583333D01*
X202977619Y-129630952D01*
X203025238Y-129678571D01*
X203072857Y-129773809D01*
X203072857Y-130011904D01*
X203025238Y-130107142D01*
X202977619Y-130154761D01*
X202882380Y-130202380D01*
X202644285Y-130202380D01*
X202549047Y-130154761D01*
X202501428Y-130107142D01*
%TO.C,J44*%
X201120476Y-115232380D02*
X201120476Y-115946666D01*
X201072857Y-116089523D01*
X200977619Y-116184761D01*
X200834761Y-116232380D01*
X200739523Y-116232380D01*
X202025238Y-115565714D02*
X202025238Y-116232380D01*
X201787142Y-115184761D02*
X201549047Y-115899047D01*
X202168095Y-115899047D01*
X202977619Y-115565714D02*
X202977619Y-116232380D01*
X202739523Y-115184761D02*
X202501428Y-115899047D01*
X203120476Y-115899047D01*
%TO.C,J43*%
X201120476Y-98722380D02*
X201120476Y-99436666D01*
X201072857Y-99579523D01*
X200977619Y-99674761D01*
X200834761Y-99722380D01*
X200739523Y-99722380D01*
X202025238Y-99055714D02*
X202025238Y-99722380D01*
X201787142Y-98674761D02*
X201549047Y-99389047D01*
X202168095Y-99389047D01*
X202453809Y-98722380D02*
X203072857Y-98722380D01*
X202739523Y-99103333D01*
X202882380Y-99103333D01*
X202977619Y-99150952D01*
X203025238Y-99198571D01*
X203072857Y-99293809D01*
X203072857Y-99531904D01*
X203025238Y-99627142D01*
X202977619Y-99674761D01*
X202882380Y-99722380D01*
X202596666Y-99722380D01*
X202501428Y-99674761D01*
X202453809Y-99627142D01*
%TO.C,J18*%
X107140476Y-108442380D02*
X107140476Y-109156666D01*
X107092857Y-109299523D01*
X106997619Y-109394761D01*
X106854761Y-109442380D01*
X106759523Y-109442380D01*
X108140476Y-109442380D02*
X107569047Y-109442380D01*
X107854761Y-109442380D02*
X107854761Y-108442380D01*
X107759523Y-108585238D01*
X107664285Y-108680476D01*
X107569047Y-108728095D01*
X108711904Y-108870952D02*
X108616666Y-108823333D01*
X108569047Y-108775714D01*
X108521428Y-108680476D01*
X108521428Y-108632857D01*
X108569047Y-108537619D01*
X108616666Y-108490000D01*
X108711904Y-108442380D01*
X108902380Y-108442380D01*
X108997619Y-108490000D01*
X109045238Y-108537619D01*
X109092857Y-108632857D01*
X109092857Y-108680476D01*
X109045238Y-108775714D01*
X108997619Y-108823333D01*
X108902380Y-108870952D01*
X108711904Y-108870952D01*
X108616666Y-108918571D01*
X108569047Y-108966190D01*
X108521428Y-109061428D01*
X108521428Y-109251904D01*
X108569047Y-109347142D01*
X108616666Y-109394761D01*
X108711904Y-109442380D01*
X108902380Y-109442380D01*
X108997619Y-109394761D01*
X109045238Y-109347142D01*
X109092857Y-109251904D01*
X109092857Y-109061428D01*
X109045238Y-108966190D01*
X108997619Y-108918571D01*
X108902380Y-108870952D01*
%TO.C,J17*%
X99520476Y-108442380D02*
X99520476Y-109156666D01*
X99472857Y-109299523D01*
X99377619Y-109394761D01*
X99234761Y-109442380D01*
X99139523Y-109442380D01*
X100520476Y-109442380D02*
X99949047Y-109442380D01*
X100234761Y-109442380D02*
X100234761Y-108442380D01*
X100139523Y-108585238D01*
X100044285Y-108680476D01*
X99949047Y-108728095D01*
X100853809Y-108442380D02*
X101520476Y-108442380D01*
X101091904Y-109442380D01*
%TO.C,J16*%
X94440476Y-108442380D02*
X94440476Y-109156666D01*
X94392857Y-109299523D01*
X94297619Y-109394761D01*
X94154761Y-109442380D01*
X94059523Y-109442380D01*
X95440476Y-109442380D02*
X94869047Y-109442380D01*
X95154761Y-109442380D02*
X95154761Y-108442380D01*
X95059523Y-108585238D01*
X94964285Y-108680476D01*
X94869047Y-108728095D01*
X96297619Y-108442380D02*
X96107142Y-108442380D01*
X96011904Y-108490000D01*
X95964285Y-108537619D01*
X95869047Y-108680476D01*
X95821428Y-108870952D01*
X95821428Y-109251904D01*
X95869047Y-109347142D01*
X95916666Y-109394761D01*
X96011904Y-109442380D01*
X96202380Y-109442380D01*
X96297619Y-109394761D01*
X96345238Y-109347142D01*
X96392857Y-109251904D01*
X96392857Y-109013809D01*
X96345238Y-108918571D01*
X96297619Y-108870952D01*
X96202380Y-108823333D01*
X96011904Y-108823333D01*
X95916666Y-108870952D01*
X95869047Y-108918571D01*
X95821428Y-109013809D01*
%TO.C,J15*%
X86820476Y-108442380D02*
X86820476Y-109156666D01*
X86772857Y-109299523D01*
X86677619Y-109394761D01*
X86534761Y-109442380D01*
X86439523Y-109442380D01*
X87820476Y-109442380D02*
X87249047Y-109442380D01*
X87534761Y-109442380D02*
X87534761Y-108442380D01*
X87439523Y-108585238D01*
X87344285Y-108680476D01*
X87249047Y-108728095D01*
X88725238Y-108442380D02*
X88249047Y-108442380D01*
X88201428Y-108918571D01*
X88249047Y-108870952D01*
X88344285Y-108823333D01*
X88582380Y-108823333D01*
X88677619Y-108870952D01*
X88725238Y-108918571D01*
X88772857Y-109013809D01*
X88772857Y-109251904D01*
X88725238Y-109347142D01*
X88677619Y-109394761D01*
X88582380Y-109442380D01*
X88344285Y-109442380D01*
X88249047Y-109394761D01*
X88201428Y-109347142D01*
%TO.C,J28*%
X107140476Y-84752380D02*
X107140476Y-85466666D01*
X107092857Y-85609523D01*
X106997619Y-85704761D01*
X106854761Y-85752380D01*
X106759523Y-85752380D01*
X107569047Y-84847619D02*
X107616666Y-84800000D01*
X107711904Y-84752380D01*
X107950000Y-84752380D01*
X108045238Y-84800000D01*
X108092857Y-84847619D01*
X108140476Y-84942857D01*
X108140476Y-85038095D01*
X108092857Y-85180952D01*
X107521428Y-85752380D01*
X108140476Y-85752380D01*
X108711904Y-85180952D02*
X108616666Y-85133333D01*
X108569047Y-85085714D01*
X108521428Y-84990476D01*
X108521428Y-84942857D01*
X108569047Y-84847619D01*
X108616666Y-84800000D01*
X108711904Y-84752380D01*
X108902380Y-84752380D01*
X108997619Y-84800000D01*
X109045238Y-84847619D01*
X109092857Y-84942857D01*
X109092857Y-84990476D01*
X109045238Y-85085714D01*
X108997619Y-85133333D01*
X108902380Y-85180952D01*
X108711904Y-85180952D01*
X108616666Y-85228571D01*
X108569047Y-85276190D01*
X108521428Y-85371428D01*
X108521428Y-85561904D01*
X108569047Y-85657142D01*
X108616666Y-85704761D01*
X108711904Y-85752380D01*
X108902380Y-85752380D01*
X108997619Y-85704761D01*
X109045238Y-85657142D01*
X109092857Y-85561904D01*
X109092857Y-85371428D01*
X109045238Y-85276190D01*
X108997619Y-85228571D01*
X108902380Y-85180952D01*
%TO.C,J27*%
X99520476Y-84752380D02*
X99520476Y-85466666D01*
X99472857Y-85609523D01*
X99377619Y-85704761D01*
X99234761Y-85752380D01*
X99139523Y-85752380D01*
X99949047Y-84847619D02*
X99996666Y-84800000D01*
X100091904Y-84752380D01*
X100330000Y-84752380D01*
X100425238Y-84800000D01*
X100472857Y-84847619D01*
X100520476Y-84942857D01*
X100520476Y-85038095D01*
X100472857Y-85180952D01*
X99901428Y-85752380D01*
X100520476Y-85752380D01*
X100853809Y-84752380D02*
X101520476Y-84752380D01*
X101091904Y-85752380D01*
%TO.C,J26*%
X94440476Y-84752380D02*
X94440476Y-85466666D01*
X94392857Y-85609523D01*
X94297619Y-85704761D01*
X94154761Y-85752380D01*
X94059523Y-85752380D01*
X94869047Y-84847619D02*
X94916666Y-84800000D01*
X95011904Y-84752380D01*
X95250000Y-84752380D01*
X95345238Y-84800000D01*
X95392857Y-84847619D01*
X95440476Y-84942857D01*
X95440476Y-85038095D01*
X95392857Y-85180952D01*
X94821428Y-85752380D01*
X95440476Y-85752380D01*
X96297619Y-84752380D02*
X96107142Y-84752380D01*
X96011904Y-84800000D01*
X95964285Y-84847619D01*
X95869047Y-84990476D01*
X95821428Y-85180952D01*
X95821428Y-85561904D01*
X95869047Y-85657142D01*
X95916666Y-85704761D01*
X96011904Y-85752380D01*
X96202380Y-85752380D01*
X96297619Y-85704761D01*
X96345238Y-85657142D01*
X96392857Y-85561904D01*
X96392857Y-85323809D01*
X96345238Y-85228571D01*
X96297619Y-85180952D01*
X96202380Y-85133333D01*
X96011904Y-85133333D01*
X95916666Y-85180952D01*
X95869047Y-85228571D01*
X95821428Y-85323809D01*
%TO.C,J14*%
X107140476Y-58082380D02*
X107140476Y-58796666D01*
X107092857Y-58939523D01*
X106997619Y-59034761D01*
X106854761Y-59082380D01*
X106759523Y-59082380D01*
X108140476Y-59082380D02*
X107569047Y-59082380D01*
X107854761Y-59082380D02*
X107854761Y-58082380D01*
X107759523Y-58225238D01*
X107664285Y-58320476D01*
X107569047Y-58368095D01*
X108997619Y-58415714D02*
X108997619Y-59082380D01*
X108759523Y-58034761D02*
X108521428Y-58749047D01*
X109140476Y-58749047D01*
%TO.C,J13*%
X99520476Y-58082380D02*
X99520476Y-58796666D01*
X99472857Y-58939523D01*
X99377619Y-59034761D01*
X99234761Y-59082380D01*
X99139523Y-59082380D01*
X100520476Y-59082380D02*
X99949047Y-59082380D01*
X100234761Y-59082380D02*
X100234761Y-58082380D01*
X100139523Y-58225238D01*
X100044285Y-58320476D01*
X99949047Y-58368095D01*
X100853809Y-58082380D02*
X101472857Y-58082380D01*
X101139523Y-58463333D01*
X101282380Y-58463333D01*
X101377619Y-58510952D01*
X101425238Y-58558571D01*
X101472857Y-58653809D01*
X101472857Y-58891904D01*
X101425238Y-58987142D01*
X101377619Y-59034761D01*
X101282380Y-59082380D01*
X100996666Y-59082380D01*
X100901428Y-59034761D01*
X100853809Y-58987142D01*
%TO.C,J12*%
X94440476Y-58082380D02*
X94440476Y-58796666D01*
X94392857Y-58939523D01*
X94297619Y-59034761D01*
X94154761Y-59082380D01*
X94059523Y-59082380D01*
X95440476Y-59082380D02*
X94869047Y-59082380D01*
X95154761Y-59082380D02*
X95154761Y-58082380D01*
X95059523Y-58225238D01*
X94964285Y-58320476D01*
X94869047Y-58368095D01*
X95821428Y-58177619D02*
X95869047Y-58130000D01*
X95964285Y-58082380D01*
X96202380Y-58082380D01*
X96297619Y-58130000D01*
X96345238Y-58177619D01*
X96392857Y-58272857D01*
X96392857Y-58368095D01*
X96345238Y-58510952D01*
X95773809Y-59082380D01*
X96392857Y-59082380D01*
%TO.C,J11*%
X86820476Y-58082380D02*
X86820476Y-58796666D01*
X86772857Y-58939523D01*
X86677619Y-59034761D01*
X86534761Y-59082380D01*
X86439523Y-59082380D01*
X87820476Y-59082380D02*
X87249047Y-59082380D01*
X87534761Y-59082380D02*
X87534761Y-58082380D01*
X87439523Y-58225238D01*
X87344285Y-58320476D01*
X87249047Y-58368095D01*
X88772857Y-59082380D02*
X88201428Y-59082380D01*
X88487142Y-59082380D02*
X88487142Y-58082380D01*
X88391904Y-58225238D01*
X88296666Y-58320476D01*
X88201428Y-58368095D01*
%TD*%
M02*
