%TF.GenerationSoftware,KiCad,Pcbnew,(5.1.9)-1*%
%TF.CreationDate,2022-08-27T22:21:39+05:30*%
%TF.ProjectId,MFM_ST506 Breakout Board,4d464d5f-5354-4353-9036-20427265616b,rev?*%
%TF.SameCoordinates,Original*%
%TF.FileFunction,Copper,L2,Bot*%
%TF.FilePolarity,Positive*%
%FSLAX46Y46*%
G04 Gerber Fmt 4.6, Leading zero omitted, Abs format (unit mm)*
G04 Created by KiCad (PCBNEW (5.1.9)-1) date 2022-08-27 22:21:39*
%MOMM*%
%LPD*%
G01*
G04 APERTURE LIST*
%TA.AperFunction,ComponentPad*%
%ADD10O,1.700000X1.700000*%
%TD*%
%TA.AperFunction,ComponentPad*%
%ADD11C,1.700000*%
%TD*%
%TA.AperFunction,Conductor*%
%ADD12C,0.300000*%
%TD*%
G04 APERTURE END LIST*
D10*
%TO.P,J52,3*%
%TO.N,Net-(J23-Pad49)*%
X196850000Y-137160000D03*
%TO.P,J52,2*%
%TO.N,Net-(J23-Pad47)*%
X196850000Y-134620000D03*
D11*
%TO.P,J52,1*%
%TO.N,Net-(J23-Pad45)*%
X196850000Y-132080000D03*
%TD*%
D10*
%TO.P,J41,7*%
%TO.N,Net-(J41-Pad7)*%
X201930000Y-76200000D03*
%TO.P,J41,6*%
%TO.N,Net-(J41-Pad6)*%
X201930000Y-73660000D03*
%TO.P,J41,5*%
%TO.N,Net-(J41-Pad5)*%
X201930000Y-71120000D03*
%TO.P,J41,4*%
%TO.N,Net-(J41-Pad4)*%
X201930000Y-68580000D03*
%TO.P,J41,3*%
%TO.N,Net-(J41-Pad3)*%
X201930000Y-66040000D03*
%TO.P,J41,2*%
%TO.N,Net-(J41-Pad2)*%
X201930000Y-63500000D03*
D11*
%TO.P,J41,1*%
%TO.N,Net-(J41-Pad1)*%
X201930000Y-60960000D03*
%TD*%
D10*
%TO.P,J42,6*%
%TO.N,Net-(J42-Pad6)*%
X201930000Y-95250000D03*
%TO.P,J42,5*%
%TO.N,Net-(J42-Pad5)*%
X201930000Y-92710000D03*
%TO.P,J42,4*%
%TO.N,Net-(J42-Pad4)*%
X201930000Y-90170000D03*
%TO.P,J42,3*%
%TO.N,Net-(J42-Pad3)*%
X201930000Y-87630000D03*
%TO.P,J42,2*%
%TO.N,Net-(J42-Pad2)*%
X201930000Y-85090000D03*
D11*
%TO.P,J42,1*%
%TO.N,Net-(J42-Pad1)*%
X201930000Y-82550000D03*
%TD*%
D10*
%TO.P,J24,50*%
%TO.N,Net-(J23-Pad50)*%
X238760000Y-134620000D03*
%TO.P,J24,49*%
%TO.N,Net-(J23-Pad49)*%
X236220000Y-134620000D03*
%TO.P,J24,48*%
%TO.N,Net-(J23-Pad48)*%
X238760000Y-132080000D03*
%TO.P,J24,47*%
%TO.N,Net-(J23-Pad47)*%
X236220000Y-132080000D03*
%TO.P,J24,46*%
%TO.N,Net-(J23-Pad46)*%
X238760000Y-129540000D03*
%TO.P,J24,45*%
%TO.N,Net-(J23-Pad45)*%
X236220000Y-129540000D03*
%TO.P,J24,44*%
%TO.N,Net-(J23-Pad44)*%
X238760000Y-127000000D03*
%TO.P,J24,43*%
%TO.N,Net-(J23-Pad43)*%
X236220000Y-127000000D03*
%TO.P,J24,42*%
%TO.N,Net-(J23-Pad42)*%
X238760000Y-124460000D03*
%TO.P,J24,41*%
%TO.N,Net-(J23-Pad41)*%
X236220000Y-124460000D03*
%TO.P,J24,40*%
%TO.N,Net-(J23-Pad40)*%
X238760000Y-121920000D03*
%TO.P,J24,39*%
%TO.N,Net-(J23-Pad39)*%
X236220000Y-121920000D03*
%TO.P,J24,38*%
%TO.N,Net-(J23-Pad38)*%
X238760000Y-119380000D03*
%TO.P,J24,37*%
%TO.N,Net-(J23-Pad37)*%
X236220000Y-119380000D03*
%TO.P,J24,36*%
%TO.N,Net-(J23-Pad36)*%
X238760000Y-116840000D03*
%TO.P,J24,35*%
%TO.N,Net-(J23-Pad35)*%
X236220000Y-116840000D03*
%TO.P,J24,34*%
%TO.N,Net-(J23-Pad34)*%
X238760000Y-114300000D03*
%TO.P,J24,33*%
%TO.N,Net-(J23-Pad33)*%
X236220000Y-114300000D03*
%TO.P,J24,32*%
%TO.N,Net-(J23-Pad32)*%
X238760000Y-111760000D03*
%TO.P,J24,31*%
%TO.N,Net-(J23-Pad31)*%
X236220000Y-111760000D03*
%TO.P,J24,30*%
%TO.N,Net-(J23-Pad30)*%
X238760000Y-109220000D03*
%TO.P,J24,29*%
%TO.N,Net-(J23-Pad29)*%
X236220000Y-109220000D03*
%TO.P,J24,28*%
%TO.N,Net-(J23-Pad28)*%
X238760000Y-106680000D03*
%TO.P,J24,27*%
%TO.N,Net-(J23-Pad27)*%
X236220000Y-106680000D03*
%TO.P,J24,26*%
%TO.N,Net-(J23-Pad26)*%
X238760000Y-104140000D03*
%TO.P,J24,25*%
%TO.N,Net-(J23-Pad25)*%
X236220000Y-104140000D03*
%TO.P,J24,24*%
%TO.N,Net-(J23-Pad24)*%
X238760000Y-101600000D03*
%TO.P,J24,23*%
%TO.N,Net-(J23-Pad23)*%
X236220000Y-101600000D03*
%TO.P,J24,22*%
%TO.N,Net-(J23-Pad22)*%
X238760000Y-99060000D03*
%TO.P,J24,21*%
%TO.N,Net-(J23-Pad21)*%
X236220000Y-99060000D03*
%TO.P,J24,20*%
%TO.N,Net-(J23-Pad20)*%
X238760000Y-96520000D03*
%TO.P,J24,19*%
%TO.N,Net-(J23-Pad19)*%
X236220000Y-96520000D03*
%TO.P,J24,18*%
%TO.N,Net-(J23-Pad18)*%
X238760000Y-93980000D03*
%TO.P,J24,17*%
%TO.N,Net-(J23-Pad17)*%
X236220000Y-93980000D03*
%TO.P,J24,16*%
%TO.N,Net-(J23-Pad16)*%
X238760000Y-91440000D03*
%TO.P,J24,15*%
%TO.N,Net-(J23-Pad15)*%
X236220000Y-91440000D03*
%TO.P,J24,14*%
%TO.N,Net-(J22-Pad7)*%
X238760000Y-88900000D03*
%TO.P,J24,13*%
%TO.N,Net-(J20-Pad7)*%
X236220000Y-88900000D03*
%TO.P,J24,12*%
%TO.N,Net-(J22-Pad6)*%
X238760000Y-86360000D03*
%TO.P,J24,11*%
%TO.N,Net-(J20-Pad6)*%
X236220000Y-86360000D03*
%TO.P,J24,10*%
%TO.N,Net-(J22-Pad5)*%
X238760000Y-83820000D03*
%TO.P,J24,9*%
%TO.N,Net-(J20-Pad5)*%
X236220000Y-83820000D03*
%TO.P,J24,8*%
%TO.N,Net-(J22-Pad4)*%
X238760000Y-81280000D03*
%TO.P,J24,7*%
%TO.N,Net-(J20-Pad4)*%
X236220000Y-81280000D03*
%TO.P,J24,6*%
%TO.N,Net-(J22-Pad3)*%
X238760000Y-78740000D03*
%TO.P,J24,5*%
%TO.N,Net-(J20-Pad3)*%
X236220000Y-78740000D03*
%TO.P,J24,4*%
%TO.N,Net-(J22-Pad2)*%
X238760000Y-76200000D03*
%TO.P,J24,3*%
%TO.N,Net-(J20-Pad2)*%
X236220000Y-76200000D03*
%TO.P,J24,2*%
%TO.N,Net-(J22-Pad1)*%
X238760000Y-73660000D03*
D11*
%TO.P,J24,1*%
%TO.N,Net-(J20-Pad1)*%
X236220000Y-73660000D03*
%TD*%
D10*
%TO.P,J23,50*%
%TO.N,Net-(J23-Pad50)*%
X223520000Y-134620000D03*
%TO.P,J23,49*%
%TO.N,Net-(J23-Pad49)*%
X220980000Y-134620000D03*
%TO.P,J23,48*%
%TO.N,Net-(J23-Pad48)*%
X223520000Y-132080000D03*
%TO.P,J23,47*%
%TO.N,Net-(J23-Pad47)*%
X220980000Y-132080000D03*
%TO.P,J23,46*%
%TO.N,Net-(J23-Pad46)*%
X223520000Y-129540000D03*
%TO.P,J23,45*%
%TO.N,Net-(J23-Pad45)*%
X220980000Y-129540000D03*
%TO.P,J23,44*%
%TO.N,Net-(J23-Pad44)*%
X223520000Y-127000000D03*
%TO.P,J23,43*%
%TO.N,Net-(J23-Pad43)*%
X220980000Y-127000000D03*
%TO.P,J23,42*%
%TO.N,Net-(J23-Pad42)*%
X223520000Y-124460000D03*
%TO.P,J23,41*%
%TO.N,Net-(J23-Pad41)*%
X220980000Y-124460000D03*
%TO.P,J23,40*%
%TO.N,Net-(J23-Pad40)*%
X223520000Y-121920000D03*
%TO.P,J23,39*%
%TO.N,Net-(J23-Pad39)*%
X220980000Y-121920000D03*
%TO.P,J23,38*%
%TO.N,Net-(J23-Pad38)*%
X223520000Y-119380000D03*
%TO.P,J23,37*%
%TO.N,Net-(J23-Pad37)*%
X220980000Y-119380000D03*
%TO.P,J23,36*%
%TO.N,Net-(J23-Pad36)*%
X223520000Y-116840000D03*
%TO.P,J23,35*%
%TO.N,Net-(J23-Pad35)*%
X220980000Y-116840000D03*
%TO.P,J23,34*%
%TO.N,Net-(J23-Pad34)*%
X223520000Y-114300000D03*
%TO.P,J23,33*%
%TO.N,Net-(J23-Pad33)*%
X220980000Y-114300000D03*
%TO.P,J23,32*%
%TO.N,Net-(J23-Pad32)*%
X223520000Y-111760000D03*
%TO.P,J23,31*%
%TO.N,Net-(J23-Pad31)*%
X220980000Y-111760000D03*
%TO.P,J23,30*%
%TO.N,Net-(J23-Pad30)*%
X223520000Y-109220000D03*
%TO.P,J23,29*%
%TO.N,Net-(J23-Pad29)*%
X220980000Y-109220000D03*
%TO.P,J23,28*%
%TO.N,Net-(J23-Pad28)*%
X223520000Y-106680000D03*
%TO.P,J23,27*%
%TO.N,Net-(J23-Pad27)*%
X220980000Y-106680000D03*
%TO.P,J23,26*%
%TO.N,Net-(J23-Pad26)*%
X223520000Y-104140000D03*
%TO.P,J23,25*%
%TO.N,Net-(J23-Pad25)*%
X220980000Y-104140000D03*
%TO.P,J23,24*%
%TO.N,Net-(J23-Pad24)*%
X223520000Y-101600000D03*
%TO.P,J23,23*%
%TO.N,Net-(J23-Pad23)*%
X220980000Y-101600000D03*
%TO.P,J23,22*%
%TO.N,Net-(J23-Pad22)*%
X223520000Y-99060000D03*
%TO.P,J23,21*%
%TO.N,Net-(J23-Pad21)*%
X220980000Y-99060000D03*
%TO.P,J23,20*%
%TO.N,Net-(J23-Pad20)*%
X223520000Y-96520000D03*
%TO.P,J23,19*%
%TO.N,Net-(J23-Pad19)*%
X220980000Y-96520000D03*
%TO.P,J23,18*%
%TO.N,Net-(J23-Pad18)*%
X223520000Y-93980000D03*
%TO.P,J23,17*%
%TO.N,Net-(J23-Pad17)*%
X220980000Y-93980000D03*
%TO.P,J23,16*%
%TO.N,Net-(J23-Pad16)*%
X223520000Y-91440000D03*
%TO.P,J23,15*%
%TO.N,Net-(J23-Pad15)*%
X220980000Y-91440000D03*
%TO.P,J23,14*%
%TO.N,Net-(J22-Pad7)*%
X223520000Y-88900000D03*
%TO.P,J23,13*%
%TO.N,Net-(J20-Pad7)*%
X220980000Y-88900000D03*
%TO.P,J23,12*%
%TO.N,Net-(J22-Pad6)*%
X223520000Y-86360000D03*
%TO.P,J23,11*%
%TO.N,Net-(J20-Pad6)*%
X220980000Y-86360000D03*
%TO.P,J23,10*%
%TO.N,Net-(J22-Pad5)*%
X223520000Y-83820000D03*
%TO.P,J23,9*%
%TO.N,Net-(J20-Pad5)*%
X220980000Y-83820000D03*
%TO.P,J23,8*%
%TO.N,Net-(J22-Pad4)*%
X223520000Y-81280000D03*
%TO.P,J23,7*%
%TO.N,Net-(J20-Pad4)*%
X220980000Y-81280000D03*
%TO.P,J23,6*%
%TO.N,Net-(J22-Pad3)*%
X223520000Y-78740000D03*
%TO.P,J23,5*%
%TO.N,Net-(J20-Pad3)*%
X220980000Y-78740000D03*
%TO.P,J23,4*%
%TO.N,Net-(J22-Pad2)*%
X223520000Y-76200000D03*
%TO.P,J23,3*%
%TO.N,Net-(J20-Pad2)*%
X220980000Y-76200000D03*
%TO.P,J23,2*%
%TO.N,Net-(J22-Pad1)*%
X223520000Y-73660000D03*
D11*
%TO.P,J23,1*%
%TO.N,Net-(J20-Pad1)*%
X220980000Y-73660000D03*
%TD*%
D10*
%TO.P,J6,50*%
%TO.N,Net-(J45-Pad3)*%
X177800000Y-134620000D03*
%TO.P,J6,49*%
%TO.N,Net-(J48-Pad3)*%
X175260000Y-134620000D03*
%TO.P,J6,48*%
%TO.N,Net-(J45-Pad2)*%
X177800000Y-132080000D03*
%TO.P,J6,47*%
%TO.N,Net-(J48-Pad2)*%
X175260000Y-132080000D03*
%TO.P,J6,46*%
%TO.N,Net-(J45-Pad1)*%
X177800000Y-129540000D03*
%TO.P,J6,45*%
%TO.N,Net-(J48-Pad1)*%
X175260000Y-129540000D03*
%TO.P,J6,44*%
%TO.N,Net-(J44-Pad4)*%
X177800000Y-127000000D03*
%TO.P,J6,43*%
%TO.N,Net-(J47-Pad4)*%
X175260000Y-127000000D03*
%TO.P,J6,42*%
%TO.N,Net-(J44-Pad3)*%
X177800000Y-124460000D03*
%TO.P,J6,41*%
%TO.N,Net-(J47-Pad3)*%
X175260000Y-124460000D03*
%TO.P,J6,40*%
%TO.N,Net-(J44-Pad2)*%
X177800000Y-121920000D03*
%TO.P,J6,39*%
%TO.N,Net-(J47-Pad2)*%
X175260000Y-121920000D03*
%TO.P,J6,38*%
%TO.N,Net-(J44-Pad1)*%
X177800000Y-119380000D03*
%TO.P,J6,37*%
%TO.N,Net-(J47-Pad1)*%
X175260000Y-119380000D03*
%TO.P,J6,36*%
%TO.N,Net-(J43-Pad5)*%
X177800000Y-116840000D03*
%TO.P,J6,35*%
%TO.N,Net-(J46-Pad5)*%
X175260000Y-116840000D03*
%TO.P,J6,34*%
%TO.N,Net-(J43-Pad4)*%
X177800000Y-114300000D03*
%TO.P,J6,33*%
%TO.N,Net-(J46-Pad4)*%
X175260000Y-114300000D03*
%TO.P,J6,32*%
%TO.N,Net-(J43-Pad3)*%
X177800000Y-111760000D03*
%TO.P,J6,31*%
%TO.N,Net-(J46-Pad3)*%
X175260000Y-111760000D03*
%TO.P,J6,30*%
%TO.N,Net-(J43-Pad2)*%
X177800000Y-109220000D03*
%TO.P,J6,29*%
%TO.N,Net-(J46-Pad2)*%
X175260000Y-109220000D03*
%TO.P,J6,28*%
%TO.N,Net-(J43-Pad1)*%
X177800000Y-106680000D03*
%TO.P,J6,27*%
%TO.N,Net-(J46-Pad1)*%
X175260000Y-106680000D03*
%TO.P,J6,26*%
%TO.N,Net-(J42-Pad6)*%
X177800000Y-104140000D03*
%TO.P,J6,25*%
%TO.N,Net-(J21-Pad6)*%
X175260000Y-104140000D03*
%TO.P,J6,24*%
%TO.N,Net-(J42-Pad5)*%
X177800000Y-101600000D03*
%TO.P,J6,23*%
%TO.N,Net-(J21-Pad5)*%
X175260000Y-101600000D03*
%TO.P,J6,22*%
%TO.N,Net-(J42-Pad4)*%
X177800000Y-99060000D03*
%TO.P,J6,21*%
%TO.N,Net-(J21-Pad4)*%
X175260000Y-99060000D03*
%TO.P,J6,20*%
%TO.N,Net-(J42-Pad3)*%
X177800000Y-96520000D03*
%TO.P,J6,19*%
%TO.N,Net-(J21-Pad3)*%
X175260000Y-96520000D03*
%TO.P,J6,18*%
%TO.N,Net-(J42-Pad2)*%
X177800000Y-93980000D03*
%TO.P,J6,17*%
%TO.N,Net-(J21-Pad2)*%
X175260000Y-93980000D03*
%TO.P,J6,16*%
%TO.N,Net-(J42-Pad1)*%
X177800000Y-91440000D03*
%TO.P,J6,15*%
%TO.N,Net-(J21-Pad1)*%
X175260000Y-91440000D03*
%TO.P,J6,14*%
%TO.N,Net-(J41-Pad7)*%
X177800000Y-88900000D03*
%TO.P,J6,13*%
%TO.N,Net-(J19-Pad7)*%
X175260000Y-88900000D03*
%TO.P,J6,12*%
%TO.N,Net-(J41-Pad6)*%
X177800000Y-86360000D03*
%TO.P,J6,11*%
%TO.N,Net-(J19-Pad6)*%
X175260000Y-86360000D03*
%TO.P,J6,10*%
%TO.N,Net-(J41-Pad5)*%
X177800000Y-83820000D03*
%TO.P,J6,9*%
%TO.N,Net-(J19-Pad5)*%
X175260000Y-83820000D03*
%TO.P,J6,8*%
%TO.N,Net-(J41-Pad4)*%
X177800000Y-81280000D03*
%TO.P,J6,7*%
%TO.N,Net-(J19-Pad4)*%
X175260000Y-81280000D03*
%TO.P,J6,6*%
%TO.N,Net-(J41-Pad3)*%
X177800000Y-78740000D03*
%TO.P,J6,5*%
%TO.N,Net-(J19-Pad3)*%
X175260000Y-78740000D03*
%TO.P,J6,4*%
%TO.N,Net-(J41-Pad2)*%
X177800000Y-76200000D03*
%TO.P,J6,3*%
%TO.N,Net-(J19-Pad2)*%
X175260000Y-76200000D03*
%TO.P,J6,2*%
%TO.N,Net-(J41-Pad1)*%
X177800000Y-73660000D03*
D11*
%TO.P,J6,1*%
%TO.N,Net-(J19-Pad1)*%
X175260000Y-73660000D03*
%TD*%
D10*
%TO.P,J5,50*%
%TO.N,Net-(J45-Pad3)*%
X162560000Y-134620000D03*
%TO.P,J5,49*%
%TO.N,Net-(J48-Pad3)*%
X160020000Y-134620000D03*
%TO.P,J5,48*%
%TO.N,Net-(J45-Pad2)*%
X162560000Y-132080000D03*
%TO.P,J5,47*%
%TO.N,Net-(J48-Pad2)*%
X160020000Y-132080000D03*
%TO.P,J5,46*%
%TO.N,Net-(J45-Pad1)*%
X162560000Y-129540000D03*
%TO.P,J5,45*%
%TO.N,Net-(J48-Pad1)*%
X160020000Y-129540000D03*
%TO.P,J5,44*%
%TO.N,Net-(J44-Pad4)*%
X162560000Y-127000000D03*
%TO.P,J5,43*%
%TO.N,Net-(J47-Pad4)*%
X160020000Y-127000000D03*
%TO.P,J5,42*%
%TO.N,Net-(J44-Pad3)*%
X162560000Y-124460000D03*
%TO.P,J5,41*%
%TO.N,Net-(J47-Pad3)*%
X160020000Y-124460000D03*
%TO.P,J5,40*%
%TO.N,Net-(J44-Pad2)*%
X162560000Y-121920000D03*
%TO.P,J5,39*%
%TO.N,Net-(J47-Pad2)*%
X160020000Y-121920000D03*
%TO.P,J5,38*%
%TO.N,Net-(J44-Pad1)*%
X162560000Y-119380000D03*
%TO.P,J5,37*%
%TO.N,Net-(J47-Pad1)*%
X160020000Y-119380000D03*
%TO.P,J5,36*%
%TO.N,Net-(J43-Pad5)*%
X162560000Y-116840000D03*
%TO.P,J5,35*%
%TO.N,Net-(J46-Pad5)*%
X160020000Y-116840000D03*
%TO.P,J5,34*%
%TO.N,Net-(J43-Pad4)*%
X162560000Y-114300000D03*
%TO.P,J5,33*%
%TO.N,Net-(J46-Pad4)*%
X160020000Y-114300000D03*
%TO.P,J5,32*%
%TO.N,Net-(J43-Pad3)*%
X162560000Y-111760000D03*
%TO.P,J5,31*%
%TO.N,Net-(J46-Pad3)*%
X160020000Y-111760000D03*
%TO.P,J5,30*%
%TO.N,Net-(J43-Pad2)*%
X162560000Y-109220000D03*
%TO.P,J5,29*%
%TO.N,Net-(J46-Pad2)*%
X160020000Y-109220000D03*
%TO.P,J5,28*%
%TO.N,Net-(J43-Pad1)*%
X162560000Y-106680000D03*
%TO.P,J5,27*%
%TO.N,Net-(J46-Pad1)*%
X160020000Y-106680000D03*
%TO.P,J5,26*%
%TO.N,Net-(J42-Pad6)*%
X162560000Y-104140000D03*
%TO.P,J5,25*%
%TO.N,Net-(J21-Pad6)*%
X160020000Y-104140000D03*
%TO.P,J5,24*%
%TO.N,Net-(J42-Pad5)*%
X162560000Y-101600000D03*
%TO.P,J5,23*%
%TO.N,Net-(J21-Pad5)*%
X160020000Y-101600000D03*
%TO.P,J5,22*%
%TO.N,Net-(J42-Pad4)*%
X162560000Y-99060000D03*
%TO.P,J5,21*%
%TO.N,Net-(J21-Pad4)*%
X160020000Y-99060000D03*
%TO.P,J5,20*%
%TO.N,Net-(J42-Pad3)*%
X162560000Y-96520000D03*
%TO.P,J5,19*%
%TO.N,Net-(J21-Pad3)*%
X160020000Y-96520000D03*
%TO.P,J5,18*%
%TO.N,Net-(J42-Pad2)*%
X162560000Y-93980000D03*
%TO.P,J5,17*%
%TO.N,Net-(J21-Pad2)*%
X160020000Y-93980000D03*
%TO.P,J5,16*%
%TO.N,Net-(J42-Pad1)*%
X162560000Y-91440000D03*
%TO.P,J5,15*%
%TO.N,Net-(J21-Pad1)*%
X160020000Y-91440000D03*
%TO.P,J5,14*%
%TO.N,Net-(J41-Pad7)*%
X162560000Y-88900000D03*
%TO.P,J5,13*%
%TO.N,Net-(J19-Pad7)*%
X160020000Y-88900000D03*
%TO.P,J5,12*%
%TO.N,Net-(J41-Pad6)*%
X162560000Y-86360000D03*
%TO.P,J5,11*%
%TO.N,Net-(J19-Pad6)*%
X160020000Y-86360000D03*
%TO.P,J5,10*%
%TO.N,Net-(J41-Pad5)*%
X162560000Y-83820000D03*
%TO.P,J5,9*%
%TO.N,Net-(J19-Pad5)*%
X160020000Y-83820000D03*
%TO.P,J5,8*%
%TO.N,Net-(J41-Pad4)*%
X162560000Y-81280000D03*
%TO.P,J5,7*%
%TO.N,Net-(J19-Pad4)*%
X160020000Y-81280000D03*
%TO.P,J5,6*%
%TO.N,Net-(J41-Pad3)*%
X162560000Y-78740000D03*
%TO.P,J5,5*%
%TO.N,Net-(J19-Pad3)*%
X160020000Y-78740000D03*
%TO.P,J5,4*%
%TO.N,Net-(J41-Pad2)*%
X162560000Y-76200000D03*
%TO.P,J5,3*%
%TO.N,Net-(J19-Pad2)*%
X160020000Y-76200000D03*
%TO.P,J5,2*%
%TO.N,Net-(J41-Pad1)*%
X162560000Y-73660000D03*
D11*
%TO.P,J5,1*%
%TO.N,Net-(J19-Pad1)*%
X160020000Y-73660000D03*
%TD*%
D10*
%TO.P,J10,34*%
%TO.N,Net-(J10-Pad34)*%
X137160000Y-101600000D03*
%TO.P,J10,33*%
%TO.N,J998*%
X134620000Y-101600000D03*
%TO.P,J10,32*%
%TO.N,Net-(J10-Pad32)*%
X137160000Y-99060000D03*
%TO.P,J10,31*%
%TO.N,J997*%
X134620000Y-99060000D03*
%TO.P,J10,30*%
%TO.N,Net-(J10-Pad30)*%
X137160000Y-96520000D03*
%TO.P,J10,29*%
%TO.N,J996*%
X134620000Y-96520000D03*
%TO.P,J10,28*%
%TO.N,Net-(J10-Pad28)*%
X137160000Y-93980000D03*
%TO.P,J10,27*%
%TO.N,J995*%
X134620000Y-93980000D03*
%TO.P,J10,26*%
%TO.N,Net-(J10-Pad26)*%
X137160000Y-91440000D03*
%TO.P,J10,25*%
%TO.N,J994*%
X134620000Y-91440000D03*
%TO.P,J10,24*%
%TO.N,Net-(J10-Pad24)*%
X137160000Y-88900000D03*
%TO.P,J10,23*%
%TO.N,J993*%
X134620000Y-88900000D03*
%TO.P,J10,22*%
%TO.N,Net-(J10-Pad22)*%
X137160000Y-86360000D03*
%TO.P,J10,21*%
%TO.N,J992*%
X134620000Y-86360000D03*
%TO.P,J10,20*%
%TO.N,Net-(J10-Pad20)*%
X137160000Y-83820000D03*
%TO.P,J10,19*%
%TO.N,J991*%
X134620000Y-83820000D03*
%TO.P,J10,18*%
%TO.N,Net-(J10-Pad18)*%
X137160000Y-81280000D03*
%TO.P,J10,17*%
%TO.N,J99*%
X134620000Y-81280000D03*
%TO.P,J10,16*%
%TO.N,Net-(J10-Pad16)*%
X137160000Y-78740000D03*
%TO.P,J10,15*%
%TO.N,J98*%
X134620000Y-78740000D03*
%TO.P,J10,14*%
%TO.N,Net-(J10-Pad14)*%
X137160000Y-76200000D03*
%TO.P,J10,13*%
%TO.N,J97*%
X134620000Y-76200000D03*
%TO.P,J10,12*%
%TO.N,Net-(J10-Pad12)*%
X137160000Y-73660000D03*
%TO.P,J10,11*%
%TO.N,J96*%
X134620000Y-73660000D03*
%TO.P,J10,10*%
%TO.N,Net-(J10-Pad10)*%
X137160000Y-71120000D03*
%TO.P,J10,9*%
%TO.N,J95*%
X134620000Y-71120000D03*
%TO.P,J10,8*%
%TO.N,Net-(J10-Pad8)*%
X137160000Y-68580000D03*
%TO.P,J10,7*%
%TO.N,J94*%
X134620000Y-68580000D03*
%TO.P,J10,6*%
%TO.N,Net-(J10-Pad6)*%
X137160000Y-66040000D03*
%TO.P,J10,5*%
%TO.N,J93*%
X134620000Y-66040000D03*
%TO.P,J10,4*%
%TO.N,Net-(J10-Pad4)*%
X137160000Y-63500000D03*
%TO.P,J10,3*%
%TO.N,J92*%
X134620000Y-63500000D03*
%TO.P,J10,2*%
%TO.N,Net-(J10-Pad2)*%
X137160000Y-60960000D03*
D11*
%TO.P,J10,1*%
%TO.N,J91*%
X134620000Y-60960000D03*
%TD*%
D10*
%TO.P,J9,34*%
%TO.N,Net-(J10-Pad34)*%
X121920000Y-101600000D03*
%TO.P,J9,33*%
%TO.N,J998*%
X119380000Y-101600000D03*
%TO.P,J9,32*%
%TO.N,Net-(J10-Pad32)*%
X121920000Y-99060000D03*
%TO.P,J9,31*%
%TO.N,J997*%
X119380000Y-99060000D03*
%TO.P,J9,30*%
%TO.N,Net-(J10-Pad30)*%
X121920000Y-96520000D03*
%TO.P,J9,29*%
%TO.N,J996*%
X119380000Y-96520000D03*
%TO.P,J9,28*%
%TO.N,Net-(J10-Pad28)*%
X121920000Y-93980000D03*
%TO.P,J9,27*%
%TO.N,J995*%
X119380000Y-93980000D03*
%TO.P,J9,26*%
%TO.N,Net-(J10-Pad26)*%
X121920000Y-91440000D03*
%TO.P,J9,25*%
%TO.N,J994*%
X119380000Y-91440000D03*
%TO.P,J9,24*%
%TO.N,Net-(J10-Pad24)*%
X121920000Y-88900000D03*
%TO.P,J9,23*%
%TO.N,J993*%
X119380000Y-88900000D03*
%TO.P,J9,22*%
%TO.N,Net-(J10-Pad22)*%
X121920000Y-86360000D03*
%TO.P,J9,21*%
%TO.N,J992*%
X119380000Y-86360000D03*
%TO.P,J9,20*%
%TO.N,Net-(J10-Pad20)*%
X121920000Y-83820000D03*
%TO.P,J9,19*%
%TO.N,J991*%
X119380000Y-83820000D03*
%TO.P,J9,18*%
%TO.N,Net-(J10-Pad18)*%
X121920000Y-81280000D03*
%TO.P,J9,17*%
%TO.N,J99*%
X119380000Y-81280000D03*
%TO.P,J9,16*%
%TO.N,Net-(J10-Pad16)*%
X121920000Y-78740000D03*
%TO.P,J9,15*%
%TO.N,J98*%
X119380000Y-78740000D03*
%TO.P,J9,14*%
%TO.N,Net-(J10-Pad14)*%
X121920000Y-76200000D03*
%TO.P,J9,13*%
%TO.N,J97*%
X119380000Y-76200000D03*
%TO.P,J9,12*%
%TO.N,Net-(J10-Pad12)*%
X121920000Y-73660000D03*
%TO.P,J9,11*%
%TO.N,J96*%
X119380000Y-73660000D03*
%TO.P,J9,10*%
%TO.N,Net-(J10-Pad10)*%
X121920000Y-71120000D03*
%TO.P,J9,9*%
%TO.N,J95*%
X119380000Y-71120000D03*
%TO.P,J9,8*%
%TO.N,Net-(J10-Pad8)*%
X121920000Y-68580000D03*
%TO.P,J9,7*%
%TO.N,J94*%
X119380000Y-68580000D03*
%TO.P,J9,6*%
%TO.N,Net-(J10-Pad6)*%
X121920000Y-66040000D03*
%TO.P,J9,5*%
%TO.N,J93*%
X119380000Y-66040000D03*
%TO.P,J9,4*%
%TO.N,Net-(J10-Pad4)*%
X121920000Y-63500000D03*
%TO.P,J9,3*%
%TO.N,J92*%
X119380000Y-63500000D03*
%TO.P,J9,2*%
%TO.N,Net-(J10-Pad2)*%
X121920000Y-60960000D03*
D11*
%TO.P,J9,1*%
%TO.N,J91*%
X119380000Y-60960000D03*
%TD*%
D10*
%TO.P,J8,34*%
%TO.N,Net-(J27-Pad8)*%
X76200000Y-101600000D03*
%TO.P,J8,33*%
%TO.N,J717*%
X73660000Y-101600000D03*
%TO.P,J8,32*%
%TO.N,Net-(J27-Pad7)*%
X76200000Y-99060000D03*
%TO.P,J8,31*%
%TO.N,J716*%
X73660000Y-99060000D03*
%TO.P,J8,30*%
%TO.N,Net-(J27-Pad6)*%
X76200000Y-96520000D03*
%TO.P,J8,29*%
%TO.N,J715*%
X73660000Y-96520000D03*
%TO.P,J8,28*%
%TO.N,Net-(J27-Pad5)*%
X76200000Y-93980000D03*
%TO.P,J8,27*%
%TO.N,J714*%
X73660000Y-93980000D03*
%TO.P,J8,26*%
%TO.N,Net-(J27-Pad4)*%
X76200000Y-91440000D03*
%TO.P,J8,25*%
%TO.N,J713*%
X73660000Y-91440000D03*
%TO.P,J8,24*%
%TO.N,Net-(J27-Pad3)*%
X76200000Y-88900000D03*
%TO.P,J8,23*%
%TO.N,J712*%
X73660000Y-88900000D03*
%TO.P,J8,22*%
%TO.N,Net-(J27-Pad2)*%
X76200000Y-86360000D03*
%TO.P,J8,21*%
%TO.N,J711*%
X73660000Y-86360000D03*
%TO.P,J8,20*%
%TO.N,Net-(J27-Pad1)*%
X76200000Y-83820000D03*
%TO.P,J8,19*%
%TO.N,J710*%
X73660000Y-83820000D03*
%TO.P,J8,18*%
%TO.N,Net-(J13-Pad9)*%
X76200000Y-81280000D03*
%TO.P,J8,17*%
%TO.N,J79*%
X73660000Y-81280000D03*
%TO.P,J8,16*%
%TO.N,Net-(J13-Pad8)*%
X76200000Y-78740000D03*
%TO.P,J8,15*%
%TO.N,J78*%
X73660000Y-78740000D03*
%TO.P,J8,14*%
%TO.N,Net-(J13-Pad7)*%
X76200000Y-76200000D03*
%TO.P,J8,13*%
%TO.N,J77*%
X73660000Y-76200000D03*
%TO.P,J8,12*%
%TO.N,Net-(J13-Pad6)*%
X76200000Y-73660000D03*
%TO.P,J8,11*%
%TO.N,J76*%
X73660000Y-73660000D03*
%TO.P,J8,10*%
%TO.N,Net-(J13-Pad5)*%
X76200000Y-71120000D03*
%TO.P,J8,9*%
%TO.N,J75*%
X73660000Y-71120000D03*
%TO.P,J8,8*%
%TO.N,Net-(J13-Pad4)*%
X76200000Y-68580000D03*
%TO.P,J8,7*%
%TO.N,J74*%
X73660000Y-68580000D03*
%TO.P,J8,6*%
%TO.N,Net-(J13-Pad3)*%
X76200000Y-66040000D03*
%TO.P,J8,5*%
%TO.N,J73*%
X73660000Y-66040000D03*
%TO.P,J8,4*%
%TO.N,Net-(J13-Pad2)*%
X76200000Y-63500000D03*
%TO.P,J8,3*%
%TO.N,J72*%
X73660000Y-63500000D03*
%TO.P,J8,2*%
%TO.N,Net-(J13-Pad1)*%
X76200000Y-60960000D03*
D11*
%TO.P,J8,1*%
%TO.N,J71*%
X73660000Y-60960000D03*
%TD*%
D10*
%TO.P,J7,34*%
%TO.N,Net-(J27-Pad8)*%
X60960000Y-101600000D03*
%TO.P,J7,33*%
%TO.N,J717*%
X58420000Y-101600000D03*
%TO.P,J7,32*%
%TO.N,Net-(J27-Pad7)*%
X60960000Y-99060000D03*
%TO.P,J7,31*%
%TO.N,J716*%
X58420000Y-99060000D03*
%TO.P,J7,30*%
%TO.N,Net-(J27-Pad6)*%
X60960000Y-96520000D03*
%TO.P,J7,29*%
%TO.N,J715*%
X58420000Y-96520000D03*
%TO.P,J7,28*%
%TO.N,Net-(J27-Pad5)*%
X60960000Y-93980000D03*
%TO.P,J7,27*%
%TO.N,J714*%
X58420000Y-93980000D03*
%TO.P,J7,26*%
%TO.N,Net-(J27-Pad4)*%
X60960000Y-91440000D03*
%TO.P,J7,25*%
%TO.N,J713*%
X58420000Y-91440000D03*
%TO.P,J7,24*%
%TO.N,Net-(J27-Pad3)*%
X60960000Y-88900000D03*
%TO.P,J7,23*%
%TO.N,J712*%
X58420000Y-88900000D03*
%TO.P,J7,22*%
%TO.N,Net-(J27-Pad2)*%
X60960000Y-86360000D03*
%TO.P,J7,21*%
%TO.N,J711*%
X58420000Y-86360000D03*
%TO.P,J7,20*%
%TO.N,Net-(J27-Pad1)*%
X60960000Y-83820000D03*
%TO.P,J7,19*%
%TO.N,J710*%
X58420000Y-83820000D03*
%TO.P,J7,18*%
%TO.N,Net-(J13-Pad9)*%
X60960000Y-81280000D03*
%TO.P,J7,17*%
%TO.N,J79*%
X58420000Y-81280000D03*
%TO.P,J7,16*%
%TO.N,Net-(J13-Pad8)*%
X60960000Y-78740000D03*
%TO.P,J7,15*%
%TO.N,J78*%
X58420000Y-78740000D03*
%TO.P,J7,14*%
%TO.N,Net-(J13-Pad7)*%
X60960000Y-76200000D03*
%TO.P,J7,13*%
%TO.N,J77*%
X58420000Y-76200000D03*
%TO.P,J7,12*%
%TO.N,Net-(J13-Pad6)*%
X60960000Y-73660000D03*
%TO.P,J7,11*%
%TO.N,J76*%
X58420000Y-73660000D03*
%TO.P,J7,10*%
%TO.N,Net-(J13-Pad5)*%
X60960000Y-71120000D03*
%TO.P,J7,9*%
%TO.N,J75*%
X58420000Y-71120000D03*
%TO.P,J7,8*%
%TO.N,Net-(J13-Pad4)*%
X60960000Y-68580000D03*
%TO.P,J7,7*%
%TO.N,J74*%
X58420000Y-68580000D03*
%TO.P,J7,6*%
%TO.N,Net-(J13-Pad3)*%
X60960000Y-66040000D03*
%TO.P,J7,5*%
%TO.N,J73*%
X58420000Y-66040000D03*
%TO.P,J7,4*%
%TO.N,Net-(J13-Pad2)*%
X60960000Y-63500000D03*
%TO.P,J7,3*%
%TO.N,J72*%
X58420000Y-63500000D03*
%TO.P,J7,2*%
%TO.N,Net-(J13-Pad1)*%
X60960000Y-60960000D03*
D11*
%TO.P,J7,1*%
%TO.N,J71*%
X58420000Y-60960000D03*
%TD*%
D10*
%TO.P,J25,8*%
%TO.N,J717*%
X87630000Y-105410000D03*
%TO.P,J25,7*%
%TO.N,J716*%
X87630000Y-102870000D03*
%TO.P,J25,6*%
%TO.N,J715*%
X87630000Y-100330000D03*
%TO.P,J25,5*%
%TO.N,J714*%
X87630000Y-97790000D03*
%TO.P,J25,4*%
%TO.N,J713*%
X87630000Y-95250000D03*
%TO.P,J25,3*%
%TO.N,J712*%
X87630000Y-92710000D03*
%TO.P,J25,2*%
%TO.N,J711*%
X87630000Y-90170000D03*
D11*
%TO.P,J25,1*%
%TO.N,J710*%
X87630000Y-87630000D03*
%TD*%
D10*
%TO.P,J56,3*%
%TO.N,Net-(J23-Pad50)*%
X209550000Y-137160000D03*
%TO.P,J56,2*%
%TO.N,Net-(J23-Pad48)*%
X209550000Y-134620000D03*
D11*
%TO.P,J56,1*%
%TO.N,Net-(J23-Pad46)*%
X209550000Y-132080000D03*
%TD*%
D10*
%TO.P,J55,4*%
%TO.N,Net-(J23-Pad44)*%
X209550000Y-125730000D03*
%TO.P,J55,3*%
%TO.N,Net-(J23-Pad42)*%
X209550000Y-123190000D03*
%TO.P,J55,2*%
%TO.N,Net-(J23-Pad40)*%
X209550000Y-120650000D03*
D11*
%TO.P,J55,1*%
%TO.N,Net-(J23-Pad38)*%
X209550000Y-118110000D03*
%TD*%
D10*
%TO.P,J54,5*%
%TO.N,Net-(J23-Pad36)*%
X209550000Y-111760000D03*
%TO.P,J54,4*%
%TO.N,Net-(J23-Pad34)*%
X209550000Y-109220000D03*
%TO.P,J54,3*%
%TO.N,Net-(J23-Pad32)*%
X209550000Y-106680000D03*
%TO.P,J54,2*%
%TO.N,Net-(J23-Pad30)*%
X209550000Y-104140000D03*
D11*
%TO.P,J54,1*%
%TO.N,Net-(J23-Pad28)*%
X209550000Y-101600000D03*
%TD*%
D10*
%TO.P,J53,6*%
%TO.N,Net-(J23-Pad26)*%
X209550000Y-95250000D03*
%TO.P,J53,5*%
%TO.N,Net-(J23-Pad24)*%
X209550000Y-92710000D03*
%TO.P,J53,4*%
%TO.N,Net-(J23-Pad22)*%
X209550000Y-90170000D03*
%TO.P,J53,3*%
%TO.N,Net-(J23-Pad20)*%
X209550000Y-87630000D03*
%TO.P,J53,2*%
%TO.N,Net-(J23-Pad18)*%
X209550000Y-85090000D03*
D11*
%TO.P,J53,1*%
%TO.N,Net-(J23-Pad16)*%
X209550000Y-82550000D03*
%TD*%
D10*
%TO.P,J22,7*%
%TO.N,Net-(J22-Pad7)*%
X209550000Y-76200000D03*
%TO.P,J22,6*%
%TO.N,Net-(J22-Pad6)*%
X209550000Y-73660000D03*
%TO.P,J22,5*%
%TO.N,Net-(J22-Pad5)*%
X209550000Y-71120000D03*
%TO.P,J22,4*%
%TO.N,Net-(J22-Pad4)*%
X209550000Y-68580000D03*
%TO.P,J22,3*%
%TO.N,Net-(J22-Pad3)*%
X209550000Y-66040000D03*
%TO.P,J22,2*%
%TO.N,Net-(J22-Pad2)*%
X209550000Y-63500000D03*
D11*
%TO.P,J22,1*%
%TO.N,Net-(J22-Pad1)*%
X209550000Y-60960000D03*
%TD*%
D10*
%TO.P,J51,4*%
%TO.N,Net-(J23-Pad43)*%
X196850000Y-125730000D03*
%TO.P,J51,3*%
%TO.N,Net-(J23-Pad41)*%
X196850000Y-123190000D03*
%TO.P,J51,2*%
%TO.N,Net-(J23-Pad39)*%
X196850000Y-120650000D03*
D11*
%TO.P,J51,1*%
%TO.N,Net-(J23-Pad37)*%
X196850000Y-118110000D03*
%TD*%
D10*
%TO.P,J50,5*%
%TO.N,Net-(J23-Pad35)*%
X196850000Y-111760000D03*
%TO.P,J50,4*%
%TO.N,Net-(J23-Pad33)*%
X196850000Y-109220000D03*
%TO.P,J50,3*%
%TO.N,Net-(J23-Pad31)*%
X196850000Y-106680000D03*
%TO.P,J50,2*%
%TO.N,Net-(J23-Pad29)*%
X196850000Y-104140000D03*
D11*
%TO.P,J50,1*%
%TO.N,Net-(J23-Pad27)*%
X196850000Y-101600000D03*
%TD*%
D10*
%TO.P,J49,6*%
%TO.N,Net-(J23-Pad25)*%
X196850000Y-95250000D03*
%TO.P,J49,5*%
%TO.N,Net-(J23-Pad23)*%
X196850000Y-92710000D03*
%TO.P,J49,4*%
%TO.N,Net-(J23-Pad21)*%
X196850000Y-90170000D03*
%TO.P,J49,3*%
%TO.N,Net-(J23-Pad19)*%
X196850000Y-87630000D03*
%TO.P,J49,2*%
%TO.N,Net-(J23-Pad17)*%
X196850000Y-85090000D03*
D11*
%TO.P,J49,1*%
%TO.N,Net-(J23-Pad15)*%
X196850000Y-82550000D03*
%TD*%
D10*
%TO.P,J20,7*%
%TO.N,Net-(J20-Pad7)*%
X196850000Y-76200000D03*
%TO.P,J20,6*%
%TO.N,Net-(J20-Pad6)*%
X196850000Y-73660000D03*
%TO.P,J20,5*%
%TO.N,Net-(J20-Pad5)*%
X196850000Y-71120000D03*
%TO.P,J20,4*%
%TO.N,Net-(J20-Pad4)*%
X196850000Y-68580000D03*
%TO.P,J20,3*%
%TO.N,Net-(J20-Pad3)*%
X196850000Y-66040000D03*
%TO.P,J20,2*%
%TO.N,Net-(J20-Pad2)*%
X196850000Y-63500000D03*
D11*
%TO.P,J20,1*%
%TO.N,Net-(J20-Pad1)*%
X196850000Y-60960000D03*
%TD*%
D10*
%TO.P,J48,3*%
%TO.N,Net-(J48-Pad3)*%
X189230000Y-137160000D03*
%TO.P,J48,2*%
%TO.N,Net-(J48-Pad2)*%
X189230000Y-134620000D03*
D11*
%TO.P,J48,1*%
%TO.N,Net-(J48-Pad1)*%
X189230000Y-132080000D03*
%TD*%
D10*
%TO.P,J47,4*%
%TO.N,Net-(J47-Pad4)*%
X189230000Y-125730000D03*
%TO.P,J47,3*%
%TO.N,Net-(J47-Pad3)*%
X189230000Y-123190000D03*
%TO.P,J47,2*%
%TO.N,Net-(J47-Pad2)*%
X189230000Y-120650000D03*
D11*
%TO.P,J47,1*%
%TO.N,Net-(J47-Pad1)*%
X189230000Y-118110000D03*
%TD*%
D10*
%TO.P,J46,5*%
%TO.N,Net-(J46-Pad5)*%
X189230000Y-111760000D03*
%TO.P,J46,4*%
%TO.N,Net-(J46-Pad4)*%
X189230000Y-109220000D03*
%TO.P,J46,3*%
%TO.N,Net-(J46-Pad3)*%
X189230000Y-106680000D03*
%TO.P,J46,2*%
%TO.N,Net-(J46-Pad2)*%
X189230000Y-104140000D03*
D11*
%TO.P,J46,1*%
%TO.N,Net-(J46-Pad1)*%
X189230000Y-101600000D03*
%TD*%
D10*
%TO.P,J21,6*%
%TO.N,Net-(J21-Pad6)*%
X189230000Y-95250000D03*
%TO.P,J21,5*%
%TO.N,Net-(J21-Pad5)*%
X189230000Y-92710000D03*
%TO.P,J21,4*%
%TO.N,Net-(J21-Pad4)*%
X189230000Y-90170000D03*
%TO.P,J21,3*%
%TO.N,Net-(J21-Pad3)*%
X189230000Y-87630000D03*
%TO.P,J21,2*%
%TO.N,Net-(J21-Pad2)*%
X189230000Y-85090000D03*
D11*
%TO.P,J21,1*%
%TO.N,Net-(J21-Pad1)*%
X189230000Y-82550000D03*
%TD*%
D10*
%TO.P,J19,7*%
%TO.N,Net-(J19-Pad7)*%
X189230000Y-76200000D03*
%TO.P,J19,6*%
%TO.N,Net-(J19-Pad6)*%
X189230000Y-73660000D03*
%TO.P,J19,5*%
%TO.N,Net-(J19-Pad5)*%
X189230000Y-71120000D03*
%TO.P,J19,4*%
%TO.N,Net-(J19-Pad4)*%
X189230000Y-68580000D03*
%TO.P,J19,3*%
%TO.N,Net-(J19-Pad3)*%
X189230000Y-66040000D03*
%TO.P,J19,2*%
%TO.N,Net-(J19-Pad2)*%
X189230000Y-63500000D03*
D11*
%TO.P,J19,1*%
%TO.N,Net-(J19-Pad1)*%
X189230000Y-60960000D03*
%TD*%
D10*
%TO.P,J45,3*%
%TO.N,Net-(J45-Pad3)*%
X201930000Y-137160000D03*
%TO.P,J45,2*%
%TO.N,Net-(J45-Pad2)*%
X201930000Y-134620000D03*
D11*
%TO.P,J45,1*%
%TO.N,Net-(J45-Pad1)*%
X201930000Y-132080000D03*
%TD*%
D10*
%TO.P,J44,4*%
%TO.N,Net-(J44-Pad4)*%
X201930000Y-125730000D03*
%TO.P,J44,3*%
%TO.N,Net-(J44-Pad3)*%
X201930000Y-123190000D03*
%TO.P,J44,2*%
%TO.N,Net-(J44-Pad2)*%
X201930000Y-120650000D03*
D11*
%TO.P,J44,1*%
%TO.N,Net-(J44-Pad1)*%
X201930000Y-118110000D03*
%TD*%
D10*
%TO.P,J43,5*%
%TO.N,Net-(J43-Pad5)*%
X201930000Y-111760000D03*
%TO.P,J43,4*%
%TO.N,Net-(J43-Pad4)*%
X201930000Y-109220000D03*
%TO.P,J43,3*%
%TO.N,Net-(J43-Pad3)*%
X201930000Y-106680000D03*
%TO.P,J43,2*%
%TO.N,Net-(J43-Pad2)*%
X201930000Y-104140000D03*
D11*
%TO.P,J43,1*%
%TO.N,Net-(J43-Pad1)*%
X201930000Y-101600000D03*
%TD*%
D10*
%TO.P,J3,20*%
%TO.N,Net-(J18-Pad10)*%
X137160000Y-134620000D03*
%TO.P,J3,19*%
%TO.N,Net-(J16-Pad10)*%
X134620000Y-134620000D03*
%TO.P,J3,18*%
%TO.N,Net-(J18-Pad9)*%
X137160000Y-132080000D03*
%TO.P,J3,17*%
%TO.N,Net-(J16-Pad9)*%
X134620000Y-132080000D03*
%TO.P,J3,16*%
%TO.N,Net-(J18-Pad8)*%
X137160000Y-129540000D03*
%TO.P,J3,15*%
%TO.N,Net-(J16-Pad8)*%
X134620000Y-129540000D03*
%TO.P,J3,14*%
%TO.N,Net-(J18-Pad7)*%
X137160000Y-127000000D03*
%TO.P,J3,13*%
%TO.N,Net-(J16-Pad7)*%
X134620000Y-127000000D03*
%TO.P,J3,12*%
%TO.N,Net-(J18-Pad6)*%
X137160000Y-124460000D03*
%TO.P,J3,11*%
%TO.N,Net-(J16-Pad6)*%
X134620000Y-124460000D03*
%TO.P,J3,10*%
%TO.N,Net-(J18-Pad5)*%
X137160000Y-121920000D03*
%TO.P,J3,9*%
%TO.N,Net-(J16-Pad5)*%
X134620000Y-121920000D03*
%TO.P,J3,8*%
%TO.N,Net-(J18-Pad4)*%
X137160000Y-119380000D03*
%TO.P,J3,7*%
%TO.N,Net-(J16-Pad4)*%
X134620000Y-119380000D03*
%TO.P,J3,6*%
%TO.N,Net-(J18-Pad3)*%
X137160000Y-116840000D03*
%TO.P,J3,5*%
%TO.N,Net-(J16-Pad3)*%
X134620000Y-116840000D03*
%TO.P,J3,4*%
%TO.N,Net-(J18-Pad2)*%
X137160000Y-114300000D03*
%TO.P,J3,3*%
%TO.N,Net-(J16-Pad2)*%
X134620000Y-114300000D03*
%TO.P,J3,2*%
%TO.N,Net-(J18-Pad1)*%
X137160000Y-111760000D03*
D11*
%TO.P,J3,1*%
%TO.N,Net-(J16-Pad1)*%
X134620000Y-111760000D03*
%TD*%
D10*
%TO.P,J4,20*%
%TO.N,Net-(J18-Pad10)*%
X121920000Y-134620000D03*
%TO.P,J4,19*%
%TO.N,Net-(J16-Pad10)*%
X119380000Y-134620000D03*
%TO.P,J4,18*%
%TO.N,Net-(J18-Pad9)*%
X121920000Y-132080000D03*
%TO.P,J4,17*%
%TO.N,Net-(J16-Pad9)*%
X119380000Y-132080000D03*
%TO.P,J4,16*%
%TO.N,Net-(J18-Pad8)*%
X121920000Y-129540000D03*
%TO.P,J4,15*%
%TO.N,Net-(J16-Pad8)*%
X119380000Y-129540000D03*
%TO.P,J4,14*%
%TO.N,Net-(J18-Pad7)*%
X121920000Y-127000000D03*
%TO.P,J4,13*%
%TO.N,Net-(J16-Pad7)*%
X119380000Y-127000000D03*
%TO.P,J4,12*%
%TO.N,Net-(J18-Pad6)*%
X121920000Y-124460000D03*
%TO.P,J4,11*%
%TO.N,Net-(J16-Pad6)*%
X119380000Y-124460000D03*
%TO.P,J4,10*%
%TO.N,Net-(J18-Pad5)*%
X121920000Y-121920000D03*
%TO.P,J4,9*%
%TO.N,Net-(J16-Pad5)*%
X119380000Y-121920000D03*
%TO.P,J4,8*%
%TO.N,Net-(J18-Pad4)*%
X121920000Y-119380000D03*
%TO.P,J4,7*%
%TO.N,Net-(J16-Pad4)*%
X119380000Y-119380000D03*
%TO.P,J4,6*%
%TO.N,Net-(J18-Pad3)*%
X121920000Y-116840000D03*
%TO.P,J4,5*%
%TO.N,Net-(J16-Pad3)*%
X119380000Y-116840000D03*
%TO.P,J4,4*%
%TO.N,Net-(J18-Pad2)*%
X121920000Y-114300000D03*
%TO.P,J4,3*%
%TO.N,Net-(J16-Pad2)*%
X119380000Y-114300000D03*
%TO.P,J4,2*%
%TO.N,Net-(J18-Pad1)*%
X121920000Y-111760000D03*
D11*
%TO.P,J4,1*%
%TO.N,Net-(J16-Pad1)*%
X119380000Y-111760000D03*
%TD*%
D10*
%TO.P,J18,10*%
%TO.N,Net-(J18-Pad10)*%
X107950000Y-134620000D03*
%TO.P,J18,9*%
%TO.N,Net-(J18-Pad9)*%
X107950000Y-132080000D03*
%TO.P,J18,8*%
%TO.N,Net-(J18-Pad8)*%
X107950000Y-129540000D03*
%TO.P,J18,7*%
%TO.N,Net-(J18-Pad7)*%
X107950000Y-127000000D03*
%TO.P,J18,6*%
%TO.N,Net-(J18-Pad6)*%
X107950000Y-124460000D03*
%TO.P,J18,5*%
%TO.N,Net-(J18-Pad5)*%
X107950000Y-121920000D03*
%TO.P,J18,4*%
%TO.N,Net-(J18-Pad4)*%
X107950000Y-119380000D03*
%TO.P,J18,3*%
%TO.N,Net-(J18-Pad3)*%
X107950000Y-116840000D03*
%TO.P,J18,2*%
%TO.N,Net-(J18-Pad2)*%
X107950000Y-114300000D03*
D11*
%TO.P,J18,1*%
%TO.N,Net-(J18-Pad1)*%
X107950000Y-111760000D03*
%TD*%
D10*
%TO.P,J17,10*%
%TO.N,Net-(J1-Pad20)*%
X100330000Y-134620000D03*
%TO.P,J17,9*%
%TO.N,Net-(J1-Pad18)*%
X100330000Y-132080000D03*
%TO.P,J17,8*%
%TO.N,Net-(J1-Pad16)*%
X100330000Y-129540000D03*
%TO.P,J17,7*%
%TO.N,Net-(J1-Pad14)*%
X100330000Y-127000000D03*
%TO.P,J17,6*%
%TO.N,Net-(J1-Pad12)*%
X100330000Y-124460000D03*
%TO.P,J17,5*%
%TO.N,Net-(J1-Pad10)*%
X100330000Y-121920000D03*
%TO.P,J17,4*%
%TO.N,Net-(J1-Pad8)*%
X100330000Y-119380000D03*
%TO.P,J17,3*%
%TO.N,Net-(J1-Pad6)*%
X100330000Y-116840000D03*
%TO.P,J17,2*%
%TO.N,Net-(J1-Pad4)*%
X100330000Y-114300000D03*
D11*
%TO.P,J17,1*%
%TO.N,Net-(J1-Pad2)*%
X100330000Y-111760000D03*
%TD*%
D10*
%TO.P,J16,10*%
%TO.N,Net-(J16-Pad10)*%
X95250000Y-134620000D03*
%TO.P,J16,9*%
%TO.N,Net-(J16-Pad9)*%
X95250000Y-132080000D03*
%TO.P,J16,8*%
%TO.N,Net-(J16-Pad8)*%
X95250000Y-129540000D03*
%TO.P,J16,7*%
%TO.N,Net-(J16-Pad7)*%
X95250000Y-127000000D03*
%TO.P,J16,6*%
%TO.N,Net-(J16-Pad6)*%
X95250000Y-124460000D03*
%TO.P,J16,5*%
%TO.N,Net-(J16-Pad5)*%
X95250000Y-121920000D03*
%TO.P,J16,4*%
%TO.N,Net-(J16-Pad4)*%
X95250000Y-119380000D03*
%TO.P,J16,3*%
%TO.N,Net-(J16-Pad3)*%
X95250000Y-116840000D03*
%TO.P,J16,2*%
%TO.N,Net-(J16-Pad2)*%
X95250000Y-114300000D03*
D11*
%TO.P,J16,1*%
%TO.N,Net-(J16-Pad1)*%
X95250000Y-111760000D03*
%TD*%
D10*
%TO.P,J15,10*%
%TO.N,Net-(J1-Pad19)*%
X87630000Y-134620000D03*
%TO.P,J15,9*%
%TO.N,Net-(J1-Pad17)*%
X87630000Y-132080000D03*
%TO.P,J15,8*%
%TO.N,Net-(J1-Pad15)*%
X87630000Y-129540000D03*
%TO.P,J15,7*%
%TO.N,Net-(J1-Pad13)*%
X87630000Y-127000000D03*
%TO.P,J15,6*%
%TO.N,Net-(J1-Pad11)*%
X87630000Y-124460000D03*
%TO.P,J15,5*%
%TO.N,Net-(J1-Pad9)*%
X87630000Y-121920000D03*
%TO.P,J15,4*%
%TO.N,Net-(J1-Pad7)*%
X87630000Y-119380000D03*
%TO.P,J15,3*%
%TO.N,Net-(J1-Pad5)*%
X87630000Y-116840000D03*
%TO.P,J15,2*%
%TO.N,Net-(J1-Pad3)*%
X87630000Y-114300000D03*
D11*
%TO.P,J15,1*%
%TO.N,Net-(J1-Pad1)*%
X87630000Y-111760000D03*
%TD*%
D10*
%TO.P,J2,20*%
%TO.N,Net-(J1-Pad20)*%
X76200000Y-134620000D03*
%TO.P,J2,19*%
%TO.N,Net-(J1-Pad19)*%
X73660000Y-134620000D03*
%TO.P,J2,18*%
%TO.N,Net-(J1-Pad18)*%
X76200000Y-132080000D03*
%TO.P,J2,17*%
%TO.N,Net-(J1-Pad17)*%
X73660000Y-132080000D03*
%TO.P,J2,16*%
%TO.N,Net-(J1-Pad16)*%
X76200000Y-129540000D03*
%TO.P,J2,15*%
%TO.N,Net-(J1-Pad15)*%
X73660000Y-129540000D03*
%TO.P,J2,14*%
%TO.N,Net-(J1-Pad14)*%
X76200000Y-127000000D03*
%TO.P,J2,13*%
%TO.N,Net-(J1-Pad13)*%
X73660000Y-127000000D03*
%TO.P,J2,12*%
%TO.N,Net-(J1-Pad12)*%
X76200000Y-124460000D03*
%TO.P,J2,11*%
%TO.N,Net-(J1-Pad11)*%
X73660000Y-124460000D03*
%TO.P,J2,10*%
%TO.N,Net-(J1-Pad10)*%
X76200000Y-121920000D03*
%TO.P,J2,9*%
%TO.N,Net-(J1-Pad9)*%
X73660000Y-121920000D03*
%TO.P,J2,8*%
%TO.N,Net-(J1-Pad8)*%
X76200000Y-119380000D03*
%TO.P,J2,7*%
%TO.N,Net-(J1-Pad7)*%
X73660000Y-119380000D03*
%TO.P,J2,6*%
%TO.N,Net-(J1-Pad6)*%
X76200000Y-116840000D03*
%TO.P,J2,5*%
%TO.N,Net-(J1-Pad5)*%
X73660000Y-116840000D03*
%TO.P,J2,4*%
%TO.N,Net-(J1-Pad4)*%
X76200000Y-114300000D03*
%TO.P,J2,3*%
%TO.N,Net-(J1-Pad3)*%
X73660000Y-114300000D03*
%TO.P,J2,2*%
%TO.N,Net-(J1-Pad2)*%
X76200000Y-111760000D03*
D11*
%TO.P,J2,1*%
%TO.N,Net-(J1-Pad1)*%
X73660000Y-111760000D03*
%TD*%
D10*
%TO.P,J1,20*%
%TO.N,Net-(J1-Pad20)*%
X60960000Y-134620000D03*
%TO.P,J1,19*%
%TO.N,Net-(J1-Pad19)*%
X58420000Y-134620000D03*
%TO.P,J1,18*%
%TO.N,Net-(J1-Pad18)*%
X60960000Y-132080000D03*
%TO.P,J1,17*%
%TO.N,Net-(J1-Pad17)*%
X58420000Y-132080000D03*
%TO.P,J1,16*%
%TO.N,Net-(J1-Pad16)*%
X60960000Y-129540000D03*
%TO.P,J1,15*%
%TO.N,Net-(J1-Pad15)*%
X58420000Y-129540000D03*
%TO.P,J1,14*%
%TO.N,Net-(J1-Pad14)*%
X60960000Y-127000000D03*
%TO.P,J1,13*%
%TO.N,Net-(J1-Pad13)*%
X58420000Y-127000000D03*
%TO.P,J1,12*%
%TO.N,Net-(J1-Pad12)*%
X60960000Y-124460000D03*
%TO.P,J1,11*%
%TO.N,Net-(J1-Pad11)*%
X58420000Y-124460000D03*
%TO.P,J1,10*%
%TO.N,Net-(J1-Pad10)*%
X60960000Y-121920000D03*
%TO.P,J1,9*%
%TO.N,Net-(J1-Pad9)*%
X58420000Y-121920000D03*
%TO.P,J1,8*%
%TO.N,Net-(J1-Pad8)*%
X60960000Y-119380000D03*
%TO.P,J1,7*%
%TO.N,Net-(J1-Pad7)*%
X58420000Y-119380000D03*
%TO.P,J1,6*%
%TO.N,Net-(J1-Pad6)*%
X60960000Y-116840000D03*
%TO.P,J1,5*%
%TO.N,Net-(J1-Pad5)*%
X58420000Y-116840000D03*
%TO.P,J1,4*%
%TO.N,Net-(J1-Pad4)*%
X60960000Y-114300000D03*
%TO.P,J1,3*%
%TO.N,Net-(J1-Pad3)*%
X58420000Y-114300000D03*
%TO.P,J1,2*%
%TO.N,Net-(J1-Pad2)*%
X60960000Y-111760000D03*
D11*
%TO.P,J1,1*%
%TO.N,Net-(J1-Pad1)*%
X58420000Y-111760000D03*
%TD*%
D10*
%TO.P,J28,8*%
%TO.N,Net-(J10-Pad34)*%
X107950000Y-105410000D03*
%TO.P,J28,7*%
%TO.N,Net-(J10-Pad32)*%
X107950000Y-102870000D03*
%TO.P,J28,6*%
%TO.N,Net-(J10-Pad30)*%
X107950000Y-100330000D03*
%TO.P,J28,5*%
%TO.N,Net-(J10-Pad28)*%
X107950000Y-97790000D03*
%TO.P,J28,4*%
%TO.N,Net-(J10-Pad26)*%
X107950000Y-95250000D03*
%TO.P,J28,3*%
%TO.N,Net-(J10-Pad24)*%
X107950000Y-92710000D03*
%TO.P,J28,2*%
%TO.N,Net-(J10-Pad22)*%
X107950000Y-90170000D03*
D11*
%TO.P,J28,1*%
%TO.N,Net-(J10-Pad20)*%
X107950000Y-87630000D03*
%TD*%
D10*
%TO.P,J27,8*%
%TO.N,Net-(J27-Pad8)*%
X100330000Y-105410000D03*
%TO.P,J27,7*%
%TO.N,Net-(J27-Pad7)*%
X100330000Y-102870000D03*
%TO.P,J27,6*%
%TO.N,Net-(J27-Pad6)*%
X100330000Y-100330000D03*
%TO.P,J27,5*%
%TO.N,Net-(J27-Pad5)*%
X100330000Y-97790000D03*
%TO.P,J27,4*%
%TO.N,Net-(J27-Pad4)*%
X100330000Y-95250000D03*
%TO.P,J27,3*%
%TO.N,Net-(J27-Pad3)*%
X100330000Y-92710000D03*
%TO.P,J27,2*%
%TO.N,Net-(J27-Pad2)*%
X100330000Y-90170000D03*
D11*
%TO.P,J27,1*%
%TO.N,Net-(J27-Pad1)*%
X100330000Y-87630000D03*
%TD*%
D10*
%TO.P,J26,8*%
%TO.N,J998*%
X95250000Y-105410000D03*
%TO.P,J26,7*%
%TO.N,J997*%
X95250000Y-102870000D03*
%TO.P,J26,6*%
%TO.N,J996*%
X95250000Y-100330000D03*
%TO.P,J26,5*%
%TO.N,J995*%
X95250000Y-97790000D03*
%TO.P,J26,4*%
%TO.N,J994*%
X95250000Y-95250000D03*
%TO.P,J26,3*%
%TO.N,J993*%
X95250000Y-92710000D03*
%TO.P,J26,2*%
%TO.N,J992*%
X95250000Y-90170000D03*
D11*
%TO.P,J26,1*%
%TO.N,J991*%
X95250000Y-87630000D03*
%TD*%
D10*
%TO.P,J14,9*%
%TO.N,Net-(J10-Pad18)*%
X107950000Y-81280000D03*
%TO.P,J14,8*%
%TO.N,Net-(J10-Pad16)*%
X107950000Y-78740000D03*
%TO.P,J14,7*%
%TO.N,Net-(J10-Pad14)*%
X107950000Y-76200000D03*
%TO.P,J14,6*%
%TO.N,Net-(J10-Pad12)*%
X107950000Y-73660000D03*
%TO.P,J14,5*%
%TO.N,Net-(J10-Pad10)*%
X107950000Y-71120000D03*
%TO.P,J14,4*%
%TO.N,Net-(J10-Pad8)*%
X107950000Y-68580000D03*
%TO.P,J14,3*%
%TO.N,Net-(J10-Pad6)*%
X107950000Y-66040000D03*
%TO.P,J14,2*%
%TO.N,Net-(J10-Pad4)*%
X107950000Y-63500000D03*
D11*
%TO.P,J14,1*%
%TO.N,Net-(J10-Pad2)*%
X107950000Y-60960000D03*
%TD*%
D10*
%TO.P,J13,9*%
%TO.N,Net-(J13-Pad9)*%
X100330000Y-81280000D03*
%TO.P,J13,8*%
%TO.N,Net-(J13-Pad8)*%
X100330000Y-78740000D03*
%TO.P,J13,7*%
%TO.N,Net-(J13-Pad7)*%
X100330000Y-76200000D03*
%TO.P,J13,6*%
%TO.N,Net-(J13-Pad6)*%
X100330000Y-73660000D03*
%TO.P,J13,5*%
%TO.N,Net-(J13-Pad5)*%
X100330000Y-71120000D03*
%TO.P,J13,4*%
%TO.N,Net-(J13-Pad4)*%
X100330000Y-68580000D03*
%TO.P,J13,3*%
%TO.N,Net-(J13-Pad3)*%
X100330000Y-66040000D03*
%TO.P,J13,2*%
%TO.N,Net-(J13-Pad2)*%
X100330000Y-63500000D03*
D11*
%TO.P,J13,1*%
%TO.N,Net-(J13-Pad1)*%
X100330000Y-60960000D03*
%TD*%
D10*
%TO.P,J12,9*%
%TO.N,J99*%
X95250000Y-81280000D03*
%TO.P,J12,8*%
%TO.N,J98*%
X95250000Y-78740000D03*
%TO.P,J12,7*%
%TO.N,J97*%
X95250000Y-76200000D03*
%TO.P,J12,6*%
%TO.N,J96*%
X95250000Y-73660000D03*
%TO.P,J12,5*%
%TO.N,J95*%
X95250000Y-71120000D03*
%TO.P,J12,4*%
%TO.N,J94*%
X95250000Y-68580000D03*
%TO.P,J12,3*%
%TO.N,J93*%
X95250000Y-66040000D03*
%TO.P,J12,2*%
%TO.N,J92*%
X95250000Y-63500000D03*
D11*
%TO.P,J12,1*%
%TO.N,J91*%
X95250000Y-60960000D03*
%TD*%
D10*
%TO.P,J11,9*%
%TO.N,J79*%
X87630000Y-81280000D03*
%TO.P,J11,8*%
%TO.N,J78*%
X87630000Y-78740000D03*
%TO.P,J11,7*%
%TO.N,J77*%
X87630000Y-76200000D03*
%TO.P,J11,6*%
%TO.N,J76*%
X87630000Y-73660000D03*
%TO.P,J11,5*%
%TO.N,J75*%
X87630000Y-71120000D03*
%TO.P,J11,4*%
%TO.N,J74*%
X87630000Y-68580000D03*
%TO.P,J11,3*%
%TO.N,J73*%
X87630000Y-66040000D03*
%TO.P,J11,2*%
%TO.N,J72*%
X87630000Y-63500000D03*
D11*
%TO.P,J11,1*%
%TO.N,J71*%
X87630000Y-60960000D03*
%TD*%
D12*
%TO.N,Net-(J1-Pad2)*%
X66800000Y-113030000D02*
X74930000Y-113030000D01*
X60960000Y-111760000D02*
X65530000Y-111760000D01*
X65530000Y-111760000D02*
X66800000Y-113030000D01*
X74930000Y-113030000D02*
X76200000Y-111760000D01*
X76200000Y-111760000D02*
X80130000Y-111760000D01*
X99060000Y-113030000D02*
X100330000Y-111760000D01*
X80130000Y-111760000D02*
X81400000Y-113030000D01*
X81400000Y-113030000D02*
X99060000Y-113030000D01*
%TO.N,Net-(J1-Pad4)*%
X65530000Y-114300000D02*
X66800000Y-115570000D01*
X66800000Y-115570000D02*
X74930000Y-115570000D01*
X60960000Y-114300000D02*
X65530000Y-114300000D01*
X74930000Y-115570000D02*
X76200000Y-114300000D01*
X80130000Y-114300000D02*
X81400000Y-115570000D01*
X76200000Y-114300000D02*
X80130000Y-114300000D01*
X99060000Y-115570000D02*
X100330000Y-114300000D01*
X81400000Y-115570000D02*
X99060000Y-115570000D01*
%TO.N,Net-(J1-Pad6)*%
X66800000Y-118110000D02*
X74930000Y-118110000D01*
X65530000Y-116840000D02*
X66800000Y-118110000D01*
X74930000Y-118110000D02*
X76200000Y-116840000D01*
X60960000Y-116840000D02*
X65530000Y-116840000D01*
X80130000Y-116840000D02*
X81400000Y-118110000D01*
X76200000Y-116840000D02*
X80130000Y-116840000D01*
X99060000Y-118110000D02*
X100330000Y-116840000D01*
X81400000Y-118110000D02*
X99060000Y-118110000D01*
%TO.N,Net-(J1-Pad8)*%
X66800000Y-120650000D02*
X74930000Y-120650000D01*
X74930000Y-120650000D02*
X76200000Y-119380000D01*
X65530000Y-119380000D02*
X66800000Y-120650000D01*
X60960000Y-119380000D02*
X65530000Y-119380000D01*
X76200000Y-119380000D02*
X80130000Y-119380000D01*
X81400000Y-120650000D02*
X99060000Y-120650000D01*
X80130000Y-119380000D02*
X81400000Y-120650000D01*
X99060000Y-120650000D02*
X100330000Y-119380000D01*
%TO.N,Net-(J1-Pad10)*%
X66800000Y-123190000D02*
X74930000Y-123190000D01*
X60960000Y-121920000D02*
X65530000Y-121920000D01*
X65530000Y-121920000D02*
X66800000Y-123190000D01*
X74930000Y-123190000D02*
X76200000Y-121920000D01*
X80130000Y-121920000D02*
X81400000Y-123190000D01*
X99060000Y-123190000D02*
X100330000Y-121920000D01*
X76200000Y-121920000D02*
X80130000Y-121920000D01*
X81400000Y-123190000D02*
X99060000Y-123190000D01*
%TO.N,Net-(J1-Pad12)*%
X65530000Y-124460000D02*
X66800000Y-125730000D01*
X66800000Y-125730000D02*
X74930000Y-125730000D01*
X60960000Y-124460000D02*
X65530000Y-124460000D01*
X74930000Y-125730000D02*
X76200000Y-124460000D01*
X81400000Y-125730000D02*
X99060000Y-125730000D01*
X76200000Y-124460000D02*
X80130000Y-124460000D01*
X99060000Y-125730000D02*
X100330000Y-124460000D01*
X80130000Y-124460000D02*
X81400000Y-125730000D01*
%TO.N,Net-(J1-Pad14)*%
X66800000Y-128270000D02*
X74930000Y-128270000D01*
X65530000Y-127000000D02*
X66800000Y-128270000D01*
X74930000Y-128270000D02*
X76200000Y-127000000D01*
X60960000Y-127000000D02*
X65530000Y-127000000D01*
X76200000Y-127000000D02*
X80130000Y-127000000D01*
X99060000Y-128270000D02*
X100330000Y-127000000D01*
X80130000Y-127000000D02*
X81400000Y-128270000D01*
X81400000Y-128270000D02*
X99060000Y-128270000D01*
%TO.N,Net-(J1-Pad16)*%
X66800000Y-130810000D02*
X74930000Y-130810000D01*
X74930000Y-130810000D02*
X76200000Y-129540000D01*
X65530000Y-129540000D02*
X66800000Y-130810000D01*
X60960000Y-129540000D02*
X65530000Y-129540000D01*
X80130000Y-129540000D02*
X81400000Y-130810000D01*
X81400000Y-130810000D02*
X99060000Y-130810000D01*
X76200000Y-129540000D02*
X80130000Y-129540000D01*
X99060000Y-130810000D02*
X100330000Y-129540000D01*
%TO.N,Net-(J1-Pad18)*%
X66800000Y-133350000D02*
X74930000Y-133350000D01*
X60960000Y-132080000D02*
X65530000Y-132080000D01*
X65530000Y-132080000D02*
X66800000Y-133350000D01*
X74930000Y-133350000D02*
X76200000Y-132080000D01*
X81400000Y-133350000D02*
X99060000Y-133350000D01*
X76200000Y-132080000D02*
X80130000Y-132080000D01*
X99060000Y-133350000D02*
X100330000Y-132080000D01*
X80130000Y-132080000D02*
X81400000Y-133350000D01*
%TO.N,Net-(J1-Pad20)*%
X74930000Y-135890000D02*
X76200000Y-134620000D01*
X65530000Y-134620000D02*
X66800000Y-135890000D01*
X60960000Y-134620000D02*
X65530000Y-134620000D01*
X66800000Y-135890000D02*
X74930000Y-135890000D01*
X81400000Y-135890000D02*
X99060000Y-135890000D01*
X99060000Y-135890000D02*
X100330000Y-134620000D01*
X76200000Y-134620000D02*
X80130000Y-134620000D01*
X80130000Y-134620000D02*
X81400000Y-135890000D01*
%TO.N,Net-(J10-Pad2)*%
X121920000Y-60960000D02*
X126490000Y-60960000D01*
X126490000Y-60960000D02*
X127760000Y-62230000D01*
X135890000Y-62230000D02*
X137160000Y-60960000D01*
X127760000Y-62230000D02*
X135890000Y-62230000D01*
X107950000Y-60960000D02*
X112690000Y-60960000D01*
X112690000Y-60960000D02*
X113950000Y-62220000D01*
X120660000Y-62220000D02*
X121920000Y-60960000D01*
X113950000Y-62220000D02*
X120660000Y-62220000D01*
%TO.N,Net-(J10-Pad4)*%
X127760000Y-64770000D02*
X135890000Y-64770000D01*
X126490000Y-63500000D02*
X127760000Y-64770000D01*
X135890000Y-64770000D02*
X137160000Y-63500000D01*
X121920000Y-63500000D02*
X126490000Y-63500000D01*
X113950000Y-64760000D02*
X120660000Y-64760000D01*
X112690000Y-63500000D02*
X113950000Y-64760000D01*
X107950000Y-63500000D02*
X112690000Y-63500000D01*
X120660000Y-64760000D02*
X121920000Y-63500000D01*
%TO.N,Net-(J10-Pad6)*%
X135890000Y-67310000D02*
X137160000Y-66040000D01*
X127760000Y-67310000D02*
X135890000Y-67310000D01*
X121920000Y-66040000D02*
X126490000Y-66040000D01*
X126490000Y-66040000D02*
X127760000Y-67310000D01*
X107950000Y-66040000D02*
X112690000Y-66040000D01*
X112690000Y-66040000D02*
X113950000Y-67300000D01*
X113950000Y-67300000D02*
X120660000Y-67300000D01*
X120660000Y-67300000D02*
X121920000Y-66040000D01*
%TO.N,Net-(J10-Pad8)*%
X135890000Y-69850000D02*
X137160000Y-68580000D01*
X126490000Y-68580000D02*
X127760000Y-69850000D01*
X121920000Y-68580000D02*
X126490000Y-68580000D01*
X127760000Y-69850000D02*
X135890000Y-69850000D01*
X112690000Y-68580000D02*
X113950000Y-69840000D01*
X113950000Y-69840000D02*
X120660000Y-69840000D01*
X107950000Y-68580000D02*
X112690000Y-68580000D01*
X120660000Y-69840000D02*
X121920000Y-68580000D01*
%TO.N,Net-(J10-Pad10)*%
X126490000Y-71120000D02*
X127760000Y-72390000D01*
X127760000Y-72390000D02*
X135890000Y-72390000D01*
X135890000Y-72390000D02*
X137160000Y-71120000D01*
X121920000Y-71120000D02*
X126490000Y-71120000D01*
X113950000Y-72380000D02*
X120660000Y-72380000D01*
X107950000Y-71120000D02*
X112690000Y-71120000D01*
X120660000Y-72380000D02*
X121920000Y-71120000D01*
X112690000Y-71120000D02*
X113950000Y-72380000D01*
%TO.N,Net-(J10-Pad12)*%
X112690000Y-73660000D02*
X113950000Y-74920000D01*
X107950000Y-73660000D02*
X112690000Y-73660000D01*
X120660000Y-74920000D02*
X121920000Y-73660000D01*
X113950000Y-74920000D02*
X120660000Y-74920000D01*
X126490000Y-73660000D02*
X127760000Y-74930000D01*
X121920000Y-73660000D02*
X126490000Y-73660000D01*
X135890000Y-74930000D02*
X137160000Y-73660000D01*
X127760000Y-74930000D02*
X135890000Y-74930000D01*
%TO.N,Net-(J10-Pad14)*%
X107950000Y-76200000D02*
X112690000Y-76200000D01*
X112690000Y-76200000D02*
X113950000Y-77460000D01*
X120660000Y-77460000D02*
X121920000Y-76200000D01*
X113950000Y-77460000D02*
X120660000Y-77460000D01*
X127760000Y-77470000D02*
X135890000Y-77470000D01*
X135890000Y-77470000D02*
X137160000Y-76200000D01*
X126490000Y-76200000D02*
X127760000Y-77470000D01*
X121920000Y-76200000D02*
X126490000Y-76200000D01*
%TO.N,Net-(J10-Pad16)*%
X127760000Y-80010000D02*
X135890000Y-80010000D01*
X126490000Y-78740000D02*
X127760000Y-80010000D01*
X135890000Y-80010000D02*
X137160000Y-78740000D01*
X121920000Y-78740000D02*
X126490000Y-78740000D01*
X113950000Y-80000000D02*
X120660000Y-80000000D01*
X107950000Y-78740000D02*
X112690000Y-78740000D01*
X112690000Y-78740000D02*
X113950000Y-80000000D01*
X120660000Y-80000000D02*
X121920000Y-78740000D01*
X126490000Y-78740000D02*
X127760000Y-80010000D01*
X135890000Y-80010000D02*
X137160000Y-78740000D01*
X127760000Y-80010000D02*
X135890000Y-80010000D01*
X121920000Y-78740000D02*
X126490000Y-78740000D01*
%TO.N,Net-(J10-Pad18)*%
X135890000Y-82550000D02*
X137160000Y-81280000D01*
X126490000Y-81280000D02*
X127760000Y-82550000D01*
X127760000Y-82550000D02*
X135890000Y-82550000D01*
X121920000Y-81280000D02*
X126490000Y-81280000D01*
X107950000Y-81280000D02*
X112690000Y-81280000D01*
X113950000Y-82540000D02*
X120660000Y-82540000D01*
X112690000Y-81280000D02*
X113950000Y-82540000D01*
X120660000Y-82540000D02*
X121920000Y-81280000D01*
X126490000Y-81280000D02*
X127760000Y-82550000D01*
X127760000Y-82550000D02*
X135890000Y-82550000D01*
X135890000Y-82550000D02*
X137160000Y-81280000D01*
X121920000Y-81280000D02*
X126490000Y-81280000D01*
%TO.N,Net-(J13-Pad1)*%
X60960000Y-60960000D02*
X65530000Y-60960000D01*
X65530000Y-60960000D02*
X66800000Y-62230000D01*
X74930000Y-62230000D02*
X76200000Y-60960000D01*
X66800000Y-62230000D02*
X74930000Y-62230000D01*
X76200000Y-60960000D02*
X80130000Y-60960000D01*
X80130000Y-60960000D02*
X81400000Y-62230000D01*
X99060000Y-62230000D02*
X100330000Y-60960000D01*
X81400000Y-62230000D02*
X99060000Y-62230000D01*
%TO.N,Net-(J13-Pad2)*%
X65530000Y-63500000D02*
X66800000Y-64770000D01*
X74930000Y-64770000D02*
X76200000Y-63500000D01*
X60960000Y-63500000D02*
X65530000Y-63500000D01*
X66800000Y-64770000D02*
X74930000Y-64770000D01*
X76200000Y-63500000D02*
X80130000Y-63500000D01*
X99060000Y-64770000D02*
X100330000Y-63500000D01*
X80130000Y-63500000D02*
X81400000Y-64770000D01*
X81400000Y-64770000D02*
X99060000Y-64770000D01*
%TO.N,Net-(J13-Pad3)*%
X60960000Y-66040000D02*
X65530000Y-66040000D01*
X74930000Y-67310000D02*
X76200000Y-66040000D01*
X65530000Y-66040000D02*
X66800000Y-67310000D01*
X66800000Y-67310000D02*
X74930000Y-67310000D01*
X76200000Y-66040000D02*
X80130000Y-66040000D01*
X81400000Y-67310000D02*
X99060000Y-67310000D01*
X99060000Y-67310000D02*
X100330000Y-66040000D01*
X80130000Y-66040000D02*
X81400000Y-67310000D01*
%TO.N,Net-(J13-Pad4)*%
X60960000Y-68580000D02*
X65530000Y-68580000D01*
X66800000Y-69850000D02*
X74930000Y-69850000D01*
X65530000Y-68580000D02*
X66800000Y-69850000D01*
X74930000Y-69850000D02*
X76200000Y-68580000D01*
X80130000Y-68580000D02*
X81400000Y-69850000D01*
X99060000Y-69850000D02*
X100330000Y-68580000D01*
X81400000Y-69850000D02*
X99060000Y-69850000D01*
X76200000Y-68580000D02*
X80130000Y-68580000D01*
%TO.N,Net-(J13-Pad5)*%
X60960000Y-71120000D02*
X65530000Y-71120000D01*
X65530000Y-71120000D02*
X66800000Y-72390000D01*
X66800000Y-72390000D02*
X74930000Y-72390000D01*
X74930000Y-72390000D02*
X76200000Y-71120000D01*
X80130000Y-71120000D02*
X81400000Y-72390000D01*
X76200000Y-71120000D02*
X80130000Y-71120000D01*
X99060000Y-72390000D02*
X100330000Y-71120000D01*
X81400000Y-72390000D02*
X99060000Y-72390000D01*
%TO.N,Net-(J13-Pad6)*%
X65530000Y-73660000D02*
X66800000Y-74930000D01*
X66800000Y-74930000D02*
X74930000Y-74930000D01*
X74930000Y-74930000D02*
X76200000Y-73660000D01*
X60960000Y-73660000D02*
X65530000Y-73660000D01*
X80130000Y-73660000D02*
X81400000Y-74930000D01*
X99060000Y-74930000D02*
X100330000Y-73660000D01*
X81400000Y-74930000D02*
X99060000Y-74930000D01*
X76200000Y-73660000D02*
X80130000Y-73660000D01*
%TO.N,Net-(J13-Pad7)*%
X66800000Y-77470000D02*
X74930000Y-77470000D01*
X60960000Y-76200000D02*
X65530000Y-76200000D01*
X65530000Y-76200000D02*
X66800000Y-77470000D01*
X74930000Y-77470000D02*
X76200000Y-76200000D01*
X80130000Y-76200000D02*
X81400000Y-77470000D01*
X99060000Y-77470000D02*
X100330000Y-76200000D01*
X81400000Y-77470000D02*
X99060000Y-77470000D01*
X76200000Y-76200000D02*
X80130000Y-76200000D01*
%TO.N,Net-(J13-Pad8)*%
X65530000Y-78740000D02*
X66800000Y-80010000D01*
X60960000Y-78740000D02*
X65530000Y-78740000D01*
X66800000Y-80010000D02*
X74930000Y-80010000D01*
X74930000Y-80010000D02*
X76200000Y-78740000D01*
X80130000Y-78740000D02*
X81400000Y-80010000D01*
X99060000Y-80010000D02*
X100330000Y-78740000D01*
X81400000Y-80010000D02*
X99060000Y-80010000D01*
X76200000Y-78740000D02*
X80130000Y-78740000D01*
%TO.N,Net-(J13-Pad9)*%
X60960000Y-81280000D02*
X65530000Y-81280000D01*
X65530000Y-81280000D02*
X66800000Y-82550000D01*
X74930000Y-82550000D02*
X76200000Y-81280000D01*
X66800000Y-82550000D02*
X74930000Y-82550000D01*
X76200000Y-81280000D02*
X80130000Y-81280000D01*
X99060000Y-82550000D02*
X100330000Y-81280000D01*
X80130000Y-81280000D02*
X81400000Y-82550000D01*
X81400000Y-82550000D02*
X99060000Y-82550000D01*
%TO.N,Net-(J18-Pad1)*%
X135890000Y-113030000D02*
X137160000Y-111760000D01*
X127760000Y-113030000D02*
X135890000Y-113030000D01*
X126490000Y-111760000D02*
X127760000Y-113030000D01*
X121920000Y-111760000D02*
X126490000Y-111760000D01*
X112690000Y-111760000D02*
X113950000Y-113020000D01*
X120660000Y-113020000D02*
X121920000Y-111760000D01*
X107950000Y-111760000D02*
X112690000Y-111760000D01*
X113950000Y-113020000D02*
X120660000Y-113020000D01*
%TO.N,Net-(J18-Pad2)*%
X121920000Y-114300000D02*
X126490000Y-114300000D01*
X127760000Y-115570000D02*
X135890000Y-115570000D01*
X126490000Y-114300000D02*
X127760000Y-115570000D01*
X135890000Y-115570000D02*
X137160000Y-114300000D01*
X120660000Y-115560000D02*
X121920000Y-114300000D01*
X112690000Y-114300000D02*
X113950000Y-115560000D01*
X107950000Y-114300000D02*
X112690000Y-114300000D01*
X113950000Y-115560000D02*
X120660000Y-115560000D01*
%TO.N,Net-(J18-Pad3)*%
X126490000Y-116840000D02*
X127760000Y-118110000D01*
X121920000Y-116840000D02*
X126490000Y-116840000D01*
X135890000Y-118110000D02*
X137160000Y-116840000D01*
X127760000Y-118110000D02*
X135890000Y-118110000D01*
X120660000Y-118100000D02*
X121920000Y-116840000D01*
X113950000Y-118100000D02*
X120660000Y-118100000D01*
X112690000Y-116840000D02*
X113950000Y-118100000D01*
X107950000Y-116840000D02*
X112690000Y-116840000D01*
%TO.N,Net-(J18-Pad4)*%
X127760000Y-120650000D02*
X135890000Y-120650000D01*
X121920000Y-119380000D02*
X126490000Y-119380000D01*
X126490000Y-119380000D02*
X127760000Y-120650000D01*
X135890000Y-120650000D02*
X137160000Y-119380000D01*
X113950000Y-120640000D02*
X120660000Y-120640000D01*
X120660000Y-120640000D02*
X121920000Y-119380000D01*
X112690000Y-119380000D02*
X113950000Y-120640000D01*
X107950000Y-119380000D02*
X112690000Y-119380000D01*
%TO.N,Net-(J18-Pad5)*%
X126490000Y-121920000D02*
X127760000Y-123190000D01*
X135890000Y-123190000D02*
X137160000Y-121920000D01*
X127760000Y-123190000D02*
X135890000Y-123190000D01*
X121920000Y-121920000D02*
X126490000Y-121920000D01*
X112690000Y-121920000D02*
X113950000Y-123180000D01*
X113950000Y-123180000D02*
X120660000Y-123180000D01*
X120660000Y-123180000D02*
X121920000Y-121920000D01*
X107950000Y-121920000D02*
X112690000Y-121920000D01*
%TO.N,Net-(J18-Pad6)*%
X135890000Y-125730000D02*
X137160000Y-124460000D01*
X127760000Y-125730000D02*
X135890000Y-125730000D01*
X126490000Y-124460000D02*
X127760000Y-125730000D01*
X121920000Y-124460000D02*
X126490000Y-124460000D01*
X113950000Y-125720000D02*
X120660000Y-125720000D01*
X107950000Y-124460000D02*
X112690000Y-124460000D01*
X112690000Y-124460000D02*
X113950000Y-125720000D01*
X120660000Y-125720000D02*
X121920000Y-124460000D01*
%TO.N,Net-(J18-Pad7)*%
X127760000Y-128270000D02*
X135890000Y-128270000D01*
X135890000Y-128270000D02*
X137160000Y-127000000D01*
X121920000Y-127000000D02*
X126490000Y-127000000D01*
X126490000Y-127000000D02*
X127760000Y-128270000D01*
X112690000Y-127000000D02*
X113950000Y-128260000D01*
X113950000Y-128260000D02*
X120660000Y-128260000D01*
X107950000Y-127000000D02*
X112690000Y-127000000D01*
X120660000Y-128260000D02*
X121920000Y-127000000D01*
%TO.N,Net-(J18-Pad8)*%
X121920000Y-129540000D02*
X126490000Y-129540000D01*
X135890000Y-130810000D02*
X137160000Y-129540000D01*
X126490000Y-129540000D02*
X127760000Y-130810000D01*
X127760000Y-130810000D02*
X135890000Y-130810000D01*
X113950000Y-130800000D02*
X120660000Y-130800000D01*
X112690000Y-129540000D02*
X113950000Y-130800000D01*
X120660000Y-130800000D02*
X121920000Y-129540000D01*
X107950000Y-129540000D02*
X112690000Y-129540000D01*
%TO.N,Net-(J18-Pad9)*%
X121920000Y-132080000D02*
X126490000Y-132080000D01*
X126490000Y-132080000D02*
X127760000Y-133350000D01*
X135890000Y-133350000D02*
X137160000Y-132080000D01*
X127760000Y-133350000D02*
X135890000Y-133350000D01*
X120660000Y-133340000D02*
X121920000Y-132080000D01*
X113950000Y-133340000D02*
X120660000Y-133340000D01*
X112690000Y-132080000D02*
X113950000Y-133340000D01*
X107950000Y-132080000D02*
X112690000Y-132080000D01*
%TO.N,Net-(J18-Pad10)*%
X127760000Y-135890000D02*
X135890000Y-135890000D01*
X135890000Y-135890000D02*
X137160000Y-134620000D01*
X126490000Y-134620000D02*
X127760000Y-135890000D01*
X121920000Y-134620000D02*
X126490000Y-134620000D01*
X107950000Y-134620000D02*
X112690000Y-134620000D01*
X113950000Y-135880000D02*
X120660000Y-135880000D01*
X112690000Y-134620000D02*
X113950000Y-135880000D01*
X120660000Y-135880000D02*
X121920000Y-134620000D01*
%TO.N,Net-(J22-Pad7)*%
X229360000Y-90170000D02*
X237490000Y-90170000D01*
X237490000Y-90170000D02*
X238760000Y-88900000D01*
X223520000Y-88900000D02*
X228090000Y-88900000D01*
X228090000Y-88900000D02*
X229360000Y-90170000D01*
X209550000Y-76706002D02*
X209550000Y-76200000D01*
X220473998Y-87630000D02*
X209550000Y-76706002D01*
X222250000Y-87630000D02*
X220473998Y-87630000D01*
X223520000Y-88900000D02*
X222250000Y-87630000D01*
%TO.N,Net-(J22-Pad6)*%
X237490000Y-87630000D02*
X238760000Y-86360000D01*
X229360000Y-87630000D02*
X237490000Y-87630000D01*
X228090000Y-86360000D02*
X229360000Y-87630000D01*
X223520000Y-86360000D02*
X228090000Y-86360000D01*
X209550000Y-74166002D02*
X209550000Y-73660000D01*
X220473998Y-85090000D02*
X209550000Y-74166002D01*
X222250000Y-85090000D02*
X220473998Y-85090000D01*
X223520000Y-86360000D02*
X222250000Y-85090000D01*
%TO.N,Net-(J22-Pad5)*%
X229360000Y-85090000D02*
X237490000Y-85090000D01*
X237490000Y-85090000D02*
X238760000Y-83820000D01*
X228090000Y-83820000D02*
X229360000Y-85090000D01*
X223520000Y-83820000D02*
X228090000Y-83820000D01*
X209550000Y-71626002D02*
X209550000Y-71120000D01*
X220473998Y-82550000D02*
X209550000Y-71626002D01*
X222250000Y-82550000D02*
X220473998Y-82550000D01*
X223520000Y-83820000D02*
X222250000Y-82550000D01*
%TO.N,Net-(J22-Pad4)*%
X223520000Y-81280000D02*
X228090000Y-81280000D01*
X228090000Y-81280000D02*
X229360000Y-82550000D01*
X229360000Y-82550000D02*
X237490000Y-82550000D01*
X237490000Y-82550000D02*
X238760000Y-81280000D01*
X220473998Y-80010000D02*
X209550000Y-69086002D01*
X222250000Y-80010000D02*
X220473998Y-80010000D01*
X209550000Y-69086002D02*
X209550000Y-68580000D01*
X223520000Y-81280000D02*
X222250000Y-80010000D01*
%TO.N,Net-(J22-Pad3)*%
X223520000Y-78740000D02*
X228090000Y-78740000D01*
X228090000Y-78740000D02*
X229360000Y-80010000D01*
X237490000Y-80010000D02*
X238760000Y-78740000D01*
X229360000Y-80010000D02*
X237490000Y-80010000D01*
X209550000Y-66546002D02*
X209550000Y-66040000D01*
X220473998Y-77470000D02*
X209550000Y-66546002D01*
X222250000Y-77470000D02*
X220473998Y-77470000D01*
X223520000Y-78740000D02*
X222250000Y-77470000D01*
%TO.N,Net-(J22-Pad2)*%
X229360000Y-77470000D02*
X237490000Y-77470000D01*
X223520000Y-76200000D02*
X228090000Y-76200000D01*
X228090000Y-76200000D02*
X229360000Y-77470000D01*
X237490000Y-77470000D02*
X238760000Y-76200000D01*
X220216002Y-74930000D02*
X209550000Y-64263998D01*
X222250000Y-74930000D02*
X220216002Y-74930000D01*
X209550000Y-64263998D02*
X209550000Y-63500000D01*
X223520000Y-76200000D02*
X222250000Y-74930000D01*
%TO.N,Net-(J22-Pad1)*%
X228090000Y-73660000D02*
X229360000Y-74930000D01*
X223520000Y-73660000D02*
X228090000Y-73660000D01*
X229360000Y-74930000D02*
X237490000Y-74930000D01*
X237490000Y-74930000D02*
X238760000Y-73660000D01*
X209590000Y-61000000D02*
X209550000Y-60960000D01*
X212500000Y-61000000D02*
X209590000Y-61000000D01*
X223520000Y-72020000D02*
X212500000Y-61000000D01*
X223520000Y-73660000D02*
X223520000Y-72020000D01*
%TO.N,Net-(J27-Pad8)*%
X74930000Y-102870000D02*
X76200000Y-101600000D01*
X66800000Y-102870000D02*
X74930000Y-102870000D01*
X60960000Y-101600000D02*
X65530000Y-101600000D01*
X65530000Y-101600000D02*
X66800000Y-102870000D01*
X99040000Y-106700000D02*
X100330000Y-105410000D01*
X76200000Y-101600000D02*
X78160000Y-101600000D01*
X78160000Y-101600000D02*
X83260000Y-106700000D01*
X83260000Y-106700000D02*
X99040000Y-106700000D01*
%TO.N,Net-(J27-Pad7)*%
X60960000Y-99060000D02*
X65530000Y-99060000D01*
X65530000Y-99060000D02*
X66800000Y-100330000D01*
X74930000Y-100330000D02*
X76200000Y-99060000D01*
X66800000Y-100330000D02*
X74930000Y-100330000D01*
X99040000Y-104160000D02*
X100330000Y-102870000D01*
X83260000Y-104160000D02*
X99040000Y-104160000D01*
X76200000Y-99060000D02*
X78160000Y-99060000D01*
X78160000Y-99060000D02*
X83260000Y-104160000D01*
%TO.N,Net-(J27-Pad6)*%
X65530000Y-96520000D02*
X66800000Y-97790000D01*
X66800000Y-97790000D02*
X74930000Y-97790000D01*
X74930000Y-97790000D02*
X76200000Y-96520000D01*
X60960000Y-96520000D02*
X65530000Y-96520000D01*
X78160000Y-96520000D02*
X83260000Y-101620000D01*
X76200000Y-96520000D02*
X78160000Y-96520000D01*
X83260000Y-101620000D02*
X99040000Y-101620000D01*
X99040000Y-101620000D02*
X100330000Y-100330000D01*
%TO.N,Net-(J27-Pad5)*%
X66800000Y-95250000D02*
X74930000Y-95250000D01*
X60960000Y-93980000D02*
X65530000Y-93980000D01*
X74930000Y-95250000D02*
X76200000Y-93980000D01*
X65530000Y-93980000D02*
X66800000Y-95250000D01*
X83260000Y-99080000D02*
X99040000Y-99080000D01*
X99040000Y-99080000D02*
X100330000Y-97790000D01*
X78160000Y-93980000D02*
X83260000Y-99080000D01*
X76200000Y-93980000D02*
X78160000Y-93980000D01*
%TO.N,Net-(J27-Pad4)*%
X74930000Y-92710000D02*
X76200000Y-91440000D01*
X65530000Y-91440000D02*
X66800000Y-92710000D01*
X60960000Y-91440000D02*
X65530000Y-91440000D01*
X66800000Y-92710000D02*
X74930000Y-92710000D01*
X83260000Y-96540000D02*
X99040000Y-96540000D01*
X78160000Y-91440000D02*
X83260000Y-96540000D01*
X99040000Y-96540000D02*
X100330000Y-95250000D01*
X76200000Y-91440000D02*
X78160000Y-91440000D01*
%TO.N,Net-(J27-Pad3)*%
X60960000Y-88900000D02*
X65530000Y-88900000D01*
X66800000Y-90170000D02*
X74930000Y-90170000D01*
X65530000Y-88900000D02*
X66800000Y-90170000D01*
X74930000Y-90170000D02*
X76200000Y-88900000D01*
X83260000Y-94000000D02*
X99040000Y-94000000D01*
X78160000Y-88900000D02*
X83260000Y-94000000D01*
X99040000Y-94000000D02*
X100330000Y-92710000D01*
X76200000Y-88900000D02*
X78160000Y-88900000D01*
%TO.N,Net-(J27-Pad2)*%
X65530000Y-86360000D02*
X66800000Y-87630000D01*
X60960000Y-86360000D02*
X65530000Y-86360000D01*
X66800000Y-87630000D02*
X74930000Y-87630000D01*
X74930000Y-87630000D02*
X76200000Y-86360000D01*
X99040000Y-91460000D02*
X100330000Y-90170000D01*
X83260000Y-91460000D02*
X99040000Y-91460000D01*
X76200000Y-86360000D02*
X78160000Y-86360000D01*
X78160000Y-86360000D02*
X83260000Y-91460000D01*
%TO.N,Net-(J27-Pad1)*%
X60960000Y-83820000D02*
X65530000Y-83820000D01*
X65530000Y-83820000D02*
X66800000Y-85090000D01*
X66800000Y-85090000D02*
X74930000Y-85090000D01*
X74930000Y-85090000D02*
X76200000Y-83820000D01*
X76200000Y-83820000D02*
X78160000Y-83820000D01*
X78160000Y-83820000D02*
X83260000Y-88920000D01*
X99040000Y-88920000D02*
X100330000Y-87630000D01*
X83260000Y-88920000D02*
X99040000Y-88920000D01*
%TO.N,Net-(J41-Pad7)*%
X176530000Y-90170000D02*
X177800000Y-88900000D01*
X167130000Y-88900000D02*
X168400000Y-90170000D01*
X168400000Y-90170000D02*
X176530000Y-90170000D01*
X162560000Y-88900000D02*
X167130000Y-88900000D01*
X189230000Y-77470000D02*
X177800000Y-88900000D01*
X200660000Y-77470000D02*
X189230000Y-77470000D01*
X201930000Y-76200000D02*
X200660000Y-77470000D01*
%TO.N,Net-(J41-Pad6)*%
X168400000Y-87630000D02*
X176530000Y-87630000D01*
X167130000Y-86360000D02*
X168400000Y-87630000D01*
X176530000Y-87630000D02*
X177800000Y-86360000D01*
X162560000Y-86360000D02*
X167130000Y-86360000D01*
X177800000Y-85853998D02*
X177800000Y-86360000D01*
X200660000Y-74930000D02*
X188723998Y-74930000D01*
X188723998Y-74930000D02*
X177800000Y-85853998D01*
X201930000Y-73660000D02*
X200660000Y-74930000D01*
%TO.N,Net-(J41-Pad5)*%
X168400000Y-85090000D02*
X176530000Y-85090000D01*
X176530000Y-85090000D02*
X177800000Y-83820000D01*
X167130000Y-83820000D02*
X168400000Y-85090000D01*
X162560000Y-83820000D02*
X167130000Y-83820000D01*
X177800000Y-83313998D02*
X177800000Y-83820000D01*
X188723998Y-72390000D02*
X177800000Y-83313998D01*
X200660000Y-72390000D02*
X188723998Y-72390000D01*
X201930000Y-71120000D02*
X200660000Y-72390000D01*
%TO.N,Net-(J41-Pad4)*%
X167130000Y-81280000D02*
X168400000Y-82550000D01*
X168400000Y-82550000D02*
X176530000Y-82550000D01*
X176530000Y-82550000D02*
X177800000Y-81280000D01*
X162560000Y-81280000D02*
X167130000Y-81280000D01*
X177800000Y-80773998D02*
X177800000Y-81280000D01*
X188723998Y-69850000D02*
X177800000Y-80773998D01*
X200660000Y-69850000D02*
X188723998Y-69850000D01*
X201930000Y-68580000D02*
X200660000Y-69850000D01*
%TO.N,Net-(J41-Pad3)*%
X167130000Y-78740000D02*
X168400000Y-80010000D01*
X176530000Y-80010000D02*
X177800000Y-78740000D01*
X168400000Y-80010000D02*
X176530000Y-80010000D01*
X162560000Y-78740000D02*
X167130000Y-78740000D01*
X177800000Y-78233998D02*
X177800000Y-78740000D01*
X200660000Y-67310000D02*
X188723998Y-67310000D01*
X188723998Y-67310000D02*
X177800000Y-78233998D01*
X201930000Y-66040000D02*
X200660000Y-67310000D01*
%TO.N,Net-(J41-Pad2)*%
X168400000Y-77470000D02*
X176530000Y-77470000D01*
X176530000Y-77470000D02*
X177800000Y-76200000D01*
X167130000Y-76200000D02*
X168400000Y-77470000D01*
X162560000Y-76200000D02*
X167130000Y-76200000D01*
X188723998Y-64770000D02*
X177800000Y-75693998D01*
X200660000Y-64770000D02*
X188723998Y-64770000D01*
X177800000Y-75693998D02*
X177800000Y-76200000D01*
X201930000Y-63500000D02*
X200660000Y-64770000D01*
%TO.N,Net-(J41-Pad1)*%
X167130000Y-73660000D02*
X168400000Y-74930000D01*
X162560000Y-73660000D02*
X167130000Y-73660000D01*
X176530000Y-74930000D02*
X177800000Y-73660000D01*
X168400000Y-74930000D02*
X176530000Y-74930000D01*
X177800000Y-73153998D02*
X177800000Y-73660000D01*
X188723998Y-62230000D02*
X177800000Y-73153998D01*
X200660000Y-62230000D02*
X188723998Y-62230000D01*
X201930000Y-60960000D02*
X200660000Y-62230000D01*
%TO.N,Net-(J10-Pad34)*%
X126490000Y-101600000D02*
X127760000Y-102870000D01*
X127760000Y-102870000D02*
X135890000Y-102870000D01*
X121920000Y-101600000D02*
X126490000Y-101600000D01*
X135890000Y-102870000D02*
X137160000Y-101600000D01*
X120650000Y-102870000D02*
X110490000Y-102870000D01*
X110490000Y-102870000D02*
X107950000Y-105410000D01*
X121920000Y-101600000D02*
X120650000Y-102870000D01*
%TO.N,Net-(J10-Pad32)*%
X127760000Y-100330000D02*
X135890000Y-100330000D01*
X135890000Y-100330000D02*
X137160000Y-99060000D01*
X126490000Y-99060000D02*
X127760000Y-100330000D01*
X121920000Y-99060000D02*
X126490000Y-99060000D01*
X121920000Y-99060000D02*
X120650000Y-100330000D01*
X110490000Y-100330000D02*
X107950000Y-102870000D01*
X120650000Y-100330000D02*
X110490000Y-100330000D01*
%TO.N,Net-(J10-Pad30)*%
X121920000Y-96520000D02*
X126490000Y-96520000D01*
X127760000Y-97790000D02*
X135890000Y-97790000D01*
X126490000Y-96520000D02*
X127760000Y-97790000D01*
X135890000Y-97790000D02*
X137160000Y-96520000D01*
X110490000Y-97790000D02*
X107950000Y-100330000D01*
X120650000Y-97790000D02*
X110490000Y-97790000D01*
X121920000Y-96520000D02*
X120650000Y-97790000D01*
%TO.N,Net-(J10-Pad28)*%
X126490000Y-93980000D02*
X127760000Y-95250000D01*
X135890000Y-95250000D02*
X137160000Y-93980000D01*
X121920000Y-93980000D02*
X126490000Y-93980000D01*
X127760000Y-95250000D02*
X135890000Y-95250000D01*
X120650000Y-95250000D02*
X110490000Y-95250000D01*
X121920000Y-93980000D02*
X120650000Y-95250000D01*
X110490000Y-95250000D02*
X107950000Y-97790000D01*
%TO.N,Net-(J10-Pad26)*%
X135890000Y-92710000D02*
X137160000Y-91440000D01*
X127760000Y-92710000D02*
X135890000Y-92710000D01*
X126490000Y-91440000D02*
X127760000Y-92710000D01*
X121920000Y-91440000D02*
X126490000Y-91440000D01*
X120650000Y-92710000D02*
X110490000Y-92710000D01*
X110490000Y-92710000D02*
X107950000Y-95250000D01*
X121920000Y-91440000D02*
X120650000Y-92710000D01*
%TO.N,Net-(J10-Pad24)*%
X135890000Y-90170000D02*
X137160000Y-88900000D01*
X127760000Y-90170000D02*
X135890000Y-90170000D01*
X126490000Y-88900000D02*
X127760000Y-90170000D01*
X121920000Y-88900000D02*
X126490000Y-88900000D01*
X120650000Y-90170000D02*
X110490000Y-90170000D01*
X110490000Y-90170000D02*
X107950000Y-92710000D01*
X121920000Y-88900000D02*
X120650000Y-90170000D01*
%TO.N,Net-(J10-Pad22)*%
X135890000Y-87630000D02*
X137160000Y-86360000D01*
X121920000Y-86360000D02*
X126490000Y-86360000D01*
X126490000Y-86360000D02*
X127760000Y-87630000D01*
X127760000Y-87630000D02*
X135890000Y-87630000D01*
X120650000Y-87630000D02*
X110490000Y-87630000D01*
X110490000Y-87630000D02*
X107950000Y-90170000D01*
X121920000Y-86360000D02*
X120650000Y-87630000D01*
%TO.N,Net-(J10-Pad20)*%
X126490000Y-83820000D02*
X127760000Y-85090000D01*
X135890000Y-85090000D02*
X137160000Y-83820000D01*
X121920000Y-83820000D02*
X126490000Y-83820000D01*
X127760000Y-85090000D02*
X135890000Y-85090000D01*
X127760000Y-85090000D02*
X135890000Y-85090000D01*
X135890000Y-85090000D02*
X137160000Y-83820000D01*
X126490000Y-83820000D02*
X127760000Y-85090000D01*
X121920000Y-83820000D02*
X126490000Y-83820000D01*
X121920000Y-83820000D02*
X120650000Y-85090000D01*
X110490000Y-85090000D02*
X107950000Y-87630000D01*
X120650000Y-85090000D02*
X110490000Y-85090000D01*
%TO.N,Net-(J45-Pad3)*%
X167130000Y-134620000D02*
X168400000Y-135890000D01*
X168400000Y-135890000D02*
X176530000Y-135890000D01*
X162560000Y-134620000D02*
X167130000Y-134620000D01*
X176530000Y-135890000D02*
X177800000Y-134620000D01*
X177800000Y-134620000D02*
X179070000Y-135890000D01*
X200660000Y-135890000D02*
X201930000Y-137160000D01*
X179070000Y-135890000D02*
X200660000Y-135890000D01*
%TO.N,Net-(J45-Pad2)*%
X168400000Y-133350000D02*
X176530000Y-133350000D01*
X167130000Y-132080000D02*
X168400000Y-133350000D01*
X162560000Y-132080000D02*
X167130000Y-132080000D01*
X176530000Y-133350000D02*
X177800000Y-132080000D01*
X177800000Y-132080000D02*
X179070000Y-133350000D01*
X200660000Y-133350000D02*
X201930000Y-134620000D01*
X179070000Y-133350000D02*
X200660000Y-133350000D01*
%TO.N,Net-(J45-Pad1)*%
X162560000Y-129540000D02*
X167130000Y-129540000D01*
X176530000Y-130810000D02*
X177800000Y-129540000D01*
X168400000Y-130810000D02*
X176530000Y-130810000D01*
X167130000Y-129540000D02*
X168400000Y-130810000D01*
X177800000Y-129540000D02*
X179070000Y-129540000D01*
X177800000Y-129540000D02*
X179070000Y-130810000D01*
X200660000Y-130810000D02*
X201930000Y-132080000D01*
X179070000Y-130810000D02*
X200660000Y-130810000D01*
%TO.N,Net-(J44-Pad4)*%
X162560000Y-127000000D02*
X167130000Y-127000000D01*
X167130000Y-127000000D02*
X168400000Y-128270000D01*
X176530000Y-128270000D02*
X177800000Y-127000000D01*
X168400000Y-128270000D02*
X176530000Y-128270000D01*
X200660000Y-127000000D02*
X201930000Y-125730000D01*
X177800000Y-127000000D02*
X200660000Y-127000000D01*
%TO.N,Net-(J44-Pad3)*%
X176530000Y-125730000D02*
X177800000Y-124460000D01*
X168400000Y-125730000D02*
X176530000Y-125730000D01*
X167130000Y-124460000D02*
X168400000Y-125730000D01*
X162560000Y-124460000D02*
X167130000Y-124460000D01*
X200660000Y-124460000D02*
X201930000Y-123190000D01*
X177800000Y-124460000D02*
X200660000Y-124460000D01*
%TO.N,Net-(J44-Pad2)*%
X167130000Y-121920000D02*
X168400000Y-123190000D01*
X176530000Y-123190000D02*
X177800000Y-121920000D01*
X162560000Y-121920000D02*
X167130000Y-121920000D01*
X168400000Y-123190000D02*
X176530000Y-123190000D01*
X200660000Y-121920000D02*
X201930000Y-120650000D01*
X177800000Y-121920000D02*
X200660000Y-121920000D01*
%TO.N,Net-(J44-Pad1)*%
X167130000Y-119380000D02*
X168400000Y-120650000D01*
X168400000Y-120650000D02*
X176530000Y-120650000D01*
X176530000Y-120650000D02*
X177800000Y-119380000D01*
X162560000Y-119380000D02*
X167130000Y-119380000D01*
X200660000Y-119380000D02*
X201930000Y-118110000D01*
X177800000Y-119380000D02*
X200660000Y-119380000D01*
%TO.N,Net-(J43-Pad5)*%
X168400000Y-118110000D02*
X176530000Y-118110000D01*
X167130000Y-116840000D02*
X168400000Y-118110000D01*
X168400000Y-118110000D02*
X176530000Y-118110000D01*
X162560000Y-116840000D02*
X167130000Y-116840000D01*
X176530000Y-118110000D02*
X177800000Y-116840000D01*
X162560000Y-116840000D02*
X167130000Y-116840000D01*
X167130000Y-116840000D02*
X168400000Y-118110000D01*
X176530000Y-118110000D02*
X177800000Y-116840000D01*
X184150000Y-110490000D02*
X177800000Y-116840000D01*
X200660000Y-110490000D02*
X184150000Y-110490000D01*
X201930000Y-111760000D02*
X200660000Y-110490000D01*
%TO.N,Net-(J43-Pad4)*%
X167130000Y-114300000D02*
X168400000Y-115570000D01*
X168400000Y-115570000D02*
X176530000Y-115570000D01*
X176530000Y-115570000D02*
X177800000Y-114300000D01*
X162560000Y-114300000D02*
X167130000Y-114300000D01*
X162560000Y-114300000D02*
X167130000Y-114300000D01*
X168400000Y-115570000D02*
X176530000Y-115570000D01*
X167130000Y-114300000D02*
X168400000Y-115570000D01*
X162560000Y-114300000D02*
X167130000Y-114300000D01*
X176530000Y-115570000D02*
X177800000Y-114300000D01*
X176530000Y-115570000D02*
X177800000Y-114300000D01*
X168400000Y-115570000D02*
X176530000Y-115570000D01*
X167130000Y-114300000D02*
X168400000Y-115570000D01*
X184150000Y-107950000D02*
X177800000Y-114300000D01*
X200660000Y-107950000D02*
X184150000Y-107950000D01*
X201930000Y-109220000D02*
X200660000Y-107950000D01*
%TO.N,Net-(J43-Pad3)*%
X176530000Y-113030000D02*
X177800000Y-111760000D01*
X167130000Y-111760000D02*
X168400000Y-113030000D01*
X162560000Y-111760000D02*
X167130000Y-111760000D01*
X168400000Y-113030000D02*
X176530000Y-113030000D01*
X167130000Y-111760000D02*
X168400000Y-113030000D01*
X168400000Y-113030000D02*
X176530000Y-113030000D01*
X162560000Y-111760000D02*
X167130000Y-111760000D01*
X167130000Y-111760000D02*
X168400000Y-113030000D01*
X176530000Y-113030000D02*
X177800000Y-111760000D01*
X168400000Y-113030000D02*
X176530000Y-113030000D01*
X162560000Y-111760000D02*
X167130000Y-111760000D01*
X176530000Y-113030000D02*
X177800000Y-111760000D01*
X184150000Y-105410000D02*
X177800000Y-111760000D01*
X200660000Y-105410000D02*
X184150000Y-105410000D01*
X201930000Y-106680000D02*
X200660000Y-105410000D01*
%TO.N,Net-(J43-Pad2)*%
X168400000Y-110490000D02*
X176530000Y-110490000D01*
X176530000Y-110490000D02*
X177800000Y-109220000D01*
X162560000Y-109220000D02*
X167130000Y-109220000D01*
X167130000Y-109220000D02*
X168400000Y-110490000D01*
X176530000Y-110490000D02*
X177800000Y-109220000D01*
X168400000Y-110490000D02*
X176530000Y-110490000D01*
X162560000Y-109220000D02*
X167130000Y-109220000D01*
X167130000Y-109220000D02*
X168400000Y-110490000D01*
X184150000Y-102870000D02*
X177800000Y-109220000D01*
X200660000Y-102870000D02*
X184150000Y-102870000D01*
X201930000Y-104140000D02*
X200660000Y-102870000D01*
%TO.N,Net-(J43-Pad1)*%
X176530000Y-107950000D02*
X177800000Y-106680000D01*
X168400000Y-107950000D02*
X176530000Y-107950000D01*
X167130000Y-106680000D02*
X168400000Y-107950000D01*
X162560000Y-106680000D02*
X167130000Y-106680000D01*
X168400000Y-107950000D02*
X176530000Y-107950000D01*
X167130000Y-106680000D02*
X168400000Y-107950000D01*
X176530000Y-107950000D02*
X177800000Y-106680000D01*
X162560000Y-106680000D02*
X167130000Y-106680000D01*
X200660000Y-100330000D02*
X184150000Y-100330000D01*
X184150000Y-100330000D02*
X177800000Y-106680000D01*
X201930000Y-101600000D02*
X200660000Y-100330000D01*
%TO.N,Net-(J42-Pad6)*%
X168400000Y-105410000D02*
X176530000Y-105410000D01*
X176530000Y-105410000D02*
X177800000Y-104140000D01*
X167130000Y-104140000D02*
X168400000Y-105410000D01*
X162560000Y-104140000D02*
X167130000Y-104140000D01*
X162560000Y-104140000D02*
X167130000Y-104140000D01*
X167130000Y-104140000D02*
X168400000Y-105410000D01*
X176530000Y-105410000D02*
X177800000Y-104140000D01*
X168400000Y-105410000D02*
X176530000Y-105410000D01*
X185420000Y-96520000D02*
X177800000Y-104140000D01*
X200660000Y-96520000D02*
X185420000Y-96520000D01*
X201930000Y-95250000D02*
X200660000Y-96520000D01*
%TO.N,Net-(J42-Pad5)*%
X162560000Y-101600000D02*
X167130000Y-101600000D01*
X167130000Y-101600000D02*
X168400000Y-102870000D01*
X168400000Y-102870000D02*
X176530000Y-102870000D01*
X176530000Y-102870000D02*
X177800000Y-101600000D01*
X167130000Y-101600000D02*
X168400000Y-102870000D01*
X176530000Y-102870000D02*
X177800000Y-101600000D01*
X168400000Y-102870000D02*
X176530000Y-102870000D01*
X162560000Y-101600000D02*
X167130000Y-101600000D01*
X185420000Y-93980000D02*
X177800000Y-101600000D01*
X200660000Y-93980000D02*
X185420000Y-93980000D01*
X201930000Y-92710000D02*
X200660000Y-93980000D01*
%TO.N,Net-(J42-Pad4)*%
X162560000Y-99060000D02*
X167130000Y-99060000D01*
X167130000Y-99060000D02*
X168400000Y-100330000D01*
X176530000Y-100330000D02*
X177800000Y-99060000D01*
X168400000Y-100330000D02*
X176530000Y-100330000D01*
X168400000Y-100330000D02*
X176530000Y-100330000D01*
X176530000Y-100330000D02*
X177800000Y-99060000D01*
X167130000Y-99060000D02*
X168400000Y-100330000D01*
X162560000Y-99060000D02*
X167130000Y-99060000D01*
X185420000Y-91440000D02*
X177800000Y-99060000D01*
X200660000Y-91440000D02*
X185420000Y-91440000D01*
X201930000Y-90170000D02*
X200660000Y-91440000D01*
%TO.N,Net-(J42-Pad3)*%
X168400000Y-97790000D02*
X176530000Y-97790000D01*
X162560000Y-96520000D02*
X167130000Y-96520000D01*
X167130000Y-96520000D02*
X168400000Y-97790000D01*
X176530000Y-97790000D02*
X177800000Y-96520000D01*
X176530000Y-97790000D02*
X177800000Y-96520000D01*
X168400000Y-97790000D02*
X176530000Y-97790000D01*
X167130000Y-96520000D02*
X168400000Y-97790000D01*
X162560000Y-96520000D02*
X167130000Y-96520000D01*
X168400000Y-97790000D02*
X176530000Y-97790000D01*
X162560000Y-96520000D02*
X167130000Y-96520000D01*
X167130000Y-96520000D02*
X168400000Y-97790000D01*
X176530000Y-97790000D02*
X177800000Y-96520000D01*
X185420000Y-88900000D02*
X177800000Y-96520000D01*
X200660000Y-88900000D02*
X185420000Y-88900000D01*
X201930000Y-87630000D02*
X200660000Y-88900000D01*
%TO.N,Net-(J42-Pad2)*%
X176530000Y-95250000D02*
X177800000Y-93980000D01*
X162560000Y-93980000D02*
X167130000Y-93980000D01*
X167130000Y-93980000D02*
X168400000Y-95250000D01*
X168400000Y-95250000D02*
X176530000Y-95250000D01*
X162560000Y-93980000D02*
X167130000Y-93980000D01*
X176530000Y-95250000D02*
X177800000Y-93980000D01*
X167130000Y-93980000D02*
X168400000Y-95250000D01*
X168400000Y-95250000D02*
X176530000Y-95250000D01*
X167130000Y-93980000D02*
X168400000Y-95250000D01*
X162560000Y-93980000D02*
X167130000Y-93980000D01*
X168400000Y-95250000D02*
X176530000Y-95250000D01*
X176530000Y-95250000D02*
X177800000Y-93980000D01*
X185420000Y-86360000D02*
X177800000Y-93980000D01*
X200660000Y-86360000D02*
X185420000Y-86360000D01*
X201930000Y-85090000D02*
X200660000Y-86360000D01*
%TO.N,Net-(J42-Pad1)*%
X167130000Y-91440000D02*
X168400000Y-92710000D01*
X176530000Y-92710000D02*
X177800000Y-91440000D01*
X162560000Y-91440000D02*
X167130000Y-91440000D01*
X168400000Y-92710000D02*
X176530000Y-92710000D01*
X167130000Y-91440000D02*
X168400000Y-92710000D01*
X168400000Y-92710000D02*
X176530000Y-92710000D01*
X162560000Y-91440000D02*
X167130000Y-91440000D01*
X176530000Y-92710000D02*
X177800000Y-91440000D01*
X185420000Y-83820000D02*
X177800000Y-91440000D01*
X200660000Y-83820000D02*
X185420000Y-83820000D01*
X201930000Y-82550000D02*
X200660000Y-83820000D01*
%TO.N,Net-(J23-Pad50)*%
X229360000Y-135890000D02*
X237490000Y-135890000D01*
X223520000Y-134620000D02*
X228090000Y-134620000D01*
X228090000Y-134620000D02*
X229360000Y-135890000D01*
X237490000Y-135890000D02*
X238760000Y-134620000D01*
X222250000Y-135890000D02*
X223520000Y-134620000D01*
X210820000Y-135890000D02*
X222250000Y-135890000D01*
X209550000Y-137160000D02*
X210820000Y-135890000D01*
%TO.N,Net-(J23-Pad48)*%
X229360000Y-133350000D02*
X237490000Y-133350000D01*
X228090000Y-132080000D02*
X229360000Y-133350000D01*
X237490000Y-133350000D02*
X238760000Y-132080000D01*
X223520000Y-132080000D02*
X228090000Y-132080000D01*
X223520000Y-132080000D02*
X222250000Y-133350000D01*
X210820000Y-133350000D02*
X209550000Y-134620000D01*
X222250000Y-133350000D02*
X210820000Y-133350000D01*
%TO.N,Net-(J23-Pad46)*%
X228090000Y-129540000D02*
X229360000Y-130810000D01*
X223520000Y-129540000D02*
X228090000Y-129540000D01*
X237490000Y-130810000D02*
X238760000Y-129540000D01*
X229360000Y-130810000D02*
X237490000Y-130810000D01*
X223520000Y-129540000D02*
X222250000Y-130810000D01*
X210820000Y-130810000D02*
X209550000Y-132080000D01*
X222250000Y-130810000D02*
X210820000Y-130810000D01*
%TO.N,Net-(J23-Pad44)*%
X228090000Y-127000000D02*
X229360000Y-128270000D01*
X237490000Y-128270000D02*
X238760000Y-127000000D01*
X229360000Y-128270000D02*
X237490000Y-128270000D01*
X223520000Y-127000000D02*
X228090000Y-127000000D01*
X222250000Y-125730000D02*
X223520000Y-127000000D01*
X209550000Y-125730000D02*
X222250000Y-125730000D01*
%TO.N,Net-(J23-Pad42)*%
X229360000Y-125730000D02*
X237490000Y-125730000D01*
X237490000Y-125730000D02*
X238760000Y-124460000D01*
X228090000Y-124460000D02*
X229360000Y-125730000D01*
X223520000Y-124460000D02*
X228090000Y-124460000D01*
X222250000Y-123190000D02*
X223520000Y-124460000D01*
X209550000Y-123190000D02*
X222250000Y-123190000D01*
%TO.N,Net-(J23-Pad40)*%
X228090000Y-121920000D02*
X229360000Y-123190000D01*
X237490000Y-123190000D02*
X238760000Y-121920000D01*
X223520000Y-121920000D02*
X228090000Y-121920000D01*
X229360000Y-123190000D02*
X237490000Y-123190000D01*
X222250000Y-120650000D02*
X223520000Y-121920000D01*
X209550000Y-120650000D02*
X222250000Y-120650000D01*
%TO.N,Net-(J23-Pad38)*%
X228090000Y-119380000D02*
X229360000Y-120650000D01*
X229360000Y-120650000D02*
X237490000Y-120650000D01*
X237490000Y-120650000D02*
X238760000Y-119380000D01*
X223520000Y-119380000D02*
X228090000Y-119380000D01*
X223520000Y-119380000D02*
X222250000Y-118110000D01*
X222250000Y-118110000D02*
X209550000Y-118110000D01*
%TO.N,Net-(J23-Pad36)*%
X229360000Y-118110000D02*
X237490000Y-118110000D01*
X228090000Y-116840000D02*
X229360000Y-118110000D01*
X228090000Y-116840000D02*
X229360000Y-118110000D01*
X229360000Y-118110000D02*
X237490000Y-118110000D01*
X237490000Y-118110000D02*
X238760000Y-116840000D01*
X223520000Y-116840000D02*
X228090000Y-116840000D01*
X223520000Y-116840000D02*
X228090000Y-116840000D01*
X237490000Y-118110000D02*
X238760000Y-116840000D01*
X223520000Y-116840000D02*
X222250000Y-115570000D01*
X213360000Y-115570000D02*
X209550000Y-111760000D01*
X222250000Y-115570000D02*
X213360000Y-115570000D01*
%TO.N,Net-(J23-Pad34)*%
X228090000Y-114300000D02*
X229360000Y-115570000D01*
X229360000Y-115570000D02*
X237490000Y-115570000D01*
X223520000Y-114300000D02*
X228090000Y-114300000D01*
X237490000Y-115570000D02*
X238760000Y-114300000D01*
X223520000Y-114300000D02*
X228090000Y-114300000D01*
X237490000Y-115570000D02*
X238760000Y-114300000D01*
X228090000Y-114300000D02*
X229360000Y-115570000D01*
X223520000Y-114300000D02*
X228090000Y-114300000D01*
X229360000Y-115570000D02*
X237490000Y-115570000D01*
X237490000Y-115570000D02*
X238760000Y-114300000D01*
X229360000Y-115570000D02*
X237490000Y-115570000D01*
X228090000Y-114300000D02*
X229360000Y-115570000D01*
X223520000Y-114300000D02*
X222250000Y-113030000D01*
X213360000Y-113030000D02*
X209550000Y-109220000D01*
X222250000Y-113030000D02*
X213360000Y-113030000D01*
%TO.N,Net-(J23-Pad32)*%
X229360000Y-113030000D02*
X237490000Y-113030000D01*
X228090000Y-111760000D02*
X229360000Y-113030000D01*
X223520000Y-111760000D02*
X228090000Y-111760000D01*
X237490000Y-113030000D02*
X238760000Y-111760000D01*
X229360000Y-113030000D02*
X237490000Y-113030000D01*
X237490000Y-113030000D02*
X238760000Y-111760000D01*
X228090000Y-111760000D02*
X229360000Y-113030000D01*
X223520000Y-111760000D02*
X228090000Y-111760000D01*
X228090000Y-111760000D02*
X229360000Y-113030000D01*
X223520000Y-111760000D02*
X228090000Y-111760000D01*
X237490000Y-113030000D02*
X238760000Y-111760000D01*
X229360000Y-113030000D02*
X237490000Y-113030000D01*
X223520000Y-111760000D02*
X222250000Y-110490000D01*
X213360000Y-110490000D02*
X209550000Y-106680000D01*
X222250000Y-110490000D02*
X213360000Y-110490000D01*
%TO.N,Net-(J23-Pad30)*%
X223520000Y-109220000D02*
X228090000Y-109220000D01*
X237490000Y-110490000D02*
X238760000Y-109220000D01*
X229360000Y-110490000D02*
X237490000Y-110490000D01*
X228090000Y-109220000D02*
X229360000Y-110490000D01*
X223520000Y-109220000D02*
X228090000Y-109220000D01*
X237490000Y-110490000D02*
X238760000Y-109220000D01*
X228090000Y-109220000D02*
X229360000Y-110490000D01*
X229360000Y-110490000D02*
X237490000Y-110490000D01*
X213360000Y-107950000D02*
X209550000Y-104140000D01*
X222250000Y-107950000D02*
X213360000Y-107950000D01*
X223520000Y-109220000D02*
X222250000Y-107950000D01*
%TO.N,Net-(J23-Pad28)*%
X223520000Y-106680000D02*
X228090000Y-106680000D01*
X228090000Y-106680000D02*
X229360000Y-107950000D01*
X237490000Y-107950000D02*
X238760000Y-106680000D01*
X229360000Y-107950000D02*
X237490000Y-107950000D01*
X229360000Y-107950000D02*
X237490000Y-107950000D01*
X228090000Y-106680000D02*
X229360000Y-107950000D01*
X237490000Y-107950000D02*
X238760000Y-106680000D01*
X223520000Y-106680000D02*
X228090000Y-106680000D01*
X223520000Y-106680000D02*
X222250000Y-105410000D01*
X213360000Y-105410000D02*
X209550000Y-101600000D01*
X222250000Y-105410000D02*
X213360000Y-105410000D01*
%TO.N,Net-(J23-Pad26)*%
X237490000Y-105410000D02*
X238760000Y-104140000D01*
X229360000Y-105410000D02*
X237490000Y-105410000D01*
X228090000Y-104140000D02*
X229360000Y-105410000D01*
X223520000Y-104140000D02*
X228090000Y-104140000D01*
X229360000Y-105410000D02*
X237490000Y-105410000D01*
X223520000Y-104140000D02*
X228090000Y-104140000D01*
X228090000Y-104140000D02*
X229360000Y-105410000D01*
X237490000Y-105410000D02*
X238760000Y-104140000D01*
X223520000Y-104140000D02*
X222250000Y-102870000D01*
X217170000Y-102870000D02*
X209550000Y-95250000D01*
X222250000Y-102870000D02*
X217170000Y-102870000D01*
%TO.N,Net-(J23-Pad24)*%
X228090000Y-101600000D02*
X229360000Y-102870000D01*
X237490000Y-102870000D02*
X238760000Y-101600000D01*
X223520000Y-101600000D02*
X228090000Y-101600000D01*
X229360000Y-102870000D02*
X237490000Y-102870000D01*
X228090000Y-101600000D02*
X229360000Y-102870000D01*
X223520000Y-101600000D02*
X228090000Y-101600000D01*
X229360000Y-102870000D02*
X237490000Y-102870000D01*
X237490000Y-102870000D02*
X238760000Y-101600000D01*
X223520000Y-101600000D02*
X222250000Y-100330000D01*
X217170000Y-100330000D02*
X209550000Y-92710000D01*
X222250000Y-100330000D02*
X217170000Y-100330000D01*
%TO.N,Net-(J23-Pad22)*%
X228090000Y-99060000D02*
X229360000Y-100330000D01*
X229360000Y-100330000D02*
X237490000Y-100330000D01*
X237490000Y-100330000D02*
X238760000Y-99060000D01*
X223520000Y-99060000D02*
X228090000Y-99060000D01*
X228090000Y-99060000D02*
X229360000Y-100330000D01*
X229360000Y-100330000D02*
X237490000Y-100330000D01*
X223520000Y-99060000D02*
X228090000Y-99060000D01*
X237490000Y-100330000D02*
X238760000Y-99060000D01*
X223520000Y-99060000D02*
X222250000Y-97790000D01*
X217170000Y-97790000D02*
X209550000Y-90170000D01*
X222250000Y-97790000D02*
X217170000Y-97790000D01*
%TO.N,Net-(J23-Pad20)*%
X229360000Y-97790000D02*
X237490000Y-97790000D01*
X228090000Y-96520000D02*
X229360000Y-97790000D01*
X229360000Y-97790000D02*
X237490000Y-97790000D01*
X223520000Y-96520000D02*
X228090000Y-96520000D01*
X237490000Y-97790000D02*
X238760000Y-96520000D01*
X223520000Y-96520000D02*
X228090000Y-96520000D01*
X228090000Y-96520000D02*
X229360000Y-97790000D01*
X237490000Y-97790000D02*
X238760000Y-96520000D01*
X229360000Y-97790000D02*
X237490000Y-97790000D01*
X237490000Y-97790000D02*
X238760000Y-96520000D01*
X223520000Y-96520000D02*
X228090000Y-96520000D01*
X228090000Y-96520000D02*
X229360000Y-97790000D01*
X217170000Y-95250000D02*
X209550000Y-87630000D01*
X222250000Y-95250000D02*
X217170000Y-95250000D01*
X223520000Y-96520000D02*
X222250000Y-95250000D01*
%TO.N,Net-(J23-Pad18)*%
X223520000Y-93980000D02*
X228090000Y-93980000D01*
X229360000Y-95250000D02*
X237490000Y-95250000D01*
X228090000Y-93980000D02*
X229360000Y-95250000D01*
X223520000Y-93980000D02*
X228090000Y-93980000D01*
X237490000Y-95250000D02*
X238760000Y-93980000D01*
X237490000Y-95250000D02*
X238760000Y-93980000D01*
X229360000Y-95250000D02*
X237490000Y-95250000D01*
X228090000Y-93980000D02*
X229360000Y-95250000D01*
X223520000Y-93980000D02*
X228090000Y-93980000D01*
X228090000Y-93980000D02*
X229360000Y-95250000D01*
X229360000Y-95250000D02*
X237490000Y-95250000D01*
X237490000Y-95250000D02*
X238760000Y-93980000D01*
X217170000Y-92710000D02*
X209550000Y-85090000D01*
X222250000Y-92710000D02*
X217170000Y-92710000D01*
X223520000Y-93980000D02*
X222250000Y-92710000D01*
%TO.N,Net-(J23-Pad16)*%
X228090000Y-91440000D02*
X229360000Y-92710000D01*
X229360000Y-92710000D02*
X237490000Y-92710000D01*
X223520000Y-91440000D02*
X228090000Y-91440000D01*
X228090000Y-91440000D02*
X229360000Y-92710000D01*
X237490000Y-92710000D02*
X238760000Y-91440000D01*
X229360000Y-92710000D02*
X237490000Y-92710000D01*
X223520000Y-91440000D02*
X228090000Y-91440000D01*
X237490000Y-92710000D02*
X238760000Y-91440000D01*
X217170000Y-90170000D02*
X209550000Y-82550000D01*
X222250000Y-90170000D02*
X217170000Y-90170000D01*
X223520000Y-91440000D02*
X222250000Y-90170000D01*
%TD*%
M02*
