%TF.GenerationSoftware,KiCad,Pcbnew,(5.1.9)-1*%
%TF.CreationDate,2022-08-27T22:21:39+05:30*%
%TF.ProjectId,MFM_ST506 Breakout Board,4d464d5f-5354-4353-9036-20427265616b,rev?*%
%TF.SameCoordinates,Original*%
%TF.FileFunction,Legend,Top*%
%TF.FilePolarity,Positive*%
%FSLAX46Y46*%
G04 Gerber Fmt 4.6, Leading zero omitted, Abs format (unit mm)*
G04 Created by KiCad (PCBNEW (5.1.9)-1) date 2022-08-27 22:21:39*
%MOMM*%
%LPD*%
G01*
G04 APERTURE LIST*
%ADD10C,0.150000*%
%ADD11C,0.200000*%
%ADD12C,0.254000*%
G04 APERTURE END LIST*
D10*
X212669523Y-76652380D02*
X212098095Y-76652380D01*
X212383809Y-76652380D02*
X212383809Y-75652380D01*
X212288571Y-75795238D01*
X212193333Y-75890476D01*
X212098095Y-75938095D01*
X213526666Y-75985714D02*
X213526666Y-76652380D01*
X213288571Y-75604761D02*
X213050476Y-76319047D01*
X213669523Y-76319047D01*
X212574285Y-125515714D02*
X212574285Y-126182380D01*
X212336190Y-125134761D02*
X212098095Y-125849047D01*
X212717142Y-125849047D01*
X213526666Y-125515714D02*
X213526666Y-126182380D01*
X213288571Y-125134761D02*
X213050476Y-125849047D01*
X213669523Y-125849047D01*
X212669523Y-71572380D02*
X212098095Y-71572380D01*
X212383809Y-71572380D02*
X212383809Y-70572380D01*
X212288571Y-70715238D01*
X212193333Y-70810476D01*
X212098095Y-70858095D01*
X213288571Y-70572380D02*
X213383809Y-70572380D01*
X213479047Y-70620000D01*
X213526666Y-70667619D01*
X213574285Y-70762857D01*
X213621904Y-70953333D01*
X213621904Y-71191428D01*
X213574285Y-71381904D01*
X213526666Y-71477142D01*
X213479047Y-71524761D01*
X213383809Y-71572380D01*
X213288571Y-71572380D01*
X213193333Y-71524761D01*
X213145714Y-71477142D01*
X213098095Y-71381904D01*
X213050476Y-71191428D01*
X213050476Y-70953333D01*
X213098095Y-70762857D01*
X213145714Y-70667619D01*
X213193333Y-70620000D01*
X213288571Y-70572380D01*
X212574285Y-60507619D02*
X212621904Y-60460000D01*
X212717142Y-60412380D01*
X212955238Y-60412380D01*
X213050476Y-60460000D01*
X213098095Y-60507619D01*
X213145714Y-60602857D01*
X213145714Y-60698095D01*
X213098095Y-60840952D01*
X212526666Y-61412380D01*
X213145714Y-61412380D01*
X212764761Y-68460952D02*
X212669523Y-68413333D01*
X212621904Y-68365714D01*
X212574285Y-68270476D01*
X212574285Y-68222857D01*
X212621904Y-68127619D01*
X212669523Y-68080000D01*
X212764761Y-68032380D01*
X212955238Y-68032380D01*
X213050476Y-68080000D01*
X213098095Y-68127619D01*
X213145714Y-68222857D01*
X213145714Y-68270476D01*
X213098095Y-68365714D01*
X213050476Y-68413333D01*
X212955238Y-68460952D01*
X212764761Y-68460952D01*
X212669523Y-68508571D01*
X212621904Y-68556190D01*
X212574285Y-68651428D01*
X212574285Y-68841904D01*
X212621904Y-68937142D01*
X212669523Y-68984761D01*
X212764761Y-69032380D01*
X212955238Y-69032380D01*
X213050476Y-68984761D01*
X213098095Y-68937142D01*
X213145714Y-68841904D01*
X213145714Y-68651428D01*
X213098095Y-68556190D01*
X213050476Y-68508571D01*
X212955238Y-68460952D01*
X212574285Y-120435714D02*
X212574285Y-121102380D01*
X212336190Y-120054761D02*
X212098095Y-120769047D01*
X212717142Y-120769047D01*
X213288571Y-120102380D02*
X213383809Y-120102380D01*
X213479047Y-120150000D01*
X213526666Y-120197619D01*
X213574285Y-120292857D01*
X213621904Y-120483333D01*
X213621904Y-120721428D01*
X213574285Y-120911904D01*
X213526666Y-121007142D01*
X213479047Y-121054761D01*
X213383809Y-121102380D01*
X213288571Y-121102380D01*
X213193333Y-121054761D01*
X213145714Y-121007142D01*
X213098095Y-120911904D01*
X213050476Y-120721428D01*
X213050476Y-120483333D01*
X213098095Y-120292857D01*
X213145714Y-120197619D01*
X213193333Y-120150000D01*
X213288571Y-120102380D01*
X212621904Y-136612380D02*
X212145714Y-136612380D01*
X212098095Y-137088571D01*
X212145714Y-137040952D01*
X212240952Y-136993333D01*
X212479047Y-136993333D01*
X212574285Y-137040952D01*
X212621904Y-137088571D01*
X212669523Y-137183809D01*
X212669523Y-137421904D01*
X212621904Y-137517142D01*
X212574285Y-137564761D01*
X212479047Y-137612380D01*
X212240952Y-137612380D01*
X212145714Y-137564761D01*
X212098095Y-137517142D01*
X213288571Y-136612380D02*
X213383809Y-136612380D01*
X213479047Y-136660000D01*
X213526666Y-136707619D01*
X213574285Y-136802857D01*
X213621904Y-136993333D01*
X213621904Y-137231428D01*
X213574285Y-137421904D01*
X213526666Y-137517142D01*
X213479047Y-137564761D01*
X213383809Y-137612380D01*
X213288571Y-137612380D01*
X213193333Y-137564761D01*
X213145714Y-137517142D01*
X213098095Y-137421904D01*
X213050476Y-137231428D01*
X213050476Y-136993333D01*
X213098095Y-136802857D01*
X213145714Y-136707619D01*
X213193333Y-136660000D01*
X213288571Y-136612380D01*
X212574285Y-131865714D02*
X212574285Y-132532380D01*
X212336190Y-131484761D02*
X212098095Y-132199047D01*
X212717142Y-132199047D01*
X213526666Y-131532380D02*
X213336190Y-131532380D01*
X213240952Y-131580000D01*
X213193333Y-131627619D01*
X213098095Y-131770476D01*
X213050476Y-131960952D01*
X213050476Y-132341904D01*
X213098095Y-132437142D01*
X213145714Y-132484761D01*
X213240952Y-132532380D01*
X213431428Y-132532380D01*
X213526666Y-132484761D01*
X213574285Y-132437142D01*
X213621904Y-132341904D01*
X213621904Y-132103809D01*
X213574285Y-132008571D01*
X213526666Y-131960952D01*
X213431428Y-131913333D01*
X213240952Y-131913333D01*
X213145714Y-131960952D01*
X213098095Y-132008571D01*
X213050476Y-132103809D01*
X212574285Y-122975714D02*
X212574285Y-123642380D01*
X212336190Y-122594761D02*
X212098095Y-123309047D01*
X212717142Y-123309047D01*
X213050476Y-122737619D02*
X213098095Y-122690000D01*
X213193333Y-122642380D01*
X213431428Y-122642380D01*
X213526666Y-122690000D01*
X213574285Y-122737619D01*
X213621904Y-122832857D01*
X213621904Y-122928095D01*
X213574285Y-123070952D01*
X213002857Y-123642380D01*
X213621904Y-123642380D01*
X212050476Y-108672380D02*
X212669523Y-108672380D01*
X212336190Y-109053333D01*
X212479047Y-109053333D01*
X212574285Y-109100952D01*
X212621904Y-109148571D01*
X212669523Y-109243809D01*
X212669523Y-109481904D01*
X212621904Y-109577142D01*
X212574285Y-109624761D01*
X212479047Y-109672380D01*
X212193333Y-109672380D01*
X212098095Y-109624761D01*
X212050476Y-109577142D01*
X213526666Y-109005714D02*
X213526666Y-109672380D01*
X213288571Y-108624761D02*
X213050476Y-109339047D01*
X213669523Y-109339047D01*
X212098095Y-89717619D02*
X212145714Y-89670000D01*
X212240952Y-89622380D01*
X212479047Y-89622380D01*
X212574285Y-89670000D01*
X212621904Y-89717619D01*
X212669523Y-89812857D01*
X212669523Y-89908095D01*
X212621904Y-90050952D01*
X212050476Y-90622380D01*
X212669523Y-90622380D01*
X213050476Y-89717619D02*
X213098095Y-89670000D01*
X213193333Y-89622380D01*
X213431428Y-89622380D01*
X213526666Y-89670000D01*
X213574285Y-89717619D01*
X213621904Y-89812857D01*
X213621904Y-89908095D01*
X213574285Y-90050952D01*
X213002857Y-90622380D01*
X213621904Y-90622380D01*
X212669523Y-83002380D02*
X212098095Y-83002380D01*
X212383809Y-83002380D02*
X212383809Y-82002380D01*
X212288571Y-82145238D01*
X212193333Y-82240476D01*
X212098095Y-82288095D01*
X213526666Y-82002380D02*
X213336190Y-82002380D01*
X213240952Y-82050000D01*
X213193333Y-82097619D01*
X213098095Y-82240476D01*
X213050476Y-82430952D01*
X213050476Y-82811904D01*
X213098095Y-82907142D01*
X213145714Y-82954761D01*
X213240952Y-83002380D01*
X213431428Y-83002380D01*
X213526666Y-82954761D01*
X213574285Y-82907142D01*
X213621904Y-82811904D01*
X213621904Y-82573809D01*
X213574285Y-82478571D01*
X213526666Y-82430952D01*
X213431428Y-82383333D01*
X213240952Y-82383333D01*
X213145714Y-82430952D01*
X213098095Y-82478571D01*
X213050476Y-82573809D01*
X213050476Y-63285714D02*
X213050476Y-63952380D01*
X212812380Y-62904761D02*
X212574285Y-63619047D01*
X213193333Y-63619047D01*
X212098095Y-87177619D02*
X212145714Y-87130000D01*
X212240952Y-87082380D01*
X212479047Y-87082380D01*
X212574285Y-87130000D01*
X212621904Y-87177619D01*
X212669523Y-87272857D01*
X212669523Y-87368095D01*
X212621904Y-87510952D01*
X212050476Y-88082380D01*
X212669523Y-88082380D01*
X213288571Y-87082380D02*
X213383809Y-87082380D01*
X213479047Y-87130000D01*
X213526666Y-87177619D01*
X213574285Y-87272857D01*
X213621904Y-87463333D01*
X213621904Y-87701428D01*
X213574285Y-87891904D01*
X213526666Y-87987142D01*
X213479047Y-88034761D01*
X213383809Y-88082380D01*
X213288571Y-88082380D01*
X213193333Y-88034761D01*
X213145714Y-87987142D01*
X213098095Y-87891904D01*
X213050476Y-87701428D01*
X213050476Y-87463333D01*
X213098095Y-87272857D01*
X213145714Y-87177619D01*
X213193333Y-87130000D01*
X213288571Y-87082380D01*
X212098095Y-92257619D02*
X212145714Y-92210000D01*
X212240952Y-92162380D01*
X212479047Y-92162380D01*
X212574285Y-92210000D01*
X212621904Y-92257619D01*
X212669523Y-92352857D01*
X212669523Y-92448095D01*
X212621904Y-92590952D01*
X212050476Y-93162380D01*
X212669523Y-93162380D01*
X213526666Y-92495714D02*
X213526666Y-93162380D01*
X213288571Y-92114761D02*
X213050476Y-92829047D01*
X213669523Y-92829047D01*
X212050476Y-111212380D02*
X212669523Y-111212380D01*
X212336190Y-111593333D01*
X212479047Y-111593333D01*
X212574285Y-111640952D01*
X212621904Y-111688571D01*
X212669523Y-111783809D01*
X212669523Y-112021904D01*
X212621904Y-112117142D01*
X212574285Y-112164761D01*
X212479047Y-112212380D01*
X212193333Y-112212380D01*
X212098095Y-112164761D01*
X212050476Y-112117142D01*
X213526666Y-111212380D02*
X213336190Y-111212380D01*
X213240952Y-111260000D01*
X213193333Y-111307619D01*
X213098095Y-111450476D01*
X213050476Y-111640952D01*
X213050476Y-112021904D01*
X213098095Y-112117142D01*
X213145714Y-112164761D01*
X213240952Y-112212380D01*
X213431428Y-112212380D01*
X213526666Y-112164761D01*
X213574285Y-112117142D01*
X213621904Y-112021904D01*
X213621904Y-111783809D01*
X213574285Y-111688571D01*
X213526666Y-111640952D01*
X213431428Y-111593333D01*
X213240952Y-111593333D01*
X213145714Y-111640952D01*
X213098095Y-111688571D01*
X213050476Y-111783809D01*
X212574285Y-134405714D02*
X212574285Y-135072380D01*
X212336190Y-134024761D02*
X212098095Y-134739047D01*
X212717142Y-134739047D01*
X213240952Y-134500952D02*
X213145714Y-134453333D01*
X213098095Y-134405714D01*
X213050476Y-134310476D01*
X213050476Y-134262857D01*
X213098095Y-134167619D01*
X213145714Y-134120000D01*
X213240952Y-134072380D01*
X213431428Y-134072380D01*
X213526666Y-134120000D01*
X213574285Y-134167619D01*
X213621904Y-134262857D01*
X213621904Y-134310476D01*
X213574285Y-134405714D01*
X213526666Y-134453333D01*
X213431428Y-134500952D01*
X213240952Y-134500952D01*
X213145714Y-134548571D01*
X213098095Y-134596190D01*
X213050476Y-134691428D01*
X213050476Y-134881904D01*
X213098095Y-134977142D01*
X213145714Y-135024761D01*
X213240952Y-135072380D01*
X213431428Y-135072380D01*
X213526666Y-135024761D01*
X213574285Y-134977142D01*
X213621904Y-134881904D01*
X213621904Y-134691428D01*
X213574285Y-134596190D01*
X213526666Y-134548571D01*
X213431428Y-134500952D01*
X212098095Y-101147619D02*
X212145714Y-101100000D01*
X212240952Y-101052380D01*
X212479047Y-101052380D01*
X212574285Y-101100000D01*
X212621904Y-101147619D01*
X212669523Y-101242857D01*
X212669523Y-101338095D01*
X212621904Y-101480952D01*
X212050476Y-102052380D01*
X212669523Y-102052380D01*
X213240952Y-101480952D02*
X213145714Y-101433333D01*
X213098095Y-101385714D01*
X213050476Y-101290476D01*
X213050476Y-101242857D01*
X213098095Y-101147619D01*
X213145714Y-101100000D01*
X213240952Y-101052380D01*
X213431428Y-101052380D01*
X213526666Y-101100000D01*
X213574285Y-101147619D01*
X213621904Y-101242857D01*
X213621904Y-101290476D01*
X213574285Y-101385714D01*
X213526666Y-101433333D01*
X213431428Y-101480952D01*
X213240952Y-101480952D01*
X213145714Y-101528571D01*
X213098095Y-101576190D01*
X213050476Y-101671428D01*
X213050476Y-101861904D01*
X213098095Y-101957142D01*
X213145714Y-102004761D01*
X213240952Y-102052380D01*
X213431428Y-102052380D01*
X213526666Y-102004761D01*
X213574285Y-101957142D01*
X213621904Y-101861904D01*
X213621904Y-101671428D01*
X213574285Y-101576190D01*
X213526666Y-101528571D01*
X213431428Y-101480952D01*
X212050476Y-106132380D02*
X212669523Y-106132380D01*
X212336190Y-106513333D01*
X212479047Y-106513333D01*
X212574285Y-106560952D01*
X212621904Y-106608571D01*
X212669523Y-106703809D01*
X212669523Y-106941904D01*
X212621904Y-107037142D01*
X212574285Y-107084761D01*
X212479047Y-107132380D01*
X212193333Y-107132380D01*
X212098095Y-107084761D01*
X212050476Y-107037142D01*
X213050476Y-106227619D02*
X213098095Y-106180000D01*
X213193333Y-106132380D01*
X213431428Y-106132380D01*
X213526666Y-106180000D01*
X213574285Y-106227619D01*
X213621904Y-106322857D01*
X213621904Y-106418095D01*
X213574285Y-106560952D01*
X213002857Y-107132380D01*
X213621904Y-107132380D01*
X212098095Y-94797619D02*
X212145714Y-94750000D01*
X212240952Y-94702380D01*
X212479047Y-94702380D01*
X212574285Y-94750000D01*
X212621904Y-94797619D01*
X212669523Y-94892857D01*
X212669523Y-94988095D01*
X212621904Y-95130952D01*
X212050476Y-95702380D01*
X212669523Y-95702380D01*
X213526666Y-94702380D02*
X213336190Y-94702380D01*
X213240952Y-94750000D01*
X213193333Y-94797619D01*
X213098095Y-94940476D01*
X213050476Y-95130952D01*
X213050476Y-95511904D01*
X213098095Y-95607142D01*
X213145714Y-95654761D01*
X213240952Y-95702380D01*
X213431428Y-95702380D01*
X213526666Y-95654761D01*
X213574285Y-95607142D01*
X213621904Y-95511904D01*
X213621904Y-95273809D01*
X213574285Y-95178571D01*
X213526666Y-95130952D01*
X213431428Y-95083333D01*
X213240952Y-95083333D01*
X213145714Y-95130952D01*
X213098095Y-95178571D01*
X213050476Y-95273809D01*
X213050476Y-65492380D02*
X212860000Y-65492380D01*
X212764761Y-65540000D01*
X212717142Y-65587619D01*
X212621904Y-65730476D01*
X212574285Y-65920952D01*
X212574285Y-66301904D01*
X212621904Y-66397142D01*
X212669523Y-66444761D01*
X212764761Y-66492380D01*
X212955238Y-66492380D01*
X213050476Y-66444761D01*
X213098095Y-66397142D01*
X213145714Y-66301904D01*
X213145714Y-66063809D01*
X213098095Y-65968571D01*
X213050476Y-65920952D01*
X212955238Y-65873333D01*
X212764761Y-65873333D01*
X212669523Y-65920952D01*
X212621904Y-65968571D01*
X212574285Y-66063809D01*
X212669523Y-74112380D02*
X212098095Y-74112380D01*
X212383809Y-74112380D02*
X212383809Y-73112380D01*
X212288571Y-73255238D01*
X212193333Y-73350476D01*
X212098095Y-73398095D01*
X213050476Y-73207619D02*
X213098095Y-73160000D01*
X213193333Y-73112380D01*
X213431428Y-73112380D01*
X213526666Y-73160000D01*
X213574285Y-73207619D01*
X213621904Y-73302857D01*
X213621904Y-73398095D01*
X213574285Y-73540952D01*
X213002857Y-74112380D01*
X213621904Y-74112380D01*
X212050476Y-103592380D02*
X212669523Y-103592380D01*
X212336190Y-103973333D01*
X212479047Y-103973333D01*
X212574285Y-104020952D01*
X212621904Y-104068571D01*
X212669523Y-104163809D01*
X212669523Y-104401904D01*
X212621904Y-104497142D01*
X212574285Y-104544761D01*
X212479047Y-104592380D01*
X212193333Y-104592380D01*
X212098095Y-104544761D01*
X212050476Y-104497142D01*
X213288571Y-103592380D02*
X213383809Y-103592380D01*
X213479047Y-103640000D01*
X213526666Y-103687619D01*
X213574285Y-103782857D01*
X213621904Y-103973333D01*
X213621904Y-104211428D01*
X213574285Y-104401904D01*
X213526666Y-104497142D01*
X213479047Y-104544761D01*
X213383809Y-104592380D01*
X213288571Y-104592380D01*
X213193333Y-104544761D01*
X213145714Y-104497142D01*
X213098095Y-104401904D01*
X213050476Y-104211428D01*
X213050476Y-103973333D01*
X213098095Y-103782857D01*
X213145714Y-103687619D01*
X213193333Y-103640000D01*
X213288571Y-103592380D01*
X212669523Y-85542380D02*
X212098095Y-85542380D01*
X212383809Y-85542380D02*
X212383809Y-84542380D01*
X212288571Y-84685238D01*
X212193333Y-84780476D01*
X212098095Y-84828095D01*
X213240952Y-84970952D02*
X213145714Y-84923333D01*
X213098095Y-84875714D01*
X213050476Y-84780476D01*
X213050476Y-84732857D01*
X213098095Y-84637619D01*
X213145714Y-84590000D01*
X213240952Y-84542380D01*
X213431428Y-84542380D01*
X213526666Y-84590000D01*
X213574285Y-84637619D01*
X213621904Y-84732857D01*
X213621904Y-84780476D01*
X213574285Y-84875714D01*
X213526666Y-84923333D01*
X213431428Y-84970952D01*
X213240952Y-84970952D01*
X213145714Y-85018571D01*
X213098095Y-85066190D01*
X213050476Y-85161428D01*
X213050476Y-85351904D01*
X213098095Y-85447142D01*
X213145714Y-85494761D01*
X213240952Y-85542380D01*
X213431428Y-85542380D01*
X213526666Y-85494761D01*
X213574285Y-85447142D01*
X213621904Y-85351904D01*
X213621904Y-85161428D01*
X213574285Y-85066190D01*
X213526666Y-85018571D01*
X213431428Y-84970952D01*
X212050476Y-117562380D02*
X212669523Y-117562380D01*
X212336190Y-117943333D01*
X212479047Y-117943333D01*
X212574285Y-117990952D01*
X212621904Y-118038571D01*
X212669523Y-118133809D01*
X212669523Y-118371904D01*
X212621904Y-118467142D01*
X212574285Y-118514761D01*
X212479047Y-118562380D01*
X212193333Y-118562380D01*
X212098095Y-118514761D01*
X212050476Y-118467142D01*
X213240952Y-117990952D02*
X213145714Y-117943333D01*
X213098095Y-117895714D01*
X213050476Y-117800476D01*
X213050476Y-117752857D01*
X213098095Y-117657619D01*
X213145714Y-117610000D01*
X213240952Y-117562380D01*
X213431428Y-117562380D01*
X213526666Y-117610000D01*
X213574285Y-117657619D01*
X213621904Y-117752857D01*
X213621904Y-117800476D01*
X213574285Y-117895714D01*
X213526666Y-117943333D01*
X213431428Y-117990952D01*
X213240952Y-117990952D01*
X213145714Y-118038571D01*
X213098095Y-118086190D01*
X213050476Y-118181428D01*
X213050476Y-118371904D01*
X213098095Y-118467142D01*
X213145714Y-118514761D01*
X213240952Y-118562380D01*
X213431428Y-118562380D01*
X213526666Y-118514761D01*
X213574285Y-118467142D01*
X213621904Y-118371904D01*
X213621904Y-118181428D01*
X213574285Y-118086190D01*
X213526666Y-118038571D01*
X213431428Y-117990952D01*
X185904285Y-136945714D02*
X185904285Y-137612380D01*
X185666190Y-136564761D02*
X185428095Y-137279047D01*
X186047142Y-137279047D01*
X186475714Y-137612380D02*
X186666190Y-137612380D01*
X186761428Y-137564761D01*
X186809047Y-137517142D01*
X186904285Y-137374285D01*
X186951904Y-137183809D01*
X186951904Y-136802857D01*
X186904285Y-136707619D01*
X186856666Y-136660000D01*
X186761428Y-136612380D01*
X186570952Y-136612380D01*
X186475714Y-136660000D01*
X186428095Y-136707619D01*
X186380476Y-136802857D01*
X186380476Y-137040952D01*
X186428095Y-137136190D01*
X186475714Y-137183809D01*
X186570952Y-137231428D01*
X186761428Y-137231428D01*
X186856666Y-137183809D01*
X186904285Y-137136190D01*
X186951904Y-137040952D01*
X185904285Y-134405714D02*
X185904285Y-135072380D01*
X185666190Y-134024761D02*
X185428095Y-134739047D01*
X186047142Y-134739047D01*
X186332857Y-134072380D02*
X186999523Y-134072380D01*
X186570952Y-135072380D01*
X185904285Y-131865714D02*
X185904285Y-132532380D01*
X185666190Y-131484761D02*
X185428095Y-132199047D01*
X186047142Y-132199047D01*
X186904285Y-131532380D02*
X186428095Y-131532380D01*
X186380476Y-132008571D01*
X186428095Y-131960952D01*
X186523333Y-131913333D01*
X186761428Y-131913333D01*
X186856666Y-131960952D01*
X186904285Y-132008571D01*
X186951904Y-132103809D01*
X186951904Y-132341904D01*
X186904285Y-132437142D01*
X186856666Y-132484761D01*
X186761428Y-132532380D01*
X186523333Y-132532380D01*
X186428095Y-132484761D01*
X186380476Y-132437142D01*
X185904285Y-125515714D02*
X185904285Y-126182380D01*
X185666190Y-125134761D02*
X185428095Y-125849047D01*
X186047142Y-125849047D01*
X186332857Y-125182380D02*
X186951904Y-125182380D01*
X186618571Y-125563333D01*
X186761428Y-125563333D01*
X186856666Y-125610952D01*
X186904285Y-125658571D01*
X186951904Y-125753809D01*
X186951904Y-125991904D01*
X186904285Y-126087142D01*
X186856666Y-126134761D01*
X186761428Y-126182380D01*
X186475714Y-126182380D01*
X186380476Y-126134761D01*
X186332857Y-126087142D01*
X185904285Y-122975714D02*
X185904285Y-123642380D01*
X185666190Y-122594761D02*
X185428095Y-123309047D01*
X186047142Y-123309047D01*
X186951904Y-123642380D02*
X186380476Y-123642380D01*
X186666190Y-123642380D02*
X186666190Y-122642380D01*
X186570952Y-122785238D01*
X186475714Y-122880476D01*
X186380476Y-122928095D01*
X185380476Y-120102380D02*
X185999523Y-120102380D01*
X185666190Y-120483333D01*
X185809047Y-120483333D01*
X185904285Y-120530952D01*
X185951904Y-120578571D01*
X185999523Y-120673809D01*
X185999523Y-120911904D01*
X185951904Y-121007142D01*
X185904285Y-121054761D01*
X185809047Y-121102380D01*
X185523333Y-121102380D01*
X185428095Y-121054761D01*
X185380476Y-121007142D01*
X186475714Y-121102380D02*
X186666190Y-121102380D01*
X186761428Y-121054761D01*
X186809047Y-121007142D01*
X186904285Y-120864285D01*
X186951904Y-120673809D01*
X186951904Y-120292857D01*
X186904285Y-120197619D01*
X186856666Y-120150000D01*
X186761428Y-120102380D01*
X186570952Y-120102380D01*
X186475714Y-120150000D01*
X186428095Y-120197619D01*
X186380476Y-120292857D01*
X186380476Y-120530952D01*
X186428095Y-120626190D01*
X186475714Y-120673809D01*
X186570952Y-120721428D01*
X186761428Y-120721428D01*
X186856666Y-120673809D01*
X186904285Y-120626190D01*
X186951904Y-120530952D01*
X185380476Y-108672380D02*
X185999523Y-108672380D01*
X185666190Y-109053333D01*
X185809047Y-109053333D01*
X185904285Y-109100952D01*
X185951904Y-109148571D01*
X185999523Y-109243809D01*
X185999523Y-109481904D01*
X185951904Y-109577142D01*
X185904285Y-109624761D01*
X185809047Y-109672380D01*
X185523333Y-109672380D01*
X185428095Y-109624761D01*
X185380476Y-109577142D01*
X186332857Y-108672380D02*
X186951904Y-108672380D01*
X186618571Y-109053333D01*
X186761428Y-109053333D01*
X186856666Y-109100952D01*
X186904285Y-109148571D01*
X186951904Y-109243809D01*
X186951904Y-109481904D01*
X186904285Y-109577142D01*
X186856666Y-109624761D01*
X186761428Y-109672380D01*
X186475714Y-109672380D01*
X186380476Y-109624761D01*
X186332857Y-109577142D01*
X185428095Y-101147619D02*
X185475714Y-101100000D01*
X185570952Y-101052380D01*
X185809047Y-101052380D01*
X185904285Y-101100000D01*
X185951904Y-101147619D01*
X185999523Y-101242857D01*
X185999523Y-101338095D01*
X185951904Y-101480952D01*
X185380476Y-102052380D01*
X185999523Y-102052380D01*
X186332857Y-101052380D02*
X186999523Y-101052380D01*
X186570952Y-102052380D01*
X185380476Y-106132380D02*
X185999523Y-106132380D01*
X185666190Y-106513333D01*
X185809047Y-106513333D01*
X185904285Y-106560952D01*
X185951904Y-106608571D01*
X185999523Y-106703809D01*
X185999523Y-106941904D01*
X185951904Y-107037142D01*
X185904285Y-107084761D01*
X185809047Y-107132380D01*
X185523333Y-107132380D01*
X185428095Y-107084761D01*
X185380476Y-107037142D01*
X186951904Y-107132380D02*
X186380476Y-107132380D01*
X186666190Y-107132380D02*
X186666190Y-106132380D01*
X186570952Y-106275238D01*
X186475714Y-106370476D01*
X186380476Y-106418095D01*
X185380476Y-111212380D02*
X185999523Y-111212380D01*
X185666190Y-111593333D01*
X185809047Y-111593333D01*
X185904285Y-111640952D01*
X185951904Y-111688571D01*
X185999523Y-111783809D01*
X185999523Y-112021904D01*
X185951904Y-112117142D01*
X185904285Y-112164761D01*
X185809047Y-112212380D01*
X185523333Y-112212380D01*
X185428095Y-112164761D01*
X185380476Y-112117142D01*
X186904285Y-111212380D02*
X186428095Y-111212380D01*
X186380476Y-111688571D01*
X186428095Y-111640952D01*
X186523333Y-111593333D01*
X186761428Y-111593333D01*
X186856666Y-111640952D01*
X186904285Y-111688571D01*
X186951904Y-111783809D01*
X186951904Y-112021904D01*
X186904285Y-112117142D01*
X186856666Y-112164761D01*
X186761428Y-112212380D01*
X186523333Y-112212380D01*
X186428095Y-112164761D01*
X186380476Y-112117142D01*
X185380476Y-117562380D02*
X185999523Y-117562380D01*
X185666190Y-117943333D01*
X185809047Y-117943333D01*
X185904285Y-117990952D01*
X185951904Y-118038571D01*
X185999523Y-118133809D01*
X185999523Y-118371904D01*
X185951904Y-118467142D01*
X185904285Y-118514761D01*
X185809047Y-118562380D01*
X185523333Y-118562380D01*
X185428095Y-118514761D01*
X185380476Y-118467142D01*
X186332857Y-117562380D02*
X186999523Y-117562380D01*
X186570952Y-118562380D01*
X185428095Y-103687619D02*
X185475714Y-103640000D01*
X185570952Y-103592380D01*
X185809047Y-103592380D01*
X185904285Y-103640000D01*
X185951904Y-103687619D01*
X185999523Y-103782857D01*
X185999523Y-103878095D01*
X185951904Y-104020952D01*
X185380476Y-104592380D01*
X185999523Y-104592380D01*
X186475714Y-104592380D02*
X186666190Y-104592380D01*
X186761428Y-104544761D01*
X186809047Y-104497142D01*
X186904285Y-104354285D01*
X186951904Y-104163809D01*
X186951904Y-103782857D01*
X186904285Y-103687619D01*
X186856666Y-103640000D01*
X186761428Y-103592380D01*
X186570952Y-103592380D01*
X186475714Y-103640000D01*
X186428095Y-103687619D01*
X186380476Y-103782857D01*
X186380476Y-104020952D01*
X186428095Y-104116190D01*
X186475714Y-104163809D01*
X186570952Y-104211428D01*
X186761428Y-104211428D01*
X186856666Y-104163809D01*
X186904285Y-104116190D01*
X186951904Y-104020952D01*
X185428095Y-94797619D02*
X185475714Y-94750000D01*
X185570952Y-94702380D01*
X185809047Y-94702380D01*
X185904285Y-94750000D01*
X185951904Y-94797619D01*
X185999523Y-94892857D01*
X185999523Y-94988095D01*
X185951904Y-95130952D01*
X185380476Y-95702380D01*
X185999523Y-95702380D01*
X186904285Y-94702380D02*
X186428095Y-94702380D01*
X186380476Y-95178571D01*
X186428095Y-95130952D01*
X186523333Y-95083333D01*
X186761428Y-95083333D01*
X186856666Y-95130952D01*
X186904285Y-95178571D01*
X186951904Y-95273809D01*
X186951904Y-95511904D01*
X186904285Y-95607142D01*
X186856666Y-95654761D01*
X186761428Y-95702380D01*
X186523333Y-95702380D01*
X186428095Y-95654761D01*
X186380476Y-95607142D01*
X185428095Y-92257619D02*
X185475714Y-92210000D01*
X185570952Y-92162380D01*
X185809047Y-92162380D01*
X185904285Y-92210000D01*
X185951904Y-92257619D01*
X185999523Y-92352857D01*
X185999523Y-92448095D01*
X185951904Y-92590952D01*
X185380476Y-93162380D01*
X185999523Y-93162380D01*
X186332857Y-92162380D02*
X186951904Y-92162380D01*
X186618571Y-92543333D01*
X186761428Y-92543333D01*
X186856666Y-92590952D01*
X186904285Y-92638571D01*
X186951904Y-92733809D01*
X186951904Y-92971904D01*
X186904285Y-93067142D01*
X186856666Y-93114761D01*
X186761428Y-93162380D01*
X186475714Y-93162380D01*
X186380476Y-93114761D01*
X186332857Y-93067142D01*
X185428095Y-89717619D02*
X185475714Y-89670000D01*
X185570952Y-89622380D01*
X185809047Y-89622380D01*
X185904285Y-89670000D01*
X185951904Y-89717619D01*
X185999523Y-89812857D01*
X185999523Y-89908095D01*
X185951904Y-90050952D01*
X185380476Y-90622380D01*
X185999523Y-90622380D01*
X186951904Y-90622380D02*
X186380476Y-90622380D01*
X186666190Y-90622380D02*
X186666190Y-89622380D01*
X186570952Y-89765238D01*
X186475714Y-89860476D01*
X186380476Y-89908095D01*
X185999523Y-88082380D02*
X185428095Y-88082380D01*
X185713809Y-88082380D02*
X185713809Y-87082380D01*
X185618571Y-87225238D01*
X185523333Y-87320476D01*
X185428095Y-87368095D01*
X186475714Y-88082380D02*
X186666190Y-88082380D01*
X186761428Y-88034761D01*
X186809047Y-87987142D01*
X186904285Y-87844285D01*
X186951904Y-87653809D01*
X186951904Y-87272857D01*
X186904285Y-87177619D01*
X186856666Y-87130000D01*
X186761428Y-87082380D01*
X186570952Y-87082380D01*
X186475714Y-87130000D01*
X186428095Y-87177619D01*
X186380476Y-87272857D01*
X186380476Y-87510952D01*
X186428095Y-87606190D01*
X186475714Y-87653809D01*
X186570952Y-87701428D01*
X186761428Y-87701428D01*
X186856666Y-87653809D01*
X186904285Y-87606190D01*
X186951904Y-87510952D01*
X185999523Y-85542380D02*
X185428095Y-85542380D01*
X185713809Y-85542380D02*
X185713809Y-84542380D01*
X185618571Y-84685238D01*
X185523333Y-84780476D01*
X185428095Y-84828095D01*
X186332857Y-84542380D02*
X186999523Y-84542380D01*
X186570952Y-85542380D01*
X185999523Y-74112380D02*
X185428095Y-74112380D01*
X185713809Y-74112380D02*
X185713809Y-73112380D01*
X185618571Y-73255238D01*
X185523333Y-73350476D01*
X185428095Y-73398095D01*
X186951904Y-74112380D02*
X186380476Y-74112380D01*
X186666190Y-74112380D02*
X186666190Y-73112380D01*
X186570952Y-73255238D01*
X186475714Y-73350476D01*
X186380476Y-73398095D01*
X185999523Y-71572380D02*
X186190000Y-71572380D01*
X186285238Y-71524761D01*
X186332857Y-71477142D01*
X186428095Y-71334285D01*
X186475714Y-71143809D01*
X186475714Y-70762857D01*
X186428095Y-70667619D01*
X186380476Y-70620000D01*
X186285238Y-70572380D01*
X186094761Y-70572380D01*
X185999523Y-70620000D01*
X185951904Y-70667619D01*
X185904285Y-70762857D01*
X185904285Y-71000952D01*
X185951904Y-71096190D01*
X185999523Y-71143809D01*
X186094761Y-71191428D01*
X186285238Y-71191428D01*
X186380476Y-71143809D01*
X186428095Y-71096190D01*
X186475714Y-71000952D01*
X185999523Y-83002380D02*
X185428095Y-83002380D01*
X185713809Y-83002380D02*
X185713809Y-82002380D01*
X185618571Y-82145238D01*
X185523333Y-82240476D01*
X185428095Y-82288095D01*
X186904285Y-82002380D02*
X186428095Y-82002380D01*
X186380476Y-82478571D01*
X186428095Y-82430952D01*
X186523333Y-82383333D01*
X186761428Y-82383333D01*
X186856666Y-82430952D01*
X186904285Y-82478571D01*
X186951904Y-82573809D01*
X186951904Y-82811904D01*
X186904285Y-82907142D01*
X186856666Y-82954761D01*
X186761428Y-83002380D01*
X186523333Y-83002380D01*
X186428095Y-82954761D01*
X186380476Y-82907142D01*
X186475714Y-61412380D02*
X185904285Y-61412380D01*
X186190000Y-61412380D02*
X186190000Y-60412380D01*
X186094761Y-60555238D01*
X185999523Y-60650476D01*
X185904285Y-60698095D01*
X185856666Y-62952380D02*
X186475714Y-62952380D01*
X186142380Y-63333333D01*
X186285238Y-63333333D01*
X186380476Y-63380952D01*
X186428095Y-63428571D01*
X186475714Y-63523809D01*
X186475714Y-63761904D01*
X186428095Y-63857142D01*
X186380476Y-63904761D01*
X186285238Y-63952380D01*
X185999523Y-63952380D01*
X185904285Y-63904761D01*
X185856666Y-63857142D01*
X185856666Y-68032380D02*
X186523333Y-68032380D01*
X186094761Y-69032380D01*
X186428095Y-65492380D02*
X185951904Y-65492380D01*
X185904285Y-65968571D01*
X185951904Y-65920952D01*
X186047142Y-65873333D01*
X186285238Y-65873333D01*
X186380476Y-65920952D01*
X186428095Y-65968571D01*
X186475714Y-66063809D01*
X186475714Y-66301904D01*
X186428095Y-66397142D01*
X186380476Y-66444761D01*
X186285238Y-66492380D01*
X186047142Y-66492380D01*
X185951904Y-66444761D01*
X185904285Y-66397142D01*
X185999523Y-76652380D02*
X185428095Y-76652380D01*
X185713809Y-76652380D02*
X185713809Y-75652380D01*
X185618571Y-75795238D01*
X185523333Y-75890476D01*
X185428095Y-75938095D01*
X186332857Y-75652380D02*
X186951904Y-75652380D01*
X186618571Y-76033333D01*
X186761428Y-76033333D01*
X186856666Y-76080952D01*
X186904285Y-76128571D01*
X186951904Y-76223809D01*
X186951904Y-76461904D01*
X186904285Y-76557142D01*
X186856666Y-76604761D01*
X186761428Y-76652380D01*
X186475714Y-76652380D01*
X186380476Y-76604761D01*
X186332857Y-76557142D01*
D11*
X210820000Y-115570000D02*
X210820000Y-128270000D01*
X200660000Y-115570000D02*
X200660000Y-128270000D01*
X198120000Y-115570000D02*
X198120000Y-128270000D01*
X187960000Y-115570000D02*
X187960000Y-128270000D01*
X187960000Y-129540000D02*
X187960000Y-139700000D01*
X198120000Y-129540000D02*
X198120000Y-139700000D01*
X200660000Y-129540000D02*
X200660000Y-139700000D01*
X210820000Y-129540000D02*
X210820000Y-139700000D01*
X187960000Y-139700000D02*
X198120000Y-139700000D01*
X200660000Y-139700000D02*
X210820000Y-139700000D01*
X187960000Y-129540000D02*
X198120000Y-129540000D01*
X200660000Y-129540000D02*
X210820000Y-129540000D01*
X187960000Y-128270000D02*
X198120000Y-128270000D01*
X200660000Y-128270000D02*
X210820000Y-128270000D01*
X200660000Y-115570000D02*
X210820000Y-115570000D01*
X187960000Y-115570000D02*
X198120000Y-115570000D01*
X210820000Y-114300000D02*
X210820000Y-99060000D01*
X200660000Y-114300000D02*
X200660000Y-99060000D01*
X198120000Y-114300000D02*
X198120000Y-99060000D01*
X187960000Y-114300000D02*
X187960000Y-99060000D01*
X200660000Y-114300000D02*
X210820000Y-114300000D01*
X187960000Y-114300000D02*
X198120000Y-114300000D01*
X200660000Y-99060000D02*
X210820000Y-99060000D01*
X187960000Y-99060000D02*
X198120000Y-99060000D01*
X187960000Y-97790000D02*
X187960000Y-80010000D01*
X198120000Y-97790000D02*
X198120000Y-80010000D01*
X200660000Y-97790000D02*
X200660000Y-80010000D01*
X210820000Y-97790000D02*
X210820000Y-80010000D01*
X200660000Y-97790000D02*
X210820000Y-97790000D01*
X187960000Y-97790000D02*
X198120000Y-97790000D01*
X200660000Y-80010000D02*
X210820000Y-80010000D01*
X187960000Y-80010000D02*
X198120000Y-80010000D01*
X210820000Y-78740000D02*
X210820000Y-58420000D01*
X200660000Y-58420000D02*
X210820000Y-58420000D01*
X200660000Y-78740000D02*
X200660000Y-58420000D01*
X200660000Y-78740000D02*
X210820000Y-78740000D01*
X187960000Y-78740000D02*
X187960000Y-58420000D01*
X198120000Y-78740000D02*
X198120000Y-58420000D01*
X187960000Y-78740000D02*
X198120000Y-78740000D01*
X187960000Y-58420000D02*
X198120000Y-58420000D01*
X242570000Y-138430000D02*
X242570000Y-69850000D01*
X242570000Y-69850000D02*
X217170000Y-69850000D01*
X217170000Y-138430000D02*
X242570000Y-138430000D01*
X217170000Y-69850000D02*
X217170000Y-138430000D01*
D10*
X110228095Y-134167619D02*
X110275714Y-134120000D01*
X110370952Y-134072380D01*
X110609047Y-134072380D01*
X110704285Y-134120000D01*
X110751904Y-134167619D01*
X110799523Y-134262857D01*
X110799523Y-134358095D01*
X110751904Y-134500952D01*
X110180476Y-135072380D01*
X110799523Y-135072380D01*
X111418571Y-134072380D02*
X111513809Y-134072380D01*
X111609047Y-134120000D01*
X111656666Y-134167619D01*
X111704285Y-134262857D01*
X111751904Y-134453333D01*
X111751904Y-134691428D01*
X111704285Y-134881904D01*
X111656666Y-134977142D01*
X111609047Y-135024761D01*
X111513809Y-135072380D01*
X111418571Y-135072380D01*
X111323333Y-135024761D01*
X111275714Y-134977142D01*
X111228095Y-134881904D01*
X111180476Y-134691428D01*
X111180476Y-134453333D01*
X111228095Y-134262857D01*
X111275714Y-134167619D01*
X111323333Y-134120000D01*
X111418571Y-134072380D01*
X110799523Y-127452380D02*
X110228095Y-127452380D01*
X110513809Y-127452380D02*
X110513809Y-126452380D01*
X110418571Y-126595238D01*
X110323333Y-126690476D01*
X110228095Y-126738095D01*
X111656666Y-126785714D02*
X111656666Y-127452380D01*
X111418571Y-126404761D02*
X111180476Y-127119047D01*
X111799523Y-127119047D01*
X110799523Y-122372380D02*
X110228095Y-122372380D01*
X110513809Y-122372380D02*
X110513809Y-121372380D01*
X110418571Y-121515238D01*
X110323333Y-121610476D01*
X110228095Y-121658095D01*
X111418571Y-121372380D02*
X111513809Y-121372380D01*
X111609047Y-121420000D01*
X111656666Y-121467619D01*
X111704285Y-121562857D01*
X111751904Y-121753333D01*
X111751904Y-121991428D01*
X111704285Y-122181904D01*
X111656666Y-122277142D01*
X111609047Y-122324761D01*
X111513809Y-122372380D01*
X111418571Y-122372380D01*
X111323333Y-122324761D01*
X111275714Y-122277142D01*
X111228095Y-122181904D01*
X111180476Y-121991428D01*
X111180476Y-121753333D01*
X111228095Y-121562857D01*
X111275714Y-121467619D01*
X111323333Y-121420000D01*
X111418571Y-121372380D01*
X110799523Y-132532380D02*
X110228095Y-132532380D01*
X110513809Y-132532380D02*
X110513809Y-131532380D01*
X110418571Y-131675238D01*
X110323333Y-131770476D01*
X110228095Y-131818095D01*
X111370952Y-131960952D02*
X111275714Y-131913333D01*
X111228095Y-131865714D01*
X111180476Y-131770476D01*
X111180476Y-131722857D01*
X111228095Y-131627619D01*
X111275714Y-131580000D01*
X111370952Y-131532380D01*
X111561428Y-131532380D01*
X111656666Y-131580000D01*
X111704285Y-131627619D01*
X111751904Y-131722857D01*
X111751904Y-131770476D01*
X111704285Y-131865714D01*
X111656666Y-131913333D01*
X111561428Y-131960952D01*
X111370952Y-131960952D01*
X111275714Y-132008571D01*
X111228095Y-132056190D01*
X111180476Y-132151428D01*
X111180476Y-132341904D01*
X111228095Y-132437142D01*
X111275714Y-132484761D01*
X111370952Y-132532380D01*
X111561428Y-132532380D01*
X111656666Y-132484761D01*
X111704285Y-132437142D01*
X111751904Y-132341904D01*
X111751904Y-132151428D01*
X111704285Y-132056190D01*
X111656666Y-132008571D01*
X111561428Y-131960952D01*
X111180476Y-116292380D02*
X110990000Y-116292380D01*
X110894761Y-116340000D01*
X110847142Y-116387619D01*
X110751904Y-116530476D01*
X110704285Y-116720952D01*
X110704285Y-117101904D01*
X110751904Y-117197142D01*
X110799523Y-117244761D01*
X110894761Y-117292380D01*
X111085238Y-117292380D01*
X111180476Y-117244761D01*
X111228095Y-117197142D01*
X111275714Y-117101904D01*
X111275714Y-116863809D01*
X111228095Y-116768571D01*
X111180476Y-116720952D01*
X111085238Y-116673333D01*
X110894761Y-116673333D01*
X110799523Y-116720952D01*
X110751904Y-116768571D01*
X110704285Y-116863809D01*
X111180476Y-114085714D02*
X111180476Y-114752380D01*
X110942380Y-113704761D02*
X110704285Y-114419047D01*
X111323333Y-114419047D01*
X110799523Y-129992380D02*
X110228095Y-129992380D01*
X110513809Y-129992380D02*
X110513809Y-128992380D01*
X110418571Y-129135238D01*
X110323333Y-129230476D01*
X110228095Y-129278095D01*
X111656666Y-128992380D02*
X111466190Y-128992380D01*
X111370952Y-129040000D01*
X111323333Y-129087619D01*
X111228095Y-129230476D01*
X111180476Y-129420952D01*
X111180476Y-129801904D01*
X111228095Y-129897142D01*
X111275714Y-129944761D01*
X111370952Y-129992380D01*
X111561428Y-129992380D01*
X111656666Y-129944761D01*
X111704285Y-129897142D01*
X111751904Y-129801904D01*
X111751904Y-129563809D01*
X111704285Y-129468571D01*
X111656666Y-129420952D01*
X111561428Y-129373333D01*
X111370952Y-129373333D01*
X111275714Y-129420952D01*
X111228095Y-129468571D01*
X111180476Y-129563809D01*
X110704285Y-111307619D02*
X110751904Y-111260000D01*
X110847142Y-111212380D01*
X111085238Y-111212380D01*
X111180476Y-111260000D01*
X111228095Y-111307619D01*
X111275714Y-111402857D01*
X111275714Y-111498095D01*
X111228095Y-111640952D01*
X110656666Y-112212380D01*
X111275714Y-112212380D01*
X110799523Y-124912380D02*
X110228095Y-124912380D01*
X110513809Y-124912380D02*
X110513809Y-123912380D01*
X110418571Y-124055238D01*
X110323333Y-124150476D01*
X110228095Y-124198095D01*
X111180476Y-124007619D02*
X111228095Y-123960000D01*
X111323333Y-123912380D01*
X111561428Y-123912380D01*
X111656666Y-123960000D01*
X111704285Y-124007619D01*
X111751904Y-124102857D01*
X111751904Y-124198095D01*
X111704285Y-124340952D01*
X111132857Y-124912380D01*
X111751904Y-124912380D01*
X110894761Y-119260952D02*
X110799523Y-119213333D01*
X110751904Y-119165714D01*
X110704285Y-119070476D01*
X110704285Y-119022857D01*
X110751904Y-118927619D01*
X110799523Y-118880000D01*
X110894761Y-118832380D01*
X111085238Y-118832380D01*
X111180476Y-118880000D01*
X111228095Y-118927619D01*
X111275714Y-119022857D01*
X111275714Y-119070476D01*
X111228095Y-119165714D01*
X111180476Y-119213333D01*
X111085238Y-119260952D01*
X110894761Y-119260952D01*
X110799523Y-119308571D01*
X110751904Y-119356190D01*
X110704285Y-119451428D01*
X110704285Y-119641904D01*
X110751904Y-119737142D01*
X110799523Y-119784761D01*
X110894761Y-119832380D01*
X111085238Y-119832380D01*
X111180476Y-119784761D01*
X111228095Y-119737142D01*
X111275714Y-119641904D01*
X111275714Y-119451428D01*
X111228095Y-119356190D01*
X111180476Y-119308571D01*
X111085238Y-119260952D01*
X84399523Y-135072380D02*
X83828095Y-135072380D01*
X84113809Y-135072380D02*
X84113809Y-134072380D01*
X84018571Y-134215238D01*
X83923333Y-134310476D01*
X83828095Y-134358095D01*
X84875714Y-135072380D02*
X85066190Y-135072380D01*
X85161428Y-135024761D01*
X85209047Y-134977142D01*
X85304285Y-134834285D01*
X85351904Y-134643809D01*
X85351904Y-134262857D01*
X85304285Y-134167619D01*
X85256666Y-134120000D01*
X85161428Y-134072380D01*
X84970952Y-134072380D01*
X84875714Y-134120000D01*
X84828095Y-134167619D01*
X84780476Y-134262857D01*
X84780476Y-134500952D01*
X84828095Y-134596190D01*
X84875714Y-134643809D01*
X84970952Y-134691428D01*
X85161428Y-134691428D01*
X85256666Y-134643809D01*
X85304285Y-134596190D01*
X85351904Y-134500952D01*
X84399523Y-132532380D02*
X83828095Y-132532380D01*
X84113809Y-132532380D02*
X84113809Y-131532380D01*
X84018571Y-131675238D01*
X83923333Y-131770476D01*
X83828095Y-131818095D01*
X84732857Y-131532380D02*
X85399523Y-131532380D01*
X84970952Y-132532380D01*
X84399523Y-127452380D02*
X83828095Y-127452380D01*
X84113809Y-127452380D02*
X84113809Y-126452380D01*
X84018571Y-126595238D01*
X83923333Y-126690476D01*
X83828095Y-126738095D01*
X84732857Y-126452380D02*
X85351904Y-126452380D01*
X85018571Y-126833333D01*
X85161428Y-126833333D01*
X85256666Y-126880952D01*
X85304285Y-126928571D01*
X85351904Y-127023809D01*
X85351904Y-127261904D01*
X85304285Y-127357142D01*
X85256666Y-127404761D01*
X85161428Y-127452380D01*
X84875714Y-127452380D01*
X84780476Y-127404761D01*
X84732857Y-127357142D01*
X84399523Y-124912380D02*
X83828095Y-124912380D01*
X84113809Y-124912380D02*
X84113809Y-123912380D01*
X84018571Y-124055238D01*
X83923333Y-124150476D01*
X83828095Y-124198095D01*
X85351904Y-124912380D02*
X84780476Y-124912380D01*
X85066190Y-124912380D02*
X85066190Y-123912380D01*
X84970952Y-124055238D01*
X84875714Y-124150476D01*
X84780476Y-124198095D01*
X84828095Y-116292380D02*
X84351904Y-116292380D01*
X84304285Y-116768571D01*
X84351904Y-116720952D01*
X84447142Y-116673333D01*
X84685238Y-116673333D01*
X84780476Y-116720952D01*
X84828095Y-116768571D01*
X84875714Y-116863809D01*
X84875714Y-117101904D01*
X84828095Y-117197142D01*
X84780476Y-117244761D01*
X84685238Y-117292380D01*
X84447142Y-117292380D01*
X84351904Y-117244761D01*
X84304285Y-117197142D01*
X84875714Y-112212380D02*
X84304285Y-112212380D01*
X84590000Y-112212380D02*
X84590000Y-111212380D01*
X84494761Y-111355238D01*
X84399523Y-111450476D01*
X84304285Y-111498095D01*
X84256666Y-113752380D02*
X84875714Y-113752380D01*
X84542380Y-114133333D01*
X84685238Y-114133333D01*
X84780476Y-114180952D01*
X84828095Y-114228571D01*
X84875714Y-114323809D01*
X84875714Y-114561904D01*
X84828095Y-114657142D01*
X84780476Y-114704761D01*
X84685238Y-114752380D01*
X84399523Y-114752380D01*
X84304285Y-114704761D01*
X84256666Y-114657142D01*
X84256666Y-118832380D02*
X84923333Y-118832380D01*
X84494761Y-119832380D01*
X84399523Y-122372380D02*
X84590000Y-122372380D01*
X84685238Y-122324761D01*
X84732857Y-122277142D01*
X84828095Y-122134285D01*
X84875714Y-121943809D01*
X84875714Y-121562857D01*
X84828095Y-121467619D01*
X84780476Y-121420000D01*
X84685238Y-121372380D01*
X84494761Y-121372380D01*
X84399523Y-121420000D01*
X84351904Y-121467619D01*
X84304285Y-121562857D01*
X84304285Y-121800952D01*
X84351904Y-121896190D01*
X84399523Y-121943809D01*
X84494761Y-121991428D01*
X84685238Y-121991428D01*
X84780476Y-121943809D01*
X84828095Y-121896190D01*
X84875714Y-121800952D01*
X84399523Y-129992380D02*
X83828095Y-129992380D01*
X84113809Y-129992380D02*
X84113809Y-128992380D01*
X84018571Y-129135238D01*
X83923333Y-129230476D01*
X83828095Y-129278095D01*
X85304285Y-128992380D02*
X84828095Y-128992380D01*
X84780476Y-129468571D01*
X84828095Y-129420952D01*
X84923333Y-129373333D01*
X85161428Y-129373333D01*
X85256666Y-129420952D01*
X85304285Y-129468571D01*
X85351904Y-129563809D01*
X85351904Y-129801904D01*
X85304285Y-129897142D01*
X85256666Y-129944761D01*
X85161428Y-129992380D01*
X84923333Y-129992380D01*
X84828095Y-129944761D01*
X84780476Y-129897142D01*
D11*
X86360000Y-137160000D02*
X96520000Y-137160000D01*
X99060000Y-137160000D02*
X109220000Y-137160000D01*
X109220000Y-109220000D02*
X109220000Y-137160000D01*
X99060000Y-109220000D02*
X99060000Y-137160000D01*
X96520000Y-109220000D02*
X96520000Y-137160000D01*
X86360000Y-109220000D02*
X86360000Y-137160000D01*
X99060000Y-109220000D02*
X109220000Y-109220000D01*
X86360000Y-109220000D02*
X96520000Y-109220000D01*
X99060000Y-85090000D02*
X99060000Y-107950000D01*
X86360000Y-85090000D02*
X86360000Y-107950000D01*
X109220000Y-85090000D02*
X109220000Y-107950000D01*
X86360000Y-107950000D02*
X96520000Y-107950000D01*
X99060000Y-85090000D02*
X109220000Y-85090000D01*
X99060000Y-107950000D02*
X109220000Y-107950000D01*
X96520000Y-85090000D02*
X96520000Y-107950000D01*
X86360000Y-85090000D02*
X96520000Y-85090000D01*
D10*
X83780476Y-102322380D02*
X84399523Y-102322380D01*
X84066190Y-102703333D01*
X84209047Y-102703333D01*
X84304285Y-102750952D01*
X84351904Y-102798571D01*
X84399523Y-102893809D01*
X84399523Y-103131904D01*
X84351904Y-103227142D01*
X84304285Y-103274761D01*
X84209047Y-103322380D01*
X83923333Y-103322380D01*
X83828095Y-103274761D01*
X83780476Y-103227142D01*
X85351904Y-103322380D02*
X84780476Y-103322380D01*
X85066190Y-103322380D02*
X85066190Y-102322380D01*
X84970952Y-102465238D01*
X84875714Y-102560476D01*
X84780476Y-102608095D01*
X83828095Y-99877619D02*
X83875714Y-99830000D01*
X83970952Y-99782380D01*
X84209047Y-99782380D01*
X84304285Y-99830000D01*
X84351904Y-99877619D01*
X84399523Y-99972857D01*
X84399523Y-100068095D01*
X84351904Y-100210952D01*
X83780476Y-100782380D01*
X84399523Y-100782380D01*
X84875714Y-100782380D02*
X85066190Y-100782380D01*
X85161428Y-100734761D01*
X85209047Y-100687142D01*
X85304285Y-100544285D01*
X85351904Y-100353809D01*
X85351904Y-99972857D01*
X85304285Y-99877619D01*
X85256666Y-99830000D01*
X85161428Y-99782380D01*
X84970952Y-99782380D01*
X84875714Y-99830000D01*
X84828095Y-99877619D01*
X84780476Y-99972857D01*
X84780476Y-100210952D01*
X84828095Y-100306190D01*
X84875714Y-100353809D01*
X84970952Y-100401428D01*
X85161428Y-100401428D01*
X85256666Y-100353809D01*
X85304285Y-100306190D01*
X85351904Y-100210952D01*
X83828095Y-92257619D02*
X83875714Y-92210000D01*
X83970952Y-92162380D01*
X84209047Y-92162380D01*
X84304285Y-92210000D01*
X84351904Y-92257619D01*
X84399523Y-92352857D01*
X84399523Y-92448095D01*
X84351904Y-92590952D01*
X83780476Y-93162380D01*
X84399523Y-93162380D01*
X84732857Y-92162380D02*
X85351904Y-92162380D01*
X85018571Y-92543333D01*
X85161428Y-92543333D01*
X85256666Y-92590952D01*
X85304285Y-92638571D01*
X85351904Y-92733809D01*
X85351904Y-92971904D01*
X85304285Y-93067142D01*
X85256666Y-93114761D01*
X85161428Y-93162380D01*
X84875714Y-93162380D01*
X84780476Y-93114761D01*
X84732857Y-93067142D01*
X84399523Y-88082380D02*
X83828095Y-88082380D01*
X84113809Y-88082380D02*
X84113809Y-87082380D01*
X84018571Y-87225238D01*
X83923333Y-87320476D01*
X83828095Y-87368095D01*
X84875714Y-88082380D02*
X85066190Y-88082380D01*
X85161428Y-88034761D01*
X85209047Y-87987142D01*
X85304285Y-87844285D01*
X85351904Y-87653809D01*
X85351904Y-87272857D01*
X85304285Y-87177619D01*
X85256666Y-87130000D01*
X85161428Y-87082380D01*
X84970952Y-87082380D01*
X84875714Y-87130000D01*
X84828095Y-87177619D01*
X84780476Y-87272857D01*
X84780476Y-87510952D01*
X84828095Y-87606190D01*
X84875714Y-87653809D01*
X84970952Y-87701428D01*
X85161428Y-87701428D01*
X85256666Y-87653809D01*
X85304285Y-87606190D01*
X85351904Y-87510952D01*
X83828095Y-89717619D02*
X83875714Y-89670000D01*
X83970952Y-89622380D01*
X84209047Y-89622380D01*
X84304285Y-89670000D01*
X84351904Y-89717619D01*
X84399523Y-89812857D01*
X84399523Y-89908095D01*
X84351904Y-90050952D01*
X83780476Y-90622380D01*
X84399523Y-90622380D01*
X85351904Y-90622380D02*
X84780476Y-90622380D01*
X85066190Y-90622380D02*
X85066190Y-89622380D01*
X84970952Y-89765238D01*
X84875714Y-89860476D01*
X84780476Y-89908095D01*
X83828095Y-94797619D02*
X83875714Y-94750000D01*
X83970952Y-94702380D01*
X84209047Y-94702380D01*
X84304285Y-94750000D01*
X84351904Y-94797619D01*
X84399523Y-94892857D01*
X84399523Y-94988095D01*
X84351904Y-95130952D01*
X83780476Y-95702380D01*
X84399523Y-95702380D01*
X85304285Y-94702380D02*
X84828095Y-94702380D01*
X84780476Y-95178571D01*
X84828095Y-95130952D01*
X84923333Y-95083333D01*
X85161428Y-95083333D01*
X85256666Y-95130952D01*
X85304285Y-95178571D01*
X85351904Y-95273809D01*
X85351904Y-95511904D01*
X85304285Y-95607142D01*
X85256666Y-95654761D01*
X85161428Y-95702380D01*
X84923333Y-95702380D01*
X84828095Y-95654761D01*
X84780476Y-95607142D01*
X83828095Y-97337619D02*
X83875714Y-97290000D01*
X83970952Y-97242380D01*
X84209047Y-97242380D01*
X84304285Y-97290000D01*
X84351904Y-97337619D01*
X84399523Y-97432857D01*
X84399523Y-97528095D01*
X84351904Y-97670952D01*
X83780476Y-98242380D01*
X84399523Y-98242380D01*
X84732857Y-97242380D02*
X85399523Y-97242380D01*
X84970952Y-98242380D01*
X83780476Y-104862380D02*
X84399523Y-104862380D01*
X84066190Y-105243333D01*
X84209047Y-105243333D01*
X84304285Y-105290952D01*
X84351904Y-105338571D01*
X84399523Y-105433809D01*
X84399523Y-105671904D01*
X84351904Y-105767142D01*
X84304285Y-105814761D01*
X84209047Y-105862380D01*
X83923333Y-105862380D01*
X83828095Y-105814761D01*
X83780476Y-105767142D01*
X84732857Y-104862380D02*
X85351904Y-104862380D01*
X85018571Y-105243333D01*
X85161428Y-105243333D01*
X85256666Y-105290952D01*
X85304285Y-105338571D01*
X85351904Y-105433809D01*
X85351904Y-105671904D01*
X85304285Y-105767142D01*
X85256666Y-105814761D01*
X85161428Y-105862380D01*
X84875714Y-105862380D01*
X84780476Y-105814761D01*
X84732857Y-105767142D01*
X110180476Y-102322380D02*
X110799523Y-102322380D01*
X110466190Y-102703333D01*
X110609047Y-102703333D01*
X110704285Y-102750952D01*
X110751904Y-102798571D01*
X110799523Y-102893809D01*
X110799523Y-103131904D01*
X110751904Y-103227142D01*
X110704285Y-103274761D01*
X110609047Y-103322380D01*
X110323333Y-103322380D01*
X110228095Y-103274761D01*
X110180476Y-103227142D01*
X111180476Y-102417619D02*
X111228095Y-102370000D01*
X111323333Y-102322380D01*
X111561428Y-102322380D01*
X111656666Y-102370000D01*
X111704285Y-102417619D01*
X111751904Y-102512857D01*
X111751904Y-102608095D01*
X111704285Y-102750952D01*
X111132857Y-103322380D01*
X111751904Y-103322380D01*
X110228095Y-97337619D02*
X110275714Y-97290000D01*
X110370952Y-97242380D01*
X110609047Y-97242380D01*
X110704285Y-97290000D01*
X110751904Y-97337619D01*
X110799523Y-97432857D01*
X110799523Y-97528095D01*
X110751904Y-97670952D01*
X110180476Y-98242380D01*
X110799523Y-98242380D01*
X111370952Y-97670952D02*
X111275714Y-97623333D01*
X111228095Y-97575714D01*
X111180476Y-97480476D01*
X111180476Y-97432857D01*
X111228095Y-97337619D01*
X111275714Y-97290000D01*
X111370952Y-97242380D01*
X111561428Y-97242380D01*
X111656666Y-97290000D01*
X111704285Y-97337619D01*
X111751904Y-97432857D01*
X111751904Y-97480476D01*
X111704285Y-97575714D01*
X111656666Y-97623333D01*
X111561428Y-97670952D01*
X111370952Y-97670952D01*
X111275714Y-97718571D01*
X111228095Y-97766190D01*
X111180476Y-97861428D01*
X111180476Y-98051904D01*
X111228095Y-98147142D01*
X111275714Y-98194761D01*
X111370952Y-98242380D01*
X111561428Y-98242380D01*
X111656666Y-98194761D01*
X111704285Y-98147142D01*
X111751904Y-98051904D01*
X111751904Y-97861428D01*
X111704285Y-97766190D01*
X111656666Y-97718571D01*
X111561428Y-97670952D01*
X110228095Y-92257619D02*
X110275714Y-92210000D01*
X110370952Y-92162380D01*
X110609047Y-92162380D01*
X110704285Y-92210000D01*
X110751904Y-92257619D01*
X110799523Y-92352857D01*
X110799523Y-92448095D01*
X110751904Y-92590952D01*
X110180476Y-93162380D01*
X110799523Y-93162380D01*
X111656666Y-92495714D02*
X111656666Y-93162380D01*
X111418571Y-92114761D02*
X111180476Y-92829047D01*
X111799523Y-92829047D01*
X110228095Y-89717619D02*
X110275714Y-89670000D01*
X110370952Y-89622380D01*
X110609047Y-89622380D01*
X110704285Y-89670000D01*
X110751904Y-89717619D01*
X110799523Y-89812857D01*
X110799523Y-89908095D01*
X110751904Y-90050952D01*
X110180476Y-90622380D01*
X110799523Y-90622380D01*
X111180476Y-89717619D02*
X111228095Y-89670000D01*
X111323333Y-89622380D01*
X111561428Y-89622380D01*
X111656666Y-89670000D01*
X111704285Y-89717619D01*
X111751904Y-89812857D01*
X111751904Y-89908095D01*
X111704285Y-90050952D01*
X111132857Y-90622380D01*
X111751904Y-90622380D01*
X110180476Y-104862380D02*
X110799523Y-104862380D01*
X110466190Y-105243333D01*
X110609047Y-105243333D01*
X110704285Y-105290952D01*
X110751904Y-105338571D01*
X110799523Y-105433809D01*
X110799523Y-105671904D01*
X110751904Y-105767142D01*
X110704285Y-105814761D01*
X110609047Y-105862380D01*
X110323333Y-105862380D01*
X110228095Y-105814761D01*
X110180476Y-105767142D01*
X111656666Y-105195714D02*
X111656666Y-105862380D01*
X111418571Y-104814761D02*
X111180476Y-105529047D01*
X111799523Y-105529047D01*
X110228095Y-87177619D02*
X110275714Y-87130000D01*
X110370952Y-87082380D01*
X110609047Y-87082380D01*
X110704285Y-87130000D01*
X110751904Y-87177619D01*
X110799523Y-87272857D01*
X110799523Y-87368095D01*
X110751904Y-87510952D01*
X110180476Y-88082380D01*
X110799523Y-88082380D01*
X111418571Y-87082380D02*
X111513809Y-87082380D01*
X111609047Y-87130000D01*
X111656666Y-87177619D01*
X111704285Y-87272857D01*
X111751904Y-87463333D01*
X111751904Y-87701428D01*
X111704285Y-87891904D01*
X111656666Y-87987142D01*
X111609047Y-88034761D01*
X111513809Y-88082380D01*
X111418571Y-88082380D01*
X111323333Y-88034761D01*
X111275714Y-87987142D01*
X111228095Y-87891904D01*
X111180476Y-87701428D01*
X111180476Y-87463333D01*
X111228095Y-87272857D01*
X111275714Y-87177619D01*
X111323333Y-87130000D01*
X111418571Y-87082380D01*
X110180476Y-99782380D02*
X110799523Y-99782380D01*
X110466190Y-100163333D01*
X110609047Y-100163333D01*
X110704285Y-100210952D01*
X110751904Y-100258571D01*
X110799523Y-100353809D01*
X110799523Y-100591904D01*
X110751904Y-100687142D01*
X110704285Y-100734761D01*
X110609047Y-100782380D01*
X110323333Y-100782380D01*
X110228095Y-100734761D01*
X110180476Y-100687142D01*
X111418571Y-99782380D02*
X111513809Y-99782380D01*
X111609047Y-99830000D01*
X111656666Y-99877619D01*
X111704285Y-99972857D01*
X111751904Y-100163333D01*
X111751904Y-100401428D01*
X111704285Y-100591904D01*
X111656666Y-100687142D01*
X111609047Y-100734761D01*
X111513809Y-100782380D01*
X111418571Y-100782380D01*
X111323333Y-100734761D01*
X111275714Y-100687142D01*
X111228095Y-100591904D01*
X111180476Y-100401428D01*
X111180476Y-100163333D01*
X111228095Y-99972857D01*
X111275714Y-99877619D01*
X111323333Y-99830000D01*
X111418571Y-99782380D01*
X110228095Y-94797619D02*
X110275714Y-94750000D01*
X110370952Y-94702380D01*
X110609047Y-94702380D01*
X110704285Y-94750000D01*
X110751904Y-94797619D01*
X110799523Y-94892857D01*
X110799523Y-94988095D01*
X110751904Y-95130952D01*
X110180476Y-95702380D01*
X110799523Y-95702380D01*
X111656666Y-94702380D02*
X111466190Y-94702380D01*
X111370952Y-94750000D01*
X111323333Y-94797619D01*
X111228095Y-94940476D01*
X111180476Y-95130952D01*
X111180476Y-95511904D01*
X111228095Y-95607142D01*
X111275714Y-95654761D01*
X111370952Y-95702380D01*
X111561428Y-95702380D01*
X111656666Y-95654761D01*
X111704285Y-95607142D01*
X111751904Y-95511904D01*
X111751904Y-95273809D01*
X111704285Y-95178571D01*
X111656666Y-95130952D01*
X111561428Y-95083333D01*
X111370952Y-95083333D01*
X111275714Y-95130952D01*
X111228095Y-95178571D01*
X111180476Y-95273809D01*
X110799523Y-81732380D02*
X110228095Y-81732380D01*
X110513809Y-81732380D02*
X110513809Y-80732380D01*
X110418571Y-80875238D01*
X110323333Y-80970476D01*
X110228095Y-81018095D01*
X111370952Y-81160952D02*
X111275714Y-81113333D01*
X111228095Y-81065714D01*
X111180476Y-80970476D01*
X111180476Y-80922857D01*
X111228095Y-80827619D01*
X111275714Y-80780000D01*
X111370952Y-80732380D01*
X111561428Y-80732380D01*
X111656666Y-80780000D01*
X111704285Y-80827619D01*
X111751904Y-80922857D01*
X111751904Y-80970476D01*
X111704285Y-81065714D01*
X111656666Y-81113333D01*
X111561428Y-81160952D01*
X111370952Y-81160952D01*
X111275714Y-81208571D01*
X111228095Y-81256190D01*
X111180476Y-81351428D01*
X111180476Y-81541904D01*
X111228095Y-81637142D01*
X111275714Y-81684761D01*
X111370952Y-81732380D01*
X111561428Y-81732380D01*
X111656666Y-81684761D01*
X111704285Y-81637142D01*
X111751904Y-81541904D01*
X111751904Y-81351428D01*
X111704285Y-81256190D01*
X111656666Y-81208571D01*
X111561428Y-81160952D01*
X110799523Y-76652380D02*
X110228095Y-76652380D01*
X110513809Y-76652380D02*
X110513809Y-75652380D01*
X110418571Y-75795238D01*
X110323333Y-75890476D01*
X110228095Y-75938095D01*
X111656666Y-75985714D02*
X111656666Y-76652380D01*
X111418571Y-75604761D02*
X111180476Y-76319047D01*
X111799523Y-76319047D01*
X110799523Y-74112380D02*
X110228095Y-74112380D01*
X110513809Y-74112380D02*
X110513809Y-73112380D01*
X110418571Y-73255238D01*
X110323333Y-73350476D01*
X110228095Y-73398095D01*
X111180476Y-73207619D02*
X111228095Y-73160000D01*
X111323333Y-73112380D01*
X111561428Y-73112380D01*
X111656666Y-73160000D01*
X111704285Y-73207619D01*
X111751904Y-73302857D01*
X111751904Y-73398095D01*
X111704285Y-73540952D01*
X111132857Y-74112380D01*
X111751904Y-74112380D01*
X111180476Y-65492380D02*
X110990000Y-65492380D01*
X110894761Y-65540000D01*
X110847142Y-65587619D01*
X110751904Y-65730476D01*
X110704285Y-65920952D01*
X110704285Y-66301904D01*
X110751904Y-66397142D01*
X110799523Y-66444761D01*
X110894761Y-66492380D01*
X111085238Y-66492380D01*
X111180476Y-66444761D01*
X111228095Y-66397142D01*
X111275714Y-66301904D01*
X111275714Y-66063809D01*
X111228095Y-65968571D01*
X111180476Y-65920952D01*
X111085238Y-65873333D01*
X110894761Y-65873333D01*
X110799523Y-65920952D01*
X110751904Y-65968571D01*
X110704285Y-66063809D01*
X110704285Y-60507619D02*
X110751904Y-60460000D01*
X110847142Y-60412380D01*
X111085238Y-60412380D01*
X111180476Y-60460000D01*
X111228095Y-60507619D01*
X111275714Y-60602857D01*
X111275714Y-60698095D01*
X111228095Y-60840952D01*
X110656666Y-61412380D01*
X111275714Y-61412380D01*
X111180476Y-63285714D02*
X111180476Y-63952380D01*
X110942380Y-62904761D02*
X110704285Y-63619047D01*
X111323333Y-63619047D01*
X110894761Y-68460952D02*
X110799523Y-68413333D01*
X110751904Y-68365714D01*
X110704285Y-68270476D01*
X110704285Y-68222857D01*
X110751904Y-68127619D01*
X110799523Y-68080000D01*
X110894761Y-68032380D01*
X111085238Y-68032380D01*
X111180476Y-68080000D01*
X111228095Y-68127619D01*
X111275714Y-68222857D01*
X111275714Y-68270476D01*
X111228095Y-68365714D01*
X111180476Y-68413333D01*
X111085238Y-68460952D01*
X110894761Y-68460952D01*
X110799523Y-68508571D01*
X110751904Y-68556190D01*
X110704285Y-68651428D01*
X110704285Y-68841904D01*
X110751904Y-68937142D01*
X110799523Y-68984761D01*
X110894761Y-69032380D01*
X111085238Y-69032380D01*
X111180476Y-68984761D01*
X111228095Y-68937142D01*
X111275714Y-68841904D01*
X111275714Y-68651428D01*
X111228095Y-68556190D01*
X111180476Y-68508571D01*
X111085238Y-68460952D01*
X110799523Y-71572380D02*
X110228095Y-71572380D01*
X110513809Y-71572380D02*
X110513809Y-70572380D01*
X110418571Y-70715238D01*
X110323333Y-70810476D01*
X110228095Y-70858095D01*
X111418571Y-70572380D02*
X111513809Y-70572380D01*
X111609047Y-70620000D01*
X111656666Y-70667619D01*
X111704285Y-70762857D01*
X111751904Y-70953333D01*
X111751904Y-71191428D01*
X111704285Y-71381904D01*
X111656666Y-71477142D01*
X111609047Y-71524761D01*
X111513809Y-71572380D01*
X111418571Y-71572380D01*
X111323333Y-71524761D01*
X111275714Y-71477142D01*
X111228095Y-71381904D01*
X111180476Y-71191428D01*
X111180476Y-70953333D01*
X111228095Y-70762857D01*
X111275714Y-70667619D01*
X111323333Y-70620000D01*
X111418571Y-70572380D01*
X110799523Y-79192380D02*
X110228095Y-79192380D01*
X110513809Y-79192380D02*
X110513809Y-78192380D01*
X110418571Y-78335238D01*
X110323333Y-78430476D01*
X110228095Y-78478095D01*
X111656666Y-78192380D02*
X111466190Y-78192380D01*
X111370952Y-78240000D01*
X111323333Y-78287619D01*
X111228095Y-78430476D01*
X111180476Y-78620952D01*
X111180476Y-79001904D01*
X111228095Y-79097142D01*
X111275714Y-79144761D01*
X111370952Y-79192380D01*
X111561428Y-79192380D01*
X111656666Y-79144761D01*
X111704285Y-79097142D01*
X111751904Y-79001904D01*
X111751904Y-78763809D01*
X111704285Y-78668571D01*
X111656666Y-78620952D01*
X111561428Y-78573333D01*
X111370952Y-78573333D01*
X111275714Y-78620952D01*
X111228095Y-78668571D01*
X111180476Y-78763809D01*
X84399523Y-81732380D02*
X83828095Y-81732380D01*
X84113809Y-81732380D02*
X84113809Y-80732380D01*
X84018571Y-80875238D01*
X83923333Y-80970476D01*
X83828095Y-81018095D01*
X84732857Y-80732380D02*
X85399523Y-80732380D01*
X84970952Y-81732380D01*
X84399523Y-76652380D02*
X83828095Y-76652380D01*
X84113809Y-76652380D02*
X84113809Y-75652380D01*
X84018571Y-75795238D01*
X83923333Y-75890476D01*
X83828095Y-75938095D01*
X84732857Y-75652380D02*
X85351904Y-75652380D01*
X85018571Y-76033333D01*
X85161428Y-76033333D01*
X85256666Y-76080952D01*
X85304285Y-76128571D01*
X85351904Y-76223809D01*
X85351904Y-76461904D01*
X85304285Y-76557142D01*
X85256666Y-76604761D01*
X85161428Y-76652380D01*
X84875714Y-76652380D01*
X84780476Y-76604761D01*
X84732857Y-76557142D01*
X84399523Y-71572380D02*
X84590000Y-71572380D01*
X84685238Y-71524761D01*
X84732857Y-71477142D01*
X84828095Y-71334285D01*
X84875714Y-71143809D01*
X84875714Y-70762857D01*
X84828095Y-70667619D01*
X84780476Y-70620000D01*
X84685238Y-70572380D01*
X84494761Y-70572380D01*
X84399523Y-70620000D01*
X84351904Y-70667619D01*
X84304285Y-70762857D01*
X84304285Y-71000952D01*
X84351904Y-71096190D01*
X84399523Y-71143809D01*
X84494761Y-71191428D01*
X84685238Y-71191428D01*
X84780476Y-71143809D01*
X84828095Y-71096190D01*
X84875714Y-71000952D01*
X84399523Y-74112380D02*
X83828095Y-74112380D01*
X84113809Y-74112380D02*
X84113809Y-73112380D01*
X84018571Y-73255238D01*
X83923333Y-73350476D01*
X83828095Y-73398095D01*
X85351904Y-74112380D02*
X84780476Y-74112380D01*
X85066190Y-74112380D02*
X85066190Y-73112380D01*
X84970952Y-73255238D01*
X84875714Y-73350476D01*
X84780476Y-73398095D01*
X84399523Y-79192380D02*
X83828095Y-79192380D01*
X84113809Y-79192380D02*
X84113809Y-78192380D01*
X84018571Y-78335238D01*
X83923333Y-78430476D01*
X83828095Y-78478095D01*
X85304285Y-78192380D02*
X84828095Y-78192380D01*
X84780476Y-78668571D01*
X84828095Y-78620952D01*
X84923333Y-78573333D01*
X85161428Y-78573333D01*
X85256666Y-78620952D01*
X85304285Y-78668571D01*
X85351904Y-78763809D01*
X85351904Y-79001904D01*
X85304285Y-79097142D01*
X85256666Y-79144761D01*
X85161428Y-79192380D01*
X84923333Y-79192380D01*
X84828095Y-79144761D01*
X84780476Y-79097142D01*
X84828095Y-65492380D02*
X84351904Y-65492380D01*
X84304285Y-65968571D01*
X84351904Y-65920952D01*
X84447142Y-65873333D01*
X84685238Y-65873333D01*
X84780476Y-65920952D01*
X84828095Y-65968571D01*
X84875714Y-66063809D01*
X84875714Y-66301904D01*
X84828095Y-66397142D01*
X84780476Y-66444761D01*
X84685238Y-66492380D01*
X84447142Y-66492380D01*
X84351904Y-66444761D01*
X84304285Y-66397142D01*
X84256666Y-68032380D02*
X84923333Y-68032380D01*
X84494761Y-69032380D01*
X84256666Y-62952380D02*
X84875714Y-62952380D01*
X84542380Y-63333333D01*
X84685238Y-63333333D01*
X84780476Y-63380952D01*
X84828095Y-63428571D01*
X84875714Y-63523809D01*
X84875714Y-63761904D01*
X84828095Y-63857142D01*
X84780476Y-63904761D01*
X84685238Y-63952380D01*
X84399523Y-63952380D01*
X84304285Y-63904761D01*
X84256666Y-63857142D01*
X84875714Y-61412380D02*
X84304285Y-61412380D01*
X84590000Y-61412380D02*
X84590000Y-60412380D01*
X84494761Y-60555238D01*
X84399523Y-60650476D01*
X84304285Y-60698095D01*
D11*
X99060000Y-83820000D02*
X109220000Y-83820000D01*
X86360000Y-83820000D02*
X96520000Y-83820000D01*
X86360000Y-58420000D02*
X86360000Y-83820000D01*
X96520000Y-58420000D02*
X96520000Y-83820000D01*
X99060000Y-58420000D02*
X99060000Y-83820000D01*
X109220000Y-58420000D02*
X109220000Y-83820000D01*
X99060000Y-58420000D02*
X109220000Y-58420000D01*
X86360000Y-58420000D02*
X96520000Y-58420000D01*
D12*
X146865714Y-58779428D02*
X146032380Y-58779428D01*
X146032380Y-60088952D02*
X146032380Y-57588952D01*
X147222857Y-57588952D01*
X148532380Y-60088952D02*
X148294285Y-59969904D01*
X148175238Y-59850857D01*
X148056190Y-59612761D01*
X148056190Y-58898476D01*
X148175238Y-58660380D01*
X148294285Y-58541333D01*
X148532380Y-58422285D01*
X148889523Y-58422285D01*
X149127619Y-58541333D01*
X149246666Y-58660380D01*
X149365714Y-58898476D01*
X149365714Y-59612761D01*
X149246666Y-59850857D01*
X149127619Y-59969904D01*
X148889523Y-60088952D01*
X148532380Y-60088952D01*
X150437142Y-60088952D02*
X150437142Y-58422285D01*
X150437142Y-58898476D02*
X150556190Y-58660380D01*
X150675238Y-58541333D01*
X150913333Y-58422285D01*
X151151428Y-58422285D01*
X153056190Y-58422285D02*
X153056190Y-60446095D01*
X152937142Y-60684190D01*
X152818095Y-60803238D01*
X152580000Y-60922285D01*
X152222857Y-60922285D01*
X151984761Y-60803238D01*
X153056190Y-59969904D02*
X152818095Y-60088952D01*
X152341904Y-60088952D01*
X152103809Y-59969904D01*
X151984761Y-59850857D01*
X151865714Y-59612761D01*
X151865714Y-58898476D01*
X151984761Y-58660380D01*
X152103809Y-58541333D01*
X152341904Y-58422285D01*
X152818095Y-58422285D01*
X153056190Y-58541333D01*
X154603809Y-60088952D02*
X154365714Y-59969904D01*
X154246666Y-59850857D01*
X154127619Y-59612761D01*
X154127619Y-58898476D01*
X154246666Y-58660380D01*
X154365714Y-58541333D01*
X154603809Y-58422285D01*
X154960952Y-58422285D01*
X155199047Y-58541333D01*
X155318095Y-58660380D01*
X155437142Y-58898476D01*
X155437142Y-59612761D01*
X155318095Y-59850857D01*
X155199047Y-59969904D01*
X154960952Y-60088952D01*
X154603809Y-60088952D01*
X156151428Y-58422285D02*
X157103809Y-58422285D01*
X156508571Y-57588952D02*
X156508571Y-59731809D01*
X156627619Y-59969904D01*
X156865714Y-60088952D01*
X157103809Y-60088952D01*
X157580000Y-58422285D02*
X158532380Y-58422285D01*
X157937142Y-57588952D02*
X157937142Y-59731809D01*
X158056190Y-59969904D01*
X158294285Y-60088952D01*
X158532380Y-60088952D01*
X160318095Y-59969904D02*
X160080000Y-60088952D01*
X159603809Y-60088952D01*
X159365714Y-59969904D01*
X159246666Y-59731809D01*
X159246666Y-58779428D01*
X159365714Y-58541333D01*
X159603809Y-58422285D01*
X160080000Y-58422285D01*
X160318095Y-58541333D01*
X160437142Y-58779428D01*
X160437142Y-59017523D01*
X159246666Y-59255619D01*
X161508571Y-58422285D02*
X161508571Y-60088952D01*
X161508571Y-58660380D02*
X161627619Y-58541333D01*
X161865714Y-58422285D01*
X162222857Y-58422285D01*
X162460952Y-58541333D01*
X162580000Y-58779428D01*
X162580000Y-60088952D01*
X165675238Y-60088952D02*
X165675238Y-57588952D01*
X166508571Y-59374666D01*
X167341904Y-57588952D01*
X167341904Y-60088952D01*
X169603809Y-60088952D02*
X169603809Y-58779428D01*
X169484761Y-58541333D01*
X169246666Y-58422285D01*
X168770476Y-58422285D01*
X168532380Y-58541333D01*
X169603809Y-59969904D02*
X169365714Y-60088952D01*
X168770476Y-60088952D01*
X168532380Y-59969904D01*
X168413333Y-59731809D01*
X168413333Y-59493714D01*
X168532380Y-59255619D01*
X168770476Y-59136571D01*
X169365714Y-59136571D01*
X169603809Y-59017523D01*
X171865714Y-59969904D02*
X171627619Y-60088952D01*
X171151428Y-60088952D01*
X170913333Y-59969904D01*
X170794285Y-59850857D01*
X170675238Y-59612761D01*
X170675238Y-58898476D01*
X170794285Y-58660380D01*
X170913333Y-58541333D01*
X171151428Y-58422285D01*
X171627619Y-58422285D01*
X171865714Y-58541333D01*
X172937142Y-60088952D02*
X172937142Y-57588952D01*
X174008571Y-60088952D02*
X174008571Y-58779428D01*
X173889523Y-58541333D01*
X173651428Y-58422285D01*
X173294285Y-58422285D01*
X173056190Y-58541333D01*
X172937142Y-58660380D01*
X175199047Y-60088952D02*
X175199047Y-58422285D01*
X175199047Y-57588952D02*
X175080000Y-57708000D01*
X175199047Y-57827047D01*
X175318095Y-57708000D01*
X175199047Y-57588952D01*
X175199047Y-57827047D01*
X176389523Y-58422285D02*
X176389523Y-60088952D01*
X176389523Y-58660380D02*
X176508571Y-58541333D01*
X176746666Y-58422285D01*
X177103809Y-58422285D01*
X177341904Y-58541333D01*
X177460952Y-58779428D01*
X177460952Y-60088952D01*
X179603809Y-59969904D02*
X179365714Y-60088952D01*
X178889523Y-60088952D01*
X178651428Y-59969904D01*
X178532380Y-59731809D01*
X178532380Y-58779428D01*
X178651428Y-58541333D01*
X178889523Y-58422285D01*
X179365714Y-58422285D01*
X179603809Y-58541333D01*
X179722857Y-58779428D01*
X179722857Y-59017523D01*
X178532380Y-59255619D01*
X180675238Y-59969904D02*
X180913333Y-60088952D01*
X181389523Y-60088952D01*
X181627619Y-59969904D01*
X181746666Y-59731809D01*
X181746666Y-59612761D01*
X181627619Y-59374666D01*
X181389523Y-59255619D01*
X181032380Y-59255619D01*
X180794285Y-59136571D01*
X180675238Y-58898476D01*
X180675238Y-58779428D01*
X180794285Y-58541333D01*
X181032380Y-58422285D01*
X181389523Y-58422285D01*
X181627619Y-58541333D01*
X150675238Y-62783428D02*
X151032380Y-62902476D01*
X151151428Y-63021523D01*
X151270476Y-63259619D01*
X151270476Y-63616761D01*
X151151428Y-63854857D01*
X151032380Y-63973904D01*
X150794285Y-64092952D01*
X149841904Y-64092952D01*
X149841904Y-61592952D01*
X150675238Y-61592952D01*
X150913333Y-61712000D01*
X151032380Y-61831047D01*
X151151428Y-62069142D01*
X151151428Y-62307238D01*
X151032380Y-62545333D01*
X150913333Y-62664380D01*
X150675238Y-62783428D01*
X149841904Y-62783428D01*
X152341904Y-64092952D02*
X152341904Y-62426285D01*
X152341904Y-62902476D02*
X152460952Y-62664380D01*
X152580000Y-62545333D01*
X152818095Y-62426285D01*
X153056190Y-62426285D01*
X154841904Y-63973904D02*
X154603809Y-64092952D01*
X154127619Y-64092952D01*
X153889523Y-63973904D01*
X153770476Y-63735809D01*
X153770476Y-62783428D01*
X153889523Y-62545333D01*
X154127619Y-62426285D01*
X154603809Y-62426285D01*
X154841904Y-62545333D01*
X154960952Y-62783428D01*
X154960952Y-63021523D01*
X153770476Y-63259619D01*
X157103809Y-64092952D02*
X157103809Y-62783428D01*
X156984761Y-62545333D01*
X156746666Y-62426285D01*
X156270476Y-62426285D01*
X156032380Y-62545333D01*
X157103809Y-63973904D02*
X156865714Y-64092952D01*
X156270476Y-64092952D01*
X156032380Y-63973904D01*
X155913333Y-63735809D01*
X155913333Y-63497714D01*
X156032380Y-63259619D01*
X156270476Y-63140571D01*
X156865714Y-63140571D01*
X157103809Y-63021523D01*
X158294285Y-64092952D02*
X158294285Y-61592952D01*
X158532380Y-63140571D02*
X159246666Y-64092952D01*
X159246666Y-62426285D02*
X158294285Y-63378666D01*
X160675238Y-64092952D02*
X160437142Y-63973904D01*
X160318095Y-63854857D01*
X160199047Y-63616761D01*
X160199047Y-62902476D01*
X160318095Y-62664380D01*
X160437142Y-62545333D01*
X160675238Y-62426285D01*
X161032380Y-62426285D01*
X161270476Y-62545333D01*
X161389523Y-62664380D01*
X161508571Y-62902476D01*
X161508571Y-63616761D01*
X161389523Y-63854857D01*
X161270476Y-63973904D01*
X161032380Y-64092952D01*
X160675238Y-64092952D01*
X163651428Y-62426285D02*
X163651428Y-64092952D01*
X162580000Y-62426285D02*
X162580000Y-63735809D01*
X162699047Y-63973904D01*
X162937142Y-64092952D01*
X163294285Y-64092952D01*
X163532380Y-63973904D01*
X163651428Y-63854857D01*
X164484761Y-62426285D02*
X165437142Y-62426285D01*
X164841904Y-61592952D02*
X164841904Y-63735809D01*
X164960952Y-63973904D01*
X165199047Y-64092952D01*
X165437142Y-64092952D01*
X169008571Y-62783428D02*
X169365714Y-62902476D01*
X169484761Y-63021523D01*
X169603809Y-63259619D01*
X169603809Y-63616761D01*
X169484761Y-63854857D01*
X169365714Y-63973904D01*
X169127619Y-64092952D01*
X168175238Y-64092952D01*
X168175238Y-61592952D01*
X169008571Y-61592952D01*
X169246666Y-61712000D01*
X169365714Y-61831047D01*
X169484761Y-62069142D01*
X169484761Y-62307238D01*
X169365714Y-62545333D01*
X169246666Y-62664380D01*
X169008571Y-62783428D01*
X168175238Y-62783428D01*
X171032380Y-64092952D02*
X170794285Y-63973904D01*
X170675238Y-63854857D01*
X170556190Y-63616761D01*
X170556190Y-62902476D01*
X170675238Y-62664380D01*
X170794285Y-62545333D01*
X171032380Y-62426285D01*
X171389523Y-62426285D01*
X171627619Y-62545333D01*
X171746666Y-62664380D01*
X171865714Y-62902476D01*
X171865714Y-63616761D01*
X171746666Y-63854857D01*
X171627619Y-63973904D01*
X171389523Y-64092952D01*
X171032380Y-64092952D01*
X174008571Y-64092952D02*
X174008571Y-62783428D01*
X173889523Y-62545333D01*
X173651428Y-62426285D01*
X173175238Y-62426285D01*
X172937142Y-62545333D01*
X174008571Y-63973904D02*
X173770476Y-64092952D01*
X173175238Y-64092952D01*
X172937142Y-63973904D01*
X172818095Y-63735809D01*
X172818095Y-63497714D01*
X172937142Y-63259619D01*
X173175238Y-63140571D01*
X173770476Y-63140571D01*
X174008571Y-63021523D01*
X175199047Y-64092952D02*
X175199047Y-62426285D01*
X175199047Y-62902476D02*
X175318095Y-62664380D01*
X175437142Y-62545333D01*
X175675238Y-62426285D01*
X175913333Y-62426285D01*
X177818095Y-64092952D02*
X177818095Y-61592952D01*
X177818095Y-63973904D02*
X177580000Y-64092952D01*
X177103809Y-64092952D01*
X176865714Y-63973904D01*
X176746666Y-63854857D01*
X176627619Y-63616761D01*
X176627619Y-62902476D01*
X176746666Y-62664380D01*
X176865714Y-62545333D01*
X177103809Y-62426285D01*
X177580000Y-62426285D01*
X177818095Y-62545333D01*
D11*
X156210000Y-69850000D02*
X156210000Y-138430000D01*
X181610000Y-69850000D02*
X156210000Y-69850000D01*
X181610000Y-138430000D02*
X181610000Y-69850000D01*
X156210000Y-138430000D02*
X181610000Y-138430000D01*
X115570000Y-138430000D02*
X115570000Y-57150000D01*
X140970000Y-138430000D02*
X115570000Y-138430000D01*
X140970000Y-57150000D02*
X140970000Y-138430000D01*
X115570000Y-57150000D02*
X140970000Y-57150000D01*
X54610000Y-138430000D02*
X54610000Y-57150000D01*
X80010000Y-138430000D02*
X54610000Y-138430000D01*
X80010000Y-57150000D02*
X80010000Y-138430000D01*
X54610000Y-57150000D02*
X80010000Y-57150000D01*
M02*
